<svg width="32" height="32" viewBox="0 0 32 32" fill="none" xmlns="http://www.w3.org/2000/svg">
<path fill-rule="evenodd" clip-rule="evenodd" d="M27.2224 13.145C25.7757 12.7903 24.089 13.6013 22.8277 14.3471C20.9552 15.4558 18.655 17.7717 17.1385 19.4815C16.5684 20.126 13.368 23.2478 12.4914 23.1535C11.6999 23.0684 12.1613 21.8552 12.0711 21.2116C12.0221 20.8556 11.9241 20.2971 11.5968 20.1644C11.0165 19.9281 10.3923 21.1251 10.145 21.5556C9.75567 22.2274 9.37146 23.0587 8.60534 23.2538C7.74398 23.4729 7.09669 22.1552 6.75594 21.4229C6.4568 20.7705 4.72622 13.2092 1.11619 13.7442C0.969159 13.7659 0.368103 13.8773 0.368103 14.0655C0.368103 14.3656 0.368103 14.8043 0.368103 15.1049C0.368103 15.6837 0.368103 16.2626 0.368103 16.8419C2.43389 16.2589 3.65634 17.7985 4.73408 20.1167C5.35594 21.4552 5.83262 22.9898 6.25059 24.4319C6.39253 24.9187 6.41056 25.6386 6.72774 26.0085C7.17899 26.5346 7.7389 26.2665 8.13051 25.7833C8.76994 24.9927 9.20871 23.7379 10.1394 23.3472C11.1067 22.9412 10.931 24.8415 11.0082 25.5054C11.0549 25.8873 11.1964 26.4006 11.5963 26.3335C12.1715 26.2383 12.589 25.4994 12.9681 25.0519C13.4244 24.5114 13.8937 23.9866 14.3658 23.4697C16.3594 21.292 19.5982 18.4033 21.9474 16.8031C22.8786 16.1701 23.9642 15.4942 25.0627 15.4942C25.2587 15.4942 25.4548 15.5214 25.643 15.5885C25.8626 15.6648 25.8288 15.6426 25.9578 15.4105C26.3009 14.7979 26.6416 14.1829 26.9842 13.5694C27.0652 13.4275 27.1451 13.2869 27.2224 13.145Z" fill="#0E417B"/>
<path fill-rule="evenodd" clip-rule="evenodd" d="M29.6234 9.58019C28.0449 9.2399 26.2084 10.0213 24.8343 10.7421C22.794 11.811 20.2899 14.047 18.6398 15.6976C18.0156 16.319 17.4432 16.9921 16.8038 17.5946C16.1537 18.2044 15.0861 19.3312 14.1318 19.2424C13.2677 19.1601 13.5849 17.7906 13.4869 17.1706C13.4328 16.8262 13.3269 16.2871 12.9686 16.1585C12.3393 15.9315 11.6587 17.0869 11.3878 17.5021C10.9624 18.1508 10.7276 19.1513 9.89486 19.34C8.9586 19.5526 8.25213 18.2789 7.88318 17.5719C7.55583 16.9413 6.68384 12.7209 5.23992 11.455C4.09236 10.4494 2.65584 9.97735 1.18325 10.2918C1.02605 10.325 0.368591 10.4194 0.368591 10.6011C0.368591 10.8923 0.368591 11.1827 0.368591 11.474C0.368591 12.0325 0.368591 12.5919 0.368591 13.1505C2.61746 12.5882 4.50524 14.0738 5.67823 16.3106C6.35372 17.6024 6.87756 19.0843 7.33159 20.4755C7.48602 20.9462 7.50682 21.6401 7.8522 21.9985C8.33952 22.5052 8.95074 22.2463 9.37888 21.7807C10.078 21.0174 10.5523 19.8065 11.5658 19.4287C12.6204 19.0367 12.4272 20.8717 12.515 21.5125C12.564 21.8796 12.7184 22.3767 13.1544 22.3119C13.7809 22.2204 14.2373 21.5061 14.6501 21.0742C15.1481 20.5522 15.6585 20.0464 16.174 19.5475C18.3429 17.4443 21.3163 14.6582 23.8777 13.113C24.8912 12.5018 26.0748 11.8494 27.2691 11.8494C27.4831 11.8494 27.6972 11.8753 27.9034 11.9396C28.1406 12.0145 28.1045 11.9923 28.2465 11.7694C28.6205 11.1762 28.9913 10.5844 29.3654 9.99261C29.4504 9.85483 29.5355 9.71659 29.6234 9.58019Z" fill="#45A6D9"/>
<path fill-rule="evenodd" clip-rule="evenodd" d="M31.5601 6.17199C29.8785 5.83031 27.9186 6.61307 26.4539 7.33249C24.2772 8.40283 22.3376 9.92165 20.5765 11.5722C19.9112 12.1936 19.3027 12.8682 18.6194 13.4702C17.9259 14.0786 16.7885 15.2068 15.7695 15.1171C14.8489 15.0343 15.1864 13.6662 15.0833 13.0448C15.0265 12.7018 14.9132 12.1627 14.5317 12.0337C13.8586 11.8067 13.1341 12.9621 12.8451 13.3773C12.3938 14.0255 12.1437 15.0265 11.2541 15.2133C10.2531 15.4259 9.50276 14.1535 9.10837 13.4452C8.75791 12.816 7.10223 9.30996 5.5626 8.04497C4.34015 7.03936 2.80838 6.5673 1.23778 6.8817C1.0704 6.91499 0.369019 7.00931 0.369019 7.1924C0.369019 7.48275 0.369019 7.77265 0.369019 8.063C0.369019 8.62245 0.369019 9.18097 0.369019 9.74041C2.76723 9.17819 5.5062 9.94801 6.75685 12.1853C7.47905 13.4771 8.03618 14.959 8.52072 16.3502C8.68578 16.8208 8.70613 17.5144 9.07508 17.8718C9.59569 18.3799 10.2485 18.121 10.7026 17.654C11.4479 16.8907 11.956 15.6798 13.0365 15.3034C14.1582 14.9113 13.9547 16.7464 14.0477 17.3858C14.1018 17.7548 14.2645 18.2514 14.731 18.1866C15.3991 18.0951 15.8841 17.3808 16.3247 16.9489C16.8537 16.4269 17.3974 15.9211 17.9494 15.4209C20.2603 13.319 22.7075 11.2486 25.4335 9.70342C26.5168 9.0922 27.7776 8.43982 29.0542 8.43982C29.2812 8.43982 29.5105 8.46571 29.7301 8.52998C29.9826 8.60488 29.9442 8.58315 30.0935 8.35983C30.4907 7.76664 30.8879 7.17483 31.2878 6.58163C31.3766 6.44524 31.47 6.30838 31.5601 6.17199Z" fill="#0E417B"/>
</svg>
