<svg width="32" height="32" viewBox="0 0 32 32" fill="none" xmlns="http://www.w3.org/2000/svg">
<path fill-rule="evenodd" clip-rule="evenodd" d="M6.57411 4.43661C9.17759 2.30299 12.5071 1.02246 16.1358 1.02246C21.9649 1.02246 27.0221 4.32649 29.5373 9.16388C17.6574 6.7752 13.6581 15.1085 13.6581 15.1085C12.3733 14.5614 11.2688 13.7808 10.3274 12.895C10.3274 12.895 11.3028 11.0785 12.7405 9.70199L10.6605 6.58195C10.6605 6.58195 8.24895 8.03486 7.54294 9.35781C6.23364 7.15395 5.68625 5.24162 5.68236 5.22803L5.68234 5.22796L5.683 5.22733L6.57411 4.43661ZM14.0252 5.12897L15.8261 7.41165C15.8261 7.41165 18.04 6.13839 20.8961 5.691C20.8961 5.691 18.4988 4.131 14.0252 5.12897Z" fill="#0389AD"/>
<path fill-rule="evenodd" clip-rule="evenodd" d="M6.5098 5.49091C9.0544 3.18451 12.431 1.7793 16.1358 1.7793C21.1349 1.7793 25.5363 4.33777 28.1025 8.21657C17.1052 7.10616 13.4288 14.2365 13.4288 14.2365C12.5809 13.8588 11.8179 13.345 11.1358 12.7545C11.1381 12.7508 12.68 10.3284 13.597 9.77821L10.8938 5.73101C10.8938 5.73101 8.96899 6.75064 7.65156 8.14351L7.65129 8.14377C6.87442 6.6458 6.51053 5.49325 6.5098 5.49091ZM12.9623 4.86238L15.6611 8.28322C15.6611 8.28322 18.5982 6.34682 22.9265 6.06171C22.9265 6.06171 18.7511 2.77345 12.9623 4.86238Z" fill="#180D88"/>
<path fill-rule="evenodd" clip-rule="evenodd" d="M30.9988 13.5089C31.5783 16.8247 31.058 20.3538 29.2753 23.5145C26.4118 28.5917 21.0495 31.3734 15.6005 31.1878C23.5171 22.0137 18.2233 14.4365 18.2233 14.4365C19.3311 13.5861 20.5536 13.0076 21.7877 12.6228C21.7877 12.6228 22.8906 14.3648 23.3833 16.2932L27.1227 16.0143C27.1227 16.0143 27.0419 13.2 26.2365 11.9352C28.8072 11.8773 30.7458 12.3429 30.7476 12.3434L30.7479 12.3443L30.9988 13.5089ZM26.7354 19.6588L23.8624 20.106C23.8624 20.106 23.8838 22.6598 22.8704 25.3674C22.8704 25.3674 25.4069 24.0456 26.7354 19.6588Z" fill="#0389AD"/>
<path fill-rule="evenodd" clip-rule="evenodd" d="M30.1119 12.935C30.8708 16.2844 30.4359 19.9158 28.6159 23.1428C26.1601 27.497 21.7694 30.0738 17.1303 30.4036C23.5 21.3701 19.0954 14.6651 19.0954 14.6651C19.8409 14.1122 20.6633 13.7 21.5127 13.396C21.5148 13.3998 22.8673 15.9329 22.896 17.0019L27.7492 16.6355C27.7492 16.6355 27.8066 14.4581 27.2406 12.6264L27.2405 12.626C28.9269 12.6853 30.1095 12.9345 30.1119 12.935ZM27.4896 18.864L23.1841 19.5342C23.1841 19.5342 23.4279 23.0437 21.5499 26.9537C21.5499 26.9537 26.4652 24.9323 27.4896 18.864Z" fill="#180D88"/>
<path fill-rule="evenodd" clip-rule="evenodd" d="M10.7324 30.2203C7.5858 29.0248 4.81757 26.7749 3.01081 23.6279C0.108549 18.5727 0.456042 12.5419 3.39886 7.95215C7.24221 19.4441 16.4604 18.7633 16.4604 18.7633C16.6257 20.15 16.4986 21.4965 16.1991 22.754C16.1991 22.754 14.1381 22.8125 12.2286 22.251L10.5583 25.6083C10.5583 25.6083 13.0191 26.9763 14.5179 26.9299C13.2546 29.1696 11.8641 30.5983 11.8627 30.5996L11.8618 30.5994L10.7324 30.2203ZM7.62302 23.4137L8.70598 20.7154C8.70598 20.7154 6.4995 19.4293 4.68942 17.1751C4.68942 17.1751 4.5302 20.0309 7.62302 23.4137Z" fill="#0389AD"/>
<path fill-rule="evenodd" clip-rule="evenodd" d="M11.6789 29.7511C8.41182 28.6926 5.51196 26.4639 3.66737 23.251C1.17836 18.9156 1.20565 13.8247 3.29182 9.66797C7.80443 19.7581 15.8185 19.3963 15.8185 19.3963C15.9131 20.3197 15.8474 21.2373 15.6749 22.1228C15.6705 22.1226 12.8021 21.9915 11.8684 21.4702L9.70438 25.8296C9.70438 25.8296 11.547 26.9912 13.4109 27.4402L13.4113 27.4403C12.499 28.8598 11.6806 29.7493 11.6789 29.7511ZM7.92117 24.4682L9.54416 20.4245C9.54416 20.4245 6.40246 18.8414 4.00023 15.2297C4.00023 15.2297 3.22741 20.4879 7.92117 24.4682Z" fill="#180D88"/>
</svg>
