<svg width="32" height="32" viewBox="0 0 32 32" fill="none" xmlns="http://www.w3.org/2000/svg">
<path d="M0 12.7119C0 13.1597 0.0657173 13.6134 0.243607 14.0441C1.02355 15.9825 3.00838 17.168 5.5336 16.16C6.13629 15.9188 22.8328 9.18828 22.8328 9.18828C22.8328 9.18828 16.2607 25.8638 16.0138 26.4834C15.0564 28.8757 16.2068 31.0382 18.1606 31.7638C18.5891 31.926 19.045 31.9993 19.4892 31.9953C21.0838 31.9879 22.5008 31.0455 23.1882 29.1652C23.2888 28.8794 31.5137 6.29773 31.6987 5.75344C31.8066 5.43284 31.9922 4.67809 31.9999 4.15517C32.0072 3.03727 31.5906 1.98498 30.7912 1.18933C29.996 0.403424 28.9571 -0.00389318 27.8489 2.80457e-05C27.3199 2.80457e-05 26.8798 0.0948641 26.2232 0.303146C25.8255 0.430394 4.62614 8.3231 2.80784 8.99922C0.996725 9.67459 -0.00328095 11.1189 2.30315e-05 12.7118L0 12.7119Z" fill="#E60013"/>
</svg>
