<svg width="32" height="32" viewBox="0 0 32 32" fill="none" xmlns="http://www.w3.org/2000/svg">
<path d="M31.1831 23.2684L24.2213 22.1952L30.5903 18.9724C30.6825 18.9258 30.7272 18.819 30.6961 18.7217C30.6637 18.6243 30.5663 18.5626 30.4647 18.5791L23.3914 19.681L28.4712 14.6534C28.5451 14.58 28.554 14.4652 28.4933 14.3824C28.4336 14.2982 28.3197 14.2713 28.228 14.3193L21.8873 17.5704L25.0823 11.2565C25.1284 11.1643 25.1016 11.0514 25.0174 10.9916C24.9336 10.9318 24.8179 10.9403 24.7469 11.0147L19.7296 16.0888L20.9096 9.0278C20.9261 8.92617 20.8654 8.82596 20.768 8.7935C20.6706 8.76244 20.5624 8.80573 20.5153 8.89653L17.2342 15.3078L16.1535 8.33619C16.137 8.23409 16.0495 8.15881 15.9465 8.15881C15.8434 8.15881 15.7554 8.23409 15.7399 8.33619L14.6456 15.3031L11.3959 8.8683C11.3503 8.77515 11.2426 8.73139 11.1442 8.76339C11.0468 8.79444 10.9871 8.89371 11.0026 8.9958L12.1755 16.1495L7.09382 10.9502C7.02184 10.8759 6.9061 10.8669 6.82188 10.9267C6.73719 10.9869 6.71037 11.0993 6.75742 11.192L10.0645 17.6457L3.58824 14.2972C3.49602 14.2483 3.38311 14.2761 3.32148 14.3603C3.26172 14.4431 3.27207 14.5598 3.34453 14.6327L8.54667 19.7101L1.34967 18.5415C1.24758 18.5241 1.14925 18.5847 1.11726 18.6831C1.08479 18.7814 1.12901 18.8887 1.2217 18.9348L7.68992 22.1802L0.556438 23.2684C0.448226 23.2849 0.371067 23.3823 0.380007 23.491C0.387537 23.6001 0.479279 23.6839 0.58796 23.6839H31.1511C31.2603 23.6839 31.3511 23.6001 31.3595 23.491C31.368 23.3823 31.2908 23.2849 31.1831 23.2684Z" fill="#F9981E"/>
<path d="M22.6391 23.6994C22.6438 23.6165 22.6033 23.5653 22.5473 23.5568L19.5682 23.0976L22.2947 21.7191C22.3422 21.6941 22.3652 21.6391 22.3497 21.5888C22.3323 21.537 22.2815 21.505 22.2283 21.5135L19.2003 21.9854L21.3753 19.8315C21.4134 19.7939 21.4186 19.7332 21.3866 19.6904C21.3561 19.6461 21.2972 19.632 21.2488 19.657L18.5322 21.0491L19.9008 18.3467C19.9253 18.2987 19.9107 18.2408 19.8656 18.2088C19.8227 18.1777 19.763 18.182 19.7254 18.2206L17.5785 20.3923L18.0838 17.3699C18.0923 17.3177 18.0613 17.265 18.0104 17.2485C17.9592 17.2311 17.9032 17.2542 17.8792 17.3026L16.4738 20.0474L16.0109 17.0632C16.0019 17.0095 15.9568 16.9709 15.9027 16.9709C15.85 16.9709 15.8034 17.0095 15.7949 17.0632L15.3273 20.0456L13.936 17.2899C13.9102 17.2419 13.8551 17.2194 13.8038 17.2349C13.753 17.2523 13.722 17.3026 13.729 17.3572L14.232 20.4177L12.0579 18.1914C12.0202 18.1537 11.9595 18.1472 11.9163 18.1806C11.872 18.2107 11.8574 18.2695 11.8824 18.3175L13.2976 21.082L10.525 19.648C10.4761 19.6231 10.4182 19.6367 10.3853 19.6809C10.3542 19.7252 10.3594 19.7849 10.3971 19.8226L12.6248 21.9967L9.54361 21.4975C9.49044 21.4895 9.43775 21.5196 9.42222 21.5713C9.4067 21.6226 9.42882 21.6777 9.47633 21.7026L12.2451 23.091L9.19263 23.5568C9.1357 23.5653 9.0943 23.6165 9.09994 23.6993H22.6391L22.6391 23.6994Z" fill="#FFE714"/>
</svg>
