<svg width="32" height="32" viewBox="0 0 32 32" fill="none" xmlns="http://www.w3.org/2000/svg">
<path fill-rule="evenodd" clip-rule="evenodd" d="M32 14.7504C31.948 14.8441 31.9076 14.947 31.842 15.03C30.9188 16.1995 29.7161 16.8635 28.2331 17.0251C26.8287 17.1783 25.4751 16.9269 24.1442 16.5131C23.0066 16.1594 21.8811 15.7578 20.7063 15.546C17.9699 15.0524 15.6995 15.8938 13.881 17.9846C13.8312 18.0417 13.7846 18.1016 13.736 18.1599C13.7333 18.163 13.7272 18.1636 13.6889 18.1786C14.2331 17.1361 14.9995 16.3345 15.9673 15.6721C15.8517 15.6436 15.767 15.6241 15.6828 15.6016C15.0316 15.4269 14.4838 15.0565 13.932 14.6887C13.4876 14.3924 13.0474 14.08 12.5712 13.8438C11.9721 13.5468 11.3256 13.4771 10.6702 13.68C10.603 13.7008 10.5387 13.7316 10.475 13.7618C10.4438 13.7765 10.4174 13.8004 10.3833 13.824C10.4035 13.842 10.4159 13.8588 10.4329 13.8674C11.171 14.2418 11.6285 14.8559 11.9306 15.6066C12.2059 16.2904 12.3126 17.0055 12.3496 17.7566C12.322 17.7365 12.3048 17.7298 12.2968 17.7173C11.7373 16.8227 10.9014 16.333 9.89733 16.1096C8.69623 15.8424 7.50473 15.9556 6.33042 16.274C5.76594 16.4269 5.21698 16.6373 4.65445 16.799C3.64136 17.0901 2.61488 17.2062 1.57236 16.9576C1.0945 16.8437 0.6546 16.6458 0.273822 16.3318C0.171623 16.2474 0.0906573 16.1372 0 16.0389C0.0101318 16.025 0.0203516 16.0111 0.0307477 15.9972C0.093829 16.027 0.159994 16.0518 0.219727 16.0874C0.935999 16.5138 1.71421 16.6451 2.5355 16.5841C3.49828 16.5125 4.4015 16.2039 5.30535 15.8971C5.94144 15.6812 6.57746 15.4679 7.24827 15.3797C8.51676 15.2132 9.71346 15.4296 10.831 16.0519C11.1249 16.2155 11.3979 16.4166 11.6813 16.601C11.6786 16.605 11.6895 16.5955 11.6878 16.5909C11.4286 15.9071 11.1146 15.2544 10.6063 14.7145C10.1072 14.1847 9.4873 13.8929 8.77067 13.8087C8.49668 13.7764 8.21836 13.7807 7.94216 13.7663C7.90005 13.7641 7.85864 13.7504 7.8167 13.7421C7.83133 13.6973 7.83362 13.6412 7.8626 13.6096C8.11052 13.3381 8.40963 13.2055 8.78477 13.2778C8.97798 13.3151 9.17392 13.3384 9.36854 13.3689C9.58721 13.4031 9.79275 13.3729 10.0074 13.3059C10.3767 13.1905 10.7542 13.0861 11.1362 13.0291C11.7991 12.9299 12.4252 13.0898 12.9978 13.4257C13.4111 13.668 13.8078 13.9392 14.2054 14.2071C14.8058 14.6117 15.4324 14.9456 16.1648 15.0432C16.6076 15.102 17.0425 15.084 17.4682 14.9527C19.255 14.4013 21.0116 14.4953 22.7515 15.1653C23.6368 15.5063 24.5278 15.8359 25.429 16.1311C26.3385 16.4291 27.2787 16.5573 28.2389 16.4671C29.4493 16.3532 30.5005 15.8589 31.4463 15.1162C31.6153 14.9835 31.7806 14.8461 31.9476 14.7108C31.9651 14.7241 31.9826 14.7374 32 14.7504Z" fill="#120B7C"/>
</svg>
