<svg width="32" height="32" viewBox="0 0 32 32" fill="none" xmlns="http://www.w3.org/2000/svg">
<path fill-rule="evenodd" clip-rule="evenodd" d="M13.6611 13.0303H11.9029V19.3018H13.5328V18.6301C13.7581 18.9125 13.9663 19.105 14.1574 19.2077C14.4112 19.3388 14.6907 19.4044 14.9959 19.4044C15.3524 19.4044 15.6768 19.311 15.9691 19.1242C16.2614 18.9374 16.4903 18.6551 16.6557 18.2772C16.8211 17.8993 16.9038 17.4622 16.9038 16.966C16.9038 16.2216 16.7227 15.6505 16.3605 15.2527C15.9983 14.8548 15.5406 14.6559 14.9873 14.6559C14.7192 14.6559 14.4747 14.7015 14.2536 14.7928C14.0326 14.8841 13.8351 15.021 13.6611 15.2035V13.0303ZM13.8686 17.8665C13.7217 17.6911 13.6483 17.4081 13.6483 17.0173C13.6483 16.6608 13.7232 16.3949 13.8729 16.2195C14.0226 16.0441 14.2158 15.9564 14.4526 15.9564C14.6493 15.9564 14.8169 16.0405 14.9552 16.2088C15.0935 16.3771 15.1627 16.6409 15.1627 17.0002C15.1627 17.4081 15.0921 17.6982 14.9509 17.8708C14.8098 18.0433 14.6351 18.1296 14.4269 18.1296C14.2016 18.1296 14.0155 18.0419 13.8686 17.8665ZM17.8273 13.0303H19.5727V19.3018H17.8273V13.0303ZM24.0626 19.3018H25.6882V14.7586H23.9471V16.9446C23.9471 17.3582 23.8808 17.6448 23.7482 17.8045C23.6156 17.9642 23.4452 18.0441 23.237 18.0441C23.0459 18.0441 22.8976 17.9842 22.7921 17.8644C22.6865 17.7446 22.6338 17.5421 22.6338 17.2569V14.7586H20.8841V17.6505C20.8841 18.2465 21.0203 18.6879 21.2926 18.9745C21.565 19.2611 21.9407 19.4044 22.4199 19.4044C22.7792 19.4044 23.0822 19.3403 23.3289 19.2119C23.5756 19.0836 23.8202 18.8683 24.0626 18.566V19.3018ZM31.9633 17.4622H28.4725C28.5039 17.7417 28.5795 17.9499 28.6993 18.0868C28.8675 18.2836 29.0871 18.382 29.3581 18.382C29.5292 18.382 29.6917 18.3392 29.8458 18.2537C29.9399 18.1995 30.0411 18.1039 30.1495 17.967L31.865 18.1253C31.6026 18.5816 31.286 18.9089 30.9152 19.1071C30.5445 19.3053 30.0126 19.4044 29.3196 19.4044C28.7178 19.4044 28.2444 19.3196 27.8993 19.1499C27.5542 18.9802 27.2683 18.7107 27.0415 18.3414C26.8148 17.972 26.7014 17.5378 26.7014 17.0387C26.7014 16.3286 26.9289 15.7539 27.3838 15.3147C27.8387 14.8755 28.4668 14.6559 29.2682 14.6559C29.9185 14.6559 30.4318 14.7543 30.8083 14.9511C31.1847 15.1479 31.4714 15.4331 31.6682 15.8067C31.8649 16.1803 31.9633 16.6665 31.9633 17.2655V17.4622ZM29.9206 15.9051C30.0675 16.0505 30.158 16.2915 30.1923 16.628H28.4768C28.5053 16.3571 28.5723 16.1532 28.6779 16.0163C28.8433 15.7967 29.0643 15.6869 29.341 15.6869C29.5805 15.6869 29.7737 15.7596 29.9206 15.9051Z" fill="#252F86"/>
<path fill-rule="evenodd" clip-rule="evenodd" d="M5.68557 13.0303V13.9158H6.4556V13.0303H5.68557ZM3.229 18.7414C2.9438 18.9838 2.6693 19.1549 2.4055 19.2547C2.14169 19.3545 1.85863 19.4044 1.55632 19.4044C1.05722 19.4044 0.673632 19.2825 0.405546 19.0387C0.137461 18.7948 0.00341797 18.4833 0.00341797 18.1039C0.00341797 17.8815 0.0540399 17.6783 0.155286 17.4943C0.256531 17.3104 0.389147 17.1628 0.553136 17.0516C0.717124 16.9403 0.90179 16.8562 1.10713 16.7992C1.25829 16.7592 1.48644 16.7207 1.79161 16.6837C2.41334 16.6095 2.87108 16.5211 3.16484 16.4184C3.16768 16.3129 3.16911 16.2459 3.16911 16.2174C3.16911 15.9036 3.09638 15.6826 2.95094 15.5543C2.75415 15.3803 2.46182 15.2933 2.07395 15.2933C1.71175 15.2933 1.44438 15.3568 1.27183 15.4837C1.09929 15.6106 0.971664 15.8352 0.888957 16.1575L0.136036 16.0548C0.204482 15.7325 0.317135 15.4723 0.473995 15.2741C0.630852 15.0759 0.857584 14.9233 1.15419 14.8163C1.4508 14.7094 1.79446 14.6559 2.18518 14.6559C2.57305 14.6559 2.88819 14.7015 3.13061 14.7928C3.37303 14.8841 3.55127 14.9989 3.66536 15.1372C3.77943 15.2755 3.85929 15.4502 3.90492 15.6612C3.93059 15.7924 3.94342 16.0291 3.94342 16.3714V17.3981C3.94342 18.1139 3.95982 18.5667 3.99262 18.7563C4.02541 18.946 4.0903 19.1278 4.18727 19.3018H3.38301C3.30315 19.1421 3.25182 18.9553 3.229 18.7414ZM3.16484 17.0216C2.88534 17.1357 2.4661 17.2327 1.90711 17.3125C1.59054 17.3582 1.36666 17.4095 1.23547 17.4665C1.10428 17.5236 1.00304 17.607 0.931736 17.7168C0.860436 17.8266 0.824787 17.9485 0.824788 18.0826C0.824787 18.2879 0.902503 18.459 1.05794 18.5959C1.21337 18.7328 1.44081 18.8012 1.74027 18.8012C2.03688 18.8012 2.30068 18.7364 2.5317 18.6066C2.7627 18.4768 2.9324 18.2993 3.04077 18.074C3.12348 17.9 3.16483 17.6433 3.16484 17.304V17.0216ZM5.68557 19.3018V14.7586H6.4556V19.3018H5.68557ZM8.45431 14.7586V19.3018H9.22434V16.9232C9.22434 16.5981 9.26712 16.2986 9.35268 16.0249C9.40972 15.8452 9.50526 15.7047 9.6393 15.6035C9.77334 15.5022 9.9245 15.4516 10.0928 15.4516C10.281 15.4516 10.4692 15.5072 10.6575 15.6184L10.9227 14.904C10.6546 14.7386 10.3908 14.6559 10.1313 14.6559C9.95159 14.6559 9.78689 14.7072 9.63716 14.8099C9.48743 14.9126 9.32416 15.1251 9.14734 15.4473V14.7586H8.45431Z" fill="#828282"/>
</svg>
