<svg width="32" height="32" viewBox="0 0 32 32" fill="none" xmlns="http://www.w3.org/2000/svg">
<path d="M25.9388 8.58564C25.1615 9.15975 24.3256 9.78733 23.4303 10.468C23.3723 10.526 23.3235 10.576 23.2847 10.6149C23.2269 10.6538 23.1693 10.6927 23.1104 10.7316C22.8083 10.9728 22.5077 11.2031 22.2065 11.4166C21.9145 11.6594 21.6367 11.8881 21.3749 12.103C20.8982 12.5014 20.4607 12.8698 20.0622 13.2107C19.6448 13.5508 19.2457 13.8914 18.8673 14.2324C18.7885 14.3104 18.711 14.3779 18.6344 14.4353C18.5469 14.5145 18.4543 14.5968 18.3569 14.6845C17.978 15.0343 17.5896 15.3898 17.1893 15.7495C16.7921 16.1295 16.3637 16.5382 15.9073 16.976L17.073 18.7407C17.4714 18.2843 17.85 17.8449 18.2115 17.4275C18.551 17.0086 18.8916 16.6102 19.2317 16.2307C19.2706 16.1918 19.3091 16.1438 19.348 16.0853C19.3869 16.0462 19.4259 16.0073 19.4648 15.9686C19.8243 15.57 20.1947 15.161 20.5731 14.7439C20.9331 14.3435 21.3315 13.8974 21.769 13.4007C22.021 13.0989 22.3076 12.7774 22.6283 12.4368C22.9304 12.1156 23.2515 11.7864 23.5912 11.4449C23.6301 11.3874 23.6687 11.3388 23.7075 11.2999C23.7464 11.261 23.7868 11.222 23.8256 11.1831C24.6606 10.2878 25.438 9.48038 26.1586 8.76117C26.8485 8.06158 27.192 7.70207 27.192 7.68154C27.1162 7.72061 26.6969 8.02144 25.9388 8.58564ZM12.1452 26.7442C12.4075 26.4043 12.6265 26.0979 12.8016 25.8259C12.9669 25.5438 13.1086 25.2629 13.2249 24.9808C13.3601 24.7279 13.4681 24.4515 13.546 24.1493C13.6321 23.8486 13.7055 23.5085 13.763 23.1285V23.1004C13.8218 22.7992 13.8607 22.5114 13.8798 22.2393C13.8998 21.9572 13.9187 21.6852 13.9387 21.4235V21.2189V21.0452C13.9187 20.7237 13.8798 20.3928 13.822 20.0533C13.7632 19.7321 13.6809 19.3872 13.5748 19.0185C13.4974 19.0962 13.1905 19.3823 12.6567 19.8775C12.1006 20.3737 11.5139 20.9138 10.8921 21.4967L10.862 21.5253L10.8327 21.554C10.5997 21.7686 10.3808 21.9769 10.1768 22.1815C9.9534 22.3762 9.74528 22.5659 9.55049 22.7503C9.24841 23.0223 9.01041 23.2509 8.83524 23.4354C8.65089 23.6092 8.47086 23.7744 8.2957 23.9302L8.26707 23.975C7.98587 24.2268 7.65354 24.5432 7.27494 24.9218C6.89688 25.3007 6.28928 25.9094 5.45287 26.7438H4.6224H2.74165H0.859094H0C0.310909 26.2875 0.975392 25.5925 1.99777 24.66C2.98937 23.7172 4.10194 22.7396 5.33621 21.7302C5.50166 21.593 5.67197 21.4519 5.84623 21.3064C6.00286 21.1716 6.17316 21.0344 6.35697 20.8996C7.97021 19.5578 9.46246 18.3909 10.8325 17.3991C12.0289 16.5243 12.6954 16.0883 12.8302 16.0883L12.8405 16.0908L12.861 16.1157L12.8405 16.0908C12.7845 16.0091 12.6104 15.741 12.3199 15.2852C11.9901 14.7597 11.5425 14.191 10.9779 13.5785C10.8431 13.4127 10.7059 13.2531 10.5713 13.0979C10.4054 12.9421 10.2458 12.7907 10.09 12.6444C9.27271 11.8962 8.26707 11.1907 7.07079 10.5299C5.85578 9.88959 4.59288 9.35886 3.27975 8.93958C3.10459 8.88125 2.91592 8.82328 2.7114 8.76441C2.63057 8.74011 2.5519 8.71833 2.47107 8.69834C1.85807 8.285 1.23085 7.99029 0.552686 7.55228C1.06937 7.6603 1.58893 7.78542 2.11245 7.93232C2.37619 7.99029 2.64137 8.05888 2.90835 8.13521C3.17444 8.21263 3.43962 8.30498 3.70336 8.413C4.51871 8.6645 5.33603 8.96082 6.15246 9.29946C6.9381 9.64061 7.67388 9.9985 8.35439 10.3776C10.4236 11.4641 11.9794 12.4546 13.0202 13.3468C14.0507 14.269 14.5742 14.748 14.5947 14.7885C14.7785 14.6042 15.5766 14.0272 16.9855 13.0559C18.3749 12.0872 19.9066 11.0236 21.5778 9.86906C21.6183 9.84908 21.661 9.82028 21.7101 9.78283C21.7287 9.76285 21.7593 9.7425 21.7976 9.72396C23.1676 8.78259 24.4808 7.89452 25.7356 7.05973C26.9689 6.24528 27.8723 5.64939 28.4471 5.26989L28.6947 5.09526C28.831 4.97896 29.0211 4.85402 29.263 4.7172C29.5144 4.59172 29.8217 4.4711 30.1812 4.35282C30.5225 4.23652 30.8905 4.18018 31.2909 4.18018C31.2909 4.3359 30.4633 5.59754 28.8112 7.96977C27.1203 10.3805 25.2576 13.0759 23.2267 16.0593C23.0715 16.3128 22.9118 16.56 22.7464 16.8034C22.5694 17.0655 22.3989 17.3229 22.2351 17.5764C21.1272 19.2471 20.0719 20.8808 19.0707 22.4723C18.0602 24.0871 17.2238 25.5106 16.5631 26.7442H12.1452Z" fill="#ED2225"/>
<path d="M8.81488 8.89058L8.98177 8.72208L9.1726 8.63314L9.45128 8.6443L10.3552 8.58832L11.8152 8.56113L12.0882 9.1275L8.81488 8.89058ZM13.7415 9.24668L12.82 8.51198L14.0245 8.43277L15.2759 8.34366L15.6234 8.29541C15.6019 8.32475 15.5884 8.34366 15.5884 8.34366L15.2338 8.65421C15.1666 8.69903 15.1272 8.72532 15.1272 8.72532L14.4165 9.24434L14.3513 9.29115L13.7415 9.24668ZM9.89757 10.9201L9.94762 10.8654L10.04 10.7645C10.04 10.7645 10.2069 10.6731 10.3075 10.6278C10.4088 10.5822 10.5338 10.591 10.5338 10.591L11.2445 10.5629L11.9052 10.5273L12.7809 10.4923L12.8086 10.5629L12.8129 10.5985L12.7507 10.6729L12.5589 10.9923L9.89757 10.9201Z" fill="black" stroke="white" stroke-width="0.02"/>
<path d="M12.793 8.49107L14.031 9.47707L13.978 9.55607L13.612 9.82207L13.178 10.1901L12.813 10.5901L12.809 10.5571L12.55 9.95607L12.282 9.47707L12.148 9.25207L11.672 8.26507L12.074 7.99707L12.793 8.49107Z" fill="black" stroke="white" stroke-width="0.02"/>
<path d="M19.2423 8.19821L19.3723 8.1145C19.3183 8.14996 19.2706 8.18165 19.2317 8.20739L19.2423 8.19821ZM12.4839 11.1184C12.5165 11.0436 12.5584 10.9516 12.5584 10.9516L12.7511 10.6581L13.1774 10.19L13.6123 9.8217L13.9805 9.55418L14.4169 9.24471L15.1276 8.72515C15.1276 8.72515 15.1665 8.69833 15.2336 8.65368L15.2311 8.65566L15.2194 8.68933L15.4423 9.10231C15.4423 9.10231 15.7546 9.22437 15.9215 9.1466C16.0899 9.06775 16.3228 8.84487 16.3228 8.84487L16.5691 8.52226C16.5691 8.52226 16.4571 8.21963 16.4474 8.17481C16.4357 8.13052 16.3228 8.02988 16.2454 7.99676C16.2386 7.99424 16.2323 7.99136 16.2254 7.98848C16.6152 7.72816 16.9752 7.48782 17.0429 7.44551C17.2024 7.34488 18.3323 6.62531 18.3323 6.62531L19.37 5.93004C19.37 5.93004 19.8638 5.67944 20.0478 5.61229C20.2321 5.54622 20.5241 5.51993 20.6579 5.47799C20.7922 5.43622 21.0025 5.48663 21.0025 5.48663L21.1863 5.57034C21.1863 5.57034 21.2106 5.61211 21.3026 5.62039C21.3949 5.62921 21.5375 5.70356 21.5618 5.74551C21.5876 5.78727 21.6455 5.90555 21.6036 5.98873C21.5618 6.07244 21.5793 6.03049 21.5461 6.23932C21.5112 6.44942 21.4367 6.52431 21.4367 6.52431C21.4367 6.52431 21.3949 6.59056 21.3024 6.78319C21.2104 6.97636 20.8678 7.17637 20.7171 7.2527L12.4862 11.2099C12.4736 11.1905 12.465 11.1593 12.4839 11.1184Z" fill="black" stroke="white" stroke-width="0.02"/>
<path d="M12.5413 11.2941L12.4849 11.2104L20.7174 7.25244L19.2423 8.19831L19.2077 8.22747L19.0637 8.13656L17.6849 9.42052L17.6985 9.41998L17.5954 9.49793L16.358 10.072L15.4642 10.5027L14.6244 10.7839L14.5057 10.7644L13.8362 10.8987L14.1545 10.9362L13.5901 11.0986C13.5901 11.0986 13.0661 11.244 13.0106 11.2712C12.9543 11.3 12.758 11.3441 12.6977 11.3441C12.6361 11.3443 12.5413 11.2941 12.5413 11.2941Z" fill="black" stroke="white" stroke-width="0.02"/>
<path d="M19.0637 8.13672L19.6047 8.47769L19.6821 8.5317C19.6349 8.6534 19.6321 8.7895 19.6321 8.7895L19.6598 8.85629L19.8942 9.02318L20.0728 9.07377L20.5086 9.02894L20.6861 8.96179L20.6924 8.96269L21.3 9.09051L21.3501 9.11337L21.3558 9.12939L21.172 9.19114L20.9142 9.29628L20.6076 9.3249L17.6851 9.42032L19.0637 8.13672Z" fill="black" stroke="white" stroke-width="0.02"/>
<path d="M19.8942 9.02305L19.6593 8.85616L19.6321 8.78991C19.6321 8.78991 19.638 8.51645 19.7664 8.39817C19.8942 8.28151 20.0179 8.1924 20.0568 8.187C20.0951 8.18124 20.1176 8.14811 20.2568 8.11463C20.3963 8.0806 20.464 8.08582 20.5303 8.08582C20.5983 8.08582 20.7146 8.11463 20.7263 8.13065C20.7375 8.14811 20.8484 8.23147 20.8484 8.23147L20.9218 8.39295C20.9218 8.39295 20.9204 8.52635 20.9144 8.55552C20.9101 8.5827 20.8541 8.76093 20.8541 8.76093C20.8541 8.76093 20.8041 8.82898 20.7652 8.8504C20.7263 8.87381 20.7146 8.95158 20.7146 8.95158L20.5088 9.02899L20.0724 9.07382L19.8942 9.02305ZM15.4425 9.10226L15.2196 8.68928L15.2309 8.65561L15.5879 8.3438C15.5879 8.3438 15.7548 8.12111 15.7997 8.06458C15.8445 8.00859 15.912 7.96376 15.9782 7.95206C16.0454 7.94234 16.168 7.96376 16.2458 7.99689C16.3237 8.03001 16.4355 8.13065 16.4472 8.17548C16.4575 8.21976 16.5698 8.52239 16.5698 8.52239L16.3237 8.84446C16.3237 8.84446 16.0908 9.0677 15.9224 9.14709C15.8819 9.16563 15.8328 9.17247 15.7827 9.17247C15.6225 9.17247 15.4425 9.10226 15.4425 9.10226Z" fill="black" stroke="white" stroke-width="0.02"/>
<path d="M14.696 11.2642H14.393L13.836 11.0982L14.506 10.7642L14.985 10.9592L14.963 11.2642H14.696Z" fill="black" stroke="white" stroke-width="0.02"/>
</svg>
