<svg width="32" height="32" viewBox="0 0 32 32" fill="none" xmlns="http://www.w3.org/2000/svg">
<path fill-rule="evenodd" clip-rule="evenodd" d="M10.8605 13.5379H10.9571C11.7313 13.4409 10.8605 14.5054 11.6345 14.6022L12.1185 14.3117C12.2151 14.6022 11.925 15.1828 12.4087 15.1828C12.7959 15.2794 13.57 14.9891 13.7634 15.3761C13.9568 16.0535 13.1828 15.8598 13.0859 16.247C12.602 16.3438 12.0216 16.7309 11.7311 16.9244C11.0539 17.505 10.0861 17.7953 9.79593 18.763L9.98946 18.9566C11.5376 18.2793 12.7956 17.3115 14.5372 17.021C13.1825 18.086 11.4408 19.4401 9.98946 20.5042L9.02178 18.3761L8.82807 18.5697C8.73131 19.4402 9.02178 20.4076 8.82807 21.3759C8.441 21.2792 7.95716 21.1824 7.57026 21.1824L7.37655 21.5693C6.69935 21.4727 6.31228 20.989 5.7315 20.7955C5.53796 20.8921 5.53796 20.9889 5.53796 21.1824L6.02197 21.4727C5.34443 21.5693 4.57045 21.7628 4.08644 22.2465C3.89291 22.053 3.79631 22.2465 3.60277 22.2465L3.79631 22.4399C5.15106 22.2465 6.60224 22.2465 8.05376 22.2465C8.24747 22.73 8.8279 22.9235 9.40851 22.9235C9.69865 22.8268 9.50545 22.2465 9.79575 22.5366C10.2796 23.0203 10.376 23.6973 10.5697 24.2788C10.9568 23.8919 10.7633 23.0201 10.86 22.5366C11.0537 22.6334 11.2469 23.2137 11.634 22.9235C11.8275 22.6334 12.118 22.3431 11.9245 21.9562C11.7308 21.6661 11.1503 21.4727 11.1503 21.0856C11.9245 20.6987 12.7954 21.1822 13.5695 21.3758C14.0532 20.9889 13.4729 20.6019 13.4729 20.1171C14.15 19.7302 15.2146 19.6334 15.7952 19.2465C14.537 19.2465 13.2791 19.6334 12.0212 19.9235C13.1825 18.7628 14.4404 17.5049 15.892 16.6336C16.8595 16.8273 18.2142 17.0209 18.4078 18.0856L18.2142 18.279L18.6013 18.7627L18.0207 19.3431C18.4079 20.3103 19.6656 21.3756 18.4079 22.3427C17.7304 23.02 16.9564 23.5035 15.8921 23.5035C14.9243 23.02 13.9566 22.246 12.8922 21.8591C13.5699 23.0198 14.6342 23.9883 14.9243 25.3424C14.9243 25.3424 15.0212 25.8261 14.7308 26.4063C14.4406 26.6977 13.7632 27.4715 13.2792 27.5682C12.892 27.7616 12.892 27.2781 12.5051 27.4715C12.215 27.1813 12.3117 26.6009 11.9248 26.4063C11.3442 26.3097 11.5376 27.5682 10.8604 26.7944C9.7961 27.0846 8.82825 27.5682 7.57043 27.4715C7.57043 26.6009 7.37673 25.5358 7.76397 24.7619C7.47383 24.2783 8.24781 24.1815 7.76397 23.6968C6.02231 24.4718 5.05463 25.7293 4.18355 27.1813C3.79648 27.1813 3.69954 27.4715 3.21587 27.3749C2.82863 27.0846 2.24836 26.7944 2.05449 26.4063C1.86095 26.1162 2.44173 25.4392 1.76435 25.4392C1.28051 25.3424 0.700075 25.149 0.312832 24.8587C0.0226987 24.3752 0.409429 23.6968 0.0226987 23.2131C-0.170667 21.1826 0.893611 20.0207 2.24853 19.1501L2.05466 18.4731C2.53867 18.7632 2.92574 18.4731 3.02251 18.0862C3.21604 17.8921 3.11927 17.4084 3.50652 17.2151C3.69971 16.9246 3.69971 16.344 4.18372 16.1504C5.44171 17.602 6.02231 19.6339 7.76414 20.6991C8.05427 20.6023 8.34475 20.9892 8.53828 20.6023C8.24798 19.7307 7.3769 19.4404 7.08676 18.4731C6.98999 17.6986 6.89323 17.0212 6.98999 16.0537H7.08676C7.08676 15.4731 7.3769 14.5054 7.3769 14.5054C7.3769 14.5054 7.5706 14.3117 7.5706 14.2149C7.76414 13.7314 8.15087 13.344 8.73165 13.344C9.31226 13.0539 10.1832 13.5377 10.6672 13.344L10.8605 13.5379Z" fill="#E2631C"/>
<path fill-rule="evenodd" clip-rule="evenodd" d="M28.5684 6.37709C28.0846 6.66723 27.4074 7.15124 27.7943 7.73185C28.0846 7.92521 28.2783 7.82861 28.7623 7.73185C29.2458 7.44171 30.0199 7.05447 29.9233 6.37709C29.5361 5.69955 28.8585 6.18356 28.5684 6.37709ZM20.3435 14.1182C20.3435 14.3117 19.9562 14.6022 20.2469 14.7959C20.3435 14.8927 20.537 14.8927 21.021 14.7959C21.3111 14.5054 22.2787 14.0216 21.795 13.5379C21.3111 13.4408 20.7305 13.6345 20.3435 14.1182ZM26.5361 5.89342C25.8591 6.18356 25.0849 6.47369 25.0849 7.24801C25.1815 7.63525 25.4722 7.63525 25.4722 7.73185C25.2785 7.63508 24.5043 7.92521 24.4077 8.31245C24.4077 8.02232 24.0203 7.73185 23.7302 7.82861C23.0528 8.11875 21.9885 8.60276 22.0851 9.37673C22.2787 10.1509 23.3429 9.28013 23.8269 9.18337C20.912 12.3016 17.4773 14.848 14.1498 17.3254C12.8604 18.3359 11.3072 19.5382 9.98963 20.5044C9.92614 20.4093 9.86266 20.262 9.799 20.0856L9.02195 18.3763L8.82825 18.5699C8.73148 19.4404 9.02195 20.4078 8.82825 21.3761C8.44117 21.2794 7.95733 21.1826 7.57043 21.1826L7.37673 21.5695C6.69952 21.4729 6.31245 20.9892 5.73167 20.7957C5.53813 20.8923 5.53813 20.9891 5.53813 21.1826L6.02214 21.4729C5.3446 21.5695 4.57062 21.763 4.08661 22.2467C3.89308 22.0532 3.79648 22.2467 3.60294 22.2467L3.79648 22.4401C5.15123 22.2467 6.60241 22.2467 8.05393 22.2467C8.24764 22.7302 8.82807 22.9237 9.40868 22.9237C9.69882 22.827 9.50562 22.2467 9.79593 22.5368C10.2434 22.9842 10.3603 23.5958 10.5284 24.1449L10.5911 24.2495C10.9449 23.8511 10.7657 23.0096 10.8602 22.5368C11.0539 22.6336 11.2471 23.2139 11.6342 22.9237C11.8277 22.6336 12.1182 22.3433 11.9247 21.9564C11.7309 21.6663 11.1505 21.4729 11.1505 21.0858C11.9247 20.6989 12.7956 21.1824 13.5697 21.376C14.0534 20.9891 13.4731 20.6022 13.4731 20.1173C14.1501 19.7304 15.2148 19.6336 15.7954 19.2467C14.5372 19.2467 13.2792 19.6336 12.0214 19.9238C13.1652 18.7801 14.4039 17.5443 15.8281 16.6748C18.1775 14.68 20.5384 12.7727 22.8591 10.8281C23.0526 11.0216 23.2462 11.2153 23.5365 11.2153C24.214 11.0216 24.8911 10.6347 25.2783 9.95717C25.472 9.66704 25.1815 9.37656 24.8909 9.37656L25.9555 8.60242C26.3424 8.11858 26.149 7.82827 25.9555 7.63491C26.5358 7.34443 27.3102 6.95753 27.3102 6.18339C27.1172 5.89342 26.8268 5.89342 26.5361 5.89342ZM30.998 3.12265C30.6109 2.92929 30.4737 2.97502 30.0867 3.18648C29.9936 3.27949 30.0524 3.22096 29.8759 3.37746C29.5929 3.5797 29.3303 3.83723 29.149 4.05483C28.8585 4.44208 28.9555 4.63544 29.0524 4.82898C29.4393 5.02234 29.633 4.92574 30.0199 4.82898C30.3998 4.60148 30.9526 4.13539 31.1289 3.66486C31.3177 3.3539 31.1305 3.25526 30.998 3.12265Z" fill="#EECE39"/>
</svg>
