<svg width="32" height="32" viewBox="0 0 32 32" fill="none" xmlns="http://www.w3.org/2000/svg">
<path fill-rule="evenodd" clip-rule="evenodd" d="M0.680073 24.013C1.25734 25.4928 2.75376 27.0962 3.89771 27.4607C6.33776 28.2785 9.23958 27.285 11.5994 25.703C12.1143 25.3567 12.5765 25.0161 12.9204 24.7627C13.2656 24.5083 13.4916 24.3418 13.5321 24.3454C14.566 26.7685 16.7816 27.6837 20.2879 27.7396C22.1729 27.7396 23.7473 27.3318 25.3986 26.416C27.2505 25.2445 29.0775 23.9276 30.8453 22.4038L29.6023 20.6701L27.843 21.7986C23.2732 24.5114 20.3828 25.2861 18.9256 22.7874C17.0301 19.5372 18.131 12.699 21.0775 9.42187C24.0086 6.1618 27.9698 7.22979 27.1149 11.0496C26.7805 12.5441 25.756 13.6516 22.7368 15.7827L20.3944 17.4361L20.4165 19.7901C20.7972 19.7901 28.7335 14.8017 30.0101 13.7676C31.0946 12.889 32 11.1541 32 9.9546C32 6.60776 29.6802 4.8184 25.2372 5.01459C23.4502 4.98844 20.234 5.66193 18.0679 7.72253C15.2807 4.70375 11.0256 4.76378 8.27253 5.81827C5.27399 6.97228 2.18595 10.5632 0.768306 14.6433C-0.239095 17.6345 -0.242607 21.3296 0.680073 24.013ZM13.9059 13.4787C13.1752 15.6732 12.3408 18.8085 12.8138 21.8546C12.4736 22.0525 12.1314 22.2616 11.7913 22.4693C10.4645 23.2798 9.1688 24.0712 8.14992 24.1102C5.00474 24.0641 4.14118 16.7571 6.70962 11.9231C7.54238 10.3558 9.34891 8.48035 10.5308 7.93635C14.684 6.11946 15.4075 9.78374 13.9059 13.4787Z" fill="#0970CB"/>
</svg>
