<svg width="32" height="32" viewBox="0 0 32 32" fill="none" xmlns="http://www.w3.org/2000/svg">
<g clip-path="url(#clip0)">
<path d="M25.3915 22.8931C23.7154 27.8541 18.9298 31.4462 13.2999 31.4462C6.27903 31.4462 0.567222 25.8632 0.567222 19.0006C0.567222 12.1381 6.27903 6.55443 13.2999 6.55443C15.4376 6.55443 17.4527 7.07451 19.2228 7.98825L19.679 7.59652C17.7837 6.57958 15.6102 6 13.2999 6C5.96629 6 0 11.8317 0 19.0006C0 26.1689 5.9656 32 13.2999 32C19.2574 32 24.3125 28.1519 26 22.864L25.3915 22.8931Z" fill="#003366"/>
<path d="M4.73138 22.8898C12.3348 22.1894 19.8677 21.0245 27.2934 19.1538C27.1782 19.6672 27.0637 20.1793 26.9482 20.6927C17.4494 22.8583 10.8227 23.0574 4.73138 22.8898Z" fill="#00B2E2"/>
<path d="M5.94122 22.1346C13.062 21.0159 20.353 19.2438 27.8411 16.7109C27.7231 17.2364 27.6057 17.7612 27.4885 18.2867C19.1827 20.898 12.1002 22.0635 5.94122 22.1346Z" fill="#00B2E2"/>
<path d="M7.10068 21.3322C14.0847 19.5909 21.1962 17.1532 28.3947 14.2356C28.2774 14.7638 28.1588 15.2919 28.0408 15.8207C20.4146 18.8148 13.3609 20.786 7.10068 21.3322Z" fill="#57C8E7"/>
<path d="M8.2576 20.3823C15.2993 18.2429 22.2257 15.0237 29.0811 11.167C28.9364 11.8151 28.7915 12.4633 28.6467 13.1115C20.4361 17.1886 13.4796 19.7992 8.2576 20.3823Z" fill="#98DAE9"/>
<path d="M9.75626 19.3785C17.6646 15.554 24.0944 11.5915 29.8867 7.5686C29.7271 8.28245 29.567 8.99623 29.4075 9.71005C22.8396 13.9032 16.2845 17.3764 9.75626 19.3785Z" fill="#57C8E7"/>
<path d="M10.9084 18.1358C18.6847 13.2202 25.4302 8.21942 30.884 3.11206C30.6897 3.98406 30.4939 4.85741 30.2989 5.72872C23.847 11.2959 17.2443 15.1297 10.9084 18.1358Z" fill="#00B2E2"/>
<path d="M31.3291 0C30.5952 0.020266 29.8626 0.0382304 29.1287 0.0569764C26.4088 3.38212 23.666 6.25883 20.9086 8.88624C17.9206 11.7328 14.9178 14.2858 11.9124 16.7972C18.4957 12.3548 25.028 7.3795 31.3291 0Z" fill="#00B2E2"/>
</g>
<defs>
<clipPath id="clip0">
<rect width="32" height="32" fill="white"/>
</clipPath>
</defs>
</svg>
