<svg width="32" height="32" viewBox="0 0 32 32" fill="none" xmlns="http://www.w3.org/2000/svg">
<g clip-path="url(#clip0)">
<path d="M3.55374 10.8938C3.48287 10.8938 3.41199 10.9501 3.38379 11.0218L0.0191093 20.6311C-0.0235685 20.731 0.00539141 20.8301 0.104465 20.8301H8.79168C8.89075 20.8301 8.91895 20.731 8.87703 20.6311L5.51235 11.0218C5.48415 10.9501 5.41327 10.8938 5.3424 10.8938H3.55374ZM23.1284 10.8938C23.0567 10.8938 22.9858 10.9501 22.9577 11.0218L19.5937 20.6311C19.551 20.731 19.5792 20.8301 19.6791 20.8301H28.3655C28.4654 20.8301 28.4936 20.731 28.4509 20.6311L25.087 11.0218C25.0588 10.9501 24.9879 10.8938 24.917 10.8938H23.1284ZM15.96 13.3211C13.9016 13.3211 12.4536 14.8254 12.4536 17.0119C12.4536 17.8495 12.7234 18.7152 13.1494 19.2685C11.9148 19.2685 10.1261 19.1268 9.55835 19.0841C9.45852 19.0841 9.41584 19.1268 9.41584 19.2121V20.5747C9.41584 20.6593 9.45852 20.731 9.54387 20.731C11.0627 20.8582 13.5891 21 15.3351 21C18.1031 21 19.4657 19.5665 19.4657 17.111C19.4657 14.6982 18.0749 13.3211 15.96 13.3211ZM31.0199 12.0438C31.4033 12.0438 31.8575 12.0864 31.8575 12.0864C31.9428 12.0864 32 12.0293 32 11.9439V10.7802C32 10.6948 31.9428 10.624 31.8575 10.6103C31.8575 10.6103 31.3896 10.5249 30.9353 10.5249C28.6925 10.5249 27.4579 11.8731 27.4579 13.9033C27.4579 16.1035 28.7496 17.2954 30.9353 17.2954C31.3187 17.2954 31.8575 17.2101 31.8575 17.2101C31.9428 17.1963 32 17.1255 32 17.0538V15.8619C32 15.791 31.9428 15.7202 31.8575 15.7339C31.8575 15.7339 31.4033 15.7765 31.0199 15.7765C29.8852 15.7765 29.2602 15.1097 29.2602 13.9033C29.2602 12.6961 29.9134 12.0438 31.0199 12.0438ZM15.96 19.3394C15.0371 19.3394 14.4549 18.5872 14.4549 17.1537C14.4549 15.7202 15.0798 15.0525 15.9737 15.0525C16.9248 15.0525 17.4644 15.7765 17.4644 17.1537C17.4644 18.6154 16.854 19.3394 15.96 19.3394ZM4.44769 13.3492L6.25083 18.9987H2.63084L4.44769 13.3492ZM24.0223 13.3492L25.8247 18.9987H22.2055L24.0223 13.3492Z" fill="#F1471D"/>
</g>
<defs>
<clipPath id="clip0">
<rect width="32" height="32" fill="white"/>
</clipPath>
</defs>
</svg>
