<svg width="32" height="32" viewBox="0 0 32 32" fill="none" xmlns="http://www.w3.org/2000/svg">
<path d="M29.0067 14.6471H20.454L26.5017 8.59933C27.2098 7.89004 27.2098 6.74076 26.5017 6.03147C25.7937 5.32278 24.6432 5.32278 23.9351 6.03147L17.8867 12.0792V3.52594C17.8867 2.52372 17.0739 1.71094 16.0717 1.71094C15.0683 1.71094 14.2555 2.52372 14.2555 3.52594V12.078L8.20834 6.03026C7.49904 5.32157 6.34856 5.32157 5.64047 6.03026C4.93178 6.73955 4.93178 7.89004 5.64047 8.59812L11.6876 14.6459H3.13554C2.13212 14.6459 1.31934 15.4587 1.31934 16.4609C1.31934 17.4643 2.13212 18.2771 3.13554 18.2771L11.6876 18.2777L5.63926 24.3249C4.93118 25.0336 4.93118 26.1834 5.63926 26.8927C5.9933 27.2474 6.4581 27.4241 6.92289 27.4241C7.38769 27.4241 7.85248 27.2474 8.20773 26.8927L14.2555 20.845V29.3983C14.2555 30.4005 15.0683 31.2145 16.0717 31.2145C17.0739 31.2145 17.8867 30.4005 17.8867 29.3983V20.8456L23.9339 26.8933C24.2885 27.248 24.7533 27.4247 25.2181 27.4247C25.6829 27.4247 26.1471 27.248 26.5024 26.8933C27.2104 26.1841 27.2104 25.0342 26.5024 24.3255L20.4552 18.2777L29.0067 18.2783C30.0101 18.2783 30.8229 17.4643 30.8229 16.4621C30.8235 15.4599 30.0101 14.6471 29.0067 14.6471Z" fill="#7D98CF"/>
<path d="M26.5471 14.5756H20.7596L24.3351 11.0007C25.0432 10.2914 25.0432 9.14276 24.3351 8.43346C23.6258 7.72417 22.4766 7.72417 21.7679 8.43346H21.7667L15.6239 14.575H5.57269C4.56926 14.575 3.75769 15.3878 3.75769 16.39C3.75769 17.3923 4.56926 18.2062 5.57269 18.2062H15.3618L21.9264 24.7727C22.2811 25.1267 22.7459 25.304 23.2113 25.304C23.6761 25.304 24.1396 25.1273 24.4937 24.7727C25.203 24.0628 25.203 22.9141 24.4949 22.2054L20.4969 18.2075H26.5471C27.5506 18.2075 28.3633 17.3935 28.3633 16.3912C28.3633 15.3884 27.5506 14.5756 26.5471 14.5756Z" fill="#121586"/>
</svg>
