<svg width="32" height="32" viewBox="0 0 32 32" fill="none" xmlns="http://www.w3.org/2000/svg">
<path fill-rule="evenodd" clip-rule="evenodd" d="M15.6959 31.4906C24.4698 31.4906 31.4893 24.4684 31.4893 15.7939C31.4888 7.01949 24.4698 0 15.6959 0C7.01949 0 0 7.01949 0 15.7939C0 24.4684 7.01949 31.4906 15.6959 31.4906Z" fill="#0858A5"/>
<path fill-rule="evenodd" clip-rule="evenodd" d="M28.3696 6.3376C26.1271 5.75249 24.5668 7.40985 25.152 9.94487C25.9326 12.381 25.542 13.4542 24.6644 14.916C23.7876 16.4759 22.4228 17.2555 22.4228 17.6447C22.4228 18.1341 22.3258 19.4019 21.9352 21.8362C21.5451 24.3712 18.914 28.6634 13.941 29.0525C8.8728 29.4417 5.84973 27.3961 4.29035 24.3712C2.73006 21.3499 4.19329 18.1341 4.19329 18.1341C4.19329 18.1341 2.82758 15.5011 2.82758 13.3557C2.82758 11.2112 3.41269 9.16426 4.38787 7.70103C5.3626 6.23917 7.02041 4.4843 10.0426 3.99671C13.0647 3.50957 14.82 4.58182 15.5022 4.87437C16.0864 5.16693 16.769 5.65498 16.3794 5.94753C16.0869 6.3376 15.8923 6.04459 15.1117 5.45994C12.8692 4.28972 11.1148 4.58227 9.65249 4.77731C8.09219 5.06987 4.68042 6.82474 3.80276 10.6261C2.82758 14.5259 4.68042 17.061 4.68042 17.061C4.68042 17.061 4.68042 16.8664 5.84973 15.7932C6.92289 14.8185 9.16444 14.0383 10.3337 13.9404C11.504 13.9404 13.5509 14.1359 14.9166 15.1101C16.1835 15.9878 15.4038 16.2804 14.8196 15.7932C12.3816 14.3304 10.7243 14.5255 9.35947 14.7201C8.09174 14.9156 5.45966 16.3783 5.1671 18.1337C6.62988 20.3738 9.16398 21.7386 12.0891 21.8357C15.0142 22.0339 19.1086 20.8633 21.4481 17.6442C22.8129 14.4284 21.2531 12.9656 20.4734 12.3805C19.6937 11.7954 16.6715 11.6979 15.1117 11.1128C13.5514 10.4311 13.3568 9.65185 13.3568 9.35884C13.3568 9.06537 13.7469 9.4559 15.4042 9.4559C17.0616 9.55296 17.5496 9.35884 19.4011 9.74846C21.1565 10.1385 21.4481 10.8207 21.7406 11.3078C22.1307 11.7945 22.3258 11.99 22.3258 11.1123C22.3258 10.1381 22.5208 7.70011 22.7154 6.43375C22.9109 5.26353 24.3727 5.06895 25.3479 5.55608C26.3231 6.14119 27.882 5.75112 27.882 5.75112C27.882 5.75112 27.9795 5.84955 28.3696 6.3376ZM24.7623 6.72722C25.0549 6.72722 25.2499 6.53173 25.2499 6.23917C25.2499 5.94753 25.0549 5.75204 24.7623 5.75204C24.5668 5.75204 24.2743 5.94753 24.2743 6.23917C24.2743 6.53218 24.5668 6.72722 24.7623 6.72722ZM4.77703 23.6904C5.4592 25.6389 7.8001 27.8823 11.699 28.3685C15.5018 28.7604 17.7433 27.4936 19.6932 25.0556C21.7406 22.5206 21.5451 20.4714 21.6422 19.5964C21.7402 18.7179 21.5451 18.6203 21.156 19.0095C19.3036 20.8642 16.183 22.8127 11.7965 22.5206C7.40956 22.2285 4.77703 19.0095 4.77703 19.0095C4.19237 20.1797 4.09531 21.8362 4.77703 23.6904Z" fill="#FFE822"/>
</svg>
