<svg width="32" height="32" viewBox="0 0 32 32" fill="none" xmlns="http://www.w3.org/2000/svg">
<path fill-rule="evenodd" clip-rule="evenodd" d="M0.0283508 3.073H10.0373L31.4169 27.529H5.56955L0.0283508 3.073Z" fill="#D8232A"/>
<path fill-rule="evenodd" clip-rule="evenodd" d="M22.4687 17.2898L31.4169 27.5291H5.56956L3.2413 17.2898H22.4687Z" fill="#27377E"/>
<path fill-rule="evenodd" clip-rule="evenodd" d="M14.8923 18.1593C14.6571 17.8458 14.3721 17.5783 13.8471 17.5323C14.3454 17.1231 14.3739 16.7666 14.258 16.271C14.169 16.4083 14.0551 16.6042 13.9245 16.5997C13.7937 16.5953 13.5631 16.3909 13.5075 16.2782C14.0084 15.8673 14.2092 15.5344 14.0428 15.346C13.9066 15.6061 13.8412 15.7468 13.6382 15.6511C13.8071 15.099 13.7945 14.595 13.5631 14.4432C13.3484 14.8699 13.1879 15.1534 12.9065 15.2021C12.8944 14.8071 13.4657 14.0204 13.1868 13.8673C13.1486 13.9963 13.1348 14.1582 12.9628 14.2202C13.0681 13.9072 12.8405 13.514 12.6153 13.3842C12.5529 13.7242 12.4667 14.0769 12.3318 14.0835C12.1254 14.0383 12.4563 13.136 12.0132 13.0207C12.0379 13.1523 12.0887 13.3604 11.9576 13.4697C11.9027 13.0587 11.6147 12.7478 11.265 12.6372C11.2302 13.003 11.7206 13.0685 11.2606 13.7179C11.2691 13.1459 10.9246 12.606 10.544 12.5981C10.5353 12.8246 10.76 12.9176 10.6596 13.169C10.4486 12.8587 10.1718 12.7201 9.84978 12.6988C9.88043 12.8553 10.0861 12.9617 10.1166 13.1183C10.1645 13.3624 9.98712 13.5315 10.0848 13.9006C9.7562 13.6685 9.85437 12.8915 9.07261 12.7678C9.13357 13.0726 9.56133 13.294 9.48053 13.7572C9.09539 13.3476 8.55618 13.1451 8.41277 13.6916C8.51275 13.7274 8.64927 13.6475 8.71745 13.6888C8.92199 13.8126 9.08457 14.529 8.94198 14.5939C8.7994 14.6586 8.41884 13.5233 7.99468 14.1886C8.22348 14.1384 8.50586 14.4664 8.41441 14.5966C8.32296 14.7269 7.80326 14.3485 7.52267 14.9623C7.99763 15.0726 8.07663 15.1863 8.15153 15.6744C7.84669 15.6844 7.62527 15.5194 7.32879 15.3376C7.39517 15.6179 7.50415 15.8227 7.79293 15.9919C7.3578 16.2792 7.04214 16.5171 7.16752 16.8341C7.32895 16.8153 7.46761 16.7215 7.58938 16.761C7.71131 16.8005 7.89995 16.9152 7.99468 17.0881C7.63625 17.3658 7.39615 17.7322 7.13245 18.081C9.71916 18.1071 12.3057 18.1331 14.8923 18.1593Z" fill="#F9C623"/>
<path fill-rule="evenodd" clip-rule="evenodd" d="M6.37476 21.7389C8.71613 22.4703 9.38186 21.2449 11.0177 21.1641C12.0248 21.1143 13.2587 21.4167 14.7354 22.7055C12.7243 21.9565 10.8695 23.2895 9.38661 23.2803C8.33295 23.2737 7.61199 22.7665 6.37476 21.7389ZM4.44149 19.6488C7.68984 20.0406 9.35728 19.0242 11.6524 18.9432C13.0657 18.8935 13.7339 18.9868 16.1724 20.3542C14.2303 20.1537 10.308 21.0949 9.32712 21.1118C7.84914 21.1372 6.50719 20.572 4.44149 19.6488ZM4.23236 17.5585C7.53315 18.0288 8.78136 16.7315 11.0777 16.7747C12.5955 16.8033 13.7861 17.1319 16.0418 18.2901C14.0997 18.0898 10.282 18.9524 9.30106 18.9694C7.82292 18.995 6.45491 18.4817 4.23236 17.5585Z" fill="#787C87"/>
<path fill-rule="evenodd" clip-rule="evenodd" d="M8.02155 9.61428C8.3413 9.22405 9.52903 8.92036 10.3136 8.95412C10.6202 8.96723 10.694 9.28191 10.9613 9.67656C11.3681 9.44809 11.6247 9.09081 12.182 8.99149C12.739 8.89217 13.7845 8.91675 14.1624 9.07868C13.2935 9.32665 12.4956 9.66525 11.7834 10.0627C11.6629 10.1299 11.657 10.1676 11.7958 10.2122C12.4543 10.4239 13.1153 10.2998 13.7763 10.3118C13.9656 10.3152 13.9633 10.4314 13.7763 10.4613C13.1719 10.5573 13.1407 10.6584 13.4898 10.8474C13.6345 10.9257 12.8292 10.764 12.593 10.8599C12.0169 11.0939 11.4744 11.3984 10.8492 11.3706C10.4214 11.327 10.0145 11.1485 9.65342 10.673C9.45823 10.6725 9.26303 10.5655 9.06783 10.399C8.92263 10.3574 8.77725 10.3739 8.63188 10.399C8.72301 10.2825 8.83085 10.1827 9.05538 10.1997C9.17584 10.0668 9.30302 9.95534 9.46642 9.96304C9.75995 9.97681 10.1474 10.4778 10.4008 10.2994C10.4857 10.1989 10.0427 9.77407 9.82731 9.6487C9.41643 9.40958 8.88198 9.46989 8.02155 9.61428Z" fill="#1A1919"/>
</svg>
