<svg width="32" height="32" viewBox="0 0 32 32" fill="none" xmlns="http://www.w3.org/2000/svg">
<path fill-rule="evenodd" clip-rule="evenodd" d="M30.8331 3.34979C30.6516 3.378 30.4701 3.43441 30.3025 3.53313C29.8836 3.75878 29.5624 4.12547 29.339 4.50625C28.8782 4.52036 28.4872 4.90114 28.3475 5.33834C28.2917 5.53578 28.166 5.69092 28.0124 5.81785C28.3336 5.77554 28.6687 5.57809 28.7804 5.23962C28.8642 4.98576 29.0318 4.76011 29.2831 4.64728C29.1907 4.88067 29.115 5.12129 29.0392 5.36217C28.9318 5.70353 28.8243 6.0454 28.6687 6.36787C28.2777 7.18585 27.6214 7.8205 26.8674 8.3C26.4764 8.55386 26.0435 8.7372 25.6106 8.92054C25.1118 9.13959 24.5961 9.32461 24.0832 9.50863C23.9357 9.56158 23.7883 9.61444 23.6417 9.66801C22.5106 10.077 21.3656 10.5001 20.3741 11.1912C19.5503 11.7553 18.8521 12.5169 18.3494 13.3771C18.0412 13.8958 17.7803 14.4503 17.5232 14.9966C17.5007 15.0445 17.4782 15.0923 17.4557 15.14C16.9111 16.2824 16.3246 17.453 15.5147 18.4402C15.1516 18.8633 14.7746 19.2723 14.3696 19.6531C12.5543 21.4159 10.3899 22.7699 8.07189 23.743C5.54441 24.8289 2.84937 25.4636 0.140361 25.8302C0.238109 25.8443 0.335856 25.8443 0.447568 25.8443C3.51964 25.8584 6.59171 25.52 9.57999 24.8289C12.2611 24.1943 14.8863 23.2635 17.2741 21.8814C18.3494 21.2467 19.4106 20.5416 20.3043 19.639C20.9885 18.9479 21.5611 18.1581 21.9939 17.2837C22.4702 16.3546 22.7954 15.3577 23.1191 14.3652C23.2131 14.0772 23.3069 13.7896 23.4043 13.5041C23.6277 12.813 24.0466 12.1925 24.5494 11.6848C25.121 11.1187 25.7916 10.6709 26.4601 10.2244C26.6244 10.1146 26.7886 10.005 26.9512 9.89366C27.6354 9.44236 28.2917 8.92054 28.8084 8.2859C29.2133 7.77819 29.5205 7.18585 29.716 6.56531C29.8143 6.27664 29.8611 5.98219 29.9077 5.68936C29.9339 5.52439 29.9601 5.35993 29.9953 5.19731C30.0791 4.7178 30.2187 4.23829 30.484 3.8152C30.5329 3.73058 30.5957 3.65654 30.6586 3.58249C30.7214 3.50845 30.7843 3.43441 30.8331 3.34979ZM29.6741 4.60497C29.5624 4.53446 29.5764 4.36522 29.6881 4.2947C29.8138 4.21009 30.0093 4.32291 29.9813 4.47805C29.9813 4.61908 29.7858 4.7037 29.6741 4.60497Z" fill="#D71149"/>
<path d="M18.9219 11.0219C19.7458 10.6834 20.5976 10.4437 21.4494 10.2321C21.2957 10.3167 21.1282 10.3731 20.9746 10.4437C19.9971 10.8809 19.1453 11.5578 18.4331 12.3335C17.6372 13.222 16.9949 14.2515 16.4782 15.3375C15.7521 16.9593 14.5931 18.3555 13.1967 19.4274C11.2417 20.9223 8.8818 21.8249 6.46603 22.1916C5.94937 22.2621 5.41874 22.3326 4.8881 22.3467C5.57234 22.1352 6.25657 21.9095 6.91288 21.6416C8.70026 20.9082 10.348 19.8364 11.6746 18.412C12.4147 17.594 13.1129 16.7337 13.6854 15.7888C13.9926 15.2952 14.2998 14.7874 14.6489 14.322C15.0678 13.7861 15.5426 13.2925 16.0453 12.8271C16.8971 12.0514 17.8746 11.445 18.9219 11.0219Z" fill="#009247"/>
<path d="M24.6331 12.3335C24.8007 12.0373 24.9822 11.7412 25.2196 11.4873C25.0939 12.0373 24.9683 12.6015 24.9264 13.1656C24.8426 14.0541 24.8984 14.9426 24.9264 15.8311C24.9822 16.8888 24.9124 17.9748 24.5075 18.962C24.1025 19.9351 23.5021 20.8377 22.7201 21.5429C21.6448 22.5019 20.2485 23.0519 18.8381 23.2493C18.2656 23.334 17.6791 23.3763 17.1066 23.3481C17.4138 23.1506 17.7349 22.9955 18.0421 22.8121C18.9638 22.2762 19.8714 21.698 20.6674 20.9646C21.4633 20.2313 22.1196 19.3569 22.6503 18.412C23.1669 17.4812 23.4043 16.4375 23.6417 15.408C23.8791 14.3644 24.1165 13.2925 24.6331 12.3335Z" fill="#F26522"/>
</svg>
