<svg width="32" height="32" viewBox="0 0 32 32" fill="none" xmlns="http://www.w3.org/2000/svg">
<g clip-path="url(#clip0)">
<path fill-rule="evenodd" clip-rule="evenodd" d="M32 0H0V32.0081H28.028C28.028 32.0081 12.5348 30.777 14.0865 14.2106C14.0865 14.2106 14.2186 13.3517 12.488 13.3131C12.488 13.3131 12.8909 10.5399 15.4626 10.8896C17.1368 11.12 18.2696 12.3382 18.2374 13.5838C18.2374 13.5838 19.433 2.42993 32 0Z" fill="#1C4281"/>
<path fill-rule="evenodd" clip-rule="evenodd" d="M27.9281 32.0209L31.9436 32.0081C31.9436 32.0081 19.7424 30.2356 18.1278 16.3666C21.4263 15.6237 25.1308 17.3737 25.1308 17.3737L25.2001 17.3076C25.2001 17.3076 23.7144 13.6756 24.9986 8.75613C26.241 3.96878 32 1.14568 32 1.14568V0C19.433 2.42993 18.2374 13.5838 18.2374 13.5838C18.2696 12.3382 17.1368 11.12 15.4626 10.8896C12.8909 10.5399 12.488 13.3131 12.488 13.3131C14.2186 13.3517 14.0865 14.2106 14.0865 14.2106C12.5348 30.777 27.9281 32.0209 27.9281 32.0209Z" fill="white"/>
<path fill-rule="evenodd" clip-rule="evenodd" d="M31.9436 32.0081C31.9436 32.0081 19.7424 30.2356 18.1278 16.3667C21.4263 15.6238 25.1308 17.3738 25.1308 17.3738L25.2001 17.3077C25.2001 17.3077 23.7144 13.6757 24.9986 8.75621C26.241 3.96885 32 1.14575 32 1.14575" fill="#ED1C24"/>
</g>
<defs>
<clipPath id="clip0">
<rect width="32" height="32" fill="white"/>
</clipPath>
</defs>
</svg>
