<svg width="32" height="32" viewBox="0 0 32 32" fill="none" xmlns="http://www.w3.org/2000/svg">
<g clip-path="url(#clip0)">
<path fill-rule="evenodd" clip-rule="evenodd" d="M21.8713 10.719C22.366 10.724 22.7057 10.8743 22.9809 11.0045C23.5537 11.2749 24.2243 11.5874 25.0645 11.9908C25.0645 11.9952 26.4228 11.0288 26.4946 10.98C26.9552 10.6643 27.3998 10.9037 27.5431 11.1745C28.0497 12.1286 28.9829 14.11 29.4754 15.9218C29.5341 16.1403 29.4647 16.4793 29.1239 16.5807C28.9283 16.6383 28.5909 16.6867 28.2374 16.7312C27.7461 16.793 27.756 17.1893 27.756 17.4296C27.756 17.7259 27.7598 19.7285 27.7598 20.4121C27.7716 20.8322 27.4505 22.204 25.8643 22.2026C25.7583 22.2026 22.2302 22.2012 22.2473 22.2012C20.879 22.2084 19.7788 21.0518 19.772 19.8212C19.7706 19.0122 19.7714 13.3796 19.7738 12.7479C19.779 11.528 20.874 10.7071 21.8713 10.719Z" fill="#003263"/>
<path fill-rule="evenodd" clip-rule="evenodd" d="M16.1502 22.2024H4.38856V23.5096H18.1898C18.1898 23.5096 18.6871 22.3527 18.6871 21.0765C18.6871 21.0071 18.6922 12.207 18.6922 12.207C18.6922 11.5081 18.9767 10.3278 20.413 10.0146C20.4529 10.0057 20.4937 9.99727 20.5335 9.98882C24.6088 9.02609 28.8072 9.90291 31.1727 10.9242C31.6003 11.1304 31.6984 10.7894 31.6842 10.6457C31.7357 8.65186 30.2208 6.38113 27.4324 6.24371C25.1693 6.191 23.9135 7.00525 23.4521 7.23099C23.4171 7.24789 23.3594 7.24005 23.3077 7.18271C22.8906 6.76965 21.9987 6.15378 20.9971 5.86667C20.8476 5.83347 20.8331 5.61396 21.0064 5.59485C23.1485 5.36427 25.0241 5.60732 25.8065 5.73508C25.9868 5.76426 26.1204 5.65883 26.0494 5.49224C25.9955 5.36729 25.9498 5.30733 25.8593 5.11278C25.6685 4.70334 25.1641 4.26835 24.5223 4.08908C22.8391 3.62109 19.9706 3.21628 17.4154 3.20119C14.5388 3.18388 11.508 3.75871 10.742 3.92912C10.5585 3.96977 10.3006 4.03516 10.2551 4.04441C10.0455 4.08606 9.99596 4.28384 10.0867 4.38343C10.1438 4.4462 10.3014 4.57879 10.3772 4.67195C10.4724 4.79066 10.5165 4.95906 10.3354 5.13471L5.0175 9.91277H8.65658L8.69823 9.90895C8.93484 9.90392 9.15837 10.1186 9.15978 10.3912C9.16079 10.6365 8.96422 10.8677 8.71614 10.8677L8.68435 10.8699H3.95819L2.51198 12.1839H8.70085L8.73465 12.1817C8.9781 12.1831 9.16682 12.436 9.1634 12.6646C9.16079 12.8764 8.98212 13.1354 8.73465 13.1354L8.69743 13.1372H1.45166L0.00162485 14.4468H12.5027L12.5425 14.4486C12.7886 14.4486 12.9787 14.7013 12.9826 14.9212C12.9858 15.1783 12.8049 15.4105 12.5526 15.4081L12.519 15.4077H1.52588e-05V16.7127H12.4904L12.5286 16.7169C12.815 16.7169 12.9803 16.9762 12.9795 17.2151C12.9785 17.4318 12.7699 17.6643 12.522 17.6643H12.4888H1.52588e-05V18.982H16.3064H16.3462C16.617 18.9892 16.7908 19.222 16.7832 19.4755C16.7766 19.6967 16.5923 19.9337 16.347 19.9337L16.313 19.9323H4.39117V21.2453H16.1502H16.3963C16.6178 21.2453 16.8081 21.5191 16.8081 21.7404C16.8081 21.9613 16.6136 22.2016 16.3923 22.2016H16.1502V22.2024Z" fill="#003263"/>
<path fill-rule="evenodd" clip-rule="evenodd" d="M8.77951 26.7191L8.7773 28.0545C8.7773 28.0545 10.5452 28.0603 11.5524 28.0545C14.0362 28.0396 15.6661 26.7191 15.6661 26.7191H8.77951Z" fill="#003263"/>
<path fill-rule="evenodd" clip-rule="evenodd" d="M8.77951 24.4673L8.7773 25.7759H16.7603C17.1293 25.4045 17.6039 24.7208 17.7274 24.4689L8.77951 24.4673Z" fill="#003263"/>
</g>
<defs>
<clipPath id="clip0">
<rect width="32" height="32" fill="white"/>
</clipPath>
</defs>
</svg>
