<svg width="32" height="32" viewBox="0 0 32 32" fill="none" xmlns="http://www.w3.org/2000/svg">
<path d="M11.6864 6L0 25.9258H20.1238L31.8111 6H11.6864Z" fill="#A90B4D"/>
<path fill-rule="evenodd" clip-rule="evenodd" d="M12.8277 19.9436C13.2864 18.696 13.2852 17.5631 13.2843 16.7393C13.2842 16.58 13.284 16.4322 13.2872 16.2974C13.3074 15.4653 13.355 14.6197 13.808 13.5646C13.9947 13.1301 14.2199 12.7244 14.4943 12.366L13.7494 11.6211L13.7218 11.6438C13.6845 11.6743 13.6473 11.7049 13.6119 11.737C12.563 12.6913 12.1774 13.5296 11.9482 14.9582C11.7804 15.9963 11.9033 16.8523 12.0295 17.7317V17.7317C12.0767 18.0607 12.1244 18.393 12.1575 18.7394C12.2789 20.0111 11.995 20.6261 11.63 20.8421C11.5925 20.8358 11.579 20.7792 11.5643 20.7177C11.55 20.6574 11.5345 20.5924 11.4941 20.5656C11.4134 20.5115 11.3386 20.4916 11.3386 20.5927C11.3386 20.6947 11.3254 20.8701 11.0948 20.8774C10.8648 20.8833 10.6283 20.7821 10.6219 20.7146C10.7435 20.6261 10.9867 20.2473 10.7099 20.0587C10.6717 20.0336 10.6679 20.0526 10.6608 20.0884C10.6564 20.1101 10.6509 20.138 10.6356 20.1661L10.6328 20.1712C10.5934 20.2441 10.5566 20.312 10.365 20.2005C10.2588 20.1379 10.2278 20.0639 10.2003 19.9985C10.1769 19.9428 10.1562 19.8933 10.0938 19.8626C10.0467 19.8214 10.0739 19.7741 10.1341 19.7265C10.1957 19.6799 10.3104 19.4964 10.2835 19.2126C10.2565 18.9288 10.2089 18.7464 10.0739 18.7725C10.0219 18.7919 10.0192 18.8273 10.016 18.8692C10.0125 18.9149 10.0084 18.9683 9.93882 19.0168C9.90753 19.0385 9.88245 19.0586 9.86062 19.0761L9.86061 19.0761C9.7839 19.1375 9.74716 19.1669 9.6211 19.1246C9.61341 19.063 9.63362 19.0287 9.65389 18.9942C9.67124 18.9647 9.68862 18.9352 9.68862 18.8884C9.68862 18.7865 9.67517 18.6452 9.58693 18.6716C9.52766 18.69 9.52316 18.729 9.51874 18.7673C9.51655 18.7862 9.51439 18.8049 9.50568 18.8209C9.47797 18.8683 9.38381 19.0071 9.09971 19.098C9.02925 19.1204 8.95957 19.1279 8.89081 19.1353C8.71699 19.1541 8.54909 19.1721 8.38947 19.4289C8.35446 19.4892 8.34474 19.5536 8.33674 19.6066C8.32758 19.6673 8.32069 19.713 8.28078 19.7203C8.20707 19.7343 7.71931 19.7343 7.63161 19.7138C7.5947 19.7052 7.54485 19.6884 7.49686 19.6723C7.43011 19.6498 7.36696 19.6286 7.34724 19.632C7.31362 19.6385 7.25873 19.6659 7.27945 19.7066C7.29963 19.7469 7.46185 19.95 7.50974 19.9968C7.55709 20.045 7.76666 20.1868 8.06448 20.2209C8.3623 20.2546 8.66711 20.3022 8.82907 20.6947C8.91677 20.9105 8.91005 21.1405 8.74782 21.4722C8.58533 21.8037 8.47072 22.2911 8.78818 22.7506C9.50568 22.7714 10.2565 22.5341 10.7572 22.3113C11.2576 22.0883 12.3216 21.317 12.8277 19.9436ZM17.3679 15.2398C17.2255 15.8556 17.0953 16.416 17.0426 16.6092C17.0315 16.6495 17.018 16.7039 17.0013 16.7712C16.8438 17.404 16.4052 19.1669 15.1204 20.8362C13.7001 22.6831 10.9055 24.1849 9.70853 24.2658C9.70853 24.2658 9.96492 24.6998 10.0397 24.7127C10.3173 24.7194 11.2533 24.3877 11.5008 24.2736C12.6509 23.7458 13.9361 22.9336 14.6001 22.3318L14.6394 22.2961C15.323 21.6751 16.8592 20.2799 17.8744 18.1169C18.0897 17.6584 18.3116 17.0491 18.5244 16.3964L17.3679 15.2398ZM15.0399 19.2796C14.37 20.7289 13.68 21.635 12.5091 22.5002C11.3386 23.3667 10.0128 23.7517 9.74243 23.82C9.4957 23.8806 9.4739 23.8755 9.44649 23.869C9.44384 23.8684 9.44113 23.8677 9.43816 23.8671C9.40399 23.8601 9.15352 23.4679 9.15352 23.4679C10.5132 23.1233 11.8648 22.5397 12.7871 21.5263C14.0534 20.1357 14.363 17.8465 14.4513 17.0012C14.4675 16.8444 14.4819 16.6666 14.4976 16.4722C14.5668 15.6176 14.6617 14.4444 15.0536 13.348C15.0836 13.2638 15.1143 13.1869 15.1448 13.1102C15.1537 13.0879 15.1626 13.0656 15.1715 13.0432L16.3098 14.1815C16.2038 14.5979 16.1298 14.9808 16.0951 15.2759C15.9872 16.1954 15.6068 18.0544 15.0399 19.2796Z" fill="url(#paint0_linear)"/>
<path fill-rule="evenodd" clip-rule="evenodd" d="M24.0309 6.93377C24.9914 6.85226 26.4867 7.07555 26.8655 8.10406C27.2445 9.1331 26.3855 9.92432 25.9736 10.1465C25.5609 10.3696 25.1816 10.2614 25.1281 10.1734C25.074 10.0857 25.0874 10.0381 25.2499 9.9636C25.4119 9.88962 25.6223 9.67359 25.777 9.30071C26.0546 8.67145 25.8787 7.76481 25.0737 7.56196C23.6147 7.22807 22.551 7.99658 22.2078 8.24452C22.1754 8.26788 22.1495 8.28661 22.1302 8.29938C21.9421 8.42546 21.9898 8.43587 22.2131 8.48465C22.2543 8.49363 22.3014 8.50393 22.3541 8.51648C23.6392 8.86838 24.5192 9.78174 24.4175 10.9251C24.3158 12.0677 23.66 12.6499 23.3078 12.8468C22.9562 13.0421 22.4759 13.1436 22.3807 13.0018C22.3095 12.8621 22.4003 12.7769 22.5665 12.6212C22.7462 12.4527 23.0141 12.2016 23.2604 11.7093C23.844 10.5428 23.4773 9.99723 23.1391 9.55091C22.8001 9.10459 21.7582 8.76614 21.501 8.86838C21.2446 8.96926 20.6557 9.87644 20.236 10.8371C20.236 10.8371 20.112 11.0408 20.2223 11.0873C20.6866 11.2854 21.4754 12.3757 21.4811 13.0219C21.5431 14.3146 21.2057 14.8819 20.8939 15.4061C20.8661 15.4529 20.8385 15.4992 20.8114 15.5457C20.4797 16.1137 19.8916 16.4655 19.5459 16.6353C19.201 16.8043 18.9842 16.7227 18.9576 16.6956C18.9307 16.6689 18.8155 16.5132 18.9842 16.3644C20.281 15.1325 20.433 14.2832 20.5256 13.7661C20.5306 13.7383 20.5354 13.7113 20.5403 13.6854C20.6352 13.1783 20.5271 12.5291 20.2901 12.1024C20.0539 11.6763 19.9925 11.6763 19.9384 11.6962C19.8946 11.7125 19.8642 11.8127 19.7438 12.2103C19.715 12.3052 19.6811 12.4172 19.6406 12.549C19.5777 12.7617 19.4938 13.0664 19.394 13.4287C19.1667 14.2538 18.8571 15.3779 18.5252 16.3959L17.3684 15.2393C17.392 15.137 17.416 15.0331 17.44 14.9292C17.5856 14.2986 17.7321 13.6636 17.8136 13.3405C17.9899 12.644 18.4773 11.4661 18.5443 11.3176C18.5637 11.2752 18.5824 11.2355 18.5995 11.1994C18.6424 11.1087 18.6746 11.0405 18.6796 11.0072C18.6727 10.9187 17.9358 10.8377 17.8682 10.8651C17.7695 10.9041 17.3609 11.5813 17.3609 11.5813C16.9054 12.2614 16.5349 13.2977 16.31 14.1812L15.1715 13.0429C15.6205 11.9098 16.0959 11.358 16.1763 11.2703C16.264 11.1759 16.2506 11.1358 16.0345 11.203C15.3816 11.4414 14.8866 11.8541 14.4946 12.3658L13.7496 11.6208C14.7999 10.7591 16.3264 10.471 16.515 10.4516C16.5307 10.45 16.5465 10.4484 16.5622 10.4468C16.7433 10.4288 16.9281 10.4104 17.0899 10.2488C18.0776 9.2878 19.18 8.61118 20.4991 8.42178C21.5949 7.38036 23.07 7.01448 24.0309 6.93377ZM18.2869 10.2916C18.4335 10.3739 18.7345 10.429 18.9998 10.429C19.0768 10.2092 19.3485 9.82768 19.553 9.5405C19.6887 9.34996 19.7948 9.20097 19.7948 9.16835C19.6395 9.14144 18.543 9.88074 18.2869 10.2916Z" fill="url(#paint1_linear)"/>
<defs>
<linearGradient id="paint0_linear" x1="13.0303" y1="9.62222" x2="3.57221" y2="16.6058" gradientUnits="userSpaceOnUse">
<stop stop-color="white"/>
<stop offset="0.0849" stop-color="#FFECA2"/>
<stop offset="0.1621" stop-color="#FFDC55"/>
<stop offset="0.2166" stop-color="#FFD225"/>
<stop offset="0.2437" stop-color="#FFCE12"/>
</linearGradient>
<linearGradient id="paint1_linear" x1="22.1741" y1="17.5172" x2="27.6992" y2="7.52033" gradientUnits="userSpaceOnUse">
<stop stop-color="white"/>
<stop offset="0.0849" stop-color="#FFECA2"/>
<stop offset="0.1621" stop-color="#FFDC55"/>
<stop offset="0.2166" stop-color="#FFD225"/>
<stop offset="0.2437" stop-color="#FFCE12"/>
</linearGradient>
</defs>
</svg>
