<svg width="32" height="32" viewBox="0 0 32 32" fill="none" xmlns="http://www.w3.org/2000/svg">
<path d="M17.4171 0.898025C18.2564 0.464829 19.1633 0.167646 20.092 0.000244141C20.1875 0.506234 20.234 1.02113 20.2756 1.53424C20.3206 2.17201 20.3364 2.81246 20.3012 3.45112C20.2616 4.13765 20.1706 4.82685 19.9578 5.48265C19.9466 5.49445 19.9357 5.5058 19.9253 5.51738C18.6246 5.55901 17.3256 5.78406 16.0975 6.21882C14.7309 6.70411 13.4427 7.47366 12.4717 8.562C12.4701 8.52905 12.4688 8.4961 12.4717 8.46316C12.5502 7.75192 12.6916 7.0467 12.9055 6.36351C13.1644 5.53452 13.5288 4.73736 13.999 4.00676C14.8387 2.69381 16.0292 1.60792 17.4171 0.898025Z" fill="#752650"/>
<path d="M10.6142 9.53491C12.5411 9.6037 14.4776 9.95164 16.25 10.7301C17.1431 11.1226 17.9895 11.6245 18.7506 12.2358C19.4242 12.7754 20.0301 13.3996 20.5492 14.0895C21.5198 15.3755 22.1785 16.8841 22.5256 18.4544C22.9441 20.3499 22.9298 22.3349 22.5224 24.2311C22.4675 24.2375 22.4122 24.2422 22.3577 24.2473C21.6258 25.8323 20.6383 27.3138 19.3663 28.5172C18.6847 29.1608 17.9229 29.7215 17.097 30.1661C16.3332 30.5783 15.516 30.892 14.6717 31.093C12.6043 31.5925 10.3954 31.4042 8.41305 30.6505C6.87527 30.0697 5.46371 29.1585 4.2988 27.9992C3.04061 26.7519 2.0736 25.2101 1.51396 23.5285C0.990831 21.9741 0.818977 20.3087 0.969016 18.6777C1.13709 16.7962 1.71743 14.9677 2.54865 13.2772C2.59206 13.1888 2.63769 13.1015 2.67887 13.0121C2.78506 13.0704 2.88768 13.1352 2.99698 13.1881C2.1553 14.9209 1.57073 16.7942 1.41245 18.7195C1.278 20.3207 1.45074 21.9531 1.97009 23.4762C2.54152 25.1725 3.54037 26.721 4.84486 27.9458C6.15513 29.1815 7.76949 30.0946 9.50806 30.5676C10.5267 30.8459 11.5879 30.9721 12.6433 30.9298C13.7695 30.8855 14.8885 30.6476 15.933 30.2231C17.5162 29.5855 18.9099 28.5214 20.0092 27.2221C20.7819 26.3172 21.4145 25.2992 21.9376 24.2322C21.5937 24.1977 21.2527 24.1329 20.921 24.0365C20.6432 24.746 20.2874 25.4283 19.8253 26.0358C19.352 26.6633 18.7733 27.2129 18.1141 27.6421C17.4657 28.0666 16.7391 28.3705 15.9831 28.5404C14.9664 28.769 13.8957 28.7505 12.887 28.4885C12.0509 28.2721 11.2571 27.889 10.5726 27.3614C9.97643 26.9062 9.46488 26.3416 9.06463 25.7072C8.66749 25.0792 8.38033 24.384 8.20068 23.6637C7.98586 22.8066 7.92153 21.9162 7.96939 21.0353C8.09272 21.0135 8.21916 21.0133 8.34271 21.0355C8.30019 22.0048 8.38723 22.9865 8.66727 23.9179C8.88431 24.6429 9.22112 25.3348 9.67925 25.9383C10.1287 26.5333 10.6948 27.0393 11.3366 27.4188C12.1435 27.9001 13.0651 28.1815 14.0005 28.2556C15.0501 28.3398 16.1202 28.1664 17.087 27.7488C17.8948 27.403 18.6275 26.8826 19.2187 26.2323C19.8224 25.5708 20.2694 24.7738 20.5515 23.9255C19.9869 23.7282 19.446 23.4647 18.9436 23.1403C19.1717 22.8402 19.391 22.5319 19.5738 22.2013C20.094 21.2795 20.4092 20.2442 20.5009 19.1901C20.6519 17.5219 20.2238 15.833 19.4173 14.3749C18.3256 14.4695 17.2143 14.3742 16.1627 14.0619C15.1169 13.7549 14.1377 13.2362 13.2773 12.5695C12.2083 11.7385 11.3052 10.698 10.6142 9.53491Z" fill="#752650"/>
<path d="M19.9253 5.51739C19.9357 5.50582 19.9466 5.49446 19.9578 5.48267C19.9584 5.48979 19.9602 5.50404 19.9609 5.51116C21.0214 5.48445 22.0859 5.56058 23.1279 5.7636C24.1161 5.95415 25.086 6.25222 25.9994 6.67696C26.7896 7.04649 27.5398 7.51263 28.1883 8.09876C28.6299 8.49679 29.0206 8.95269 29.3347 9.45823C28.7014 9.13345 28.075 8.79464 27.4441 8.46495C26.7903 7.95385 26.0909 7.49794 25.3427 7.13643C24.3779 6.66494 23.3412 6.34105 22.28 6.17698C19.9531 5.8168 17.5269 6.21616 15.4132 7.2435C14.4687 7.70608 13.5791 8.29533 12.8285 9.03506C14.3044 9.25588 15.7565 9.68129 17.0881 10.3605C18.6052 11.1278 19.9531 12.2317 20.9884 13.5816C21.9724 14.8576 22.678 16.3397 23.0921 17.8949C23.6016 19.8062 23.6833 21.8275 23.3496 23.7762C23.0632 25.436 22.471 27.0541 21.5345 28.4594C20.9753 29.2969 20.2923 30.0562 19.493 30.6708C19.4351 30.7098 19.3625 30.7009 19.2968 30.7107C19.0629 30.7338 18.826 30.7523 18.5929 30.7125C19.3322 30.1998 19.9716 29.5513 20.5067 28.8303C21.5111 27.4724 22.1656 25.8763 22.5224 24.231C22.9298 22.3348 22.9441 20.3498 22.5256 18.4543C22.1785 16.884 21.5198 15.3754 20.5492 14.0894C20.0301 13.3995 19.4242 12.7753 18.7506 12.2357C17.9895 11.6244 17.1431 11.1225 16.25 10.73C14.4776 9.95154 12.5411 9.6036 10.6142 9.53481C10.4036 9.38678 10.1959 9.23362 10.0069 9.05843C10.6271 8.87455 11.2847 8.88524 11.922 8.9538C11.9904 8.95981 12.0592 8.97562 12.1284 8.96716C12.2453 8.83471 12.3506 8.69157 12.4717 8.56201C13.4427 7.47368 14.7309 6.70412 16.0975 6.21883C17.3256 5.78408 18.6246 5.55902 19.9253 5.51739Z" fill="#EFCC78"/>
<path d="M5.697 5.80292C6.02446 5.58788 6.42649 5.52644 6.81138 5.5271C7.24769 5.53245 7.68601 5.60569 8.09383 5.76352C8.03773 6.18514 8.00033 6.60898 7.97117 7.03328C7.63503 7.02281 7.31848 6.88813 7.02642 6.7312C6.59812 6.4979 6.21434 6.19471 5.82411 5.90465C5.78115 5.87148 5.73329 5.84388 5.697 5.80292Z" fill="#DDA137"/>
<path d="M8.63388 5.85803C9.04459 5.72602 9.47512 5.66079 9.90564 5.64254C10.9463 5.60025 11.9984 5.85023 12.9055 6.36357C12.6916 7.04676 12.5502 7.75198 12.4717 8.46322C12.4688 8.49616 12.4701 8.52911 12.4717 8.56205C12.3506 8.69161 12.2453 8.83475 12.1284 8.9672C12.0592 8.97566 11.9904 8.95986 11.922 8.95385C12.0485 8.74593 12.1342 8.50329 12.1081 8.25686C12.0801 7.9432 11.8869 7.66672 11.6422 7.47862C11.3893 7.28205 11.0828 7.16251 10.7691 7.10553C10.6189 7.07703 10.4655 7.07369 10.3146 7.05165C10.2843 6.93456 10.1979 6.84107 10.0971 6.77874C9.87626 6.64161 9.59332 6.62046 9.34957 6.70572C9.03658 6.50404 8.73828 6.22711 8.63388 5.85803Z" fill="#DDA137"/>
<path d="M8.09383 5.76367C8.27659 5.77502 8.45668 5.81309 8.63388 5.85806C8.73828 6.22714 9.03658 6.50407 9.34957 6.70575C9.49226 6.95018 9.62337 7.21308 9.66033 7.49713C9.84977 7.46885 10.0497 7.43146 10.2035 7.30991C10.2821 7.24958 10.3282 7.15097 10.3146 7.05169C10.4655 7.07372 10.6189 7.07706 10.7691 7.10556C11.0828 7.16254 11.3893 7.28209 11.6422 7.47865C11.8869 7.66675 12.0801 7.94323 12.1081 8.25689C12.1342 8.50332 12.0485 8.74596 11.922 8.95388C11.2847 8.88531 10.6271 8.87463 10.0069 9.0585C9.70396 8.95722 9.41679 8.80273 9.18216 8.5839C8.87029 8.30097 8.64634 7.94034 8.41817 7.59062C8.28839 7.39094 8.15126 7.19148 7.97117 7.03343C8.00033 6.60914 8.03773 6.18529 8.09383 5.76367Z" fill="#3B6A54"/>
<path d="M15.4132 7.24355C17.5269 6.21621 19.9531 5.81685 22.28 6.17703C23.3412 6.34109 24.3779 6.66499 25.3427 7.13647C26.0909 7.49799 26.7903 7.95389 27.4441 8.465L27.4726 8.50017C26.5376 8.18452 25.5693 7.9579 24.5862 7.8624C23.9685 7.80764 23.339 7.80653 22.7308 7.94009C22.6627 7.95745 22.5923 7.96792 22.528 7.99686C24.2301 8.57341 25.8435 9.45361 27.1754 10.6679C28.4331 11.8059 29.4244 13.2375 30.0361 14.82C30.8273 16.8478 31 19.0995 30.5929 21.2334C30.2318 23.1411 29.4113 24.9648 28.1972 26.4823C27.1171 27.8386 25.7166 28.9401 24.1363 29.6556C22.7726 30.2787 21.2845 30.6121 19.789 30.6829C19.6846 30.6838 19.5798 30.7001 19.476 30.6851L19.493 30.6709C20.2923 30.0563 20.9753 29.2969 21.5345 28.4595C22.471 27.0542 23.0632 25.436 23.3496 23.7763C23.6833 21.8275 23.6016 19.8062 23.0921 17.8949C22.678 16.3398 21.9724 14.8577 20.9884 13.5817C19.9531 12.2318 18.6052 11.1278 17.0881 10.3605C15.7565 9.68134 14.3044 9.25593 12.8285 9.0351C13.5791 8.29537 14.4687 7.70613 15.4132 7.24355Z" fill="#AC151C"/>
<path d="M9.34957 6.70567C9.59332 6.62041 9.87626 6.64155 10.0971 6.77868C10.1979 6.84101 10.2843 6.93451 10.3146 7.0516C10.3282 7.15088 10.2821 7.2495 10.2035 7.30983C10.0497 7.43137 9.84977 7.46877 9.66033 7.49704C9.62337 7.21299 9.49226 6.95009 9.34957 6.70567Z" fill="white"/>
</svg>
