<svg width="32" height="32" viewBox="0 0 32 32" fill="none" xmlns="http://www.w3.org/2000/svg">
<path d="M0.981232 27.485C1.45552 27.4673 2.78864 27.63 5.39276 25.8068C8.23946 23.814 23.6088 5.50429 23.6088 5.50429C23.6088 5.50429 24.4627 4.65039 24.938 4.36641C25.4113 4.08144 25.9822 3.93945 26.6931 3.93945C26.9771 3.93945 31.579 3.93945 31.579 3.93945L24.8907 27.8469C24.8907 27.8469 0.506948 27.5028 0.981232 27.485Z" fill="#04396F"/>
<path d="M22.7549 14.8027C22.7549 14.8027 24.3917 15.5245 23.7508 17.1268C23.0872 18.7873 16.0183 19.6886 15.545 20.7801C15.1841 21.6113 18.1067 21.9663 18.1067 21.9663C18.1067 21.9663 13.8372 22.0136 14.6438 20.2112C15.3813 18.5625 22.323 18.0714 23.0399 17.1751C23.9885 15.9889 22.7549 14.8027 22.7549 14.8027Z" fill="#A11337"/>
<path d="M22.534 24.0969L21.2423 23.095L19.9595 24.0249L20.1242 22.4038L18.6619 21.7037L20.1182 21.0845L19.9388 19.4546L21.2305 20.4564L22.5133 19.5266L22.3487 21.1476L23.811 21.8487L22.3556 22.4669L22.534 24.0969Z" fill="white"/>
<path d="M25.504 19.4862L24.8581 19.2298L24.445 19.7613L24.3198 19.0799L23.6404 18.9665L24.162 18.5425L23.8948 17.8986L24.5416 18.155L24.9538 17.6245L25.079 18.3049L25.7584 18.4183L25.2378 18.8423L25.504 19.4862Z" fill="white"/>
<path d="M19.4951 26.3612L18.8916 25.9313L18.3286 26.376L18.373 25.6384L17.6965 25.3485L18.3453 25.0419L18.2339 24.3053L18.8374 24.7362L19.4024 24.2915L19.358 25.0291L20.0325 25.3199L19.3836 25.6266L19.4951 26.3612Z" fill="white"/>
<path d="M20.8716 15.2137L20.2681 14.7838L19.7031 15.2275L19.7485 14.491L19.073 14.2001L19.7219 13.8934L19.6104 13.1578L20.2139 13.5887L20.7769 13.144L20.7325 13.8816L21.408 14.1715L20.7602 14.4791L20.8716 15.2137Z" fill="white"/>
<path d="M16.3486 18.7449L15.6377 18.6651L15.3744 19.306L15.0618 18.6611L14.3568 18.7321L14.7562 18.1671L14.3125 17.5972L15.0244 17.6771L15.2876 17.0352L15.5992 17.681L16.3052 17.61L15.9059 18.175L16.3486 18.7449Z" fill="white"/>
<path d="M22.7549 14.8027C22.7549 14.8027 24.5525 15.4377 23.8928 17.0322C23.3239 18.4077 16.113 19.4046 15.6387 20.4951C15.2778 21.3264 18.1057 21.9653 18.1057 21.9653C18.1057 21.9653 14.0571 21.5788 14.6428 20.2102C15.3547 18.5497 22.6228 17.7855 23.2765 16.8419C24.1304 15.6093 22.7549 14.8027 22.7549 14.8027Z" fill="#ACABB5"/>
</svg>
