<svg width="32" height="32" viewBox="0 0 32 32" fill="none" xmlns="http://www.w3.org/2000/svg">
<path fill-rule="evenodd" clip-rule="evenodd" d="M25.9417 16.1464V11.1274H27.3365V13.6678C27.3348 14.2934 27.3382 14.9499 27.3416 15.6227C27.3474 16.7486 27.3534 17.9204 27.3365 19.0699H25.9417V16.1464ZM27.7401 13.4583C28.0988 13.3065 28.4932 13.2213 28.9081 13.2213C30.546 13.2213 31.8728 14.531 31.8728 16.1464V19.0699H30.4781V16.0245C30.4158 15.2117 29.7369 14.5713 28.9081 14.5713C28.4452 14.5713 28.0283 14.772 27.7401 15.0901V13.4583Z" fill="#C240BF"/>
<path fill-rule="evenodd" clip-rule="evenodd" d="M7.32242 16.1463C7.32242 14.531 8.6509 13.2212 10.2888 13.2212C11.9267 13.2212 13.2535 14.531 13.2535 16.1463C13.2535 16.3557 13.2305 16.561 13.1882 16.7578H8.83738C9.07617 17.3239 9.63589 17.7214 10.2888 17.7214C10.7723 17.7214 11.2039 17.5044 11.4929 17.1615H13.0697C12.6517 18.2765 11.5651 19.0698 10.2888 19.0698C8.6509 19.0698 7.32242 17.7617 7.32242 16.1463ZM11.6543 15.3631C11.3825 14.8904 10.8732 14.5713 10.2888 14.5713C9.7044 14.5713 9.19512 14.8904 8.92327 15.3631H11.6543Z" fill="#C240BF"/>
<path d="M16.5015 13.2212C14.8636 13.2212 13.5352 14.531 13.5352 16.1463C13.5352 17.7617 14.8636 19.0698 16.5015 19.0698C16.9164 19.0698 17.3111 18.9861 17.6695 18.8345V17.2044C17.3813 17.5225 16.9645 17.7214 16.5015 17.7214C15.6317 17.7214 14.9265 17.0161 14.9265 16.1463C14.9265 15.2766 15.6317 14.5713 16.5015 14.5713C17.3276 14.5713 18.0054 15.2084 18.0715 16.0175V19.0698H19.4662V16.1171C19.4503 14.5152 18.1296 13.2212 16.5015 13.2212Z" fill="#C240BF"/>
<path d="M22.7023 13.2212C21.0644 13.2212 19.7359 14.531 19.7359 16.1463C19.7359 17.7617 21.0644 19.0698 22.7023 19.0698C23.989 19.0698 25.0849 18.2634 25.4951 17.134H23.9304C23.6417 17.4927 23.1985 17.7214 22.7023 17.7214C21.8325 17.7214 21.1272 17.0161 21.1272 16.1463C21.1272 15.2766 21.8325 14.5713 22.7023 14.5713C23.1985 14.5713 23.6417 14.8017 23.9304 15.1604H25.4951C25.0849 14.0305 23.989 13.2212 22.7023 13.2212Z" fill="#C240BF"/>
<path fill-rule="evenodd" clip-rule="evenodd" d="M4.10182 13.2212C3.29052 13.2212 2.55569 13.5439 2.02003 14.0646C2.3505 14.4432 2.59226 14.8989 2.71396 15.4009C2.98006 14.9072 3.50188 14.5713 4.10182 14.5713C4.97162 14.5713 5.67691 15.2766 5.67691 16.1463C5.67691 17.0161 4.97162 17.7214 4.10182 17.7214C3.63579 17.7214 3.21707 17.5193 2.92867 17.1975V18.8345C3.28811 18.9869 3.68573 19.0698 4.10182 19.0698C5.73972 19.0698 7.06649 17.7617 7.06649 16.1463C7.06649 14.531 5.73972 13.2212 4.10182 13.2212ZM0.0636292 13.2641V14.652C0.448058 14.7801 0.765195 15.052 0.953371 15.4043C1.07511 14.9009 1.31748 14.444 1.64902 14.0646C1.15851 13.6204 0.638426 13.3645 0.0636319 13.2641L0.0636292 13.2641ZM1.13716 16.0605C1.15728 15.3761 1.41506 14.7506 1.83281 14.2621L1.83281 14.2621C2.25088 14.7512 2.50887 15.3769 2.52846 16.0622C2.52858 16.0672 2.5287 16.0724 2.52882 16.0776C2.52962 16.112 2.53051 16.1499 2.53018 16.1858V21.0846H1.13544V16.2752L1.13716 16.0622V16.0605Z" fill="#C240BF"/>
</svg>
