<svg width="32" height="32" viewBox="0 0 32 32" fill="none" xmlns="http://www.w3.org/2000/svg">
<g clip-path="url(#clip0)">
<path d="M15.1525 17.703C10.6845 18.4771 4.61645 19.0533 0.0457938 20.4208C-0.0225319 20.4413 -0.0120203 20.479 0.0615612 20.4762C11.0911 20.1475 23.0324 20.2014 31.9501 20.5001C31.9716 20.501 32.0031 20.4604 31.9998 20.4389C31.7867 19.3834 30.9658 18.1889 28.4917 18.1999H27.0631C27.0631 18.1999 27.0278 18.2262 27.033 18.2382C27.4353 19.2478 26.3072 19.9167 25.5776 19.3065C25.2704 19.0471 24.9651 18.4116 25.7468 17.8621C26.3244 17.456 27.2313 16.8621 27.7588 16.5286C29.6475 15.3317 29.3843 13.6116 26.8749 13.4205C20.8182 12.9618 9.99746 12.3435 5.71826 12.0005C5.6227 11.9938 5.56775 12.063 5.63512 12.0994C9.1699 14.0153 12.3893 14.1893 15.9265 15.5075C17.94 16.2581 17.5424 17.2888 15.1525 17.703Z" fill="#0081C6"/>
</g>
<defs>
<clipPath id="clip0">
<rect width="32" height="32" fill="white"/>
</clipPath>
</defs>
</svg>
