<svg width="32" height="32" viewBox="0 0 32 32" fill="none" xmlns="http://www.w3.org/2000/svg">
<path d="M21.2793 9.98193C18.4358 9.98193 15.7087 11.1114 13.698 13.122C11.6873 15.1327 10.5579 17.8598 10.5579 20.7034C10.5579 23.5468 11.6876 26.2737 13.6982 28.2842C15.7089 30.2947 18.4359 31.4241 21.2793 31.4241C27.2001 31.4241 32 26.6242 32 20.7034C32 17.86 30.8707 15.133 28.8601 13.1223C26.8496 11.1116 24.1227 9.98193 21.2793 9.98193ZM21.2793 15.1207C24.3625 15.1207 26.862 17.6202 26.862 20.7034C26.862 23.7866 24.3625 26.286 21.2793 26.286C18.1961 26.286 15.6966 23.7866 15.6966 20.7034C15.6966 17.6202 18.1961 15.1207 21.2793 15.1207Z" fill="#B4BCAF"/>
<path d="M5.60966 21.6302L0 21.5841L7.92731 1.04612L13.7685 1L21.4643 21.5841L15.7624 21.6302L10.7091 7.4437L5.60966 21.6302Z" fill="#3ABA97"/>
<path d="M17.4019 10.7192C15.6889 11.3838 14.1754 12.4776 13.0067 13.8955L15.7621 21.6302H15.7752C15.7231 21.324 15.6967 21.0139 15.6962 20.7033C15.6975 18.4242 17.084 16.3748 19.1989 15.5257L17.4019 10.7192Z" fill="#058E7E"/>
</svg>
