<svg width="32" height="32" viewBox="0 0 32 32" fill="none" xmlns="http://www.w3.org/2000/svg">
<path fill-rule="evenodd" clip-rule="evenodd" d="M5.06033 21.6403C8.76676 18.6367 11.4138 16.0632 12.2023 14.6679C12.5373 14.1297 12.6445 13.6152 12.4588 13.1959C12.113 12.4155 10.8922 12.1787 9.38659 12.4716C16.1205 10.9508 22.9756 10.0286 29.872 9.71551C29.9018 9.7146 29.931 9.72448 29.9542 9.74333C29.9773 9.76218 29.9929 9.78875 29.9981 9.81816C30.0033 9.84758 29.9977 9.87788 29.9824 9.9035C29.967 9.92913 29.943 9.94837 29.9146 9.9577C21.1863 12.7945 13.2415 17.3907 6.49105 23.3361C6.48297 23.3435 6.47306 23.3486 6.46234 23.3509L2.0688 24.1214C2.00736 24.1327 1.97462 24.0524 2.02396 24.0138C3.04906 23.2394 4.06132 22.4481 5.06033 21.6403Z" fill="#D81E05"/>
<path fill-rule="evenodd" clip-rule="evenodd" d="M4.47188 13.6417C4.37455 13.6686 4.27678 13.6946 4.17856 13.7233C4.12071 13.7386 4.12564 13.8238 4.18619 13.8323L5.85058 14.0705L8.75778 14.4858C8.76912 14.487 8.78058 14.4851 8.79097 14.4804C10.8375 13.504 12.2018 13.1273 12.5019 13.5534C12.5947 13.6852 12.5786 13.8875 12.47 14.1499C12.4328 14.2382 12.3848 14.3324 12.3279 14.4347C12.6476 13.9261 12.7499 13.4394 12.5732 13.043C12.2426 12.3047 11.077 12.0809 9.6346 12.359C7.90399 12.7459 6.18275 13.1736 4.47233 13.6417" fill="#883030"/>
</svg>
