<svg width="32" height="32" viewBox="0 0 32 32" fill="none" xmlns="http://www.w3.org/2000/svg">
<path d="M7.99975 30.1905H24.0003L32 16.0952L24.0003 2H7.99975L0 16.0952L7.99975 30.1905Z" fill="#004993"/>
<path d="M15.9999 21.7334L18.1333 23.7905C18.2856 23.9428 18.5904 23.9428 18.819 23.7905L19.1999 23.4096C19.3523 23.2572 19.3523 22.9524 19.1999 22.8001L16.6857 20.362V18.381L17.8285 19.2191L17.6762 17.9239L19.5047 18.9905L20.3428 22.1905C20.4191 22.4192 20.6476 22.5715 20.8762 22.4953L21.4095 22.3429C21.6381 22.2666 21.7904 22.0382 21.7142 21.8096L20.9523 18.9144L23.8476 18.1525C24.0762 18.0762 24.2285 17.8477 24.1523 17.6191L24 17.0858C23.9237 16.8572 23.6952 16.7049 23.4666 16.7811L20.0381 17.6953L18.2857 16.7049L19.5809 16.0953L18.3619 15.562L20.1905 14.5715L23.4666 15.4096C23.6953 15.4859 24 15.3333 24 15.1049L24.1523 14.5715C24.2286 14.3429 24.076 14.1144 23.8476 14.0382L20.8762 13.2763L21.638 10.3811C21.7144 10.1524 21.5617 9.92394 21.3333 9.84775L20.8 9.69541C20.5713 9.6191 20.2666 9.77172 20.2666 10.0002L19.3523 13.3525L17.6 14.343L17.7523 12.8954L16.5333 13.7335V11.7526L19.0476 9.31447C19.1999 9.16213 19.1999 8.85733 19.0476 8.70494L18.6666 8.32399C18.5143 8.17166 18.2094 8.17166 17.9809 8.32399L15.8476 10.3811L13.7142 8.24779C13.5619 8.09546 13.2571 8.09546 13.0285 8.24779L12.6476 8.62877C12.4953 8.7811 12.4953 9.08591 12.6476 9.23827L15.0095 11.6002V13.6573L13.9428 12.8954L14.0951 14.343L12.3428 13.3525L11.4285 10.0002C11.3522 9.77155 11.1237 9.61922 10.8952 9.69541L10.3618 9.84775C10.1332 9.92406 9.98087 10.1525 10.0571 10.3811L10.819 13.2763L7.84756 14.0382C7.61892 14.1145 7.46661 14.343 7.54281 14.5715L7.69514 15.1049C7.77145 15.3335 7.99992 15.4858 8.22848 15.4096L11.5047 14.5715L13.3332 15.562L12.1904 16.0953L13.5618 16.7049L11.8094 17.6953L8.38087 16.7811C8.15222 16.7047 7.92372 16.8574 7.84753 17.0858L7.6952 17.6191C7.61917 17.8478 7.77151 18.0763 7.99998 18.1525L10.8952 18.9144L10.1333 21.8096C10.057 22.0383 10.2096 22.2668 10.438 22.3429L10.9714 22.4953C11.2 22.5716 11.4285 22.419 11.5047 22.1905L12.3428 18.9905L14.1714 18.0001L14.019 19.2191L15.0857 18.4572V20.5144L12.7238 22.8762C12.5714 23.0286 12.5714 23.3334 12.7238 23.4858L13.1048 23.8667C13.2571 24.019 13.5619 24.019 13.7905 23.8667L15.9999 21.7334Z" fill="white"/>
<path d="M18.2095 7.02857L16.0764 9.16163L13.8664 7.02857L16.0764 4.89551L18.2095 7.02857Z" fill="white"/>
<path d="M18.2095 25.0859L16.0764 27.219L13.8664 25.0859L16.0764 23.0288L18.2095 25.0859Z" fill="white"/>
<path d="M23.0091 9.6189L25.9804 10.3812L25.1432 13.2756L22.2478 12.5143L23.0091 9.6189Z" fill="white"/>
<path d="M22.9332 22.3425L22.1709 19.4471L25.1432 18.6858L25.9045 21.5812L22.9332 22.3425Z" fill="white"/>
<path d="M6.8568 13.3528L6.01855 10.4574L8.99087 9.69507L9.75218 12.5904L6.8568 13.3528Z" fill="white"/>
<path d="M6.93373 18.7617L9.90504 19.524L9.14272 22.4184L6.17142 21.6571L6.93373 18.7617Z" fill="white"/>
</svg>
