<svg width="32" height="32" viewBox="0 0 32 32" fill="none" xmlns="http://www.w3.org/2000/svg">
<path fill-rule="evenodd" clip-rule="evenodd" d="M3.33083 18.1989C3.34972 18.3671 3.37852 18.5341 3.41705 18.699V18.7335H5.03814V18.5438C4.86568 18.4575 4.7967 18.1989 4.7967 17.7677V15.9052C4.7967 15.2326 4.77946 14.7325 4.46904 14.3358C4.14137 13.9047 3.53777 13.6978 2.67549 13.6978C1.2786 13.6978 0.519795 14.2151 0.364585 15.3361H1.84771C1.91669 14.9739 2.17537 14.7842 2.641 14.7842C3.0549 14.7842 3.27909 14.9222 3.27909 15.2154V15.3361C3.27909 15.5912 3.00616 15.6358 2.48127 15.7215C2.22558 15.7633 1.91011 15.8148 1.53729 15.9052C0.675006 16.0949 0.243866 16.595 0.243866 17.4228C0.243866 18.3023 0.81297 18.8714 1.77872 18.8714C2.3674 18.8742 2.93033 18.6303 3.33083 18.1989ZM1.76148 17.2331C1.76148 16.9227 1.93393 16.7847 2.29609 16.6812C2.41486 16.6473 2.53364 16.6226 2.64876 16.5987C2.88467 16.5498 3.10524 16.504 3.27909 16.3881V16.9572C3.27909 17.4745 2.89969 17.8194 2.34783 17.8194C2.1894 17.8297 2.03422 17.7712 1.92196 17.659C1.8097 17.5467 1.75122 17.3915 1.76148 17.2331Z" fill="#153152"/>
<path d="M9.98763 18.6989H8.41828V18.0264C8.10093 18.5365 7.53569 18.8389 6.93516 18.8196C5.84869 18.8196 5.29683 18.2678 5.29683 17.1641V13.7839H6.90067V16.526C6.90067 17.2503 7.03863 17.5952 7.57325 17.5952C8.1596 17.5952 8.38379 17.2158 8.38379 16.4053V13.7839H9.98763V18.6989Z" fill="#153152"/>
<path d="M10.4015 13.7838H11.9364V14.6461C12.2813 13.9735 12.7642 13.6803 13.5575 13.6631V15.2497C13.426 15.2304 13.2936 15.2189 13.1608 15.2152C12.6779 15.2152 12.3503 15.3532 12.1606 15.6636C12.0054 15.905 11.9881 16.3534 11.9881 17.026V18.6643H10.3843V13.7838H10.4015Z" fill="#153152"/>
<path d="M13.8851 13.7839H15.489V18.6817H13.8851V13.7839Z" fill="#153152"/>
<path fill-rule="evenodd" clip-rule="evenodd" d="M18.4552 19.544C18.0413 19.544 17.7999 19.4405 17.7136 19.1474H16.1098C16.265 20.2166 17.0238 20.6995 18.5069 20.6995C19.5417 20.6995 20.2832 20.3546 20.6626 19.7682C20.9386 19.3198 20.9558 18.699 20.9558 17.854V13.8012H19.4555V14.4566C19.1149 13.9361 18.5246 13.6344 17.9033 13.6633C16.6962 13.6633 15.8339 14.698 15.8339 16.2329C15.8339 17.7677 16.7134 18.7507 17.8861 18.7507C18.4989 18.7834 19.0807 18.4792 19.4037 17.9574V18.4748C19.4037 19.2164 19.1968 19.544 18.4552 19.544ZM19.3692 16.2156C19.3692 17.0262 19.0071 17.4746 18.4035 17.4746C17.8516 17.4746 17.4895 17.0089 17.4895 16.2156C17.4895 15.3533 17.8344 14.905 18.438 14.905C19.0416 14.905 19.3692 15.3533 19.3692 16.2156Z" fill="#153152"/>
<path d="M21.4042 13.7838H22.9736V14.4564C23.2788 13.9334 23.8523 13.6267 24.4567 13.6631C25.6466 13.6631 26.095 14.2494 26.095 15.5083V18.6988H24.4912V16.2327C24.4912 15.3359 24.4567 14.8875 23.8186 14.8875C23.2322 14.8875 23.008 15.2669 23.008 16.0775V18.6988H21.4042V13.7838Z" fill="#153152"/>
<path d="M28.5266 20.5615C28.2162 20.6994 27.7851 20.6994 27.2505 20.6994H26.8193V19.4232H27.1297C27.6644 19.4232 27.9058 19.337 27.9058 18.9231C27.8685 18.6474 27.787 18.3796 27.6644 18.1298L26.0088 13.7839H27.7333L28.6646 17.1296L29.6131 13.7839H31.3204L29.3544 19.2335C29.0957 19.9406 28.906 20.389 28.5266 20.5615Z" fill="#153152"/>
<path d="M15.5752 12.525C15.5752 13.0107 15.1814 13.4045 14.6957 13.4045C14.2099 13.4045 13.8161 13.0107 13.8161 12.525C13.8161 12.0392 14.2099 11.6454 14.6957 11.6454C14.9304 11.6407 15.1568 11.7318 15.3228 11.8978C15.4888 12.0638 15.5799 12.2903 15.5752 12.525Z" fill="#AD1923"/>
</svg>
