<svg width="32" height="32" viewBox="0 0 32 32" fill="none" xmlns="http://www.w3.org/2000/svg">
<path d="M19.9431 12.2137C19.4317 12.4374 18.9204 12.6611 18.441 12.8529C17.3543 13.3323 16.2996 13.8437 15.245 14.387C15.181 14.4189 15.1171 14.4189 15.0532 14.4189C14.7656 14.4509 14.446 14.4829 14.1583 14.5148C13.5511 14.6107 12.9758 14.6746 12.3685 14.8025C11.4417 14.9623 10.5149 15.1221 9.58802 15.3138C8.18178 15.6334 6.77554 15.953 5.33734 16.3046C5.27342 16.3046 5.24146 16.3365 5.17754 16.3365C4.98578 16.3685 4.85794 16.3046 4.79402 16.1128C4.7301 15.9211 4.76206 15.7613 4.95382 15.6654C5.2095 15.5375 5.46518 15.4417 5.72086 15.3458C7.57454 14.6427 9.46018 14.0035 11.3778 13.4601C12.7521 13.0766 14.1583 12.757 15.5646 12.5333C16.4594 12.3735 17.3543 12.2776 18.2492 12.2137C18.7925 12.1817 19.3358 12.1817 19.8792 12.1498C19.8792 12.1817 19.9111 12.1817 19.9431 12.2137C19.9431 12.2137 19.9431 12.1817 19.9431 12.2137Z" fill="#F9BF31"/>
<path d="M31.0652 15.0262C30.7775 14.9623 30.4899 14.9304 30.2023 14.8664C29.0197 14.6747 27.8372 14.4829 26.6227 14.3231C26.0155 14.2272 25.3763 14.2272 24.7371 14.1633C24.5773 14.1633 24.6092 14.1314 24.5773 14.0994C24.2257 13.588 23.8742 13.1086 23.5226 12.5973C23.4906 12.5653 23.4587 12.4694 23.4267 12.4055C26.0475 13.0128 28.6362 13.8437 31.0652 14.9943C31.0652 15.0262 31.0652 15.0262 31.0652 15.0262Z" fill="#F9BF31"/>
<path d="M21.8607 13.1086C22.0844 13.4282 22.3081 13.7159 22.5638 14.0355C21.6689 14.0355 20.7101 14.0355 19.8152 14.0355L19.8792 14.0035C20.5184 13.7159 21.1895 13.3963 21.8607 13.1086Z" fill="#F9BF31"/>
<path d="M21.8287 13.1086C22.372 12.8848 22.9154 12.6611 23.4587 12.4694C23.7144 12.8529 23.97 13.2044 24.2257 13.556C25.1526 14.8344 25.8237 16.2406 26.431 17.6788C26.9104 18.7975 27.2619 19.9161 27.5815 21.0666C27.5815 21.0986 27.6135 21.1305 27.6135 21.1945C27.6454 21.3862 27.5815 21.546 27.3898 21.6099C27.198 21.6739 27.0382 21.6419 26.9423 21.4501C26.7825 21.1625 26.6547 20.8429 26.4949 20.5233C25.4082 18.2861 24.1298 16.1448 22.6277 14.1632C22.372 13.8436 22.1483 13.524 21.8926 13.2044C21.8926 13.1725 21.8607 13.1725 21.8287 13.1086Z" fill="#279AD6"/>
<path d="M21.8287 10.4879C21.4452 10.4559 21.0617 10.392 20.6782 10.36C20.2946 10.3281 19.9111 10.2961 19.5276 10.2641C19.4317 10.2641 19.3678 10.2322 19.3039 10.1683C18.7606 9.62495 18.2172 9.04967 17.642 8.50635C16.3955 7.29186 15.0532 6.1413 13.7109 5.05466C13.6469 5.0227 13.583 4.95878 13.5511 4.89486C13.4232 4.73506 13.4232 4.57526 13.5511 4.44742C13.6789 4.28762 13.8387 4.25566 14.0305 4.35154C14.1903 4.44742 14.3501 4.5433 14.5099 4.63918C15.98 5.62994 17.4502 6.65266 18.8564 7.77127C19.8152 8.53831 20.7421 9.36927 21.573 10.2322C21.6689 10.3281 21.7328 10.4239 21.8287 10.4879Z" fill="#279AD6"/>
<path d="M23.6185 12.4374C23.2669 12.5652 22.6277 12.8209 22.2762 12.9807C19.3998 14.0993 16.7151 15.5695 14.0944 17.2314C12.1448 18.4778 10.2272 19.8202 8.37354 21.2584C6.83946 22.4728 5.30537 23.7193 3.77129 24.9338C2.84445 25.7008 1.94957 26.4998 1.02273 27.2668C0.958806 27.3308 0.862926 27.3627 0.767046 27.3947C0.607245 27.4586 0.479405 27.3947 0.383525 27.2668C0.287645 27.139 0.287645 27.0112 0.383525 26.8833C0.511365 26.7235 0.671166 26.5637 0.830966 26.4039C2.26917 24.8379 3.70737 23.2718 5.27341 21.8017C7.7663 19.4366 10.419 17.2953 13.3273 15.4736C15.3089 14.2271 17.4502 13.2044 19.6235 12.3415C19.8792 12.2456 20.1348 12.1178 20.3905 12.0539C20.4544 12.0219 20.806 11.926 20.838 11.926C21.637 12.0539 22.1803 12.1817 23.0112 12.3415C23.1071 12.3415 23.5226 12.4374 23.6185 12.4374Z" fill="#279AD6"/>
<path d="M23.7463 11.0632C24.034 10.9992 24.3536 10.8714 24.6092 10.8075C25.568 10.5838 26.5268 10.36 27.4856 10.1683C28.3166 10.0085 29.1476 9.88065 29.9785 9.75281C30.0744 9.75281 30.1703 9.75281 30.2662 9.75281C30.426 9.78477 30.5538 9.88065 30.5538 10.0404C30.5858 10.2002 30.5219 10.3281 30.3621 10.392C30.0744 10.4879 29.8187 10.5518 29.5311 10.6157C28.3805 10.9353 27.198 11.2549 26.0474 11.5745C25.8876 11.6065 25.7598 11.6065 25.632 11.5745C25.0567 11.3828 24.4814 11.2549 23.9381 11.0632C23.9061 11.0951 23.8102 11.0951 23.7463 11.0632Z" fill="#279AD6"/>
<path d="M13.2315 11.3188C12.5603 11.3188 11.8572 11.3188 11.186 11.3188C11.1221 11.3188 11.0262 11.3188 10.9623 11.2868C10.8345 11.2549 10.7386 11.159 10.7066 10.9992C10.6747 10.8394 10.7386 10.7115 10.8984 10.6476C11.0262 10.6157 11.1541 10.5837 11.2819 10.5517C11.8252 10.4878 12.4005 10.3919 12.9438 10.36C13.3913 10.2961 13.8707 10.2641 14.3181 10.2321C14.9254 10.2002 15.5326 10.1363 16.1398 10.1043C16.8749 10.0723 17.642 10.0723 18.377 10.1043C19.0802 10.1363 19.7513 10.2002 20.4225 10.2641C21.2854 10.36 22.1483 10.4878 23.0112 10.6796C23.9381 10.8713 24.801 11.159 25.6959 11.4786C26.9104 11.926 28.0929 12.5013 29.2115 13.1725C29.8507 13.556 30.4579 13.9395 31.0652 14.323C31.0971 14.355 31.1291 14.3869 31.1611 14.3869C31.2889 14.5148 31.3209 14.6426 31.2569 14.8024C31.193 14.9622 31.0971 15.0261 30.9054 14.9942C30.8095 14.9942 30.7136 14.9622 30.6497 14.9303C29.4352 14.323 28.1568 13.8436 26.8784 13.3962C25.6639 12.9807 24.4495 12.6291 23.203 12.3415C22.372 12.1497 21.573 12.0219 20.7421 11.8621C20.1668 11.7662 19.5596 11.6703 18.9523 11.6064C18.4729 11.5425 18.0255 11.5105 17.5461 11.4786C16.9388 11.4147 16.3316 11.3827 15.7563 11.3507C15.0212 11.3188 14.3181 11.3188 13.583 11.2868C13.5191 11.3188 13.3913 11.3188 13.2315 11.3188Z" fill="#F9BF31"/>
</svg>
