<svg width="32" height="32" viewBox="0 0 32 32" fill="none" xmlns="http://www.w3.org/2000/svg">
<g clip-path="url(#clip0)">
<path d="M10.2861 12.1515C10.2188 12.2704 10.176 12.4016 10.1603 12.5374C10.1447 12.6732 10.1565 12.8107 10.1951 12.9418C10.2902 13.3042 10.3152 13.6814 10.2689 14.0532C10.2579 14.124 10.259 14.1961 10.2721 14.2666C10.3902 14.7745 10.4778 15.2891 10.5344 15.8075C10.5611 16.2112 10.5921 16.6146 10.6172 17.019C10.6027 17.129 10.5974 17.2401 10.6013 17.351C10.6316 17.548 10.6432 17.7474 10.6359 17.9466C10.6431 18.1769 10.6564 18.4066 10.674 18.6367C10.6911 18.8608 10.7569 19.0756 10.769 19.2981C10.7758 19.4098 10.8263 19.5144 10.9094 19.5893C11.0007 19.6842 11.1156 19.753 11.2423 19.7886C11.4996 19.6941 11.549 19.4697 11.5592 19.2631C11.5923 19.0048 11.6576 18.7517 11.7536 18.5097C11.8352 18.2856 11.9036 18.0569 11.9584 17.8248C11.9724 17.7381 12.0011 17.6544 12.0433 17.5773C12.1676 17.3119 12.2691 17.0366 12.3469 16.7541C12.4141 16.5088 12.5176 16.2749 12.654 16.0603C12.7068 15.9807 12.746 15.8929 12.77 15.8004C12.8256 15.6254 12.8245 15.4282 12.9031 15.2716C13.0628 14.9529 13.0464 14.5646 13.3046 14.2872C13.3386 14.2509 13.3318 14.1795 13.3563 14.1305C13.4822 13.8793 13.5388 13.5924 13.7471 13.3833C13.7681 13.3645 13.7847 13.3413 13.7956 13.3154C13.8065 13.2894 13.8115 13.2614 13.8103 13.2332C13.8056 13.2138 13.8052 13.1936 13.8093 13.174C13.8133 13.1544 13.8216 13.136 13.8336 13.12C14.0137 12.9381 14.0743 12.6952 14.1702 12.4705C14.3043 12.1577 14.4773 11.8778 14.8109 11.7381C14.8453 11.7271 14.8741 11.7034 14.8916 11.6718C14.9091 11.6403 14.9138 11.6032 14.9049 11.5682C14.8892 11.384 14.8128 11.2101 14.6876 11.0741C14.5256 10.9107 14.3575 10.7535 14.1671 10.5693C14.0963 10.6967 13.9703 10.5944 13.8799 10.6401C13.8495 10.6809 13.8757 10.717 13.8658 10.7412C13.8072 10.8521 13.7936 10.9814 13.8277 11.1021C13.8383 11.133 13.8152 11.18 13.7979 11.2154C13.7669 11.2802 13.7469 11.3498 13.7389 11.4213C13.7091 11.6101 13.645 11.792 13.5497 11.9578C13.5047 12.042 13.4694 12.1311 13.4445 12.2234C13.4094 12.3864 13.3588 12.5457 13.2934 12.6991C13.0842 13.1543 12.9256 13.6312 12.8205 14.121C12.736 14.5258 12.5999 14.918 12.4157 15.2882C12.3183 15.506 12.2588 15.7388 12.2397 15.9766C12.2243 16.1093 12.1896 16.2391 12.1368 16.3619C12.0157 16.5852 11.9196 16.8212 11.85 17.0656C11.7904 17.3468 11.6763 17.6089 11.5932 17.8816C11.5566 17.9869 11.5133 18.0898 11.4636 18.1897C11.4417 18.2384 11.4263 18.2987 11.3448 18.2957C11.3217 18.2819 11.302 18.263 11.2873 18.2404C11.2726 18.2179 11.2632 18.1922 11.2599 18.1655C11.1977 17.8858 11.1206 17.6077 11.0854 17.3246C11.0556 17.1042 11.0068 16.8869 10.9396 16.6749C10.9106 16.5766 10.9044 16.4729 10.9213 16.3718C10.9682 16.0489 10.9648 15.7207 10.9113 15.3989C10.8995 15.3287 10.8936 15.2577 10.8939 15.1865C10.8738 14.8841 10.9024 14.5804 10.9788 14.2871C10.9844 14.2478 10.9853 14.208 10.9814 14.1684C10.9969 13.9085 10.9737 13.6393 11.1644 13.421C11.1796 13.3931 11.1872 13.3617 11.1865 13.3299C11.202 13.2116 11.2116 13.0925 11.2314 12.9748C11.2414 12.9238 11.2394 12.8711 11.2256 12.821C11.2117 12.7708 11.1865 12.7246 11.1518 12.6858C10.9246 12.4235 10.6225 12.237 10.2861 12.1515ZM26.5883 11.2528C26.5213 11.1141 26.6002 11.0404 26.6659 10.9591C26.7357 10.8921 26.7788 10.8022 26.7874 10.7059C26.7959 10.6096 26.7693 10.5134 26.7125 10.4352C26.6274 10.2903 26.5102 10.1668 26.3698 10.0743C26.2829 10.0158 26.1781 9.98989 26.0739 10.0011C25.92 10.0107 25.8818 10.0468 25.8757 10.2044C25.8726 10.4282 25.8194 10.6485 25.7199 10.8491C25.6809 10.9365 25.6557 11.0295 25.6452 11.1246C25.6113 11.3118 25.5908 11.3319 25.4045 11.3499C25.2302 11.3667 25.0536 11.3717 24.882 11.4029C24.5468 11.4636 24.2154 11.5354 23.8744 11.5728C23.503 11.6135 23.1309 11.6505 22.7589 11.673C22.5695 11.6845 22.4364 11.7217 22.3749 11.9184C22.3918 11.9791 22.4217 12.0354 22.4625 12.0834C22.5033 12.1314 22.554 12.17 22.6111 12.1965C22.7036 12.2434 22.7963 12.2898 22.8908 12.3326C22.9617 12.371 23.0429 12.3863 23.123 12.3765C23.2031 12.3667 23.2782 12.3322 23.3378 12.2778C23.3953 12.2226 23.4643 12.1809 23.5399 12.1555C23.6154 12.1301 23.6957 12.1216 23.7749 12.1308C23.8225 12.1304 23.87 12.1246 23.9165 12.1137C24.412 12.0429 24.9076 11.968 25.3999 11.8686C25.4228 11.8615 25.4472 11.8614 25.4702 11.8682C25.4931 11.875 25.5136 11.8884 25.5289 11.9068C25.5404 12.1046 25.539 12.303 25.5245 12.5006C25.4687 12.9178 25.4315 13.3386 25.3344 13.7492C25.2627 14.0522 25.2672 14.3671 25.1928 14.6674C25.1252 14.9393 25.1021 15.2167 25.0568 15.4911C25.0012 15.8275 24.9709 16.1682 24.8908 16.5009C24.8665 16.6014 24.8405 16.7018 24.8188 16.8029C24.7938 16.9206 24.6677 16.9612 24.6223 17.0494C24.689 17.4092 24.9567 17.5483 25.2428 17.6621C25.392 17.7216 25.4799 17.6707 25.4976 17.5168C25.5369 17.3458 25.5405 17.1684 25.5081 16.9959C25.4811 16.8632 25.4754 16.727 25.4912 16.5925C25.4999 16.3774 25.5728 16.1711 25.5632 15.9531C25.5673 15.5875 25.6056 15.2231 25.6777 14.8647C25.7182 14.5823 25.8112 14.3055 25.7784 14.0141C25.7726 13.9907 25.7725 13.9662 25.7781 13.9428C25.7838 13.9193 25.7949 13.8976 25.8107 13.8793C25.8864 13.7856 25.929 13.6695 25.9319 13.5491C25.9905 13.3177 26.0195 13.0798 26.0184 12.8412C26.0115 12.7932 26.0215 12.7443 26.0467 12.703C26.1528 12.5168 26.2247 12.3131 26.2591 12.1016C26.3517 11.7237 26.3309 11.7717 26.7448 11.7138C26.8004 11.708 26.8563 11.7062 26.9121 11.7084C27.064 11.7083 27.215 11.6868 27.3608 11.6444C27.6683 11.5604 27.9855 11.5173 28.3043 11.5163C28.44 11.5226 28.5759 11.5085 28.7074 11.4745C28.7605 11.4556 28.818 11.4527 28.8726 11.4664C28.9361 11.4896 29.0055 11.4912 29.0699 11.4709C29.1344 11.4506 29.1903 11.4095 29.229 11.3541C29.2579 11.3101 29.2995 11.2757 29.3482 11.2555C29.3969 11.2353 29.4505 11.2302 29.5021 11.2409C29.6188 11.2651 29.7398 11.2566 29.8519 11.2164C30.0184 11.1613 30.1929 11.1341 30.3683 11.1358C30.3921 11.1398 30.4164 11.1388 30.4399 11.133C30.4633 11.1272 30.4853 11.1167 30.5045 11.1021C30.6048 11.0355 30.7218 10.9984 30.8422 10.9952C31.0233 10.9684 31.1997 10.916 31.3661 10.8395C31.4807 10.7823 31.6063 10.7507 31.7342 10.7467C31.7844 10.7509 31.8348 10.7431 31.8813 10.7238C31.9278 10.7046 31.9689 10.6744 32.0014 10.636C31.8864 10.6213 31.77 10.6231 31.6555 10.6412C31.363 10.7365 31.0573 10.7262 30.7609 10.781C30.4938 10.8268 30.2224 10.843 29.9517 10.8294C29.7128 10.8239 29.4741 10.8468 29.2406 10.8975C29.0002 10.953 28.7569 10.995 28.5118 11.0232C28.2287 11.0484 27.9466 11.1038 27.6658 11.1555C27.312 11.2319 26.9501 11.2646 26.5883 11.2528ZM27.6461 12.5278C27.4632 12.3154 27.228 12.2976 26.9831 12.3105C26.9036 12.3147 26.8362 12.3433 26.8423 12.4352C26.8375 12.689 26.8138 12.9421 26.7715 13.1924C26.7391 13.594 26.6743 13.9924 26.6575 14.396C26.6542 14.4278 26.6432 14.4584 26.6254 14.485C26.5512 14.6437 26.4988 14.8117 26.4697 14.9844C26.3618 15.3602 26.338 15.7532 26.2193 16.1275C26.188 16.2103 26.1767 16.2994 26.1863 16.3874C26.196 16.4754 26.2263 16.5598 26.2748 16.6339C26.387 16.7998 26.5459 16.9287 26.7313 17.0044C26.8176 17.038 26.9127 17.0418 27.0014 17.0151C27.0901 16.9884 27.1674 16.9328 27.2208 16.8572C27.2613 16.8077 27.2958 16.7536 27.3235 16.696C27.4616 16.4164 27.6515 16.1655 27.8832 15.9568C28.1467 15.6826 28.2561 15.3107 28.5072 15.0316C28.5261 15.0105 28.5256 14.9717 28.5338 14.941C28.5977 14.7035 28.7783 14.5573 28.9525 14.4066C28.9644 14.3964 28.996 14.4089 29.0188 14.4107C29.0381 14.5221 29.0362 14.6362 29.0132 14.7469C28.9917 15.0633 28.9774 15.3811 28.9329 15.6945C28.9028 15.9069 28.8866 16.1193 28.8685 16.3328C28.8435 16.6266 29.1942 16.9895 29.4023 17.0681C29.5722 17.1321 29.6926 17.0644 29.6653 16.8924C29.6313 16.6782 29.6609 16.4655 29.6405 16.2521C29.6061 16.0472 29.6053 15.838 29.6379 15.6328C29.723 15.3092 29.7668 14.9762 29.7683 14.6417C29.7675 14.6024 29.7807 14.5631 29.7825 14.5236C29.8049 14.1541 29.9704 13.8184 30.0309 13.4569C30.0749 13.1973 30.1621 12.9468 30.2888 12.7158C30.3949 12.5206 30.3661 12.4022 30.1634 12.3052C29.9981 12.2089 29.8101 12.1585 29.6188 12.1594C29.5979 12.1611 29.5783 12.1815 29.5538 12.1956C29.5492 12.2346 29.5452 12.2738 29.5397 12.3127C29.5144 12.5918 29.4027 12.8561 29.2202 13.0688C29.0294 13.273 28.8708 13.505 28.7497 13.7568C28.6103 14.0422 28.4436 14.3134 28.252 14.5667C28.0371 14.8685 27.8118 15.168 27.5752 15.456C27.3931 15.6775 27.2529 15.9314 27.0492 16.1356C27.0042 16.1808 26.9655 16.2354 26.8892 16.2064C26.8364 16.0654 26.827 15.9117 26.8623 15.7653C26.892 15.6336 26.9141 15.5003 26.9286 15.366C26.9641 15.0168 27.0574 14.6759 27.2048 14.3573C27.2677 14.211 27.3083 14.0562 27.3254 13.8979C27.344 13.6682 27.3952 13.4424 27.4775 13.2271C27.5528 13.0363 27.5503 12.8229 27.6426 12.6353C27.6596 12.605 27.6461 12.5588 27.6461 12.5278ZM20.4231 16.365C20.4752 16.3892 20.5191 16.4282 20.5493 16.4771C20.5795 16.5261 20.5947 16.5828 20.593 16.6402C20.5921 16.6958 20.5983 16.7513 20.6115 16.8053C20.7432 17.0958 20.9231 17.3619 21.1436 17.5923C21.2109 17.6638 21.2767 17.656 21.3535 17.5923C21.3861 17.5688 21.4104 17.5356 21.4228 17.4974C21.4353 17.4593 21.4353 17.4181 21.4229 17.3799C21.3832 17.2263 21.3508 17.0708 21.313 16.9165C21.2604 16.776 21.226 16.6294 21.2106 16.4802C21.198 16.3136 21.2227 16.1462 21.283 15.9903C21.3212 15.8853 21.3397 15.7741 21.3375 15.6624C21.3515 15.4639 21.3822 15.267 21.4292 15.0737C21.4664 14.9353 21.4819 14.792 21.4752 14.6489C21.4638 14.4491 21.4939 14.2491 21.5637 14.0615C21.6746 13.7772 21.6992 13.4731 21.7825 13.1837C21.792 13.1575 21.7962 13.1297 21.7948 13.1018C21.7935 13.074 21.7867 13.0467 21.7747 13.0215C21.7213 12.9272 21.6382 12.8531 21.5383 12.8109C21.4384 12.7687 21.3274 12.7607 21.2225 12.7882C21.2032 12.7937 21.1857 12.8039 21.1714 12.818C21.1572 12.8321 21.1468 12.8496 21.1411 12.8688C21.0986 13.0283 21.0044 13.1745 21.0362 13.3533C21.0432 13.4326 21.0378 13.5125 21.02 13.59C20.9802 13.7669 20.9527 13.9463 20.9378 14.127C20.9391 14.3016 20.9208 14.4759 20.8831 14.6465C20.8181 14.9238 20.7786 15.2075 20.5822 15.4394C20.4423 15.6031 20.3353 15.7922 20.267 15.9964C20.2559 16.0264 20.2403 16.0545 20.2209 16.0798C20.0937 16.2729 19.9796 16.4742 19.8794 16.6824C19.7894 16.8505 19.6865 17.0115 19.5878 17.1749C19.5545 17.2301 19.5189 17.2855 19.4234 17.2647C19.3992 17.1846 19.3896 17.1009 19.3951 17.0174C19.4119 16.8752 19.4213 16.7321 19.4234 16.5888C19.4259 16.445 19.4599 16.3035 19.5232 16.1744C19.5546 16.1189 19.581 16.0609 19.6023 16.0008C19.7424 15.4887 19.8297 14.9635 19.9857 14.455C19.9995 14.3846 20.0042 14.3126 19.9998 14.2409C19.9979 14.0896 20.0272 13.9395 20.0859 13.8C20.1079 13.7579 20.1185 13.7108 20.1167 13.6634C20.1188 13.5778 20.1035 13.4926 20.0719 13.4131C20.0403 13.3335 19.9929 13.2611 19.9327 13.2003C19.8724 13.1395 19.8005 13.0915 19.7212 13.0591C19.6419 13.0268 19.5569 13.0108 19.4713 13.0121C19.4266 13.0679 19.3937 13.1322 19.3748 13.2012C19.3559 13.2701 19.3512 13.3422 19.3611 13.413C19.3689 13.4925 19.363 13.5726 19.3438 13.6501C19.2953 13.9222 19.2927 14.1983 19.2279 14.4713C19.1095 14.9709 19.0323 15.4802 18.9138 15.9807C18.828 16.3376 18.828 16.7098 18.9138 17.0667C18.9467 17.201 19.009 17.3263 19.096 17.4336C19.1831 17.541 19.2928 17.6278 19.4173 17.6877C19.569 17.6247 19.7191 17.5922 19.7628 17.4109C19.8636 16.9911 20.1679 16.7013 20.4231 16.365ZM15.1072 13.3709C14.9703 13.577 14.8276 13.757 14.703 13.9514C14.5765 14.1535 14.4252 14.339 14.2526 14.5036C14.0764 14.6656 13.9371 14.8636 13.8442 15.0841C13.8018 15.2045 13.7448 15.3191 13.6743 15.4255C13.5563 15.5957 13.4541 15.7763 13.3689 15.9651C13.2718 16.1573 13.1824 16.3538 13.0762 16.5408C12.922 16.8186 12.8 17.1132 12.7128 17.4187C12.6335 17.6856 12.5543 17.9525 12.4773 18.2203C12.4342 18.368 12.4513 18.5269 12.5249 18.662C12.5931 18.8063 12.6984 18.9299 12.8301 19.02C13.0716 19.1681 13.4304 19.0851 13.6484 18.8243C13.8349 18.6158 13.9742 18.3695 14.0568 18.1022C14.0791 17.9923 14.1321 17.8909 14.2097 17.8099C14.2483 17.7812 14.2765 17.7407 14.29 17.6945C14.3035 17.6483 14.3016 17.5989 14.2846 17.5539C14.2762 17.5269 14.2766 17.4979 14.286 17.4712C14.2953 17.4444 14.313 17.4214 14.3364 17.4055C14.4654 17.2781 14.5819 17.1386 14.6843 16.989C14.7198 16.9431 14.7558 16.9023 14.8215 16.9223C14.841 16.937 14.855 16.9577 14.8613 16.9812C14.8676 17.0047 14.8659 17.0297 14.8565 17.0521C14.8202 17.2797 14.769 17.5045 14.703 17.7253C14.6587 17.8271 14.635 17.9367 14.6335 18.0477C14.6319 18.1587 14.6525 18.2689 14.6939 18.3719C14.8098 18.6738 14.883 18.7344 15.2328 18.7072C15.2797 18.5315 15.2852 18.3473 15.249 18.1692C15.2132 17.9111 15.2071 17.6498 15.2309 17.3904C15.2733 16.9622 15.329 16.5373 15.4117 16.1161C15.4727 15.8058 15.4716 15.4819 15.6241 15.1893C15.6779 15.0861 15.6202 15.024 15.457 14.9588C15.3993 15.0527 15.3543 15.1539 15.3233 15.2597C15.2205 15.6282 15.0487 15.9739 14.8173 16.2785C14.6966 16.4357 14.5863 16.6007 14.4871 16.7723C14.3467 16.9747 14.2188 17.1854 14.1039 17.4033C14.0933 17.4247 14.0795 17.4444 14.063 17.4618C13.8683 17.6925 13.6732 17.9229 13.4778 18.153C13.4163 18.2252 13.3574 18.3028 13.2444 18.3032C13.2333 18.2796 13.2133 18.2579 13.2153 18.2385C13.224 18.0551 13.2628 17.8745 13.3304 17.7037C13.4111 17.5132 13.4681 17.3135 13.5003 17.109C13.5772 16.6875 13.6903 16.2734 13.8386 15.8714C13.8621 15.7951 13.9006 15.7242 13.9518 15.663C14.1078 15.4821 14.2441 15.2853 14.3585 15.0758C14.5494 14.7738 14.818 14.5478 15.0498 14.2864C15.0608 14.2748 15.073 14.2644 15.0863 14.2555C15.1996 14.1735 15.2494 14.1741 15.3569 14.2681C15.4126 14.3251 15.4803 14.3691 15.5551 14.3968C15.7233 14.448 15.827 14.3714 15.7996 14.2002C15.7475 13.8745 15.535 13.6461 15.3073 13.4326C15.2648 13.3958 15.188 13.3953 15.1072 13.3709ZM18.1021 13.7478C18.1499 13.7952 18.1349 13.8493 18.1264 13.9052C18.0737 14.2508 18.0142 14.5954 17.9482 14.9389C17.8774 15.3053 17.819 15.6751 17.7749 16.0448C17.7343 16.2067 17.7068 16.3715 17.6927 16.5377C17.6967 16.6811 17.6696 16.8236 17.6134 16.9556C17.5822 17.0374 17.5576 17.1216 17.5397 17.2073C17.4972 17.3617 17.4978 17.5247 17.5413 17.6788C17.5848 17.8329 17.6696 17.9722 17.7866 18.0815C17.8461 18.1396 17.9078 18.1895 17.9972 18.1468C18.0347 18.1323 18.0666 18.1062 18.0883 18.0724C18.11 18.0386 18.1205 17.9987 18.1181 17.9586C18.1161 17.895 18.1199 17.8312 18.114 17.7679C18.1043 17.7122 18.1155 17.6549 18.1454 17.6069C18.2237 17.4849 18.253 17.3378 18.2274 17.1951C18.2027 16.8949 18.2133 16.5929 18.259 16.2952C18.3252 15.9187 18.3603 15.5385 18.4212 15.1624C18.4655 14.8882 18.5543 14.6244 18.5948 14.3504C18.612 14.1518 18.6582 13.9567 18.7317 13.7714C18.7508 13.7314 18.7599 13.6874 18.7581 13.6431C18.7563 13.5988 18.7438 13.5556 18.7215 13.5173C18.6466 13.4307 18.5521 13.3632 18.4459 13.3205C18.3396 13.2778 18.2247 13.261 18.1107 13.2716C18.0951 13.2744 18.0801 13.28 18.0664 13.288C17.914 13.3764 17.7916 13.5083 17.7147 13.6668C17.6585 13.8164 17.5551 13.9437 17.4202 14.0294C17.3448 14.0844 17.2845 14.1574 17.2447 14.2418C17.154 14.4279 17.0439 14.604 16.9162 14.7671C16.8848 14.8043 16.8531 14.8409 16.802 14.8237C16.7858 14.8181 16.7721 14.807 16.7633 14.7923C16.7545 14.7777 16.751 14.7604 16.7535 14.7435C16.7794 14.5474 16.8368 14.3569 16.9235 14.1792C17.052 13.9684 17.0393 13.663 16.6846 13.6474C16.589 13.6464 16.4936 13.6372 16.3996 13.6201C16.2891 13.5958 16.2359 13.6444 16.1971 13.7421C16.2602 13.8874 16.2801 14.0477 16.2544 14.204C16.2345 14.3791 16.1797 14.5466 16.1586 14.7202C16.0975 15.225 15.9603 15.7172 15.9145 16.2249C15.8861 16.5411 15.7792 16.844 15.7395 17.1595C15.7068 17.4198 15.6687 17.6795 15.6416 17.9405C15.6205 18.1406 15.6818 18.2189 15.8842 18.2211C15.9319 18.2211 15.9797 18.2166 16.0276 18.2157C16.0456 18.2172 16.0637 18.215 16.0809 18.2094C16.098 18.2037 16.1138 18.1947 16.1274 18.1828C16.141 18.1709 16.1521 18.1564 16.1601 18.1402C16.168 18.124 16.1726 18.1063 16.1736 18.0883C16.203 17.9001 16.2481 17.7129 16.2585 17.5238C16.271 17.3039 16.2302 17.0793 16.3545 16.8764C16.3635 16.8541 16.368 16.8303 16.3678 16.8063C16.3938 16.6091 16.4562 16.4196 16.4966 16.2265C16.5714 15.9 16.7185 15.5943 16.9269 15.3321C17.0523 15.1879 17.1552 15.0256 17.2321 14.8506C17.2621 14.7701 17.2996 14.6927 17.3443 14.6193C17.5009 14.3503 17.7298 14.1357 17.8965 13.8739C17.937 13.8092 17.9871 13.7108 18.1021 13.7478ZM23.7581 13.7895C23.7833 13.9383 23.7782 14.0907 23.743 14.2374C23.7078 14.3841 23.6434 14.5223 23.5535 14.6435C23.4904 14.7446 23.4374 14.8542 23.3705 14.9495C23.1688 15.2355 22.99 15.5337 22.81 15.8333C22.6639 16.0764 22.443 16.2722 22.3346 16.5444C22.3119 16.5865 22.2816 16.624 22.2451 16.655C22.2379 16.6654 22.2286 16.6743 22.2178 16.681C22.207 16.6877 22.195 16.6921 22.1824 16.694C22.1699 16.6959 22.157 16.6952 22.1448 16.692C22.1325 16.6888 22.121 16.683 22.111 16.6752C22.015 16.4433 22.0787 16.1959 22.0796 15.9538C22.0751 15.7934 22.114 15.6348 22.1921 15.4947C22.2136 15.4609 22.2265 15.4223 22.2297 15.3823C22.2482 15.1414 22.3501 14.9145 22.5177 14.7405C22.6101 14.6209 22.6823 14.487 22.7312 14.344C22.8159 14.0947 22.9582 13.8689 23.1465 13.6849C23.2238 13.6172 23.291 13.5387 23.3458 13.4517C23.3748 13.4053 23.413 13.3654 23.4582 13.3345C23.5034 13.3037 23.5546 13.2826 23.6084 13.2726C23.6622 13.2626 23.7174 13.2639 23.7707 13.2764C23.824 13.2889 23.874 13.3124 23.9177 13.3454C23.9966 13.4152 24.0959 13.4575 24.2009 13.466C24.2459 13.4317 24.2789 13.384 24.2952 13.3299C24.3116 13.2757 24.3104 13.2177 24.292 13.1643C24.2554 13.0505 24.2001 12.9436 24.1284 12.848C23.9541 12.6384 23.708 12.5755 23.4615 12.4954C23.2517 12.6705 23.006 12.7951 22.8527 13.0298C22.8113 13.0885 22.7633 13.1422 22.7095 13.1899C22.4175 13.4742 22.211 13.8346 22.1134 14.2303C22.0446 14.4834 22.0069 14.7454 21.8602 14.972C21.835 15.013 21.8188 15.059 21.8128 15.1068C21.7498 15.4188 21.7138 15.7357 21.705 16.0539C21.7177 16.2291 21.7106 16.4051 21.684 16.5786C21.6255 16.8865 21.7557 17.0796 22.0049 17.23C22.0532 17.2654 22.1096 17.2881 22.169 17.296C22.2284 17.3038 22.2888 17.2966 22.3446 17.2749C22.4004 17.2532 22.4498 17.2177 22.4883 17.1718C22.5268 17.1259 22.553 17.0711 22.5647 17.0123C22.5773 16.9679 22.5621 16.9148 22.5974 16.8763C22.7428 16.6909 22.8635 16.4875 22.9566 16.2711C23.06 16.0658 23.1783 15.8683 23.3106 15.6802C23.3389 15.642 23.3672 15.6 23.4425 15.6294C23.4845 15.7362 23.4977 15.8522 23.4808 15.9657C23.4753 16.1406 23.4719 16.3157 23.4707 16.4909C23.4722 16.6265 23.5183 16.7578 23.6018 16.8647C23.6988 16.9699 23.8197 17.0502 23.9544 17.0986C23.9652 17.1056 23.9774 17.1103 23.9901 17.1124C24.0028 17.1146 24.0158 17.114 24.0283 17.1109C24.0408 17.1078 24.0526 17.1021 24.0628 17.0943C24.073 17.0864 24.0815 17.0766 24.0878 17.0653C24.0774 16.9391 24.066 16.805 24.0559 16.6707C24.041 16.6001 24.0465 16.5267 24.0716 16.4591C24.1134 16.3635 24.1287 16.2584 24.1158 16.1549C24.1065 15.9796 24.1231 15.8039 24.1649 15.6335C24.1888 15.541 24.2004 15.4458 24.1994 15.3503C24.2018 15.1919 24.2335 15.0353 24.2928 14.8884C24.3365 14.7772 24.3702 14.6623 24.3935 14.5451C24.4176 14.4645 24.4212 14.3791 24.4039 14.2967C24.3866 14.2144 24.3489 14.1376 24.2944 14.0736C24.1404 13.9381 23.9567 13.841 23.7581 13.7895ZM7.81309 15.4997C7.62298 15.399 7.40829 15.3541 7.19376 15.3701C7.08714 15.3728 7.03956 15.4424 7.07015 15.5505C7.11742 15.7356 7.11629 15.9296 7.06689 16.1141C7.04395 16.2146 7.02965 16.3171 7.01337 16.4192C6.98916 16.6478 6.95157 16.8747 6.9008 17.0989C6.84461 17.314 6.80928 17.5342 6.79532 17.7561C6.79041 17.8275 6.78095 17.8984 6.767 17.9685C6.64424 18.5363 6.54796 19.1085 6.47291 19.6845C6.46297 19.7273 6.46388 19.7718 6.47555 19.8142C6.48722 19.8565 6.50929 19.8953 6.53974 19.9269C6.56528 19.9584 6.60224 19.9784 6.64255 19.9827C6.68285 19.987 6.72322 19.9752 6.75482 19.9498C6.76897 19.9444 6.78428 19.9427 6.79928 19.9449C6.96834 19.9416 6.99213 19.9357 7.01705 19.8094C7.09082 19.558 7.11812 19.2952 7.09762 19.034C7.08657 18.955 7.10064 18.8745 7.13783 18.8039C7.16431 18.7646 7.18371 18.7209 7.19518 18.6749C7.22993 18.4232 7.28197 18.1743 7.35093 17.9297C7.40159 17.687 7.50291 17.4577 7.64827 17.2569C7.82897 16.9954 7.99443 16.7237 8.14385 16.4431C8.33064 16.1281 8.55081 15.834 8.80055 15.5661C8.92572 15.4186 9.03164 15.432 9.1476 15.5926C9.16895 15.6329 9.19823 15.6685 9.23368 15.6972C9.26913 15.7259 9.31003 15.7472 9.3539 15.7597C9.37568 15.7521 9.39572 15.7403 9.41281 15.7248C9.42991 15.7093 9.44371 15.6906 9.4534 15.6696C9.46309 15.6487 9.46846 15.6261 9.46919 15.603C9.46993 15.58 9.46602 15.557 9.45769 15.5355C9.4322 15.435 9.40771 15.3343 9.3801 15.2346C9.36903 15.1931 9.34959 15.1543 9.32297 15.1205C9.29635 15.0867 9.26311 15.0588 9.22529 15.0383C9.18748 15.0179 9.14588 15.0054 9.10306 15.0016C9.06024 14.9978 9.01709 15.0028 8.97627 15.0163C8.88105 15.0473 8.79362 15.0984 8.71999 15.1663C8.64636 15.2342 8.58826 15.3171 8.54965 15.4095C8.49635 15.5581 8.39767 15.6861 8.2676 15.7755C8.18766 15.8279 8.12612 15.904 8.0916 15.9932C7.99621 16.1675 7.89176 16.3368 7.77868 16.5002C7.77252 16.5193 7.76181 16.5366 7.74745 16.5507C7.7331 16.5647 7.71555 16.575 7.69631 16.5808C7.67707 16.5865 7.65672 16.5874 7.63703 16.5836C7.61734 16.5797 7.59889 16.571 7.58328 16.5584C7.63256 16.346 7.62647 16.1139 7.77712 15.9255C7.79766 15.9013 7.81306 15.8733 7.82239 15.843C7.83171 15.8127 7.83476 15.7808 7.83135 15.7493C7.82342 15.6696 7.81918 15.5903 7.81309 15.4997ZM5.40785 20.1743C5.64204 20.1641 5.62449 20.159 5.68608 19.9437C5.79298 19.5699 5.67447 19.165 5.85401 18.8043C5.85004 18.4964 5.98342 18.2163 6.05535 17.9265C6.11199 17.6968 6.14951 17.4643 6.20119 17.2344C6.23163 17.1353 6.24546 17.0319 6.24211 16.9284C6.21199 16.6362 6.28226 16.3425 6.44133 16.0955C6.46861 16.0522 6.4851 16.0029 6.48945 15.9519C6.4938 15.9009 6.48587 15.8496 6.46633 15.8022C6.44678 15.7549 6.41619 15.7129 6.37711 15.6798C6.33803 15.6467 6.2916 15.6235 6.24169 15.612C6.12471 15.5877 6.00604 15.5725 5.88672 15.5664C5.72955 15.5585 5.68041 15.6168 5.72261 15.7693C5.76931 15.9305 5.77048 16.1016 5.72601 16.2635C5.69618 16.3537 5.67546 16.4466 5.66413 16.541C5.63597 16.8643 5.57843 17.1844 5.49224 17.4973C5.47785 17.5592 5.46838 17.6221 5.46392 17.6855C5.44136 18.0098 5.39249 18.3319 5.3178 18.6483C5.22837 19.0597 5.16505 19.4763 5.1282 19.8956C5.10286 20.1015 5.19815 20.1836 5.40785 20.1743ZM6.3762 15.1875C6.55008 15.0933 6.53436 14.9451 6.54611 14.8038C6.56112 14.616 6.5178 14.5363 6.35624 14.4836C6.31755 14.4702 6.27653 14.4647 6.23566 14.4675C6.19479 14.4703 6.15491 14.4814 6.11844 14.5C6.08197 14.5187 6.04966 14.5445 6.02346 14.576C5.99726 14.6075 5.97772 14.644 5.96601 14.6833C5.95856 14.7695 5.97659 14.856 6.01788 14.9321C6.05916 15.0082 6.12187 15.0704 6.19822 15.1112C6.25457 15.1377 6.31348 15.1603 6.3762 15.1875Z" fill="#CD1520"/>
<path fill-rule="evenodd" clip-rule="evenodd" d="M10.2861 12.1515C10.6225 12.237 10.9246 12.4235 11.1518 12.6858C11.1865 12.7246 11.2117 12.7708 11.2256 12.821C11.2394 12.8711 11.2414 12.9238 11.2314 12.9748C11.2116 13.0925 11.202 13.2116 11.1865 13.3299C11.1872 13.3617 11.1796 13.3931 11.1644 13.421C10.9737 13.6393 10.9969 13.9085 10.9814 14.1684C10.9853 14.208 10.9844 14.2478 10.9788 14.2871C10.9024 14.5804 10.8738 14.8841 10.8939 15.1865C10.8936 15.2577 10.8995 15.3287 10.9113 15.3989C10.9648 15.7207 10.9682 16.0489 10.9213 16.3718C10.9044 16.4729 10.9106 16.5766 10.9396 16.6749C11.0069 16.8864 11.0565 17.1027 11.0866 17.3226C11.1217 17.6058 11.1989 17.8839 11.261 18.1635C11.2643 18.1902 11.2737 18.2159 11.2884 18.2384C11.3032 18.261 11.3228 18.2799 11.346 18.2938C11.4274 18.2967 11.4428 18.2371 11.4648 18.1877C11.5144 18.0878 11.5577 17.9849 11.5943 17.8796C11.6774 17.6069 11.7916 17.3448 11.8512 17.0636C11.9207 16.8192 12.0169 16.5833 12.1379 16.3599C12.1907 16.2372 12.2254 16.1075 12.2408 15.9748C12.2599 15.7369 12.3195 15.5041 12.4168 15.2863C12.6011 14.9162 12.7371 14.5239 12.8217 14.1192C12.9267 13.6293 13.0853 13.1525 13.2946 12.6973C13.36 12.5439 13.4106 12.3846 13.4457 12.2215C13.4705 12.1293 13.5058 12.0402 13.5509 11.9559C13.6461 11.7901 13.7102 11.6083 13.74 11.4194C13.7481 11.348 13.768 11.2784 13.7991 11.2135C13.8163 11.1787 13.8394 11.1317 13.8288 11.1003C13.7947 10.9795 13.8083 10.8503 13.8669 10.7394C13.8768 10.715 13.8506 10.679 13.8811 10.6383C13.9714 10.5929 14.0971 10.6949 14.1682 10.5675C14.3586 10.7515 14.5267 10.9088 14.6887 11.0722C14.8139 11.2083 14.8904 11.3821 14.906 11.5664C14.915 11.6014 14.9102 11.6384 14.8927 11.67C14.8753 11.7016 14.8464 11.7253 14.812 11.7363C14.4784 11.8759 14.3054 12.1558 14.1713 12.4686C14.0749 12.6935 14.0149 12.9359 13.8347 13.1181C13.8228 13.1341 13.8145 13.1526 13.8104 13.1721C13.8064 13.1917 13.8067 13.212 13.8114 13.2314C13.8126 13.2595 13.8076 13.2876 13.7967 13.3135C13.7858 13.3395 13.7692 13.3627 13.7482 13.3815C13.5399 13.59 13.4832 13.8771 13.3574 14.1287C13.3329 14.1777 13.3397 14.2489 13.3058 14.2854C13.0475 14.5628 13.0639 14.9509 12.9042 15.2698C12.8258 15.4264 12.8269 15.6237 12.7711 15.7986C12.7471 15.8911 12.7078 15.9789 12.655 16.0584C12.5186 16.2731 12.4151 16.5069 12.3479 16.7522C12.2701 17.0347 12.1686 17.3101 12.0443 17.5755C12.0021 17.6525 11.9734 17.7362 11.9593 17.823C11.9046 18.0551 11.8362 18.2838 11.7546 18.5078C11.6586 18.7499 11.5933 19.003 11.5602 19.2613C11.55 19.468 11.5006 19.6923 11.2433 19.7867C11.1166 19.7512 11.0017 19.6824 10.9104 19.5875C10.8273 19.5125 10.7768 19.408 10.77 19.2962C10.7579 19.0738 10.6921 18.8589 10.675 18.6349C10.6574 18.4048 10.6441 18.175 10.6369 17.9447C10.6442 17.7456 10.6326 17.5462 10.6023 17.3492C10.5984 17.2383 10.6037 17.1272 10.6182 17.0172C10.5931 16.6132 10.5615 16.2101 10.5354 15.8057C10.4788 15.2873 10.3912 14.7727 10.2731 14.2647C10.26 14.1943 10.2589 14.1222 10.2699 14.0514C10.3162 13.6796 10.2912 13.3024 10.1961 12.94C10.1575 12.8092 10.1456 12.6719 10.1611 12.5364C10.1765 12.4008 10.2191 12.2702 10.2861 12.1515Z" fill="#CD1520"/>
<path fill-rule="evenodd" clip-rule="evenodd" d="M26.5883 11.2528C26.9496 11.2645 27.311 11.2319 27.6644 11.1556C27.9452 11.1039 28.2267 11.0484 28.5104 11.0234C28.7555 10.9951 28.9988 10.9531 29.2392 10.8976C29.4727 10.8469 29.7114 10.8241 29.9503 10.8295C30.221 10.8432 30.4924 10.8269 30.7595 10.7811C31.0557 10.7262 31.3614 10.7368 31.6541 10.6414C31.7685 10.6232 31.8849 10.6214 31.9998 10.6361C31.9674 10.6746 31.9262 10.7047 31.8797 10.724C31.8332 10.7432 31.7828 10.7511 31.7327 10.7469C31.6047 10.7508 31.4791 10.7825 31.3645 10.8396C31.1982 10.9161 31.0218 10.9685 30.8406 10.9953C30.7203 10.9986 30.6032 11.0356 30.5029 11.1023C30.4837 11.1169 30.4617 11.1274 30.4383 11.1332C30.4149 11.139 30.3905 11.1399 30.3667 11.1359C30.1913 11.1342 30.0169 11.1615 29.8503 11.2165C29.7382 11.2568 29.6172 11.2653 29.5006 11.241C29.449 11.2303 29.3953 11.2354 29.3466 11.2556C29.2979 11.2758 29.2564 11.3102 29.2275 11.3543C29.1887 11.4097 29.1328 11.4507 29.0683 11.471C29.0039 11.4913 28.9345 11.4898 28.8711 11.4666C28.8164 11.4529 28.7589 11.4557 28.7058 11.4746C28.5743 11.5086 28.4384 11.5227 28.3027 11.5164C27.984 11.5174 27.6668 11.5605 27.3593 11.6446C27.2135 11.6869 27.0624 11.7085 26.9106 11.7086C26.8547 11.7064 26.7988 11.7082 26.7432 11.7139C26.3292 11.7718 26.3502 11.7238 26.2575 12.1018C26.2231 12.3133 26.1512 12.5169 26.0452 12.7031C26.0199 12.7445 26.0099 12.7933 26.0168 12.8413C26.018 13.08 25.9889 13.3179 25.9303 13.5493C25.9275 13.6697 25.8849 13.7858 25.8091 13.8795C25.7934 13.8977 25.7822 13.9195 25.7766 13.9429C25.771 13.9664 25.771 13.9908 25.7768 14.0142C25.8097 14.3058 25.7167 14.5825 25.6762 14.8648C25.604 15.2232 25.5656 15.5876 25.5615 15.9532C25.5711 16.1711 25.4982 16.378 25.4895 16.5927C25.4737 16.7272 25.4794 16.8633 25.5064 16.9961C25.5388 17.1686 25.5352 17.3459 25.4959 17.517C25.4779 17.6709 25.3902 17.7217 25.2411 17.6622C24.955 17.549 24.6874 17.4094 24.6206 17.0496C24.6662 16.9614 24.7921 16.9207 24.8171 16.8031C24.8388 16.702 24.8648 16.6016 24.8891 16.501C24.9692 16.1684 24.9995 15.8276 25.0551 15.4912C25.1005 15.2169 25.1234 14.939 25.1911 14.6676C25.2657 14.3672 25.2612 14.0523 25.3327 13.7493C25.4299 13.3387 25.4672 12.9179 25.5228 12.5008C25.5372 12.3031 25.5387 12.1048 25.5272 11.9069C25.5118 11.8885 25.4914 11.8751 25.4684 11.8683C25.4454 11.8615 25.421 11.8616 25.3981 11.8687C24.9065 11.9678 24.4108 12.0424 23.9146 12.1138C23.8682 12.1248 23.8207 12.1305 23.773 12.1309C23.6938 12.1218 23.6136 12.1302 23.5381 12.1556C23.4625 12.181 23.3935 12.2228 23.3359 12.2779C23.2763 12.3323 23.2013 12.3668 23.1212 12.3766C23.0411 12.3865 22.9599 12.3711 22.8889 12.3327C22.7945 12.2902 22.7017 12.2435 22.6093 12.1966C22.5521 12.1701 22.5014 12.1315 22.4607 12.0835C22.4199 12.0355 22.39 11.9792 22.3731 11.9185C22.4345 11.7219 22.5678 11.6848 22.7571 11.6732C23.1291 11.6505 23.5012 11.6137 23.8726 11.5729C24.2134 11.5355 24.545 11.4637 24.8801 11.403C25.0519 11.3718 25.2283 11.3669 25.4026 11.35C25.5895 11.3321 25.6102 11.3121 25.6433 11.1248C25.6538 11.0296 25.6791 10.9366 25.7181 10.8492C25.8176 10.6487 25.8708 10.4284 25.8738 10.2046C25.8803 10.047 25.9187 10.0109 26.0721 10.0012C26.1762 9.99006 26.2809 10.016 26.3678 10.0744C26.5082 10.1669 26.6254 10.2904 26.7105 10.4353C26.7673 10.5136 26.7939 10.6097 26.7854 10.706C26.7768 10.8023 26.7337 10.8923 26.6639 10.9592C26.6003 11.0404 26.5215 11.114 26.5883 11.2528Z" fill="#CD1520"/>
<path d="M27.6486 12.559C27.6474 12.5478 27.6461 12.5371 27.6461 12.5278C27.4632 12.3156 27.228 12.2976 26.9839 12.3119C26.9045 12.3161 26.8371 12.3447 26.8432 12.4366C26.8384 12.6904 26.8147 12.9436 26.7724 13.1939C26.7593 13.3563 26.7409 13.5182 26.7226 13.6801C26.6954 13.9187 26.6684 14.1572 26.6584 14.3974C26.655 14.4293 26.644 14.4598 26.6263 14.4865C26.5521 14.6452 26.4997 14.8131 26.4705 14.9859C26.4198 15.1626 26.3876 15.3431 26.3555 15.5237C26.3193 15.7271 26.283 15.9306 26.2202 16.129C26.1888 16.2117 26.1775 16.3008 26.1872 16.3888C26.1968 16.4768 26.2271 16.5612 26.2757 16.6353C26.3879 16.8012 26.5467 16.9302 26.7322 17.0058C26.8185 17.0394 26.9136 17.0432 27.0023 17.0165C27.091 16.9898 27.1682 16.9342 27.2217 16.8586C27.2622 16.8092 27.2966 16.7551 27.3243 16.6974C27.4624 16.4178 27.6523 16.167 27.884 15.9582C28.0208 15.816 28.1161 15.6474 28.2112 15.479C28.2993 15.323 28.3873 15.1672 28.508 15.033C28.5211 15.0185 28.5249 14.9955 28.5287 14.9726C28.5296 14.9669 28.5306 14.9609 28.5317 14.9554C28.5326 14.951 28.5335 14.9466 28.5346 14.9424C28.5955 14.7167 28.7622 14.5729 28.9284 14.4296L28.9533 14.408C28.9615 14.4012 28.9788 14.4047 28.9963 14.4082L29.0097 14.4108C29.0131 14.4114 29.0165 14.4119 29.0196 14.4121C29.0389 14.5235 29.0371 14.6376 29.0141 14.7483C29.0099 14.8095 29.006 14.8708 29.0021 14.932C28.9859 15.1875 28.9697 15.4431 28.9338 15.696C28.9071 15.8847 28.8914 16.0717 28.8756 16.2599L28.8694 16.3343C28.8443 16.6279 29.1948 16.991 29.4032 17.0696C29.5734 17.1336 29.6934 17.0659 29.6661 16.8938C29.6471 16.7739 29.648 16.6544 29.6489 16.5351C29.6496 16.4412 29.6503 16.3475 29.6413 16.2536C29.607 16.0486 29.6061 15.8394 29.6388 15.6342C29.7239 15.3107 29.7677 14.9776 29.7693 14.6431C29.7685 14.6205 29.7725 14.598 29.7765 14.5753C29.7795 14.5586 29.7825 14.5418 29.7835 14.525C29.7961 14.3119 29.8566 14.11 29.9173 13.908C29.9617 13.7597 30.0063 13.6113 30.0319 13.4584C30.076 13.1987 30.1632 12.9482 30.29 12.7173C30.3962 12.522 30.3674 12.4036 30.1645 12.3066C29.9993 12.2103 29.8113 12.1599 29.62 12.1608C29.606 12.1619 29.5927 12.1714 29.5781 12.1818C29.5708 12.187 29.5633 12.1923 29.5551 12.1971L29.5497 12.2426L29.5462 12.2725C29.5445 12.2864 29.5428 12.3003 29.541 12.3142C29.5156 12.5933 29.404 12.8575 29.2215 13.0703C29.0307 13.2744 28.8721 13.5064 28.751 13.7583C28.6116 14.0436 28.4449 14.3149 28.2533 14.5682C28.0384 14.8699 27.8131 15.1694 27.5765 15.4574C27.504 15.5454 27.4381 15.6387 27.3722 15.732C27.2727 15.8728 27.173 16.0139 27.0505 16.137C27.0452 16.1423 27.04 16.1476 27.0349 16.153C26.9959 16.1934 26.958 16.2328 26.8905 16.2078C26.8377 16.0668 26.8283 15.9132 26.8636 15.7668C26.8933 15.635 26.9154 15.5017 26.9298 15.3675C26.9654 15.0182 27.0587 14.6774 27.2061 14.3588C27.2689 14.2125 27.3096 14.0576 27.3267 13.8993C27.3453 13.6696 27.3965 13.4438 27.4788 13.2286C27.5128 13.1424 27.5309 13.0516 27.5491 12.9606C27.5712 12.8502 27.5933 12.7396 27.6439 12.6367C27.6549 12.6145 27.6516 12.5852 27.6486 12.559Z" fill="#CD1520"/>
<path d="M20.2498 16.5818C20.3081 16.5104 20.367 16.439 20.4231 16.365C20.4752 16.3892 20.5191 16.4282 20.5493 16.4771C20.5795 16.5261 20.5947 16.5828 20.593 16.6402C20.5921 16.6958 20.5983 16.7513 20.6115 16.8053C20.7432 17.0958 20.9231 17.3619 21.1436 17.5923C21.2109 17.6638 21.2767 17.656 21.3535 17.5923C21.3861 17.5688 21.4104 17.5356 21.4228 17.4974C21.4353 17.4593 21.4353 17.4181 21.4229 17.3799C21.4006 17.2923 21.3795 17.2038 21.3592 17.1156C21.3438 17.0491 21.3292 16.9828 21.313 16.9165C21.2604 16.776 21.226 16.6294 21.2106 16.4802C21.198 16.3136 21.2227 16.1462 21.283 15.9903C21.3212 15.8853 21.3397 15.7741 21.3375 15.6624C21.3515 15.4639 21.3822 15.267 21.4292 15.0737C21.4664 14.9353 21.4819 14.792 21.4752 14.6489C21.4638 14.4491 21.4939 14.2491 21.5637 14.0615C21.6297 13.8929 21.6645 13.7165 21.6999 13.5403C21.724 13.4205 21.7488 13.3011 21.7825 13.1837C21.792 13.1575 21.7962 13.1297 21.7948 13.1018C21.7935 13.074 21.7867 13.0467 21.7747 13.0215C21.7213 12.9272 21.6382 12.8531 21.5383 12.8109C21.4384 12.7687 21.3274 12.7607 21.2225 12.7882C21.2032 12.7937 21.1857 12.8039 21.1714 12.818C21.1572 12.8321 21.1468 12.8496 21.1411 12.8688C21.1288 12.9152 21.1113 12.9602 21.0946 13.0057C21.0539 13.1158 21.0137 13.2267 21.0362 13.3533C21.0432 13.4326 21.0378 13.5125 21.02 13.59C20.9802 13.7669 20.9527 13.9463 20.9378 14.127C20.9391 14.3016 20.9208 14.4759 20.8831 14.6465C20.8743 14.6842 20.8652 14.7219 20.8569 14.7597C20.8039 15 20.7519 15.2391 20.5822 15.4394C20.4423 15.6031 20.3353 15.7922 20.267 15.9964C20.2559 16.0264 20.2403 16.0545 20.2209 16.0798C20.0937 16.2729 19.9796 16.4742 19.8794 16.6824C19.8096 16.8129 19.7315 16.9388 19.654 17.0652C19.6317 17.1016 19.61 17.1384 19.5878 17.1749C19.5545 17.2301 19.5189 17.2855 19.4234 17.2647C19.3992 17.1846 19.3896 17.1009 19.3951 17.0174C19.4119 16.8752 19.4213 16.7321 19.4234 16.5888C19.4259 16.445 19.4599 16.3035 19.5232 16.1744C19.5546 16.1189 19.581 16.0609 19.6023 16.0008C19.6632 15.7781 19.7134 15.5526 19.7644 15.3274C19.8307 15.0347 19.8977 14.7423 19.9857 14.455C19.9995 14.3846 20.0042 14.3126 19.9998 14.2409C19.9979 14.0896 20.0272 13.9395 20.0859 13.8C20.1079 13.7579 20.1185 13.7108 20.1167 13.6634C20.1188 13.5778 20.1035 13.4926 20.0719 13.4131C20.0403 13.3335 19.9929 13.2611 19.9327 13.2003C19.8724 13.1395 19.8005 13.0915 19.7212 13.0591C19.6419 13.0268 19.5569 13.0108 19.4713 13.0121C19.4266 13.0679 19.3937 13.1322 19.3748 13.2012C19.3559 13.2701 19.3512 13.3422 19.3611 13.413C19.3689 13.4925 19.363 13.5726 19.3438 13.6501C19.323 13.7662 19.31 13.8827 19.2976 13.9998C19.2809 14.1569 19.2649 14.3148 19.2279 14.4713C19.1687 14.7212 19.119 14.9733 19.0701 15.2258C19.0213 15.4779 18.973 15.7307 18.9138 15.9807C18.828 16.3376 18.828 16.7098 18.9138 17.0667C18.9467 17.201 19.009 17.3263 19.096 17.4336C19.1831 17.541 19.2928 17.6278 19.4173 17.6877C19.4379 17.6792 19.4578 17.6709 19.4781 17.663C19.607 17.6128 19.725 17.5675 19.7628 17.4109C19.8417 17.0838 20.0436 16.8349 20.2498 16.5818Z" fill="#CD1520"/>
<path d="M15.1072 13.3709C15.1342 13.3791 15.1608 13.3842 15.1858 13.3894C15.2355 13.3998 15.2788 13.4089 15.3063 13.4347C15.534 13.6481 15.7465 13.8763 15.7986 14.2023C15.826 14.3735 15.7223 14.4501 15.5541 14.399C15.4793 14.3712 15.4116 14.3273 15.3559 14.2702C15.2484 14.1761 15.1989 14.1755 15.0853 14.2576C15.072 14.2666 15.0598 14.2769 15.0488 14.2885C14.9747 14.372 14.8969 14.4519 14.819 14.5319C14.6532 14.702 14.4874 14.8723 14.3575 15.0779C14.2431 15.2874 14.1068 15.4843 13.9509 15.6651C13.8996 15.7263 13.8611 15.7972 13.8376 15.8735C13.6894 16.2755 13.5762 16.6896 13.4993 17.1112C13.4672 17.3156 13.4101 17.5153 13.3294 17.7059C13.2619 17.8766 13.223 18.0573 13.2143 18.2406C13.2129 18.2538 13.2216 18.268 13.2309 18.2831L13.2371 18.2936C13.2394 18.2974 13.2415 18.3014 13.2435 18.3054C13.3501 18.3054 13.4083 18.2363 13.466 18.1679L13.4768 18.1551C13.6723 17.9251 13.8674 17.6947 14.062 17.4639C14.0785 17.4465 14.0923 17.4268 14.1029 17.4054C14.2178 17.1875 14.3457 16.9768 14.4861 16.7745C14.5853 16.6028 14.6956 16.4378 14.8163 16.2806C15.0478 15.976 15.2195 15.6303 15.3223 15.2618C15.3534 15.156 15.3983 15.0549 15.456 14.9609C15.6192 15.0261 15.6769 15.0884 15.6231 15.1915C15.5148 15.3994 15.484 15.6232 15.4533 15.8467C15.4408 15.9376 15.4284 16.0285 15.4107 16.1182C15.328 16.539 15.2718 16.9639 15.2299 17.3925C15.2061 17.6519 15.2122 17.9132 15.248 18.1713C15.2842 18.3495 15.2787 18.5336 15.2318 18.7093C14.882 18.7365 14.8088 18.6759 14.6929 18.374C14.6515 18.271 14.6309 18.1608 14.6325 18.0498C14.634 17.9388 14.6577 17.8292 14.702 17.7274C14.768 17.5066 14.8193 17.2818 14.8555 17.0542C14.8649 17.0318 14.8666 17.0068 14.8603 16.9833C14.854 16.9598 14.84 16.9391 14.8205 16.9244C14.7548 16.9044 14.7189 16.9454 14.6833 16.9911C14.5809 17.1407 14.4644 17.2802 14.3354 17.4077C14.312 17.4235 14.2943 17.4466 14.285 17.4733C14.2756 17.5 14.2752 17.529 14.2836 17.556C14.3006 17.6011 14.3025 17.6504 14.289 17.6966C14.2755 17.7428 14.2473 17.7833 14.2087 17.812C14.1311 17.893 14.0781 17.9944 14.0558 18.1043C13.9732 18.3716 13.8339 18.6179 13.6474 18.8264C13.4294 19.0871 13.0706 19.1702 12.8292 19.0221C12.6975 18.932 12.5921 18.8084 12.5239 18.6642C12.4503 18.529 12.4332 18.3701 12.4763 18.2224C12.5533 17.9546 12.6321 17.6877 12.7118 17.4208C12.799 17.1153 12.921 16.8207 13.0752 16.543C13.1477 16.4154 13.2122 16.2835 13.2767 16.1516C13.3068 16.09 13.337 16.0284 13.3679 15.9672C13.4531 15.7785 13.5554 15.5978 13.6733 15.4276C13.7438 15.3212 13.8008 15.2066 13.8432 15.0862C13.9362 14.8657 14.0754 14.6677 14.2516 14.5057C14.4242 14.3412 14.5755 14.1557 14.702 13.9535C14.7702 13.8465 14.8435 13.7445 14.9182 13.6406C14.9809 13.5533 15.0448 13.4649 15.1072 13.3709Z" fill="#CD1520"/>
<path d="M17.9063 13.8569C17.9451 13.7944 17.9961 13.7137 18.1021 13.7478C18.1457 13.7905 18.1372 13.8383 18.129 13.8875L18.1264 13.9038C18.0737 14.2494 18.0142 14.5939 17.9482 14.9374C17.8781 15.3039 17.819 15.673 17.7748 16.0434C17.7343 16.2052 17.7068 16.3701 17.6927 16.5363C17.6967 16.6797 17.6696 16.8222 17.6134 16.9541C17.5822 17.036 17.5576 17.1202 17.5397 17.2059C17.4972 17.3603 17.4977 17.5233 17.5413 17.6774C17.5848 17.8315 17.6696 17.9708 17.7866 18.0801C17.8461 18.1381 17.9078 18.1878 17.9971 18.1454C18.0346 18.1309 18.0666 18.1048 18.0883 18.071C18.11 18.0372 18.1204 17.9973 18.1181 17.9572C18.1173 17.933 18.1173 17.9087 18.1174 17.8844C18.1175 17.845 18.1176 17.8055 18.114 17.7665C18.1043 17.7108 18.1155 17.6535 18.1454 17.6055C18.2237 17.4835 18.253 17.3364 18.2274 17.1937C18.2027 16.8935 18.2133 16.5915 18.259 16.2938C18.2952 16.088 18.3222 15.881 18.3491 15.6739C18.3714 15.5027 18.3937 15.3315 18.4212 15.161C18.4425 15.0293 18.4741 14.8998 18.5056 14.7705C18.5397 14.6308 18.5737 14.4913 18.5948 14.349C18.612 14.1503 18.6581 13.9553 18.7317 13.77C18.7508 13.73 18.7599 13.6859 18.7581 13.6417C18.7563 13.5974 18.7438 13.5542 18.7215 13.5158C18.6466 13.4293 18.5521 13.3618 18.4459 13.3191C18.3396 13.2763 18.2247 13.2596 18.1107 13.2702C18.0951 13.273 18.0801 13.2786 18.0664 13.2866C17.914 13.375 17.7916 13.5069 17.7147 13.6654C17.6585 13.815 17.5551 13.9423 17.4202 14.028C17.3448 14.083 17.2845 14.156 17.2447 14.2404C17.154 14.4265 17.0439 14.6026 16.9162 14.7657C16.8848 14.8031 16.8532 14.8395 16.802 14.8223C16.7858 14.8167 16.7721 14.8056 16.7633 14.7909C16.7544 14.7763 16.751 14.759 16.7535 14.742C16.7794 14.546 16.8367 14.3555 16.9235 14.1778C17.0527 13.967 17.0386 13.6615 16.6846 13.646C16.589 13.645 16.4936 13.6358 16.3996 13.6186C16.2891 13.5944 16.2359 13.643 16.1971 13.7407C16.2602 13.8859 16.2801 14.0463 16.2544 14.2026C16.2442 14.2918 16.225 14.3791 16.2058 14.4662C16.1873 14.55 16.1689 14.6337 16.1586 14.7188C16.1308 14.9482 16.0874 15.175 16.0439 15.4019C15.9917 15.6741 15.9395 15.9466 15.9145 16.2235C15.8991 16.393 15.8613 16.5588 15.8233 16.7248C15.7906 16.8682 15.7578 17.0117 15.7395 17.158C15.7287 17.2433 15.7175 17.3285 15.7062 17.4137C15.6832 17.5885 15.6601 17.7636 15.6416 17.9391C15.6207 18.1391 15.6818 18.2174 15.8842 18.2197C15.9117 18.2201 15.9392 18.2185 15.9667 18.217C15.987 18.2158 16.0073 18.2147 16.0276 18.2143C16.0456 18.2158 16.0637 18.2136 16.0808 18.2079C16.098 18.2023 16.1138 18.1932 16.1274 18.1814C16.141 18.1695 16.1521 18.155 16.1601 18.1388C16.168 18.1226 16.1726 18.1049 16.1736 18.0869C16.1828 18.0278 16.1935 17.9689 16.2043 17.9099C16.2278 17.781 16.2512 17.6522 16.2585 17.5224C16.2615 17.4688 16.2614 17.4149 16.2612 17.3611C16.2606 17.1943 16.2601 17.0284 16.3545 16.875C16.3635 16.8527 16.368 16.8289 16.3678 16.8049C16.3841 16.6813 16.4146 16.5609 16.4451 16.4408C16.4633 16.369 16.4815 16.2973 16.4966 16.2251C16.5714 15.8986 16.7185 15.5929 16.9269 15.3306C17.0523 15.1865 17.1552 15.0242 17.2321 14.8492C17.2621 14.7687 17.2996 14.6912 17.3443 14.6179C17.4283 14.4734 17.5332 14.3447 17.6382 14.2159C17.7287 14.1049 17.8193 13.9938 17.8965 13.8725L17.9063 13.8569Z" fill="#CD1520"/>
<path d="M23.7581 13.7895C23.9573 13.8407 24.1421 13.9376 24.2966 14.0733C24.3512 14.1374 24.3889 14.2141 24.4062 14.2964C24.4235 14.3788 24.4199 14.4642 24.3957 14.5448C24.3725 14.662 24.3388 14.7769 24.2951 14.8882C24.2357 15.0351 24.204 15.1916 24.2016 15.35C24.2027 15.4455 24.1911 15.5408 24.1672 15.6332C24.1253 15.8037 24.1088 15.9793 24.1181 16.1546C24.1309 16.2581 24.1157 16.3632 24.0739 16.4589C24.0488 16.5265 24.0433 16.5998 24.0582 16.6704C24.0666 16.7808 24.0757 16.8915 24.0844 16.9972L24.09 17.065C24.0838 17.0763 24.0753 17.0862 24.0651 17.094C24.0548 17.1019 24.0431 17.1075 24.0306 17.1106C24.0181 17.1138 24.0051 17.1143 23.9923 17.1121C23.9796 17.11 23.9675 17.1053 23.9567 17.0983C23.822 17.0499 23.701 16.9697 23.6041 16.8644C23.5206 16.7575 23.4745 16.6262 23.473 16.4906C23.4741 16.3155 23.4775 16.1404 23.483 15.9654C23.5 15.8519 23.4868 15.7359 23.4448 15.6291C23.3711 15.6004 23.342 15.6401 23.3145 15.6777L23.3128 15.68C23.1806 15.868 23.0623 16.0655 22.9589 16.2708C22.8658 16.4872 22.745 16.6906 22.5996 16.876C22.5769 16.901 22.5751 16.932 22.5733 16.9627C22.5723 16.9796 22.5713 16.9964 22.5669 17.0121C22.5553 17.0708 22.5291 17.1257 22.4906 17.1716C22.4521 17.2175 22.4027 17.253 22.3469 17.2747C22.2911 17.2964 22.2306 17.3036 22.1713 17.2958C22.1119 17.2879 22.0555 17.2652 22.0072 17.2297C21.758 17.0793 21.6277 16.8862 21.6862 16.5784C21.7129 16.4048 21.72 16.2288 21.7073 16.0536C21.716 15.7354 21.7521 15.4185 21.8151 15.1065C21.8211 15.0587 21.8372 15.0127 21.8625 14.9717C21.9764 14.7958 22.0244 14.5984 22.0725 14.4006C22.0864 14.3436 22.1002 14.2866 22.1157 14.23C22.2132 13.8343 22.4197 13.4739 22.7118 13.1896C22.7655 13.142 22.8136 13.0882 22.8549 13.0295C22.9619 12.8654 23.1142 12.7551 23.268 12.6438C23.3341 12.5959 23.4006 12.5478 23.4638 12.4951L23.5316 12.5169C23.7549 12.588 23.9724 12.6573 24.1307 12.8477C24.2024 12.9433 24.2577 13.0502 24.2942 13.164C24.3127 13.2175 24.3139 13.2754 24.2975 13.3296C24.2812 13.3838 24.2482 13.4314 24.2032 13.4657C24.0982 13.4572 23.9988 13.4149 23.92 13.3451C23.8763 13.3121 23.8262 13.2887 23.773 13.2761C23.7197 13.2636 23.6644 13.2623 23.6106 13.2723C23.5568 13.2823 23.5057 13.3034 23.4605 13.3342C23.4153 13.3651 23.377 13.405 23.3481 13.4514C23.2926 13.5388 23.2247 13.6172 23.1465 13.6849C22.9582 13.8689 22.8159 14.0947 22.7312 14.344C22.6823 14.487 22.6101 14.6209 22.5177 14.7405C22.3501 14.9145 22.2482 15.1414 22.2297 15.3823C22.2265 15.4223 22.2136 15.4609 22.1921 15.4947C22.114 15.6348 22.0751 15.7934 22.0796 15.9538C22.0793 16.0222 22.0734 16.0915 22.0681 16.1603C22.0547 16.3349 22.0421 16.5088 22.111 16.6752C22.121 16.683 22.1325 16.6888 22.1448 16.692C22.157 16.6952 22.1699 16.6959 22.1824 16.694C22.195 16.6921 22.207 16.6877 22.2178 16.681C22.2286 16.6743 22.2379 16.6654 22.2451 16.655C22.2816 16.624 22.3119 16.5865 22.3346 16.5444C22.4003 16.3796 22.5067 16.243 22.6133 16.1066C22.6826 16.0179 22.7525 15.929 22.81 15.8333L22.822 15.8126C22.9979 15.5202 23.1736 15.2288 23.3705 14.9495C23.4106 14.8924 23.445 14.8307 23.4802 14.7683C23.5038 14.7265 23.5283 14.6841 23.5535 14.6435C23.6434 14.5223 23.7078 14.3841 23.743 14.2374C23.7782 14.0907 23.7833 13.9383 23.7581 13.7895Z" fill="#CD1520"/>
<path d="M7.81809 15.5769L7.81309 15.4997C7.62274 15.3985 7.4076 15.3529 7.19262 15.3689C7.086 15.3716 7.03843 15.4412 7.06901 15.5493C7.11627 15.7343 7.11515 15.9283 7.06575 16.1128C7.04709 16.1946 7.03414 16.2777 7.0212 16.3608L7.01223 16.4179C6.98803 16.6465 6.95044 16.8734 6.89966 17.0976C6.84347 17.3128 6.80814 17.5329 6.79418 17.7549C6.78927 17.8262 6.77981 17.8971 6.76586 17.9672C6.6431 18.535 6.54682 19.1072 6.47177 19.6832C6.46183 19.726 6.46274 19.7706 6.47441 19.8129C6.48608 19.8552 6.50815 19.894 6.5386 19.9256C6.56414 19.9571 6.60111 19.9772 6.64141 19.9815C6.68171 19.9858 6.72208 19.9739 6.75368 19.9486C6.76783 19.9431 6.78314 19.9414 6.79814 19.9436C6.96735 19.9403 6.99113 19.9344 7.01591 19.8081C7.08968 19.5567 7.11698 19.2939 7.09648 19.0327C7.08545 18.9537 7.09951 18.8732 7.13669 18.8026C7.16317 18.7633 7.18258 18.7197 7.19404 18.6737C7.22879 18.422 7.28083 18.173 7.34979 17.9285C7.40045 17.6857 7.50177 17.4565 7.64713 17.2556C7.82783 16.9941 7.99329 16.7224 8.14271 16.4419C8.3295 16.1268 8.54967 15.8328 8.79942 15.5648C8.92459 15.4173 9.0305 15.4308 9.14646 15.5913C9.1678 15.6316 9.19708 15.6672 9.23254 15.6959C9.26799 15.7247 9.30888 15.7459 9.35276 15.7584C9.37456 15.7508 9.39461 15.739 9.41172 15.7235C9.42882 15.708 9.44263 15.6893 9.45232 15.6683C9.46201 15.6474 9.46738 15.6247 9.4681 15.6016C9.46883 15.5786 9.4649 15.5556 9.45655 15.5341L9.43743 15.4582C9.41854 15.3829 9.39962 15.3074 9.37896 15.2332C9.36789 15.1917 9.34845 15.1528 9.32183 15.1191C9.29521 15.0853 9.26197 15.0574 9.22416 15.0369C9.18634 15.0165 9.14474 15.004 9.10192 15.0002C9.0591 14.9964 9.01595 15.0014 8.97513 15.0149C8.87991 15.0459 8.79249 15.097 8.71886 15.1649C8.64524 15.2327 8.58713 15.3157 8.54851 15.4081C8.4952 15.5567 8.39653 15.6847 8.26646 15.7741C8.18653 15.8265 8.12498 15.9026 8.09046 15.9917C7.99506 16.1661 7.89062 16.3353 7.77754 16.4988C7.77138 16.5179 7.76067 16.5352 7.74632 16.5493C7.73196 16.5633 7.71441 16.5736 7.69517 16.5793C7.67593 16.5851 7.65558 16.586 7.63589 16.5821C7.6162 16.5782 7.59775 16.5696 7.58214 16.557C7.59512 16.5011 7.60426 16.4438 7.61343 16.3863C7.63908 16.2254 7.66501 16.0629 7.77598 15.9241C7.79652 15.8999 7.81192 15.8719 7.82125 15.8416C7.83057 15.8113 7.83362 15.7794 7.83021 15.7479C7.82542 15.6924 7.82189 15.6368 7.81809 15.5769Z" fill="#CD1520"/>
<path d="M5.40785 20.1743C5.19815 20.1836 5.10286 20.1015 5.1282 19.8956C5.16505 19.4763 5.22837 19.0597 5.3178 18.6483C5.39249 18.3319 5.44136 18.0098 5.46392 17.6855C5.46838 17.6221 5.47785 17.5592 5.49224 17.4973C5.57843 17.1844 5.63597 16.8643 5.66413 16.541C5.67546 16.4466 5.69618 16.3537 5.72601 16.2635C5.77048 16.1016 5.76931 15.9305 5.72261 15.7693C5.68041 15.6168 5.72955 15.5585 5.88672 15.5664C6.00604 15.5725 6.12471 15.5877 6.24169 15.612C6.2916 15.6235 6.33803 15.6467 6.37711 15.6798C6.41619 15.7129 6.44678 15.7549 6.46633 15.8022C6.48587 15.8496 6.4938 15.9009 6.48945 15.9519C6.4851 16.0029 6.46861 16.0522 6.44133 16.0955C6.28226 16.3425 6.21199 16.6362 6.24211 16.9284C6.24546 17.0319 6.23163 17.1353 6.20119 17.2344C6.17918 17.3323 6.15977 17.4307 6.14034 17.5291C6.11415 17.6618 6.08795 17.7946 6.05535 17.9265C6.0333 18.0155 6.00543 18.1037 5.97752 18.192C5.91457 18.3911 5.85136 18.5911 5.85401 18.8043C5.75174 19.0099 5.74613 19.2297 5.74051 19.4499C5.73627 19.6162 5.73202 19.7828 5.68608 19.9437L5.67328 19.9891C5.6257 20.1592 5.62428 20.1647 5.40785 20.1743Z" fill="#CD1520"/>
<path d="M6.31535 15.1616C6.33526 15.1699 6.35551 15.1787 6.3762 15.1875C6.5284 15.1051 6.53534 14.9808 6.5423 14.8564C6.54329 14.8387 6.5447 14.8214 6.54611 14.8038C6.56112 14.616 6.5178 14.5363 6.35624 14.4836C6.31755 14.4702 6.27653 14.4647 6.23566 14.4675C6.19479 14.4703 6.15491 14.4814 6.11844 14.5C6.08197 14.5187 6.04966 14.5445 6.02346 14.576C5.99726 14.6075 5.97772 14.644 5.96601 14.6833C5.95856 14.7695 5.97659 14.856 6.01788 14.9321C6.05916 15.0082 6.12187 15.0704 6.19822 15.1112C6.23636 15.1292 6.27492 15.1449 6.31535 15.1616Z" fill="#CD1520"/>
<path fill-rule="evenodd" clip-rule="evenodd" d="M4.45805 19.8836C4.41256 19.8971 4.36479 19.9012 4.31766 19.8956C4.27054 19.8901 4.22503 19.875 4.18392 19.8513C3.97568 19.7345 3.78293 19.592 3.61019 19.4272C3.57547 19.4001 3.54783 19.365 3.52963 19.3249C3.51143 19.2847 3.50322 19.2408 3.50569 19.1968C3.53868 19.0109 3.52254 18.8134 3.62463 18.6429C3.71035 18.498 3.75225 18.3313 3.74527 18.1631C3.74229 18.0277 3.75657 17.8925 3.78774 17.7608C3.84321 17.4718 3.85585 17.1763 3.82527 16.8836C3.7881 16.8657 3.74598 16.8607 3.70566 16.8696C3.66535 16.8784 3.62918 16.9006 3.60297 16.9325C3.45024 17.0456 3.27667 17.1274 3.09224 17.1732C2.82989 17.2566 2.57487 17.3615 2.32976 17.4868C2.23648 17.5346 2.15697 17.6055 2.09878 17.6927C2.04059 17.7798 2.00566 17.8805 1.9973 17.9849C1.89639 18.4669 1.7447 18.9368 1.54477 19.3869C1.47199 19.5531 1.42951 19.7325 1.3733 19.9061C1.36771 19.9373 1.35819 19.9677 1.34498 19.9966C1.19654 20.2503 1.09828 20.5302 1.05557 20.821C1.04778 20.8596 1.02966 20.896 1.01804 20.9343C0.993691 21.0136 1.11348 21.0881 1.04311 21.1563C0.994685 21.2099 0.969259 21.2804 0.97231 21.3526C0.950258 21.37 0.923727 21.3807 0.895804 21.3836C0.86788 21.3865 0.839712 21.3814 0.814576 21.3689C0.584912 21.2158 0.311498 21.1232 0.145551 20.8818C0.0561139 20.7684 0.00490666 20.6296 -0.00071525 20.4853C-0.00517798 20.4466 0.0031258 20.4075 0.022934 20.374C0.0427422 20.3404 0.0729697 20.3142 0.109018 20.2994C0.257327 20.2215 0.387999 20.1138 0.492894 19.9832C0.597789 19.8525 0.674659 19.7017 0.718717 19.5401C0.779468 19.3605 0.862424 19.1893 0.965656 19.0303C1.05585 18.8811 1.10215 18.7047 1.2412 18.5853C1.26866 18.3238 1.43008 18.1127 1.53854 17.8884C1.63482 17.6889 1.69882 17.4843 1.77925 17.2825C1.88063 17.0303 1.93585 16.7675 2.01373 16.5101C2.03175 16.4411 2.05543 16.3737 2.08452 16.3086C2.24439 16.0148 2.37641 15.7067 2.47886 15.3883C2.56849 15.0701 2.72537 14.7712 2.81769 14.4538C2.91681 14.1098 3.02668 13.7704 3.15015 13.4343C3.16888 13.365 3.17882 13.2937 3.17975 13.2219C3.19187 13.0791 3.22311 12.9386 3.27263 12.8042C3.34343 12.615 3.49705 12.5465 3.66144 12.6534C3.74481 12.6999 3.81582 12.7657 3.86852 12.8452C3.92122 12.9248 3.95407 13.0159 3.96431 13.1107C3.99518 13.4027 4.04247 13.6928 4.06597 13.9866C4.0933 14.3284 4.10505 14.6708 4.10576 15.0125C4.10661 15.4497 4.14824 15.883 4.17741 16.318C4.22402 16.8246 4.30558 17.3273 4.42151 17.8227C4.43926 17.9168 4.44369 18.0129 4.43468 18.1083C4.40465 18.4731 4.42773 18.8403 4.50321 19.1985C4.56879 19.4251 4.5528 19.6675 4.45805 19.8836ZM3.38307 14.0165C3.29288 14.0849 3.2312 14.1842 3.2099 14.2953C3.119 14.6167 2.97599 14.9203 2.89953 15.2472C2.86766 15.4026 2.81373 15.5526 2.73939 15.6927C2.6486 15.8243 2.58761 15.9741 2.5607 16.1316C2.54247 16.313 2.50215 16.4915 2.44063 16.6632C2.41303 16.761 2.39958 16.8622 2.4007 16.9638C2.46901 16.9724 2.53834 16.9609 2.60021 16.9306C2.95419 16.7661 3.30605 16.599 3.66017 16.4358C3.70091 16.4193 3.73534 16.3903 3.75846 16.3529C3.78158 16.3155 3.79218 16.2717 3.78874 16.2279C3.78277 16.1086 3.78999 15.989 3.81026 15.8712C3.83105 15.7706 3.8242 15.6662 3.79043 15.5691C3.73371 15.4048 3.692 15.2357 3.66583 15.0639C3.63865 14.7606 3.52424 14.4767 3.49366 14.1751C3.48955 14.1417 3.47732 14.1098 3.45804 14.0821C3.43877 14.0545 3.41303 14.0319 3.38307 14.0165Z" fill="#CD1520"/>
</g>
<defs>
<clipPath id="clip0">
<rect width="32" height="32" fill="white"/>
</clipPath>
</defs>
</svg>
