<svg width="32" height="32" viewBox="0 0 32 32" fill="none" xmlns="http://www.w3.org/2000/svg">
<path d="M30.6431 14.5869H29.2573L28.1864 17.9293H28.1675L27.0614 14.5869H25.6252L27.3449 19.1702C27.3823 19.2662 27.4015 19.3683 27.4016 19.4713C27.4009 19.5696 27.3795 19.6667 27.3386 19.756C27.301 19.8432 27.242 19.9194 27.1672 19.9778C27.0827 20.0404 26.9823 20.078 26.8775 20.0861C26.7455 20.089 26.6134 20.0848 26.4819 20.0735L26.0926 20.0383V21.1444C26.2299 21.1583 26.366 21.1696 26.5033 21.1797C26.6406 21.1897 26.7779 21.1923 26.914 21.1923C27.1793 21.1997 27.4439 21.1618 27.6964 21.0801C27.9041 21.0091 28.0899 20.8854 28.2356 20.7211C28.3937 20.5353 28.5159 20.3217 28.5959 20.0912L30.6431 14.5869Z" fill="#114495"/>
<path fill-rule="evenodd" clip-rule="evenodd" d="M22.7905 15.523C22.6223 15.6637 22.5234 15.8706 22.5197 16.0899L21.1893 16.0823C21.2003 15.8567 21.2556 15.6354 21.3518 15.431C21.4392 15.2518 21.5632 15.093 21.7159 14.9649C21.8688 14.8373 22.0411 14.7348 22.2261 14.6612C22.422 14.5848 22.6256 14.5299 22.8334 14.4975C23.0493 14.4644 23.2675 14.448 23.486 14.4483C23.6855 14.4472 23.8849 14.4577 24.0831 14.4798C24.2795 14.5033 24.4731 14.5455 24.6614 14.6058C24.8386 14.6597 25.0061 14.7414 25.1578 14.8477C25.3028 14.9522 25.4211 15.0894 25.503 15.2483C25.5908 15.434 25.6339 15.6376 25.629 15.843V18.3891C25.629 18.539 25.634 18.6839 25.6466 18.8238C25.656 18.9508 25.6741 19.0771 25.7008 19.2017C25.7185 19.2966 25.7512 19.388 25.7978 19.4726H24.4372C24.4132 19.397 24.3931 19.3201 24.3754 19.2395C24.3583 19.1607 24.3473 19.0807 24.3427 19.0001C24.2028 19.1449 24.0392 19.2646 23.8589 19.3542C23.6801 19.443 23.4903 19.5078 23.2945 19.5469C23.0978 19.5858 22.8978 19.6052 22.6973 19.6049C22.4775 19.6064 22.2587 19.5767 22.0472 19.5167C21.8555 19.4628 21.6765 19.3711 21.5206 19.2471C21.3677 19.1259 21.2458 18.97 21.1653 18.7923C21.0772 18.5862 21.0342 18.3637 21.0394 18.1397C21.0324 17.9078 21.0794 17.6775 21.1767 17.4669C21.2638 17.293 21.3939 17.1443 21.5546 17.0348C21.717 16.9217 21.8971 16.8365 22.0876 16.7828C22.2877 16.7253 22.492 16.6832 22.6986 16.6568C22.9069 16.6283 23.1055 16.6031 23.2945 16.5812C23.4642 16.5631 23.6325 16.5341 23.7984 16.4943C23.9272 16.4675 24.048 16.411 24.1512 16.3293C24.2401 16.2493 24.2886 16.1338 24.2835 16.0143C24.2908 15.8614 24.2465 15.7105 24.1575 15.586C24.0768 15.4897 23.9665 15.4228 23.8438 15.3957C23.7009 15.3631 23.5544 15.3487 23.4079 15.3529C23.1889 15.3389 22.9715 15.3988 22.7905 15.523ZM24.2709 17.8121C24.2797 17.736 24.2839 17.6594 24.2835 17.5828L24.2822 17.0827C24.195 17.1523 24.0935 17.2018 23.9849 17.2275C23.8551 17.2607 23.7234 17.286 23.5905 17.3031C23.4494 17.322 23.3071 17.3422 23.1672 17.3661C23.0334 17.3906 22.9025 17.429 22.7767 17.4808C22.6628 17.5271 22.563 17.6022 22.4869 17.6987C22.4081 17.8114 22.3682 17.9468 22.3735 18.0842C22.3665 18.2219 22.4074 18.3577 22.4894 18.4685C22.5671 18.5613 22.672 18.6274 22.7893 18.6575C22.9219 18.6934 23.0589 18.7104 23.1962 18.7079C23.3725 18.7118 23.5478 18.6819 23.7128 18.6197C23.8352 18.5704 23.9447 18.4937 24.0328 18.3954C24.1066 18.31 24.1642 18.2118 24.2028 18.1057C24.2368 18.0108 24.2596 17.9123 24.2709 17.8121Z" fill="#114495"/>
<path d="M21.2221 14.5869H19.8425L18.9455 17.894H18.9266L18.0951 14.5869H16.7912L15.9786 17.9041H15.9597L15.0614 14.5869H13.6441L15.1937 19.4726H16.5833L17.4148 16.1932H17.4337L18.303 19.4726H19.6825L21.2221 14.5869Z" fill="#114495"/>
<path d="M8.81638 19.4723H10.1581V17.7904L10.6772 17.289L12.0189 19.4723H13.6441L11.5943 16.3819L13.4362 14.5867H11.8488L10.1581 16.3441V12.7246H8.81638V19.4723Z" fill="#114495"/>
<rect x="6.84094" y="12.7246" width="1.34173" height="6.74646" fill="#114495"/>
<rect x="4.87558" y="12.7246" width="1.34173" height="1.10488" fill="#114495"/>
<rect x="4.87558" y="14.5869" width="1.34173" height="4.88567" fill="#114495"/>
<path d="M0 17.8851C0.0069782 18.1173 0.0582929 18.3461 0.151181 18.5591C0.23476 18.744 0.35473 18.9103 0.503937 19.0479C0.653035 19.1824 0.823301 19.2914 1.00787 19.3704C1.20408 19.454 1.40966 19.5137 1.62016 19.5481C1.84116 19.5856 2.06497 19.6042 2.28913 19.6035C2.51031 19.6038 2.73113 19.5857 2.94929 19.5493C3.15749 19.5151 3.3609 19.4563 3.55528 19.3742C3.73995 19.297 3.91031 19.1892 4.05921 19.0555C4.20525 18.9201 4.32078 18.7552 4.39811 18.5717C4.48472 18.3586 4.52757 18.1302 4.52409 17.9002C4.53087 17.702 4.48754 17.5052 4.39811 17.3282C4.31443 17.1739 4.19524 17.0418 4.05039 16.9427C3.89725 16.8364 3.73023 16.7516 3.55402 16.6907C3.36631 16.6253 3.1749 16.571 2.98079 16.5282C2.78677 16.4841 2.60283 16.4451 2.42016 16.4022C2.25565 16.3701 2.09325 16.3281 1.93386 16.2762C1.8078 16.2386 1.69076 16.1755 1.58992 16.091C1.44023 15.9542 1.41592 15.7273 1.53323 15.5619C1.58166 15.5002 1.64555 15.4524 1.71843 15.4233C1.79616 15.3925 1.8774 15.3713 1.96031 15.3603C2.0414 15.3504 2.12304 15.3458 2.20472 15.3465C2.35395 15.3465 2.50242 15.3677 2.64567 15.4095C2.77152 15.4447 2.88472 15.515 2.97197 15.6123C3.06216 15.7278 3.11334 15.869 3.11811 16.0155H4.39433C4.37694 15.7512 4.29845 15.4946 4.16504 15.2658C4.04405 15.0673 3.87731 14.9005 3.67874 14.7796C3.472 14.6594 3.24681 14.5742 3.01228 14.5276C2.75771 14.476 2.49847 14.4511 2.23874 14.4533C2.02794 14.4517 1.81734 14.4664 1.60882 14.4973C1.41107 14.5243 1.21706 14.5737 1.03055 14.6447C0.856077 14.712 0.694221 14.8083 0.551811 14.9295C0.411991 15.0531 0.301399 15.2063 0.228032 15.378C0.141914 15.5811 0.0990096 15.7999 0.102047 16.0205C0.102319 16.2121 0.1541 16.4001 0.251969 16.5647C0.338725 16.7135 0.459101 16.8399 0.603465 16.9339C0.755937 17.0351 0.921158 17.1155 1.0948 17.1733C1.28103 17.2356 1.47075 17.2869 1.66299 17.327C1.98215 17.3925 2.2568 17.4588 2.48693 17.526C2.671 17.5721 2.84603 17.6487 3.00472 17.7528C3.11629 17.8261 3.18352 17.9506 3.18362 18.0841C3.18628 18.1887 3.15777 18.2918 3.10173 18.3802C3.04716 18.4608 2.97418 18.5273 2.88882 18.5742C2.80002 18.6223 2.70445 18.6567 2.60535 18.6762C2.5064 18.6975 2.40546 18.708 2.30425 18.7077C2.17691 18.7078 2.05001 18.6926 1.9263 18.6624C1.80971 18.633 1.69895 18.584 1.59874 18.5175C1.50392 18.4523 1.42545 18.3661 1.36945 18.2655C1.3098 18.1485 1.27913 18.0189 1.28 17.8876L0 17.8851Z" fill="#114495"/>
<path d="M32 11L31.0299 13.5474H12.6879C12.9877 12.9742 13.5698 12.6655 14.7036 12.4236C16.7572 11.9865 20.3401 11.5052 24.1109 12.2976C29.9263 13.5285 31.1433 11.2986 31.3487 11.0932L32 11Z" fill="#E3000F"/>
</svg>
