<svg width="32" height="32" viewBox="0 0 32 32" fill="none" xmlns="http://www.w3.org/2000/svg">
<path d="M0.222066 19.2854H1.90034C3.50781 15.9215 6.39488 15.1482 8.49357 14.76C3.00916 14.8377 1.51752 17.3285 0.222066 19.2854Z" fill="url(#paint0_linear)"/>
<path d="M11.9507 12.8864C11.4129 12.0617 10.4731 12.0508 9.88539 12.2834C9.14474 12.5765 9.07524 13.591 9.43976 14.009C9.6239 14.3434 11.889 15.1051 12.3494 15.5632C13.9259 17.1376 12.7141 18.9284 11.3862 19.2728C10.0256 19.6256 8.155 19.2747 7.60557 17.8716L8.47858 17.4425L11.9507 12.8864ZM8.47858 17.4425C10.1127 19.8211 13.0871 17.7816 11.5055 16.1838C11.282 15.9393 9.02063 15.0053 8.72224 14.7761C8.0346 14.212 8.06063 13.0809 8.44604 12.4361C9.20716 11.1161 11.2992 10.9349 12.5633 12.4563L11.9507 12.8865" fill="#002E5E"/>
<path d="M16.129 12.322V19.283H15.096V12.322H13.098V11.489H18.161V12.322H16.129Z" fill="#002E5E"/>
<path d="M18.7909 11.4873V19.2804H19.7624V12.3894H20.7895C21.0508 12.3894 21.3122 12.3894 21.5736 12.3894C22.5881 12.414 23.0848 13.3198 23.0864 14.0133C23.088 14.7421 22.3493 15.4025 21.6153 15.3873H21.5736H20.5258L20.5951 15.5192L22.9546 19.2527L23.024 19.2804H24.1204L24.058 19.1833L22.1982 16.3034C23.2171 16.0922 24.1229 15.1523 24.1204 14.1243C24.1178 12.9957 23.3089 11.5209 21.65 11.4942L21.5736 11.4873H18.7909Z" fill="#002E5E"/>
<path d="M30.6519 19.283L29.686 17.1178H26.4216L25.4556 19.283H24.3897L28.0871 11.222L31.8178 19.283H30.6519ZM28.0871 13.587L26.8213 16.2518H29.2529L28.0871 13.587Z" fill="#002E5E"/>
<path d="M6.06915 15.7188L5.10316 16.1851L6.50218 19.283H7.66802L6.06915 15.7188ZM4.00394 11.222H3.93732L1.90542 15.5856H3.03795L3.93732 13.587L4.63683 15.0526L5.60281 14.7195L4.00394 11.222Z" fill="#002E5E"/>
<defs>
<linearGradient id="paint0_linear" x1="2.17067" y1="17.7564" x2="6.18779" y2="13.7227" gradientUnits="userSpaceOnUse">
<stop stop-color="#8F969C"/>
<stop offset="0.18318" stop-color="#44494D" stop-opacity="0.983"/>
<stop offset="0.26769" stop-color="#44494D" stop-opacity="0.957"/>
<stop offset="0.5" stop-color="#E4E5E7"/>
<stop offset="1" stop-color="#8F969C"/>
</linearGradient>
</defs>
</svg>
