<svg width="32" height="32" viewBox="0 0 32 32" fill="none" xmlns="http://www.w3.org/2000/svg">
<g clip-path="url(#clip0)">
<path d="M4.53249 18.292H5.61994L7.12362 14.1607H6.03617L4.53249 18.292Z" fill="#312D25"/>
<path d="M27.1292 14.1605H25.6917H22.5917L21.0877 18.2917H25.6199L25.9368 17.4213H22.4918L22.7901 16.6024H25.5409L25.8149 15.8503H23.0642L23.362 15.031H25.3749H26.8126H28.4856L27.2988 18.2917H28.4334L29.6202 15.031H31.6834L32 14.1605H27.1292Z" fill="#9E8165"/>
<path d="M18.9717 14.1602H17.159L14.484 15.884L13.1488 14.1602L7.73912 14.1612L7.42279 15.0309H9.486L8.29918 18.2925H9.4335L10.6203 15.0309H12.2017L13.6762 16.8185L13.1399 18.2925H14.2269L14.7071 16.9749L18.9717 14.1602Z" fill="#312D25"/>
<path d="M21.9542 14.1628H19.808L18.5453 15.0331H20.6292L20.6297 15.0325L19.7986 16.9409L21.1003 16.1307L21.9577 14.1628H21.9542Z" fill="#781520"/>
<path d="M3.90048 18.29L4.28819 17.234C4.06688 17.3291 3.8228 17.4061 3.56266 17.4587C2.3751 17.6988 1.30071 17.3408 1.16277 16.6595C1.02516 15.9779 1.87624 15.2309 3.0638 14.9905C3.84658 14.8325 4.5798 14.9339 5.02844 15.2168L5.39706 14.202C4.62065 13.9677 3.79167 13.9496 2.87664 14.0845C0.913671 14.3738 -0.17512 15.7227 0.0230857 16.8899C0.216939 18.0299 1.3228 18.7296 3.73776 18.3255C3.79301 18.3165 3.84691 18.3027 3.90048 18.29Z" fill="#312D25"/>
<path d="M18.7392 17.817C18.5507 17.8786 18.1747 17.9104 18.0254 17.9058C17.6554 17.894 17.3065 17.8097 17.0032 17.6426L16.2489 18.1398L16.2412 18.1455C16.2418 18.1461 16.2428 18.1461 16.2435 18.1472L16.2428 18.1478C16.2482 18.1508 16.2529 18.1549 16.2586 18.1579C16.581 18.3993 16.9536 18.5757 17.3594 18.6688C17.3775 18.6735 17.3956 18.6782 17.4147 18.6815C17.4933 18.6996 17.573 18.713 17.6544 18.7224C17.6952 18.727 17.7354 18.7317 17.7766 18.7351C17.7984 18.7364 17.8198 18.7381 17.8412 18.7391C17.9025 18.7434 17.9631 18.7451 18.0254 18.7451C18.2523 18.7451 18.473 18.72 18.6853 18.6711C18.9608 18.6082 19.2219 18.5064 19.4623 18.3718C19.6602 18.262 19.8437 18.1297 20.0101 17.9784C20.0131 17.9761 20.0154 17.9737 20.0178 17.9714C20.2046 17.8003 20.3693 17.6058 20.5073 17.3922C20.5083 17.3912 20.5089 17.3895 20.5089 17.3888C20.6144 17.2258 20.7045 17.0513 20.7751 16.8685C20.8926 16.6181 20.9857 16.3958 20.9857 16.3958L19.6954 17.1976C19.6954 17.1976 19.4027 17.6004 18.7392 17.817Z" fill="#9E8165"/>
</g>
<defs>
<clipPath id="clip0">
<rect width="32" height="32" fill="white"/>
</clipPath>
</defs>
</svg>
