<svg width="32" height="32" viewBox="0 0 32 32" fill="none" xmlns="http://www.w3.org/2000/svg">
<path fill-rule="evenodd" clip-rule="evenodd" d="M24.0315 1.11831C19.1069 -1.13336 13.0055 0.555933 9.3164 4.34274C8.26982 5.43926 7.47728 6.78765 7.13204 8.2685C6.42164 11.0942 5.72014 13.9223 5.01865 16.7504C4.5709 18.5555 4.12316 20.3606 3.67311 22.165C3.62189 22.3965 3.56441 22.6293 3.50669 22.8631C3.24876 23.9076 2.98574 24.9728 3.25187 26.0409C3.52329 27.5803 4.51342 28.8918 5.73805 29.8168C7.55328 31.1826 9.89615 31.6277 12.1261 31.5582C15.7023 31.3758 19.2046 29.8385 21.7082 27.2655C21.2232 27.1484 20.7204 27.1131 20.2186 27.0779C19.4174 27.0217 18.6184 26.9657 17.8975 26.5772C16.7293 25.9844 15.8803 24.9291 15.1942 23.8413C14.3612 22.5131 13.8075 21.0537 13.2537 19.5944C12.9674 18.8399 12.6811 18.0854 12.3563 17.349C11.5963 15.5208 10.6496 13.6295 8.95162 12.5048C8.44136 12.127 7.81601 11.9945 7.19935 11.912C8.07593 11.8302 8.95479 11.8384 9.83346 11.8467C10.1671 11.8499 10.5007 11.853 10.8342 11.8512C12.0523 11.836 13.2617 12.3376 14.1042 13.2191C15.4631 14.5586 16.1812 16.3369 16.8873 18.0856C17.0443 18.4744 17.2007 18.8617 17.3634 19.2424C17.454 19.4781 17.5442 19.7163 17.6349 19.9559C18.6089 22.5284 19.6452 25.2652 21.997 26.8681C22.2011 26.6141 22.4052 26.36 22.605 26.1038C21.2262 24.9964 20.3663 23.4049 19.6498 21.8176C19.3304 21.0744 19.0392 20.317 18.7478 19.5592C18.1062 17.8906 17.4639 16.2202 16.5187 14.6956C15.6545 13.3603 14.4212 11.9815 12.7124 11.9142C13.7959 11.8221 14.8838 11.8383 15.9701 11.8545C16.216 11.8582 16.4619 11.8618 16.7076 11.8642C18.614 11.9685 20.0971 13.4536 20.9721 15.0409C21.876 16.7555 22.5793 18.5624 23.2822 20.368C23.513 20.961 23.7438 21.5539 23.9816 22.1433C23.9993 22.1422 24.0261 22.1405 24.0529 22.1389C24.0787 22.1373 24.1046 22.1357 24.1227 22.1346C24.7011 19.8731 25.2626 17.6068 25.8242 15.3404C26.2704 13.5398 26.7166 11.739 27.1713 9.94043C27.233 9.66756 27.3029 9.39323 27.3731 9.11765C27.6661 7.96781 27.9647 6.79609 27.6967 5.61731C27.3623 3.60665 25.7925 2.0129 24.0315 1.11831ZM9.28383 27.3654C6.97354 27.0223 5.19304 24.6599 5.54263 22.3387C5.81187 19.5051 9.09493 17.5488 11.7222 18.6714C11.9192 19.1446 12.109 19.6218 12.2988 20.099C12.8936 21.5946 13.4891 23.0921 14.3105 24.4797C13.557 26.4425 11.3813 27.7909 9.28383 27.3654Z" fill="#CC2234"/>
</svg>
