<svg width="32" height="32" viewBox="0 0 32 32" fill="none" xmlns="http://www.w3.org/2000/svg">
<rect width="32" height="32" fill="#267FD9"/>
<path fill-rule="evenodd" clip-rule="evenodd" d="M32 10H0V21.312H32V10ZM0.76224 20.4148V10.7616L2.81675 10.7615C3.29205 10.7645 3.77152 10.7877 4.23541 10.9002C4.66891 11.0044 5.09632 11.1929 5.41109 11.5165C5.60619 11.7154 5.75029 11.9612 5.83797 12.225C5.94677 12.5514 5.97781 12.8999 5.96213 13.2425C5.94016 13.68 5.80544 14.1174 5.54496 14.4726C5.25141 14.8763 4.80693 15.171 4.31691 15.271C4.29536 15.2734 4.27829 15.2857 4.26283 15.3001C4.66624 15.3781 5.06272 15.5161 5.40491 15.747C5.71595 15.9541 5.97749 16.2377 6.14709 16.5712C6.41504 17.0923 6.45504 17.7008 6.37941 18.2733C6.31424 18.7639 6.11499 19.2483 5.75904 19.5996C5.37088 19.99 4.83968 20.2004 4.30784 20.3056C3.89088 20.3892 3.46443 20.4111 3.04 20.4138C2.54103 20.4156 2.04216 20.4153 1.54329 20.415C1.28294 20.4148 1.0226 20.4147 0.76224 20.4148ZM8.37337 20.415H8.37681L8.72192 20.4149V10.7616H7.68661V20.4149C7.91544 20.4151 8.14442 20.415 8.37337 20.415ZM24.146 12.7808C24.1459 12.1076 24.1459 11.4348 24.146 10.7616L24.6511 10.7616C25.1562 10.7615 25.6613 10.7615 26.1664 10.7618V12.7808C25.7174 12.7809 25.2683 12.7809 24.8193 12.7808L24.146 12.7808ZM26.6946 12.7805C27.1997 12.7808 27.705 12.7808 28.2101 12.7807L28.7152 12.7807L28.7153 11.7712L28.7154 10.7619C28.2843 10.7613 27.8533 10.7614 27.4222 10.7615L26.6947 10.7615C26.6944 11.2328 26.6945 11.7041 26.6946 12.1753L26.6946 12.7805ZM26.6946 14.0749L26.6946 13.2983C27.3681 13.2981 28.0418 13.2981 28.7154 13.2981C28.7152 13.5943 28.7153 13.8904 28.7153 14.1866V14.1911C28.7154 14.5665 28.7154 14.9419 28.715 15.3172H26.6947C26.6945 14.9031 26.6945 14.4891 26.6946 14.075V14.075V14.075V14.075V14.0749V14.0749V14.0749ZM18.1296 13.8265C17.793 13.9751 17.4962 14.2117 17.2761 14.5068C16.9822 14.8959 16.8167 15.3671 16.7287 15.8429C16.6361 16.3535 16.6221 16.8763 16.6612 17.3931C16.7157 18.0678 16.8915 18.7504 17.2785 19.3141C17.5787 19.7572 18.0144 20.105 18.5108 20.305C19.1312 20.56 19.8185 20.5972 20.48 20.5377C20.8356 20.5064 21.1806 20.4125 21.5239 20.3191L21.5794 20.304L21.5793 20.0022L21.5792 19.7005C21.5314 19.713 21.4836 19.7259 21.4358 19.7389L21.4358 19.7389C21.2235 19.7965 21.0107 19.8541 20.791 19.8757C20.4589 19.9089 20.1195 19.9114 19.7926 19.8366C19.512 19.7737 19.2439 19.6539 19.0128 19.4829C18.5947 19.1754 18.3113 18.7185 18.129 18.2391C17.894 17.6144 17.8047 16.9429 17.8013 16.2779L19.753 16.2778L21.7046 16.2777C21.7069 15.8873 21.6722 15.493 21.5589 15.118C21.4334 14.6946 21.1952 14.2942 20.838 14.027C20.6255 13.8658 20.3779 13.7537 20.1202 13.6865C19.7947 13.6011 19.4553 13.582 19.1203 13.6002C18.7808 13.6193 18.4412 13.6869 18.1296 13.8265ZM10.3868 18.4641L10.3869 13.7536H11.4219V17.632C11.4224 17.6934 11.422 17.7549 11.4217 17.8165C11.4204 18.0652 11.4192 18.3146 11.4707 18.5588C11.5316 18.8679 11.65 19.1774 11.8718 19.4078C12.0342 19.5785 12.2595 19.6862 12.4939 19.7063C12.7418 19.7328 12.9966 19.6749 13.2091 19.5451C13.4688 19.389 13.6659 19.1482 13.8179 18.8896C14.054 18.4831 14.1942 18.0277 14.2818 17.5679C14.3418 17.2463 14.3735 16.9187 14.3734 16.5913L14.3735 13.7533H15.4087V20.4146C15.185 20.4148 14.9612 20.4147 14.7374 20.4147L14.4017 20.4146C14.4015 20.2073 14.4016 19.9999 14.4017 19.7925V19.7924V19.7924V19.7924V19.7923C14.4019 19.4552 14.4021 19.118 14.4007 18.7809L14.3988 18.782C14.382 18.7915 14.3646 18.8013 14.3582 18.8209C14.1783 19.1932 13.9943 19.5697 13.7329 19.893C13.579 20.0828 13.3898 20.2469 13.1689 20.3532C12.8805 20.4938 12.5573 20.5404 12.2402 20.5558L12.2186 20.5567C12.0546 20.563 11.8888 20.5694 11.7266 20.5394C11.5076 20.5009 11.3001 20.4045 11.1274 20.2651C10.9046 20.0862 10.7385 19.8451 10.6208 19.5866C10.4622 19.2353 10.3833 18.8491 10.3868 18.4641ZM26.6946 17.1924V17.1925L26.6946 17.8656H28.7152C28.7154 17.1924 28.7154 16.5196 28.7152 15.8466C28.0416 15.8464 27.3681 15.8464 26.6946 15.8466C26.6945 16.2952 26.6945 16.7437 26.6946 17.1923V17.1923V17.1924ZM24.1459 19.8362C24.1458 19.3557 24.1458 18.8752 24.146 18.3948L24.8195 18.3947H24.8263C25.273 18.3947 25.7197 18.3946 26.1664 18.3948C26.1665 18.8437 26.1665 19.2927 26.1664 19.7416L26.1664 20.4148C25.4929 20.4153 24.8193 20.4153 24.1459 20.4148L24.1459 19.8362ZM26.6946 20.4147C27.3681 20.4151 28.0418 20.4151 28.7152 20.4149L28.7152 19.7415V19.7415C28.7153 19.2926 28.7153 18.8437 28.7152 18.3948C28.2685 18.3946 27.8217 18.3947 27.3749 18.3947H27.3682L26.6947 18.3948C26.6944 18.866 26.6945 19.3376 26.6946 19.8091L26.6946 20.4147ZM31.2422 20.4149C30.5687 20.4151 29.895 20.4151 29.2218 20.4149C29.2218 20.1559 29.2218 19.8969 29.2217 19.6379C29.2217 19.2236 29.2216 18.8092 29.2219 18.3948H31.2417C31.2423 18.8323 31.2422 19.2698 31.2422 19.7072C31.2422 19.9431 31.2422 20.179 31.2422 20.4149Z" fill="#267FD9"/>
<path d="M1.92289 11.5245C2.20449 11.5245 2.48598 11.5242 2.76747 11.5246C3.12129 11.5257 3.48118 11.5432 3.82059 11.6517C4.08769 11.7358 4.33995 11.8877 4.51009 12.1138C4.70187 12.3643 4.78273 12.6821 4.80033 12.9927C4.81921 13.3418 4.78091 13.7024 4.63126 14.0221C4.53398 14.231 4.38603 14.4157 4.20289 14.5559C3.78731 14.8729 3.24705 14.9639 2.73622 14.96C2.46518 14.96 2.19403 14.96 1.92289 14.96C1.92289 13.8149 1.92267 12.6696 1.92289 11.5245Z" fill="#267FD9"/>
<path d="M18.832 14.2078C19.1011 14.1299 19.3898 14.1309 19.6629 14.1876C19.9347 14.2446 20.1899 14.3963 20.3507 14.6255C20.564 14.9243 20.6257 15.302 20.6287 15.6617C19.6954 15.6616 18.7624 15.6617 17.8291 15.6616C17.8439 15.3265 17.9505 14.9934 18.1402 14.7163C18.3044 14.475 18.5504 14.2886 18.832 14.2078Z" fill="#267FD9"/>
<path d="M1.92289 15.7354C2.20438 15.7354 2.48566 15.7352 2.76726 15.7354C3.08907 15.7357 3.41302 15.7536 3.72737 15.8266C4.00065 15.8896 4.26742 15.995 4.4943 16.1621C4.74859 16.3466 4.93931 16.613 5.04214 16.909C5.1663 17.2623 5.18742 17.645 5.15307 18.0159C5.12086 18.3461 5.01739 18.6762 4.81238 18.9409C4.64299 19.1621 4.40705 19.3267 4.1503 19.4316C3.80886 19.5719 3.43755 19.6204 3.07105 19.6338C2.68833 19.6434 2.30561 19.636 1.92289 19.6384C1.92289 18.3374 1.92267 17.0362 1.92289 15.7354Z" fill="#267FD9"/>
<path fill-rule="evenodd" clip-rule="evenodd" d="M0.762253 10.7617H2.81665C3.29196 10.7646 3.77153 10.788 4.23532 10.9003C4.6686 11.0047 5.09623 11.1932 5.41089 11.5167C5.60599 11.7154 5.7502 11.9613 5.83777 12.2251C5.94668 12.5517 5.97772 12.9003 5.96193 13.2428C5.93996 13.6804 5.80545 14.1178 5.54476 14.473C5.25121 14.8766 4.80673 15.1711 4.31681 15.2713C4.29516 15.2735 4.27809 15.286 4.26273 15.3004C4.66615 15.3784 5.06263 15.5163 5.40481 15.7473C5.71585 15.9541 5.97751 16.238 6.147 16.5715C6.41505 17.0926 6.45505 17.7009 6.37932 18.2734C6.31415 18.7643 6.11489 19.2484 5.75895 19.5999C5.37068 19.9901 4.83959 20.2008 4.30775 20.3057C3.89079 20.3892 3.46433 20.4111 3.03991 20.4141C2.54198 20.4157 2.04411 20.4155 1.54619 20.4152H1.54617C1.28485 20.4151 1.02351 20.415 0.762146 20.4152L0.762253 10.7617ZM1.92289 11.5245L1.92287 13.8148L1.92289 14.9601H2.73623C3.24716 14.964 3.78732 14.873 4.20289 14.556C4.38593 14.416 4.53399 14.2311 4.63127 14.0222C4.78103 13.7025 4.81932 13.3419 4.80033 12.9928C4.78273 12.6821 4.70199 12.3643 4.51009 12.1138C4.33996 11.8878 4.08769 11.7359 3.8206 11.6517C3.48119 11.5431 3.12129 11.5257 2.76748 11.5247C2.56284 11.5243 2.35809 11.5244 2.15331 11.5244H2.1533L1.92289 11.5245ZM1.92287 18.3376C1.92285 17.4702 1.92282 16.6029 1.92289 15.7357C2.01673 15.7357 2.11055 15.7357 2.20437 15.7356C2.392 15.7356 2.57961 15.7355 2.76727 15.7357C3.08897 15.7358 3.41303 15.7537 3.72737 15.8269C4.00055 15.8898 4.26743 15.9953 4.49431 16.1624C4.7486 16.347 4.93932 16.6132 5.04215 16.9092C5.16641 17.2628 5.18743 17.6452 5.15308 18.0161C5.12108 18.3464 5.0174 18.6767 4.81239 18.9411C4.64289 19.1627 4.40705 19.3273 4.15031 19.4318C3.80887 19.5722 3.43767 19.6203 3.07105 19.634C2.82624 19.6402 2.58143 19.6394 2.33662 19.6387C2.19871 19.6382 2.0608 19.6378 1.92289 19.6386C1.92289 19.205 1.92288 18.7713 1.92287 18.3376Z" fill="white"/>
<path d="M7.68661 20.4151C7.68661 17.1973 7.68661 13.9794 7.68661 10.7617C8.03157 10.7617 8.37686 10.7617 8.72192 10.7617C8.72192 13.9794 8.72192 17.1973 8.72192 20.4151C8.37675 20.4151 8.03168 20.4153 7.68661 20.4151Z" fill="white"/>
<path fill-rule="evenodd" clip-rule="evenodd" d="M19.1203 13.6001C18.7808 13.6196 18.4412 13.687 18.1296 13.8266C17.793 13.9753 17.4961 14.2118 17.276 14.5067C16.9821 14.896 16.8166 15.3673 16.7286 15.8429C16.636 16.3533 16.622 16.8762 16.6611 17.3929C16.7156 18.0676 16.8914 18.7502 17.2784 19.3141C17.5788 19.7572 18.0145 20.105 18.5107 20.305C19.1312 20.56 19.8184 20.5973 20.4799 20.5375C20.837 20.5064 21.1833 20.4119 21.528 20.3178C21.5451 20.3131 21.5622 20.3085 21.5793 20.3038C21.5792 20.2032 21.5792 20.1026 21.5792 20.0021C21.5792 19.9016 21.5792 19.801 21.5791 19.7005C21.5302 19.7132 21.4814 19.7264 21.4326 19.7396C21.2212 19.7968 21.0094 19.8541 20.7909 19.8757C20.4588 19.9089 20.1194 19.9112 19.7926 19.8364C19.5119 19.7738 19.2438 19.654 19.0127 19.4829C18.5946 19.1752 18.3112 18.7185 18.1289 18.2392C17.8939 17.6141 17.8046 16.9426 17.8012 16.2779C18.5447 16.2776 19.2883 16.2777 20.0318 16.2777C20.5894 16.2777 21.147 16.2778 21.7045 16.2777C21.7068 15.8869 21.6721 15.4928 21.5588 15.1178C21.4334 14.6945 21.1951 14.2941 20.838 14.0269C20.6253 13.8657 20.3777 13.7538 20.1202 13.6865C19.7947 13.6009 19.4553 13.5818 19.1203 13.6001ZM18.1404 14.7166C18.3046 14.4753 18.5504 14.289 18.832 14.2081C19.1011 14.1301 19.3898 14.1312 19.6632 14.188C19.9349 14.2449 20.1901 14.3966 20.3509 14.6258C20.5642 14.9245 20.6259 15.3023 20.6288 15.662L17.8293 15.6619C17.8441 15.3269 17.9507 14.994 18.1404 14.7166Z" fill="white"/>
<path d="M10.3869 13.7537C10.7319 13.7537 11.077 13.7537 11.4221 13.7537C11.4221 15.0464 11.4221 16.3392 11.4221 17.6321C11.4243 17.9415 11.4067 18.2542 11.471 18.559C11.5318 18.8681 11.6503 19.1775 11.872 19.4079C12.0345 19.5786 12.2599 19.686 12.4941 19.7065C12.742 19.7329 12.9968 19.675 13.2093 19.5452C13.4691 19.3892 13.6662 19.1483 13.8182 18.8897C14.0541 18.4832 14.1943 18.0279 14.2822 17.568C14.3421 17.2461 14.3739 16.9189 14.3737 16.5914C14.3738 15.6454 14.3737 14.6994 14.3738 13.7534C14.7187 13.7534 15.0639 13.7534 15.409 13.7534C15.409 15.9739 15.409 18.1945 15.409 20.4148C15.0734 20.415 14.7376 20.4148 14.4019 20.4148C14.4013 19.8703 14.4031 19.3256 14.401 18.781C14.3836 18.7909 14.365 18.8007 14.3584 18.821C14.1785 19.1933 13.9946 19.5698 13.7331 19.8932C13.5792 20.0829 13.3901 20.2471 13.1691 20.3533C12.8808 20.4939 12.5577 20.5406 12.2404 20.556C12.0694 20.5625 11.896 20.5708 11.7268 20.5396C11.5079 20.501 11.3003 20.4045 11.1276 20.2652C10.9049 20.0862 10.7387 19.8452 10.621 19.5867C10.4623 19.2354 10.3834 18.8492 10.387 18.4642C10.3869 16.894 10.3867 15.3238 10.3869 13.7537Z" fill="white"/>
<path d="M24.146 10.7613C24.8193 10.7613 25.4929 10.7611 26.1664 10.7615C26.1664 11.4345 26.1664 12.1073 26.1664 12.7803C25.4929 12.7807 24.8193 12.7805 24.146 12.7805C24.1459 12.1073 24.1459 11.4344 24.146 10.7613Z" fill="#A3A4A5"/>
<path d="M26.6946 12.7803C26.6946 12.1073 26.6943 11.4345 26.6947 10.7613C27.3683 10.7615 28.0418 10.7608 28.7154 10.7617C28.7152 11.4347 28.7154 12.1074 28.7152 12.7805C28.0418 12.7805 27.3681 12.7807 26.6946 12.7803Z" fill="#A3A4A5"/>
<path d="M26.6946 13.2981C27.3681 13.2978 28.0418 13.2978 28.7154 13.298C28.715 13.971 28.7157 14.6441 28.715 15.3172C28.0416 15.3172 27.3681 15.3172 26.6947 15.3172C26.6943 14.6441 26.6947 13.9711 26.6946 13.2981Z" fill="#A3A4A5"/>
<path d="M26.6946 15.8464C27.3681 15.8461 28.0416 15.8461 28.7152 15.8464C28.7154 16.5193 28.7154 17.1922 28.7152 17.8653C28.0416 17.8653 27.3681 17.8653 26.6946 17.8653C26.6946 17.1922 26.6944 16.5193 26.6946 15.8464Z" fill="#A3A4A5"/>
<path d="M24.146 18.3946C24.8193 18.3946 25.4929 18.3944 26.1664 18.3948C26.1666 19.0681 26.1664 19.7415 26.1664 20.4149C25.4929 20.4151 24.8193 20.4151 24.1459 20.4149C24.1459 19.7413 24.1457 19.0681 24.146 18.3946Z" fill="#A3A4A5"/>
<path d="M26.6946 20.4147C26.6946 19.7414 26.6943 19.0678 26.6947 18.3946C27.3681 18.3946 28.0418 18.3944 28.7152 18.3946C28.7154 19.0679 28.7152 19.7413 28.7152 20.4148C28.0418 20.4151 27.3681 20.4151 26.6946 20.4147Z" fill="#A3A4A5"/>
<path d="M29.2218 20.4147C29.2219 19.7412 29.2214 19.068 29.2221 18.3945C29.8954 18.3945 30.5686 18.3945 31.2419 18.3945C31.2428 19.068 31.2421 19.7412 31.2424 20.4147C30.5687 20.4149 29.8952 20.4149 29.2218 20.4147Z" fill="#A3A4A5"/>
</svg>
