<svg width="32" height="32" viewBox="0 0 32 32" fill="none" xmlns="http://www.w3.org/2000/svg">
<path d="M1.73758 11.1521H9.0737C9.79814 11.1521 10.3344 11.3873 10.5461 12.4011C10.7813 13.5371 10.6919 14.3274 9.40769 14.4168L7.10266 14.5814C8.80086 25.2834 18.7031 28.7738 24.0964 17.2416C24.9902 15.3341 25.2724 14.986 26.258 15.2282C27.5822 15.5575 27.7633 16.2443 27.1282 18.1613C22.4735 32.3772 6.80395 33.8026 3.72979 14.8237L1.86459 14.9578C0.342802 15.066 0.281648 13.7817 0.281648 13.0761C0.276943 11.6578 0.801456 11.1521 1.73758 11.1521Z" fill="#D40E14"/>
<path d="M28.396 9.71973C29.8977 9.71973 31.115 8.5024 31.115 7.00074C31.115 5.49907 29.8977 4.28174 28.396 4.28174C26.8943 4.28174 25.677 5.49907 25.677 7.00074C25.677 8.5024 26.8943 9.71973 28.396 9.71973Z" fill="#D40E14"/>
</svg>
