<svg width="32" height="32" viewBox="0 0 32 32" fill="none" xmlns="http://www.w3.org/2000/svg">
<rect x="29.3758" y="12.0073" width="2.36656" height="11.5918" fill="#006EB5"/>
<path d="M30.5606 10.9185C31.3504 10.9185 32 10.2659 32 9.45772C32 8.64952 31.3504 8 30.5606 8C29.7692 8 29.1333 8.64956 29.1333 9.45772C29.1333 10.2659 29.7692 10.9185 30.5606 10.9185Z" fill="#006EB5"/>
<path d="M18.3208 23.5988V16.7523C18.3208 14.7304 17.4349 13.9741 16.0976 13.9741C14.5209 13.9741 13.8683 15.1116 13.8683 17.4537V23.5988H11.5079V16.8712C11.5079 13.8887 13.0571 11.7417 16.2044 11.7417C17.6941 11.7417 18.8301 12.4035 19.4888 13.2086C20.1796 12.4035 21.3171 11.7417 22.7992 11.7417C25.945 11.7417 27.5003 13.8887 27.5003 16.8712V23.5987H25.1581V17.4537C25.1581 15.1116 24.4856 13.9741 22.9151 13.9741C21.5794 13.9741 20.6828 14.7304 20.6828 16.7523V23.5988" fill="#006EB5"/>
<path fill-rule="evenodd" clip-rule="evenodd" d="M2.33604 12.8367C2.66084 12.55 3.69468 11.7418 5.06244 11.7418C7.7568 11.7418 9.94948 13.6021 9.94948 17.8595C9.94948 21.7905 8.24168 23.8521 4.88096 23.8521C2.85752 23.8521 1.35252 22.8517 0.53672 20.8146C0.0366 19.5886 0 17.7557 0 16.359V8.20117H2.33604V12.8367ZM2.41992 17.7344C2.41992 20.4974 3.5544 21.7599 5.01212 21.7599C6.55524 21.7599 7.63176 20.598 7.6318 17.9113C7.6318 15.1665 6.52016 13.9589 5.096 13.9589C3.63216 13.9589 2.41992 15.2641 2.41992 17.7344Z" fill="#006EB5"/>
</svg>
