<svg width="32" height="32" viewBox="0 0 32 32" fill="none" xmlns="http://www.w3.org/2000/svg">
<g clip-path="url(#clip0)">
<path fill-rule="evenodd" clip-rule="evenodd" d="M12.5001 3.17049C9.69134 4.15076 6.81652 5.44137 3.94171 6.99011C4.16436 6.86161 4.38604 6.73312 4.60771 6.60463L4.61066 6.60292C7.61946 5.02857 10.5081 3.64141 13.5031 2.57641C16.8468 1.38826 22.561 -0.556524 27.5432 0.150849C29.283 0.397148 30.4574 1.10157 31.0199 2.08677C31.5933 3.0897 31.484 4.32711 30.8859 5.82856C30.281 7.34773 29.2249 8.92701 27.5432 10.7073C27.3562 10.905 27.1643 11.1033 26.9676 11.302C26.7995 11.1859 26.6152 11.0808 26.4125 10.9891C27.7169 9.45934 28.5577 8.01373 29.0811 6.70637C29.6495 5.28473 29.6436 4.07687 29.0811 3.09266C28.5067 2.08972 27.4092 1.41486 25.8713 1.10551C21.4418 0.213901 15.4794 2.12913 12.5001 3.17049ZM25.1519 12.3661C24.579 12.0212 23.8588 11.7734 22.9966 11.6103C18.5602 10.7729 12.6677 12.6093 9.69143 13.6753C6.95159 14.6565 4.0088 15.9472 1 17.4437L1.66895 17.1077C4.67775 15.5078 7.68556 14.1393 10.6274 13.0556C14.4854 11.6349 19.0971 10.2625 24.7354 10.6034C25.4037 10.6437 25.9548 10.7821 26.4125 10.9891C26.3024 11.1182 26.189 11.2479 26.0723 11.3782C25.7788 11.7056 25.4723 12.0351 25.1519 12.3661ZM13.7796 20.8355C16.1999 19.4489 18.3632 18.0106 20.3896 16.515C22.2628 15.1306 23.8267 13.7353 25.1519 12.3661C25.2985 12.4544 25.4355 12.549 25.5627 12.6502C24.33 13.7764 22.9408 14.9079 21.3916 16.0244C19.0355 17.7219 16.503 19.3448 13.7796 20.8355ZM13.7796 20.8355C13.4687 21.0135 13.1537 21.1908 12.8341 21.3671C12.8565 21.3526 12.8789 21.3383 12.9013 21.3239C12.9459 21.2953 12.9905 21.2666 13.0351 21.2371C13.2848 21.1043 13.533 20.9704 13.7796 20.8355ZM25.5627 12.6502C26.056 12.1995 26.5242 11.7497 26.9676 11.302C27.4603 11.6421 27.8132 12.076 28.0782 12.5393C28.6546 13.5482 28.7176 14.8398 28.0782 16.3333C27.4467 17.8082 26.3285 19.4288 24.6675 21.1855C22.9857 22.9657 20.9611 24.7686 18.5169 26.5282C15.9475 28.3804 13.3022 30.0907 10.2934 31.6916L9.69143 32C12.4993 30.401 15.1327 28.7666 17.5139 26.9932C19.8134 25.2819 21.7168 23.5598 23.1975 21.883C24.7256 20.152 25.7758 18.6072 26.3393 17.1846C26.9117 15.7422 26.8989 14.5245 26.3393 13.5462C26.1435 13.2034 25.8842 12.9058 25.5627 12.6502Z" fill="#2B5B83"/>
</g>
<defs>
<clipPath id="clip0">
<rect width="32" height="32" fill="white"/>
</clipPath>
</defs>
</svg>
