<svg width="32" height="32" viewBox="0 0 32 32" fill="none" xmlns="http://www.w3.org/2000/svg">
<path d="M15.5553 3.88147C15.5476 3.85437 15.5399 3.82816 15.5348 3.80105L14.3157 1.44917C14.2306 1.28497 13.9861 1.31856 13.9486 1.49962L13.4939 3.69224C13.4596 3.85775 13.2459 3.90551 13.1442 3.77036L11.7802 1.95848C11.668 1.80911 11.4299 1.88602 11.4264 2.07279L11.3849 4.34154C11.3824 4.50896 11.1838 4.59597 11.0582 4.48509L9.30307 2.93642C9.16472 2.81439 8.94954 2.93268 8.97874 3.11464L9.34227 5.37851C9.36917 5.54566 9.18573 5.66612 9.04267 5.5753L7.09679 4.34018C6.94051 4.2409 6.7459 4.39311 6.805 4.56851L7.64875 7.07219C7.66412 7.09632 7.67719 7.11961 7.69154 7.14374L13.3594 13.1902C13.4111 13.2454 13.4967 13.2486 13.5543 13.1996C14.1802 12.6681 14.9701 12.3268 15.8376 12.262C15.9144 12.2563 15.9734 12.1921 15.9695 12.1154L15.5553 3.88147Z" fill="#49559F"/>
<path d="M6.98695 7.8864C6.96133 7.87241 6.93904 7.85888 6.9147 7.84489L4.3874 7.04273C4.21088 6.98672 4.06192 7.1831 4.16348 7.33764L5.39448 9.20914C5.48748 9.35041 5.36886 9.53513 5.20258 9.51133L2.95603 9.19241C2.77079 9.16613 2.65702 9.38859 2.78694 9.52307L4.36399 11.1566C4.4803 11.2771 4.4019 11.4785 4.2346 11.4888L1.89702 11.6332C1.71281 11.6445 1.6444 11.8802 1.79377 11.9882L3.65374 13.3323C3.79107 13.4315 3.74674 13.6462 3.58124 13.683L1.33071 14.1838C1.14983 14.224 1.12011 14.469 1.28613 14.5513L3.65548 15.7258C3.68264 15.7327 3.70903 15.7393 3.73644 15.7462L12.0256 16.0193C12.1012 16.0218 12.1637 15.9638 12.1699 15.8886C12.236 15.0707 12.553 14.2714 13.1205 13.613C13.1707 13.5548 13.1672 13.4678 13.1103 13.4162L6.98695 7.8864Z" fill="#49559F"/>
<path d="M3.764 16.769C3.73684 16.7763 3.71071 16.7834 3.68355 16.7907L1.32855 18.0082C1.16406 18.0932 1.19788 18.3374 1.37902 18.3748L3.57461 18.8289C3.74038 18.8632 3.78803 19.0766 3.65276 19.1782L1.83846 20.539C1.68884 20.6512 1.76596 20.8889 1.95299 20.8923L4.22473 20.9337C4.39228 20.9368 4.47939 21.1346 4.36846 21.2601L2.81769 23.0129C2.69548 23.1509 2.81513 23.3659 2.99627 23.3367L5.26316 22.9737C5.43046 22.9469 5.55116 23.13 5.46018 23.2729L4.22339 25.2162C4.12399 25.3724 4.27643 25.5667 4.45218 25.5076L6.95924 24.665C6.9823 24.6505 7.00664 24.6366 7.03098 24.6222L13.0855 18.9619C13.1408 18.9103 13.1439 18.8249 13.0957 18.7673C12.5636 18.1423 12.2217 17.3534 12.1569 16.4871C12.1518 16.4105 12.0869 16.3516 12.0101 16.3554L3.764 16.769Z" fill="#49559F"/>
<path d="M7.77446 25.3261C7.76165 25.3505 7.74704 25.374 7.73295 25.3983L6.92971 27.9222C6.8736 28.0985 7.07036 28.2473 7.22501 28.1458L9.09899 26.9164C9.24042 26.8237 9.42542 26.9408 9.40162 27.1082L9.08226 29.3516C9.05587 29.5366 9.27877 29.6503 9.41338 29.5206L11.0491 27.9457C11.1697 27.8295 11.3714 27.9078 11.3818 28.0749L11.5262 30.4094C11.5365 30.5933 11.7735 30.6617 11.8818 30.5124L13.2277 28.6549C13.3271 28.5178 13.542 28.5621 13.5788 28.7273L14.0803 30.9748C14.1205 31.1555 14.3659 31.1852 14.4483 31.0194L15.6244 28.6532C15.6321 28.626 15.6372 28.5996 15.6449 28.5724L15.9183 20.2943C15.9207 20.2188 15.8627 20.1563 15.7874 20.1503C14.9684 20.0841 14.168 19.7677 13.5088 19.2009C13.4504 19.1507 13.3633 19.1544 13.3118 19.2114L7.77446 25.3261Z" fill="#49559F"/>
<path d="M16.669 28.5445C16.6767 28.5716 16.6844 28.5978 16.6895 28.625L17.9086 30.9769C17.9936 31.1411 18.2381 31.1075 18.2757 30.9264L18.7303 28.7338C18.7646 28.5683 18.9783 28.5205 19.0801 28.6556L20.4428 30.4675C20.555 30.6169 20.7931 30.54 20.7965 30.3532L20.838 28.0844C20.8406 27.917 21.0391 27.83 21.1648 27.9409L22.9199 29.4896C23.0582 29.6116 23.2734 29.4934 23.2442 29.3113L22.8807 27.0475C22.8538 26.8803 23.0372 26.7599 23.1803 26.8507L25.1262 28.0858C25.2825 28.1851 25.4771 28.0329 25.418 27.8575L24.5742 25.3538C24.5589 25.3297 24.5458 25.3064 24.5315 25.2822L18.8636 19.2358C18.8119 19.1806 18.7266 19.1774 18.6687 19.2264C18.0428 19.7578 17.2529 20.0992 16.3854 20.1639C16.3088 20.1697 16.2496 20.2338 16.2535 20.3106L16.669 28.5445Z" fill="#49559F"/>
<path d="M25.2373 24.5397C25.2629 24.5537 25.2852 24.5672 25.3096 24.5812L27.8368 25.3834C28.0134 25.4394 28.1624 25.243 28.0607 25.0884L26.8298 23.2169C26.7368 23.0757 26.8554 22.8909 27.0216 22.9147L29.2681 23.2337C29.4533 23.26 29.5671 23.0375 29.4372 22.903L27.8604 21.2695C27.7441 21.149 27.8225 20.9476 27.9898 20.9373L30.3274 20.7929C30.5116 20.7815 30.58 20.5459 30.4306 20.4379L28.5706 19.0938C28.4333 18.9946 28.4776 18.7799 28.6431 18.7431L30.8936 18.2423C31.0745 18.202 31.1042 17.9571 30.9382 17.8748L28.5689 16.7002C28.5417 16.6934 28.5153 16.6867 28.4879 16.6799L20.1988 16.4068C20.1232 16.4043 20.0607 16.4623 20.0545 16.5375C19.9884 17.3554 19.6714 18.1547 19.1038 18.8131C19.0536 18.8713 19.0574 18.9583 19.1141 19.0099L25.2373 24.5397Z" fill="#49559F"/>
<path d="M28.4602 15.6569C28.4874 15.6496 28.5135 15.6425 28.5407 15.6352L30.8957 14.4177C31.0602 14.3327 31.0266 14.0886 30.8452 14.0511L28.6497 13.5971C28.4839 13.5628 28.4362 13.3493 28.5715 13.2478L30.3858 11.8869C30.5355 11.7747 30.4583 11.537 30.2713 11.5336L27.9996 11.4922C27.832 11.4892 27.7449 11.2914 27.8558 11.1659L29.4066 9.41308C29.5288 9.27498 29.4091 9.06003 29.228 9.08921L26.9611 9.45222C26.7938 9.47902 26.6731 9.29589 26.764 9.15303L28.0008 7.20972C28.1002 7.05351 27.9478 6.85926 27.7723 6.91831L25.2652 7.76096C25.2421 7.77538 25.2178 7.7893 25.1935 7.80372L19.139 13.464C19.0837 13.5157 19.0806 13.601 19.1288 13.6586C19.6609 14.2836 20.0027 15.0725 20.0675 15.9388C20.0727 16.0155 20.1375 16.0744 20.2143 16.0705L28.4602 15.6569Z" fill="#49559F"/>
<path d="M24.4498 7.1C24.4626 7.07563 24.4775 7.05211 24.4913 7.02777L25.2945 4.50385C25.3506 4.32764 25.1539 4.17876 24.9992 4.28027L23.1252 5.50965C22.9838 5.60245 22.7988 5.48526 22.8227 5.31791L23.142 3.07445C23.1684 2.8895 22.9455 2.77582 22.8109 2.90546L21.1752 4.48041C21.0545 4.59662 20.8528 4.5183 20.8425 4.35118L20.698 2.0167C20.6878 1.83277 20.4508 1.76442 20.3425 1.91371L18.9966 3.77122C18.8972 3.90836 18.6823 3.86404 18.6454 3.69882L18.144 1.45131C18.1038 1.27066 17.8584 1.24092 17.776 1.40671L16.5999 3.77291C16.5922 3.80017 16.5871 3.82648 16.5794 3.85374L16.306 12.1319C16.3034 12.2073 16.3616 12.2698 16.4369 12.2759C17.2558 12.342 18.0562 12.6584 18.7155 13.2253C18.7739 13.2754 18.861 13.2717 18.9125 13.2147L24.4498 7.1Z" fill="#49559F"/>
<path d="M16.1121 19.7022C18.0392 19.7022 19.6013 18.14 19.6013 16.213C19.6013 14.286 18.0392 12.7239 16.1121 12.7239C14.1851 12.7239 12.623 14.286 12.623 16.213C12.623 18.14 14.1851 19.7022 16.1121 19.7022Z" fill="#49559F"/>
</svg>
