<svg width="32" height="32" viewBox="0 0 32 32" fill="none" xmlns="http://www.w3.org/2000/svg">
<path d="M30.8787 0.190651C29.4028 5.664 24.8829 6.09427 22.8844 6.21725C20.8551 6.34024 19.1333 7.26265 19.1333 7.26265C14.2446 9.81436 14.1214 15.1952 14.1214 15.1952V23.1281C14.1214 23.1281 13.4144 27.0942 9.57089 27.0942C5.14333 27.0942 4.71287 22.9741 4.71287 22.9741V13.0425C4.71287 11.9358 3.63663 11.7207 3.63663 11.7207H2.19142V11.5054H5.97359C5.97359 11.5054 5.8506 10.0295 7.44945 9.50689C7.44945 9.50689 7.8799 9.41455 9.01764 9.47605C9.8479 9.50689 10.9854 8.3387 10.9854 8.3387C10.9854 10.1833 9.32511 10.8291 8.55634 10.8291C7.78776 10.8598 8.09504 10.6755 7.32646 10.6755C6.61937 10.6446 6.46554 11.5055 6.46554 11.5055C6.46554 11.5055 7.9414 11.5364 7.9414 12.9814C7.9414 14.4264 7.9414 21.898 7.9414 21.898C7.9414 21.898 7.84906 23.0664 9.23277 23.0664C9.23277 23.0664 10.4627 23.0361 10.4627 21.898C10.4627 20.7599 10.4627 14.4571 10.4627 14.4571C10.4627 14.4571 10.8008 9.23007 14.8596 5.72472C14.8596 5.72472 17.9958 2.92665 21.7469 2.68068C25.4978 2.43528 27.2199 2.6506 30.8787 0.190651Z" fill="#DA0021"/>
<path d="M25.5287 10.0914C29.3721 8.52337 29.5566 4.49542 29.5566 4.49542C28.0501 5.97128 26.3896 7.04752 22.9768 7.20116C19.8406 7.35499 17.7498 9.59942 17.7191 9.59942C15.3209 11.5979 15.2594 15.1952 15.2594 15.1952C15.2594 15.1952 15.2594 21.5291 15.2594 22.0517C15.2594 22.5746 15.1364 23.4354 15.1364 23.4354C14.3061 26.7873 12.0308 28.1398 9.29446 28.1398C6.61957 28.1398 5.45099 26.5103 5.45099 26.5103C7.01899 30.3842 11.6004 30.3227 11.6004 30.3227C17.7806 30.0769 18.4877 24.081 18.4877 24.081V16.4555C18.4877 15.1948 18.3647 13.5961 19.8406 12.0586C20.7321 11.167 21.7777 10.7366 22.6386 10.5827C22.6385 10.5833 24.4526 10.5218 25.5287 10.0914Z" fill="#DA0021"/>
<path d="M23.4687 17.7168C23.4687 17.7168 22.7308 20.6994 25.621 20.6994C27.8348 20.6994 27.9884 17.8705 27.9884 17.4095C27.9884 16.1488 27.0354 13.228 23.7453 13.228C19.7174 13.228 19.4714 17.4408 19.4714 17.4408V24.0515C17.8726 32.9371 9.57089 31.0924 9.57089 31.0924C9.57089 31.0924 11.631 31.8917 13.2605 31.8917C15.5973 31.8917 21.0088 31.1846 22.208 23.836V17.994C22.208 17.994 22.208 16.518 23.53 16.518C24.3603 16.518 24.6984 17.2251 24.7599 17.7787C24.7599 17.7787 24.7599 18.5779 24.0528 18.5779C23.3457 18.5779 23.4994 17.809 23.4687 17.7168Z" fill="#DA0021"/>
</svg>
