<svg width="32" height="32" viewBox="0 0 32 32" fill="none" xmlns="http://www.w3.org/2000/svg">
<path fill-rule="evenodd" clip-rule="evenodd" d="M11.7985 3.32557C11.9548 3.02558 12.1106 2.72655 12.2945 2.46806L12.2944 2.46793C12.3935 2.41913 12.4252 2.47417 12.4627 2.53927C12.5007 2.60536 12.5447 2.68181 12.6713 2.67053C12.9593 2.56189 13.1558 2.25517 13.3517 1.94929C13.5907 1.57631 13.8288 1.20458 14.2311 1.19474C14.3388 1.19159 14.4444 1.23606 14.5473 1.2794C14.642 1.31927 14.7345 1.35819 14.8242 1.35819C15.3202 1.35819 15.6758 1.07121 16.0352 0.78122C16.3571 0.521496 16.682 0.259364 17.1133 0.19885C17.3501 0.647867 17.6231 0.511039 17.918 0.363217C18.0629 0.290579 18.2131 0.215285 18.3669 0.205547C18.5789 0.191932 18.8113 0.199567 19.044 0.207217C19.5807 0.224854 20.1197 0.242566 20.4168 0C20.8257 0.454184 21.3666 0.428079 21.9609 0.399401C22.3844 0.378963 22.835 0.357217 23.2842 0.507101C23.4533 0.564221 23.4671 0.678323 23.4838 0.815651C23.4984 0.936131 23.5152 1.07449 23.6409 1.20793C23.876 1.45761 24.2622 1.52688 24.6587 1.598C25.0384 1.6661 25.4275 1.7359 25.7026 1.96745C25.9611 2.33748 25.878 2.66471 25.7541 3.15266C25.7477 3.17799 25.7412 3.20375 25.7346 3.22998C25.5558 3.9375 25.3729 4.73668 25.1853 5.55631C24.8593 6.9809 24.5191 8.46725 24.1622 9.64135C22.4662 9.05136 21.1758 8.05053 19.8706 7.03828C18.2282 5.76451 16.5626 4.47267 14.0363 3.95868C13.4591 3.8413 12.8325 3.76999 12.2643 3.70535C12.0445 3.68034 11.8335 3.65633 11.6374 3.63103C11.692 3.53014 11.7453 3.4278 11.7985 3.32557ZM7.69106 13.6804C7.81658 13.5072 7.93857 13.3388 8.03659 13.1811V13.1812C8.10681 13.0696 8.19633 12.882 8.29823 12.6686C8.5548 12.1311 8.88987 11.4291 9.19306 11.3601C9.24988 11.347 9.36807 11.4251 9.50318 11.5144C9.67374 11.6271 9.87127 11.7576 10.0065 11.7451C10.1885 11.7302 10.3622 11.6719 10.5123 11.6214C10.6447 11.577 10.7586 11.5387 10.8436 11.5418C11.2458 11.555 11.3728 11.7026 11.5038 11.8548C11.591 11.9562 11.68 12.0595 11.8531 12.1266C11.7636 11.5898 11.4514 11.1544 10.8797 10.7545C10.7649 10.674 10.6201 10.5943 10.469 10.5112C10.0355 10.2727 9.54973 10.0055 9.56865 9.60575C9.57779 9.41034 9.66397 9.26824 9.75642 9.11581C9.8739 8.92209 10.0015 8.71168 9.994 8.35395C11.2986 8.17325 13.0368 8.31247 14.5558 8.75206C16.7147 9.37387 18.3726 10.3537 20.0125 11.323C21.0913 11.9606 22.1623 12.5936 23.363 13.1171C22.8173 15.3393 22.2826 17.6154 21.7475 19.8936C20.7767 24.0262 19.8044 28.1652 18.7621 32C18.569 30.087 17.79 28.1841 16.8148 26.6212C16.743 26.5048 16.6457 26.3769 16.5437 26.2428C16.2869 25.9053 16.0007 25.5291 16.0197 25.2017C16.0911 24.014 17.5177 23.9261 18.6451 23.8567C19.0057 23.8345 19.3357 23.8141 19.5809 23.7603C17.7154 22.6334 15.6408 23.0133 13.6722 23.3737C12.7523 23.5422 11.8556 23.7063 11.0142 23.7106C9.85834 23.7171 8.29675 22.7669 8.42998 21.8373C8.45407 21.6691 8.56623 21.4775 8.68384 21.2766C8.91906 20.8747 9.17608 20.4356 8.79376 20.0719C8.71845 20 8.62746 19.9726 8.53014 19.9433C8.40771 19.9064 8.27528 19.8666 8.15152 19.7312C8.08611 19.3602 8.2965 19.1666 8.48846 18.99C8.61985 18.8691 8.74261 18.7561 8.76236 18.5996C8.67571 18.4332 8.48485 18.3212 8.29546 18.2101C8.00956 18.0424 7.72701 17.8767 7.81146 17.5285C7.85432 17.35 8.01096 17.2414 8.17896 17.1248C8.40806 16.9658 8.65827 16.7922 8.6699 16.407C8.68649 15.8342 8.13969 15.6542 7.36419 15.6363C6.61082 15.1716 7.18008 14.3858 7.69106 13.6804Z" fill="#0079B3"/>
<path d="M14.6222 23.2023C14.6222 23.2023 14.9184 23.0091 16.4967 22.9838C18.5933 22.9482 19.5809 23.7575 19.5809 23.7575C19.4801 23.8115 19.0868 23.8493 18.29 23.9033C17.4707 23.9613 16.8343 24.1729 16.8343 24.1729C15.7917 24.6024 16.0891 25.5397 16.0891 25.5397C15.2075 24.3145 14.6222 23.2025 14.6222 23.2025" fill="#004B86"/>
</svg>
