<svg width="32" height="32" viewBox="0 0 32 32" fill="none" xmlns="http://www.w3.org/2000/svg">
<path d="M16 0.0264463C16.9785 0.0264463 17.9306 0.105785 18.8826 0.264463C14.7835 3.78182 11.6893 5.87107 13.6463 14.1752C15.762 23.2992 10.9488 24.0661 6.95537 27.8744H23.3256C26.1025 25.6529 29.5405 22.6116 28.7207 17.8777C28.0859 14.1752 29.7521 12.3769 31.2066 11.0281C31.7355 12.5884 32 14.2545 32 16C32 24.8066 24.8066 32 16 32C7.19339 31.9736 0 24.7802 0 16C0 7.21983 7.19339 0 16 0V0.0264463ZM23.9074 2.14215C24.357 2.38017 24.7537 2.67107 25.1504 2.93554C23.6165 4.09917 21.9769 5.34215 20.7603 6.77025C15.6298 12.6942 22.7174 19.2529 16.9256 24.9653C18.5917 21.2099 18.4595 18.0099 17.6132 12.6678C17.0314 9.09752 20.0992 4.99835 23.9603 2.14215H23.9074ZM28.3769 5.89752C28.6413 6.24132 28.9322 6.61157 29.1967 6.95537C27.0017 8.48926 23.9868 9.97025 24.3041 14.2017C24.6744 19.2529 24.0926 23.0612 21.7124 25.124C23.4314 21.6595 23.6694 17.4017 23.0612 13.2231C22.5058 9.62645 25.2033 8.06612 28.3769 5.89752Z" fill="#3E4095"/>
</svg>
