<svg width="32" height="32" viewBox="0 0 32 32" fill="none" xmlns="http://www.w3.org/2000/svg">
<path d="M31.0836 14.6916C31.0836 14.7329 32.2497 13.5255 30.8755 12.61C29.4188 11.6939 26.5873 11.4858 23.8814 12.36C22.216 12.9012 14.2221 15.8152 9.85077 24.9334C9.85077 24.9334 13.3897 20.3958 16.5955 18.8548C16.5955 18.8548 15.1382 21.0608 15.0969 22.2275C15.0969 22.2275 17.5947 18.8548 22.7159 16.1489C27.2541 13.7336 31.3754 13.2343 31.0836 14.6916Z" fill="#3382C3"/>
<path d="M28.3777 11.4025C28.3777 11.4025 26.9204 11.1525 26.088 11.3188C25.2137 11.485 23.2152 12.1099 22.924 11.4025C22.924 11.4025 21.4667 11.4025 17.5116 14.4415C16.9704 14.8577 12.6822 18.396 10.1838 19.3958C9.35144 19.7702 8.31035 19.8957 7.22798 19.7283C5.64571 19.5196 4.27212 18.4378 3.68908 17.8967C2.81482 16.9811 1.94056 15.482 2.81482 14.3165C2.81482 14.3165 3.356 15.7319 5.35448 16.773C7.72731 17.981 10.6001 18.3134 14.0977 15.9819C14.0977 15.9819 7.85288 17.8967 5.52132 14.3165C5.52132 14.3165 6.77051 15.0239 7.7279 14.6914C7.7279 14.6914 4.43895 13.9421 3.89777 10.9026C3.52284 9.02906 4.60579 7.61362 5.10511 7.23868C5.23009 7.15556 5.35507 7.15556 5.31322 7.23868C5.23009 7.65547 5.14697 7.65547 5.14697 8.19606C5.14697 8.73725 4.73077 11.0275 9.31018 12.9423C13.8902 14.8577 18.3027 13.3585 18.8439 12.4424C18.8439 12.4424 10.4757 13.8166 8.06098 10.1108C8.06098 10.1108 8.93524 10.8183 9.55954 10.6933C9.55954 10.6933 8.06098 9.81961 7.936 8.44543C7.89414 7.69615 8.3522 6.86315 8.72714 6.36383C8.72714 6.36383 9.01836 6.03134 9.01836 6.53066C9.06022 7.11311 9.01836 7.94552 10.8919 8.9872C12.8072 9.98644 13.9727 10.2364 15.8044 10.2364C15.8044 10.2364 18.0528 10.3195 20.7168 9.86146C21.8829 9.65395 26.0049 9.11218 28.3777 11.4025Z" fill="#417564"/>
<path fill-rule="evenodd" clip-rule="evenodd" d="M7.97786 6.7811L7.97895 6.77891C8.06134 6.61354 8.10229 6.53137 7.97786 6.44802C7.89473 6.36431 7.68663 6.61427 7.47794 6.90608L7.46342 6.92783C7.19251 7.33291 6.1974 8.82091 7.84512 10.3576C7.87462 10.3867 7.89473 10.4031 7.89473 10.4031C7.87794 10.3879 7.8614 10.3728 7.84512 10.3576C7.73385 10.2478 7.48905 9.95839 7.68663 9.69511C7.76976 9.52886 8.01912 9.69511 8.10284 9.77823C8.10284 9.77823 7.1036 8.44591 7.97786 6.7811ZM6.93676 10.2369C6.81178 10.1119 8.51904 13.3177 15.0551 12.9428C15.0551 12.9428 10.5169 13.1927 8.31035 10.903C8.31037 10.903 8.30945 10.9029 8.30764 10.9026C8.2581 10.8959 7.53956 10.7987 6.93676 10.2369ZM10.1844 16.7311C5.31322 16.8142 4.39769 14.4414 4.39769 14.4414C4.85516 14.8576 5.48005 14.8576 5.48005 14.8576C6.85423 16.7311 10.1844 16.7311 10.1844 16.7311ZM4.23085 7.61351L4.22258 7.62178C4.07511 7.76896 3.31808 8.52449 3.48157 10.3194C3.59897 12.0399 4.63445 13.3568 5.55316 13.9588C5.40999 13.8843 5.22016 13.8186 5.14638 13.9414C5.02199 14.1495 5.06326 14.2327 5.14638 14.3164C5.14638 14.3164 3.18976 13.1503 2.85668 11.1524C2.7317 10.2363 2.7317 8.77899 3.81465 7.69663L4.06402 7.44667C4.189 7.36414 4.35583 7.44726 4.23085 7.61351ZM5.72942 14.0664C5.72942 14.0664 5.65253 14.0105 5.55316 13.9588C5.61249 13.9977 5.67134 14.0336 5.72942 14.0664ZM2.10798 14.8988L1.7749 14.5245C1.15001 15.3993 1.52495 16.856 2.23296 17.6466C4.81448 20.3949 7.56224 20.0194 7.56224 20.0194C4.23144 19.5625 2.69102 17.3966 2.35794 16.6055C1.98301 15.7318 2.10798 14.8988 2.10798 14.8988Z" fill="#3382C3"/>
</svg>
