<svg width="32" height="32" viewBox="0 0 32 32" fill="none" xmlns="http://www.w3.org/2000/svg">
<path fill-rule="evenodd" clip-rule="evenodd" d="M16.3333 0.204346C25.0162 0.20451 31.5571 7.27076 31.5575 15.9543C31.558 24.6359 25.0168 31.6467 16.3333 31.6472C7.65038 31.647 1.10867 24.6357 1.1088 15.954C1.10836 7.27052 7.6498 0.204789 16.3333 0.204346ZM2.52645 15.9843C2.5269 23.8809 8.45997 30.2566 16.3335 30.2568C24.2076 30.2564 30.1394 23.8811 30.1389 15.9839C30.1391 8.08732 24.2071 1.64857 16.3336 1.649C8.45944 1.64879 2.52662 8.0877 2.52645 15.9843Z" fill="#FFCB00"/>
<path d="M25.572 25.6391L25.5722 23.151L15.328 13.8536C14.9247 13.4811 15.0573 13.2787 15.4423 13.2788C15.8879 13.2786 23.1124 13.2786 23.1124 13.2786L19.2478 16.3962L20.6704 17.7646L28.7317 11.4968L16.8195 11.4951C15.2213 11.4951 14.6338 11.5296 14.2571 11.6421C13.8948 11.7512 13.4226 11.9797 13.1697 12.5347C12.9843 12.9436 12.9745 13.6741 13.2384 14.1278C13.6045 14.757 14.2209 15.3124 15.8065 16.9839C14.2379 16.0198 10.053 13.2812 10.053 13.2812C10.053 13.2812 10.9816 13.2818 11.2162 13.2817C11.2161 12.8355 11.2137 11.4956 11.2137 11.4956L3.82633 11.4957L25.572 25.6391Z" fill="#FFCB00"/>
</svg>
