<svg width="32" height="32" viewBox="0 0 32 32" fill="none" xmlns="http://www.w3.org/2000/svg">
<path fill-rule="evenodd" clip-rule="evenodd" d="M16.1947 14.8021C15.4875 13.1301 13.728 13.1448 13.2261 13.7709C13.2251 13.7729 13.2053 13.8021 13.2053 13.8021C13.1053 13.9677 13.1552 14.1835 13.3176 14.2885C13.4803 14.3928 13.6957 14.3509 13.8061 14.1917C13.8573 14.1208 13.8803 14.0344 13.8699 13.948C13.8531 13.4843 14.8928 13.3749 15.4395 14.428C15.5301 14.6072 15.6032 14.7947 15.6552 14.9875C15.5499 15.0395 15.4459 15.0907 15.348 15.1376C14.7229 15.4416 13.952 15.8677 13.8563 16.5157C13.5781 16.7387 13.1219 17.0509 12.9251 17.0301C12.752 17.0104 12.6272 16.8291 12.6656 16.4699C12.7043 16.1115 12.8072 15.0635 12.8072 15.0635C12.8573 14.6125 12.7907 14.3635 12.3261 14.3125C11.8989 14.2656 11.4147 14.7176 11.0728 15.0157C11.0072 15.0739 10.9291 15.1387 10.8531 15.2093C10.8624 15.1437 10.8698 15.0824 10.8792 15.0229C10.9405 14.628 10.7907 14.2635 10.4208 14.3405C10.1968 14.3875 10.0043 14.5312 9.89679 14.7323C10.1032 14.6645 10.1667 14.876 10.1136 15.2645L9.94906 16.576C9.66986 16.7917 9.27279 17.0501 9.09466 17.0301C8.92292 17.0104 8.79679 16.8291 8.83546 16.4699C8.87279 16.1115 8.97706 15.0635 8.97706 15.0635C9.02719 14.6125 8.96052 14.3635 8.49466 14.3125C8.06879 14.2667 7.58426 14.7176 7.24266 15.0157C7.17599 15.0739 7.09892 15.1387 7.02292 15.2093C7.03225 15.1448 7.03946 15.0824 7.04906 15.0229C7.11146 14.628 6.96132 14.2635 6.59172 14.3405C6.36666 14.3875 6.17492 14.5312 6.06666 14.7333C6.27386 14.6645 6.33652 14.876 6.28319 15.2645L6.11972 16.5843L6.11759 16.6083C5.84159 16.8165 5.47279 17.052 5.30212 17.0333C5.13119 17.0147 5.00719 16.8333 5.04372 16.4771C5.08026 16.1197 5.16666 15.3728 5.16666 15.3728C5.23439 14.8749 4.95092 14.4832 4.53946 14.6947C4.43866 14.7491 4.35732 14.8344 4.30932 14.9395C4.37279 14.9448 4.42906 14.9803 4.46239 15.0333C4.49572 15.0864 4.50319 15.1531 4.48133 15.2125C4.48133 15.2125 4.36053 16.3427 4.3416 16.6677C4.34053 16.9803 4.5624 17.248 4.8688 17.3061C5.29387 17.3573 5.7312 17.0771 6.0928 16.7907L6.0552 17.1011L6.76987 17.0968C6.77494 17.0416 6.99467 15.4989 7 15.4501C7.3584 15.0947 7.86347 14.6061 8.1168 14.6272C8.1792 14.6333 8.23653 14.6677 8.26987 14.7208C8.3032 14.7749 8.3104 14.8405 8.28853 14.9C8.28853 14.9 8.18853 15.8344 8.13013 16.4043C8.072 16.9739 8.38133 17.272 8.66133 17.3032C9.12613 17.3541 9.55627 17.0531 9.9272 16.7563L9.8832 17.1011L10.6 17.0968C10.6061 17.0416 10.8229 15.4989 10.8291 15.4501C11.1875 15.0947 11.6939 14.6061 11.9459 14.6272C12.0093 14.6323 12.0656 14.6677 12.1 14.7208C12.1344 14.7739 12.1416 14.8405 12.1197 14.9C12.1197 14.9 12.0176 15.8333 11.9605 16.4032C11.9021 16.9739 12.2125 17.272 12.4917 17.3021C12.9957 17.3573 13.4605 16.9979 13.852 16.6792C13.8792 17.1168 14.3947 17.324 14.7979 17.324C15.9176 17.324 16.6531 16.3843 16.2376 14.9387C17.0864 14.5917 17.1176 14.7792 17.0459 15.2853L16.8157 17.1219L17.5312 17.1187C17.5376 17.0624 17.7667 15.4197 17.7667 15.4197C18.1187 15.0728 18.5853 14.6355 18.8251 14.6552C18.8749 14.6531 18.924 14.6739 18.9573 14.7125C18.9896 14.7509 19.0032 14.8021 18.9939 14.852L18.8387 17.1261H19.5541C19.5563 17.1072 19.6344 15.6781 19.6541 15.4667C20.0115 15.1125 20.5104 14.6333 20.7605 14.6552C20.8229 14.6605 20.8803 14.6957 20.9136 14.7491C20.948 14.8032 20.9541 14.8699 20.9323 14.9291C20.9323 14.9291 20.8312 15.8624 20.772 16.4323C20.7136 17.0021 21.024 17.3 21.3043 17.3301C21.7272 17.3771 22.1219 17.1312 22.4688 16.8624C22.7083 17.1835 23.0896 17.3688 23.4907 17.3573C25.0229 17.3573 25.5032 16.2043 25.4677 15.5595C25.4656 15.3531 25.4061 15.1509 25.2968 14.9749C25.376 14.924 25.6043 14.7739 25.7853 14.6613C26.0781 14.4781 26.0656 14.8072 26.0136 15.2165L25.772 17.1136H26.5197C26.5261 17.0541 26.7677 15.3219 26.7677 15.3219C27.1229 14.9677 27.6125 14.5011 27.8584 14.5219C27.9219 14.5272 27.9792 14.5624 28.0125 14.6157C28.0469 14.6699 28.0531 14.7355 28.0312 14.7947C28.0312 14.7947 27.9749 15.3229 27.872 16.2979C27.7272 17.6792 28.5699 18.924 30.2917 19.1469C30.9624 19.2323 31.8645 19.0667 31.9928 18.2365C31.9947 18.2323 31.9979 18.1928 31.9979 18.1928C32.0083 18.0115 31.9 17.8448 31.7301 17.7803C31.5605 17.7168 31.3688 17.7688 31.2563 17.9115C31.1437 18.0531 31.1365 18.252 31.2387 18.4021C31.5083 18.8699 30.8344 19.1093 30.3104 19.0011C29.2187 18.7728 28.4147 17.9176 28.5792 16.3645C28.652 15.6843 28.7208 14.9563 28.7208 14.9563C28.7699 14.5061 28.7043 14.2563 28.2376 14.2061C27.8136 14.1595 27.328 14.6115 26.9864 14.9093C26.9272 14.9595 26.8605 15.0176 26.7928 15.0792C26.8 15.0312 26.8061 14.9843 26.8125 14.9395C26.8781 14.5272 26.7125 14.0208 26.1907 14.2645C25.852 14.4405 25.5261 14.6395 25.2147 14.8605C24.876 14.4312 24.2333 14.2584 23.5168 14.4688C22.7656 14.6885 22.2043 15.2939 22.2165 16.076C22.2176 16.3115 22.2792 16.5427 22.3939 16.748C22.148 16.9187 21.8771 17.072 21.7376 17.0573C21.5645 17.0376 21.4395 16.8573 21.4771 16.4979C21.5147 16.1376 21.6187 15.0907 21.6187 15.0907C21.6688 14.6395 21.6032 14.3907 21.1376 14.3405C20.7115 14.2928 20.2272 14.7459 19.8853 15.0427C19.8208 15.1 19.7459 15.1624 19.6699 15.2333C19.6792 15.1448 19.6843 15.0917 19.6843 15.0917C19.7344 14.6395 19.6677 14.3917 19.2021 14.3405C18.7749 14.2939 18.2917 14.7459 17.9499 15.0427C17.9011 15.0864 17.8459 15.1323 17.7896 15.1835C17.7968 15.1355 17.8022 15.0896 17.8093 15.0459C17.872 14.6501 17.7219 14.2864 17.352 14.3624C16.9552 14.4792 16.5688 14.6272 16.1957 14.8043L16.1947 14.8021ZM14.9197 17.1355C14.7699 17.1323 14.628 17.0667 14.5291 16.9541C14.4291 16.8427 14.3813 16.6939 14.3947 16.5448C14.3947 15.9427 14.9136 15.4968 15.4187 15.252L15.6907 15.1323C15.9061 16.0864 15.6947 17.1365 14.9197 17.1365L14.9197 17.1355ZM23.8781 17.128C23.0989 17.128 22.9104 16.3365 22.9104 15.6885C22.9104 15.1709 23.0843 14.624 23.7491 14.624C24.5291 14.624 24.7168 15.4011 24.7168 16.0491C24.7168 16.5667 24.5427 17.1272 23.8781 17.1272V17.128ZM4.43547 13.0563C4.00533 13.3792 4.40427 13.9333 4.81867 13.9021C5.1032 13.8928 5.32907 13.6605 5.32907 13.376C5.276 12.3229 4.23013 12 3.39893 12C1.2656 12 0 13.5813 0 15.0928C0.0416 16.472 1.18427 17.5605 2.56347 17.5344C2.99387 17.5469 3.41653 17.428 3.77707 17.1939V16.9968C3.33227 17.2427 3.08133 17.3437 2.55733 17.2824C1.21253 17.1229 0.736533 15.6635 1.04587 14.4229C1.35413 13.1813 2.03227 12.2853 3.39787 12.1803C4.05413 12.1291 5.1728 12.4989 4.43547 13.0552V13.0563Z" fill="#63236E"/>
</svg>
