<svg width="32" height="32" viewBox="0 0 32 32" fill="none" xmlns="http://www.w3.org/2000/svg">
<path fill-rule="evenodd" clip-rule="evenodd" d="M24.5844 12.9751L32 17.194C31.9194 18.0697 32 26.9055 32 26.9055L23.5365 31.8408L16.2015 27.8607C16.0403 27.7811 8.78589 32 8.78589 32L0.0806047 27.1443L0 17.5124L7.25441 13.2139L7.33501 4.93532L15.7985 0L24.5038 4.85572C24.5038 5.31758 24.5198 6.66741 24.5376 8.16212L24.5376 8.16255L24.5376 8.164L24.5377 8.16558C24.5597 10.019 24.5844 12.0942 24.5844 12.9751ZM14.5894 10.4279C14.5894 10.4279 11.4458 8.59702 9.83375 7.801V13.2139C11.3652 14.1692 14.5894 15.8408 14.5894 15.8408V10.4279ZM7.33501 28.3383C5.96473 27.7015 2.65995 25.7114 2.65995 25.7114L2.57935 20.3781L7.41562 23.005L7.33501 28.3383ZM3.86902 18.1493C3.86902 18.2289 8.62469 20.7761 8.62469 20.7761C8.94662 20.5921 9.27212 20.408 9.59894 20.2232L9.59969 20.2228L9.60045 20.2223L9.60121 20.2219C10.8283 19.528 12.074 18.8236 13.2191 18.0697L8.46348 15.4428C8.14087 15.6272 7.81468 15.8117 7.48718 15.9969L7.48701 15.997C6.25985 16.6909 5.01422 17.3953 3.86902 18.1493ZM14.7506 25.6318L10.1562 28.4179L9.99496 22.8458L14.5894 20.2189H14.67C14.7506 21.9701 14.7506 25.6318 14.7506 25.6318ZM11.1234 5.57214C12.6549 6.52736 14.3476 7.40299 15.9597 8.19901C15.9597 8.19901 20.3123 5.73134 20.6348 5.49254C19.2645 4.53731 15.7985 2.78607 15.7985 2.78607C14.3476 3.58209 11.1234 5.57214 11.1234 5.57214ZM17.2494 10.5871C17.2494 10.2687 22.005 7.64179 22.005 7.64179C22.0856 8.1194 22.005 13.0547 22.005 13.0547C20.4736 14.0896 17.2494 15.7612 17.2494 15.7612V10.5871ZM19.7481 26.9851L19.7482 26.9851C20.5341 27.403 21.3199 27.8209 22.0856 28.2587C22.1662 28.1791 22.1662 24.8358 22.1662 22.9254C22.1662 22.9254 17.8942 20.5373 17.33 20.2985C17.33 20.3143 17.3292 20.3773 17.3279 20.4783C17.3163 21.3931 17.2654 25.4247 17.4106 25.7114C18.1763 26.1493 18.9622 26.5672 19.7481 26.9851ZM23.3753 20.6965C21.7632 19.8209 20.1511 18.9453 18.539 17.9901C19.7412 17.1986 21.1094 16.4617 22.4602 15.7343L22.4608 15.7339C22.7401 15.5836 23.0186 15.4336 23.2947 15.2836C24.9068 16.0796 26.5189 16.9552 28.131 17.9104C26.7607 18.7861 25.3098 19.5821 23.8589 20.3781L23.3753 20.6965ZM24.8262 28.0995L29.5819 25.5522V20.2985C29.5013 20.2189 24.7456 23.0846 24.7456 23.0846C24.7456 23.0846 24.7456 28.0199 24.8262 28.0995Z" fill="#D94817"/>
</svg>
