<svg width="32" height="32" viewBox="0 0 32 32" fill="none" xmlns="http://www.w3.org/2000/svg">
<path d="M27.9699 6.83761H27.9845C27.9992 6.83761 27.9992 6.83761 27.9992 6.83761C29.9172 6.63263 31.8353 4.90491 31.5278 2.86972C31.2496 1.01023 29.5658 -0.161097 27.7649 0.0731693C26.74 0.204944 25.5101 0.834535 24.9977 1.7716C24.5145 2.62082 24.4413 3.64573 24.6316 4.5828C24.9684 6.14945 26.4618 6.88153 27.9699 6.83761Z" fill="#F1BD4C"/>
<path d="M5.43641 15.5641C5.65604 13.6607 4.25044 12.7822 2.96198 12.4455C1.81993 12.1819 0.882863 12.0355 1.14641 11.157C1.16105 11.1277 1.1757 11.0984 1.19034 11.0692C1.6003 10.1907 2.62522 9.73676 4.00153 9.37072C4.19187 9.3268 4.38222 9.26823 4.5872 9.2243C5.87566 8.93147 7.3984 8.81434 8.86256 8.55079C9.52143 8.43366 10.151 8.28724 10.7367 8.08226C12.0984 7.48195 12.9769 6.1642 13.5332 4.83181C13.7675 4.29007 13.9432 3.73369 14.075 3.22123C14.28 2.41594 14.4264 1.71314 14.6753 1.20068C14.9242 0.73215 15.2756 0.424676 15.832 0.336826C16.9155 0.219693 17.3547 1.40567 17.7061 3.11874C18.1161 5.09536 18.0575 7.87727 19.0092 9.5757C19.5217 10.2639 20.5027 10.5128 21.674 10.5128C23.065 10.5128 24.7195 10.1467 26.1983 9.70748C28.0431 9.16574 29.6537 8.66792 30.6786 8.75577C31.2057 8.7997 31.5864 9.00468 31.7767 9.45857C31.8207 9.5757 31.8353 9.70748 31.8353 9.83925C31.6157 10.9081 29.7562 12.1526 27.3842 13.6022C24.3827 15.4031 20.5905 17.0283 19.0531 18.8731C18.7896 19.2245 18.6285 19.6199 18.57 20.0298C18.1454 21.8454 19.6095 24.2027 21.308 26.1354C22.9332 27.9802 24.4413 29.5469 24.3681 30.5718C24.3095 30.7768 24.1631 30.9671 23.9142 31.1136C23.6653 31.2746 23.3578 31.3478 23.021 31.3332C21.674 31.2893 19.6681 30.0154 17.4718 28.3902C14.7046 26.355 12.0984 23.5878 10.0046 22.7385C9.81427 22.68 9.62392 22.6361 9.43358 22.6361C7.89621 22.5921 6.54918 24.437 5.68532 26.2379C4.90932 27.907 4.32365 29.3419 3.66478 29.2101C3.533 29.1809 3.40123 29.093 3.25481 28.932C2.88877 28.5073 2.77164 27.7753 2.80092 26.8382C2.84484 25.9158 3.04983 24.8177 3.31338 23.6024C3.81119 21.3329 4.74826 18.8585 5.20215 16.8526C5.30464 16.3987 5.39249 15.9741 5.43641 15.5641Z" fill="#5EBBE2"/>
</svg>
