<svg width="32" height="32" viewBox="0 0 32 32" fill="none" xmlns="http://www.w3.org/2000/svg">
<path fill-rule="evenodd" clip-rule="evenodd" d="M7.79322 8.25615C7.79322 14.3639 14.5059 18.7329 10.7724 24.6498C8.08121 28.9148 2.42467 23.6675 5.70521 20.3628C6.16763 19.8969 6.92926 19.3119 7.63736 19.2532C7.44134 18.7083 6.09035 15.0409 5.99967 14.6514C3.28733 14.7119 -3.54188 21.1961 2.28866 28.6574C3.32317 29.9817 5.45824 31.1859 7.79365 31.1859C17.34 31.1859 16.0252 19.5649 23.86 19.5649C26.9821 19.5649 28.5714 23.8061 25.262 26.0366C23.4196 27.1027 22.1213 25.7923 21.2081 25.1804L17.9323 28.6903C19.2479 30.6548 26.1384 33.8425 30.4898 27.8332C32.8614 24.5578 32.3351 20.2471 29.6431 16.9018C26.1112 12.5133 18.428 16.1289 13.9338 11.4754C11.3635 8.81399 12.9623 4.98079 15.9825 4.98079C17.7091 4.98079 19.5989 6.9492 19.0981 9.11018C19.0402 9.35931 18.969 9.46682 18.9461 9.7384C19.7768 9.94607 23.025 10.8303 23.6256 10.8303C26.0486 0.430423 12.6251 -4.27926 8.57083 4.90048C8.19088 5.76098 7.79322 7.03037 7.79322 8.25658V8.25615Z" fill="#009846"/>
</svg>
