<svg width="32" height="32" viewBox="0 0 32 32" fill="none" xmlns="http://www.w3.org/2000/svg">
<g clip-path="url(#clip0)">
<path d="M23.7832 22.9724C24.8279 22.9724 25.7628 21.7294 26.798 21.6122C28.0698 20.2727 28.8516 18.4637 28.8516 16.4706C28.8516 12.3447 25.507 9 21.3809 9C17.255 9 13.9102 12.3447 13.9102 16.4706C13.9102 19.2451 15.4241 21.6648 17.6697 22.9532C18.6771 22.7913 19.5935 21.6005 20.6156 21.6005C21.7124 21.6005 22.6865 22.9724 23.7832 22.9724Z" fill="url(#paint0_linear)"/>
<path d="M2.16009 11.4744C1.9082 11.245 1.58328 11.1318 1.2607 11.1313C0.950242 11.1313 0.633381 11.2383 0.391382 11.4689C0.148557 11.6984 -0.00160104 12.049 0.000339615 12.469C0 13.4161 0 15.3947 0 15.3947H0.578024C0.578024 15.3947 0.578024 14.9175 0.578024 14.3199H1.99946C1.99946 14.9132 1.99946 15.3947 1.99946 15.3947H2.57748C2.57748 15.3947 2.57748 13.3112 2.57748 12.4691C2.57947 12.0533 2.41287 11.7024 2.16009 11.4744ZM0.578024 13.742V12.4691C0.580013 12.1778 0.670399 12.0038 0.790623 11.8871C0.911671 11.7711 1.08061 11.7095 1.2607 11.709C1.63981 11.722 1.99393 11.9484 1.99946 12.4691V13.742H0.578024Z" fill="#4378C4" stroke="#4378C4" stroke-width="0.0727746"/>
<path d="M11.2405 13.4453C11.3567 13.6055 11.4117 13.7881 11.4117 13.9715C11.4113 14.2499 11.284 14.5218 11.0421 14.6979C10.8824 14.8136 10.6997 14.8686 10.5162 14.8689C10.2375 14.8686 9.9652 14.741 9.78967 14.4994C9.67381 14.3393 9.61889 14.1566 9.6185 13.9736C9.61889 13.6948 9.74624 13.4229 9.98815 13.247C10.1482 13.1307 10.3313 13.0758 10.5143 13.0754C10.7926 13.0762 11.0647 13.203 11.2405 13.4453ZM11.7082 13.1057C11.42 12.7088 10.9689 12.4973 10.5143 12.4973C10.2143 12.4973 9.90945 12.5898 9.64853 12.7792C9.25167 13.0674 9.04018 13.5185 9.04062 13.9735C9.04023 14.2736 9.1327 14.5784 9.3224 14.8389C9.61025 15.2354 10.0609 15.4473 10.5163 15.4469C10.816 15.4469 11.1212 15.3552 11.3821 15.1654C11.7782 14.8773 11.9901 14.4266 11.9897 13.9715C11.99 13.6715 11.898 13.3667 11.7082 13.1057C11.7082 13.1057 11.7083 13.1059 11.7082 13.1057Z" fill="#4378C4"/>
<path d="M11.2405 13.4453C11.3567 13.6055 11.4117 13.7881 11.4117 13.9715C11.4113 14.2499 11.284 14.5218 11.0421 14.6979C10.8824 14.8136 10.6997 14.8686 10.5162 14.8689C10.2375 14.8686 9.9652 14.741 9.78967 14.4994C9.67381 14.3393 9.61889 14.1566 9.6185 13.9736C9.61889 13.6948 9.74624 13.4229 9.98815 13.247C10.1482 13.1307 10.3313 13.0758 10.5143 13.0754C10.7926 13.0762 11.0647 13.203 11.2405 13.4453ZM11.7082 13.1057C11.42 12.7088 10.9689 12.4973 10.5143 12.4973C10.2143 12.4973 9.90945 12.5898 9.64853 12.7792C9.25167 13.0674 9.04018 13.5185 9.04062 13.9735C9.04023 14.2736 9.1327 14.5784 9.3224 14.8389C9.61025 15.2354 10.0609 15.4473 10.5163 15.4469C10.816 15.4469 11.1212 15.3552 11.3821 15.1654C11.7782 14.8773 11.9901 14.4266 11.9897 13.9715C11.99 13.6715 11.898 13.3667 11.7082 13.1057C11.7082 13.1057 11.7083 13.1059 11.7082 13.1057V13.1057Z" stroke="#4378C4" stroke-width="0.0727746"/>
<path d="M5.76876 14.3359C5.70714 14.4755 5.61026 14.6015 5.47766 14.6981C5.31775 14.8139 5.13489 14.8686 4.95174 14.869C4.76782 14.8687 4.58714 14.8119 4.43466 14.7045L6.28793 13.3582C6.24786 13.2711 6.20206 13.1859 6.14384 13.1058C6.08552 13.0255 6.01901 12.9549 5.94876 12.89C5.67139 12.634 5.31242 12.4972 4.9498 12.4976C4.64958 12.4976 4.3448 12.5897 4.08393 12.7796C3.68726 13.0675 3.47568 13.5185 3.47602 13.9736C3.47568 14.2734 3.56791 14.5783 3.75776 14.8391C4.0457 15.2353 4.49637 15.4473 4.95174 15.4469H4.95359C5.25284 15.4469 5.55694 15.3547 5.81718 15.1657C6.10643 14.9552 6.29618 14.6579 6.37813 14.3359H5.76876V14.3359ZM4.42345 13.2472C4.58384 13.131 4.76665 13.0759 4.94976 13.0755C5.13354 13.076 5.31416 13.1327 5.46675 13.2403L4.09422 14.2374C4.06753 14.1511 4.054 14.0624 4.054 13.9736C4.05434 13.6947 4.18164 13.423 4.42345 13.2472Z" fill="#4378C4" stroke="#4378C4" stroke-width="0.0727746"/>
<path d="M7.04668 13.8964C7.04663 13.8971 7.04663 13.8981 7.04663 13.899H7.04678C7.04678 13.902 7.04692 13.9057 7.04707 13.9099V15.3826H7.62495V13.8726C7.63717 13.4498 7.94258 13.1002 8.34488 13.0199V12.4362C7.61456 12.5234 7.04838 13.143 7.04668 13.8964Z" fill="#4378C4" stroke="#4378C4" stroke-width="0.0727746"/>
<path d="M23.9762 19.9054C23.9145 20.0451 23.8178 20.1709 23.685 20.2674C23.525 20.3833 23.3422 20.4381 23.1592 20.4384C22.9754 20.4382 22.7945 20.3814 22.642 20.2738L24.4954 18.9276C24.4552 18.8406 24.4095 18.7554 24.3513 18.6752C24.2931 18.595 24.2264 18.5244 24.156 18.4595C23.8788 18.2036 23.5198 18.0667 23.1571 18.067C22.857 18.067 22.552 18.1592 22.2913 18.349C21.8947 18.6371 21.6831 19.0879 21.6835 19.5431C21.6831 19.8427 21.7753 20.1477 21.9651 20.4085C22.2531 20.8047 22.7038 21.0167 23.1592 21.0163H23.1611C23.4604 21.0163 23.7644 20.9241 24.0248 20.735C24.3139 20.5245 24.5038 20.2273 24.5856 19.9054H23.9762V19.9054ZM22.6308 18.8165C22.7914 18.7004 22.974 18.6454 23.1571 18.6449C23.3411 18.6454 23.5217 18.7022 23.674 18.8098L22.3017 19.8069C22.2749 19.7205 22.2614 19.6319 22.2614 19.5431C22.2617 19.2641 22.3891 18.9923 22.6308 18.8165Z" fill="#4378C4" stroke="#4378C4" stroke-width="0.0727746"/>
<path d="M4.4572 20.4382C3.96214 20.4375 3.56169 20.0369 3.56086 19.5419C3.56169 19.0464 3.96214 18.6461 4.4572 18.6454C4.78183 18.6457 5.06337 18.8199 5.22075 19.0784H5.85627C5.66182 18.4913 5.10946 18.0674 4.4572 18.067C3.64276 18.0674 2.98323 18.7271 2.98274 19.5419C2.98323 20.3562 3.64276 21.016 4.4572 21.0163C5.09689 21.0162 5.6396 20.6083 5.84404 20.039H5.20242C5.04158 20.2795 4.7681 20.4378 4.4572 20.4382Z" fill="#4378C4" stroke="#4378C4" stroke-width="0.0727746"/>
<path d="M10.6545 19.527C10.6544 19.5277 10.6544 19.5289 10.6544 19.5296H10.6546C10.6546 19.5326 10.6546 19.5364 10.6548 19.5406V21.0133H11.2327V19.5032C11.2449 19.0808 11.5503 18.7308 11.9527 18.6507V18.0668C11.2224 18.154 10.6562 18.7737 10.6545 19.527Z" fill="#4378C4" stroke="#4378C4" stroke-width="0.0727746"/>
<path d="M12.4818 18.0667C12.4817 19.4614 12.4817 19.5024 12.4817 19.5031H12.4819C12.4819 19.5062 12.482 19.499 12.4822 19.5031V21.0131H13.0601V18.0667H12.4818Z" fill="#4378C4" stroke="#4378C4" stroke-width="0.0727746"/>
<path d="M13.0601 16.7122H12.4817V17.2905H13.0601V16.7122Z" fill="#4378C4" stroke="#4378C4" stroke-width="0.0727746"/>
<path d="M9.28122 18.675C8.99313 18.2778 8.54236 18.0662 8.08728 18.0667C7.7873 18.0667 7.48252 18.1592 7.2216 18.3484C6.82488 18.6367 6.61335 19.0878 6.61374 19.5427C6.61335 19.8426 6.70573 20.1474 6.89557 20.4081C7.18337 20.8045 7.63409 21.0164 8.08927 21.0162H8.09121C8.36911 21.0162 8.64958 20.9326 8.89678 20.7696V19.9239C8.83497 20.0559 8.74206 20.1752 8.61543 20.2674C8.45562 20.3829 8.27281 20.4378 8.08932 20.4382C7.81103 20.4378 7.53866 20.3103 7.36308 20.0687C7.24698 19.9084 7.19215 19.7258 7.19181 19.5427C7.19215 19.2639 7.31926 18.9918 7.5616 18.8163C7.72151 18.6999 7.90462 18.6449 8.08743 18.6445C8.36567 18.6449 8.63799 18.7725 8.81405 19.0144C8.93001 19.1747 8.98488 19.3572 8.98498 19.5403C8.98498 19.5403 8.98517 19.5408 8.98527 19.5406V21.0132H9.5631V19.5424C9.5631 19.5418 9.5632 19.5413 9.5632 19.5407C9.5631 19.2406 9.47121 18.9358 9.28122 18.675Z" fill="#4378C4" stroke="#4378C4" stroke-width="0.0727746"/>
<path d="M28.1178 18.675C27.8297 18.2778 27.3789 18.0662 26.9239 18.0667C26.624 18.0667 26.3192 18.1592 26.0581 18.3484C25.6615 18.6367 25.45 19.0878 25.4505 19.5427C25.45 19.8426 25.5423 20.1474 25.7322 20.4081C26.0199 20.8045 26.4708 21.0164 26.9258 21.0162H26.9277C27.2057 21.0162 27.486 20.9326 27.7333 20.7696V19.9239C27.6716 20.0559 27.5786 20.1752 27.452 20.2674C27.2922 20.3829 27.1094 20.4378 26.9257 20.4382C26.6475 20.4378 26.3753 20.3103 26.1995 20.0687C26.0835 19.9084 26.0287 19.7258 26.0284 19.5427C26.0287 19.2639 26.1557 18.9918 26.398 18.8163C26.558 18.6999 26.741 18.6449 26.9239 18.6445C27.2021 18.6449 27.4744 18.7725 27.6504 19.0144C27.7665 19.1747 27.8213 19.3572 27.8215 19.5403C27.8216 19.5403 27.8216 19.5408 27.8216 19.5406V21.0132L28.3996 21.0142V19.5423C28.3996 19.5417 28.3996 19.5412 28.3996 19.5406C28.3995 19.2406 28.3077 18.9358 28.1178 18.675Z" fill="#4378C4" stroke="#4378C4" stroke-width="0.0727746"/>
<path d="M14.1862 20.4076C14.4743 20.8048 14.925 21.0164 15.3803 21.0161C15.6801 21.0161 15.9849 20.9235 16.2459 20.7342C16.6425 20.446 16.8541 19.9949 16.8537 19.54C16.8541 19.2401 16.7617 18.9354 16.5719 18.6746C16.284 18.2782 15.8332 18.0661 15.3782 18.0666H15.3763C15.0984 18.0666 14.8179 18.1501 14.5707 18.3129V19.1588C14.6326 19.0268 14.7255 18.9075 14.852 18.8153C15.0119 18.6998 15.1947 18.6448 15.3782 18.6445C15.6564 18.6449 15.9288 18.7724 16.1043 19.014C16.2204 19.1743 16.2753 19.3569 16.2758 19.5401C16.2754 19.8188 16.1482 20.0909 15.9058 20.2664C15.746 20.3828 15.5629 20.4378 15.3803 20.4382C15.1018 20.4378 14.8296 20.3103 14.6535 20.0683C14.5374 19.908 14.4827 19.7255 14.4825 19.5425C14.4825 19.5425 14.4825 19.5419 14.4823 19.5421V16.3949H13.9045V19.5404C13.9045 19.5409 13.9043 19.5415 13.9043 19.542C13.9044 19.8422 13.9964 20.1469 14.1862 20.4076Z" fill="#4378C4" stroke="#4378C4" stroke-width="0.0727746"/>
<path d="M17.983 20.4076C18.271 20.8048 18.7217 21.0164 19.177 21.0161C19.4769 21.0161 19.7816 20.9235 20.0426 20.7342C20.4392 20.446 20.6508 19.9949 20.6504 19.54C20.6508 19.2401 20.5584 18.9354 20.3686 18.6746C20.0807 18.2782 19.63 18.0661 19.1749 18.0666H19.1731C18.8952 18.0666 18.6147 18.1501 18.3675 18.3129V19.1588C18.4294 19.0268 18.5223 18.9075 18.6487 18.8153C18.8087 18.6998 18.9915 18.6448 19.175 18.6445C19.4532 18.6449 19.7256 18.7724 19.9011 19.014C20.0173 19.1743 20.0721 19.3569 20.0726 19.5401C20.0721 19.8188 19.945 20.0909 19.7027 20.2664C19.5428 20.3828 19.3597 20.4378 19.177 20.4382C18.8986 20.4378 18.6264 20.3103 18.4503 20.0683C18.3342 19.908 18.2795 19.7255 18.2793 19.5425C18.2793 19.5425 18.2793 19.5419 18.2791 19.5421V16.3949H17.7014V19.5404C17.7014 19.5409 17.7012 19.5415 17.7012 19.542C17.7011 19.8422 17.7931 20.1469 17.983 20.4076Z" fill="#4378C4" stroke="#4378C4" stroke-width="0.0727746"/>
<path d="M31.0809 21.0142V19.32C31.0801 18.9471 30.7785 18.6457 30.406 18.6449C30.0337 18.6457 29.7319 18.9471 29.7316 19.32V21.0142H29.1535V19.32C29.1535 18.6278 29.7139 18.0674 30.406 18.067C31.098 18.0674 31.6588 18.6279 31.6588 19.32V21.0142H31.6591H31.0809Z" fill="#4378C4" stroke="#4378C4" stroke-width="0.0727746"/>
<path d="M23.9284 12.0509C23.4387 11.9455 23.2893 12.0162 22.9776 12.1397C22.6662 12.2634 20.6039 13.1414 20.2613 13.265C19.9187 13.3884 19.2094 13.0328 19.2094 13.0328L18.6755 13.2462C18.6755 13.2462 19.2698 13.6551 19.7325 13.8676C14.5123 15.8615 9.78611 16.4927 1.62983 16.4927V16.6237C9.90507 16.6237 14.8258 16.0114 20.1945 13.9856H20.1947C20.2777 13.9609 20.5187 13.8667 20.8323 13.7392C21.3487 13.5348 21.8713 13.3157 22.402 13.0835C22.8598 12.8883 23.2362 12.7239 23.3445 12.6702C23.6559 12.5154 24.1598 12.1007 23.9284 12.0509Z" fill="#4378C4"/>
<path d="M30.1204 22.9724C29.0229 22.9724 28.0483 21.6006 26.9517 21.6006C25.8548 21.6006 24.8795 22.9724 23.7833 22.9724C22.6866 22.9724 21.7125 21.6006 20.6157 21.6006C19.5191 21.6006 18.5444 22.9724 17.4481 22.9724C16.3515 22.9724 15.3768 21.6006 14.2806 21.6006C13.1838 21.6006 12.2096 22.9724 11.113 22.9724C10.0164 22.9724 9.042 21.6006 7.94548 21.6006C6.84881 21.6006 5.87446 22.9724 4.77784 22.9724C4.12554 22.9724 3.51651 22.4878 2.89934 22.0946V22.6883C3.51651 23.1207 4.12554 23.6535 4.77784 23.6535C5.87446 23.6535 6.84881 22.1453 7.94548 22.1453C9.042 22.1453 10.0164 23.6535 11.113 23.6535C12.2096 23.6535 13.1838 22.1453 14.2806 22.1453C15.3768 22.1453 16.3515 23.6535 17.4481 23.6535C18.5444 23.6535 19.5191 22.1453 20.6157 22.1453C21.7125 22.1453 22.6866 23.6535 23.7833 23.6535C24.8795 23.6535 25.8547 22.1453 26.9517 22.1453C28.0484 22.1453 29.0229 23.6535 30.1204 23.6535C30.7728 23.6535 31.3824 23.1203 32 22.6879V22.0942C31.3824 22.4874 30.7728 22.9724 30.1204 22.9724Z" fill="#4378C4" stroke="#0000F5" stroke-width="0.00485164"/>
</g>
<defs>
<linearGradient id="paint0_linear" x1="21.3809" y1="8.99998" x2="21.3809" y2="23.9414" gradientUnits="userSpaceOnUse">
<stop stop-color="#FDE507"/>
<stop offset="0.5055" stop-color="#FDE507"/>
<stop offset="0.589" stop-color="#FED50E"/>
<stop offset="0.7324" stop-color="#FEBF17"/>
<stop offset="0.8714" stop-color="#FFB21D"/>
<stop offset="1" stop-color="#FFAE1F"/>
</linearGradient>
<clipPath id="clip0">
<rect width="32" height="32" fill="white"/>
</clipPath>
</defs>
</svg>
