<svg width="32" height="32" viewBox="0 0 32 32" fill="none" xmlns="http://www.w3.org/2000/svg">
<path d="M0 25.4356C0 25.4356 3.34525 25.0182 7.93664 20.5599L22.9691 4H31.3231L24.3634 25.2965L0 25.4356Z" fill="#DE0038"/>
<path d="M10.4985 19.8248C10.4985 19.8248 10.6135 19.6887 10.7103 19.6887C10.8161 19.6887 10.9099 19.8248 10.9099 19.8248H10.4985ZM25.9333 11.4858C26.0331 11.4798 22.8451 11.3286 21.8228 11.5282C20.7974 11.7248 19.8326 11.8579 18.8889 13.219C17.9452 14.571 17.0922 15.9381 16.5297 16.7215C14.7572 19.1805 14.7572 19.5737 12.7882 19.7492C11.7326 19.8429 11.4513 19.7885 11.1851 19.6645C10.8585 19.5072 10.7042 19.3287 10.2505 19.6887C9.73028 20.1061 9.01344 20.0032 9.03159 20.0667H24.064C24.064 20.0667 24.793 20.0909 25.0501 19.6312L24.675 19.4921C24.675 19.4921 24.5933 19.97 23.0992 19.8278C21.608 19.6887 19.6571 19.3197 19.6571 19.3197L24.2848 12.7864C24.5722 12.4295 24.9654 12.0575 25.3404 11.7248C25.3404 11.7248 23.4712 11.9214 22.6848 13.0617C21.8863 14.2201 18.3414 19.0807 18.3414 19.0807L18.0994 19.0414L22.6273 12.7471C22.6304 12.7441 23.2927 11.6824 25.9333 11.4858Z" fill="white"/>
<path d="M10.7072 19.0625C10.441 19.0625 10.2233 19.4043 10.2233 19.4043H11.2002C11.1972 19.4073 10.9734 19.0625 10.7072 19.0625Z" fill="white"/>
</svg>
