<svg width="32" height="32" viewBox="0 0 32 32" fill="none" xmlns="http://www.w3.org/2000/svg">
<g clip-path="url(#clip0)">
<path fill-rule="evenodd" clip-rule="evenodd" d="M11.0591 28.4132C9.66051 30.5053 8.89974 30.4126 7.64123 30.2742C7.35313 30.2424 7.35699 30.2906 7.22747 30.4991L6.89564 31.0339C6.75043 31.2654 6.76072 31.2951 7.09461 31.4373C9.48366 32.438 11.6582 32.2623 13.4218 29.6073L21.5084 17.4263C22.3139 16.2145 22.6671 15.5626 23.798 15.5105C24.4984 15.477 24.9969 15.9374 25.1339 16.5121C25.1969 16.7918 25.3624 16.8087 25.5281 16.7639L27.6324 16.1337C27.7497 16.101 27.8346 15.9298 27.841 15.7309C27.8698 15.1031 27.496 14.1947 26.9277 13.7499C25.3204 12.5 22.882 12.9316 21.0715 13.2793C18.1645 13.8432 14.5989 14.9962 11.5345 16.5146C10.7355 16.9164 9.83877 17.3269 9.3472 18.0641C8.5009 19.3271 6.1359 22.9817 5.22607 24.2152C3.69733 26.2687 3.06222 26.2008 1.77888 26.0675C1.58724 26.0462 1.56422 26.0714 1.46699 26.2315L1.08602 26.8496C0.957665 27.0601 0.968598 27.0961 1.14828 27.1737C3.58029 28.2345 5.70156 28.2263 7.53383 25.4779L11.3706 19.7158C11.9391 18.8604 12.8791 18.3505 13.5905 18.1067L8.13692 26.2975C6.74323 28.3908 6.0096 28.293 4.75661 28.1613C4.47019 28.1286 4.46646 28.1788 4.34491 28.3777L4.00331 28.9247C3.89668 29.0957 3.83778 29.1609 4.1417 29.2891C6.74323 30.3808 8.79865 30.0654 10.5005 27.4934L17.2176 17.3294C17.57 16.7918 18.4145 16.3661 19.2172 16.1959L11.0591 28.4132ZM24.8137 3.32578C24.1042 3.69954 22.6423 3.87613 22.0413 3.24861C21.3893 4.2652 22.6458 5.22558 24.095 4.68719C24.9433 4.37722 25.832 3.97838 26.7627 3.85028C27.7355 3.71266 28.9019 3.85028 29.3205 4.27227C25.7047 4.49092 21.0715 6.46621 17.6203 8.89913C14.9384 10.7925 13.2669 12.5 11.2498 15.1914C10.9783 15.5719 11.0192 15.8582 11.5049 15.6053C13.8715 14.399 16.9217 13.4021 19.5518 12.7445C21.6536 12.2227 23.8997 11.7319 26.0384 12.3139C27.1194 12.6118 28.1218 13.3138 28.5093 14.3947C29.0135 15.7867 28.628 17.4345 26.9611 17.6923C26.1335 17.8169 25.5883 17.4988 25.2825 17.0645C25.1357 16.8563 25.0622 16.8487 24.9466 16.8851L22.8068 17.5388C22.6856 17.577 22.5271 17.7444 22.6154 17.9571C22.8123 18.4511 23.2717 19.0937 23.7768 19.4692C25.1384 20.4841 26.9211 20.5957 28.4722 19.9894C30.6134 19.155 31.7459 16.9164 31.428 14.5423C31.1338 12.3691 29.5512 10.5705 27.5076 9.87276C25.4527 9.16794 22.6375 9.48035 20.3794 10.3054C19.7834 10.5246 19.6441 10.6149 19.9862 10.3284C21.5897 9.02569 24.8018 7.51431 27.496 6.74313C29.3401 6.21683 31.0437 6.09336 31.5414 6.50068C32.0434 3.42147 29.4871 1.41274 26.3614 2.21145C27.4605 1.51409 26.5929 -0.00538753 25.0137 1.43653e-05C22.4063 0.0148053 19.9183 1.20142 17.4717 1.46856C16.0978 1.6211 14.4787 1.3429 13.3955 0.782132C13.1841 2.93878 15.8079 4.52269 18.3077 4.00076C20.0606 3.63549 21.6881 2.78186 23.3156 2.42174C24.7533 2.09711 25.4926 2.97144 24.8137 3.32578Z" fill="#BA252D"/>
</g>
<defs>
<clipPath id="clip0">
<rect width="32" height="32" fill="white"/>
</clipPath>
</defs>
</svg>
