<svg width="32" height="32" viewBox="0 0 32 32" fill="none" xmlns="http://www.w3.org/2000/svg">
<path d="M0 10.0714C0 10.0714 0.809565 9.99238 1.08751 10.0236C1.40911 10.0603 2.05718 10.3244 2.37879 10.3604C2.64772 10.3909 3.21469 10.5434 3.48362 10.5289C3.8184 10.5108 4.37013 10.1442 4.86224 10.2308C7.44689 10.6862 11.3963 15.3384 14.0184 15.2254C18.7503 15.0217 18.6401 10 19.8926 10H32C24.9011 13.2674 20.0596 16.9063 22.5708 19.0328C24.8692 20.9804 31.7837 18.5524 31.7837 18.5524C31.7837 18.5524 28.9018 21.424 23.9279 21.424C14.3067 21.424 7.84405 13.2431 3.06359 11.2615C2.30463 10.9468 0.856004 10.3417 0 10.0714Z" fill="#439EC5"/>
</svg>
