<svg width="32" height="32" viewBox="0 0 32 32" fill="none" xmlns="http://www.w3.org/2000/svg">
<path d="M31.954 12V19.052H0V12H31.954Z" fill="#FECC00"/>
<path d="M10.3027 14.9468C10.1631 15.1359 9.92945 15.4646 9.78727 15.6566C9.71509 15.7542 9.58473 15.9315 10.0169 15.9315C10.4742 15.9315 12.2924 15.9315 12.2924 15.9315C12.2924 15.9315 12.6591 15.4326 12.9665 15.0153C13.3847 14.4477 13.0027 13.2666 11.5076 13.2666C10.1695 13.2666 5.61964 13.2666 5.61964 13.2666L4.59873 14.6537C4.59873 14.6537 9.89127 14.6537 10.1629 14.6537C10.4438 14.6537 10.44 14.7606 10.3027 14.9468ZM8.63109 16.2737C8.19891 16.2737 8.32927 16.0961 8.40145 15.9984C8.54364 15.8064 8.78109 15.4811 8.92073 15.2921C9.05818 15.1059 9.06182 14.999 8.78055 14.999C8.50909 14.999 6.23582 14.999 6.23582 14.999L4.18545 17.7855C4.18545 17.7855 7.84745 17.7855 9.18564 17.7855C10.8371 17.7855 11.7565 16.6622 12.04 16.2739C12.04 16.2737 9.08818 16.2737 8.63109 16.2737ZM11.8838 17.7855H14.8171L15.9291 16.2735L12.9962 16.2739C12.9953 16.2737 11.8838 17.7855 11.8838 17.7855ZM19.452 13.2666L18.3269 14.7948H17.0178L18.1424 13.2666H15.21L13.2482 15.9315H20.4227L22.384 13.2666H19.452ZM16.1262 17.7855H19.0584L20.1709 16.2739H17.2387C17.2376 16.2737 16.1262 17.7855 16.1262 17.7855ZM0 16.8701V17.1911H4.08509L4.32109 16.8701H0ZM4.76018 16.2737H0V16.5944H4.52364L4.76018 16.2737ZM0 17.7855H3.64745L3.88236 17.4662H0V17.7855ZM27.6495 17.191H31.9542V16.8699H27.8858L27.6495 17.191ZM27.2122 17.7855H31.9542V17.4662H27.4469L27.2122 17.7855ZM28.3242 16.2737L28.0884 16.5948H31.9542V16.2737H28.3242ZM24.4835 15.9315L26.4451 13.2666H23.3395C23.3384 13.2666 21.3764 15.9315 21.3764 15.9315H24.4835ZM21.1249 16.2737C21.1249 16.2737 20.9105 16.5666 20.8064 16.7077C20.4382 17.2051 20.7638 17.7855 21.9656 17.7855C23.354 17.7855 26.6749 17.7855 26.6749 17.7855L27.7875 16.2739H21.1249V16.2737Z" fill="#D50029"/>
</svg>
