<svg width="32" height="32" viewBox="0 0 32 32" fill="none" xmlns="http://www.w3.org/2000/svg">
<path fill-rule="evenodd" clip-rule="evenodd" d="M17.8925 15.4622C17.8925 11.7687 20.8573 8.75366 24.4503 8.75366C28.0935 8.75366 31.0081 11.7939 31.0081 15.4622C31.0081 19.1808 28.0935 22.1707 24.4503 22.1707C20.8573 22.1707 17.8925 19.1808 17.8925 15.4622ZM21.4101 15.4622C21.4101 17.1959 22.792 18.5778 24.4503 18.5778C26.1588 18.5778 27.5156 17.1959 27.4905 15.4622C27.4905 13.7788 26.1588 12.3466 24.4503 12.3466C22.792 12.3466 21.4101 13.7536 21.4101 15.4622Z" fill="#8EBDE7"/>
<path d="M17.7167 20.9144C16.3599 22.2461 14.576 23.0752 12.5659 23.0752C8.49557 23.0752 5.12875 19.633 5.12875 15.4622C5.12875 11.2913 8.49557 7.89937 12.5659 7.89937C14.576 7.89937 16.385 8.67826 17.7167 10.0099C18.6966 8.77876 20.0031 7.77374 21.5357 7.22098C19.3498 4.70842 16.1086 3.15063 12.5659 3.15063C5.88252 3.15063 0.505646 8.70338 0.505646 15.4873C0.505646 22.3214 5.88252 27.8239 12.5659 27.8239C16.1086 27.8239 19.3498 26.2661 21.5357 23.7536C20.0031 23.1506 18.7217 22.1456 17.7167 20.9144Z" fill="#4C4F54"/>
</svg>
