<svg width="32" height="32" viewBox="0 0 32 32" fill="none" xmlns="http://www.w3.org/2000/svg">
<path d="M31.0606 16.454C31.0606 24.8627 24.2435 31.6797 15.8349 31.6797C7.42585 31.6797 0.608826 24.8627 0.608826 16.454C0.608826 8.04497 7.42585 1.22794 15.8349 1.22794C24.2435 1.22794 31.0606 8.04497 31.0606 16.454Z" fill="white"/>
<path d="M20.2989 15.9657C22.3559 17.5855 24.0887 19.1589 25.3432 20.5264C26.5048 20.0378 28.8441 19.1387 30.8699 18.8141C31.3379 15.8683 30.9217 12.8445 29.6927 10.1406L20.2989 15.9657Z" fill="#F9B41D"/>
<path d="M25.7443 27.9717C26.6951 27.1597 27.5592 26.2134 28.3092 25.1392C29.0603 24.0693 29.6512 22.9331 30.0941 21.7608L27.0501 24.2595L25.7443 27.9717Z" fill="#FFD500"/>
<path d="M22.9571 23.9305C21.2452 23.2208 19.173 22.1311 16.9467 20.7529L14.6945 31.5606C17.651 31.792 20.6334 31.1489 23.2398 29.7045C22.8547 27.6993 22.9007 25.1903 22.9571 23.9305Z" fill="#004B95"/>
<path d="M11.5223 30.6447C11.1007 30.1253 11.5276 19.7806 11.641 17.1019C6.46356 13.1736 3.12582 8.97331 3.35793 7.85197C-1.34162 14.7059 0.345134 24.0894 7.17243 28.8601C8.69938 29.9297 10.3553 30.6812 12.0573 31.1226C11.8153 30.9376 11.625 30.7733 11.5223 30.6447Z" fill="#E5362D"/>
<path d="M15.0594 12.2231C17.5277 11.2 27.1118 7.25649 27.7442 7.47718C27.8983 7.52892 28.1246 7.65753 28.3762 7.81696C27.3793 6.36688 26.1091 5.06595 24.5822 3.99675C17.7541 -0.779661 8.3657 0.839744 3.53259 7.60084C4.50401 7.0046 9.59966 8.69591 15.0594 12.2231Z" fill="#008957"/>
</svg>
