<svg width="32" height="32" viewBox="0 0 32 32" fill="none" xmlns="http://www.w3.org/2000/svg">
<g clip-path="url(#clip0)">
<path d="M30.673 10.0041C29.9663 10.0709 29.4776 10.1377 28.5429 10.2963C27.8889 10.4049 23.6137 11.1841 23.3681 11.2369C23.3004 11.2508 19.7721 11.9048 15.532 12.6896C9.83089 13.7442 7.8186 14.1255 7.8186 14.1533C7.8186 14.1978 7.84366 14.1978 8.30226 14.1617C8.49772 14.1477 8.96383 14.1171 9.33471 14.0921C10.074 14.0476 11.9108 13.9279 12.605 13.8834C12.8456 13.8667 13.5297 13.8249 14.1211 13.786C14.715 13.7498 15.3916 13.7053 15.6247 13.6886C15.8602 13.6747 16.2537 13.6468 16.5018 13.6329C17.0355 13.5995 17.8049 13.5467 19.3084 13.4465C20.0552 13.3964 20.6617 13.3713 21.1879 13.3713C21.9497 13.3686 21.9673 13.3686 22.0951 13.4326C22.3382 13.555 22.3331 13.7053 22.07 14.1394C21.9071 14.4121 19.7946 17.3619 19.3987 17.8684C18.7747 18.6726 18.3111 18.9509 17.3789 19.0789C16.9854 19.1317 15.5269 19.1373 13.6826 19.09C13.0285 19.0733 11.9334 19.0483 11.2518 19.0316C10.5702 19.0149 9.21693 18.9843 8.24462 18.962C7.2723 18.9397 5.91407 18.9091 5.22493 18.8924C4.53579 18.8757 3.21265 18.8451 2.28293 18.8229C0.14284 18.77 0 18.77 0 18.8201C0 18.8451 0.0451073 18.8618 0.13031 18.8729C0.202983 18.8813 2.74904 19.2347 5.78878 19.6577C8.82851 20.0807 11.3996 20.4369 11.5024 20.4508C11.6051 20.4647 13.0886 20.6706 14.7977 20.9072C19.6894 21.589 19.5816 21.5751 20.599 21.5751C21.3283 21.5751 21.4084 21.5723 21.6515 21.5138C22.4559 21.319 22.9697 20.974 23.8969 20.0083C24.5559 19.3265 30.8509 12.2972 31.1792 11.8798C31.7731 11.1256 31.9761 10.775 31.9961 10.4633C32.0062 10.313 32.0012 10.2936 31.926 10.2017C31.8082 10.0515 31.6679 10.0153 31.1867 10.0041C30.9662 9.99858 30.7356 9.99858 30.673 10.0041Z" fill="#ED1B24"/>
</g>
<defs>
<clipPath id="clip0">
<rect width="32" height="32" fill="white"/>
</clipPath>
</defs>
</svg>
