<svg width="32" height="32" viewBox="0 0 32 32" fill="none" xmlns="http://www.w3.org/2000/svg">
<path d="M24.6263 11.991C24.987 12.0593 26.1034 12.2803 26.4647 12.3458C26.4894 12.3504 26.5134 12.3584 26.5474 12.3674C26.4085 12.5394 26.2596 12.6922 26.1096 12.8435C25.1435 13.8158 24.0842 14.6797 22.9878 15.4985C21.4934 16.615 19.9323 17.6271 18.282 18.4987C17.0686 19.1393 15.8194 19.6967 14.4982 20.0811C14.207 20.1657 13.9128 20.2388 13.6158 20.3009C13.6007 20.304 13.5834 20.3018 13.575 20.3194C13.5704 20.3629 13.5367 20.3728 13.5028 20.3846C13.4345 20.4083 13.3641 20.4052 13.2941 20.4059C13.1696 20.4071 13.0455 20.4062 12.9208 20.4201C12.8559 20.4272 12.7791 20.4488 12.7278 20.3771C13.0051 20.3333 13.2836 20.2975 13.558 20.236C14.4426 20.0372 15.2769 19.705 16.0812 19.2922C17.5018 18.5626 18.7825 17.6283 20.0027 16.6054C20.9219 15.835 21.7929 15.0125 22.6336 14.1579" fill="#D21C2D"/>
<path d="M12.7278 20.3774C13.0094 20.3472 13.2962 20.3904 13.575 20.3197C13.6624 20.3364 13.7491 20.32 13.8353 20.311C14.1051 20.2836 14.3747 20.2527 14.6442 20.2234C14.6594 20.2138 14.6776 20.2116 14.6847 20.2286C14.6936 20.2505 14.6742 20.2635 14.6572 20.2706C14.6001 20.2947 14.5383 20.3002 14.4784 20.3107C14.3176 20.3394 14.1573 20.3719 13.9955 20.3947C13.4691 20.4775 12.9414 20.5528 12.411 20.6053C11.5625 20.6893 10.7113 20.7359 9.85912 20.7603C8.99059 20.785 8.12206 20.7878 7.25322 20.7717C6.14572 20.751 5.03852 20.7075 3.93255 20.6426C2.91922 20.5831 1.9065 20.5123 0.895321 20.4213C0.863519 20.4185 0.831408 20.4179 0.799606 20.4163L0.799606 19.1313C1.56223 19.2884 2.32702 19.4339 3.0949 19.5638C3.91619 19.7031 4.73995 19.8291 5.56556 19.9393C6.38531 20.0492 7.20691 20.1434 8.03036 20.2187C8.77138 20.2863 9.51363 20.3364 10.2571 20.3682C10.9592 20.3984 11.6616 20.4027 12.3644 20.3932C12.4857 20.3916 12.6067 20.383 12.7278 20.3774Z" fill="#AB1B2C"/>
<path d="M28.9538 12.6488C29.1359 12.6608 29.5744 12.704 29.6086 12.7071C30.4485 12.7828 30.7415 12.7988 31.5813 12.8726C31.6733 12.881 31.7872 12.8924 31.8811 12.9004C31.7894 12.9757 31.8156 12.9557 31.7894 12.9757C30.5917 13.8906 29.3264 14.7032 28.0235 15.4585C25.752 16.7744 23.3829 17.88 20.9036 18.7461C19.0307 19.4 17.1198 19.9064 15.161 20.2278C14.7735 20.2914 14.3864 20.3559 13.9955 20.3945C14.1869 20.3507 14.3783 20.3068 14.5698 20.2627C14.5972 20.2562 14.6241 20.2463 14.651 20.2377C14.6516 20.2374 14.6519 20.2318 14.6506 20.2297C14.6494 20.2269 14.6466 20.2253 14.6442 20.2232C14.8943 20.1747 15.1453 20.129 15.3947 20.0777C16.8959 19.769 18.3387 19.2799 19.7396 18.6627C21.8595 17.7287 23.8247 16.5298 25.7016 15.18" fill="#D21C2D"/>
</svg>
