<svg width="32" height="32" viewBox="0 0 32 32" fill="none" xmlns="http://www.w3.org/2000/svg">
<g clip-path="url(#clip0)">
<path fill-rule="evenodd" clip-rule="evenodd" d="M-0.668246 0.172607V32.1726H32.3318V0.172607H-0.668246ZM27.9324 15.321C27.2816 15.9718 25.3306 16.8081 24.216 17.0864C22.5434 17.5501 21.6127 17.4574 21.0562 17.6429C21.2417 17.7372 22.8232 18.1994 23.5652 19.5026C23.7507 19.8737 23.7507 20.5245 23.1942 20.71C21.9853 21.1769 20.4997 20.339 20.2199 20.1535C21.2417 22.5697 21.9869 23.4045 23.7523 25.5425C24.3088 26.1933 24.2176 27.2152 22.8232 27.124C20.6852 26.8442 17.6181 24.1481 16.8745 22.1987C16.689 23.3133 16.5963 23.8698 16.1309 24.3352C15.8527 24.7062 15.3874 24.615 15.2019 24.3352C14.8309 23.8683 14.6454 22.1987 14.6454 22.1987C14.6454 22.1987 12.4146 25.3586 9.25476 26.8442C7.86034 27.495 7.67484 26.5643 7.9531 26.2861C8.60393 25.3586 9.16201 24.2408 9.53302 23.3133C9.90402 22.4754 10.0895 21.2681 11.3912 19.9664C10.0895 20.3374 8.69668 20.2462 8.04585 19.9664C7.39502 19.7825 7.39502 19.3156 7.58052 18.9446C8.1386 18.201 9.62577 17.5501 11.1129 17.1791C8.1386 16.8081 7.48777 16.1573 5.72234 15.7863C4.42068 15.508 3.67867 15.3225 3.39884 14.95C3.30609 14.7645 3.21334 14.2064 3.86417 13.8354C4.515 13.6499 7.39502 12.999 8.69668 12.8135C9.25476 12.7208 10.5564 12.441 11.5783 13.6499C10.9274 11.9772 9.99835 10.7683 9.44026 9.84077C9.06769 9.18994 9.44026 8.72618 10.1838 8.91168C11.0202 9.00444 12.5074 10.2133 13.8074 11.5134C13.9002 11.7005 14.1785 11.6078 14.1785 11.4207C15.0148 9.00444 14.8293 7.98102 14.922 5.28652C14.922 4.45018 15.5729 3.61384 16.5947 4.63568C18.0819 6.30835 18.1746 9.56094 17.8964 12.3482C18.5472 11.6046 19.3835 10.9538 20.3126 10.49C22.5418 9.46819 22.2636 10.9538 21.8925 11.6989C21.6127 12.2555 21.2417 13.0934 20.1271 13.8354C20.2199 13.9297 21.0562 13.3716 22.3563 13.2789C23.658 13.2789 24.029 13.3716 25.7016 13.4644C26.7235 13.5571 27.1888 13.5571 27.7469 13.5571C28.3962 13.5555 29.1413 14.2064 27.9324 15.321Z" fill="#D62A40"/>
<path fill-rule="evenodd" clip-rule="evenodd" d="M15.3528 3.91084C14.9016 4.09792 14.5998 4.64971 14.5998 5.28325L14.5667 6.72797C14.54 8.37235 14.5164 9.39261 13.9112 11.1863C12.8784 10.1503 11.2576 8.70248 10.2184 8.58772C9.76882 8.47296 9.35695 8.57357 9.129 8.87384C9.02367 9.01218 8.97022 9.17881 8.97022 9.36117C8.97022 9.55925 9.03467 9.77777 9.16044 9.99786C9.16358 10.0041 9.63834 10.7509 9.63834 10.7509C9.98105 11.2775 10.3662 11.9268 10.7341 12.6389C9.91974 12.2946 9.12585 12.411 8.71083 12.4817C7.32113 12.6814 4.43011 13.3353 3.77456 13.524C3.19447 13.8478 3.01054 14.2849 3.01054 14.6496C3.01054 14.8194 3.04984 14.9734 3.10958 15.0929C3.49788 15.618 4.32793 15.816 5.65317 16.1006C5.65475 16.1006 7.32899 16.6021 7.32899 16.6021C7.9531 16.8253 8.76428 17.0533 9.78926 17.2592C8.8979 17.5783 7.83991 18.0609 7.32113 18.7511C7.20637 18.9743 7.15292 19.1771 7.15292 19.3642C7.15292 19.49 7.1765 19.6047 7.22366 19.7132C7.30541 19.8987 7.50034 20.1486 7.95624 20.2776C8.50017 20.5134 9.56446 20.559 10.6759 20.3876C10.0565 21.1925 9.69022 21.9549 9.46542 22.5822L9.2359 23.1843C8.81301 24.2391 8.25022 25.2987 7.68742 26.102C7.57423 26.2105 7.51449 26.3834 7.51449 26.5674C7.51449 26.7293 7.56165 26.8991 7.66069 27.0406C7.80375 27.2449 8.25965 27.6631 9.38839 27.138C11.7779 26.014 13.6172 23.9986 14.4378 22.9909C14.5353 23.5443 14.6941 24.2187 14.9472 24.5378C15.0855 24.7469 15.3575 24.8963 15.6405 24.9025C15.9297 24.912 16.2001 24.7752 16.3856 24.53C16.7441 24.1715 16.895 23.6795 17.0223 23.0617C18.1463 24.9497 20.7434 27.1773 22.7776 27.443C23.7774 27.509 24.1453 27.0783 24.2774 26.8142C24.4974 26.374 24.3858 25.7939 23.9928 25.3349C23.996 25.338 23.7319 25.0205 23.7319 25.0205C22.3909 23.3997 21.6725 22.4879 20.8927 20.8435C21.5467 21.1045 22.4648 21.3355 23.3058 21.0117C23.3058 21.0023 23.9064 20.4536 23.9064 20.4536L23.8529 19.3595C23.3844 18.5389 22.7053 18.0987 22.1126 17.7937C22.3815 17.745 24.3025 17.3975 24.3025 17.3975C25.3904 17.1256 27.4419 16.2688 28.1619 15.5504C28.7341 15.0222 28.9024 14.582 28.9024 14.2471C28.9024 14.1151 28.8756 13.9987 28.8363 13.8997C28.6555 13.4391 28.1603 13.2332 27.7485 13.2332L25.7331 13.1404C25.7221 13.1404 24.2585 13.0398 24.2585 13.0398L22.3594 12.9549C22.3469 12.9549 21.7746 13.0948 21.2449 13.2237C21.6615 12.7458 21.9617 12.2852 22.1346 11.9346C22.3296 11.5448 22.4648 11.1235 22.4648 10.7572C22.4648 10.4931 22.394 10.2557 22.2227 10.0796C21.8532 9.69602 21.1835 9.73375 20.179 10.1959C19.4448 10.5622 18.8427 11.1187 18.2548 11.6737C18.2941 11.1345 18.3413 10.5984 18.3413 10.0293C18.3413 7.92431 18.0017 5.73129 16.8352 4.42019C16.1781 3.7615 15.6672 3.78194 15.3528 3.91084ZM14.0904 11.9205C14.3309 11.8639 14.4991 11.658 14.4991 11.419C15.1673 9.54668 15.183 8.49025 15.2113 6.74055L15.2443 5.29583C15.2443 4.92639 15.3968 4.59155 15.5996 4.50823C15.7851 4.4312 16.0649 4.56168 16.3668 4.86351C17.8162 6.49374 17.8256 9.81707 17.5757 12.3166C17.5615 12.4566 17.6401 12.5886 17.7675 12.6436C17.8964 12.6987 18.0457 12.6656 18.1369 12.5603C18.7736 11.834 19.5753 11.2178 20.4557 10.7776C21.2417 10.4176 21.6504 10.4176 21.7589 10.5292C21.8878 10.6613 21.8171 11.1313 21.6049 11.5542C21.292 12.183 20.9289 12.9125 19.9479 13.5664C19.8677 13.6199 19.8174 13.7063 19.8064 13.8007C19.7954 13.895 19.83 13.9909 19.8976 14.0601C20.08 14.2456 20.2938 14.1607 20.6176 14.0349L22.3799 13.5979C22.3799 13.5994 24.205 13.6828 24.205 13.6828L25.6844 13.7849C25.6733 13.7849 27.7469 13.8777 27.7469 13.8777C27.9403 13.8777 28.1698 13.9673 28.2358 14.1355C28.2484 14.1685 28.2547 14.2047 28.2547 14.2456C28.2547 14.4625 28.0613 14.7659 27.7139 15.0866C27.1385 15.662 25.2693 16.4936 24.1374 16.7766C24.1296 16.7781 21.891 17.1837 21.891 17.1837L20.954 17.3409C20.811 17.3645 20.7921 17.5029 20.778 17.6459C20.778 17.6522 20.778 17.6569 20.778 17.6632C20.778 17.8016 20.943 17.9493 21.0735 17.9996C21.4744 18.1553 22.6943 18.6269 23.287 19.6644C23.287 19.6644 23.287 19.6676 23.287 19.6755C23.287 19.7541 23.3184 20.2068 23.3184 20.2068L23.0952 20.4065C22.1048 20.7885 20.8125 20.1628 20.3991 19.8877C20.2796 19.8091 20.1255 19.8185 20.0155 19.9097C19.9055 20.0009 19.8693 20.1518 19.9243 20.2823C20.9116 22.6168 21.6426 23.5003 23.2414 25.4308L23.5039 25.7499C23.7256 26.0077 23.8057 26.3253 23.7051 26.5265C23.6014 26.7356 23.2948 26.833 22.8436 26.8047C20.7952 26.5359 17.8571 23.8744 17.1748 22.0854C17.1229 21.9502 16.9861 21.8653 16.8415 21.8795C16.6969 21.8952 16.579 22.0037 16.5554 22.1483C16.3762 23.2252 16.2944 23.7156 15.9014 24.1102C15.8118 24.2234 15.7411 24.2627 15.6609 24.2612C15.5854 24.2596 15.5084 24.2187 15.4691 24.1605C15.238 23.8666 15.0368 22.8211 14.9645 22.1656C14.9503 22.032 14.8544 21.9235 14.7255 21.8889C14.595 21.8559 14.4583 21.9109 14.3812 22.0147C14.3592 22.0461 12.1599 25.1242 9.11642 26.5548C8.5269 26.8315 8.25965 26.7607 8.19362 26.6758C8.19834 26.6695 8.21091 26.4793 8.21563 26.4715C8.80515 25.6304 9.39467 24.5237 9.83013 23.4342C9.82699 23.4437 10.0738 22.7991 10.0738 22.7991C10.3363 22.065 10.6633 21.15 11.6176 20.1958C11.7213 20.0936 11.7418 19.9317 11.6663 19.8059C11.5924 19.6786 11.4415 19.6189 11.3016 19.6582C10.1131 19.9993 8.77685 19.9333 8.17161 19.6723C8.01283 19.6251 7.86192 19.5623 7.81318 19.4522C7.80061 19.4224 7.79432 19.3893 7.79432 19.3532C7.79432 19.2762 7.81947 19.1865 7.86663 19.0906C8.29109 18.5341 9.6069 17.8896 11.1884 17.4934C11.3315 17.4573 11.4321 17.3284 11.4321 17.1806C11.4321 17.1743 11.4321 17.168 11.4321 17.1617C11.4226 17.0061 11.3032 16.8803 11.1507 16.8615C9.33965 16.6351 8.42786 16.3097 7.54436 15.9968L5.7868 15.4733C4.67692 15.236 3.8736 15.0442 3.65823 14.7596C3.65823 14.7533 3.64565 14.7125 3.64565 14.6496C3.64565 14.5191 3.6991 14.3006 4.02295 14.1167C4.57789 13.9673 7.46261 13.3165 8.7407 13.1341C9.39625 13.0225 10.4684 12.8401 11.3315 13.8588C11.4321 13.9783 11.6066 14.0082 11.7418 13.9264C11.877 13.8463 11.9351 13.6796 11.877 13.5334C11.3739 12.2412 10.7105 11.2209 10.1776 10.4019L9.71537 9.67401C9.59433 9.46336 9.59904 9.3203 9.64149 9.26528C9.69179 9.19925 9.85372 9.16152 10.1037 9.22283C10.7859 9.30144 12.1018 10.2635 13.5779 11.7397C13.6251 11.867 13.8546 11.9755 14.0904 11.9205ZM11.4792 20.2776C11.4494 20.2854 11.4195 20.2901 11.3912 20.2901C11.4211 20.2807 11.4494 20.2838 11.4792 20.2776Z" fill="#3B5FA4"/>
<path fill-rule="evenodd" clip-rule="evenodd" d="M15.8511 19.1316L17.6181 18.017L17.8964 15.4137L15.9439 13.8337L13.3421 15.2282L13.4349 18.1082L15.8511 19.1316Z" fill="#6C6B84" stroke="white" stroke-width="0.1773"/>
<path fill-rule="evenodd" clip-rule="evenodd" d="M17.1528 15.0426C17.8964 15.3224 18.64 15.0426 18.9198 14.3918C19.1053 13.7409 18.7343 12.9974 17.9907 12.7191C17.2471 12.4393 16.4108 12.7191 16.2253 13.3699C15.9439 14.0192 16.3165 14.7628 17.1528 15.0426ZM14.8293 14.7628C15.4801 14.299 15.7584 13.4611 15.4801 12.9974C15.2019 12.4393 14.3655 12.4393 13.6219 12.9046C12.9711 13.3684 12.6001 14.2063 12.9711 14.67C13.2494 15.2281 14.0857 15.2281 14.8293 14.7628ZM13.6219 16.6209C13.5292 15.7846 12.9711 15.041 12.413 15.1354C11.7622 15.1354 11.2984 15.8789 11.3912 16.808C11.3912 17.6444 11.9493 18.2952 12.6001 18.2952C13.2494 18.2024 13.7147 17.4589 13.6219 16.6209ZM14.6438 18.3879C13.8074 18.0169 12.8768 18.2952 12.5985 18.8517C12.3203 19.5953 12.784 20.3373 13.6204 20.7099C14.4567 21.0824 15.3858 20.8969 15.664 20.2461C15.9423 19.5953 15.4801 18.7605 14.6438 18.3879ZM20.0328 16.808C20.1271 15.8789 19.6618 15.041 19.011 14.9483C18.3633 14.7628 17.7156 15.5032 17.5269 16.4276C17.5238 15.6258 17.027 14.8885 16.2237 14.67C15.2946 14.3918 14.1785 14.9483 13.9002 15.9717C13.5292 16.9935 14.0857 18.1081 15.1091 18.3879C16.0382 18.7605 17.1528 18.1081 17.4326 17.0863C17.5096 16.8725 17.5254 16.6571 17.5254 16.4449C17.4436 17.2922 17.758 18.0327 18.3082 18.2276C17.8618 18.0169 17.2534 18.0515 16.7818 18.3879C16.0382 18.7605 15.7599 19.688 16.1309 20.2461C16.5035 20.8969 17.3399 20.9897 18.0834 20.5259C18.827 20.0622 19.0125 19.2243 18.7343 18.5734C18.6462 18.443 18.5236 18.3424 18.3853 18.2637C18.4104 18.27 18.4277 18.292 18.4545 18.2968C19.1965 18.3879 19.8473 17.7371 20.0328 16.808Z" fill="#FFEA00"/>
<path fill-rule="evenodd" clip-rule="evenodd" d="M12.718 14.8714V14.8667C12.718 14.8682 12.718 14.8682 12.718 14.8682C12.718 14.8698 12.718 14.8698 12.718 14.8714ZM19.1194 14.6544C19.1477 14.6057 19.1902 14.5711 19.2138 14.5192C19.4653 13.6483 18.9701 12.7412 18.1007 12.4158C17.6024 12.2287 17.0427 12.2507 16.6041 12.4693L15.9124 13.2804C15.8999 13.3087 15.9046 13.3402 15.8936 13.3701C15.8841 13.1783 15.848 12.9912 15.7537 12.8324C15.7521 12.8434 15.0761 12.2963 15.0761 12.2963C14.6045 12.1643 13.9945 12.29 13.4474 12.6312C12.9334 12.9959 12.5812 13.532 12.5105 14.0398C12.5105 14.0398 12.7133 14.8604 12.7149 14.8667C12.718 14.8635 12.7683 14.8997 12.8375 14.9515C12.6174 14.8902 12.3627 14.8195 12.3596 14.8179C12.3596 14.8368 11.517 15.2267 11.517 15.2267C11.2167 15.5584 11.0548 16.0378 11.0548 16.5708C11.0548 16.6604 11.0595 16.7484 11.0689 16.8412V16.8443C11.0689 17.7372 11.6663 18.4682 12.4225 18.5767C12.3894 18.6239 12.3344 18.6569 12.3093 18.7088C11.9666 19.6158 12.457 20.5434 13.4883 21.0055C14.0558 21.2571 14.6909 21.2917 15.1877 21.0967L15.8857 20.4443C15.9612 20.4946 16.7456 21.0904 16.7456 21.0904C17.222 21.2099 17.7549 21.1093 18.2501 20.7996C19.1352 20.2478 19.3112 19.2731 19.0503 18.5484C19.6728 18.3393 20.1774 17.7168 20.3456 16.8726C20.3551 16.7751 20.3598 16.6792 20.3598 16.5865C20.3629 15.6071 19.841 14.8022 19.1194 14.6544ZM16.5192 13.4974C16.5334 13.4581 16.8965 13.0462 16.8965 13.0462C17.1764 12.9047 17.5427 12.8953 17.8775 13.0211C18.434 13.2301 18.7563 13.7914 18.6101 14.3023C18.412 14.755 17.8413 14.9547 17.266 14.7393C17.2628 14.7377 17.2597 14.7362 17.255 14.7346C16.906 14.6198 16.6466 14.4045 16.5255 14.1341C16.4312 13.9281 16.4296 13.7065 16.5192 13.4974ZM17.5678 15.4436C17.5647 15.4483 17.5631 15.4546 17.5599 15.4593C17.5568 15.4515 17.5474 15.4467 17.5427 15.4373C17.5505 15.4389 17.5584 15.442 17.5678 15.4436ZM17.4483 17.8111C17.4153 17.8158 17.3807 17.808 17.3477 17.8143C17.3697 17.7828 17.3902 17.753 17.4106 17.7215C17.4216 17.7514 17.4326 17.7844 17.4483 17.8111ZM15.8307 13.9093C15.8433 14.0728 15.8653 14.2394 15.9376 14.3998C15.9376 14.4013 15.9392 14.4013 15.9392 14.4013C15.8307 14.3903 15.7238 14.3683 15.6137 14.3746C15.7065 14.2221 15.782 14.068 15.8307 13.9093ZM16.1514 14.9107C16.5743 15.0254 16.9138 15.3037 17.1166 15.692C17.1999 15.8539 17.233 16.03 17.2581 16.206C17.244 16.2626 17.222 16.3161 17.2094 16.3727C17.1984 16.4843 17.1921 16.5975 17.1921 16.706C17.1921 16.7673 17.211 16.8207 17.2141 16.8805C17.2031 16.9198 17.211 16.9638 17.1968 16.9999C17.0663 17.4747 16.7378 17.8724 16.3102 18.0831C15.9407 18.267 15.5461 18.2922 15.2003 18.1538L15.1736 18.1444C14.757 18.0312 14.4158 17.7545 14.2146 17.3647C14.0071 16.9638 13.9772 16.4859 14.1344 16.0551C14.2476 15.6417 14.5117 15.3163 14.8733 15.0993C14.9157 15.0773 14.9582 15.0616 15.0006 15.0349C15.3701 14.8541 15.7835 14.7991 16.1514 14.9107ZM13.809 13.1657C14.1816 12.9346 14.6076 12.834 14.9047 12.9173L15.1924 13.1421C15.238 13.2191 15.26 13.3166 15.26 13.4266C15.26 13.7646 15.0415 14.208 14.6454 14.4956C14.2586 14.7315 13.8389 14.8336 13.5449 14.7503L13.2572 14.5255C13.2211 14.4689 13.1503 14.1278 13.1503 14.1278C13.1975 13.8008 13.46 13.4141 13.809 13.1657ZM13.787 17.6146C13.8467 17.7278 13.9442 17.808 14.0212 17.9054C13.8845 17.8944 13.7571 17.9227 13.6267 17.9353C13.6895 17.8363 13.7398 17.7294 13.787 17.6146ZM13.4789 15.3854C13.6157 15.4122 13.7603 15.4169 13.9112 15.4059C13.8373 15.5301 13.7619 15.6527 13.7147 15.7926C13.6487 15.6433 13.5701 15.5065 13.4789 15.3854ZM12.5749 17.9605C12.1065 17.94 11.7119 17.4275 11.7119 16.8081C11.7056 16.7343 11.7009 16.6604 11.7009 16.5881C11.7009 16.1998 11.8062 15.8681 11.9964 15.659L12.413 15.4562C12.4665 15.453 12.7589 15.5521 12.7589 15.5521C13.0324 15.758 13.2509 16.2029 13.3012 16.6572C13.3075 16.7154 13.3107 16.772 13.3107 16.8286C13.3107 17.3961 12.9978 17.8819 12.5749 17.9605ZM15.3685 20.1189L14.9535 20.4946C14.6139 20.6283 14.1643 20.5984 13.7508 20.4144C13.155 20.1503 12.6614 19.5986 12.8988 18.965C13.0812 18.6034 13.8342 18.3818 14.5117 18.6805C15.0604 18.9241 15.4235 19.4115 15.4235 19.8422C15.4235 19.9397 15.4062 20.0324 15.3685 20.1189ZM15.8165 19.0216C15.7521 18.91 15.6625 18.8094 15.5744 18.7088C15.7128 18.7166 15.8464 18.7072 15.9863 18.682C15.9156 18.7842 15.8668 18.9037 15.8165 19.0216ZM17.9121 20.2525C17.5741 20.4632 17.2078 20.5418 16.906 20.4663L16.4092 20.0875C16.285 19.8988 16.2583 19.6614 16.3227 19.4162C16.4076 19.1002 16.6324 18.8235 16.9248 18.6758C17.2424 18.4525 17.6008 18.3723 17.9262 18.4321L18.4655 18.7528C18.5142 18.8707 18.5425 19.0137 18.5425 19.1647C18.5425 19.5372 18.3711 19.9664 17.9121 20.2525ZM18.4985 17.9762C18.107 17.9196 17.8319 17.3757 17.8319 16.7123C17.8319 16.6321 17.8366 16.5488 17.8445 16.4686C17.9435 15.9812 18.2139 15.5222 18.5299 15.3304L18.9229 15.2581C19.4386 15.3351 19.7876 16.0394 19.7137 16.7767C19.5612 17.525 19.0487 18.0422 18.4985 17.9762Z" fill="#3B5FA4"/>
</g>
<defs>
<clipPath id="clip0">
<rect width="32" height="32" fill="white"/>
</clipPath>
</defs>
</svg>
