<svg width="32" height="32" viewBox="0 0 32 32" fill="none" xmlns="http://www.w3.org/2000/svg">
<path fill-rule="evenodd" clip-rule="evenodd" d="M1.79215 16.3561H5.06545L5.12868 16.1712C5.32114 15.6084 5.38506 15.1515 5.32045 14.8003C5.25584 14.4491 5.0786 14.1811 4.78849 13.9962C4.49838 13.8114 4.04818 13.7188 3.438 13.7188C2.6858 13.7188 2.02554 13.9253 1.45744 14.3381C0.889347 14.7509 0.491177 15.2911 0.262932 15.9584C0.102498 16.4276 0.0692215 16.8357 0.163332 17.1828C0.257329 17.5302 0.439033 17.7834 0.70833 17.9428C0.977626 18.1023 1.39455 18.1821 1.95933 18.1821C2.60964 18.1821 3.14069 18.0888 3.55247 17.9023C3.96425 17.7158 4.36665 17.4078 4.75979 16.9784L3.19547 16.8296C3.05001 16.959 2.92457 17.0493 2.81925 17.1005C2.64795 17.1814 2.48226 17.2219 2.32262 17.2219C2.06979 17.2219 1.89644 17.1293 1.80278 16.944C1.73497 16.8153 1.73143 16.6193 1.79215 16.3561ZM3.64727 14.8912C3.73772 15.0282 3.74481 15.2548 3.66854 15.5717H2.06453C2.17831 15.3167 2.30673 15.1247 2.44955 14.9958C2.67482 14.7892 2.91679 14.6858 3.17557 14.6858C3.39958 14.6858 3.5567 14.7542 3.64727 14.8912Z" fill="#FF0000"/>
<path d="M9.72868 18.0873H8.2005L8.43732 17.395C8.11279 17.6788 7.81433 17.8808 7.54172 18.0014C7.26911 18.1218 6.96425 18.182 6.62714 18.182C6.17762 18.182 5.87139 18.0472 5.70799 17.7777C5.54458 17.5084 5.55876 17.0933 5.75052 16.5326L6.68054 13.8135H8.32434L7.52056 16.1634C7.42885 16.4318 7.41307 16.6223 7.47322 16.7348C7.53337 16.8474 7.6531 16.9038 7.83194 16.9038C8.02668 16.9038 8.21182 16.8289 8.38734 16.6785C8.56287 16.5284 8.71725 16.2588 8.85024 15.8697L9.5535 13.8135H11.1902L9.72868 18.0873Z" fill="#FF0000"/>
<path d="M12.2075 13.8134H13.7388L13.499 14.5145C13.7498 14.2117 13.9731 14.0035 14.1687 13.8896C14.3641 13.7757 14.5772 13.7188 14.8076 13.7188C15.0485 13.7188 15.287 13.7933 15.5225 13.9423L14.6169 15.1107C14.4515 15.0304 14.3126 14.9901 14.2002 14.9901C13.9859 14.9901 13.7895 15.0786 13.6113 15.2555C13.3572 15.505 13.1134 15.9716 12.8794 16.6553L12.3896 18.0872H10.7457L12.2075 13.8134Z" fill="#FF0000"/>
<path fill-rule="evenodd" clip-rule="evenodd" d="M16.1301 14.3521C15.5462 14.7743 15.143 15.3111 14.9202 15.9624C14.6809 16.6621 14.7473 17.2277 15.1194 17.6593C15.4235 18.0077 15.9185 18.182 16.6044 18.182C17.3733 18.182 18.047 17.9722 18.626 17.5527C19.2047 17.1333 19.6066 16.5951 19.8312 15.9383C20.0312 15.354 20.0238 14.862 19.8095 14.4626C19.5424 13.9667 18.9815 13.7188 18.1269 13.7188C17.3794 13.7188 16.7137 13.93 16.1301 14.3521ZM16.5079 16.8003C16.4164 16.6186 16.4356 16.3381 16.5654 15.9585C16.6932 15.5845 16.866 15.3059 17.0838 15.1226C17.3014 14.9397 17.529 14.8481 17.7669 14.8481C17.9912 14.8481 18.1488 14.9383 18.2395 15.1186C18.3301 15.2992 18.3123 15.5736 18.1862 15.9424C18.0508 16.3381 17.877 16.6253 17.6649 16.8043C17.4525 16.9835 17.229 17.0729 16.9939 17.0729C16.7614 17.0729 16.5994 16.9821 16.5079 16.8003Z" fill="#FF0000"/>
<path d="M23.1831 13.8134H23.9622L23.5528 15.0103H22.7738L21.7215 18.0873H20.0777L21.13 15.0103H20.5224L20.9318 13.8134H21.5393L21.6053 13.6204C21.6649 13.4462 21.7492 13.2546 21.8583 13.0456C21.9672 12.8366 22.0961 12.6659 22.2448 12.5331C22.3934 12.4006 22.575 12.2934 22.7895 12.2116C23.0039 12.1298 23.291 12.0889 23.6505 12.0889C23.9376 12.0889 24.3433 12.1224 24.8679 12.1894L24.3484 13.1784C24.1639 13.1463 24.0114 13.1303 23.8908 13.1303C23.7434 13.1303 23.6292 13.1551 23.548 13.2046C23.4667 13.2542 23.3946 13.3324 23.3311 13.4396C23.2975 13.4987 23.2483 13.6231 23.1831 13.8134Z" fill="#FF0000"/>
<path d="M25.1752 12.1904H26.819L24.8022 18.0872H23.1584L25.1752 12.1904Z" fill="#FF0000"/>
<path d="M26.8323 13.8135H28.5611L28.4714 16.6585L30.2589 13.8135H31.8709L28.6171 18.3824C28.2467 18.9012 27.9298 19.2516 27.6666 19.4333C27.2947 19.69 26.818 19.8184 26.2365 19.8184C26.0006 19.8184 25.6473 19.7861 25.1761 19.7215L25.4388 18.5775C25.6491 18.6518 25.8988 18.6891 26.1883 18.6891C26.3813 18.6891 26.5524 18.6452 26.7015 18.5576C26.8507 18.4697 27.0055 18.3128 27.166 18.087L26.8323 13.8135Z" fill="#FF0000"/>
</svg>
