<svg width="32" height="32" viewBox="0 0 32 32" fill="none" xmlns="http://www.w3.org/2000/svg">
<path d="M4.7835 14.0275L4.61856 14.7423H2.33677C2.33677 14.7423 1.73196 14.9347 1.62199 15.4021H4.59107L4.39863 16.1993H1.51203C1.51203 16.1993 1.40206 16.7216 1.97938 16.9141H4.28866L4.17869 17.6289H0.852234C0.852234 17.6289 0 17.244 0 16.5567L0.274914 15.1271C0.274914 15.1271 0.494845 14.2749 1.42955 14L4.7835 14.0275Z" fill="#24409A"/>
<path d="M4.50287 17.6195L4.92096 15.0171C4.92096 15.0171 5.01256 14.3206 6.0756 14.009H8.32989C8.32989 14.009 9.28296 14.3389 9.20962 15.1637L8.82815 17.6195H7.38023L7.61512 16.1717H6.22218L5.96563 17.5646L4.50287 17.6195Z" fill="#24409A"/>
<path d="M6.33216 15.4387C6.33216 15.4387 6.31379 14.724 7.12028 14.6873C7.12028 14.6873 7.87179 14.7238 7.74346 15.4203L6.33216 15.4387Z" fill="white"/>
<path d="M14.2268 14.0413L14.0894 14.7561H11.7388C11.7388 14.7561 11.134 14.8523 11.0653 15.4846H13.0722C13.0722 15.4846 13.787 15.6771 13.8007 16.5293L13.5808 17.6197H9.26462L9.4708 16.9142H12.3024C12.3024 16.9142 12.4399 16.3094 11.9175 16.1857H9.56702C9.56702 16.1857 9.29211 14.4262 10.8316 14.0276L14.2268 14.0413Z" fill="#24409A"/>
<path d="M17.4708 14.0137H18.9141L18.4605 16.7353C18.4605 16.7353 18.1166 17.5278 17.4294 17.6196H15.3814L15.6014 16.8728H16.4536C16.4536 16.8728 17.1272 16.8453 17.1272 16.1992H15.1203C15.1203 16.1992 14.488 15.7731 14.4193 15.3608L14.543 14.0137H16L15.9038 15.0583C15.9038 15.0583 16 15.4157 16.2749 15.4707H17.2234L17.4708 14.0137Z" fill="#24409A"/>
<path d="M30.465 14.0137H31.9083L31.4547 16.7353C31.4547 16.7353 31.1108 17.5278 30.4238 17.6196H28.3757L28.5956 16.8728H29.4478C29.4478 16.8728 30.1214 16.8453 30.1214 16.1992H28.1145C28.1145 16.1992 27.4822 15.7731 27.4135 15.3608L27.5372 14.0137H28.9942L28.898 15.0583C28.898 15.0583 28.9942 15.4157 29.2691 15.4707H30.2176L30.465 14.0137Z" fill="#FE7611"/>
<path d="M18.7765 17.6196L19.2027 14.9484C19.2027 14.9484 19.4777 14.1236 20.3574 14.0137H23.6838L23.5739 14.7559H21.2646C21.2646 14.7559 20.646 14.8247 20.5636 15.457H23.4639L23.3677 16.1717H20.4399L20.22 17.6196H18.7765Z" fill="#FE7611"/>
<path d="M24.3161 14.0137H25.7457L25.3608 16.5016C25.3608 16.5016 25.3883 16.8315 25.7732 16.8865H27.4502L27.3403 17.6196H24.6322C24.6322 17.6196 23.9038 17.3814 23.9038 16.7353L24.3161 14.0137Z" fill="#FE7611"/>
</svg>
