<svg width="32" height="32" viewBox="0 0 32 32" fill="none" xmlns="http://www.w3.org/2000/svg">
<g clip-path="url(#clip0)">
<path fill-rule="evenodd" clip-rule="evenodd" d="M32 24.061H26.7868C25.7384 24.061 25.3646 23.5966 25.0047 23.1496C24.6875 22.7555 24.3811 22.3749 23.6331 22.3378L13.6528 21.8772C11.1093 21.7511 10.4826 21.338 8.96709 19.2651L22.2878 20.4931C23.0634 20.5687 23.4367 21.0243 23.8045 21.4732C24.1789 21.9301 24.5476 22.38 25.3288 22.4158C27.1326 22.4992 27.6252 22.5224 28.385 22.5582L28.3852 22.5582C28.781 22.5768 29.2493 22.5989 30.0133 22.6347C30.9274 22.6778 31.3787 23.2599 31.9013 23.934L31.9014 23.9342C31.934 23.9762 31.9668 24.0185 32 24.061ZM21.1454 16.694C20.2847 16.5348 19.8071 15.9467 19.3238 15.3515C18.8506 14.7689 18.3719 14.1794 17.5229 13.9791L5.89904 11.2831C2.56548 10.509 1.82792 9.50013 0.0786918 7.10755L0 6.99992L15.606 11.3652C16.5313 11.6243 17.0424 12.2764 17.547 12.9203C18.0595 13.5743 18.5654 14.2198 19.492 14.4362L24.5226 15.6026C25.5822 15.8484 26.1641 16.5961 26.9453 17.5998C26.9977 17.6671 27.051 17.7357 27.1054 17.8053C26.5076 17.6937 25.9098 17.5819 25.3122 17.4702L25.3076 17.4693L25.307 17.4692C23.9198 17.2098 22.533 16.9505 21.1454 16.694ZM10.0977 17.0184L20.8285 18.5035C21.6153 18.6147 22.0227 19.1072 22.4254 19.594C22.8362 20.0906 23.2421 20.5813 24.0409 20.655C25.4188 20.782 26.7967 20.9106 28.1744 21.0391C28.6998 21.0881 29.2251 21.1371 29.7505 21.186C28.8164 19.992 28.3939 19.5514 27.4839 19.4252C26.3239 19.2646 25.8463 19.1983 25.391 19.1352C24.8385 19.0585 24.3189 18.9864 22.6527 18.7558C21.8246 18.6411 21.3858 18.1059 20.9417 17.5642C20.5064 17.0333 20.0661 16.4962 19.2491 16.3431L4.89045 13.6881C6.59081 16.0151 7.18341 16.596 10.0977 17.0184Z" fill="#007DC5"/>
</g>
<defs>
<clipPath id="clip0">
<rect width="32" height="32" fill="white"/>
</clipPath>
</defs>
</svg>
