<svg width="32" height="32" viewBox="0 0 32 32" fill="none" xmlns="http://www.w3.org/2000/svg">
<path fill-rule="evenodd" clip-rule="evenodd" d="M17.9827 17.4186L18.9555 16.3714V14.3036C18.9555 14.2877 18.9767 14.2717 18.9767 14.2717L19.1203 14.2026V14.0857H17.8126V14.2026L17.9455 14.2877C17.9827 14.3089 17.988 14.3249 17.988 14.3408V15.5262H15.3728L14.7827 16.2757V14.3462L14.788 14.3089C14.788 14.3089 14.7987 14.2983 14.8199 14.2877L14.9422 14.208L14.9528 14.2026V14.0857H13.6505V14.2026L13.7781 14.2877C13.7993 14.2983 13.8047 14.3089 13.81 14.3089V17.8598L13.8047 17.9076C13.7993 17.9183 13.7887 17.9236 13.7781 17.9289L13.6505 18.0139V18.1309H14.9528V18.0139L14.8146 17.9289C14.7934 17.9183 14.7827 17.9129 14.7827 17.9129V16.2864L14.9209 16.3289L15.1017 16.2226C15.1336 16.2013 15.1654 16.1907 15.1814 16.1854C15.192 16.18 15.2133 16.1747 15.2558 16.1747H17.9827V17.4186Z" fill="#C89801"/>
<path fill-rule="evenodd" clip-rule="evenodd" d="M31.8724 15.6644C31.7183 15.1807 31.3675 14.782 30.8306 14.4843C30.3469 14.2132 29.6558 14.0803 28.7256 14.0803H25.1748V14.1973C25.1748 14.1973 25.3236 14.2983 25.3289 14.2983V14.7182H28.7203C29.406 14.7182 29.9057 14.8086 30.214 14.9893C30.6977 15.271 30.9369 15.6378 30.9369 16.1109C30.9369 16.3501 30.8731 16.5627 30.7508 16.7541C30.6286 16.9454 30.4372 17.1049 30.1874 17.2378C29.8578 17.4079 29.3581 17.4929 28.699 17.4929H26.9289V15.0106H25.9615V17.8597L25.9562 17.9022C25.9508 17.9076 25.9402 17.9182 25.9296 17.9288L25.8126 18.0032L25.802 18.0086V18.1255H28.7043C29.2625 18.1255 29.6983 18.0936 30.0067 18.0298C30.4266 17.9395 30.804 17.7906 31.1176 17.5727C31.4419 17.3547 31.6704 17.1049 31.8033 16.8285C31.9043 16.6265 31.9522 16.3979 31.9522 16.1587C31.9415 15.9886 31.9203 15.8238 31.8724 15.6644Z" fill="#C89801"/>
<path fill-rule="evenodd" clip-rule="evenodd" d="M19.115 17.9713C19.0884 17.966 19.0724 17.9607 19.0618 17.9554L21.4963 15.4251L20.9329 14.8245L17.7807 18.1201H19.2319V17.9819H19.1787C19.1575 17.9766 19.1362 17.9766 19.115 17.9713Z" fill="#C89801"/>
<path fill-rule="evenodd" clip-rule="evenodd" d="M21.1934 14.665L21.8153 15.3242L22.4585 15.9727H21.3741L20.7787 16.5946L20.9063 16.685L21.0445 16.6106C21.0605 16.6052 21.0711 16.5999 21.0817 16.5999C21.0924 16.5999 21.1296 16.5999 21.1827 16.5999H23.0432L24.3243 17.9714C24.3243 17.9714 24.303 17.9926 24.1914 17.9926H24.1435V18.1308H25.5947L21.7515 14.0803L21.1934 14.665Z" fill="#C89801"/>
<path fill-rule="evenodd" clip-rule="evenodd" d="M11.8804 14.2026L12.008 14.2876C12.0399 14.3089 12.0558 14.3248 12.0558 14.3408V17.8491L12.0452 17.8969C12.0346 17.9076 12.0186 17.9182 12.008 17.9235L11.8751 18.0086V18.1255H13.1721V18.0086L13.0552 17.9235C13.0392 17.9129 13.0286 17.9022 13.0286 17.9022C13.0233 17.9022 13.0233 17.9022 13.0233 17.9022V14.3408L13.0286 14.3036L13.0605 14.277L13.1774 14.1973V14.0803H11.8804V14.2026Z" fill="#C89801"/>
<path fill-rule="evenodd" clip-rule="evenodd" d="M6.44784 17.3494L6.27774 17.4451C6.2299 17.4717 6.20864 17.4823 6.20332 17.4823L3.30631 17.4876C2.64186 17.4876 2.1422 17.4026 1.80731 17.2325C1.30764 16.972 1.06313 16.6052 1.06313 16.1003C1.06313 15.877 1.12691 15.6591 1.25449 15.4624C1.50432 15.0956 1.86578 14.8458 2.3814 14.7501C2.5196 14.7235 2.65249 14.7182 2.73754 14.7182H4.23123C4.3216 14.7129 4.30565 14.7341 4.31097 14.7448L4.29502 14.8511H4.41728L5.05515 14.0803H3.27442C2.8598 14.0803 2.54087 14.0963 2.31761 14.1228C2.20067 14.1388 2.08904 14.1601 1.97741 14.1813C1.68505 14.2504 1.40332 14.3567 1.13223 14.5109C0.691033 14.766 0.382727 15.0797 0.201996 15.4518C0.100999 15.6644 0.0478432 15.9036 0.0531588 16.1587C0.0531588 16.8125 0.403989 17.3335 1.09502 17.7056C1.40864 17.8757 1.75947 17.9979 2.1422 18.0564C2.42924 18.1042 2.81728 18.1255 3.30631 18.1255H6.00133L6.64452 17.3441H6.59136L6.44784 17.3494Z" fill="#C89801"/>
<path fill-rule="evenodd" clip-rule="evenodd" d="M5.16146 16.3766L5.78871 15.5898H1.56279L1.13754 16.2224H4.94884C5.01794 16.2277 5.04452 16.249 5.04983 16.2596L5.03389 16.3712H5.16146V16.3766Z" fill="#C89801"/>
<path fill-rule="evenodd" clip-rule="evenodd" d="M4.901 14.8244L5.02326 14.867L5.03921 14.8723L5.22525 14.7819C5.27841 14.75 5.32625 14.7341 5.37941 14.7341H7.70765V17.865L7.69701 17.9075C7.68638 17.9181 7.67575 17.9287 7.67044 17.9287L7.53755 18.0191V18.1361H8.83987V18.0191L8.70698 17.9341L8.67509 17.9022C8.67509 17.8969 8.67509 17.8809 8.67509 17.8703V14.7341H10.7482C10.8279 14.7447 10.8385 14.7606 10.8385 14.766V14.8776H10.9555L11.5987 14.0962H5.49103L4.901 14.8244Z" fill="#C89801"/>
</svg>
