<svg width="32" height="32" viewBox="0 0 32 32" fill="none" xmlns="http://www.w3.org/2000/svg">
<path d="M11.6204 7.57434C9.10238 7.23008 7.82385 8.6315 6.06062 9.91979L0.0326705 14.6536L0.03072 14.6546L1.19125 15.268C1.1932 15.2699 1.19613 15.2709 1.19906 15.2729C2.70872 16.015 4.80841 15.7615 6.23811 14.7024L8.78348 12.6797L9.75677 11.9054L14.6076 8.05123L11.6204 7.57434Z" fill="#7BCBE2"/>
<path d="M0.0326705 14.6535L1.19125 15.2689C1.19418 15.2698 1.19613 15.2718 1.19906 15.2728C2.70872 16.0159 4.80939 15.7623 6.23909 14.7023L8.78348 12.6806L9.75774 11.9062L0.0326705 14.6535Z" fill="#089BC9"/>
<path d="M21.9141 10.498L18.6782 9.91583C18.6782 9.91583 16.4254 9.38042 14.5432 10.8384C14.5432 10.8384 13.1535 11.8722 12.1285 12.6718L9.84942 14.477L4.57728 18.6705L4.53339 18.7056L6.12498 19.5473C7.63563 20.2933 9.74019 20.0407 11.1718 18.9797L15.8861 15.2455L19.6876 12.2515L21.9141 10.498Z" fill="#8F174F"/>
<path d="M12.1295 12.6719C13.1525 11.8723 14.5423 10.8385 14.5423 10.8385C14.8982 10.5625 15.2678 10.3587 15.6326 10.2085L9.75872 11.9064L8.78446 12.6797L6.24104 14.7024C4.81134 15.7625 2.71067 16.016 1.20101 15.2729C2.48832 16.0443 4.48756 16.2218 7.49909 15.3236L9.55587 14.7112L9.85137 14.4771L12.1295 12.6719Z" fill="#C8C4C3"/>
<path d="M20.4151 14.4702C21.3855 13.7105 22.1179 13.1604 22.8464 12.8337L16.2714 14.9422L15.8852 15.2465L11.1709 18.9797C9.73922 20.0407 7.63465 20.2943 6.12401 19.5473C8.44507 20.8219 12.0193 19.8847 15.025 18.8159L15.2044 18.6705C15.2035 18.6705 20.2357 14.5999 20.4151 14.4702Z" fill="#C8C4C3"/>
<path d="M28.1468 18.7056C25.5078 17.9391 24.7159 18.4238 21.6069 19.359H21.6059L21.3465 19.5746V19.5736L21.3436 19.5765L21.3465 19.5746L21.3387 19.5794L16.3279 23.5526C14.9002 24.6107 12.6688 24.8145 11.1592 24.0753C13.0219 25.0466 14.948 24.8087 18.2433 23.7808L31.45 19.7267L28.1468 18.7056Z" fill="#C8C4C3"/>
<path d="M29.0226 13.2268L25.5293 12.5909C23.4364 12.2028 22.4466 12.8796 20.4142 14.4702C20.2347 14.6009 15.2035 18.6706 15.2035 18.6706L9.5549 23.2278L11.1455 24.0695C12.6571 24.8165 14.8982 24.6137 16.3289 23.5526L21.3397 19.5795L21.3465 19.5746L21.3436 19.5766L29.0226 13.2268Z" fill="#8F174F"/>
<path d="M9.5549 14.7111L20.7262 11.4324L16.2704 14.9423L4.53242 18.7057L9.5549 14.7111Z" fill="#B4175E"/>
<path d="M15.024 18.815L27.1891 14.7434L21.6069 19.3592L9.55587 23.228L15.024 18.815Z" fill="#B4175E"/>
</svg>
