<svg width="32" height="32" viewBox="0 0 32 32" fill="none" xmlns="http://www.w3.org/2000/svg">
<path d="M9.6276 10.532C9.6276 10.532 10.4807 11.1234 10.4807 13.3763C10.4807 15.6291 11.0459 16.2572 11.2343 16.2572C11.4226 16.2572 11.8074 14.7658 13.4322 14.7658C15.0571 14.7658 16.1876 17.3798 16.7763 17.3798C17.3649 17.3798 20.4814 12.4972 20.9289 12.4972C21.3764 12.4972 19.5316 19.7113 16.6272 19.7113C13.8954 19.7113 14.1126 16.4666 13.2334 17.3458C12.3542 18.225 12.3568 19.0468 11.2709 19.0468C10.2295 19.0468 8.69617 17.8612 8.69617 14.4558C8.69604 11.0502 9.4078 10.532 9.6276 10.532Z" fill="#E5231B"/>
<path d="M29.5714 15.5927C29.5063 15.4985 29.4533 15.4125 29.4093 15.3325C29.4093 15.3325 28.5941 13.9493 27.8523 13.3645C27.1106 12.7798 25.3914 13.7138 24.9479 14.2633C24.5654 14.7371 23.2366 16.6929 22.5536 16.6929C21.8706 16.6929 23.1869 14.3524 25.8467 13.2351C25.8467 13.2351 26.6278 12.9329 27.9269 12.9368C27.9269 12.9368 28.7075 12.9499 28.4432 12.5571C28.2798 12.3329 27.6686 11.707 25.937 11.707C23.8279 11.707 20.3871 13.4785 20.3871 16.6184C20.3871 19.7584 23.7936 19.6379 25.4162 17.1471C26.9809 14.745 26.9287 14.7398 28.4934 16.4614C29.7384 17.8314 31.1598 17.6822 31.4613 17.5094C31.5007 17.4868 31.4763 17.3838 31.4763 17.3669C31.4763 17.2411 30.2544 16.5817 29.5714 15.5927Z" fill="#E5231B"/>
<path fill-rule="evenodd" clip-rule="evenodd" d="M4.70557 18.7357C4.96947 18.7347 6.7423 18.7282 8.34536 17.9869C10.0201 17.2123 8.74828 19.502 6.70204 20.088C4.9831 20.5804 2.88964 20.9358 1.68076 18.8791C1.68076 18.8791 -0.0278763 18.8006 0.130377 18.2473C0.130377 18.2473 0.346154 17.4896 1.31175 17.2189C1.31175 17.2189 0.999766 13.5135 5.71295 12.861C9.11452 12.39 8.87375 17.6651 4.3418 18.6699C4.3418 18.6699 4.31631 18.675 4.31631 18.7044C4.31631 18.7338 4.54791 18.7378 4.67941 18.7358C4.68503 18.7357 4.6938 18.7357 4.70557 18.7357ZM3.73491 16.3279C3.73491 16.3279 4.93199 14.555 5.64902 15.1857C6.29359 15.7527 3.93637 16.4586 3.73491 16.3279Z" fill="#E5231B"/>
</svg>
