<svg width="32" height="32" viewBox="0 0 32 32" fill="none" xmlns="http://www.w3.org/2000/svg">
<path d="M8.1251 14.3168L7.94733 15.0082H8.61235C8.61235 15.0082 8.47408 15.6535 8.37531 16.1144C8.30288 16.4633 8.0856 17.3654 8.23704 17.7012C8.34897 17.9448 8.64527 18.0897 8.88231 18.1028C9.36955 18.1292 9.96214 18.116 9.96214 18.116L10.1333 17.214L9.77119 17.2205C9.77119 17.2205 9.44856 17.2337 9.40906 17.0691C9.31029 16.707 9.76461 14.9884 9.76461 14.9884H10.5942L10.7193 14.3102L9.92264 14.3168L10.1728 13.1909C10.1728 13.1909 9.53416 13.1712 9.38272 13.1909C9.17202 13.2172 9.00741 13.4609 8.93498 13.6847C8.8428 13.9613 8.78354 14.3102 8.78354 14.3102L8.1251 14.3168Z" fill="#E2231A"/>
<path d="M10.265 18.1291C10.265 18.1291 10.3572 17.4378 10.7062 16.99C11.1671 16.3909 12.2601 15.9102 12.6025 15.7456C13.2346 15.4493 13.6099 15.0608 13.6099 14.7119C13.6099 14.4682 13.4123 14.0929 12.9448 14.0929C12.4774 14.0929 12.0757 14.488 12.0296 15.0082C11.8979 15.0082 11.707 15.0082 11.4041 15.0082C11.2724 15.0082 10.8313 15.0082 10.8313 15.0082C10.8313 15.0082 11.0025 14.0732 11.5555 13.6584C11.9967 13.3291 12.3325 13.1843 12.9448 13.1645C13.6362 13.1382 14.2946 13.3818 14.5909 13.8559C14.8807 14.3168 14.9597 15.0674 14.5317 15.5481C14.1498 15.9695 13.7613 16.1999 13.4189 16.3975C12.958 16.6674 12.3325 16.9835 12.1547 17.0691C12.0033 17.1415 12.023 17.2205 12.023 17.2205H14.0247C14.3276 17.2205 14.4856 17.102 14.4856 17.102C14.4856 17.102 14.6173 17.5234 14.4066 17.7999C14.3342 17.8987 14.1235 18.1291 13.7547 18.1291H10.265Z" fill="#E2231A"/>
<path d="M15.0519 18.1292L15.2626 16.8848L16.6519 16.8782L16.4346 18.1292H15.0519Z" fill="#E2231A"/>
<path d="M21.0634 16.7333C21.0634 17.9251 19.8782 18.2214 19.786 18.2543C19.5424 18.3268 19.1934 18.3597 18.8445 18.3597C18.107 18.3597 17.205 17.7276 17.205 16.6807C17.205 15.2453 18.0873 14.1523 19.6214 14.205C21.2148 14.2642 21.2478 15.4955 21.2346 15.7259H20.0165C20.0165 15.6338 20.0428 15.1399 19.4107 15.1399C18.6601 15.1399 18.3836 15.8181 18.3836 16.5819C18.3836 17.1416 18.7391 17.4247 19.1737 17.4247C19.3383 17.4247 19.4436 17.3786 19.549 17.3128C19.8519 17.1152 19.8453 16.8453 19.8387 16.7333H21.0634Z" fill="#E2231A"/>
<path fill-rule="evenodd" clip-rule="evenodd" d="M21.3992 16.7201C21.3992 17.688 22.0642 18.3399 23.065 18.3399H23.0716C24.4148 18.3399 25.4025 17.2929 25.4025 15.8641C25.4025 14.9687 24.7967 14.2444 23.7366 14.2444C22.3473 14.2444 21.3992 15.3637 21.3992 16.7201ZM24.2107 15.8707C24.2107 16.5357 23.8486 17.4576 23.223 17.4576V17.4641H23.2165C22.8214 17.4641 22.5909 17.1547 22.5909 16.7004C22.5909 16.088 22.9267 15.1267 23.5918 15.1267C24.0527 15.1267 24.2107 15.502 24.2107 15.8707Z" fill="#E2231A"/>
<path d="M25.4946 18.2148L26.0082 15.6338C26.107 15.1465 26.1662 14.7383 26.2189 14.3893H27.2527L27.1802 15.0148H27.2C27.5753 14.521 28.0691 14.3037 28.5959 14.3037C29.2477 14.3037 29.5308 14.6922 29.5638 15.028C29.9325 14.5342 30.4395 14.3037 30.9728 14.3037C31.5983 14.3037 31.9671 14.6856 31.9671 15.3375C31.9671 15.4955 31.9341 15.7984 31.9012 15.9959L31.4601 18.2148H30.288L30.6963 16.1276C30.7292 15.9761 30.7555 15.8115 30.7555 15.6667C30.7555 15.4033 30.6304 15.2124 30.3539 15.2124C29.9522 15.2124 29.5506 15.7128 29.3926 16.4831L29.0502 18.2082H27.8913L28.3193 16.1078C28.3457 15.9564 28.372 15.8115 28.372 15.6798C28.372 15.4165 28.2798 15.2124 27.9901 15.2124C27.5819 15.2124 27.1539 15.7457 27.0156 16.4963L26.6732 18.2148H25.4946Z" fill="#E2231A"/>
<path fill-rule="evenodd" clip-rule="evenodd" d="M4.59588 14.949C5.09629 14.4157 5.56378 14.3169 6.1432 14.2972C7.3218 14.2511 8.03292 15.0148 7.96707 15.7852C7.92098 16.4963 7.92098 16.549 7.92098 16.549H5.20822C5.20822 16.549 5.01069 17.4576 5.89958 17.4379C6.5251 17.4247 6.53827 17.0165 6.53827 17.0165H7.76296C7.76296 17.0165 7.39423 18.3136 5.85349 18.2609C4.52473 18.2215 4.25401 17.6431 4.10905 17.3334L4.10864 17.3325C3.96378 17.0231 4.06255 15.5153 4.59588 14.949ZM5.29382 15.8116L6.81481 15.805C6.81481 15.805 6.84115 15.0412 6.15637 15.0412C5.41234 15.0412 5.29382 15.8116 5.29382 15.8116Z" fill="#E2231A"/>
<path fill-rule="evenodd" clip-rule="evenodd" d="M3.0749 13.4345C3.23292 13.2502 3.50946 13.2041 3.7465 13.1975C3.98354 13.1909 4.39177 13.1975 4.39177 13.1975C4.39177 13.1975 4.27984 13.6847 4.14156 14.3234L4.02305 14.4617L3.37778 14.4222L3.68724 13.6782H3.54897L3.01564 14.4156C3.01564 14.4156 2.87737 14.4222 2.81811 14.4222C2.80494 14.4288 2.78519 14.4288 2.75885 14.4288C2.76416 14.3969 2.7684 14.3661 2.77243 14.3368C2.7784 14.2935 2.78391 14.2534 2.79177 14.2181C2.83128 13.9876 2.91687 13.6255 3.0749 13.4345ZM3.69383 15.3769L3.38436 14.6395L4.02305 14.6131L4.06914 14.6658C4.01646 14.9028 3.96379 15.153 3.91112 15.4032L3.91111 15.4033C3.87811 15.5609 3.84716 15.7163 3.81714 15.867C3.68548 16.5279 3.57204 17.0973 3.38436 17.3654C2.92346 18.0238 2.39012 18.2148 1.58683 18.2148C0.533333 18.2148 0 17.5827 0 17.0954C0 16.5555 0.0526749 16.0485 0.0526749 16.0485L1.27737 16.0551C1.27737 16.0551 1.23128 16.5819 1.23128 16.8847C1.23128 17.0494 1.44198 17.1547 1.67243 17.1547C2.28376 17.1547 2.35981 16.7216 2.4737 16.073C2.49229 15.9671 2.51188 15.8555 2.53498 15.7391C2.62058 15.3111 2.68642 14.9226 2.73251 14.6263C2.76543 14.6329 2.79835 14.6329 2.82469 14.6329C2.87737 14.6395 3.02222 14.6395 3.02222 14.6395L3.55556 15.3769H3.69383Z" fill="#E2231A"/>
<path fill-rule="evenodd" clip-rule="evenodd" d="M15.3745 13.2831C15.3745 13.1251 15.256 13 15.0979 13C14.9399 13 14.8148 13.1251 14.8148 13.2831C14.8148 13.4412 14.9399 13.5663 15.0979 13.5663C15.2494 13.5663 15.3745 13.4412 15.3745 13.2831ZM14.8741 13.2831C14.8741 13.1514 14.9728 13.0461 15.0979 13.0461C15.223 13.0461 15.3218 13.1514 15.3284 13.2897C15.3284 13.4214 15.2296 13.5267 15.1045 13.5267C14.9728 13.5267 14.8741 13.4148 14.8741 13.2831ZM15.0387 13.4477H14.986V13.1317C15.0124 13.1251 15.0387 13.1251 15.0782 13.1251C15.1243 13.1251 15.1572 13.1383 15.177 13.1514C15.1967 13.1646 15.2033 13.1844 15.2033 13.2173C15.2033 13.2568 15.177 13.2831 15.144 13.2963C15.1704 13.3029 15.1901 13.3292 15.1967 13.3753C15.2033 13.4214 15.2099 13.4412 15.2165 13.4543H15.1638C15.1572 13.4412 15.1506 13.4148 15.144 13.3753C15.1375 13.3358 15.1177 13.3226 15.0782 13.3226H15.0453V13.4477H15.0387ZM15.0782 13.27H15.0387V13.1646H15.0782C15.1375 13.1646 15.1572 13.1909 15.1572 13.2173C15.1572 13.2568 15.1177 13.27 15.0782 13.27Z" fill="#E2231A"/>
</svg>
