<svg width="32" height="32" viewBox="0 0 32 32" fill="none" xmlns="http://www.w3.org/2000/svg">
<path fill-rule="evenodd" clip-rule="evenodd" d="M1.94085 15.9219H3.88171C3.99399 15.9219 4.09023 15.8657 4.17043 15.7615C4.24261 15.6412 4.28271 15.4968 4.28271 15.3204C4.28271 15.1038 4.21855 14.8793 4.09023 14.6467C3.97795 14.4382 3.83359 14.2617 3.64912 14.1174C3.2802 13.8206 2.8391 13.6763 2.3178 13.6763C1.99699 13.6763 1.69223 13.7324 1.41153 13.8527C1.03459 14.0131 0.729826 14.2457 0.489224 14.5665C0.208523 14.9354 0.0721817 15.3525 0.0721817 15.8096C0.0721817 16.1545 0.152382 16.4753 0.312783 16.788C0.433084 17.0206 0.585465 17.2131 0.777946 17.3815C1.17093 17.7184 1.65213 17.8868 2.22958 17.8868C2.799 17.8868 3.30426 17.7264 3.73734 17.3976C3.98597 17.2131 4.10627 17.0287 4.10627 16.8281C4.10627 16.7319 4.07419 16.6437 4.00201 16.5555C3.93785 16.4672 3.86567 16.4271 3.79348 16.4271C3.73734 16.4271 3.66516 16.4592 3.56892 16.5234C3.46466 16.5956 3.32832 16.6597 3.16792 16.7078C3.00752 16.756 2.85514 16.78 2.72682 16.78C2.50226 16.78 2.29374 16.6998 2.10125 16.5394C1.90877 16.379 1.81253 16.2106 1.81253 16.0342C1.81253 15.962 1.85263 15.9219 1.94085 15.9219ZM2.47018 15.152H2.05313C1.94887 15.152 1.88471 15.1359 1.84461 15.1199C1.80451 15.0798 1.78847 15.0236 1.78847 14.9434C1.78847 14.8231 1.82857 14.7109 1.90877 14.5986C1.99699 14.4783 2.11729 14.4141 2.26968 14.4141C2.41404 14.4141 2.5183 14.4542 2.60652 14.5505C2.69474 14.6387 2.73484 14.767 2.73484 14.9114C2.73484 15.0718 2.64662 15.152 2.47018 15.152Z" fill="#FF6600"/>
<path fill-rule="evenodd" clip-rule="evenodd" d="M8.10827 14.0211C7.77945 13.7805 7.37845 13.6602 6.89725 13.6602C6.35188 13.6602 5.8386 13.7885 5.34938 14.0531C5.16492 14.1494 5.02056 14.2697 4.91629 14.398C4.81203 14.5263 4.75589 14.6627 4.75589 14.791C4.75589 14.9193 4.79599 15.0236 4.88421 15.1038C4.97244 15.184 5.0767 15.2241 5.21304 15.2241C5.4777 15.2241 5.73434 15.0476 5.97494 14.7028C6.07118 14.5664 6.15138 14.4782 6.21554 14.4301C6.2797 14.382 6.35188 14.3579 6.43208 14.3579C6.56843 14.3579 6.66467 14.4221 6.72883 14.5504C6.78497 14.6787 6.81705 14.8952 6.81705 15.184C6.81705 15.2962 6.79299 15.3684 6.75289 15.4005C6.71279 15.4326 6.61655 15.4486 6.45614 15.4486C5.74236 15.4486 5.20502 15.6251 4.84411 15.9699C4.61153 16.1865 4.49925 16.4351 4.49925 16.7238C4.49925 16.9003 4.53935 17.0767 4.62757 17.2371C4.71579 17.4055 4.82807 17.5338 4.97244 17.6381C5.197 17.7905 5.48572 17.8707 5.84662 17.8707C6.19148 17.8707 6.50426 17.7744 6.77695 17.5739C6.86517 17.5018 6.93735 17.4697 6.99349 17.4697C7.04161 17.4697 7.09775 17.5018 7.15389 17.5739C7.32231 17.7744 7.54687 17.8707 7.83559 17.8707C8.06015 17.8707 8.2767 17.8065 8.48522 17.6862C8.65364 17.59 8.78998 17.4697 8.89424 17.3253C8.9985 17.189 9.05464 17.0446 9.05464 16.9163C9.05464 16.812 9.01454 16.7559 8.92632 16.7399C8.8381 16.7238 8.77394 16.7078 8.74988 16.6917C8.7178 16.6757 8.69374 16.6436 8.66166 16.5795C8.60552 16.4511 8.57344 16.1785 8.57344 15.7534L8.58146 15.1439C8.58146 14.8551 8.54938 14.6306 8.4772 14.4622C8.40502 14.2937 8.28472 14.1494 8.10827 14.0211ZM6.30376 16.1865C6.39198 16.0902 6.49624 16.0421 6.61655 16.0421C6.70477 16.0421 6.76893 16.0742 6.79299 16.1223C6.82507 16.1785 6.84111 16.2747 6.84111 16.4271C6.84111 16.796 6.72883 16.9805 6.51228 16.9805C6.40802 16.9805 6.32782 16.9404 6.26366 16.8602C6.1995 16.78 6.16742 16.6677 6.16742 16.5394C6.16742 16.403 6.21554 16.2827 6.30376 16.1865Z" fill="#FF6600"/>
<path d="M10.9714 13.6601C11.1078 13.6601 11.3323 13.6922 11.6451 13.7483C11.7093 13.7564 11.7574 13.7644 11.7975 13.7644C11.8456 13.7644 11.9338 13.7403 12.0702 13.6922C12.1343 13.6681 12.1905 13.6521 12.2306 13.6521C12.3589 13.6521 12.4872 13.7323 12.6155 13.8927C12.7198 14.021 12.808 14.1654 12.8722 14.3178C12.9363 14.4701 12.9684 14.6065 12.9684 14.7188C12.9684 14.831 12.9283 14.9193 12.8561 14.9914C12.7759 15.0636 12.6797 15.1037 12.5674 15.1037C12.4712 15.1037 12.383 15.0797 12.3108 15.0315C12.2386 14.9834 12.1103 14.8792 11.9499 14.7268C11.7734 14.5584 11.6291 14.4701 11.5168 14.4701C11.4366 14.4701 11.3724 14.5022 11.3163 14.5584C11.2602 14.6145 11.2281 14.6787 11.2281 14.7589C11.2281 14.8952 11.3564 15.0155 11.613 15.1358C12.0782 15.3443 12.4311 15.5689 12.6797 15.8175C12.8882 16.026 12.9925 16.2827 12.9925 16.5794C12.9925 16.9644 12.8241 17.2772 12.4872 17.5338C12.1985 17.7584 11.8456 17.8706 11.4286 17.8706C11.3243 17.8706 11.1238 17.8546 10.8431 17.8145C10.5785 17.7824 10.4261 17.7664 10.394 17.7664C10.3619 17.7664 10.3138 17.7744 10.2737 17.7824C10.1935 17.7904 10.1373 17.7985 10.0972 17.7985C9.96893 17.7985 9.86467 17.7664 9.79249 17.7022C9.6802 17.598 9.57594 17.4376 9.4797 17.221C9.38346 17.0045 9.33534 16.812 9.33534 16.6596C9.33534 16.411 9.43158 16.2827 9.63208 16.2827C9.71228 16.2827 9.77645 16.3067 9.84061 16.3549C9.90477 16.403 10.0411 16.5393 10.2496 16.7639C10.3619 16.8842 10.4581 16.9644 10.5303 17.0125C10.6025 17.0606 10.6827 17.0767 10.7709 17.0767C10.8592 17.0767 10.9313 17.0526 10.9875 17.0045C11.0436 16.9564 11.0677 16.8922 11.0677 16.812C11.0677 16.6917 10.9634 16.5794 10.7469 16.4752C10.3058 16.2586 9.98497 16.0341 9.79249 15.8015C9.6 15.5689 9.49574 15.3042 9.49574 14.9995C9.49574 14.6706 9.59198 14.3899 9.79249 14.1574C10.0812 13.8366 10.4742 13.6601 10.9714 13.6601Z" fill="#FF6600"/>
<path d="M17.2591 15.6892L16.7138 17.1809C16.5774 17.5498 16.4411 17.8546 16.3048 18.0872C16.1684 18.3197 16.016 18.5202 15.8396 18.6887C15.4867 19.0255 15.0536 19.2019 14.5484 19.2019C14.1393 19.2019 13.8105 19.0977 13.5619 18.8811C13.3694 18.7127 13.2732 18.5042 13.2732 18.2556C13.2732 18.0471 13.3373 17.8706 13.4737 17.7263C13.61 17.5819 13.7784 17.5097 13.9709 17.5097C14.1714 17.5097 14.3238 17.5739 14.4521 17.7102C14.5083 17.7744 14.5484 17.8225 14.5644 17.8706C14.5804 17.9187 14.6125 18.023 14.6526 18.1754C14.6847 18.2957 14.7489 18.3598 14.8612 18.3598C14.9494 18.3598 15.0135 18.3197 15.0777 18.2476C15.1419 18.1754 15.1659 18.0791 15.1659 17.9749C15.1659 17.8466 15.0937 17.63 14.9494 17.3253L13.9549 15.216C13.8506 14.9994 13.7704 14.8631 13.7223 14.807C13.6662 14.7508 13.5539 14.6867 13.3774 14.6065C13.3213 14.5824 13.2732 14.5423 13.2331 14.4781C13.193 14.414 13.1769 14.3498 13.1769 14.2937C13.1769 14.0531 13.4175 13.8847 13.9068 13.7964C14.2276 13.7403 14.5965 13.7082 15.0135 13.7082C15.3023 13.7082 15.5348 13.7403 15.7033 13.7964C15.9278 13.8766 16.0401 14.013 16.0401 14.2055C16.0401 14.2776 16.008 14.3578 15.9439 14.4461C15.8797 14.5343 15.8556 14.6145 15.8556 14.6786C15.8556 14.7428 15.8717 14.815 15.8957 14.8872C15.9278 14.9593 15.984 15.0796 16.0802 15.2481C16.1845 15.4405 16.2727 15.5368 16.3529 15.5368C16.4411 15.5368 16.5293 15.4486 16.6175 15.2801C16.7058 15.1117 16.7539 14.9513 16.7539 14.7909C16.7539 14.6626 16.7218 14.5583 16.6496 14.4862C16.5454 14.3659 16.4892 14.2536 16.4892 14.1654C16.4892 14.029 16.5855 13.9167 16.7699 13.8285C16.9544 13.7483 17.203 13.7002 17.5158 13.7002C18.1013 13.7002 18.39 13.8365 18.39 14.1172C18.39 14.2215 18.3579 14.3017 18.3018 14.3659C18.2456 14.43 18.1333 14.4862 17.981 14.5423C17.8526 14.5904 17.7484 14.6706 17.6682 14.7909C17.5559 14.9593 17.4195 15.2641 17.2591 15.6892Z" fill="#FF6600"/>
<path d="M21.9589 12.0562C22.2637 12.0562 22.5764 12.0802 22.8972 12.1364C23.1539 12.1765 23.3464 12.2406 23.4586 12.3208C23.5709 12.401 23.6271 12.5053 23.6271 12.6416C23.6271 12.7298 23.603 12.794 23.5629 12.8421C23.5228 12.8902 23.4346 12.9464 23.2982 13.0186C23.1378 13.0988 23.0496 13.195 23.0256 13.3073C23.0015 13.4196 22.9774 13.8526 22.9614 14.5985C22.9534 15.3283 22.9454 15.7614 22.9373 15.9058C22.9293 16.0501 22.9133 16.1945 22.8892 16.3308C22.809 16.7318 22.6486 17.0446 22.408 17.2772C22.2075 17.4617 21.9589 17.614 21.6461 17.7183C21.3333 17.8226 21.0125 17.8787 20.6677 17.8787C20.3629 17.8787 20.0581 17.8386 19.7534 17.7584C19.4486 17.6782 19.184 17.5659 18.9594 17.4296C18.7749 17.3173 18.6226 17.1569 18.5183 16.9644C18.406 16.7719 18.3499 16.5554 18.3499 16.3389C18.3499 16.0662 18.4381 15.8336 18.6065 15.6572C18.783 15.4807 18.9995 15.3845 19.2561 15.3845C19.5128 15.3845 19.7293 15.4567 19.9058 15.609C20.0822 15.7614 20.1704 15.9539 20.1704 16.1785C20.1704 16.2346 20.1544 16.3308 20.1223 16.4672C20.1143 16.4912 20.1143 16.5233 20.1143 16.5554C20.1143 16.6436 20.1464 16.7158 20.2105 16.7719C20.2747 16.8281 20.3549 16.8521 20.4591 16.8521C20.6436 16.8521 20.788 16.7719 20.9003 16.6035C21.0125 16.4351 21.0687 16.2186 21.0687 15.9539L21.0607 15.577L21.0526 14.5664C21.0286 13.9569 21.0125 13.596 20.9965 13.4837C20.9805 13.3714 20.9564 13.2832 20.9003 13.2191C20.8602 13.1629 20.8201 13.1308 20.788 13.1148C20.7559 13.0988 20.6677 13.0747 20.5313 13.0346C20.4672 13.0186 20.411 12.9865 20.3629 12.9223C20.3148 12.8582 20.2907 12.794 20.2907 12.7218C20.2907 12.5775 20.3469 12.4572 20.4672 12.3689C20.5875 12.2807 20.7719 12.2085 21.0366 12.1524C21.3414 12.0882 21.6461 12.0562 21.9589 12.0562Z" fill="#FF6600"/>
<path fill-rule="evenodd" clip-rule="evenodd" d="M25.7123 15.9219H27.6451C27.7654 15.9219 27.8617 15.8657 27.9419 15.7615C28.014 15.6412 28.0541 15.4968 28.0541 15.3204C28.0541 15.1038 27.99 14.8793 27.8617 14.6467C27.7494 14.4382 27.605 14.2617 27.4206 14.1174C27.0516 13.8206 26.6105 13.6763 26.0892 13.6763C25.7684 13.6763 25.4637 13.7324 25.183 13.8527C24.806 14.0131 24.5013 14.2457 24.2607 14.5665C23.98 14.9354 23.8436 15.3525 23.8436 15.8096C23.8436 16.1545 23.9238 16.4753 24.0842 16.788C24.2045 17.0206 24.3569 17.2131 24.5494 17.3815C24.9424 17.7184 25.4236 17.8868 26.001 17.8868C26.5704 17.8868 27.0757 17.7264 27.5088 17.3976C27.7574 17.2131 27.8777 17.0287 27.8777 16.8281C27.8777 16.7319 27.8456 16.6437 27.7734 16.5555C27.7093 16.4672 27.6371 16.4271 27.5649 16.4271C27.5088 16.4271 27.4366 16.4592 27.3404 16.5234C27.2361 16.5956 27.0998 16.6597 26.9394 16.7078C26.779 16.756 26.6266 16.78 26.4982 16.78C26.2737 16.78 26.0652 16.6998 25.8727 16.5394C25.6802 16.379 25.584 16.2106 25.584 16.0342C25.584 15.962 25.6241 15.9219 25.7123 15.9219ZM26.2336 15.152H25.8165C25.7203 15.152 25.6481 15.1359 25.608 15.1199C25.5679 15.0798 25.5519 15.0236 25.5519 14.9434C25.5519 14.8231 25.592 14.7109 25.6722 14.5986C25.7604 14.4783 25.8807 14.4141 26.0331 14.4141C26.1774 14.4141 26.2817 14.4542 26.3699 14.5505C26.4581 14.6387 26.4982 14.767 26.4982 14.9114C26.4982 15.0718 26.41 15.152 26.2336 15.152Z" fill="#FF6600"/>
<path d="M30.7008 14.7429V16.1304C30.7008 16.2988 30.7409 16.4271 30.8211 16.5314C30.9013 16.6357 31.0055 16.6918 31.1338 16.6918C31.2381 16.6918 31.3825 16.6437 31.5589 16.5474C31.599 16.5234 31.6391 16.5073 31.6792 16.5073C31.7434 16.5073 31.8075 16.5474 31.8637 16.6276C31.9198 16.7078 31.9439 16.7961 31.9439 16.8843C31.9439 17.0527 31.8476 17.2211 31.6632 17.3735C31.2702 17.7023 30.805 17.8707 30.2436 17.8707C29.8025 17.8707 29.4496 17.7504 29.185 17.5018C28.9203 17.2532 28.784 16.9244 28.784 16.5234V14.6226C28.784 14.5585 28.7759 14.5184 28.7599 14.5023C28.7439 14.4863 28.7038 14.4783 28.6396 14.4783H28.2306C28.1504 14.4783 28.1023 14.4622 28.0782 14.4382C28.0541 14.4141 28.0461 14.3499 28.0461 14.2537V14.0692C28.0461 13.989 28.0782 13.9249 28.1424 13.8848L30.0271 12.6978C30.0752 12.6738 30.1313 12.6577 30.2035 12.6577H30.5404C30.6125 12.6577 30.6526 12.6738 30.6767 12.7058C30.7008 12.7379 30.7088 12.8021 30.7088 12.8903V13.4437C30.7088 13.5239 30.7248 13.58 30.7489 13.6041C30.7729 13.6281 30.8291 13.6442 30.9173 13.6442H31.6792C31.7835 13.6442 31.8476 13.6602 31.8797 13.7003C31.9118 13.7404 31.9278 13.8126 31.9278 13.9409V14.1815C31.9278 14.3098 31.9118 14.4061 31.8717 14.4542C31.8316 14.5023 31.7594 14.5264 31.6632 14.5264H30.9173C30.8371 14.5264 30.789 14.5424 30.7649 14.5665C30.7168 14.6146 30.7008 14.6627 30.7008 14.7429Z" fill="#FF6600"/>
</svg>
