<svg width="32" height="32" viewBox="0 0 32 32" fill="none" xmlns="http://www.w3.org/2000/svg">
<path d="M28.1253 18.8172H27.1327V14.0698H24.1614V13.165H28.1253" fill="#0B4E9A"/>
<path fill-rule="evenodd" clip-rule="evenodd" d="M5.05765 15.9905V16.0074C5.05765 17.597 6.27097 18.9136 8.00751 18.9135C9.74265 18.9135 10.9699 17.5733 10.9699 15.9904V15.9746C10.9699 14.3842 9.75808 13.0688 8.02307 13.0688C6.28691 13.0688 5.05765 14.4092 5.05765 15.9905ZM9.92828 15.9905V16.0074C9.92828 17.1049 9.14498 18.0011 8.02307 18.0011C6.89236 18.0011 6.10179 17.0895 6.10179 15.9905V15.9747C6.10179 14.8769 6.88445 13.9808 8.00751 13.9808C9.13644 13.9808 9.92828 14.893 9.92828 15.9905Z" fill="#0B4E9A"/>
<path fill-rule="evenodd" clip-rule="evenodd" d="M11.3022 13.165H13.8371C14.4913 13.165 14.9843 13.3345 15.3155 13.6666C15.5644 13.9158 15.6944 14.2302 15.6944 14.6024V14.6186C15.6944 15.2968 15.3155 15.6686 14.8861 15.8788C15.5574 16.1036 16.0092 16.483 16.0092 17.2505V17.2669C16.0092 18.276 15.1768 18.8171 13.9182 18.8171H11.3022V13.165ZM13.6361 15.5477C14.2817 15.5477 14.7013 15.2967 14.7013 14.7803V14.7645C14.7013 14.3114 14.3544 14.0451 13.7085 14.0451H12.2792V15.5477H13.6361ZM15.016 17.1617C15.016 17.6782 14.6037 17.9372 13.9255 17.9372H12.2793V16.3861H13.8538C14.6378 16.3861 15.016 16.6609 15.016 17.1453V17.1617Z" fill="#0B4E9A"/>
<path fill-rule="evenodd" clip-rule="evenodd" d="M19.4014 13.125H18.4798L15.994 18.817H17.0119L17.5922 17.453H20.265L20.8378 18.817H21.8877L19.4014 13.125ZM18.9257 14.3114L19.9009 16.5726H17.9557L18.9257 14.3114Z" fill="#0B4E9A"/>
<path d="M22.349 13.165H23.3406V17.913H26.313V18.8172H22.349" fill="#0B4E9A"/>
<path d="M31.0044 14.0698H28.4759V13.165H31.9114" fill="#0B4E9A"/>
<path d="M29.7568 15.3213H28.4759V14.417H30.6625" fill="#36A9E1"/>
<path d="M2.92359 14.0695H4.77283L5.67788 13.1646H2.93583C1.25181 13.1646 0.0692139 14.4579 0.0692139 16.0384V16.0556C0.0692139 17.6511 1.27514 18.9135 2.89529 18.9135C3.86867 18.9135 4.48713 18.5727 5.03699 18.0414L4.52282 17.2947C4.05506 17.739 3.60171 18.0173 2.92792 18.0173C1.87129 18.0173 1.0936 17.1272 1.0936 16.0386V16.0236C1.0936 14.9441 1.86593 14.0672 2.92244 14.0672" fill="#0B4E9A"/>
</svg>
