<svg width="32" height="32" viewBox="0 0 32 32" fill="none" xmlns="http://www.w3.org/2000/svg">
<path d="M3.00753 14.2853C3.16658 14.2011 3.34527 14.1574 3.52507 14.1615C4.32856 14.1612 5.13204 14.1642 5.93553 14.1606C5.83065 14.3933 5.71929 14.6997 5.42131 14.7264C4.67469 14.7472 3.92618 14.7245 3.17877 14.7369C2.99406 14.7337 2.80998 14.831 2.73172 15.0027C2.57077 15.3181 2.4263 15.6419 2.2682 15.9592C2.90867 15.9588 3.54947 15.9597 4.1901 15.9583C4.13402 16.0673 4.09204 16.1883 4.00396 16.2767C3.89656 16.3613 3.75034 16.3456 3.62281 16.3494C3.12681 16.3429 2.63018 16.3548 2.13434 16.3424C1.95549 16.6777 1.80452 17.0265 1.63168 17.3647C1.55295 17.5242 1.38075 17.6274 1.20254 17.6212C0.854654 17.6212 0.505981 17.6339 0.158417 17.6098V17.5911C0.164437 17.5925 0.176793 17.596 0.18313 17.5974C0.48412 16.9473 0.797942 16.3039 1.10891 15.6584C1.26178 15.3351 1.52317 15.068 1.8381 14.8985C2.22558 14.6897 2.61766 14.4898 3.00753 14.2853Z" fill="#0B1560"/>
<path d="M6.336 14.4436C6.41664 14.2729 6.60135 14.1664 6.78797 14.1634C7.12951 14.158 7.47105 14.1655 7.81276 14.1599C7.30995 15.2175 6.79509 16.2699 6.28864 17.3259C6.21783 17.4987 6.0442 17.6229 5.85553 17.6202C5.50464 17.6251 5.15359 17.6213 4.80286 17.6218C5.31327 16.5624 5.8248 15.5033 6.336 14.4436Z" fill="#0B1560"/>
<path d="M9.18257 14.18C9.29441 14.1244 9.42415 14.1875 9.48499 14.2874C9.98542 14.9756 10.4889 15.6617 10.9942 16.3459C11.0498 16.4216 11.0916 16.5053 11.1328 16.5894C11.453 15.956 11.7506 15.3111 12.0605 14.6729C12.1402 14.5149 12.1986 14.3248 12.3661 14.2363C12.5975 14.1126 12.8706 14.1769 13.1216 14.1631C12.5633 15.3162 12.0062 16.4696 11.4486 17.6232C11.1658 17.6192 10.8827 17.6291 10.6004 17.6189C10.4247 17.6134 10.2891 17.4833 10.1895 17.3515C9.79897 16.8318 9.40784 16.3123 9.01718 15.7937C8.93306 15.687 8.85132 15.5789 8.79334 15.4556C8.47556 16.0883 8.18297 16.7335 7.86914 17.3683C7.79691 17.5079 7.6518 17.6104 7.49338 17.6189C7.30867 17.6295 7.12396 17.6205 6.93956 17.6227C7.33243 16.7801 7.73497 15.941 8.13639 15.1023C8.26629 14.8261 8.46035 14.5726 8.72744 14.4181C8.8754 14.332 9.02558 14.2488 9.18257 14.18Z" fill="#0B1560"/>
<path d="M14.6313 14.1801C14.7409 14.1256 14.8686 14.1845 14.9305 14.2821C15.4321 14.9707 15.9362 15.6584 16.4425 16.344C16.4992 16.4202 16.541 16.5059 16.5831 16.5905C16.9392 15.8811 17.2724 15.1595 17.6212 14.446C17.6943 14.2903 17.8541 14.1873 18.0231 14.1694C18.2045 14.1539 18.3867 14.166 18.5682 14.1611C18.0171 15.318 17.4544 16.4693 16.8968 17.6237C16.6128 17.619 16.3281 17.6296 16.0437 17.619C15.8555 17.6091 15.7179 17.4615 15.6139 17.3192C15.1709 16.7222 14.7151 16.1346 14.2772 15.5336C14.263 15.5222 14.2343 15.4984 14.22 15.4871C13.9347 16.0967 13.6377 16.7005 13.35 17.3089C13.2848 17.4583 13.1542 17.5911 12.9868 17.6134C12.7894 17.6342 12.5904 17.6172 12.3927 17.6247C12.7129 16.9151 13.0565 16.2149 13.3903 15.5109C13.5328 15.2304 13.6418 14.9252 13.8533 14.686C14.0607 14.4487 14.3531 14.3146 14.6313 14.1801Z" fill="#0B1560"/>
<path fill-rule="evenodd" clip-rule="evenodd" d="M21.0978 14.1618C20.9183 14.1591 20.7414 14.2051 20.5842 14.2903C20.5138 14.3271 20.4433 14.3639 20.3728 14.4007C20.0535 14.5673 19.7341 14.7341 19.4158 14.9029C19.1026 15.0721 18.8456 15.3406 18.6931 15.6628C18.6326 15.7885 18.5721 15.9142 18.5116 16.0399C18.2576 16.5676 18.0037 17.0953 17.7522 17.6243C17.9231 17.6207 18.094 17.6215 18.2649 17.6222C18.4526 17.6231 18.6403 17.6239 18.828 17.6189C19.0021 17.6161 19.1564 17.4973 19.2299 17.3433C19.3105 17.1801 19.3893 17.0159 19.4681 16.8518C19.549 16.6833 19.6299 16.5148 19.7126 16.3473C19.9337 16.3473 20.1547 16.3472 20.3757 16.3471C20.9006 16.3468 21.4253 16.3466 21.9503 16.3478C21.8854 16.494 21.8146 16.6375 21.7437 16.7811C21.6621 16.9464 21.5805 17.1117 21.5081 17.281C21.4251 17.4347 21.5652 17.6321 21.735 17.6204C21.9525 17.624 22.1703 17.623 22.3879 17.6221C22.4858 17.6217 22.5837 17.6213 22.6815 17.6213C22.8674 17.2296 23.0563 16.8394 23.2452 16.4492C23.4269 16.074 23.6085 15.6988 23.7874 15.3224C23.849 15.2139 23.841 15.0689 23.7328 14.9946C23.5956 14.8863 23.4555 14.7818 23.3153 14.6773C23.2095 14.5985 23.1037 14.5196 22.9991 14.4391C22.7867 14.2631 22.5149 14.1609 22.2387 14.1618C21.9849 14.1616 21.7312 14.1617 21.4777 14.1618C21.351 14.1618 21.2244 14.1618 21.0978 14.1618ZM20.118 15.5092C20.1986 15.3399 20.2791 15.1706 20.3642 15.0036C20.442 14.8354 20.618 14.732 20.8029 14.7369C21.0965 14.7331 21.3902 14.7337 21.6839 14.7342C21.9183 14.7347 22.1526 14.7351 22.387 14.7334C22.4016 14.734 22.4167 14.7341 22.4322 14.7342C22.5101 14.7346 22.5947 14.7351 22.6435 14.8061C22.6703 14.8602 22.6444 14.9141 22.6196 14.9657C22.6113 14.9829 22.6031 14.9999 22.5971 15.0165C22.4434 15.3298 22.291 15.6436 22.141 15.9586C21.9146 15.9586 21.6882 15.9587 21.4619 15.9589C20.9414 15.9592 20.421 15.9595 19.9004 15.9581C19.975 15.8094 20.0465 15.6593 20.118 15.5092Z" fill="#0B1560"/>
<path d="M25.0573 14.556C25.127 14.3624 25.2827 14.1907 25.4973 14.1696C25.8587 14.1498 26.2216 14.1701 26.5833 14.1598C26.0957 15.2128 25.5767 16.252 25.078 17.2999C25.0099 17.4685 24.8553 17.6093 24.6679 17.619C24.3049 17.6288 23.9417 17.6205 23.5783 17.6228C24.0716 16.6002 24.5657 15.5789 25.0573 14.556Z" fill="#0B1560"/>
<path fill-rule="evenodd" clip-rule="evenodd" d="M28.4365 14.4027C28.3575 14.446 28.2788 14.4893 28.1988 14.5265C28.0987 14.5823 27.9944 14.6352 27.8894 14.6884C27.4768 14.8975 27.0532 15.1122 26.8287 15.5348C26.5864 16.012 26.3567 16.496 26.127 16.98C26.025 17.195 25.923 17.41 25.8199 17.6243C25.9803 17.6212 26.1406 17.6221 26.3009 17.623C26.4994 17.624 26.698 17.6251 26.8966 17.6186C27.0872 17.6169 27.2442 17.4753 27.3163 17.307C27.3896 17.1586 27.4615 17.0096 27.5335 16.8606C27.6284 16.6641 27.7233 16.4676 27.8213 16.2724C27.9124 16.2753 28.0036 16.2741 28.0949 16.2729C28.2392 16.271 28.3835 16.2691 28.5272 16.2833C28.6663 16.2976 28.7743 16.4001 28.844 16.5149C28.9224 16.6419 28.998 16.7705 29.0736 16.8992C29.1741 17.0702 29.2747 17.2413 29.3817 17.4086C29.46 17.5413 29.606 17.6264 29.7619 17.6202C29.9669 17.6242 30.1719 17.6234 30.3769 17.6227C30.5801 17.622 30.7833 17.6213 30.9863 17.6251C30.7804 17.2894 30.5774 16.9522 30.3745 16.6149C30.278 16.4405 30.0914 16.4196 29.9068 16.399C29.8141 16.3886 29.7219 16.3782 29.6418 16.3486C29.6301 16.3331 29.606 16.3009 29.5943 16.2848C29.8017 16.2688 30.0094 16.2711 30.2172 16.2734C30.4277 16.2757 30.6382 16.278 30.8483 16.2613C31.1008 16.2358 31.3914 16.1601 31.5246 15.9215C31.6429 15.6978 31.7499 15.4667 31.8414 15.2303V15.1022C31.7403 14.9671 31.6031 14.8699 31.4658 14.7726C31.3909 14.7195 31.3159 14.6664 31.2469 14.6071C30.9785 14.3844 30.6706 14.1769 30.3097 14.1645C29.9122 14.1591 29.5143 14.1609 29.1167 14.1636C28.8671 14.1661 28.6508 14.2849 28.4365 14.4027ZM28.1537 15.4869C28.2351 15.3168 28.3165 15.1468 28.4029 14.9793C28.4821 14.8245 28.6538 14.7374 28.8244 14.7364C29.119 14.7325 29.4136 14.7331 29.7082 14.7337C29.9413 14.7342 30.1744 14.7347 30.4076 14.7329C30.4173 14.733 30.4273 14.733 30.4374 14.733C30.5182 14.7329 30.6073 14.7328 30.6623 14.8018C30.693 14.8584 30.6654 14.9154 30.6392 14.9693C30.6312 14.9858 30.6234 15.002 30.6174 15.0178C30.5692 15.1119 30.5244 15.2079 30.4796 15.3038C30.4258 15.4192 30.3719 15.5345 30.3122 15.6468C30.2053 15.8401 29.9642 15.8816 29.7627 15.8811C29.3875 15.8833 29.0121 15.883 28.6368 15.8827C28.4116 15.8825 28.1864 15.8823 27.9612 15.8827C28.0269 15.7516 28.0903 15.6192 28.1537 15.4869Z" fill="#0B1560"/>
</svg>
