<svg width="32" height="32" viewBox="0 0 32 32" fill="none" xmlns="http://www.w3.org/2000/svg">
<path d="M26.5015 5.0896C25.1133 5.09652 23.7781 5.22104 22.4383 5.59922C20.8795 6.03966 19.5051 6.79372 18.2138 7.76915C17.3951 8.38485 15.8594 9.75229 14.0676 11.4841C12.9192 12.5956 11.3765 13.4626 9.72776 13.2828C9.54558 13.262 9.36572 13.2274 9.18816 13.1859C10.8761 14.1844 10.7585 13.9815 15.3428 17.0669C17.3029 18.3882 19.5881 20.0693 22.0256 22.1539C22.2515 22.3499 22.4729 22.5297 22.6874 22.6981C21.0594 20.9893 20.077 18.7987 20.0632 16.4074C20.0447 13.5387 21.426 10.9445 23.649 9.10893C25.6944 7.41634 28.4592 6.37403 31.5054 6.35558C31.6415 6.35558 31.7729 6.35789 31.909 6.35789C30.334 5.65918 28.4523 5.0896 26.5591 5.0896H26.5015Z" fill="url(#paint0_linear)"/>
<path d="M25.5652 10.2919C23.3307 10.843 21.6958 12.6901 21.2438 15.0445C21.0663 15.9762 21.0709 16.9746 21.2899 17.9847C21.3061 18.0723 21.3268 18.1576 21.3476 18.2406C21.3522 18.2475 21.3522 18.2522 21.3522 18.2522C21.3522 18.2522 21.3522 18.2568 21.3545 18.2545C21.4075 18.1253 23.6467 13.0798 30.4931 12.026C30.4931 12.026 28.2586 9.62778 25.5652 10.2919Z" fill="#3D3E7A"/>
<path d="M15.4489 18.5219C14.1645 17.6457 12.9354 16.8224 11.8654 16.1306C7.76536 13.4718 0.0633841 10.7623 0.0656901 10.76C0.0656901 10.76 1.11491 12.4687 1.39624 12.8377C1.9981 13.6217 2.67606 14.3458 3.41398 14.9984C4.86905 16.2805 6.56395 17.0623 8.30496 17.8624C10.7631 18.9924 13.2813 19.9701 15.7464 21.0724C18.2645 22.1977 20.7619 23.3668 23.227 24.6028C23.3515 24.6651 23.4737 24.7273 23.5959 24.7896C24.6221 25.3061 25.6483 25.8296 26.6514 26.39C26.6514 26.39 20.6074 22.0386 15.4489 18.5219Z" fill="#3D3E7A"/>
<defs>
<linearGradient id="paint0_linear" x1="9.18816" y1="22.6979" x2="31.9086" y2="22.6979" gradientUnits="userSpaceOnUse">
<stop stop-color="#F62C2E"/>
<stop offset="0.1" stop-color="#DD2B35"/>
<stop offset="0.2" stop-color="#C4293C"/>
<stop offset="0.3" stop-color="#AC2842"/>
<stop offset="0.4" stop-color="#952748"/>
<stop offset="0.5" stop-color="#7E254D"/>
<stop offset="0.6" stop-color="#682552"/>
<stop offset="0.7" stop-color="#532456"/>
<stop offset="0.8" stop-color="#3E2359"/>
<stop offset="0.9" stop-color="#2A235C"/>
<stop offset="1" stop-color="#16235E"/>
</linearGradient>
</defs>
</svg>
