<svg width="32" height="32" viewBox="0 0 32 32" fill="none" xmlns="http://www.w3.org/2000/svg">
<path d="M15.9012 11.6367C15.9012 11.6367 15.3501 11.5711 13.0184 12.5062C10.129 13.6639 8.637 15.3089 8.637 15.3089C8.56699 15.367 8.53404 15.4311 8.52832 15.5034C8.47204 16.2197 11.3311 17.5225 11.3311 17.5225C6.5568 20.7526 0.183029 22.1441 0.183029 22.1441C20.7819 22.2492 25.3676 14.9771 25.3676 14.9771C26.2121 14.509 29.0725 14.1565 30.6585 13.9876C31.3209 13.9155 31.7725 14.0178 31.9112 14.0162C31.945 14.0162 31.961 14.0073 31.9628 13.9933C31.967 13.951 31.8597 13.8618 31.8597 13.8618C31.0372 13.355 28.565 13.2154 28.565 13.2154C28.565 13.2154 27.4808 12.1035 24.5039 12.346C22.0377 12.5455 17.6687 13.9361 17.6687 13.9361C16.5551 13.5472 15.8591 12.7066 15.9012 11.6367Z" fill="#00529C"/>
<path d="M16.3055 10.4055C16.4883 10.3954 16.9166 10.4677 17.007 10.7157C17.007 10.7157 16.3364 10.3133 7.87168 13.0007C5.21835 13.8422 1.21719 11.0532 0.192413 10.1831C0.192413 10.1831 3.39462 11.0264 16.3055 10.4055Z" fill="#E03128"/>
</svg>
