<svg width="32" height="32" viewBox="0 0 32 32" fill="none" xmlns="http://www.w3.org/2000/svg">
<path fill-rule="evenodd" clip-rule="evenodd" d="M17.6831 7H32L31.5949 7.67045C31.5927 7.67045 31.3087 7.68684 30.8215 7.71495C28.258 7.86285 20.0702 8.33527 17.711 8.45264C16.0629 8.52248 14.8616 9.27674 14.0515 10.9808C14.0375 11.0087 12.99 13.8442 12.557 15.4225C12.4871 15.646 12.2916 15.7997 12.0541 15.7997H11.7049C11.8027 15.3108 12.3055 12.6849 12.3055 12.6709L12.3056 12.6708C12.3614 12.3356 12.4173 12.0004 12.4732 11.7211C11.7608 10.9389 10.2383 9.73767 7.55653 9.73767C4.9725 9.73767 3.25447 11.1344 2.34657 12.3077H3.70144C3.68892 12.4173 3.66379 12.5906 3.63231 12.8076C3.52331 13.5592 3.33828 14.835 3.33828 15.7997C3.33828 16.1768 3.45002 16.8193 3.50589 17.1126C3.69154 17.119 3.94175 17.1254 4.19195 17.1318C4.48765 17.1394 4.78335 17.147 4.9725 17.1545C4.9725 17.1545 5.26582 16.4561 5.76866 15.9393C6.36927 15.3108 8.43649 13.5089 8.43649 13.5089L8.50633 13.6486C8.59014 13.8442 8.57617 14.0677 8.46443 14.2492L8.22698 14.6403L9.65168 15.8835C8.84155 17.3501 8.54823 18.6491 8.42252 20.3531C8.42252 20.3531 6.77433 20.5487 5.82453 20.9956L7.83588 24.5574L10.4758 24.9764C10.797 25.0323 11.0904 25.2139 11.2719 25.4793L11.6072 25.9821H6.92798L3.82715 20.2274C3.82715 20.2274 5.69882 19.3614 7.47272 19.1659C7.58446 18.2859 7.80794 17.1405 8.21301 16.3584L7.40288 15.6879L6.7045 16.3584C6.41117 16.6377 6.17372 16.9729 6.02008 17.3501L5.58708 18.3557C5.52221 18.3504 5.45847 18.3451 5.3954 18.3398C4.63007 18.276 3.96265 18.2203 2.55609 18.2719L2.43038 17.6993C2.43038 17.6968 2.42421 17.6643 2.4136 17.6085C2.36445 17.35 2.21995 16.59 2.15103 15.9812C2.09516 15.4924 2.19293 14.4448 2.27674 13.5509H0C1.20122 10.9249 3.10083 8.299 7.54256 8.299C10.0707 8.299 11.7608 9.22086 12.8084 10.0869C13.4649 8.36883 15.574 7 17.6831 7ZM18.2139 10.9529L29.7791 10.2684L30.2121 9.62593H19.457C19.0659 9.62593 18.7167 9.84941 18.5631 10.1986L18.2139 10.9529ZM17.0685 13.5229L28.0471 12.8245L28.4801 12.182H18.2977C17.9066 12.182 17.5574 12.4055 17.4038 12.7547L17.0685 13.5229ZM20.6443 15.3806L15.8952 16.1069L16.2444 15.3247C16.3981 14.9616 16.7473 14.7381 17.1384 14.7381H21.0773L20.6443 15.3806ZM18.1021 24.4596L18.3955 23.9568C17.1384 23.1048 12.6408 21.3309 8.28285 21.8896L8.95329 23.0908C11.9843 23.0349 14.7639 23.1606 18.1021 24.4596Z" fill="#004EA2"/>
</svg>
