<svg width="32" height="32" viewBox="0 0 32 32" fill="none" xmlns="http://www.w3.org/2000/svg">
<path d="M31.7529 15.8768C31.7529 24.6423 24.6445 31.7522 15.8768 31.7522C7.10765 31.7522 0 24.6423 0 15.8768C0 7.10839 7.10765 0 15.8768 0C24.6445 0 31.7529 7.10839 31.7529 15.8768Z" fill="#ED1C24"/>
<path d="M26.3504 6.31822C23.8062 4.68058 20.8804 4.12798 18.31 4.49463C15.8054 4.85009 13.0148 7.01644 13.0148 9.98256C13.0148 11.7404 11.5414 13.0114 9.79625 13.0114C7.41558 13.0114 6.14385 11.14 3.94241 11.14C2.21964 11.14 1.14879 11.9667 0.568554 12.4887C0.443092 12.6014 0.380371 12.7105 0.380371 12.8217C0.380371 12.9315 0.474463 13.0734 0.618589 13.1212C1.67226 13.4878 2.98805 14.0479 4.55998 15.1524C6.59042 16.5787 8.00403 18.0573 9.20706 19.7517C14.1073 26.6659 21.8795 26.3172 24.5432 25.2396C27.3025 24.1224 29.4599 21.9247 30.4591 19.4993C30.5337 19.3208 30.2851 19.1983 30.1745 19.3723C29.8661 19.854 28.3174 21.9247 25.4311 21.9247C22.2432 21.9247 19.6901 19.3297 19.6901 16.2143C19.6901 13.567 21.6951 10.5158 25.582 10.5158C28.8483 10.5158 31.6733 13.3228 31.7235 16.498C31.7495 11.429 28.861 7.93421 26.3504 6.31822" fill="#FEE702"/>
</svg>
