<svg width="32" height="32" viewBox="0 0 32 32" fill="none" xmlns="http://www.w3.org/2000/svg">
<g clip-path="url(#clip0)">
<path fill-rule="evenodd" clip-rule="evenodd" d="M8.15756 19.6255C7.0626 19.9576 5.99394 20.1319 4.70518 20.342L4.58082 20.3623C3.03992 20.6135 2.30216 20.9665 1.65779 21.822C0.994736 22.7054 0.957381 23.1359 1.02275 23.5375C1.05361 23.7059 1.12815 23.8389 1.20317 23.9728C1.28711 24.1225 1.37165 24.2734 1.3963 24.476C1.443 24.7964 1.86324 25.4295 2.65704 25.4211C2.42357 25.3128 2.30216 25.0354 2.56365 24.7982C2.78778 24.589 3.55356 24.2211 4.18859 24.5489C4.81429 24.8804 5.96296 25.9581 6.78477 27.1488C7.69997 28.4684 6.77543 28.756 5.89758 28.459C5.28504 28.2508 4.73604 27.9718 4.26691 27.7334C3.73473 27.4629 3.30534 27.2447 3.00257 27.2413C2.3115 27.2347 1.9006 27.7493 2.32084 28.5496C2.24613 27.6867 3.3481 27.7007 3.28273 28.3778C3.26523 28.5648 3.22363 28.7167 3.1859 28.8546C3.08267 29.2316 3.0083 29.5033 3.53488 30.0989C3.40413 29.49 3.5162 28.8942 4.44074 28.8961C5.36527 28.897 6.57931 29.3612 7.4198 31.1972C8.52275 31.1533 9.63042 30.7355 10.6621 30.3464L10.6622 30.3464C11.0805 30.1886 11.4864 30.0355 11.8744 29.914C11.0246 29.6469 10.0907 29.0063 8.77392 27.6027C9.34742 27.7783 9.92233 27.9977 10.5041 28.2197L10.5041 28.2197C12.5085 28.9845 14.5941 29.7804 16.9827 28.9241C19.7096 27.9463 22.7821 26.9069 26.0786 26.2654C25.5932 26.2364 24.9234 26.1876 24.2612 26.1394C23.471 26.0819 22.6918 26.0252 22.2498 26.0039C21.87 26.139 21.4958 26.2744 21.1165 26.4117L21.1162 26.4118C20.3948 26.6728 19.6547 26.9405 18.8224 27.2263C17.6551 27.6279 16.1048 28.092 14.592 26.5007C14.1486 26.0335 13.6284 25.5585 13.1107 25.0857L13.1107 25.0856C11.6331 23.7362 10.1752 22.4047 10.5763 21.3252C11.1366 22.3748 11.6783 22.9454 13.0511 23.404C14.4799 23.8746 15.722 24.081 16.3196 24.1669C17.601 24.3448 17.8779 24.0585 18.2356 23.6885C18.2742 23.6486 18.3137 23.6078 18.3555 23.5665C19.3732 22.5672 20.501 20.7248 21.3552 19.3293C21.4965 19.0985 21.6302 18.88 21.7548 18.6795C20.2139 18.7766 16.8426 18.7533 15.5165 18.0911C17.3002 18.1705 19.2987 18.2396 20.4007 18.1855C20.5638 18.1775 20.7094 18.174 20.8403 18.1708H20.8404C21.5117 18.1544 21.7958 18.1475 22.0536 17.6083C22.3338 17.0359 22.5486 16.4036 22.5486 16.4036C21.2879 16.653 17.2815 16.6072 16.3196 16.3224C17.0796 16.1346 19.1173 16.1091 20.3135 16.0942H20.3135C20.6167 16.0904 20.8658 16.0873 21.0264 16.0824L21.0383 16.0821C21.8157 16.0617 22.2881 16.0494 22.4832 15.4371C22.67 14.8216 22.7821 14.4434 22.7821 14.4434C21.9883 14.7152 19.0092 14.8011 16.7492 14.6003C17.6676 14.4657 19.2702 14.354 20.413 14.2743L20.4132 14.2743C20.8159 14.2463 21.1615 14.2222 21.3999 14.2025C22.3712 14.1231 22.6326 14.0783 22.7634 13.5058C22.9035 12.8493 22.9782 12.5411 22.9782 12.5411C21.8669 12.6812 19.4948 12.924 17.1041 12.8484C17.5843 12.7445 18.576 12.6229 19.5452 12.504L19.5452 12.504C20.4233 12.3964 21.2829 12.2909 21.7268 12.2031C22.5019 12.0546 22.7727 11.9817 22.8474 11.3588C22.9408 10.678 23.1556 10.2587 23.1556 10.2587C21.5027 10.4941 17.9259 11.0852 17.4496 11.243C18.1748 10.6592 19.7558 10.3847 20.8846 10.1887L20.8848 10.1887C21.166 10.1399 21.4192 10.0959 21.6241 10.0533C21.7868 10.0195 21.9278 9.99431 22.0512 9.97233C22.6568 9.86436 22.8341 9.83276 23.0435 9.22679C23.2864 8.56467 23.4731 8.25276 23.4731 8.25276C22.2684 8.45821 19.6442 8.96344 18.2714 9.51723C18.8504 8.86538 21.2505 8.22567 22.1937 8.09213C23.3397 7.93023 23.4228 7.7081 23.5982 7.23861C23.693 6.98501 23.8147 6.65926 24.1455 6.23185C23.0622 6.32524 21.2879 6.64742 19.1586 7.70924C19.8684 6.78377 21.7548 6.24773 23.0622 5.98531C23.2145 5.95484 23.3521 5.93329 23.4776 5.91361L23.4776 5.91361C23.9908 5.83318 24.303 5.78425 24.6031 5.28677C24.9673 4.66574 25.4716 4.12876 25.6864 3.90557C24.7245 4.04098 22.1564 4.59383 20.438 5.53518C21.2972 4.49951 23.2864 3.96813 24.3977 3.74494C24.5152 3.72124 24.6237 3.69977 24.7242 3.67988L24.7245 3.67983C25.6373 3.49918 25.8887 3.44943 26.2841 3.04733C26.6109 2.71954 27.2647 2.11066 27.6662 1.8501C25.9759 2.03314 24.1268 2.31237 22.2498 3.17994C23.277 2.13307 26.4522 1.48309 27.4234 1.44387C28.2238 1.41196 28.4166 1.23756 28.7672 0.920495C29.022 0.69003 29.3602 0.384187 30.0756 0.00289741C26.144 -0.0512669 21.3999 0.645404 19.0652 2.81666C18.1781 3.63941 14.7974 6.95467 12.883 9.25014C12.7997 9.35019 12.7181 9.44378 12.6387 9.53486C12.0946 10.1587 11.6533 10.6647 11.4822 12.3263C11.2394 14.8347 10.5389 18.3564 7.2517 21.1636C7.34509 21.0338 7.83071 20.2615 8.15756 19.6255ZM8.40971 19.0988C7.52253 19.3958 6.0937 19.6871 5.18784 19.8366C5.11329 17.8167 4.50174 16.1946 4.02126 14.9202C3.53871 13.6403 3.18836 12.711 3.64694 12.0816C5.33726 9.75443 8.9607 7.15359 12.7429 4.97579C12.3458 5.47864 12.1202 5.97199 11.9426 6.36019C11.7862 6.70231 11.6671 6.96277 11.5008 7.07607C10.5483 7.70924 8.51244 9.29123 7.48517 10.9208C7.52745 10.8803 7.57646 10.833 7.63176 10.7796L7.63182 10.7796C8.45609 9.98374 10.6806 7.83604 12.9297 6.66423C12.6132 7.22601 12.5198 7.61912 12.4468 7.92571C12.3713 8.24346 12.3178 8.4683 12.0612 8.69168C11.6503 9.04095 9.40896 11.1095 8.30698 12.9847C8.93268 12.2488 9.8292 11.3299 10.5856 10.8452C10.3055 11.4802 10.1654 11.8706 10.128 12.5477C10.0066 14.8842 9.52102 17.2824 8.40971 19.0988ZM6.56063 30.8441C5.96295 30.0756 4.65553 29.8813 3.99248 30.6331C3.54422 31.1374 3.88975 31.8247 4.37537 31.9583C3.81504 31.4222 4.52479 30.5892 5.25321 31.256C5.34488 31.3404 5.4273 31.437 5.50837 31.5319C5.78241 31.8529 6.04093 32.1557 6.58865 31.9106C6.16841 31.8294 5.96296 31.1719 6.56063 30.8441ZM18.0007 25.224L18.0007 25.224L18.0008 25.2239C18.0973 25.1653 18.187 25.1109 18.2714 25.0653L21.0357 25.7536C20.9011 25.802 20.7042 25.8812 20.4665 25.977C19.5661 26.3396 18.0802 26.9379 17.1788 26.9844C16.1609 26.9994 15.3204 26.468 14.2931 25.4706C16.2893 26.2626 17.318 25.6383 18.0007 25.224ZM2.88117 23.163C3.35744 23.5254 3.72165 22.7829 3.1053 22.6895C3.74564 21.4112 4.92135 21.0658 5.75435 20.8211C5.90538 20.7767 6.04514 20.7356 6.16841 20.6929C3.45875 21.103 2.88476 21.794 2.80156 21.8942C2.79989 21.8962 2.79841 21.898 2.79712 21.8995C2.79011 21.9082 2.7823 21.9179 2.77377 21.9284C2.61173 22.1288 2.1943 22.6449 2.27415 23.0388C2.42357 23.7766 1.43366 23.8597 1.43366 23.8597L1.47101 24.0539C1.59242 24.0147 1.74184 23.997 1.82589 24.0885C1.71382 24.3173 1.91927 24.7908 2.17142 24.9523C2.01266 24.6591 2.11539 24.0978 2.3582 23.9036C2.50762 23.7788 2.65084 23.7654 2.79369 23.7521C2.9544 23.7372 3.11464 23.7222 3.28273 23.5487C3.04926 23.5319 2.87183 23.4292 2.82513 23.3517C2.83447 23.2424 2.88117 23.163 2.88117 23.163Z" fill="#8C7044"/>
</g>
<defs>
<clipPath id="clip0">
<rect width="32" height="32" fill="white"/>
</clipPath>
</defs>
</svg>
