<svg width="32" height="32" viewBox="0 0 32 32" fill="none" xmlns="http://www.w3.org/2000/svg">
<path fill-rule="evenodd" clip-rule="evenodd" d="M16.1268 29.3694C23.7852 29.3694 29.9935 23.1611 29.9935 15.5028C29.9935 7.84443 23.7852 1.63611 16.1268 1.63611C8.46846 1.63611 2.26014 7.84443 2.26014 15.5028C2.26014 23.1611 8.46846 29.3694 16.1268 29.3694Z" fill="#6F0000"/>
<path fill-rule="evenodd" clip-rule="evenodd" d="M5.14824 26.2719C8.05089 29.0772 11.939 30.6233 16.0962 30.6233C20.2563 30.6233 24.145 29.0772 27.0443 26.2716C29.9748 23.439 31.5893 19.6121 31.5893 15.4922C31.5893 11.356 29.9768 7.46363 27.0499 4.53934C24.1257 1.61306 20.2364 0 16.0962 0C11.9595 0 8.06911 1.61306 5.14283 4.53963C2.21654 7.46392 0.605194 11.3563 0.605194 15.4925C0.605194 19.6121 2.21825 23.4393 5.14824 26.2719ZM1.50469 15.4925C1.50469 7.44655 8.05174 0.90149 16.0962 0.90149C24.145 0.90149 30.6878 7.44626 30.6878 15.4925C30.6878 23.4749 24.2803 29.7218 16.0962 29.7218C7.91393 29.7218 1.50469 23.4746 1.50469 15.4925Z" fill="#6F0000"/>
<path fill-rule="evenodd" clip-rule="evenodd" d="M16.7415 4.92004C19.1213 4.92004 22.1897 5.51743 23.1131 5.60456L22.2085 9.67465L21.2546 9.93917C20.9838 6.7011 18.758 6.04563 16.5456 6.04563C11.6432 6.04563 9.09333 10.192 9.09333 14.8689C9.09333 20.23 12.5395 24.1085 17.6939 24.1085C18.59 24.1085 19.4875 23.9877 20.4944 23.7522L20.4892 20.0637C20.5618 18.6434 19.9568 17.9991 17.5612 17.4862L18.016 16.8262L24.0251 17.3436L24.0123 17.7653C24.0123 17.7653 23.0246 18.2408 22.9064 20.5159L22.8671 24.6119C21.0468 24.9074 18.6191 25.3798 16.5729 25.3798C10.9712 25.3798 6.34871 21.9154 6.34871 15.5526C6.34871 10.2501 9.56941 4.92004 16.7415 4.92004Z" fill="white"/>
</svg>
