<svg width="32" height="32" viewBox="0 0 32 32" fill="none" xmlns="http://www.w3.org/2000/svg">
<path d="M19.977 22.8041L19.4156 23.2532C19.4156 23.2532 19.1209 23.4778 18.6578 23.4778C18.1946 23.4778 17.7313 23.2253 17.7313 23.2253L13.303 20.0321C13.303 20.0321 11.871 19.1057 10.1236 18.8105C8.37601 18.5157 6.24949 18.6073 6.24949 18.6073L6.03888 18.2984H8.14424C8.14424 18.2984 11.9342 18.3263 13.6607 18.9999C15.3872 19.6741 16.1031 20.0112 17.2401 20.832C18.3768 21.6532 19.977 22.8041 19.977 22.8041Z" fill="#008B99"/>
<path d="M4.75479 15.9401L4.88125 16.2493H6.79717C6.79717 16.2493 11.4709 15.9894 14.9453 18.6073L19.2822 21.7164C19.2822 21.7164 19.7876 22.1586 20.2929 22.1586C20.7983 22.1586 21.1984 21.9059 21.1984 21.9059L21.809 21.5058L17.8507 18.6073C17.8507 18.6073 16.1873 17.442 14.0819 16.7472C11.7472 15.9771 7.82881 15.9401 7.82881 15.9401C5.55491 15.9401 4.75479 15.9401 4.75479 15.9401Z" fill="#008B99"/>
<path d="M3.39835 13.5962H7.18834C7.18834 13.5962 11.9064 13.7224 13.7309 14.2559C15.5557 14.7892 17.2091 15.4349 18.2773 16.2493C19.3455 17.0631 23.6122 20.1515 23.6122 20.1515C23.6122 20.1515 23.0792 20.7689 22.2089 20.7689C21.3385 20.7689 21.1421 20.4321 21.1421 20.4321L15.3295 16.2493C15.3295 16.2493 12.1559 13.9049 7.32874 13.9049H3.51086L3.39835 13.5962Z" fill="#008B99"/>
<path d="M7.89012 11.2521C15.3557 11.2521 18.6138 13.9049 18.6138 13.9049L25.4372 18.8037C25.4372 18.8037 24.7354 19.5055 24.0899 19.4776C23.1083 19.4353 22.7421 18.972 22.7421 18.972L15.61 13.9049C14.6539 13.2454 12.9731 12.4311 11.4291 12.0661C9.88514 11.7014 6.90776 11.561 6.90776 11.561H2.19143L2.05103 11.2521H7.89012Z" fill="#004684"/>
<path d="M0.703705 8.88014L0.84387 9.20302H6.54256C6.54256 9.20302 9.77262 9.25928 11.2887 9.59611C12.8046 9.93294 14.6536 10.5222 16.087 11.5611L24.6232 17.6524C24.6232 17.6524 25.2406 18.2142 25.8301 18.2142C26.4196 18.2142 27.0091 17.681 27.0091 17.681L27.2337 17.4841L19.0069 11.5611C19.0069 11.5611 16.0577 8.88014 7.6937 8.88014H0.703705Z" fill="#004684"/>
<path d="M23.3826 13.4647C23.3826 13.4647 23.5958 13.9629 24.2794 14.091C24.9624 14.2189 25.5317 14.2047 25.5317 14.2047L28.649 14.1908C28.649 14.1908 29.0048 14.1764 29.1616 14.4896C29.3183 14.8026 29.4037 14.9452 29.076 14.931C28.7488 14.9164 27.5104 14.8171 27.5104 14.8171L28.1222 15.2864L29.1616 15.002C29.1616 15.002 29.9444 15.0589 30.5137 15.1445C31.083 15.2296 31.98 15.358 31.7947 16.7385C31.7947 16.7385 31.197 16.3541 31.0405 16.3257C30.8837 16.2971 29.6597 16.3401 29.2327 16.4397C28.8055 16.5392 27.9946 16.9662 27.9946 16.9662C27.9946 16.9662 27.7236 17.1797 27.2543 16.9095L24.137 14.6889C24.137 14.6889 23.1265 13.9487 23.3826 13.4647Z" fill="#004684"/>
</svg>
