<svg width="32" height="32" viewBox="0 0 32 32" fill="none" xmlns="http://www.w3.org/2000/svg">
<path d="M10.5418 20.9311C10.3356 20.6772 10.118 20.3651 9.78586 19.7857C9.48331 19.2608 6.66771 14.3893 6.1065 13.4187C5.54815 12.4471 4.81992 11.2616 1.98237 11.2616C1.38298 11.2616 0.697695 11.2616 0 11.3304C0.536395 11.9307 1.04988 12.7506 1.634 13.7632C3.23459 16.534 5.54052 20.5292 5.69514 20.7965C5.79726 20.974 6.13991 21.5877 6.35656 21.8884C7.16688 22.3923 9.36687 22.4133 10.5418 20.9311Z" fill="#FBBA00"/>
<path d="M21.5584 7.00007C18.7209 7.00007 17.9936 8.18643 17.4333 9.1571C16.8731 10.1287 11.5988 19.2617 11.2972 19.7857C10.9641 20.3651 10.7475 20.6772 10.5423 20.9311C11.7172 22.4133 13.9162 22.3923 14.7265 21.8884C14.9432 21.5877 15.2858 20.974 15.3889 20.7965C15.5426 20.5292 20.3062 12.2733 21.9058 9.50165C22.4909 8.48995 23.0044 7.67008 23.5398 7.06974C22.8431 7.00007 22.1587 7.00007 21.5584 7.00007Z" fill="#7F103F"/>
<path d="M10.5418 20.931C9.36687 22.4133 7.16689 22.3923 6.35657 21.8883C7.29478 23.1997 8.81902 24.054 10.5418 24.054C12.2645 24.054 13.7888 23.1997 14.727 21.8883C13.9157 22.3923 11.7167 22.4133 10.5418 20.931Z" fill="#AB0051"/>
<path d="M18.9117 20.9311C18.7055 20.6772 18.4869 20.3651 18.1548 19.7857C17.8532 19.2608 15.0366 14.3893 14.4764 13.4187C13.919 12.4471 13.1907 11.2616 10.3522 11.2616C9.75381 11.2616 9.06757 11.2616 8.36987 11.3304C8.90531 11.9307 9.41976 12.7506 10.0039 13.7632C11.6035 16.534 13.9104 20.5292 14.065 20.7965C14.1671 20.974 14.5098 21.5877 14.7264 21.8884C15.5377 22.3923 17.7367 22.4133 18.9117 20.9311Z" fill="#FBBA00"/>
<path d="M29.9274 7.00007C27.0898 7.00007 26.3635 8.18643 25.8033 9.1571C25.244 10.1287 19.9688 19.2617 19.6681 19.7857C19.335 20.3651 19.1184 20.6772 18.9113 20.9311C20.0871 22.4133 22.2852 22.3923 23.0965 21.8884C23.3122 21.5877 23.6558 20.974 23.7589 20.7965C23.9125 20.5292 28.6761 12.2733 30.2758 9.50165C30.8608 8.48995 31.3743 7.67008 31.9098 7.06974C31.213 7.00007 30.5277 7.00007 29.9274 7.00007Z" fill="#7F103F"/>
<path d="M18.9116 20.931C17.7367 22.4133 15.5377 22.3923 14.7264 21.8883C15.6646 23.1997 17.1879 24.054 18.9116 24.054C20.6334 24.054 22.1586 23.1997 23.0968 21.8883C22.2856 22.3923 20.0865 22.4133 18.9116 20.931Z" fill="#AB0051"/>
<path d="M17.0631 17.8948C16.2661 16.5166 15.2487 14.7557 14.7247 13.8489C13.9001 15.2787 13.0411 16.7648 12.3892 17.8948C13.2749 19.4276 13.9812 20.6522 14.0652 20.7963C14.1673 20.9738 14.51 21.5875 14.7266 21.8882C14.9423 21.5875 15.2859 20.9738 15.389 20.7963C15.4453 20.698 16.1354 19.5011 17.0631 17.8948Z" fill="#AB0051"/>
</svg>
