<svg width="32" height="32" viewBox="0 0 32 32" fill="none" xmlns="http://www.w3.org/2000/svg">
<path d="M24.51 5.79556C23.8383 2.8657 22.1598 0.483936 21.9336 0.0947266C21.5689 0.642075 20.2331 2.7444 19.547 5.07928C18.8099 7.67947 18.7009 9.98831 18.9561 12.2618C19.2117 14.5345 20.1673 16.8687 20.1673 16.8687C20.6782 18.0955 21.4447 19.4082 21.9407 20.0534C22.6707 19.105 24.3492 16.2741 24.8742 12.5777C25.1667 10.523 25.1734 8.72394 24.51 5.79556ZM21.9336 19.323C21.6054 18.7031 21.0945 17.5228 21.0428 15.7007C21.0283 13.9384 21.7364 12.4311 21.9407 12.1156C22.1234 12.4315 22.7362 13.7435 22.8091 15.5429C22.8527 17.3055 22.2692 18.6904 21.9336 19.323ZM24.3128 10.766C24.2908 11.8826 24.1595 13.0622 23.9846 13.7669C24.0504 12.552 23.9042 10.8382 23.6196 9.50087C23.3427 8.16468 22.5542 5.92803 21.9198 4.8951C21.3356 5.87966 20.6205 7.81305 20.2413 9.48859C19.8689 11.1678 19.8543 13.1957 19.8543 13.8056C19.7516 13.2921 19.5038 11.4633 19.5768 9.62403C19.6352 8.10663 19.9857 6.54831 20.1825 5.83166C20.9267 3.43687 21.7658 1.90645 21.9195 1.66384C22.0795 1.90645 23.1377 3.78998 23.6854 5.77138C24.2324 7.75166 24.3418 9.64784 24.3128 10.766Z" fill="#0F79BF"/>
<path d="M23.0648 20.735H17.9782V24.1474C17.9861 24.1426 17.9931 24.1392 17.9931 24.1344C19.1898 22.9359 21.1381 22.9359 22.3347 24.1344C23.5317 25.3337 23.5317 27.2756 22.3347 28.4756C22.3273 28.4801 22.3273 28.4834 22.3206 28.4883C22.3206 28.4894 22.3206 28.4894 22.3206 28.4909C22.3131 28.4957 22.3057 28.4998 22.2982 28.5058C21.109 29.6927 19.5399 30.2866 17.9782 30.2866C16.4095 30.2866 14.8404 29.6886 13.6434 28.4912C11.5347 26.3822 11.2865 23.119 12.8917 20.735C13.1105 20.4131 13.3583 20.1065 13.6434 19.8222C14.8404 18.6233 16.4095 18.0258 17.9782 18.0258V9.81738C11.9507 9.81738 7.06104 14.7059 7.06104 20.735C7.06104 26.7629 11.9507 31.6511 17.9782 31.6511C21.1239 31.6511 23.9552 30.3216 25.9474 28.1965V20.735H23.0648Z" fill="#0F79BF"/>
</svg>
