<svg width="32" height="32" viewBox="0 0 32 32" fill="none" xmlns="http://www.w3.org/2000/svg">
<path d="M30.1674 11.8399C30.1744 11.7062 30.1955 11.5726 30.1955 11.446C30.1955 10.9537 30.0971 10.4614 29.9212 10.0184C30.0971 9.71596 30.1885 9.38542 30.1885 9.04785C30.1885 8.85796 30.1603 8.66808 30.1041 8.47819C29.9072 7.80304 29.8298 7.14899 29.8298 6.85362C29.8298 6.80439 29.8298 6.76922 29.8368 6.74813L29.9072 6.1644L29.3375 6.29099C29.014 6.36132 28.6272 6.14331 28.2826 5.94639L27.9099 5.74947C27.6848 5.64398 27.1925 5.41893 26.644 5.46816C26.5736 4.93367 26.018 4.04754 24.3583 3.89985C23.6269 3.82952 23.1276 3.66777 23.001 3.57634L22.6493 3.30909L22.4313 3.6326C20.8278 2.14869 18.0077 1.21332 16.0455 1.143C15.3282 1.11487 11.7485 1.1219 9.60352 3.37239C8.12663 3.25283 4.49068 4.07567 2.12767 9.27993C2.02218 9.51904 1.81823 9.95508 2.09251 10.2575C2.1769 10.3419 2.31755 10.4263 2.52854 10.4122C2.43008 10.4896 2.33162 10.5669 2.24019 10.6513C0.608588 12.29 0.137392 13.9989 0.137392 15.4266C0.137392 17.0652 0.756277 18.3382 0.96726 18.732C1.10088 18.9781 1.26967 19.2454 1.57208 19.3087C1.78306 19.3509 1.96592 19.2805 2.12064 19.1891C1.80416 19.6392 1.73383 20.0893 1.73383 20.5183C1.73383 20.5886 1.73383 20.6519 1.73383 20.7223C1.83229 23.1275 4.60321 25.8914 6.55129 26.8056C6.917 26.9744 7.2194 27.108 7.49368 26.9111C7.68357 26.7775 7.72577 26.5595 7.7328 26.3907C7.97895 27.2839 8.54157 27.966 9.42067 28.3458C9.95516 28.5849 10.574 28.7185 11.2281 28.8592C12.719 29.1757 14.2592 29.5062 15.2649 31.1027C15.3985 31.3277 15.5744 31.3699 15.7009 31.3629C15.7994 31.3558 15.9823 31.3136 16.1018 31.0745C16.2776 30.6877 16.4183 30.308 16.5167 29.9352C16.5378 30.0055 16.58 30.0759 16.6504 30.1392C16.9317 30.3853 17.2552 30.1603 17.5365 29.9633C19.0907 28.8733 20.863 28.3599 22.0656 28.0715C24.2036 27.5581 25.793 26.9392 26.9253 26.1797C29.3094 24.5833 29.8439 22.5719 29.9494 21.517C29.9634 21.3904 29.9705 21.2708 29.9705 21.1442C29.9705 20.3988 29.7313 19.7236 29.2812 19.161C29.2812 19.161 29.2883 19.161 29.2953 19.168C29.7243 19.4634 30.083 19.6392 30.5612 18.9922C31.0113 18.3874 31.5036 17.1637 31.5036 15.7149C31.5036 14.5053 31.159 13.1409 30.1674 11.8399" fill="white"/>
<path d="M29.5063 18.7602C29.865 19.0133 29.9353 19.0555 30.2096 18.6828C30.8636 17.7967 31.9678 14.6952 29.7173 11.8962C29.8228 11.1999 29.7102 10.4896 29.4289 9.90588C29.2672 10.138 29.0351 10.3279 28.7679 10.4896C28.5358 10.1309 28.0716 9.95511 27.6637 9.94105C27.4246 9.92698 27.4879 10.0254 27.6074 10.0747C29.3094 10.792 28.7116 12.7823 28.4936 13.2043C28.2685 13.6333 28.3178 14.1748 28.3178 14.1748C27.7833 14.0201 27.305 14.1537 26.876 14.217C26.0251 14.3576 25.4624 14.2029 25.0194 14.006C24.6748 13.8442 24.1192 13.4785 24.0348 12.7823C24.0207 12.6557 23.9363 12.5643 23.8871 12.8034C23.8027 13.2043 23.866 13.6966 24.1543 14.006C23.8379 15.5602 20.7856 15.4477 20.7856 15.4477C20.6098 14.857 19.5197 14.6249 19.0485 13.9216C19.0415 13.9216 19.0415 13.9146 19.0415 13.9146C18.9993 15.6587 18.289 16.9316 17.9514 17.3677C17.9233 17.4028 17.9444 17.4521 18.0077 17.438C18.4789 17.3677 19.0978 16.8613 19.3861 16.4815C19.4635 16.3831 19.5479 16.4182 19.5549 16.5237C20.0542 21.3834 18.1976 26.9182 17.1989 29.0913C16.9317 29.675 16.6363 30.0126 17.2763 29.5625C18.8305 28.4724 20.6169 27.9309 21.9461 27.6074C24.5482 26.9815 25.8985 26.2923 26.6721 25.7718C28.585 24.4989 29.3727 22.8392 29.5204 21.4115C29.7735 18.9289 27.1995 18.1905 27.1151 18.1413C27.0378 18.0991 27.08 18.0428 27.1855 18.0428C27.8958 18.0076 28.7538 18.2327 29.5063 18.7602" fill="#462A91"/>
<path d="M4.22344 18.0428C4.3219 18.0358 4.37816 18.1061 4.29377 18.1412C2.1558 18.9711 2.09954 19.8854 2.12767 20.6379C2.21206 22.8181 4.86342 25.4975 6.71304 26.3696C7.17018 26.5806 7.33896 26.658 7.28973 26.1586C7.2616 24.8787 7.80313 23.9785 8.10554 23.6198C8.16883 23.5424 8.23916 23.5354 8.22509 23.6268C8.21806 23.7253 7.17721 26.8549 9.56132 27.9028C11.2492 28.6482 14.0271 28.3388 15.5955 30.8143C15.6517 30.9128 15.6728 30.9058 15.715 30.8284C17.1778 27.6355 15.7009 24.6888 15.4618 24.0488C16.2003 23.6409 16.8965 23.1275 17.3536 22.5578C17.7123 22.1077 17.86 21.7983 17.9444 21.6084C18.0499 21.3763 18.0147 21.2638 17.8248 21.3763C16.6504 22.0515 14.217 22.9939 10.7499 22.3258C10.7499 22.3258 9.7934 22.1851 9.93406 21.2146C9.97626 20.9473 10.1099 20.666 10.2224 20.3988C10.2576 20.3073 10.3842 19.9346 10.2646 19.7588C10.145 19.583 10.0677 19.4634 10.138 19.2313C10.1872 19.0696 10.4264 18.8586 10.7991 18.7672C11.1226 18.6898 11.6712 18.6476 12.1283 18.6828C12.2549 18.6968 12.3815 18.6828 12.4588 18.6687C12.5784 18.6546 12.6628 18.5492 12.6206 18.4226C12.5925 18.3382 12.5221 18.2678 12.4166 18.0147C12.3463 18.1764 12.2549 18.2467 12.0509 18.2116C11.847 18.1834 11.432 18.0428 11.0523 17.9373C10.6725 17.8318 10.4264 17.8951 10.2083 18.2045C9.99032 18.514 9.99736 18.1975 10.0185 18.0991C10.0466 17.9373 10.2787 17.6982 10.3068 17.5505C10.3209 17.438 10.349 17.2762 10.0325 17.0512C9.80747 16.8964 9.65275 16.7628 9.56132 16.6644C9.25891 16.362 9.20265 16.0455 9.78637 15.5462C10.2013 15.1945 11.1226 14.2451 11.4039 13.6614C11.4461 13.5699 11.6641 13.2113 11.425 12.8456C11.2351 12.5713 11.2 12.515 11.1507 12.4166C11.0171 12.1564 11.1156 11.9243 11.3336 11.5797C11.4461 11.4109 11.5305 11.2069 11.7626 10.4825C12.0369 9.61752 12.5573 8.70326 13.2324 8.14767C13.5208 7.59911 13.3379 6.67781 14.4772 5.67916C15.3774 4.88445 18.4719 3.82954 22.143 4.42029C22.2555 4.32183 22.354 4.23744 22.4313 4.16711C21.067 2.67616 18.1202 1.56498 16.0104 1.49465C14.5687 1.44542 11.4883 1.74783 9.73714 3.74514C8.45717 3.52009 4.80013 4.26557 2.47931 9.39247C2.26129 9.88476 2.32459 10.0184 2.64106 9.90586C3.61862 9.55422 4.49069 9.54015 4.91968 9.64565C5.10957 9.69488 5.03221 9.75817 4.99705 9.7652C4.96188 9.77224 4.89155 9.79333 4.74387 9.82147C4.28673 9.90586 3.12632 10.3067 2.50041 10.8904C-0.924558 14.3295 1.09385 18.0709 1.31187 18.4718C1.52988 18.8727 1.65647 18.9571 2.00108 18.6898C2.31755 18.4507 3.09116 18.0428 4.22344 18.0428Z" fill="#B81A94"/>
<path d="M11.4461 16.8683C11.3406 17.0512 11.1367 17.2833 10.6655 17.0019C10.2646 16.7558 10.1661 16.7066 9.94109 16.6011C9.89186 16.58 9.8567 16.5589 9.87076 16.5167C9.88483 16.4815 9.96922 16.4675 10.0888 16.4886C10.342 16.5378 10.7288 16.6433 10.8061 16.6503C10.8905 16.6573 11.1437 16.7136 11.2422 16.6151C11.3336 16.5237 11.425 16.4815 11.4672 16.5518C11.5164 16.6222 11.4742 16.8191 11.4461 16.8683Z" fill="#B81A94"/>
<path d="M29.4008 6.62856C29.3656 6.92394 29.4571 7.75381 29.6821 8.52741C29.9212 9.34322 29.4993 10.0676 28.7679 10.4896C28.5358 10.1309 28.0716 9.95507 27.6637 9.941C27.4246 9.92694 27.4879 10.0254 27.6074 10.0746C29.3094 10.792 28.7116 12.7822 28.4936 13.2042C28.2685 13.6332 28.3178 14.1747 28.3178 14.1747C27.7833 14.02 27.305 14.1536 26.876 14.2169C26.0251 14.3576 25.4624 14.2029 25.0194 14.006C24.6748 13.8442 24.1192 13.4785 24.0348 12.7822C24.0207 12.6557 23.9363 12.5642 23.8871 12.8033C23.8027 13.2042 23.866 13.6965 24.1543 14.006C23.8379 15.5602 20.7856 15.4477 20.7856 15.4477C20.5887 14.7725 19.2033 14.5686 18.8868 13.5981C18.7391 13.1339 18.8587 12.6486 18.8587 12.6486C19.6604 12.8455 20.1175 12.4587 20.3777 12.1352C20.5254 11.9524 20.4059 11.9383 20.3004 12.0086C19.2877 12.6486 18.3523 12.0086 18.1554 11.1084C17.8952 10.1309 16.9317 9.80035 16.9317 9.80035C17.635 9.36432 17.438 8.59774 17.8037 7.95776C18.7602 6.26286 20.1175 6.76922 20.1175 6.76922C20.2512 7.17009 20.652 7.45843 21.0459 7.57799C21.2779 7.64832 21.2428 7.53579 21.1373 7.45843C20.1668 6.76218 20.4129 5.65101 21.1724 5.13761C22.5016 4.23038 22.7267 3.83655 22.7267 3.83655C22.9728 4.02643 23.6199 4.18115 24.302 4.24445C25.8282 4.37807 26.1868 5.17278 26.215 5.48222C26.0391 5.57364 25.7297 5.86199 25.589 6.31209C25.5187 6.54417 25.6312 6.50901 25.7086 6.40351C26.2993 5.59474 27.0308 5.74243 27.72 6.05891C28.149 6.25583 28.7819 6.76922 29.4008 6.62856Z" fill="#F36C5D"/>
<path d="M20.1175 6.76926C20.2512 7.17013 20.652 7.45847 21.0459 7.57803C21.1584 7.61319 21.2076 7.60616 21.2217 7.57803C21.2076 7.55693 21.2006 7.5288 21.1865 7.5077C21.1724 7.49364 21.1584 7.47254 21.1373 7.45847C20.1668 6.76223 20.4129 5.65105 21.1724 5.13765C21.6014 4.84228 21.9109 4.60316 22.143 4.42031C18.4719 3.82956 15.3774 4.88447 14.4772 5.67918C13.3379 6.67783 13.5208 7.59913 13.2324 8.14769C13.7036 7.79605 14.2311 7.571 14.8711 7.42331C16.5027 7.06464 17.3325 7.65539 17.7194 8.12659C17.7404 8.07033 17.7686 8.01406 17.8037 7.9578C18.7602 6.2629 20.1175 6.76926 20.1175 6.76926Z" fill="#462A91"/>
<path d="M22.4173 11.5023C22.4243 11.5796 22.4594 11.6007 22.5157 11.5234C22.7619 11.2069 23.1768 10.7146 23.8379 10.4333C24.6255 10.0887 24.9912 9.57528 25.1038 9.06891C25.1671 8.7665 25.153 8.25311 25.4835 7.86631C25.589 7.73972 25.4484 7.73972 25.3499 7.78191C25.2515 7.82411 24.7451 8.09839 24.4849 8.56959C24.1895 8.37267 24.1262 8.02103 24.1122 7.81708C24.1122 7.75378 24.0559 7.71862 23.9926 7.80301C23.7746 8.08432 23.6621 8.41487 23.648 8.63288C23.648 8.63288 23.4018 8.53442 23.4159 8.11949C23.4229 8.04916 23.3807 8.08432 23.3667 8.10542C23.0432 8.47816 23.1768 8.8931 23.1838 8.94936C23.1838 8.94936 22.7478 8.8298 22.1289 8.88606C21.925 8.51332 21.2639 8.55552 21.2568 8.99155C21.2498 9.38539 21.932 9.51901 22.1219 9.15331C22.1219 9.15331 22.9869 9.04078 23.9082 9.61044C24.0067 9.67373 24.0418 9.73 24.0067 9.77923C23.9785 9.82142 23.859 9.77923 23.7043 9.72296C23.5284 9.65264 22.354 9.2377 21.5803 9.89878C21.5382 9.92691 21.5452 9.96911 21.5944 9.96911C21.7702 9.97615 22.1711 10.0183 22.3188 10.2364C22.1008 10.3559 21.7562 10.588 21.6155 11.2139C21.5803 11.3686 21.6788 11.3686 21.7421 11.2913C21.8124 11.1998 22.2977 10.7708 22.5087 10.7427C22.5087 10.7427 22.3821 11.0592 22.4173 11.5023Z" fill="#462A91"/>
<path d="M14.4983 12.3392C14.1959 12.1563 13.788 12.1704 13.7107 12.1563C13.6333 12.1422 13.6192 12.0579 13.7388 12.0016C13.9005 11.9172 14.203 11.9875 14.217 11.9383C14.2311 11.8891 14.1608 11.7765 13.9216 11.6851C13.6896 11.6007 13.1762 11.6148 12.9089 11.664C12.6487 11.7062 12.4237 11.4741 12.8316 11.1295C13.2465 10.7779 13.8302 10.8482 14.0553 10.8201C14.2733 10.7919 14.1819 10.6865 14.1256 10.6654C14.0623 10.6372 13.7529 10.4614 13.2184 10.4966C12.6839 10.5317 12.2267 10.8412 11.9384 11.1647C11.7907 11.3405 11.7204 11.5163 11.6923 11.664C11.6641 11.9524 11.8892 12.0649 12.1283 11.9664C12.2478 11.9102 12.3252 11.8961 12.4237 11.9102C12.5362 11.9172 12.6065 12.0227 12.5643 12.0508C12.5081 12.093 12.4448 12.1633 12.4096 12.3181C12.3674 12.4868 12.487 12.6205 12.5925 12.7963C12.6487 12.8807 12.6979 12.944 12.712 13.0073C12.7401 13.0987 12.719 13.1409 12.6417 13.2042C12.5573 13.2675 12.6065 13.387 12.7823 13.3378C12.9793 13.2816 13.0918 13.2253 13.2395 13.1057C13.4505 12.9229 13.4505 12.8104 13.5981 12.6627C13.7458 12.5079 14.217 12.515 14.4561 12.5431C14.7375 12.5853 14.8007 12.515 14.4983 12.3392Z" fill="#B81A94"/>
</svg>
