<svg width="32" height="32" viewBox="0 0 32 32" fill="none" xmlns="http://www.w3.org/2000/svg">
<path fill-rule="evenodd" clip-rule="evenodd" d="M10.3171 12.5012C10.994 12.5012 11.5477 12.912 11.5477 13.414V19.2296C11.5477 19.7317 10.994 20.1424 10.3171 20.1424C9.64021 20.1424 9.08641 19.7317 9.08641 19.2296V13.414C9.08641 12.912 9.64021 12.5012 10.3171 12.5012ZM1.24038 9.0498H1.24044C1.91728 9.0498 2.47109 9.64597 2.47109 10.3747V13.2336H5.24466V10.3747C5.24466 9.64597 5.79841 9.0498 6.47531 9.0498H6.47537C7.15216 9.0498 7.70596 9.64597 7.70596 10.3747V18.8175C7.70596 19.5463 7.15216 20.1424 6.47537 20.1424H6.47531C5.79841 20.1424 5.24466 19.5463 5.24466 18.8175V15.6949H2.47109V18.8175C2.47109 19.5463 1.91728 20.1424 1.24044 20.1424H1.24038C0.563538 20.1424 0.00973511 19.5463 0.00973511 18.8175V10.3747C0.00973511 9.64597 0.563538 9.0498 1.24038 9.0498ZM10.4057 9.356C11.1555 9.356 11.7672 9.90597 11.7672 10.5803C11.7672 11.2546 11.1555 11.8046 10.4057 11.8046C9.65582 11.8046 9.04421 11.2546 9.04421 10.5803C9.04421 9.90597 9.65582 9.356 10.4057 9.356Z" fill="#292D78"/>
<path fill-rule="evenodd" clip-rule="evenodd" d="M16.0336 12.4738H17.0232C18.7696 12.4738 18.8536 14.9351 17.0654 14.9351H16.0227V18.8567C16.0227 19.5639 15.4689 20.1425 14.7921 20.1425H14.792C14.1152 20.1425 13.5614 19.564 13.5614 18.8567V12.7545C13.5614 10.5711 15.0679 9.3772 16.924 9.3772C18.8232 9.3772 18.4812 11.4314 16.9937 11.4018C16.3645 11.3893 16.0893 11.925 16.0336 12.4738ZM21.9018 17.0459L21.8909 14.5847V10.6631C21.8909 9.95579 21.3371 9.3772 20.6603 9.3772H20.6602C19.9834 9.3772 19.4296 9.95579 19.4296 10.6631V16.7652C19.4296 18.9486 20.9361 20.1425 22.7922 20.1425C24.6914 20.1425 24.3917 18.0039 22.9041 18.0334C22.2749 18.046 21.9575 17.5947 21.9018 17.0459ZM29.4772 20.17L29.4814 19.2263C28.8013 19.873 28.0639 20.1418 27.3631 20.142C25.3887 20.1425 24.2532 18.4409 24.2532 16.1741V13.766C24.2532 13.0588 24.807 12.4801 25.4839 12.4801C26.1607 12.4801 26.7145 13.0587 26.7145 13.766V16.1741C26.7145 17.9561 28.6947 17.9138 29.4881 16.7718V13.7871C29.4881 13.0799 30.0419 12.5013 30.7188 12.5013H30.7188C31.3956 12.5013 31.9494 13.0798 31.9494 13.7871V19.8893C31.9494 22.0727 30.4429 23.2666 28.5868 23.2666C26.6877 23.2666 26.9874 21.128 28.4749 21.1575C29.1042 21.17 29.4215 20.7187 29.4772 20.17Z" fill="#8FD1E9"/>
</svg>
