<svg width="32" height="32" viewBox="0 0 32 32" fill="none" xmlns="http://www.w3.org/2000/svg">
<path d="M0.10144 11.41H1.95781L1.95781 14.7491H5.38158V11.41H7.23771L7.23771 19.8484H5.38158V16.4607H1.95781L1.95781 19.8484H0.10144L0.10144 11.41Z" fill="#F00500"/>
<path fill-rule="evenodd" clip-rule="evenodd" d="M8.3045 15.6293V15.6542C8.3045 18.1127 10.2193 20.1021 12.8883 20.1021C15.557 20.1021 17.4971 18.088 17.4971 15.6293V15.6046C17.4971 13.1456 15.5816 11.1563 12.9131 11.1563C10.2441 11.1563 8.3045 13.1705 8.3045 15.6293ZM15.5077 15.6293V15.6542C15.5077 17.1365 14.4452 18.3475 12.9131 18.3475C11.3808 18.3475 10.2936 17.112 10.2936 15.6293V15.6046C10.2936 14.1218 11.3563 12.9111 12.8883 12.9111C14.4203 12.9111 15.5077 14.1462 15.5077 15.6293Z" fill="#F00500"/>
<path fill-rule="evenodd" clip-rule="evenodd" d="M21.9481 11.41H18.5011V19.8484H20.3571V17.3171H21.7678C23.66 17.3171 25.1791 16.304 25.1791 14.3515V14.3269C25.1791 12.6037 23.9618 11.41 21.9481 11.41ZM23.2985 14.3874C23.2985 15.111 22.7559 15.6653 21.8279 15.6653H20.3571V13.0856H21.7918C22.7198 13.0856 23.2985 13.5314 23.2985 14.3634V14.3874Z" fill="#F00500"/>
<path d="M25.7828 16.6487L30.4362 11.1035L31.7733 12.2256L27.1202 17.7708L25.7828 16.6487Z" fill="#F00500"/>
<path d="M25.0049 20.102C24.362 20.105 23.8385 19.5851 23.8371 18.9423C23.835 18.2989 24.3542 17.7767 24.9972 17.7749C25.64 17.7727 26.1628 18.2915 26.1649 18.9346C26.1671 19.5776 25.6471 20.1002 25.0049 20.102Z" fill="#F00500"/>
</svg>
