<svg width="32" height="32" viewBox="0 0 32 32" fill="none" xmlns="http://www.w3.org/2000/svg">
<path fill-rule="evenodd" clip-rule="evenodd" d="M0.0432739 18.5785H1.74094V16.0276H3.17244V18.5785H4.87017V12.0176H3.17244V14.3116H1.74094V12.0176H0.0432739V18.5785Z" fill="#13007C"/>
<path fill-rule="evenodd" clip-rule="evenodd" d="M9.03253 18.1064L8.91317 16.5647C8.37183 17.0419 7.82117 17.2712 7.3257 17.2712C7.13297 17.2712 6.95863 17.2437 6.78423 17.1703L9.30787 15.3992C8.95907 14.3623 8.1608 13.7842 7.16967 13.7842C5.81163 13.7842 4.7471 14.8671 4.7471 16.2618C4.7471 17.6475 5.69227 18.6492 7.16047 18.6492C7.8396 18.6492 8.4636 18.4733 9.03253 18.1064ZM6.17863 16.2527C6.16023 16.1701 6.15103 16.0967 6.15103 16.0141C6.15103 15.5002 6.59153 15.0322 7.11467 15.0322C7.3257 15.0322 7.48167 15.0873 7.61013 15.2158L6.17863 16.2527Z" fill="#13007C"/>
<path fill-rule="evenodd" clip-rule="evenodd" d="M11.3807 18.565H12.7022V15.5185C12.7022 14.2522 12.2892 13.8301 10.7476 13.8301C10.3439 13.8301 9.93097 13.8668 9.51807 13.9219L9.33441 15.0138C9.67401 14.9588 10.0226 14.9405 10.3806 14.9405C11.0046 14.9405 11.2616 15.0505 11.2616 15.4635C11.2616 15.5093 11.2616 15.5553 11.2523 15.6012C11.0137 15.4726 10.7752 15.4084 10.5549 15.4084C9.54554 15.4084 8.87564 16.0508 8.87564 17.0327C8.87564 17.987 9.49047 18.6492 10.3806 18.6492C10.7752 18.6492 11.1147 18.51 11.3807 18.2438V18.565ZM10.8486 17.4273C10.5733 17.4273 10.3622 17.207 10.3622 16.9317C10.3622 16.6473 10.5916 16.427 10.8486 16.427C11.1147 16.427 11.3442 16.6564 11.3442 16.9317C11.3442 17.1978 11.1238 17.4273 10.8486 17.4273Z" fill="#13007C"/>
<path fill-rule="evenodd" clip-rule="evenodd" d="M13.5193 18.5655H15.4279L16.5842 13.8486H14.9508L14.4644 16.7209L13.9872 13.8486H12.3538L13.5193 18.5655Z" fill="#13007C"/>
<path fill-rule="evenodd" clip-rule="evenodd" d="M17.095 20.1064H18.8202L20.7107 13.8374H19.0128L18.4805 16.159L17.7832 13.8374H16.0473L17.7281 18.3706L17.095 20.1064Z" fill="#13007C"/>
<path fill-rule="evenodd" clip-rule="evenodd" d="M24.9563 16.7709H22.5247V12.0176H20.8269V18.5785H24.4241L24.9563 16.7709Z" fill="#FF0000"/>
<path fill-rule="evenodd" clip-rule="evenodd" d="M24.9149 13.4491H26.4655V12.0176H24.9149V13.4491ZM24.9149 18.5785H26.4655V13.862H24.9149V18.5785Z" fill="#FF0000"/>
<path fill-rule="evenodd" clip-rule="evenodd" d="M29.2311 11.9905C29.0752 11.9813 28.9467 11.9722 28.8365 11.9722C27.6252 11.9722 27.0012 12.5594 27.0012 13.7341V13.8626H26.6341V15.2666H27.0012V18.5792H28.5521V15.2666H29.2311V13.8626H28.5521V13.835C28.5521 13.5597 28.6988 13.4588 29.0291 13.4588C29.0752 13.4588 29.1393 13.468 29.2311 13.468V11.9905Z" fill="#FF0000"/>
<path fill-rule="evenodd" clip-rule="evenodd" d="M31.6769 18.5755L31.9615 16.9419C31.8514 16.9603 31.7596 16.9603 31.6862 16.9603C31.3191 16.9603 31.2457 16.8042 31.2457 16.3271V15.2627H31.833V13.8586H31.2457V12.4546L29.6949 13.354V13.8586H29.4012V15.2627H29.6949V16.9695C29.6949 18.1347 29.86 18.6319 31.0438 18.6319C31.2457 18.6319 31.4475 18.6134 31.6769 18.5755Z" fill="#FF0000"/>
</svg>
