<svg width="32" height="32" viewBox="0 0 32 32" fill="none" xmlns="http://www.w3.org/2000/svg">
<path d="M11.0885 10.4303C12.5505 10.202 14.0286 10.1017 15.5063 10.0523C15.8468 9.9981 16.1922 10.0084 16.536 10.0024C17.2404 10.0095 17.9491 9.97262 18.6503 10.0534C23.132 10.1874 27.6115 10.6597 32 11.5918C31.3103 11.5755 30.6232 11.4942 29.9335 11.4752C26.9467 11.3369 23.9421 11.4964 20.995 12.012C20.5856 12.0776 20.1892 12.2034 19.7901 12.3119C18.6671 12.6356 17.5473 12.9973 16.5029 13.5276C15.9905 13.8009 15.4716 14.1095 15.1137 14.5774C15.0085 14.7293 14.8729 14.9109 14.9347 15.1061C15.0237 15.3214 15.2568 15.4201 15.4596 15.4993C16.1011 15.7227 16.7849 15.778 17.4568 15.8414C19.5802 16.0534 21.7021 16.2774 23.8212 16.5301C25.2902 16.7139 26.7624 16.8863 28.2167 17.1689C28.5393 17.2464 28.8858 17.286 29.1689 17.4742C28.426 17.6048 27.6706 17.6596 26.9218 17.7502C23.5392 18.108 20.1463 18.3564 16.7529 18.5782C16.4254 18.6123 16.0811 18.6568 15.798 18.8385C15.6012 18.9616 15.4851 19.2273 15.5833 19.4485C15.676 19.6529 15.8707 19.7874 16.0621 19.8926C16.542 20.1475 17.0745 20.2781 17.601 20.4002C18.7153 20.6404 19.8497 20.7716 20.983 20.8817C22.4851 21.0248 23.9925 21.1045 25.4995 21.1761C25.3498 21.3383 25.1302 21.3995 24.9274 21.4662C24.319 21.643 23.6894 21.7303 23.0631 21.8154C21.31 22.034 19.5455 22.1457 17.7821 22.2438C16.4986 22.2742 15.2124 22.2747 13.931 22.1798C13.0276 22.105 12.1172 22.002 11.2518 21.72C10.8499 21.5817 10.4416 21.4022 10.1477 21.085C9.95143 20.8725 9.84841 20.5775 9.88582 20.289C9.93571 19.8796 10.1629 19.5184 10.4096 19.198C10.6743 18.8639 11.0668 18.6758 11.4497 18.5115C8.46457 18.4106 5.47622 18.3244 2.50087 18.0479C1.88433 17.9855 1.2667 17.9188 0.660465 17.7876C0.424584 17.7274 0.154542 17.6808 0 17.4714C0.271669 17.2345 0.632267 17.1586 0.971176 17.0713C1.75744 16.8874 2.55618 16.7681 3.35438 16.6521C5.10911 16.4043 6.87252 16.2226 8.6343 16.0377C7.70217 15.6625 6.7581 15.2954 5.9046 14.7564C5.51743 14.5053 5.13026 14.2228 4.87703 13.8297C4.70513 13.5716 4.65687 13.224 4.79623 12.9409C4.96108 12.596 5.27775 12.3585 5.59226 12.1579C6.21639 11.7772 6.90614 11.5224 7.5986 11.2963C8.74167 10.9335 9.91293 10.664 11.0885 10.4303Z" fill="#12470D"/>
</svg>
