<svg width="32" height="32" viewBox="0 0 32 32" fill="none" xmlns="http://www.w3.org/2000/svg">
<path fill-rule="evenodd" clip-rule="evenodd" d="M10.6573 9.61452H28.5389C30.2712 9.5594 31.2214 9.83807 31.3338 10.3972C31.4452 10.7322 31.1651 11.1236 30.4393 11.6267L6.1871 29.0045L6.24284 28.8367C10.4904 23.7522 12.5008 19.673 12.3339 16.6558C12.1664 14.4767 10.7691 12.6881 8.25472 11.3474L10.6573 9.61452Z" fill="#BBCA5F"/>
<path fill-rule="evenodd" clip-rule="evenodd" d="M6.13045 9.61458C6.46607 8.66467 6.57845 7.82624 6.5218 7.09988C6.35399 4.75329 4.23065 3.13276 0.151459 2.18286H17.754C18.9272 2.18286 19.5418 2.4061 19.6538 2.79745L18.9823 3.63589L10.6573 9.61458L8.25441 11.3475L2.27541 15.5942L2.38688 15.4264C4.00771 13.5269 5.12451 11.8503 5.79575 10.3415L6.13045 9.61458Z" fill="#229044"/>
</svg>
