<svg width="32" height="32" viewBox="0 0 32 32" fill="none" xmlns="http://www.w3.org/2000/svg">
<g clip-path="url(#clip0)">
<path d="M20.2755 12.133C18.9743 12.465 17.8589 13.3945 17.288 14.6426C17.0091 15.2268 16.9428 15.5853 16.9295 16.382C16.9295 18.1347 17.8589 19.582 19.4523 20.3123C20.395 20.7505 21.4042 20.8434 22.4133 20.5779C24.3519 20.0866 25.454 18.7588 25.6 16.7538L25.6664 15.8509H23.5818H21.5104V16.382V16.9131H22.971C24.3519 16.9131 24.4315 16.9264 24.4315 17.1787C24.4315 17.577 24.073 18.387 23.7278 18.7588C22.9311 19.6218 21.112 19.9671 19.9834 19.4492C19.3062 19.1438 18.4166 18.148 18.2174 17.4708C17.8457 16.2625 18.0979 15.0808 18.9079 14.1646C19.5585 13.421 20.2888 13.0758 21.2183 13.0625C22.015 13.0625 22.5992 13.275 23.4357 13.8725L24.0332 14.3106L24.4448 13.9123L24.8432 13.5272L24.405 13.1555C23.3693 12.2658 21.5502 11.8144 20.2755 12.133Z" fill="#000080"/>
<path d="M0 16.3819L0 20.6309H0.53112H1.06224L1.06224 16.3819L1.06224 12.1329H0.53112H0L0 16.3819Z" fill="#000080"/>
<path d="M12.3485 15.0543C12.3485 18.2145 12.2822 18.5597 11.6448 19.1572C11.4324 19.3564 11.0739 19.4891 10.7021 19.529C8.80332 19.7547 7.79419 17.6302 9.1751 16.3024C9.53361 15.9572 9.66639 15.9174 10.3967 15.9174C10.8481 15.9174 11.3925 15.9705 11.5917 16.0369C11.9635 16.1431 11.9635 16.1431 11.9236 15.6385C11.8838 15.1605 11.844 15.1207 11.2863 14.9481C9.99834 14.563 8.52448 15.0941 7.90041 16.1696C7.48879 16.8867 7.44896 18.1481 7.82074 18.9713C8.68381 20.8833 11.6846 21.1754 12.8398 19.4493C13.3444 18.7057 13.4108 18.1746 13.4108 15.0808V12.1331H12.8797H12.3485V15.0543Z" fill="#000080"/>
<path d="M3.62489 14.9346C2.98755 15.1205 2.32365 15.8508 2.13776 16.5545C2.05809 16.8865 1.9917 17.9487 1.9917 18.8914L1.9917 20.6309H2.50954H3.04066L3.0805 18.6259L3.12033 16.6209L3.5585 16.2358C4.06307 15.7844 4.79336 15.718 5.29792 16.0632C5.84232 16.4483 5.9751 17.0192 5.9751 18.9047V20.6309H6.43983H6.90456V18.5728C6.90456 16.3022 6.83817 16.0101 6.10788 15.4126C5.44398 14.8416 4.5278 14.669 3.62489 14.9346Z" fill="#000080"/>
<path fill-rule="evenodd" clip-rule="evenodd" d="M26.317 16.3822C26.6755 15.7183 27.4855 15.0809 28.1627 14.9216C30.8847 14.2842 32.9428 16.9531 31.522 19.2635C30.9776 20.1398 30.1278 20.5647 28.9328 20.5515C27.2598 20.5382 26.1444 19.5025 26.0515 17.856C26.0116 17.1257 26.0647 16.8734 26.317 16.3822ZM30.8714 17.71C30.8714 16.9797 30.8315 16.8867 30.3801 16.422C29.9419 15.9971 29.7959 15.9307 29.1187 15.8909C28.4946 15.851 28.2689 15.8909 27.9104 16.1299C27.1004 16.661 26.8481 17.7365 27.3262 18.6261C27.6847 19.29 28.322 19.5954 29.1851 19.529C29.7959 19.4892 29.9685 19.4095 30.3801 18.9847C30.8315 18.5332 30.8714 18.4403 30.8714 17.71Z" fill="#000080"/>
<path d="M14.7386 17.7761V20.6309H15.2697H15.8008V17.7761V14.9213H15.2697H14.7386V17.7761Z" fill="#000080"/>
</g>
<defs>
<clipPath id="clip0">
<rect width="32" height="32" fill="white"/>
</clipPath>
</defs>
</svg>
