<svg width="32" height="32" viewBox="0 0 32 32" fill="none" xmlns="http://www.w3.org/2000/svg">
<g clip-path="url(#clip0)">
<path d="M2.11108 19.5424C8.48278 20.5402 11.1312 18.0071 15.0846 14.8212C19.0837 11.5985 22.0321 9.52413 29.3633 11.789C23.2603 10.4071 19.2341 13.6604 16.3514 16.0878C14.1636 17.9302 9.40395 21.7685 2.11108 19.5424Z" fill="#CF152D"/>
<path d="M4.72647 20.3627C11.0982 21.3605 13.7466 18.8274 17.7 15.6415C21.6991 12.4188 24.6474 10.3444 31.9787 12.6093C25.8757 11.2275 21.8495 14.4807 18.9668 16.9081C16.779 18.7505 12.0193 22.5888 4.72647 20.3627Z" fill="#008EC8"/>
<path d="M0 18.8129C5.56611 19.7677 8.93179 17.0329 12.8968 13.8614C16.6687 10.8446 19.0276 8.89588 26.2957 10.8402C20.1558 9.79331 16.9873 12.6222 14.1046 15.0497C11.9168 16.8921 7.13021 20.9728 0 18.8129Z" fill="#FAD665"/>
</g>
<defs>
<clipPath id="clip0">
<rect width="32" height="11.0769" fill="white" transform="translate(0 10)"/>
</clipPath>
</defs>
</svg>
