<svg width="32" height="32" viewBox="0 0 32 32" fill="none" xmlns="http://www.w3.org/2000/svg">
<path d="M25.8148 9.12378V10.4378H27.531V9.12378H25.8148Z" fill="#1F2C51"/>
<path d="M4.53435 19.5538V16.9776L4.53756 16.9126L4.54089 16.8478L4.55387 16.7862L4.56685 16.7245L4.58305 16.6661L4.60579 16.6077L4.62841 16.5525L4.6577 16.4973L4.69009 16.4454L4.72248 16.3933L4.76141 16.3449L4.80035 16.2993L4.8425 16.2538L4.88786 16.2084L4.93656 16.1695L4.98848 16.1273L5.04039 16.0916L5.09552 16.0559L5.15065 16.0235L5.20911 15.9909L5.26758 15.9618L5.32925 15.9359L5.39415 15.9099L5.45904 15.8904L5.52393 15.8709L5.58882 15.8515L5.65693 15.8385L5.72516 15.8255L5.79648 15.8159L5.86459 15.8092L5.93603 15.8061H6.00414H6.11452L6.2312 15.8159L6.35777 15.8321L6.48756 15.8515V14.3655L6.37397 14.359L6.27669 14.3525L6.18917 14.3493L6.11452 14.3459L6.03331 14.3493H5.94901L5.87114 14.3557L5.79005 14.3623L5.71218 14.372L5.63752 14.385L5.56299 14.398L5.49154 14.4143L5.4201 14.4338L5.34878 14.4532L5.28067 14.4759L5.21578 14.4986L5.15089 14.5246L5.08933 14.5538L5.02765 14.5862L4.96919 14.6187L4.91084 14.6543L4.85571 14.6899L4.8038 14.7289L4.75189 14.771L4.70331 14.8132L4.65794 14.8585L4.61246 14.9074L4.57031 14.9559L4.52815 15.0079L4.48922 15.063L4.4535 15.118L4.42087 15.1769L4.38849 15.2386L4.35931 15.3003L4.33336 15.3652L4.31061 15.4333V14.4372H2.76283V19.5538H4.53435Z" fill="#1F2C51"/>
<path d="M0.40097 12.5942V19.5472H2.18546V12.5942H0.40097Z" fill="#1F2C51"/>
<path d="M11.9837 14.3561V19.5441H13.752V17.1269V17.0424L13.7552 16.9647L13.7617 16.8932L13.7682 16.8219L13.7779 16.7569L13.7877 16.6952L13.7975 16.6369L13.8104 16.5818L13.8364 16.4811L13.8656 16.3871L13.8915 16.3025L13.9207 16.2247L13.9402 16.1794L13.9662 16.1339L13.9953 16.0885L14.0311 16.0496L14.0732 16.0075L14.1154 15.9719L14.1641 15.9362L14.2192 15.9037L14.2743 15.8745L14.3328 15.8485L14.3945 15.8226L14.4561 15.7998L14.521 15.7804L14.5859 15.7642L14.654 15.7511L14.7189 15.7414L14.7872 15.7349H14.8553H14.9202L14.9883 15.7383L15.0499 15.7447L15.1148 15.7576L15.1733 15.7739L15.2316 15.7933L15.2868 15.8161L15.3355 15.8452L15.3841 15.8777L15.4294 15.9133L15.4684 15.9556L15.5007 16.0011L15.53 16.0496L15.5528 16.1048L15.5754 16.1664L15.6014 16.2315L15.6273 16.3027L15.6533 16.3808L15.6728 16.4682L15.6923 16.559L15.6988 16.6111L15.7053 16.663L15.7085 16.7182V16.7766V19.5441H17.5092V16.3452V16.2185L17.5028 16.0985L17.493 15.9816L17.4799 15.8682L17.4637 15.7577L17.4411 15.6509L17.4185 15.5501L17.3892 15.4496L17.3568 15.3556L17.3177 15.2614L17.2789 15.1738L17.2336 15.0926L17.1849 15.0116L17.1329 14.9369L17.0745 14.8624L17.0128 14.7943L16.9479 14.7326L16.8798 14.6711L16.8053 14.6158L16.7274 14.5639L16.643 14.5184L16.5555 14.4763L16.4645 14.4373L16.3703 14.4017L16.2698 14.3724L16.166 14.3465L16.0556 14.3238L15.942 14.3077L15.822 14.2947L15.6986 14.2881L15.5722 14.2849H15.4391L15.3644 14.2881L15.2899 14.2947L15.2152 14.3044L15.1407 14.3141L15.066 14.3238L14.9946 14.34L14.92 14.353L14.8487 14.3725L14.7805 14.3921L14.7092 14.4148L14.6409 14.4374L14.5761 14.4634L14.5079 14.4927L14.4431 14.5219L14.3814 14.5544L14.3197 14.5868L14.258 14.6225L14.1996 14.6582L14.1412 14.6971L14.0861 14.7361L14.0342 14.7782L13.9823 14.8204L13.9303 14.8659L13.885 14.9112L13.8396 14.9567L13.7942 15.0053L13.7521 15.0572L13.7132 15.1091L13.6776 15.161L13.645 15.2162L13.6127 15.2713L13.5834 15.3297V14.3561H11.9837" fill="#1F2C51"/>
<path d="M31.3369 14.2327L31.2557 14.2359L31.1743 14.2424L31.0967 14.2489L31.0188 14.2587L30.9441 14.2717L30.8697 14.2845L30.795 14.3008L30.7234 14.3203L30.6555 14.3399L30.5874 14.3627L30.5225 14.3885L30.4576 14.4145L30.3927 14.4436L30.3344 14.4762L30.276 14.5085L30.2174 14.5443L30.1623 14.5831L30.1104 14.622L30.0583 14.6643L30.0097 14.7096L29.9611 14.755L29.919 14.8071L29.8734 14.8559L29.8348 14.9108L29.7957 14.9659L29.7599 15.021L29.7276 15.0827L29.6953 15.1443L29.666 15.2094L29.6399 15.2743L29.6141 15.3422V14.3234H28.0665V19.5536H29.8381V16.9192L29.8413 16.8543L29.8476 16.7894L29.8574 16.7245L29.8704 16.6629L29.8897 16.6045L29.9092 16.5429L29.9353 16.4875L29.9646 16.4324L29.9936 16.3773L30.0292 16.3254L30.065 16.2766L30.1071 16.228L30.1495 16.1794L30.1948 16.1373L30.2434 16.095L30.292 16.0529L30.3441 16.0141L30.3992 15.9782L30.4576 15.9459L30.5162 15.9134L30.5743 15.8843L30.6362 15.855L30.6978 15.8324L30.7627 15.8096L30.8276 15.7903L30.8957 15.7708L30.9639 15.7575L31.032 15.7448L31.0999 15.735L31.1715 15.7285L31.2395 15.7252L31.3108 15.722L31.4213 15.7252L31.5381 15.735L31.6613 15.7513L31.7943 15.7708V14.2522L31.6808 14.2424L31.5801 14.2359L31.4957 14.2327H31.4213H31.3369L31.3369 14.2327Z" fill="#1F2C51"/>
<path d="M25.8148 14.0381V19.5471H27.531V14.0381H25.8148" fill="#1F2C51"/>
<path d="M22.9078 17.9606L23.5242 19.5342H25.5228L22.7747 12.5813H20.4647L17.8043 19.5342H19.6698L20.2797 17.9606H22.9078L22.4795 16.7116H20.721L21.6002 14.0705L22.4795 16.7116" fill="#1F2C51"/>
<path d="M6.86393 15.8453L6.90286 15.8291L6.94823 15.8065L7.00336 15.787L7.0617 15.7643L7.19482 15.7189L7.34735 15.6734L7.51607 15.6312L7.70099 15.5923L7.79517 15.5729L7.89245 15.5566L7.99294 15.5404L8.09356 15.5274L8.19405 15.5176L8.29788 15.5079L8.39849 15.5014L8.50232 15.4981H8.60294L8.70355 15.5014L8.80095 15.5079L8.89823 15.5176L8.99241 15.5338L9.08326 15.5533L9.17078 15.5759L9.25508 15.6018L9.33617 15.6343L9.4107 15.67L9.48214 15.7123L9.55025 15.7609L9.56645 15.7771L9.58264 15.7966L9.59883 15.8161L9.61181 15.8388L9.62479 15.8647L9.63455 15.8907L9.64432 15.92L9.65075 15.9523L9.66373 16.0171L9.67349 16.0919L9.6767 16.1729L9.67992 16.2606L9.55013 16.2735L9.4269 16.2799L9.31009 16.2866L9.19328 16.293L8.97586 16.2962H8.75844L8.54102 16.2994L8.31396 16.3092L8.19381 16.3188L8.06736 16.3285L7.93758 16.345L7.80124 16.3675L7.67789 16.3903L7.55775 16.4193L7.44106 16.4552L7.32747 16.4973L7.21709 16.546L7.11326 16.6012L7.01277 16.6596L6.91858 16.7245L6.82773 16.796L6.74022 16.8705L6.66234 16.9482L6.58769 17.0325L6.51958 17.1171L6.4579 17.2078L6.40265 17.302L6.35396 17.3993L6.3118 17.4998L6.27608 17.6038L6.25013 17.7106L6.2306 17.8178L6.22095 17.9281L6.21762 18.0384L6.22417 18.1519L6.24036 18.2654L6.26299 18.3823L6.29871 18.499L6.34086 18.6158L6.39277 18.7325L6.45778 18.8493L6.53244 18.966L6.61674 19.0827L6.71402 19.1995L6.73664 19.2287L6.76653 19.2552L6.79249 19.2778L6.82166 19.3039L6.88655 19.3493L6.95478 19.3914L7.02932 19.427L7.11052 19.4628L7.19161 19.492L7.27924 19.5212L7.36688 19.544L7.46094 19.5635L7.55513 19.5797L7.65241 19.5959L7.7498 19.6056L7.84708 19.6121L7.9477 19.6154L8.04831 19.6186H8.12285L8.19751 19.6154L8.26883 19.6121L8.34027 19.6056L8.41171 19.5991L8.47982 19.5894L8.54793 19.5797L8.61615 19.5667L8.68105 19.5538L8.74594 19.5376L8.80762 19.5212L8.86929 19.5018L8.93097 19.4823L8.98932 19.4598L9.05099 19.4338L9.10612 19.411L9.19042 19.3688L9.27473 19.3202L9.35581 19.265L9.44011 19.2032L9.52441 19.1352L9.60872 19.0573L9.69302 18.9762L9.77732 18.8886L9.79684 18.9893L9.81637 19.0768L9.83911 19.1514L9.85531 19.2098L9.87162 19.2714L9.89424 19.3526L9.90722 19.3982L9.92353 19.4467L9.93973 19.4954L9.96247 19.5441H11.6723L11.6399 19.4662L11.6172 19.3885L11.5946 19.3138L11.5782 19.2391L11.5653 19.171L11.5555 19.1029L11.5457 19.0446L11.536 18.9895L11.5262 18.9374L11.5198 18.8792L11.5132 18.8174L11.5068 18.7494L11.5036 18.6778L11.5004 18.6001L11.4972 18.5188L11.4938 18.4345L11.4549 16.2088L11.4517 16.1211L11.4451 16.0401L11.4354 15.9589L11.4224 15.881L11.4062 15.7999L11.3834 15.7155L11.3608 15.6279L11.3315 15.5306L11.3121 15.4819L11.2926 15.4333L11.2731 15.3878L11.2471 15.3393L11.2212 15.2937L11.1952 15.2483L11.1659 15.2028L11.1367 15.1607L11.0751 15.0795L11.0134 15.0049L10.9517 14.9368L10.8966 14.8785L10.8544 14.8395L10.8123 14.8039L10.7669 14.7649L10.7182 14.7325L10.6696 14.6969L10.6177 14.6644L10.5658 14.632L10.5107 14.6027L10.4523 14.5734L10.3972 14.5474L10.3387 14.5215L10.2804 14.4989L10.222 14.4793L10.1636 14.4598L10.1052 14.4435L10.0468 14.4305L9.92353 14.4079L9.79375 14.3819L9.65087 14.3592L9.50167 14.3397L9.34271 14.3201L9.17399 14.3072L8.99241 14.2974L8.80738 14.2942H8.68736L8.57043 14.2978L8.45362 14.3043L8.34015 14.314L8.22989 14.3269L8.12285 14.3399L8.01581 14.3561L7.91198 14.3756L7.79196 14.3983L7.64276 14.4306L7.4838 14.4664L7.3183 14.5085L7.23721 14.5313L7.16267 14.554L7.09123 14.5766L7.02634 14.6026L6.97121 14.6252L6.92549 14.6514L6.90596 14.6644L6.88977 14.6774L6.87691 14.6871L6.86714 14.7001L6.86393 15.8453L9.68004 17.2114V17.4221L9.67682 17.5099L9.67361 17.5943L9.66384 17.6753L9.65408 17.7501L9.6411 17.8214L9.62157 17.8896L9.60205 17.9512L9.57609 18.0096L9.56311 18.0356L9.55013 18.0617L9.53394 18.0842L9.51775 18.1037L9.47881 18.1426L9.43666 18.1782L9.3426 18.2432L9.22579 18.3147L9.16744 18.3503L9.10898 18.3764L9.05064 18.399L8.99229 18.4152L8.93383 18.4282L8.87215 18.4347L8.80726 18.4378L8.73594 18.4411L8.66128 18.4378L8.57698 18.4314L8.48934 18.4185L8.39849 18.4022L8.35313 18.3926L8.31098 18.3828L8.27204 18.373L8.23632 18.3599L8.2006 18.3437L8.17143 18.331L8.14547 18.3147L8.12594 18.2952L8.09022 18.2561L8.06105 18.214L8.03176 18.1686L8.00914 18.1199L7.98973 18.068L7.97675 18.0159L7.96699 17.9608L7.96377 17.9025L7.96699 17.8539L7.97675 17.7986L7.98973 17.7435L8.00914 17.6915L8.03176 17.6363L8.05772 17.5878L8.09011 17.5391L8.12249 17.5L8.14523 17.4807L8.17119 17.4581L8.20358 17.4386L8.2393 17.4158L8.28145 17.3963L8.33003 17.3738L8.37873 17.3544L8.43386 17.3349L8.4922 17.3155L8.55067 17.2959L8.61222 17.2797L8.67712 17.2666L8.74201 17.2539L8.81024 17.2441L8.87513 17.2344L8.94324 17.2312L9.04052 17.2246L9.1378 17.2215H9.22865L9.31628 17.2182H9.4038L9.49465 17.215H9.5855L9.67968 17.2119" fill="#1F2C51"/>
</svg>
