<svg width="32" height="32" viewBox="0 0 32 32" fill="none" xmlns="http://www.w3.org/2000/svg">
<path d="M4.10109 8.04077H0.49467C0.0764497 8.04077 -0.152366 8.52744 0.114877 8.84907L10.7026 21.6216C11.5399 22.6315 11.5052 24.1046 10.621 25.0742L7.57247 28.4162C7.28367 28.7332 7.50867 29.2414 7.93723 29.2414H13.5288C13.8964 29.2414 14.248 29.0875 14.4975 28.8157L15.6415 27.5714L17.831 25.1727C18.7162 24.2031 18.7518 22.7299 17.9134 21.7191L8.15279 9.94526C7.15319 8.73844 5.66785 8.04077 4.10095 8.04077" fill="#5D0632"/>
<path d="M21.3774 21.2853L24.4427 17.9255C24.6086 17.7445 24.6153 17.4679 24.4587 17.2785L14.2011 4.90449C13.2015 3.69764 11.7162 3 10.1493 3H6.54191C6.12369 3 5.89486 3.48667 6.16213 3.8083L20.6338 21.2675C20.8252 21.4982 21.1767 21.5067 21.3783 21.2861" fill="#3DBDAE"/>
<path d="M31.5055 8.95972H27.645C26.1662 8.95972 24.7569 9.5814 23.7591 10.6729L23.1646 11.3237C22.9987 11.5055 22.9921 11.7822 23.1487 11.9716L25.9871 15.3999C26.1785 15.6306 26.5291 15.6391 26.7316 15.4185L31.8703 9.78663C32.1591 9.46968 31.9341 8.96049 31.5055 8.96049" fill="#5D0632"/>
</svg>
