<svg width="32" height="32" viewBox="0 0 32 32" fill="none" xmlns="http://www.w3.org/2000/svg">
<path d="M3.54843 12.4758C3.54843 12.4758 3.12482 12.8994 2.90186 13.6351C2.90186 13.6351 0.204117 21.0372 0.0926402 21.55C0.0926402 21.55 -0.241791 22.4864 0.360185 22.7317C0.360185 22.7317 0.895275 22.9992 1.65332 22.1074C1.65332 22.1074 3.01334 20.569 5.57732 16.4221C5.57732 16.4221 7.91833 12.5427 8.0744 11.963C8.0744 11.963 8.18588 11.4502 7.33865 11.3387C7.33865 11.3387 6.51372 11.2272 5.6665 11.5171C5.6665 11.5171 4.06123 11.963 3.54843 12.4758Z" fill="#F3901F"/>
<path d="M20.9166 5.5419C20.9166 5.5419 20.6044 4.76156 18.7539 5.0737C18.7539 5.0737 13.9158 5.92093 9.21147 7.83833C9.21147 7.83833 8.83245 7.9944 3.97204 10.2685C3.97204 10.2685 3.39236 10.5361 3.50384 10.7367C3.50384 10.7367 3.61532 10.9597 5.06452 10.4023L9.5459 8.68556C9.5459 8.68556 13.5591 7.48161 13.5591 9.01999C13.5591 9.01999 13.5591 9.35442 11.2404 12.0522C11.2404 12.0522 8.02981 15.664 5.62191 19.4988C5.62191 19.4988 4.26188 21.5946 3.7045 23.3559C3.7045 23.3559 3.12482 25.2956 3.86057 25.9422C3.86057 25.9422 4.99763 26.9678 7.6062 25.8753L14.2725 22.754C14.2725 22.754 18.3526 20.9703 23.4582 20.4352L27.7167 20.1454C27.7167 20.1454 27.9396 19.8333 26.5127 19.5657L22.5664 19.2536C22.5664 19.2536 16.3237 19.1421 10.5269 20.5021C10.5269 20.5021 9.90263 20.6136 9.59049 20.2346C9.59049 20.2346 9.23376 19.7664 9.83574 18.986C9.83574 18.986 13.7151 13.8358 19.8018 7.77145C19.8018 7.77145 21.2287 6.38913 20.9166 5.5419Z" fill="#F3901F"/>
<path d="M8.5872 7.34777C8.5872 7.34777 7.82915 7.83827 6.89274 8.03893L5.26518 8.08352C5.26518 8.08352 4.59631 7.88286 4.64091 7.41466C4.64091 7.41466 4.70779 6.90186 5.42125 6.38907C5.42125 6.38907 6.1124 5.87627 7.0934 5.69791L8.74326 5.65332C8.74326 5.65332 9.38983 5.85398 9.36754 6.36677C9.36754 6.36677 9.32295 6.83498 8.5872 7.34777Z" fill="#F3901F"/>
<path fill-rule="evenodd" clip-rule="evenodd" d="M17.9289 11.8509C17.9289 11.8509 18.7539 10.9148 20.0025 10.9148C20.0025 10.9148 21.2069 10.9149 21.7865 11.6953L21.8312 11.3382C21.8312 11.3382 21.8303 11.0716 22.1424 11.0716H23.1014C23.1014 11.0716 23.3686 11.0707 23.3909 11.3828V16.2658C23.3909 16.2658 23.3693 16.4439 23.5031 16.6446L23.6587 16.7339H23.7709C23.7709 16.7339 23.9934 16.7118 24.0157 16.957V17.6265C24.0157 17.6265 24.0155 17.8931 23.7479 17.8931H23.0797C23.0797 17.8931 22.0982 17.8706 21.8975 17.0234C21.8975 17.0234 21.2292 18.0499 19.8469 18.0499C19.8469 18.0499 18.4638 18.0495 17.7057 17.0016C17.7057 17.0017 16.9928 16.0648 16.9928 14.6156C16.9928 14.6156 16.9925 12.8542 17.9289 11.8509ZM20.3149 12.2755C20.3149 12.2755 20.3082 12.2749 20.2968 12.2755C20.1253 12.2836 18.754 12.4145 18.754 14.5047C18.754 14.5047 18.7541 16.6446 20.2256 16.6446C20.2256 16.6446 21.2731 16.6449 21.719 15.7085V13.033C21.719 13.033 21.2513 12.2755 20.3149 12.2755Z" fill="#057FA6"/>
<path d="M26.7357 11.428V17.537C26.7357 17.537 26.7357 17.8937 26.379 17.8937H25.398C25.398 17.8937 25.0189 17.8937 25.0189 17.537V11.428C25.0189 11.428 25.0189 11.0713 25.398 11.0713H26.379C26.379 11.0713 26.7357 11.0713 26.7357 11.428Z" fill="#057FA6"/>
<path d="M31.9974 11.2718L31.8413 12.2305L31.6407 12.4311H31.5738L31.2171 12.3865C31.2171 12.3865 30.4367 12.3865 29.857 13.0554V17.5368C29.857 17.5368 29.857 17.8935 29.5003 17.8935H28.4747C28.4747 17.8935 28.1626 17.8935 28.1626 17.5368V11.4278C28.1626 11.4278 28.1626 11.0711 28.5193 11.0711H29.4111C29.4111 11.0711 29.7679 11.0711 29.7679 11.3387V11.8069C29.7679 11.8069 30.459 10.915 31.44 10.915L31.8413 10.9596L31.9974 11.138V11.2718Z" fill="#057FA6"/>
<path d="M26.8026 9.57745C26.8026 9.57745 26.8026 10.4916 25.8662 10.4916C25.8662 10.4916 24.9297 10.4916 24.9297 9.62204C24.9297 9.62204 24.9297 8.73022 25.8662 8.73022C25.8662 8.73022 26.8026 8.73022 26.8026 9.57745Z" fill="#057FA6"/>
</svg>
