<svg width="32" height="32" viewBox="0 0 32 32" fill="none" xmlns="http://www.w3.org/2000/svg">
<path fill-rule="evenodd" clip-rule="evenodd" d="M2.24786 10H1.02814V11.2199H2.24786V10ZM2.24786 12.4519H1.02814V18.8917C1.02814 19.3458 0.764839 19.5377 0.346202 19.5377H0V20.6858H0.477554C1.50608 20.6858 2.24786 20.0038 2.24786 18.9875V12.4519Z" fill="#003876"/>
<path fill-rule="evenodd" clip-rule="evenodd" d="M8.03389 14.9393V15.9434H4.25499C4.25499 16.9361 4.86477 17.4387 5.70204 17.4387C6.16842 17.4387 6.6704 17.2233 7.02973 16.853L7.91388 17.6059C7.31636 18.2993 6.53872 18.5869 5.72608 18.5869C4.482 18.5869 3.03522 17.9887 3.03522 15.5015C3.03522 13.1451 4.3622 12.3801 5.53494 12.3801C6.87342 12.3801 8.03389 13.3727 8.03389 14.9393ZM5.53483 13.5283C4.81697 13.5283 4.27865 14.0185 4.25494 14.9393H6.81406C6.77864 14.0185 6.25263 13.5283 5.53483 13.5283Z" fill="#003876"/>
<path d="M9.00094 10.61H10.2207V12.4519H11.105V13.3847H10.2207V16.9123C10.2207 17.2475 10.352 17.3669 10.6501 17.3669H11.105V18.515H10.4714C9.622 18.515 9.00094 17.9759 9.00094 17.02V13.3847H8.39001V12.4519H9.00094V10.61Z" fill="#003876"/>
<path fill-rule="evenodd" clip-rule="evenodd" d="M11.882 18.5149H15.4701C16.75 18.5149 17.8378 17.5701 17.8378 16.0994C17.8378 15.2383 17.3836 14.3534 16.4509 14.1375V14.114C17.4435 13.6714 17.7069 12.9898 17.7069 12.2844C17.7068 10.945 16.8449 10 15.1831 10H11.882V18.5149ZM15.1598 14.736C16.1163 14.736 16.546 15.3456 16.546 16.0152C16.546 16.6853 16.1162 17.295 15.1598 17.295H13.1742V14.736H15.1598ZM16.4147 12.3681C16.4147 11.7103 15.9724 11.1485 15.0394 11.1485H13.1742V13.5883H15.0394C15.9724 13.5883 16.4147 13.0374 16.4147 12.3681Z" fill="#003876"/>
<path d="M18.5389 10H19.7587V16.9482C19.7587 17.2232 19.9142 17.3669 20.2141 17.3669H20.6321V18.5149H20.094C19.2084 18.5149 18.5389 18.1325 18.5389 17.0437V10H18.5389Z" fill="#003876"/>
<path d="M21.1461 12.4519H22.366V16.0631C22.366 16.8888 22.88 17.3669 23.5745 17.3669C24.2559 17.3669 24.7694 16.8889 24.7694 16.0631V12.4519H25.9897V18.515H24.7694V17.8688H24.7465C24.3634 18.3475 23.8131 18.5869 23.1791 18.5869C22.2231 18.5869 21.1461 17.857 21.1461 16.4822V12.4519H21.1461Z" fill="#003876"/>
<path fill-rule="evenodd" clip-rule="evenodd" d="M31.6444 14.9393V15.9434L27.865 15.9434C27.865 16.9363 28.4752 17.4388 29.3122 17.4388C29.7789 17.4388 30.2804 17.2234 30.6392 16.853L31.5246 17.6059C30.9265 18.2993 30.1497 18.5869 29.3356 18.5869C28.0923 18.5869 26.6447 17.9887 26.6447 15.5015C26.6447 13.1451 27.9726 12.3801 29.1446 12.3801C30.4843 12.3801 31.6444 13.3727 31.6444 14.9393ZM29.1446 13.5283C28.427 13.5283 27.8898 14.0185 27.865 14.9393H30.4249C30.3881 14.0185 29.8621 13.5283 29.1446 13.5283Z" fill="#003876"/>
</svg>
