<svg width="32" height="32" viewBox="0 0 32 32" fill="none" xmlns="http://www.w3.org/2000/svg">
<rect x="0.0669556" y="16.3384" width="31.5622" height="1.48878" fill="#FF8534"/>
<path fill-rule="evenodd" clip-rule="evenodd" d="M0.0669556 17.7632H31.6291V19.252H0.0669556V17.7632Z" fill="#FF2A2A"/>
<path fill-rule="evenodd" clip-rule="evenodd" d="M0.0669556 19.2305H31.6291V20.7192H0.0669556V19.2305Z" fill="#AA0000"/>
<path d="M2.14359 17.2911L2.78163 18.2269H5.99315L6.41851 16.6105L10.7785 16.6318L11.4804 16.3553L11.055 17.3762L11.608 18.2057L18.7329 18.2907C18.9258 18.251 19.1239 18.3842 19.3071 18.0143L19.3496 18.2695L21.9018 18.2482L23.0078 16.6956L26.0917 16.6105C26.1172 17.4406 26.6018 17.7198 26.8786 18.2482L29.7286 18.2907L29.92 17.8016L29.1331 16.6105C28.9303 16.6034 28.7629 16.5374 28.729 16.249L27.3891 12.1867L26.6021 11.1871L22.1783 11.2084C21.993 11.2019 21.8323 11.4423 21.8168 11.7188L22.3059 12.442L20.3918 15.1218L20.0728 14.3561H20.5407L21.3276 11.8464L20.8597 11.1446L14.2452 11.2084C13.296 11.4056 12.8429 11.8701 12.6289 12.4632C12.2891 11.6992 11.7557 11.2148 10.9061 11.1871L4.079 11.1021L3.86632 11.6763L4.46183 12.7184L3.48349 16.1214C3.29556 16.5573 2.91186 16.6408 2.44134 16.568L2.14359 17.2911Z" fill="black"/>
<path d="M2.63275 17.057C3.07358 16.9774 3.53803 16.9333 3.75997 16.5253L5.05734 12.378C5.08425 11.9645 4.8389 11.6998 4.35548 11.5698L10.736 11.5698C12.7901 11.8371 12.542 15.439 10.1405 15.4407H6.09948L6.37597 14.356H9.86397C10.83 14.382 10.9878 13.0109 10.3319 12.7396L6.43978 12.7821L5.12114 17.0783L2.63275 17.057Z" fill="white"/>
<path d="M11.5442 17.1211L12.161 15.0793L12.2673 15.0155C12.1996 15.5652 12.4857 15.8398 12.9266 15.9938L17.5206 16.0151C18.0238 16.0189 18.1424 14.9785 17.7333 14.9942H14.0964C12.5821 15.076 11.9437 12.2866 14.5217 11.5913L20.3918 11.6338L19.8175 13.6118L19.6899 13.5905C19.8078 13.024 19.5495 12.7446 19.1051 12.7557L14.7663 12.777C14.0757 12.7983 14.0611 13.867 14.6281 13.867L18.6265 13.8245C19.712 13.9491 19.8701 16.8787 17.8609 17.0785L11.5442 17.1211Z" fill="white"/>
<path d="M18.7275 17.1421L18.7329 17.0357C18.9892 16.9938 19.3908 17.1317 19.6776 16.8064L22.7419 12.4684C23.06 11.8337 22.6986 11.7825 22.4123 11.6974L22.3272 11.6336L26.0917 11.6123L27.8357 16.4615C28.1115 17.0886 28.5404 17.0004 28.9204 17.057V17.1846L26.5383 17.1633L25.9853 15.5469H22.7313L23.3906 14.441L25.6252 14.4339L24.9219 12.0802C24.7943 11.8419 24.5816 11.8553 24.4328 12.0802L21.0511 17.1421H18.7275Z" fill="white"/>
</svg>
