<svg width="32" height="32" viewBox="0 0 32 32" fill="none" xmlns="http://www.w3.org/2000/svg">
<path d="M26.4427 14.3067L28.8853 13.0053L26.9653 13L26.4427 14.3067Z" fill="#00A7E1"/>
<path d="M8.96 17.592H6.67734L7.072 16.6H9.10934L9.536 15.4907H7.488L7.92 14.3974H9.95734L10.4213 13.2134H8.37867H6.576L4.496 18.7867H8.496L8.96 17.592Z" fill="#F15A22"/>
<path d="M9.584 17.592L9.10933 18.792C10.1653 18.904 11.0667 18.7814 11.0667 18.7814C11.6907 18.7227 12.7413 18.52 13.3067 17.16L14.8853 13.2134H13.0827L11.7013 16.6267C11.7013 16.6267 11.4827 17.368 10.6933 17.5654C10.4107 17.64 9.89867 17.608 9.584 17.592ZM0.474667 17.592L0 18.792C1.056 18.904 1.952 18.7814 1.952 18.7814C2.576 18.7227 3.62667 18.52 4.192 17.16L5.77067 13.2134H3.96267L2.58133 16.6267C2.58133 16.6267 2.36267 17.368 1.57333 17.5654C1.30133 17.64 0.784 17.608 0.474667 17.592ZM18.7413 13.2134L17.4187 16.7867C17.104 17.5867 16.816 17.6294 16.3787 17.6294C15.8667 17.6294 15.9947 17.208 16.064 16.9627L17.4773 13.2134H15.6907L14.2347 17.1334C13.728 18.5307 14.8853 18.824 15.456 18.824H16.3893C16.9013 18.824 18.512 18.6854 19.0027 17.368L20.5387 13.2187H18.7413V13.2134Z" fill="#F15A22"/>
<path d="M28.0053 14.4082H26.3893L24.736 18.8402H26.3573L28.0053 14.4082Z" fill="#F15A22"/>
<path d="M31.6533 14.408C30.784 14.408 30.2773 14.9093 30.0107 15.2293L30.336 14.408H28.72L27.0667 18.84H28.688L29.4773 16.7387C29.8827 15.7947 30.7467 15.736 30.896 15.736H31.5093L31.9947 14.408H31.6533ZM23.0453 17.2453C23.0453 17.2453 22.832 17.9013 21.9147 17.9013C21.776 17.9013 21.584 17.8213 21.616 17.5707C21.648 17.2933 21.8293 17.1867 22.0587 17.1387L23.1627 16.9307L23.0453 17.2453ZM21.824 16.3387C20.7947 16.4507 19.968 16.92 19.8613 17.8C19.808 18.2373 20.0213 18.84 21.1787 18.84C21.1787 18.84 22.048 18.872 22.5867 18.504L22.4587 18.8453H24.0427L25.1307 15.8693L25.1893 15.7147C25.3387 15.3093 25.3333 14.4133 23.424 14.3707C22.6187 14.3547 21.3013 14.5093 20.5227 15.8693H22.1013C22.1013 15.8693 22.3253 15.288 23.0507 15.288C23.0507 15.288 23.504 15.2667 23.5413 15.5653C23.5413 15.5653 23.5947 16.0027 22.928 16.168C22.5387 16.2587 21.824 16.3387 21.824 16.3387Z" fill="#F15A22"/>
</svg>
