<svg width="32" height="32" viewBox="0 0 32 32" fill="none" xmlns="http://www.w3.org/2000/svg">
<path d="M20.2108 9.02521C20.4035 8.99016 20.6125 9.01428 20.7788 9.12362C21.0705 9.29761 21.2136 9.67936 21.1065 10.0023C21.001 10.3631 20.6006 10.6095 20.2314 10.5271C19.9912 10.4856 19.7811 10.3165 19.6802 10.0965C19.585 9.89484 19.5859 9.65042 19.6821 9.44941C19.7795 9.23619 19.9818 9.07506 20.2108 9.02521Z" fill="#FDAF18"/>
<path d="M17.041 9.42182C17.4099 9.38001 17.7759 9.31601 18.1442 9.27002C18.1358 12.5205 18.14 15.7713 18.138 19.0218C17.7717 19.0205 17.4054 19.0225 17.0394 19.0209C17.041 15.8212 17.0381 12.6215 17.041 9.42182Z" fill="#FDAF18"/>
<path d="M22.9747 10.3327C23.3388 10.2797 23.7035 10.2285 24.0678 10.1758C24.0678 10.7466 24.0678 11.3178 24.0682 11.8887C24.7931 11.8896 25.5186 11.8887 26.2438 11.8893C26.1146 12.2026 25.9811 12.5139 25.8518 12.8271C25.2572 12.8274 24.6625 12.8265 24.0678 12.8274C24.0682 14.2859 24.0682 15.7441 24.0678 17.2023C24.0633 17.4512 24.0762 17.7223 24.2261 17.932C24.3525 18.1118 24.5882 18.1713 24.7976 18.1603C25.2504 18.1427 25.6653 17.9201 26.0184 17.6503C26.1326 17.9117 26.2487 18.1726 26.3628 18.434C25.8666 18.7981 25.2871 19.0718 24.6689 19.1313C24.2508 19.1602 23.798 19.0994 23.4613 18.8303C23.1278 18.5669 22.9805 18.1304 22.976 17.7168C22.9753 16.0869 22.976 14.457 22.9757 12.8271C22.5894 12.8265 22.2035 12.8278 21.8176 12.8265C21.8208 12.5132 21.8121 12.1997 21.8221 11.8864C22.2064 11.8925 22.591 11.8877 22.9753 11.889C22.9753 11.3702 22.977 10.8515 22.9747 10.3327Z" fill="#FDAF18"/>
<path fill-rule="evenodd" clip-rule="evenodd" d="M29.6262 11.7461C29.1242 11.6744 28.5974 11.7091 28.1275 11.9111C27.5306 12.1591 27.0527 12.6444 26.7517 13.2101C26.4474 13.7729 26.3021 14.4113 26.2709 15.0471C26.2432 15.6723 26.3162 16.3049 26.5153 16.8992C26.6783 17.3765 26.9253 17.8303 27.2724 18.1992C27.639 18.5951 28.1204 18.8813 28.6421 19.0193C29.2432 19.1817 29.8835 19.1708 30.4868 19.0247C30.9586 18.9096 31.4211 18.7218 31.8048 18.4188C31.7527 18.3027 31.7019 18.1861 31.6511 18.0695C31.5921 17.9339 31.533 17.7983 31.4719 17.6634C30.8123 18.0721 29.9999 18.2834 29.2306 18.1201C28.735 18.0207 28.2774 17.7419 27.9709 17.3389C27.5985 16.8549 27.4399 16.2342 27.4377 15.6305C28.4471 15.6303 29.4564 15.6304 30.4656 15.6304C30.9702 15.6305 31.4748 15.6305 31.9794 15.6305C31.9903 15.1121 31.9682 14.5898 31.8508 14.0832C31.7105 13.4468 31.4285 12.8206 30.9458 12.371C30.5839 12.0323 30.1147 11.8185 29.6262 11.7461ZM27.4508 14.692C27.4582 14.1215 27.6264 13.523 28.0394 13.1113C28.3739 12.7572 28.8855 12.5894 29.3657 12.6556C29.7134 12.6994 30.0375 12.8827 30.2649 13.1477C30.6322 13.5712 30.7862 14.1398 30.8007 14.6914C30.0125 14.693 29.2243 14.6927 28.4361 14.6923C28.1077 14.6922 27.7793 14.692 27.4508 14.692Z" fill="#FDAF18"/>
<path d="M19.8111 11.8623C20.1864 11.8623 20.5614 11.8623 20.9367 11.8623C20.9367 14.2422 20.9367 16.6221 20.9367 19.002C20.5614 19.002 20.1864 19.002 19.8111 19.002C19.8111 16.6221 19.8111 14.2422 19.8111 11.8623Z" fill="#FDAF18"/>
<path d="M2.58669 11.4779C3.14018 11.4053 3.6927 11.3239 4.2449 11.2432C4.24555 14.3438 4.24522 17.4447 4.24522 20.5454C4.24169 21.0686 4.22078 21.5993 4.0767 22.1058C3.94452 22.5924 3.67823 23.0587 3.26432 23.3581C2.79992 23.7 2.21363 23.8296 1.64599 23.847C1.46267 23.8759 1.27903 23.8444 1.09539 23.8351C0.724902 23.8013 0.360842 23.7126 0.0131836 23.58C0.185566 23.1613 0.361485 22.7435 0.523897 22.321C0.862872 22.4322 1.22307 22.4837 1.57974 22.4641C1.8679 22.4467 2.16378 22.3113 2.31236 22.0543C2.55389 21.6623 2.55871 21.185 2.58669 20.7399C2.58701 17.6525 2.58669 14.5651 2.58669 11.4779Z" fill="#00083C"/>
<path d="M12.6392 12.3478C13.193 12.2799 13.7455 12.1976 14.2974 12.1152C14.2981 12.7263 14.2974 13.337 14.2977 13.9481C15.0397 13.9478 15.7816 13.949 16.5233 13.9474C16.3515 14.3861 16.1679 14.82 15.9939 15.2577C15.4285 15.2583 14.8631 15.2573 14.2977 15.258C14.2977 16.5492 14.2974 17.8402 14.2981 19.1314C14.3074 19.3585 14.354 19.6193 14.5541 19.7589C14.7586 19.8904 15.0181 19.8731 15.2465 19.8255C15.5777 19.7518 15.8845 19.592 16.1602 19.3971C16.3213 19.7653 16.4863 20.132 16.6439 20.5018C16.1299 20.8803 15.5256 21.1334 14.8966 21.2402C14.4415 21.318 13.9588 21.3158 13.5252 21.1421C13.1891 21.0083 12.9122 20.7353 12.7794 20.3982C12.6813 20.1709 12.6543 19.9223 12.6389 19.6775C12.6395 18.2046 12.6392 16.7313 12.6392 15.258C12.2298 15.2577 11.8207 15.2583 11.4113 15.2577C11.4129 14.8212 11.4116 14.3848 11.4119 13.9481C11.821 13.9481 12.2301 13.9481 12.6392 13.9481C12.6395 13.4145 12.6392 12.881 12.6392 12.3478Z" fill="#00083C"/>
<path fill-rule="evenodd" clip-rule="evenodd" d="M8.2338 13.7734C7.81764 13.7654 7.40084 13.8519 7.02037 14.0201C6.47332 14.2616 6.01535 14.6836 5.70275 15.1907C5.2779 15.8758 5.09201 16.6898 5.09459 17.4906C5.09266 18.2762 5.26697 19.0764 5.67573 19.7537C6.00216 20.2988 6.4968 20.7439 7.0818 20.9951C7.70283 21.2624 8.39814 21.336 9.06677 21.2601C9.81547 21.1781 10.5503 20.9173 11.1595 20.4696C11.0719 20.2644 10.9815 20.0605 10.891 19.8565C10.822 19.7008 10.7529 19.545 10.6851 19.3887C10.1281 19.7109 9.49097 19.9152 8.84293 19.901C8.31002 19.901 7.76265 19.7203 7.37929 19.3411C7.00558 18.9854 6.80779 18.4699 6.79589 17.9591C8.31678 17.9591 9.83766 17.9591 11.3585 17.9588C11.3608 17.4307 11.3589 16.8975 11.2463 16.3788C11.0977 15.6413 10.7504 14.919 10.1663 14.4295C9.63537 13.9763 8.92719 13.756 8.2338 13.7734ZM6.78528 16.7078C6.78303 16.2758 6.93708 15.8385 7.22524 15.5143C7.47867 15.2348 7.85334 15.065 8.23219 15.0804C8.60108 15.0737 8.96675 15.2406 9.20441 15.5226C9.48807 15.8484 9.61253 16.2826 9.63987 16.7071C9.08006 16.7081 8.52035 16.7079 7.96063 16.7077C7.56887 16.7076 7.1771 16.7075 6.78528 16.7078Z" fill="#00083C"/>
</svg>
