<svg width="32" height="32" viewBox="0 0 32 32" fill="none" xmlns="http://www.w3.org/2000/svg">
<path fill-rule="evenodd" clip-rule="evenodd" d="M17.6066 26.4418C19.5177 26.2614 21.4372 26.3443 23.354 26.3873C19.1453 26.8227 14.7416 27.0177 10.9025 29.0003C9.62459 29.642 8.58165 30.6935 7.98569 32C6.45559 31.5703 4.94879 31.0716 3.43301 30.5932C7.55603 27.7081 12.6816 26.7857 17.6066 26.4418ZM23.8927 23.3733C24.9183 21.6542 26.2163 20.0927 27.4309 18.4997C27.6143 21.1298 26.4741 23.6426 24.9814 25.74C24.5772 24.972 24.1505 24.2041 23.8927 23.3733ZM24.0874 20.1072C24.8038 19.1703 25.4083 18.1444 26.2163 17.2794C25.7605 19.2333 24.6719 20.9924 23.3483 22.4765C22.7495 21.5597 23.586 20.809 24.0874 20.1072ZM22.0475 19.5715C22.9729 18.3364 23.7952 17.0216 24.8008 15.8525C24.6776 17.6718 23.7063 19.259 22.6719 20.7059C22.4631 20.3276 22.2538 19.9494 22.0475 19.5715ZM26.2362 15.9613C26.3078 15.5488 26.6917 15.288 26.9181 14.9586C27.0155 15.8181 27.1271 16.6719 27.2304 17.5286C26.8578 17.0414 26.3452 16.5889 26.2362 15.9613ZM21.3799 17.6891C22.0819 16.646 22.7895 15.5945 23.6548 14.6779C23.4686 16.2193 22.6636 17.6002 21.5777 18.6803C21.486 18.3537 21.4199 18.0243 21.3799 17.6891ZM20.3973 15.944C21.0189 15.0704 21.6091 14.1706 22.3455 13.3855C22.3598 14.7035 21.7523 15.8955 20.9501 16.9012C20.7611 16.5831 20.5777 16.2651 20.3973 15.944ZM24.4053 13.7036C24.5772 13.5432 24.9183 13.2224 25.0902 13.0619C25.1216 13.887 25.2048 14.7093 25.2764 15.5317C24.8839 15.0015 24.1648 14.4457 24.4053 13.7036ZM19.5463 13.9789C20.0448 13.3169 20.5347 12.6493 21.1134 12.0563C21.1794 13.1908 20.6724 14.2108 19.9961 15.0847C19.8443 14.7151 19.6923 14.3483 19.5463 13.9789ZM25.4339 12.6666C25.1389 12.1307 25.7892 11.8041 26.0643 11.4375C26.1731 12.2741 26.2706 13.1134 26.3824 13.95C26.05 13.5375 25.6487 13.1593 25.4339 12.6666ZM22.5317 11.9732C22.7179 11.6551 22.9643 11.38 23.1993 11.0993C23.3226 11.9217 23.4312 12.7468 23.5259 13.5719C23.1103 13.102 22.6576 12.6119 22.5317 11.9732ZM18.5807 11.9417C18.87 11.443 19.1622 10.9503 19.4747 10.4692C19.8413 11.3915 19.6466 12.3629 19.1622 13.1993C18.9617 12.7812 18.7697 12.3629 18.5807 11.9417ZM23.8296 11.0536C23.6548 10.5521 24.242 10.2599 24.4972 9.92748C24.5427 10.7468 24.6289 11.5664 24.6977 12.3857C24.3796 11.9646 23.9872 11.5692 23.8296 11.0536ZM20.5461 10.429C20.3857 9.91038 20.9473 9.5953 21.1938 9.21694C21.2825 10.0651 21.3799 10.9131 21.4802 11.7611C21.145 11.337 20.7611 10.9332 20.5461 10.429ZM21.9101 9.11391C22.0503 8.76719 22.3741 8.54637 22.6091 8.27148C22.6892 9.09959 22.7782 9.92748 22.8699 10.7556C22.4915 10.2599 21.8613 9.80436 21.9101 9.11391ZM17.1539 8.51495C17.3659 8.22274 17.5923 7.94485 17.8386 7.68128C17.936 8.50063 18.0335 9.31997 18.1021 10.1423C17.7184 9.6466 17.2715 9.15388 17.1539 8.51495ZM18.6152 7.9534C18.8413 7.64965 19.0906 7.36321 19.3687 7.10263C19.4174 7.92497 19.4976 8.74709 19.5549 9.56922C19.1566 9.09082 18.6667 8.61242 18.6152 7.9534ZM19.9561 7.38907C20.042 7.00516 20.3973 6.76446 20.6234 6.46071C20.738 7.28882 20.8443 8.11971 20.9415 8.9476C20.5491 8.48053 20.036 8.03078 19.9561 7.38907ZM10.461 9.93325C10.7706 8.55236 11.5613 7.36043 12.0999 6.06824C12.8733 6.07124 13.6469 6.07124 14.4235 6.08256C14.9622 7.38052 15.6813 8.5981 16.1313 9.93325C15.9248 10.3114 15.7243 10.6925 15.5295 11.0764C16.1569 11.2742 16.7903 11.4546 17.4089 11.6752C17.131 12.231 16.833 12.7754 16.5466 13.3254C17.1252 13.5633 17.6983 13.8096 18.2684 14.0648C18.0592 14.6548 17.9046 15.311 17.4232 15.7493C16.1368 15.9701 14.8102 15.8095 13.518 16.0216C15.6039 16.3253 17.6983 16.5861 19.7755 16.9354C20.1222 17.7635 20.4747 18.5886 20.8212 19.4165C18.022 19.4368 15.2114 19.4138 12.4236 19.7261C15.4607 19.8293 18.4918 20.173 21.446 20.8979C22.1134 22.4994 22.8096 24.0896 23.4543 25.6996C18.0677 25.5908 12.5612 25.8629 7.40404 27.5563C5.70807 28.092 4.17797 29.0088 2.69682 29.9716C1.7971 29.7711 1.97473 28.6707 2.11517 27.9918C2.50486 26.6308 3.10082 25.3416 3.56789 24.0036C3.84578 24.5996 4.06617 25.2928 4.76517 25.5021C4.87419 24.3818 3.54203 23.6913 3.82847 22.574C4.36714 21.1672 5.12065 19.855 5.68498 18.4597C5.94299 19.0384 6.21511 19.62 6.63622 20.1042C6.77944 19.6487 7.21209 19.1502 6.83972 18.6947C6.44426 18.0728 6.27539 17.199 6.84249 16.6203C7.59899 16.0817 8.57011 16.0045 9.42964 15.7007C9.03141 15.1563 8.57011 14.6636 8.13169 14.1535C8.72765 13.8498 9.34093 13.5777 9.95699 13.3169C9.66179 12.7639 9.36958 12.2109 9.11178 11.6408C9.70753 11.4516 10.3093 11.2885 10.908 11.1109C10.7562 10.7182 10.5728 10.34 10.461 9.93325ZM18.6408 5.34637C18.6408 4.88208 19.128 4.63006 19.3744 4.29467C19.4317 5.12577 19.5033 5.95666 19.5491 6.79033C19.1996 6.34613 18.7642 5.92203 18.6408 5.34637ZM18.638 0C20.2739 3.78485 22.8784 7.1798 26.2592 9.56366C28.5741 11.1451 30.0323 13.9759 29.7374 16.7922C29.6427 18.1158 29.1328 19.3507 28.6228 20.5599C29.0527 18.8409 29.5969 17.0385 29.1444 15.2651C28.8034 13.3684 27.6743 11.6925 26.1703 10.5149C23.2565 8.18832 20.7094 5.36625 18.9129 2.0831C18.1996 4.04265 17.5092 6.00818 16.7557 7.95062C16.4519 7.30036 16.1627 6.64411 15.8617 5.99086C17.2916 4.27757 18.2971 2.21478 18.638 0Z" fill="#1C005E"/>
</svg>
