<svg width="32" height="32" viewBox="0 0 32 32" fill="none" xmlns="http://www.w3.org/2000/svg">
<path fill-rule="evenodd" clip-rule="evenodd" d="M25.8862 7.96932C25.8862 7.96932 18.6261 2.02052 8.75905 4.68811C8.75905 4.68811 0.650714 6.47452 0.00154555 14.4873C0.00154555 14.4873 -0.261302 20.5704 6.06858 24.9103L1.44102 26.6177L6.76456 25.4795C6.76456 25.4795 11.8993 29.1172 19.2643 28.9391C26.6293 28.7609 31.3037 24.1631 32 20.9263C32 20.9263 29.5558 27.7117 19.0866 27.8009C19.0866 27.8009 13.0416 27.4436 9.82157 24.9676L31.8113 20.2237L16.0297 6.21731L11.4389 21.4509L17.1394 11.9087L23.5726 18.5158L8.6649 24.1182C8.6649 24.1182 2.59804 20.0012 3.01139 14.1408C3.45318 7.87813 9.92667 5.07893 13.7161 4.90089C13.7161 4.90089 17.232 4.68176 19.8771 5.47509C19.8771 5.47509 21.9793 6.1004 24.4762 7.21056L25.8862 7.96932Z" fill="#C00012"/>
</svg>
