<svg width="32" height="32" viewBox="0 0 32 32" fill="none" xmlns="http://www.w3.org/2000/svg">
<path d="M14.8151 7H16.8229C16.8393 7.68206 16.8375 8.36229 16.8338 9.04434C17.5049 9.04251 18.1778 9.04617 18.8489 9.04069C18.8544 9.70994 18.8544 10.3792 18.8343 11.0485C18.1687 11.0485 17.5013 11.0521 16.8357 11.0485C16.8357 11.7067 16.8338 12.3669 16.8393 13.027C16.1774 13.069 15.5154 13.0599 14.8535 13.0544C14.8498 12.3851 14.8498 11.7141 14.8462 11.043C14.1733 11.0521 13.5022 11.0485 12.8311 11.0503C12.8201 10.3829 12.822 9.7136 12.8201 9.04617C13.4967 9.04434 14.1733 9.04251 14.848 9.04617C14.8334 8.36411 14.8937 7.6784 14.8151 7Z" fill="#00A1E4"/>
<path d="M3.18903 12.6521C5.21143 12.1657 7.43131 13.848 7.38743 15.9527C7.54286 17.7922 5.93371 19.5165 4.10331 19.5513C2.46309 19.6921 0.8576 18.4834 0.512 16.8816C0.00548536 15.0493 1.32937 12.9977 3.18903 12.6521Z" fill="#00A1E4"/>
<path d="M11.2293 12.6485C13.2498 12.1694 15.477 13.8553 15.4203 15.96C15.5831 17.8526 13.8606 19.6062 11.979 19.5568C10.3186 19.6281 8.768 18.3243 8.50652 16.6914C8.13532 14.8976 9.43178 12.9831 11.2293 12.6485Z" fill="#00A1E4"/>
<path d="M19.2731 12.6521C21.2334 12.1858 23.3746 13.7529 23.4496 15.7808C23.6069 17.1577 22.8187 18.5419 21.5954 19.1691C20.3099 19.8621 18.6075 19.6171 17.5598 18.6041C16.384 17.5033 16.139 15.565 17.0203 14.2137C17.5159 13.4146 18.3461 12.8294 19.2731 12.6521Z" fill="#00A1E4"/>
<path d="M27.3298 12.6485C29.0871 12.2535 30.9925 13.4549 31.3966 15.2103C31.7495 16.5617 31.2119 18.0812 30.0727 18.8949C29.0139 19.6849 27.4944 19.7836 26.3424 19.1381C25.0843 18.4853 24.3365 17.0023 24.5541 15.6035C24.7205 14.1607 25.8981 12.9027 27.3298 12.6485Z" fill="#00A1E4"/>
<path d="M3.8345 24.6238C3.7833 23.2268 3.80708 21.8261 3.8217 20.4291C11.8619 20.4528 19.9022 20.4346 27.9424 20.4382C27.9442 21.8298 27.9442 23.2195 27.9424 24.6092C19.9058 24.6183 11.8692 24.5909 3.8345 24.6238Z" fill="#00A1E4"/>
</svg>
