<svg width="32" height="32" viewBox="0 0 32 32" fill="none" xmlns="http://www.w3.org/2000/svg">
<path fill-rule="evenodd" clip-rule="evenodd" d="M12.8243 3.02142C18.6813 1.3719 23.1362 4.17627 23.1362 4.17627C29.8983 7.88818 29.1578 15.3953 29.1578 15.3953C28.9637 23.9092 21.3232 27.9407 21.3232 27.9407C16.2627 31.773 9.35817 29.9153 9.35817 29.9153C3.95863 28.622 1.93286 24.0572 1.93286 24.0572C-1.44694 17.5399 2.21982 11.6407 2.21982 11.6407C4.94292 5.28949 12.8243 3.02142 12.8243 3.02142ZM19.176 27.0271C19.176 27.0271 25.4439 22.8191 26.8456 19.0244C26.8456 19.0244 30.7251 11.2715 24.5379 6.65155C24.5379 6.65155 20.1648 2.93914 12.4926 6.23867C12.4926 6.23867 7.01835 8.49621 4.1307 14.1887C4.1307 14.1887 1.10459 19.2236 3.57786 24.5037C3.57786 24.5037 7.95649 32.6369 19.176 27.0271Z" fill="#EC2227"/>
<path d="M10.8371 10.9192C10.8371 10.9192 7.82354 17.9658 7.7814 18.3907C7.7814 18.3907 6.71835 21.7018 7.22855 24.9281L12.5689 25.0851C12.5689 25.0851 11.0915 24.3752 12.0246 20.5971C12.0246 20.5971 12.6622 18.3471 13.1288 18.1775C13.1288 18.1775 13.2557 17.9658 13.3415 18.3471C13.3415 18.3471 14.401 22.1668 17.2475 25.055C17.2475 25.055 19.028 27.5167 23.4432 29.2139C23.4432 29.2139 27.3066 30.2343 29.5993 28.3249C29.5993 28.3249 31.5523 27.1364 31.5935 23.6954C31.5935 23.6954 31.6266 23.3468 31.2975 23.6122C31.2975 23.6122 29.8532 25.2241 26.1613 24.9281C26.1613 24.9281 25.0586 25.1398 22.0029 22.806L15.5067 17.4576C15.5067 17.4576 15.2102 17.2449 15.6336 17.2012C15.6336 17.2012 19.4113 16.5225 20.5165 15.6305C20.5165 15.6305 23.9143 13.9609 24.3779 11.4721C24.3779 11.4721 25.0817 8.74448 23.9956 7.14212C23.9956 7.14212 23.6143 6.88677 23.4874 7.18427C23.4874 7.18427 21.5449 9.18796 19.8693 10.2631L14.8686 13.5089C14.8686 13.5089 14.4848 13.7638 14.7848 13.1698L16.2276 9.349C16.2276 9.349 17.0343 8.0331 14.8274 8.20317C14.8274 8.20317 11.5008 8.53879 9.66218 10.8049C9.66218 10.8049 9.51971 10.8771 9.77506 10.9619L10.8371 10.9192Z" fill="#EC2227"/>
</svg>
