<svg width="32" height="32" viewBox="0 0 32 32" fill="none" xmlns="http://www.w3.org/2000/svg">
<path fill-rule="evenodd" clip-rule="evenodd" d="M2.44347 22.9242L1.42882 20.3376H1.15366L0.114044 22.9242H0.374566L0.686186 22.1198H1.86357L2.17884 22.9242H2.44347ZM1.28056 20.5835L1.7804 21.9097H0.762238L1.28056 20.5835Z" fill="#596459"/>
<path fill-rule="evenodd" clip-rule="evenodd" d="M3.22714 22.4929C3.17653 22.4226 3.13955 22.3439 3.1169 22.2554C3.09381 22.1673 3.08244 22.0824 3.08244 22.0001H4.52054C4.52539 21.8697 4.51318 21.7409 4.48435 21.6143C4.45539 21.4877 4.40752 21.3751 4.34137 21.2774C4.2748 21.1799 4.18849 21.1003 4.0824 21.0402C3.97584 20.9799 3.84793 20.9494 3.69806 20.9494C3.55072 20.9494 3.42356 20.978 3.31599 21.035C3.20859 21.0913 3.12097 21.1662 3.05338 21.2592C2.98556 21.3524 2.93567 21.4578 2.90293 21.576C2.87031 21.6947 2.85413 21.8155 2.85413 21.9384C2.85413 22.0713 2.87031 22.198 2.90293 22.317C2.93567 22.4368 2.98556 22.5419 3.05338 22.6323C3.12097 22.723 3.20859 22.7942 3.31599 22.846C3.42356 22.898 3.55072 22.9242 3.69806 22.9242C3.93474 22.9242 4.11771 22.8659 4.24709 22.7503C4.3762 22.634 4.4649 22.47 4.51318 22.2575H4.28502C4.24874 22.4028 4.18363 22.5182 4.08941 22.605C3.99513 22.6919 3.86486 22.7355 3.69806 22.7355C3.58957 22.7355 3.49652 22.7127 3.41931 22.6668C3.34209 22.621 3.27771 22.563 3.22714 22.4929ZM4.12931 21.346C4.18004 21.408 4.21923 21.4785 4.24709 21.5579C4.2748 21.6375 4.28995 21.7211 4.29247 21.808H3.08244C3.09178 21.7237 3.1119 21.6407 3.14202 21.56C3.17218 21.4791 3.21256 21.408 3.26345 21.346C3.31423 21.2845 3.37587 21.235 3.44809 21.1975C3.52058 21.1598 3.60391 21.1414 3.69806 21.1414C3.78999 21.1414 3.87215 21.1598 3.94453 21.1975C4.01696 21.235 4.0786 21.2845 4.12931 21.346Z" fill="#596459"/>
<path d="M5.66903 21.0547V21.493H5.67623C5.7341 21.3408 5.82429 21.2237 5.94613 21.1419C6.06817 21.0596 6.21355 21.0219 6.38271 21.0296V21.2575C6.27883 21.2531 6.18459 21.2665 6.10015 21.2994C6.01567 21.3318 5.94244 21.3784 5.88093 21.4388C5.81937 21.499 5.7715 21.5709 5.7377 21.6544C5.70411 21.738 5.68723 21.8288 5.68723 21.9277V22.9242H5.45874V21.0547H5.66903" fill="#596459"/>
<path fill-rule="evenodd" clip-rule="evenodd" d="M8.58577 21.2431C8.51097 21.1537 8.41834 21.0825 8.30863 21.0293C8.19858 20.9763 8.07232 20.9494 7.93009 20.9494C7.78753 20.9494 7.6613 20.9763 7.55151 21.0293C7.44158 21.0825 7.34916 21.1537 7.27436 21.2431C7.1994 21.3324 7.14256 21.4366 7.104 21.5567C7.06553 21.6759 7.04608 21.8034 7.04608 21.9384C7.04608 22.0736 7.06553 22.2011 7.104 22.3209C7.14256 22.4406 7.1994 22.5448 7.27436 22.634C7.34916 22.7233 7.44158 22.7942 7.55151 22.846C7.6613 22.898 7.78753 22.9242 7.93009 22.9242C8.07232 22.9242 8.19858 22.898 8.30863 22.846C8.41834 22.7942 8.51097 22.7233 8.58577 22.634C8.66044 22.5448 8.71745 22.4406 8.75585 22.3209C8.79453 22.2011 8.81401 22.0736 8.81401 21.9384C8.81401 21.8034 8.79453 21.6759 8.75585 21.5567C8.71745 21.4366 8.66044 21.3324 8.58577 21.2431ZM7.43902 21.3916C7.49346 21.3167 7.56164 21.2564 7.64385 21.2106C7.72584 21.1645 7.82141 21.1414 7.93009 21.1414C8.03864 21.1414 8.13417 21.1645 8.21617 21.2106C8.29837 21.2564 8.36667 21.3167 8.42091 21.3916C8.47523 21.4668 8.51623 21.5519 8.54424 21.6467C8.57175 21.7424 8.58577 21.8393 8.58577 21.9384C8.58577 22.0378 8.57175 22.1347 8.54424 22.2298C8.51623 22.3255 8.47523 22.4107 8.42091 22.4855C8.36667 22.5606 8.29837 22.621 8.21617 22.6668C8.13417 22.7127 8.03864 22.7355 7.93009 22.7355C7.82141 22.7355 7.72584 22.7127 7.64385 22.6668C7.56164 22.621 7.49346 22.5606 7.43902 22.4855C7.38474 22.4107 7.34349 22.3255 7.3159 22.2298C7.28827 22.1347 7.27436 22.0378 7.27436 21.9384C7.27436 21.8393 7.28827 21.7424 7.3159 21.6467C7.34349 21.5519 7.38474 21.4668 7.43902 21.3916Z" fill="#596459"/>
<path d="M9.88165 22.9242H10.1099V20.3377H9.88165V22.9242Z" fill="#596459"/>
<path fill-rule="evenodd" clip-rule="evenodd" d="M11.7599 21.0547H11.4158V22.9242H11.7599V21.0547ZM11.8364 20.283L11.2625 20.7939H11.5411L12.2625 20.283H11.8364Z" fill="#596459"/>
<path d="M13.1653 21.0547V21.3773H13.1725C13.2162 21.2635 13.2931 21.1726 13.4042 21.1036C13.5155 21.0352 13.6371 21.0001 13.7703 21.0001C13.9006 21.0001 14.0098 21.0173 14.0979 21.0514C14.1861 21.0851 14.2568 21.1326 14.31 21.1942C14.363 21.256 14.4009 21.3313 14.4226 21.4207C14.4442 21.5103 14.455 21.6106 14.455 21.7214V22.9242H14.2267V21.7577C14.2267 21.6781 14.2194 21.6034 14.2049 21.5349C14.1906 21.4659 14.1651 21.406 14.1286 21.3554C14.0926 21.3048 14.0438 21.265 13.9823 21.2357C13.9206 21.2067 13.8436 21.1921 13.7521 21.1921C13.6602 21.1921 13.5789 21.2085 13.5077 21.2417C13.4365 21.2738 13.376 21.3185 13.3265 21.3754C13.277 21.4318 13.2384 21.4996 13.2105 21.578C13.1826 21.6568 13.1673 21.7418 13.1653 21.8338V22.9242H12.9372V21.0547H13.1653" fill="#596459"/>
<path fill-rule="evenodd" clip-rule="evenodd" d="M15.8788 22.4929C15.8281 22.4226 15.7911 22.3439 15.7684 22.2554C15.7453 22.1673 15.7342 22.0824 15.7342 22.0001H17.1719C17.1772 21.8697 17.165 21.7409 17.1362 21.6143C17.107 21.4877 17.0593 21.3751 16.9924 21.2774C16.9264 21.1799 16.84 21.1003 16.734 21.0402C16.6277 20.9799 16.4995 20.9494 16.3498 20.9494C16.2027 20.9494 16.0745 20.978 15.9679 21.035C15.8602 21.0913 15.7727 21.1662 15.7049 21.2592C15.637 21.3524 15.5872 21.4578 15.5545 21.576C15.522 21.6947 15.5056 21.8155 15.5056 21.9384C15.5056 22.0713 15.522 22.198 15.5545 22.317C15.5872 22.4368 15.637 22.5419 15.7049 22.6323C15.7727 22.723 15.8602 22.7942 15.9679 22.846C16.0745 22.898 16.2027 22.9242 16.3498 22.9242C16.5863 22.9242 16.7692 22.8659 16.8986 22.7503C17.0277 22.634 17.1162 22.47 17.165 22.2575H16.9364C16.9007 22.4028 16.8354 22.5182 16.7409 22.605C16.6468 22.6919 16.5165 22.7355 16.3498 22.7355C16.2411 22.7355 16.148 22.7127 16.0708 22.6668C15.9933 22.621 15.9299 22.563 15.8788 22.4929ZM16.7809 21.346C16.8315 21.408 16.8708 21.4785 16.8986 21.5579C16.9264 21.6375 16.9414 21.7211 16.9441 21.808H15.7342C15.7437 21.7237 15.7638 21.6407 15.794 21.56C15.8241 21.4791 15.8646 21.408 15.9153 21.346C15.9655 21.2845 16.0273 21.235 16.0995 21.1975C16.1723 21.1598 16.2558 21.1414 16.3498 21.1414C16.4416 21.1414 16.5236 21.1598 16.5962 21.1975C16.6687 21.235 16.7303 21.2845 16.7809 21.346Z" fill="#596459"/>
<path fill-rule="evenodd" clip-rule="evenodd" d="M18.2252 21.0981C18.1587 21.1489 18.1057 21.2141 18.0676 21.2936L18.0676 21.2936C18.029 21.3738 18.0059 21.4673 17.9991 21.576H18.2268C18.2316 21.424 18.2798 21.3138 18.3717 21.2448C18.4637 21.1758 18.582 21.1415 18.727 21.1415C18.7943 21.1415 18.8581 21.1469 18.9172 21.1576C18.9761 21.1688 19.0285 21.1888 19.0728 21.2177C19.1172 21.2467 19.1529 21.286 19.1777 21.3354C19.2033 21.385 19.2157 21.4483 19.2157 21.5256C19.2157 21.576 19.2092 21.6176 19.1964 21.6488C19.1824 21.6803 19.1637 21.705 19.1401 21.723C19.1157 21.741 19.0854 21.7536 19.0495 21.7611C19.013 21.7683 18.9707 21.7741 18.9227 21.7791C18.7995 21.7936 18.678 21.8085 18.5582 21.8244C18.4392 21.8403 18.3312 21.8672 18.2358 21.9059C18.1406 21.9447 18.0641 22.0006 18.0059 22.0746C17.9478 22.1485 17.919 22.2504 17.919 22.3807C17.919 22.4748 17.9351 22.556 17.9681 22.6255C18.0003 22.6941 18.0453 22.7505 18.102 22.7955C18.1587 22.8401 18.2252 22.8726 18.3012 22.8933C18.3774 22.9138 18.4588 22.9242 18.5456 22.9242C18.6378 22.9242 18.7166 22.9154 18.7832 22.899C18.8494 22.8814 18.9085 22.8577 18.9606 22.8259C19.0128 22.7948 19.0596 22.7555 19.1016 22.7084C19.144 22.6614 19.1853 22.6076 19.227 22.5475H19.2339C19.2339 22.5953 19.2373 22.6397 19.243 22.6794C19.2494 22.7196 19.2618 22.7538 19.281 22.7825C19.3004 22.8118 19.3276 22.8341 19.3631 22.8495C19.3977 22.8653 19.4444 22.8731 19.5024 22.8731C19.5339 22.8731 19.5596 22.8721 19.5803 22.8695C19.6005 22.8677 19.6241 22.8636 19.6505 22.8586V22.6667C19.629 22.6763 19.6053 22.681 19.5781 22.681C19.489 22.681 19.4444 22.6355 19.4444 22.5435V21.5507C19.4444 21.4256 19.4236 21.3233 19.3828 21.2448C19.3418 21.1662 19.2886 21.1056 19.2236 21.0617C19.1579 21.0184 19.0846 20.9888 19.0021 20.9734C18.9202 20.9572 18.8379 20.9494 18.7562 20.9494C18.6473 20.9494 18.5483 20.9617 18.4588 20.9858C18.3692 21.0099 18.2915 21.0477 18.2252 21.0981ZM19.1253 21.9097C19.1664 21.8974 19.1942 21.8784 19.2088 21.8518H19.2157V22.1488C19.2157 22.2405 19.1987 22.3225 19.1631 22.395C19.1285 22.4679 19.0815 22.5291 19.0223 22.5796C18.9633 22.6302 18.8933 22.6695 18.8142 22.6956C18.7341 22.7226 18.6511 22.7355 18.5636 22.7355C18.5107 22.7355 18.4588 22.7271 18.4081 22.7102C18.3572 22.6933 18.3127 22.6687 18.2744 22.636C18.2352 22.6036 18.2046 22.5643 18.1817 22.5204C18.1587 22.4753 18.1474 22.4241 18.1474 22.3662C18.1474 22.2743 18.1744 22.2038 18.2289 22.1545C18.2833 22.1045 18.3524 22.0668 18.4371 22.0401C18.5215 22.0134 18.6147 21.9936 18.7179 21.9801C18.8205 21.9668 18.9202 21.9519 19.0167 21.935C19.0479 21.9303 19.0846 21.9218 19.1253 21.9097Z" fill="#596459"/>
<path d="M21.6147 21.3679C21.588 21.3161 21.5527 21.2736 21.5075 21.2397C21.463 21.2058 21.4113 21.1809 21.3539 21.1651C21.2959 21.1496 21.2341 21.1415 21.1688 21.1415C21.1183 21.1415 21.0668 21.1469 21.0147 21.1577C20.9631 21.1688 20.9154 21.187 20.8718 21.2122C20.8285 21.2377 20.7934 21.2706 20.7668 21.3119C20.7404 21.353 20.7271 21.4037 20.7271 21.4638C20.7271 21.5147 20.7399 21.5574 20.765 21.5925C20.7904 21.6276 20.8225 21.6574 20.8612 21.6811C20.8995 21.7057 20.9422 21.7256 20.9881 21.7409C21.0336 21.7573 21.0761 21.7696 21.1148 21.7791L21.4193 21.8481C21.4843 21.8578 21.5485 21.8754 21.6126 21.9005C21.6768 21.9259 21.7334 21.9592 21.783 22.0001C21.8327 22.041 21.873 22.092 21.9044 22.1523C21.9355 22.2125 21.9513 22.2841 21.9513 22.3662C21.9513 22.4679 21.9288 22.5538 21.8824 22.6255C21.8364 22.6965 21.7781 22.7542 21.7069 22.7989C21.6354 22.8437 21.5553 22.8757 21.4662 22.8949C21.3765 22.9146 21.2889 22.9242 21.2019 22.9242C20.9821 22.9242 20.8035 22.8722 20.6669 22.7685C20.5308 22.6644 20.4527 22.4979 20.4338 22.2683H20.662C20.6715 22.4226 20.728 22.5396 20.8302 22.6178C20.9328 22.6965 21.0602 22.7355 21.2124 22.7355C21.2681 22.7355 21.3251 22.7295 21.3846 22.7174C21.4438 22.7055 21.4985 22.6849 21.5497 22.6558C21.6001 22.6268 21.6413 22.5904 21.6744 22.5456C21.7069 22.501 21.7237 22.446 21.7237 22.3806C21.7237 22.3248 21.7117 22.2786 21.6888 22.2413C21.6657 22.2038 21.635 22.1723 21.5966 22.1468C21.5576 22.1215 21.5135 22.1003 21.464 22.0835C21.4147 22.0668 21.3647 22.0523 21.3141 22.0401L21.0203 21.9746C20.9457 21.9557 20.877 21.9331 20.8142 21.9075C20.7511 21.8822 20.6963 21.8512 20.6491 21.8138C20.6017 21.7764 20.5649 21.7303 20.5388 21.6759C20.512 21.6213 20.4988 21.5543 20.4988 21.4752C20.4988 21.3804 20.5201 21.2996 20.5619 21.2323C20.6042 21.1645 20.6596 21.1101 20.7271 21.0692C20.7945 21.0281 20.8702 20.9981 20.9537 20.9787C21.0365 20.9593 21.1196 20.9494 21.2019 20.9494C21.2959 20.9494 21.3831 20.9618 21.464 20.9858C21.545 21.0099 21.6163 21.0477 21.6777 21.0981C21.7395 21.1488 21.7887 21.2118 21.8247 21.2866C21.861 21.3614 21.8815 21.4494 21.8861 21.5507H21.658C21.6557 21.4815 21.6409 21.4201 21.6147 21.3679Z" fill="#596459"/>
<path d="M7.70393 12.2264H5.06333L3.22865 19.0941H0.923189L2.75767 12.2264H0.117401L0.650355 10.2431L8.23662 10.2431L7.70393 12.2264Z" fill="#4F5858"/>
<path fill-rule="evenodd" clip-rule="evenodd" d="M12.5008 10.2431L10.158 10.2431L4.49298 19.0941H6.84833L7.83982 17.4451H10.9266L11.0382 19.0941H13.443L12.5008 10.2431ZM10.8274 15.7964H8.81914L10.654 12.6974H10.6784L10.8274 15.7964Z" fill="#4F5858"/>
<path fill-rule="evenodd" clip-rule="evenodd" d="M20.905 16.9259C20.7313 16.5226 20.5785 16.1175 20.4461 15.7103C20.9998 15.5393 21.4937 15.2481 21.9277 14.837C22.3614 14.4258 22.6855 13.8373 22.9006 13.0718C23.0246 12.632 23.0453 12.2331 22.9627 11.8747C22.8799 11.5165 22.7085 11.211 22.4484 10.9585C22.188 10.7063 21.8428 10.5128 21.413 10.3783C20.9834 10.2439 20.4751 10.1767 19.8883 10.1767C19.3431 10.1767 18.8391 10.2011 18.3762 10.25C17.9133 10.2991 17.5123 10.3519 17.1738 10.409C16.8347 10.4659 16.4754 10.5432 16.0952 10.641L13.8145 19.0942H16.1077L16.9631 15.9545H18.1902C18.2646 16.3699 18.3658 16.7651 18.4943 17.1395C18.6219 17.514 18.7439 17.8481 18.8596 18.1412C18.9999 18.4834 19.1447 18.8052 19.2936 19.1063H21.9461C21.7642 18.7641 21.5826 18.4021 21.4007 18.0189C21.2436 17.6934 21.0785 17.3288 20.905 16.9259ZM20.4834 12.1007C20.7232 12.3327 20.7849 12.6728 20.6695 13.1206C20.5785 13.4547 20.4295 13.7031 20.2231 13.8658C20.0163 14.0287 19.7664 14.1405 19.4733 14.2018C19.1797 14.2629 18.8576 14.2931 18.5064 14.2931H17.409L18.0543 11.9114C18.1612 11.8867 18.2853 11.8626 18.4258 11.838C18.5414 11.8218 18.6758 11.8034 18.8288 11.783C18.9816 11.7627 19.1404 11.7526 19.3061 11.7526C19.8514 11.7526 20.2438 11.8685 20.4834 12.1007Z" fill="#4F5858"/>
<path d="M30.1656 8.92133L30.1683 8.92054C30.1683 8.92054 29.8562 9.05735 29.3177 9.97718C29.3177 9.97718 29.5771 9.44938 29.7348 9.17124C28.7837 9.74741 27.7302 10.5533 27.0415 11.5794C27.0415 11.5794 27.0549 11.5371 27.1291 11.0703C27.1301 11.0616 27.1301 11.0545 27.1339 11.0466C27.1339 11.0466 26.6738 11.5991 26.0723 12.5253C26.0022 12.6409 25.2593 13.8853 25.0836 14.8254C25.0836 14.8254 25.1124 14.4794 25.1522 14.0857C24.4396 15.4202 23.7382 17.0887 23.4369 18.8791C23.4369 18.8791 24.9217 14.9872 28.8695 10.9472C28.8695 10.9472 22.4178 18.1086 23.1162 22.9468C23.0741 22.525 23.008 21.0551 23.9387 19.8774C24.0496 19.8317 24.2516 19.7867 24.444 19.9561C24.444 19.9561 24.4036 19.8106 24.2994 19.7525C24.2994 19.7525 24.6028 19.665 24.8186 19.6738C24.8186 19.6738 24.4124 19.6137 24.2547 19.5613C24.2934 19.5512 24.4498 19.5106 24.5669 19.5153C24.5669 19.5153 24.4282 19.4945 24.3177 19.4711C24.3989 19.3956 24.4822 19.3212 24.5769 19.2508C26.4187 17.8585 28.3013 16.0943 28.5996 15.7257C28.5996 15.7257 28.1712 15.982 27.8154 16.053C27.8154 16.053 29.129 15.4329 29.8892 12.9046C30.0535 12.3574 30.2189 11.8394 30.3805 11.3561L29.4859 11.6737C30.0092 11.3578 30.3419 11.0757 30.544 10.8792C31.0675 9.37967 31.5528 8.32145 31.9046 8.10595C31.9046 8.10595 31.1346 8.38214 30.1656 8.92132" fill="#E51F04"/>
</svg>
