<svg width="32" height="32" viewBox="0 0 32 32" fill="none" xmlns="http://www.w3.org/2000/svg">
<g clip-path="url(#clip0)">
<path fill-rule="evenodd" clip-rule="evenodd" d="M4.78386 4.4829C9.3244 -0.109865 16.9647 -1.29652 22.7495 1.4943C25.8057 2.92269 28.6872 5.60363 30.1934 8.7021C33.0313 13.6025 32.4637 21.052 28.9273 25.447C25.0853 30.6991 18.9076 32.9625 12.6425 31.622C7.14144 30.5672 2.09882 25.7327 0.636246 20.3488C-1.00098 14.5914 0.570761 8.59223 4.78386 4.4829ZM6.85766 3.99945C1.81504 7.86706 -0.171449 14.1739 1.7059 20.217C1.7059 20.3488 1.90235 20.2829 1.90235 20.217L14.5416 1.84591L15.0001 1.0548C11.9658 1.14271 9.23707 2.17553 6.85766 3.99945ZM18.0562 30.8529C12.1622 31.622 6.77033 28.9411 3.47407 24.0406C2.86285 23.0957 2.27345 22.0849 1.94601 20.9422L2.14248 20.8762L30.0843 20.9422C28.6217 26.1063 23.2953 30.2815 18.0562 30.8529ZM30.3026 15.9099L30.4336 19.7995C31.3722 16.5472 31.0448 12.6576 29.604 9.73493C28.3379 6.8562 25.6965 4.0434 22.815 2.637C20.6103 1.56024 18.0999 0.857038 15.4803 1.0548L15.6331 15.7561L30.3026 15.9099Z" fill="#0198CA"/>
</g>
<defs>
<clipPath id="clip0">
<rect width="32" height="32" fill="white"/>
</clipPath>
</defs>
</svg>
