<svg width="32" height="32" viewBox="0 0 32 32" fill="none" xmlns="http://www.w3.org/2000/svg">
<path d="M18.807 11.2456C18.807 12.0479 18.379 12.7892 17.6842 13.1904C16.9894 13.5915 16.1334 13.5915 15.4386 13.1904C14.7438 12.7892 14.3158 12.0479 14.3158 11.2456C14.3158 10.0054 15.3212 9 16.5614 9C17.8016 9 18.807 10.0054 18.807 11.2456Z" fill="#FFE731"/>
<path fill-rule="evenodd" clip-rule="evenodd" d="M4.21053 21.9123L9.66313 11.5264H12.9123L7.34764 21.9123H4.21053Z" fill="#214DAD"/>
<path fill-rule="evenodd" clip-rule="evenodd" d="M8.42105 21.9123L12.1562 14.8948H15.4386L11.5903 21.8748L8.42105 21.9123Z" fill="#214DAD"/>
<path fill-rule="evenodd" clip-rule="evenodd" d="M22.7368 21.9123L28.389 11.5264L31.3799 11.5633L29.7815 14.8717L32 14.8898L30.7599 17.0705H28.6079L26.0182 21.9123H22.7368Z" fill="#214DAD"/>
<path fill-rule="evenodd" clip-rule="evenodd" d="M21.7951 21.875L25.5439 14.8948L18.6491 14.9319C17.6222 14.9374 16.1034 15.8077 15.0699 16.9252C14.028 18.0517 14.192 19.2278 14.336 20.093C14.4796 20.9555 15.2141 21.9238 15.8384 21.9121L17.8259 21.875L18.9652 19.7958L17.422 19.7966C17.1977 19.7967 16.8161 19.5056 16.7601 18.9047C16.7039 18.3024 17.8262 17.0191 18.9821 17.0292L21.1703 17.0483L18.7079 21.8379L21.7951 21.875Z" fill="#214DAD"/>
<path fill-rule="evenodd" clip-rule="evenodd" d="M0.975067 22.9161C0.975067 22.9161 2.25423 20.1589 2.42881 19.3907C2.60499 18.6155 2.57691 18.133 2.50149 17.0284C2.42607 15.9238 0.782396 13.5817 0.0301361 12.8489L4.50039 11.0317C4.66999 12.4249 4.73056 13.9998 4.46404 15.6474C4.19752 16.8709 3.64026 18.0945 3.22836 19.3181C2.65898 20.6264 2.05326 21.8258 0.975067 22.9161Z" fill="#FFE331"/>
<path fill-rule="evenodd" clip-rule="evenodd" d="M2.06914 22.3759C2.77761 21.225 3.22585 20.3102 3.73717 19.0273C4.24382 17.7561 4.7669 16.1259 4.97285 14.7751C5.17338 13.4598 5.08188 12.2068 4.86382 10.9227L9.66116 9.14185C8.25588 12.0009 6.94751 14.6963 6.0995 16.1925C5.23585 17.7162 5.12428 18.0157 4.46404 19.0636C3.8038 20.1115 3.38334 20.9572 2.06914 22.3759Z" fill="#FF9A21"/>
</svg>
