<svg width="32" height="32" viewBox="0 0 32 32" fill="none" xmlns="http://www.w3.org/2000/svg">
<path fill-rule="evenodd" clip-rule="evenodd" d="M16.4109 16.8219C16.4859 16.5708 16.521 16.3276 16.5408 16.0797C16.6038 15.1454 15.9637 14.0893 14.6484 13.9322H13.9884C12.6849 14.0893 12.0919 15.1454 12.0919 16.0797C12.0919 16.3349 12.147 16.6529 12.2337 16.9119C12.4729 17.5601 13.003 18.1212 13.9731 18.2273C15.1275 18.271 15.9749 18.0152 16.4109 16.8219ZM14.5894 10.4853H31.8016L30.9031 13.9322H27.4004L25.3238 21.6828H21.4601L23.5374 13.9322H19.9015C20.3019 14.6352 20.5178 15.3695 20.4668 16.0797C20.2939 18.6401 18.8653 21.5768 14.4913 21.6748H3.97678V21.6828H0.113098L3.11285 10.4892H6.97653L4.90313 18.2273H8.44892C8.18192 17.5289 8.05589 16.7907 8.05589 16.0797C8.05589 13.473 10.0465 10.4892 14.2595 10.4892C14.3694 10.4892 14.4754 10.4892 14.5855 10.4965L14.5894 10.4853Z" fill="#1C2D5B"/>
<path fill-rule="evenodd" clip-rule="evenodd" d="M16.4268 16.7628L16.3837 16.8729H14.1924L14.8564 17.3481C15.1076 17.5289 15.1234 17.9721 14.9975 18.1452L13.7451 16.8729L12.2337 16.8768L12.21 16.818C12.728 16.6807 13.231 16.5198 13.6863 16.3707L14.8286 13.96C14.9505 14.2072 15.2766 14.4464 15.0406 14.8194L14.1534 16.2215C14.6795 16.0797 14.8094 16.598 14.9505 16.6967C15.0604 16.7708 15.3587 16.7589 15.5276 16.7238C15.7045 16.6846 15.5397 16.5038 15.6886 16.5038C16.4149 16.5038 16.1359 16.8258 16.3327 16.7907C16.3598 16.7907 16.399 16.7589 16.4268 16.7628Z" fill="#1C2D5B"/>
</svg>
