<svg width="32" height="32" viewBox="0 0 32 32" fill="none" xmlns="http://www.w3.org/2000/svg">
<path fill-rule="evenodd" clip-rule="evenodd" d="M2.64978 14.804C3.26747 14.804 3.65764 15.2592 3.65764 15.8119C3.65764 16.3646 3.26748 16.8035 2.64978 16.8035C1.9995 16.8035 1.62562 16.3646 1.62562 15.8119C1.62562 15.2592 1.9995 14.804 2.64978 14.804ZM5.16946 13.601H3.59261V14.0237C3.26747 13.6336 2.73104 13.4385 2.22712 13.4385C0.894076 13.4385 0 14.5439 0 15.8119C0 17.0799 0.910337 18.169 2.24338 18.169C2.76355 18.169 3.31624 17.9739 3.57636 17.535H3.59261V18.0227H5.16946V13.601L5.16946 13.601Z" fill="#969594"/>
<path fill-rule="evenodd" clip-rule="evenodd" d="M7.7867 13.601H6.22615V18.0226H7.7867V13.601ZM7.00644 11C6.51873 11 6.12857 11.4064 6.12857 11.8941C6.12857 12.3655 6.51873 12.7719 7.00644 12.7719C7.49412 12.7719 7.88427 12.3655 7.88427 11.8941C7.88427 11.4064 7.49412 11 7.00644 11Z" fill="#969594"/>
<path fill-rule="evenodd" clip-rule="evenodd" d="M10.4039 13.6012H8.82709V18.0228H10.4039V16.2347C10.4039 15.4706 10.6153 14.9017 11.4769 14.9017C11.7207 14.9017 11.9483 14.9179 12.1433 15.048V13.5361H11.8508C11.2493 13.5361 10.7128 13.78 10.4202 14.3164H10.4039V13.6011L10.4039 13.6012Z" fill="#969594"/>
<path fill-rule="evenodd" clip-rule="evenodd" d="M16.7601 16.8847L17.1828 18.0226H19.0035L16.5487 11.5039H14.6956L12.1921 18.0226H13.9966L14.4355 16.8847H16.7601H16.7601ZM16.3049 15.5842H14.9069L15.6059 13.5197H15.6222L16.3049 15.5842H16.3049Z" fill="#0D5A94"/>
<path fill-rule="evenodd" clip-rule="evenodd" d="M20.6453 16.1694C20.0763 16.1694 19.6212 16.6246 19.6212 17.1935C19.6212 17.73 20.0763 18.2015 20.6453 18.2015C21.2143 18.2015 21.6532 17.73 21.6532 17.1935C21.6532 16.6246 21.2143 16.1694 20.6453 16.1694ZM19.8163 15.8118H21.4744V11.5039H19.8163V15.8118Z" fill="#0D5A94"/>
<path fill-rule="evenodd" clip-rule="evenodd" d="M24.0429 13.601H22.466V20.2498H24.0429V17.6C24.3843 17.9902 24.9045 18.169 25.4084 18.169C26.7252 18.169 27.6355 17.0961 27.6355 15.8281C27.6355 14.5439 26.7252 13.4385 25.4084 13.4385C24.8882 13.4385 24.3355 13.6498 24.0591 14.105H24.0429V13.601L24.0429 13.601ZM25.002 14.804C25.6522 14.804 26.0099 15.2592 26.0099 15.8119C26.0099 16.3646 25.6522 16.8035 25.002 16.8035C24.368 16.8035 23.9779 16.3646 23.9779 15.8119C23.9779 15.2592 24.368 14.804 25.002 14.804Z" fill="#0D5A94"/>
<path fill-rule="evenodd" clip-rule="evenodd" d="M31.8784 13.7148C31.407 13.5198 30.903 13.4385 30.3991 13.4385C29.44 13.4385 28.4646 13.9262 28.4646 15.0153C28.4646 15.8119 28.9685 16.0557 29.44 16.1858C29.9439 16.3158 30.4316 16.3321 30.4316 16.6735C30.4316 16.9173 30.1227 17.0148 29.9439 17.0148C29.5375 17.0148 29.0173 16.7872 28.6922 16.5759L28.1232 17.6489C28.6597 17.9902 29.2774 18.169 29.9114 18.169C30.9518 18.169 31.9922 17.6976 31.9922 16.5272C31.9922 15.6981 31.4558 15.3405 30.708 15.2104C30.5129 15.1616 30.0089 15.1291 30.0089 14.8202C30.0089 14.6089 30.3341 14.5277 30.5129 14.5277C30.773 14.5277 31.1144 14.6089 31.3582 14.7227L31.8784 13.7148H31.8784Z" fill="#0D5A94"/>
</svg>
