<svg width="32" height="32" viewBox="0 0 32 32" fill="none" xmlns="http://www.w3.org/2000/svg">
<path fill-rule="evenodd" clip-rule="evenodd" d="M6.09712 1.00598C6.0966 1.00398 6.09607 1.00199 6.09555 1L6.09935 1.00379C6.0986 1.00452 6.09786 1.00525 6.09712 1.00598ZM16.2653 21.6492C11.7983 16.5559 8.38583 9.74583 6.09712 1.00598C-0.0185382 6.99658 1.23467 21.6683 16.1358 21.7973L18.5747 24.4941H7.71898C7.78346 25.2641 8.03759 25.3286 11.2503 25.4879C12.7903 25.5638 15.3923 27.2782 16.3254 27.8965C20.8884 30.8437 25.478 31.7844 29.5556 30.9158C25.7586 29.4484 22.3388 27.3986 19.3125 24.7165L23.0998 24.6838V24.6876C23.2932 24.8014 23.7408 24.881 23.7105 24.6876C23.0334 22.5403 20.3491 21.8356 16.2653 21.6492Z" fill="#E3001E"/>
</svg>
