<svg width="32" height="32" viewBox="0 0 32 32" fill="none" xmlns="http://www.w3.org/2000/svg">
<path fill-rule="evenodd" clip-rule="evenodd" d="M23.7261 19.9136L23.6742 19.9526C23.6742 19.9526 19.4941 21.1079 16.8199 20.7964C14.9376 20.5757 12.1595 19.4463 12.1595 19.4463C12.1595 19.4463 15.2362 20.355 17.2613 20.4978C19.7797 20.6795 23.7261 19.9136 23.7261 19.9136Z" fill="#08509D"/>
<path d="M6.98325 18.4534C7.12132 18.4534 7.23325 18.3414 7.23325 18.2034C7.23325 18.0653 7.12132 17.9534 6.98325 17.9534C6.84517 17.9534 6.73325 18.0653 6.73325 18.2034C6.73325 18.3414 6.84517 18.4534 6.98325 18.4534Z" fill="#08509D"/>
<path d="M9.60218 21.835C9.60218 21.835 7.81073 22.6528 7.17463 23.6524C5.87648 25.6905 8.62856 29.6628 8.62856 29.6628C8.62856 29.6628 7.18761 26.0929 8.01843 24.0678C8.42086 23.0682 9.60218 21.835 9.60218 21.835Z" fill="#08509D"/>
<path d="M28.1917 1.6875C28.1917 1.6875 18.131 6.6075 15.2751 11.6443C14.0938 13.7214 16.6901 15.9932 15.0934 17.7716C14.0678 18.927 11.4585 19.3554 11.4585 19.3554C11.4585 19.3554 15.2362 19.3034 16.3915 17.6158C17.5339 15.9282 15.4698 14.2926 16.2228 12.3973C18.1051 7.65901 28.1917 1.6875 28.1917 1.6875Z" fill="#08509D"/>
<path d="M4.88986 19.0828C4.88986 19.0828 6.01926 18.8232 6.73324 18.8881C8.49873 19.0439 8.87519 20.7704 10.5498 21.3676C12.9125 22.2114 14.652 20.5238 16.9757 21.4714C18.8969 22.2503 21.0778 24.8596 21.0778 24.8596L21.0908 24.8986C21.0908 24.8986 18.5205 22.3412 16.3915 21.8089C14.2885 21.2767 12.9254 22.9254 10.8484 22.2763C8.9401 21.6791 8.74538 19.5631 6.78517 19.1607C6.0582 19.0179 4.88986 19.0828 4.88986 19.0828Z" fill="#08509D"/>
<path d="M28.5033 0.10376C28.5033 0.10376 13.5615 5.41321 10.2902 11.3328C9.35552 13.0204 12.1595 14.0979 11.7701 15.9542C11.5883 16.798 11.4715 17.3822 10.8354 17.9664C9.60216 19.0958 7.99245 16.6812 6.5515 17.5509C6.18802 17.7716 5.7077 18.2649 5.7077 18.2649C5.7077 18.2649 6.47361 17.8236 7.00586 17.6937C8.51171 17.3562 9.31657 19.4982 10.7575 18.953C12.1336 18.4337 12.6009 17.2134 12.7697 15.7465C12.9514 14.1108 10.2383 13.2021 11.1599 11.8391C14.7688 6.5426 28.5033 0.10376 28.5033 0.10376Z" fill="#08509D"/>
<path d="M9.1608 20.6794C9.1608 20.6794 4.02011 21.8608 3.87731 24.3792C3.77346 26.1447 5.34423 26.7288 6.16206 28.2996C6.85008 29.6367 7.77177 31.8046 7.77177 31.8046C7.77177 31.8046 7.21357 29.5458 6.68132 28.1698C6.12312 26.7159 4.87689 26.1317 4.95478 24.5869C5.07161 22.3541 9.1608 20.6794 9.1608 20.6794Z" fill="#08509D"/>
<path d="M28.3994 0.635986C28.3994 0.635986 15.6775 6.20507 12.1725 11.8391C11.1989 13.3968 14.1717 14.7599 13.5486 16.5903C13.1072 17.9014 11.134 19.1866 11.134 19.1866C11.134 19.1866 13.6524 18.6673 14.5741 17.499C15.9631 15.7465 13.6654 13.267 14.4054 11.7612C16.729 7.04887 28.3994 0.648968 28.3994 0.635986Z" fill="#28A8E0"/>
<path d="M9.18675 21.4714C9.18675 21.4714 6.21398 22.2373 5.65577 23.7951C4.85092 26.0539 7.38232 27.9492 7.38232 27.9492C7.38232 27.9492 6.201 25.8852 6.43466 24.3793C6.66833 22.8215 9.18675 21.4714 9.18675 21.4714Z" fill="#28A8E0"/>
<path fill-rule="evenodd" clip-rule="evenodd" d="M23.5054 20.3159L23.4535 20.5236C23.4535 20.5236 22.0255 21.3025 21 21.4972C19.4941 21.7699 17.0925 21.0559 17.0925 21.0559C17.0925 21.0559 18.6763 21.1727 19.6888 21.0948C21.2077 20.978 23.5054 20.3159 23.5054 20.3159ZM20.3639 22.4319C21.0519 23.1069 21.4803 24.6258 21.4803 24.6258C21.4803 24.6258 20.299 23.1978 19.3513 22.4968C18.6503 21.9776 17.4041 21.3804 17.4041 21.3804C17.4041 21.3804 19.4811 21.5751 20.3639 22.4319Z" fill="#28A8E0"/>
</svg>
