<svg width="32" height="32" viewBox="0 0 32 32" fill="none" xmlns="http://www.w3.org/2000/svg">
<path d="M3.72747 15.6641L3.61814 16.0843C3.61814 16.0843 4.99715 16.0615 5.55292 16.0615C6.82585 16.0602 7.60094 16.1766 7.6862 16.9518C7.76168 17.4739 7.51959 17.9757 7.37967 18.4686C7.24496 18.947 7.12261 19.4058 6.98985 19.8779C6.84993 20.3759 6.69895 20.8151 6.43278 21.1511C6.12951 21.5327 5.7423 21.7858 5.34597 21.8826C4.79996 22.0161 2.56777 21.937 1.94627 21.937C1.87663 22.1123 1.83498 22.3161 1.77902 22.5053C3.58885 22.5977 5.33295 22.4762 7.18509 22.5325C7.78577 22.5508 8.38189 22.6148 8.91227 22.5053C9.72054 22.3401 10.305 21.7839 10.5562 21.0422C10.8048 20.312 11.0299 19.4609 11.2531 18.6857C11.3755 18.2611 11.4536 17.8599 11.643 17.5207C11.8232 17.1973 12.0614 16.9455 12.3673 16.7076C12.9283 16.2728 13.842 15.9071 14.7082 16.3285C15.1351 16.5361 15.383 16.8809 15.3772 17.5207C15.372 18.0712 15.1871 18.5243 15.0427 19.0375C14.6112 20.5702 14.2305 21.8725 13.8166 23.3728C13.6806 23.8652 13.5758 24.3929 13.3988 24.8087C13.0552 25.6161 12.299 26.2768 11.3091 26.4343C10.4794 26.566 9.53573 26.4616 8.66172 26.4616H0.692855C0.692855 26.4616 0.556844 26.8533 0.49762 27.0577C3.99494 27.107 7.59964 27.0842 11.0026 27.0842C11.9293 27.0842 12.7877 27.1089 13.594 27.0304C15.9056 26.8052 17.9517 26.1565 19.6405 25.2421C22.448 23.7222 24.6541 21.6004 26.272 18.8755C27.2039 17.3056 28.7619 16.1096 31.3234 16.1096C31.3969 15.9147 31.434 15.8299 31.4945 15.6641L3.72747 15.6641V15.6641Z" fill="#002B5C"/>
<path d="M31.5979 15.3799C29.6358 15.4235 28.1682 14.5819 28.0277 12.8063C27.9991 12.4481 28.0305 12.1134 27.9997 11.8039C27.9034 10.8224 27.6919 10.0492 27.3587 9.2841C26.0798 6.34727 23.5567 4.72983 19.5011 4.40711L6.90641 4.40711C6.88233 4.62732 6.78407 4.7754 6.76714 5.00321L14.9033 5.00321C15.7916 5.00321 16.7775 4.88234 17.5227 5.0842C18.0036 5.21456 18.5906 5.6474 18.5535 6.49282C18.5346 6.92629 18.3322 7.3876 18.191 7.87486C17.8012 9.22335 17.4667 10.5592 17.0769 11.9121C16.8231 12.7911 16.6428 13.7276 16.1014 14.3775C15.6107 14.9667 14.721 15.5431 13.6492 15.2445C13.2594 15.1356 13.0153 14.9983 12.8416 14.73C12.4212 14.082 12.8077 13.0853 13.0088 12.3728C13.1188 11.9817 13.2392 11.6191 13.3427 11.2616C13.4422 10.918 13.6128 10.5054 13.6212 10.0966C13.6355 9.46825 13.2353 9.14425 12.8416 9.01263C12.3743 8.85759 11.7001 8.93163 11.0858 8.93163C9.29219 8.93163 7.35741 8.90948 5.62436 8.95884C5.58727 9.14805 5.51568 9.30435 5.4851 9.50052C7.04568 9.50052 9.55315 9.30499 9.55315 10.5845C9.55713 10.8832 9.44903 11.2173 9.35792 11.5324C9.19197 12.1096 9.01821 12.681 8.85681 13.267C8.77482 13.5637 8.71885 13.87 8.60626 14.1339C8.3095 14.8293 7.99583 15.3799 6.85045 15.3799H3.80021L3.72733 15.664L31.4944 15.664C31.5373 15.5374 31.5608 15.4754 31.5979 15.3799" fill="#ED1C24"/>
</svg>
