<svg width="32" height="32" viewBox="0 0 32 32" fill="none" xmlns="http://www.w3.org/2000/svg">
<g clip-path="url(#clip0)">
<path d="M14.2688 8.5L13.7407 8.51354L13.7678 8.55417L13.7542 8.58125L13.4563 8.62188H13.5917L13.7136 8.64896L13.4157 8.73021L13.1449 8.825L13.0501 8.83855H12.9417C12.9011 8.87917 12.7521 8.9198 12.7521 8.9198L12.549 9.00105L13.0094 8.93334L13.0365 8.97396L13.2532 8.9198L13.4834 8.90626L13.5376 8.86563L13.5782 8.93334L13.5511 8.97396L13.3615 9.05522L13.1584 9.06876L12.9824 9.0823L12.9282 9.13647L12.8469 9.15001L12.8199 9.19063H12.8334L12.8876 9.17709L12.9417 9.15001L12.9824 9.19063L13.0094 9.21772L13.0501 9.17709H13.1042L13.3751 9.15001L13.6324 9.17709L13.5511 9.25834L13.2667 9.28543L12.9824 9.32605L12.7386 9.35314L12.4813 9.32605L12.224 9.39376H12.3323L12.4271 9.42085L12.2917 9.5021L12.1428 9.56981L11.9938 9.70522L12.373 9.56981L12.7386 9.46147L12.7657 9.48856L12.7386 9.56981L12.6844 9.59689L12.6303 9.61043H12.7386H12.8469C12.9688 9.61043 12.9824 9.5698 12.9824 9.56981L12.9011 9.5021L13.1449 9.43439C13.2938 9.44793 13.2803 9.59689 13.2803 9.59689L13.2532 9.62397L13.199 9.61043L13.1855 9.56981V9.52918L13.1313 9.54272H13.0636L13.1178 9.59689L13.1584 9.65106L13.1042 9.71877L12.7657 9.73231L12.4542 9.75939L12.3053 9.74585L12.1698 9.78648L12.2917 9.8271L12.2511 9.88127L12.1969 9.92189L12.2511 9.94898C12.2917 9.89481 12.3865 9.89481 12.3865 9.89481L13.348 9.81356L13.4563 9.80002L13.5376 9.85418L13.4292 9.92189H13.2396L13.1449 10.0031H12.9417L12.7521 9.9896L12.7386 10.0302H12.4542L12.4813 10.0573L12.4271 10.0844L12.3594 10.0709L12.1157 9.9896H11.9938C12.075 10.0302 12.1021 10.0302 12.1021 10.0302C12.1428 10.0573 12.075 10.1386 12.075 10.1386L11.6417 10.1115L11.723 10.1386L11.7771 10.1656C11.7771 10.2063 11.7365 10.2063 11.7365 10.2063L11.6553 10.2334H11.4927L11.2896 10.274L11.4657 10.2875H11.6553C11.723 10.2875 11.7771 10.2469 11.7771 10.2469L12.3188 10.2875L12.2917 10.3417H12.1428L12.1157 10.3688V10.3823L12.2917 10.3688L12.4813 10.4229L12.4407 10.4636H12.3865H12.2782L12.1563 10.45L12.1292 10.4771L12.1157 10.4907L12.224 10.5177H12.3188L12.3459 10.5313L12.3323 10.5719L12.3188 10.5854L12.4271 10.6125L12.549 10.6396L12.5626 10.6667L12.5355 10.6802H12.4542L12.5355 10.7073L12.6167 10.7479C12.6167 10.8021 12.5761 10.8021 12.5761 10.8021L12.2511 10.7886C12.075 10.775 11.9396 10.6802 11.9396 10.6802V10.6532L11.9667 10.6396L12.1157 10.6667L12.2782 10.7073L12.075 10.6396L11.8584 10.5584L11.9938 10.5177L11.8313 10.4907L11.6553 10.5177L11.5875 10.4771L11.5063 10.4636V10.5177L11.2761 10.5719L11.0323 10.6396L11.2355 10.6261L11.425 10.6396L11.3709 10.6802L11.3302 10.7344L11.4657 10.7209L11.6146 10.7479L11.2355 10.8292L10.8563 10.924L11.3032 10.8834L11.3438 10.924L11.3573 10.9511L11.6282 10.924L11.8855 10.9917L11.9396 11.0594L11.7771 11.073L11.6282 11.0323L11.2355 11.073L10.8563 11.2084L11.1 11.1407L11.3709 11.1271L11.4115 11.1542L11.4521 11.1677L11.6553 11.1813L11.8584 11.1948L12.373 11.2084L12.2511 11.2355H12.1157V11.2625L12.1428 11.2761L11.75 11.3302H11.3573L11.0188 11.3844L11.2896 11.3709L11.5469 11.3844L11.723 11.4386H11.9396L11.9667 11.4792L12.0344 11.5063L12.0615 11.5875L11.7771 11.574L11.4927 11.5198L11.4657 11.5469V11.5605L11.5875 11.574L11.6823 11.6011L11.5875 11.75L11.3844 11.7365L11.1948 11.7636H11.3438L11.425 11.8313L11.4115 11.8448L11.3573 11.8719L11.1677 11.8584L10.9917 11.899H11.0865H11.1677L11.1948 11.9396L11.1542 11.9803L10.9782 12.0073H10.7344H10.4907L10.45 12.0344L10.4365 12.048L10.5719 12.0344L10.6938 12.048C10.6396 12.1021 10.5042 12.1021 10.5042 12.1021L10.3011 12.1157L10.2063 12.1698L10.125 12.2511L10.3552 12.1834H10.5854L10.5448 12.224L10.5177 12.2511H10.599L10.6802 12.2646L10.5042 12.3594L10.3417 12.4136H10.4365H10.4636C10.4229 12.4813 10.3146 12.549 10.3146 12.549L10.1386 12.6709L10.3823 12.6032L10.5719 12.549L10.775 12.5355L10.8157 12.5896L10.775 12.6438L10.2604 12.7115L10.0302 12.874L10.2063 12.7657L10.3959 12.7521C10.5177 12.7521 10.5313 12.7928 10.5313 12.7928L10.4636 12.9011L10.6532 12.9146L10.8427 12.9282L10.6667 12.9959C10.5448 13.023 10.5042 13.0907 10.5042 13.0907L10.4907 13.1178L10.5854 13.0907L10.6532 13.0771L11.0594 13.0094C11.3032 12.9688 11.4657 13.0094 11.4657 13.0094L11.2355 13.0907L10.6667 13.1313L10.1071 13.198C10.187 13.1926 10.2875 13.2803 10.2875 13.2803L10.0979 13.2938L9.92189 13.3209L9.78648 13.3615L9.6646 13.4563L9.85418 13.3751C9.94898 13.348 9.9896 13.4292 9.9896 13.4292L9.92189 13.4699C9.85419 13.4834 9.86773 13.5376 9.86773 13.5376H9.93544L10.0302 13.5647L10.0031 13.5782L9.97606 13.6053L10.2063 13.5917L10.4229 13.6324L10.2334 13.673H10.0438V13.7136L10.0844 13.7272L10.1115 13.7407L10.0031 13.7813L9.88127 13.8219L10.1115 13.8626L10.2063 13.8761L10.2875 13.8897C10.3011 13.9574 10.2063 13.9709 10.2063 13.9709L10.0709 13.9844L9.4073 13.998V14.0386C9.56981 13.998 9.65106 14.0386 9.65106 14.0386C9.55626 14.1199 9.36668 14.1469 9.36668 14.147L9.05522 14.2011L9.4073 14.2553C9.35314 14.323 9.21772 14.3365 9.21772 14.3365L9.00105 14.3501H9.42085L9.85418 14.3772L9.8271 14.4042L9.78648 14.4178H9.6646L9.55626 14.4449L9.38022 14.4855L9.29897 14.5261L9.46147 14.499L9.63752 14.4855L9.73231 14.499L9.77293 14.5532L9.71877 14.5803L9.63752 14.6615H9.73231C9.78648 14.6615 9.81356 14.7022 9.81356 14.7022L9.33959 14.7699C9.13647 14.7157 8.78438 14.7699 8.78438 14.7699L8.86563 14.7834C8.9198 14.797 8.94688 14.8376 8.94688 14.8376L8.6625 14.9865L8.79792 14.9459L8.85209 14.9595H8.90626L8.9198 14.9188H9.04167L9.13647 14.9459L9.05522 14.9595L9.00105 15.0136L9.23126 14.9865C9.38022 14.9595 9.46147 15.0272 9.46147 15.0272L9.09584 15.1761C8.6625 15.2845 8.5 15.4063 8.5 15.4063L8.70313 15.3793L9.51564 15.3251H9.62397L9.6646 15.3793C9.62397 15.5553 9.3396 15.5553 9.33959 15.5553V15.5824L9.35314 15.5959L9.47501 15.5824L9.56981 15.5553C9.67814 15.5147 9.74585 15.4741 9.74585 15.4741L9.92189 15.447L9.94898 15.5147C9.86773 15.5959 9.74585 15.6366 9.74585 15.6366L9.51564 15.6907L9.69168 15.6772L9.88127 15.6501L10.0573 15.623L10.2469 15.5959L10.1927 15.5688L10.1656 15.5282L10.274 15.4063C10.3552 15.3251 10.3959 15.3793 10.3959 15.3793L10.3823 15.447L10.3417 15.4741C10.4229 15.5553 10.5584 15.4741 10.5584 15.4741L10.7886 15.4199V15.3793H10.7073L10.6125 15.3657L10.8427 15.2709L11.073 15.1761H11.0459L11.0188 15.1355L11.0594 15.0678H11.1271L11.5063 14.973L11.8855 15.0136L11.4927 15.0678L11.6146 15.0949C11.6959 15.0678 11.7094 15.1355 11.7094 15.1355V15.1761L11.6553 15.2168L11.5875 15.2303L11.6553 15.2709C11.7094 15.2709 11.7094 15.298 11.7094 15.298L11.6823 15.3522L11.6417 15.3793L11.4927 15.3928L11.3302 15.3793L11.1271 15.3928L10.9104 15.447V15.4741L10.9375 15.4876L10.775 15.5282C10.6802 15.5418 10.6396 15.5959 10.6396 15.5959H10.775H10.9782L10.9511 15.623L10.9782 15.6501L10.8969 15.7043L10.8157 15.7584L10.6396 15.7449L10.4636 15.7991H10.6125L10.7615 15.8261L10.6532 15.8532L10.5584 15.8668L10.5854 15.9074H10.7886L11.0188 15.9345C10.8427 16.0428 10.6938 16.097 10.6938 16.097L10.6532 16.0564L10.5448 16.0428L10.4365 15.9886L10.2875 16.0022L10.1386 16.0428L10.2063 16.0564L10.1521 16.0834H10.0844L9.86773 16.0293L9.65106 15.9751L9.21772 15.948L9.17709 15.9616L9.15001 15.9751L9.38022 15.9886L9.59689 16.0157L9.31251 16.1511C9.13647 16.2053 9.05522 16.2866 9.05522 16.2866C9.43439 16.1511 9.8271 16.1511 9.8271 16.1511L9.9896 16.1376L10.1386 16.1918L9.84064 16.3001L9.52918 16.4084L9.47501 16.5032C9.15001 16.6116 8.94688 16.7605 8.94688 16.7605L9.09584 16.747L9.2448 16.7064L9.44793 16.6251L9.65106 16.6387L9.51564 16.7334L9.38022 16.8418L9.35314 16.8959L9.4073 16.8418L9.46147 16.8012L9.71877 16.7064H9.77293H9.85418L10.0302 16.6116L10.0438 16.6522L10.0031 16.7064L9.94898 16.747L10.0302 16.7334L10.125 16.7064L10.2604 16.6387L10.3823 16.5439L10.9104 16.4355L11.0052 16.4084L11.1 16.3678L11.723 16.2595L11.8719 16.2324L12.0209 16.2595L11.2625 16.4084L11.1948 16.4761L11.1 16.5439L10.7209 16.598L10.3688 16.7064H10.5448L10.7344 16.7199L10.7209 16.7876L10.4771 16.8418H10.4907L10.6396 16.8689L10.5584 16.9772L10.6125 17.0043L10.6532 16.9637L10.6938 16.9095L10.9375 16.8689C10.9782 16.8689 10.9782 16.9637 10.9782 16.9637L11.1677 16.8418L11.3302 16.7876L11.9667 16.7199H11.7907L11.6282 16.7064L11.9261 16.598L12.2511 16.5168H12.3188L12.3323 16.5439C12.3323 16.5845 12.2376 16.598 12.2376 16.598L12.1157 16.6522L12.2376 16.6793H12.3594L12.373 16.6522L12.3865 16.6387L12.7386 16.598C12.9282 16.598 13.0365 16.6793 13.0365 16.6793L12.7657 16.6928L12.4948 16.6793L12.075 16.8418H12.0209L11.9125 16.8689H11.7771L11.249 16.9366V16.9637L11.2625 16.9772L10.9646 17.0991L10.6532 17.1803L10.45 17.248L10.2334 17.3564H10.3688L10.5177 17.2616L10.5854 17.2887L10.5313 17.4376L10.5448 17.4918L10.5854 17.5324L10.6667 17.4241L10.7886 17.4376L10.8021 17.4918L10.7886 17.5324C10.9375 17.3293 11.1136 17.3293 11.1136 17.3293C11.1407 17.3293 11.1407 17.3699 11.1407 17.3699L11.1136 17.4241C11.2084 17.4241 11.3709 17.2887 11.3709 17.2887L11.4521 17.3022L11.5469 17.2887C11.8178 17.1668 11.9803 17.1397 11.9803 17.1397L11.9938 17.1803L12.1698 17.1397L12.2105 17.1262L12.2376 17.0991L12.2646 17.1126L12.2511 17.1668L12.549 17.1397L12.8469 17.1126L12.7251 17.0855L12.6167 17.0449L12.6303 17.0043L12.9417 17.0178L13.2396 17.0043L13.0771 16.9637L12.8876 16.9772L12.8469 16.9366L12.9417 16.8824L13.3209 16.8012L13.673 16.7876L13.7001 16.8418V16.8959L13.4969 17.4647C13.348 17.7762 13.0907 17.9658 13.0907 17.9658C12.6844 18.2366 12.3188 18.2772 12.3188 18.2772H9.25834V18.4939H21.2564V18.2772H17.3022L16.4491 18.1824L16.0834 18.0741L15.7449 17.898L15.6501 17.8574L15.5959 17.8168L15.4063 17.6407L15.3116 17.4241C15.2709 17.1126 15.4876 16.8418 15.4876 16.8418L15.623 16.7064L15.7313 16.6657L15.8261 16.6522L15.8803 16.598C15.9209 16.5303 15.9616 16.5439 15.9616 16.5439L16.0022 16.6387L15.9209 16.7199V16.7876H16.0428L15.9886 16.8553L15.948 16.8959L15.9886 16.9095L16.0293 16.9366L15.9074 16.9772L15.772 17.0043V17.0449L16.0699 16.9637L16.3814 16.9772L16.273 17.0314L16.422 17.0584L16.5709 17.0449L16.7605 17.072H16.923L16.8824 17.0449L16.8282 17.0043L17.072 17.0178L17.3022 17.0991C17.2074 16.9772 17.072 16.9772 17.072 16.9772L16.9095 16.8553V16.8418L16.923 16.8012L17.0855 16.8418L17.2345 16.8553H17.3293L17.4376 16.8418V16.8282L17.3022 16.7876C17.1939 16.7741 17.1532 16.7199 17.1532 16.7199L17.2751 16.6928L17.3835 16.6522L17.6001 16.6116H17.7491L17.898 16.6387L17.9793 16.6793L18.1012 16.7199H18.2095L18.1553 16.6522L17.9793 16.5845L17.9928 16.5439L18.1418 16.598L18.2772 16.6116C18.196 16.5574 18.0335 16.5439 18.0335 16.5439L17.7762 16.4761L17.6137 16.3949L17.4647 16.2866L17.4241 16.3136L17.3835 16.3001L17.3699 16.2866L17.3428 16.2595H17.1939L17.1262 16.1918C17.1262 16.1376 17.1939 16.1241 17.1939 16.1241H17.3022L17.6137 16.1511L17.9116 16.2459L17.9387 16.3001L17.9116 16.3272H17.8845L18.196 16.3407L18.6293 16.4084L18.7512 16.4491L18.8731 16.4355L18.7647 16.4084L18.7106 16.3407L18.7512 16.3272H18.8189L18.8053 16.3001C18.8189 16.273 18.846 16.273 18.846 16.273L18.9001 16.2866L18.4939 16.0834C18.5345 16.0022 18.6428 16.0157 18.6428 16.0157L18.8189 16.0428L18.8053 15.9886L18.8731 15.9751L18.9679 15.9886L18.9272 15.948L18.8731 15.9345L18.4533 15.8397L18.5074 15.8261L18.5481 15.772L18.4397 15.6772L18.2908 15.6501L18.5481 15.5959H18.7106H18.8731C18.7918 15.5282 18.6022 15.5282 18.6022 15.5282L18.3043 15.4741L18.3856 15.4199L18.4262 15.3386L18.6158 15.3522L18.8053 15.3386L18.3585 15.1761L18.3314 15.1626L18.1553 15.1761L18.0335 15.2032L17.6272 15.1761H17.6407L17.8845 15.122H17.9928L18.0199 15.0813L18.0335 15.0543H18.1689H18.2908L18.6428 15.1761L18.7783 15.2032L18.846 15.2709L19.022 15.298L19.1574 15.3793H19.1845L19.1981 15.3657L19.1845 15.2438L19.2387 15.1761L19.2658 15.1626L19.1439 15.0543C19.4147 14.9595 19.5366 15.1355 19.5366 15.1355H19.5908L19.6585 15.0543L19.7804 15.0949L19.9158 15.1355L20.4575 15.0949L20.0647 14.9865L19.9293 14.9459L20.1595 14.9188L20.2002 14.8918L20.2272 14.8511L20.4981 14.9459L20.7554 15.0543C20.7148 14.9595 20.5522 14.8918 20.5522 14.8918L20.4168 14.7428L20.4845 14.7293H20.6064L20.0512 14.6615L19.496 14.6074L19.4283 14.5532C19.5908 14.4584 19.7127 14.4584 19.7127 14.4584L19.6314 14.4449L19.4824 14.4313L19.3199 14.4855L18.8189 14.472L18.3043 14.4584H18.0741H17.8168L17.6001 14.4855L17.3835 14.4584L17.0043 14.4855L16.7334 14.4449L16.7199 14.4042L16.747 14.3907H17.1262H17.4918L17.3157 14.3365L17.1262 14.323L17.072 14.2553L17.1939 14.2417H17.3293L17.3428 14.2824H17.722L17.6949 14.2553L18.0876 14.2282L18.4668 14.2011L18.1824 14.174L17.898 14.147L18.0741 14.1334L18.0199 14.0928L17.9522 14.0657L18.223 14.0251H18.4939L18.4668 13.9574L18.4939 13.8897L18.5616 13.9574L18.7241 13.9438C18.8189 13.9438 18.8731 14.0251 18.8731 14.0251L18.6835 14.0657L18.7918 14.0928H18.9272L18.9408 14.1334H19.1304L19.3199 14.0928L19.3606 14.1199L19.4147 14.1063L19.2251 14.0522L19.0626 13.998L18.7512 13.7542L18.8189 13.7272L18.9001 13.7542L19.0626 13.8219L19.0897 13.7949L19.1168 13.7542L19.3741 13.7813L19.5502 13.8355L19.7533 13.849L19.7939 13.8084L19.6314 13.7813L19.4554 13.7407L19.3199 13.6324C19.4418 13.5647 19.5366 13.673 19.5366 13.673L19.5502 13.6053L19.6179 13.6324L19.672 13.6459L19.5637 13.5782L19.4283 13.5376L19.2116 13.4969L18.9814 13.4563C18.9814 13.4292 19.022 13.4292 19.022 13.4292V13.4021L19.0085 13.3886C18.7241 13.3886 18.6158 13.2938 18.6158 13.2938C18.7647 13.2126 18.9814 13.2938 18.9814 13.2938L19.1439 13.3886H19.1845L19.2251 13.3615L19.1439 13.2803C19.171 13.2396 19.2387 13.2803 19.2387 13.2803H19.3335L19.3199 13.2126C19.3741 13.1719 19.4824 13.2126 19.4824 13.2126H19.6314L19.7668 13.1855L19.8887 13.2126C19.7939 13.1313 19.6314 13.0907 19.6314 13.0907L19.4283 13.0365L19.2387 12.9688C19.2658 12.9282 19.3335 12.9282 19.3335 12.9282L19.2387 12.8605L19.1168 12.8199H19.4147L19.6585 12.9011L19.7397 12.9824C19.672 12.8198 19.496 12.7521 19.496 12.7521L19.4824 12.7115H19.5095H19.5772L19.6314 12.7521L19.6585 12.7115L19.6179 12.6844L19.7397 12.6573L19.8481 12.6844L19.9158 12.7521L19.9293 12.6844L19.6043 12.549L19.2793 12.4542L18.7512 12.4407L18.2095 12.4271L17.6814 12.4001L18.0064 12.3594L18.3043 12.3323L18.2637 12.3053L18.2095 12.2646L18.4397 12.2511C18.5887 12.2917 18.6428 12.2511 18.6428 12.2511L18.372 12.1969L18.1012 12.1428C18.1283 12.0886 18.2095 12.0886 18.2095 12.0886C18.1553 12.0073 18.196 11.9803 18.196 11.9803H18.2908H18.3856L18.0876 11.9261L17.8439 11.7636L18.2366 11.6823L18.6428 11.6553C18.8595 11.5875 19.0626 11.6552 19.0626 11.6553L19.1574 11.75L19.171 11.6823L19.1168 11.6553L18.9679 11.574L18.7783 11.5198L18.5481 11.4792L18.196 11.4386H17.8168H17.7491L17.6543 11.4521L17.722 11.4792L17.7355 11.4927C17.7085 11.5605 17.6001 11.5469 17.6001 11.5469L17.4241 11.5334L17.0991 11.5469L16.7741 11.4792L17.0314 11.4386L17.2887 11.4521V11.425V11.3844L17.4241 11.398L17.5595 11.4115L17.546 11.3709V11.3032L17.5866 11.2896L17.6407 11.2761V11.2355L17.871 11.2084L18.1012 11.3032L17.9658 11.2219L17.8574 11.1271V11.073L17.898 11.0594L18.3585 11.1271L18.0605 10.9917L17.7355 10.9782L17.2616 11.0188L16.7741 10.9917L15.3928 10.775L15.3386 10.7073L15.3928 10.6667C15.447 10.6667 15.447 10.6396 15.447 10.6396L15.4334 10.6125C15.5011 10.5448 15.5688 10.6125 15.5688 10.6125L15.5824 10.6532L15.5418 10.6667H15.5147L15.5418 10.7209L15.6095 10.7073L16.0428 10.6802L16.3136 10.7073L16.5709 10.775C16.5032 10.7479 16.5168 10.7073 16.5168 10.7073L16.6387 10.6667L16.7741 10.6802L17.2616 10.8021L17.3293 10.8157L17.3835 10.8292L17.397 10.8157L17.3699 10.775L17.0314 10.6667C16.8147 10.6125 16.7199 10.5313 16.7199 10.5313L16.7064 10.5042L16.7334 10.4907L16.747 10.494L16.5032 10.4229L16.1376 10.3823L16.1647 10.2875V10.2063C16.1782 10.1656 16.2324 10.1656 16.2324 10.1656L16.3678 10.1792C16.3814 10.2063 16.422 10.2063 16.422 10.2063L16.7876 10.3417L16.8012 10.3281L16.7741 10.2875L16.8147 10.2469L16.8959 10.3146H17.1126L17.1939 10.3959L17.2887 10.45L17.2345 10.3688L17.1668 10.3146V10.2875L17.1803 10.274H17.2887L17.1532 10.2469C17.0855 10.2334 16.9907 10.1792 16.9907 10.1792L16.8553 10.0979L16.9095 10.0573H16.9772L16.7605 10.0031L16.5574 9.94898L16.8959 9.89481L16.6928 9.86773L16.5032 9.88127C16.3949 9.90835 16.3407 9.81356 16.3407 9.81356L16.3678 9.77293L16.3814 9.74585L16.2459 9.73231L16.1105 9.71877L16.1241 9.70522L15.9751 9.65106L15.8261 9.67814L15.8397 9.71877L15.7991 9.74585L15.5959 9.77293L15.3928 9.78648L14.9865 9.88127C14.9324 9.88127 14.8647 9.81356 14.8647 9.81356L14.7428 9.74585L14.797 9.71877H14.8647L15.1084 9.73231L15.3522 9.71877L15.447 9.74585L15.5147 9.67814L15.447 9.69168L15.4063 9.65106L15.623 9.62397L15.8261 9.59689L15.7178 9.55626L15.623 9.5021L15.7313 9.46147L15.8261 9.52918L15.8803 9.51564L15.9209 9.5021C16.1105 9.6646 16.2595 9.61043 16.2595 9.61043L16.0834 9.54272L15.948 9.43439L16.3949 9.5021L16.1105 9.35314L14.7834 9.29897L14.6886 9.33959L14.6074 9.32605C14.5938 9.27189 14.6751 9.25834 14.6751 9.25834L14.797 9.21772L14.6751 9.20418L14.5803 9.17709L14.8918 9.15001L15.2168 9.21772L15.149 9.16355L15.0813 9.13647C15.0813 9.0823 15.122 9.0823 15.122 9.0823L15.2709 9.12293L15.4063 9.13647L15.5959 9.12293L15.7855 9.15001L15.6636 9.06876L15.5282 9.04167L15.2574 8.98751L14.9865 8.90626L15.0001 8.89271L14.9595 8.86563L15.1897 8.825L15.3938 8.86326C15.3683 8.85466 15.3386 8.825 15.3386 8.825L15.4199 8.81146L15.5147 8.79792L14.973 8.71667L14.4178 8.64896L14.4042 8.62188V8.58125L14.6345 8.52708L14.8782 8.51354L14.2688 8.5Z" fill="#00735C"/>
<path d="M15.3938 8.86328C15.4577 8.88814 15.521 8.90378 15.5789 8.90378L15.3938 8.86328Z" fill="#00735C"/>
<path d="M16.747 10.494L16.9321 10.6791L16.8395 10.5733L16.747 10.494Z" fill="#00735C"/>
<path d="M12.0435 10.1612L11.9509 9.97607L11.8584 10.1612H12.0435Z" fill="#00735C"/>
<path d="M15.0263 10.0979L15.0633 10.1287L14.9893 10.283L14.8782 10.2521L14.8967 10.1287H14.9522L15.0263 10.0979Z" fill="#00735C"/>
<path d="M15.149 10.1115L15.1761 10.1801C15.1761 10.1801 15.0407 10.3687 14.9324 10.2658L15.0136 10.1972L15.0813 10.1458H15.122L15.149 10.1115Z" fill="#00735C"/>
<path d="M15.6095 10.2063L15.6636 10.2526C15.6636 10.2526 15.6772 10.2988 15.7313 10.2988L15.7855 10.322L15.6772 10.3914L15.5688 10.3451L15.5959 10.2757L15.6095 10.2063Z" fill="#00735C"/>
<path d="M14.2553 10.2469L14.7428 10.3164L14.6886 10.4089H14.6209L14.472 10.432L14.3095 10.3164L14.2688 10.432L13.8761 10.3626L14.2553 10.2469Z" fill="#00735C"/>
<path d="M15.4315 10.2469H15.5373V10.432H15.4315L15.3522 10.358L15.4315 10.2469Z" fill="#00735C"/>
<path d="M15.6095 10.3417L15.6366 10.3648L15.623 10.4111L15.4741 10.5268L15.3116 10.4805C15.3116 10.4805 15.3522 10.3879 15.4199 10.3879L15.5418 10.4111L15.6095 10.3417Z" fill="#00735C"/>
<path d="M13.1855 10.3552L13.2667 10.3751L13.348 10.3552L13.5376 10.3949L13.4698 10.4544L13.4157 10.5139C13.4157 10.5139 13.3751 10.5734 13.2938 10.5139C13.2938 10.5139 13.2667 10.5139 13.1584 10.4345L13.1855 10.3552Z" fill="#00735C"/>
<path d="M13.03 10.4094H13.1534L13.1945 10.502C13.1945 10.502 13.1328 10.5945 13.0711 10.5945C13.0711 10.5945 13.0094 10.5945 13.0094 10.502L13.03 10.4094Z" fill="#00735C"/>
<path d="M13.6698 10.5312L13.7227 10.6189C13.7226 10.6189 13.5904 10.8381 13.5376 10.6189L13.6698 10.5312Z" fill="#00735C"/>
<path d="M14.7699 10.5583L15.0136 10.5719C15.0136 10.5719 14.8917 10.6531 14.6751 10.6396H14.5261L14.5667 10.6802C14.5667 10.6802 14.648 10.6261 14.7428 10.7344L14.5532 10.775L14.3636 10.7344H14.2147L14.0522 10.6802C14.0522 10.6802 14.1876 10.5719 14.5126 10.5719L14.7699 10.5583Z" fill="#00735C"/>
<path d="M14.5261 10.6396H14.323L14.3501 10.8247H14.5126L14.5261 10.6396Z" fill="#00735C"/>
<path d="M12.9417 10.8428L13.1855 10.8764L13.0907 10.8933L13.0095 10.9269L13.1449 10.8933L13.2803 10.9774L12.8334 11.011L12.7522 10.9942L12.6709 11.0279L12.5761 10.8933L12.7657 10.8596L12.9417 10.8428Z" fill="#00735C"/>
<path d="M14.1768 11.0188L14.2508 11.0805L14.1768 11.2039L14.0657 11.0805L14.1768 11.0188Z" fill="#00735C"/>
<path d="M15.6636 11.0459L15.772 11.0644L16.0564 11.0459L16.3407 11.1569V11.194L16.3136 11.2125L16.1647 11.1569L16.0022 11.194L15.7991 11.231L15.5959 11.194C15.5959 11.194 15.5688 11.194 15.5688 11.1014L15.6636 11.0459Z" fill="#00735C"/>
<path d="M13.4157 11.2355L13.5105 11.3032L13.4969 11.3438H13.4428L12.8063 11.398L13.023 11.4521L12.9553 11.5199H12.8469L12.7115 11.5334L12.5761 11.4928L12.6438 11.4657L12.7386 11.4521H12.6303L12.5355 11.4115L12.6573 11.3844L12.4948 11.3709L12.6303 11.3032H12.7657C12.7657 11.3032 13.0094 11.2355 13.2667 11.3032L13.2803 11.2626L13.4157 11.2355Z" fill="#00735C"/>
<path d="M14.6209 11.3438L14.7293 11.3738L14.797 11.3888L14.8376 11.4488V11.4938L14.797 11.5088C14.797 11.5088 14.7022 11.5538 14.6345 11.5088L14.5938 11.4488L14.6209 11.3438Z" fill="#00735C"/>
<path d="M13.6845 11.3481C13.6914 11.348 13.6984 11.348 13.7055 11.3481C13.7568 11.3492 13.8118 11.359 13.8626 11.3844L13.7949 11.4521L13.6865 11.4927L13.6053 11.5333L13.5782 11.5198L13.5376 11.4927H13.348L13.1584 11.4385L13.3209 11.3979L13.4969 11.3844C13.4969 11.3844 13.581 11.3504 13.6845 11.3481Z" fill="#00735C"/>
<path d="M14.5126 11.4115H14.6977L14.6051 11.5966L14.5126 11.4115Z" fill="#00735C"/>
<path d="M16.3814 11.6553L16.598 11.7848L16.5574 11.8404L16.4085 11.8218L16.2595 11.7478L16.3137 11.6738L16.3814 11.6553Z" fill="#00735C"/>
<path d="M15.3116 11.75L15.3793 11.7668L15.5282 11.8173L15.3116 11.9351L15.298 11.8678L15.3386 11.8173L15.2845 11.8341L15.2574 11.8005L15.3116 11.75Z" fill="#00735C"/>
<path d="M13.1449 11.8042L13.1584 11.8584V11.9125L13.2396 11.9261L13.2938 11.9532V11.9938L13.2396 12.0209L13.1042 12.0344L13.0094 12.0209C13.0094 12.0209 12.9688 11.9802 13.0094 11.9802L13.0907 11.9532L12.8198 11.9125L12.549 11.899L12.8469 11.8448L13.1449 11.8042Z" fill="#00735C"/>
<path d="M15.772 11.8042C15.772 11.8042 15.8668 11.8042 15.8532 11.866C15.8532 11.866 15.8126 12.1134 15.5688 11.9073L15.772 11.8042Z" fill="#00735C"/>
<path d="M14.2282 11.8719L14.2959 11.9004L14.323 11.9431L14.2959 11.9716L14.2553 11.9574L14.2824 12.0143L14.2688 12.057L14.1605 12.0143C14.1605 12.0143 14.0928 12.0001 14.1063 11.9431C14.1063 11.9431 14.1063 11.8719 14.2282 11.8719Z" fill="#00735C"/>
<path d="M14.5258 11.9126H14.5874L14.6029 11.9743L14.5412 12.0977L14.4178 12.0668L14.5258 11.9126Z" fill="#00735C"/>
<path d="M16.6793 12.0073L17.0178 12.0256L17.3428 12.0621C17.3428 12.0621 17.3157 12.1352 17.2345 12.1352L17.1126 12.1169C17.1126 12.1169 17.0043 12.2083 16.9772 12.19L16.8147 12.1169L16.6522 12.0621V12.0256L16.6793 12.0073Z" fill="#00735C"/>
<path d="M12.1563 12.0209V12.1689L11.8177 12.206L11.9803 12.0949L12.1563 12.0209Z" fill="#00735C"/>
<path d="M14.0251 12.0751L14.2282 12.1861V12.2416L14.2147 12.2602L14.0522 12.1861L14.0115 12.2602L13.9303 12.0936L14.0251 12.0751Z" fill="#00735C"/>
<path d="M17.6408 12.0886L17.7356 12.1195L17.6949 12.1503H17.6408L17.8845 12.1657H18.1147L17.8981 12.2274L17.6814 12.2737L17.5595 12.2429L17.4647 12.1657L17.5189 12.1503H17.5866L17.546 12.1195L17.6408 12.0886Z" fill="#00735C"/>
<path d="M17.0449 12.1427C17.0449 12.1427 17.1533 12.158 17.1668 12.2344L17.1262 12.265L17.0449 12.2802C17.0449 12.2802 16.7335 12.3872 16.571 12.2802L16.896 12.2191L16.8689 12.1885L17.0449 12.1427Z" fill="#00735C"/>
<path d="M14.6032 12.1969L14.6804 12.2339L14.7112 12.3079L14.6958 12.382L14.5261 12.2709L14.6032 12.1969Z" fill="#00735C"/>
<path d="M13.2261 12.2511L13.348 12.2974L13.4157 12.4208L13.4022 12.4362H13.3886L13.2803 12.3745L13.199 12.2974L13.2261 12.2511Z" fill="#00735C"/>
<path d="M17.3428 12.2646L17.4376 12.344L17.4241 12.4497H17.248L17.072 12.3969L17.3428 12.2646Z" fill="#00735C"/>
<path d="M14.6074 12.2782L14.7428 12.3046L14.7834 12.3311C14.7834 12.3311 14.7293 12.4633 14.648 12.4633H14.5126C14.5126 12.4633 14.4855 12.4633 14.4855 12.384C14.4855 12.384 14.5261 12.2782 14.6074 12.2782Z" fill="#00735C"/>
<path d="M14.3746 12.3053L14.4539 12.4111L14.401 12.4904H14.2953L14.2688 12.4375V12.3582L14.3746 12.3053Z" fill="#00735C"/>
<path d="M13.7001 12.3594L13.7678 12.3799L13.8355 12.4416C13.8355 12.4416 13.8084 12.5445 13.7136 12.5445H13.5782L13.5511 12.4828L13.5105 12.3799L13.7001 12.3594Z" fill="#00735C"/>
<path d="M16.8237 12.3729V12.558L16.6386 12.4963L16.8237 12.3729Z" fill="#00735C"/>
<path d="M14.0238 12.4L14.0767 12.437L14.156 12.5111L14.0767 12.5851C14.0767 12.5851 14.0238 12.5851 13.9709 12.5111L14.0238 12.4Z" fill="#00735C"/>
<path d="M17.2345 12.4H17.2887L17.3428 12.4407C17.3428 12.4406 17.1532 12.7657 16.923 12.4407L17.2345 12.4Z" fill="#00735C"/>
<path d="M15.3116 12.4542L15.4334 12.5159L15.447 12.6085L15.4064 12.6393H15.2574L15.2168 12.5776C15.2168 12.5776 15.2439 12.4542 15.3116 12.4542Z" fill="#00735C"/>
<path d="M14.5126 12.5084H14.5667L14.6209 12.5355L14.6751 12.5626L14.7022 12.6032L14.6074 12.6168L14.5126 12.6438L14.5803 12.6303L14.6345 12.6709L14.6209 12.7116H14.5261L14.4855 12.6709L14.5126 12.6438L14.472 12.5626C14.472 12.5626 14.472 12.522 14.5126 12.5084Z" fill="#00735C"/>
<path d="M12.7271 12.5551C12.7656 12.5542 12.8177 12.5679 12.8876 12.612L12.7928 12.7401L12.6844 12.6921L12.6303 12.612C12.6303 12.612 12.6537 12.5568 12.7271 12.5551Z" fill="#00735C"/>
<path d="M14.3204 12.6167L14.3997 12.6907L14.3469 12.8018L14.2147 12.6907L14.3204 12.6167Z" fill="#00735C"/>
<path d="M12.026 12.6194C12.0669 12.6191 12.1072 12.626 12.1428 12.6438L12.1157 12.6709H12.2782L12.4136 12.6844L12.3865 12.6979L12.3594 12.7115C12.3594 12.7115 12.3053 12.8198 12.1563 12.8198L11.9125 12.7656L11.723 12.7115C11.723 12.7115 11.8798 12.6204 12.026 12.6194Z" fill="#00735C"/>
<path d="M16.1647 12.698L16.2595 12.7383L16.0699 12.8793C16.0699 12.8793 15.9345 12.9196 15.948 12.7383L16.0428 12.7181L16.1647 12.698Z" fill="#00735C"/>
<path d="M14.6345 12.7251H14.6902V12.7621L14.7646 12.7251C14.7646 12.7251 14.8575 12.7806 14.8017 12.8732L14.7646 12.9102L14.6716 12.8361L14.6345 12.7251Z" fill="#00735C"/>
<path d="M13.7913 12.7656L13.8838 12.7965L13.9393 12.889L13.9023 12.9507L13.8098 12.9199L13.7542 12.8582L13.7913 12.7656Z" fill="#00735C"/>
<path d="M11.8042 12.8198H11.9396L12.0209 12.9011C12.0209 12.9011 11.9938 12.9417 11.9396 12.9282H11.8448V12.9959C11.8448 12.9959 11.7636 13.05 11.6417 12.9959L11.4657 12.874L11.5063 12.8334H11.5875H11.6553L11.8042 12.8198Z" fill="#00735C"/>
<path d="M16.8689 12.8198L16.9501 12.8423L16.9908 12.9097C16.9908 12.9097 16.9501 13.0671 16.8282 12.9772L16.6251 12.8423L16.8689 12.8198Z" fill="#00735C"/>
<path d="M18.4126 12.8605L18.4397 12.8975L18.4668 12.916L18.5887 12.879L18.7106 12.953L18.7376 12.99L18.7241 13.0456H18.4262L18.372 12.953L18.4126 12.8605Z" fill="#00735C"/>
<path d="M17.2387 12.9011C17.2387 12.9011 17.3968 12.9011 17.3393 13.0862H17.253L17.1668 12.9752C17.1668 12.9752 17.1668 12.9011 17.2387 12.9011Z" fill="#00735C"/>
<path d="M14.4641 12.9418H14.5335L14.6029 13.0343L14.5797 13.096L14.5103 13.1269L14.4178 13.0652L14.4641 12.9418Z" fill="#00735C"/>
<path d="M14.1024 12.9688H14.1361L14.2034 13.0058V13.1538L14.0351 13.0983C14.0351 13.0983 13.9678 13.0058 14.1024 12.9688Z" fill="#00735C"/>
<path d="M14.6999 12.9688L14.7554 12.9972V13.0257L14.7924 13.0826L14.6444 13.1538L14.6074 13.1111L14.6444 13.0399L14.6999 13.0257L14.6074 12.9972L14.6999 12.9688Z" fill="#00735C"/>
<path d="M12.5879 12.9851C12.6336 12.9857 12.6853 13.0007 12.7386 13.0426L12.5896 13.1702L12.4271 13.0426C12.4271 13.0426 12.4853 12.9921 12.5686 12.9859C12.5749 12.9854 12.5814 12.985 12.5879 12.9851Z" fill="#00735C"/>
<path d="M13.4969 13.0636H13.5511H13.6053L13.673 13.1459L13.7542 13.187V13.2281L13.7407 13.2487H13.4969L13.2667 13.187L13.3886 13.0842L13.4969 13.0636Z" fill="#00735C"/>
<path d="M15.6685 13.0636L15.7112 13.0825L15.7539 13.1393L15.7397 13.215C15.7397 13.215 15.5973 13.2907 15.5688 13.215L15.5973 13.1015L15.6685 13.0636Z" fill="#00735C"/>
<path d="M14.5744 13.0771L14.63 13.1512L14.6115 13.2622H14.5189L14.4449 13.1882C14.4449 13.1882 14.4449 13.0771 14.5744 13.0771Z" fill="#00735C"/>
<path d="M12.8334 13.1178L12.9417 13.1641L12.7928 13.3029H12.7386H12.698L12.7115 13.2335C12.7115 13.2335 12.7521 13.1409 12.8334 13.1178Z" fill="#00735C"/>
<path d="M16.4355 13.1449L16.5303 13.2066L16.6251 13.2374L16.273 13.33L16.3678 13.2683L16.4355 13.1449Z" fill="#00735C"/>
<path d="M14.472 13.1854H14.5397L14.5532 13.2359L14.5261 13.2696H14.6345L14.7157 13.2864L14.7292 13.32L14.6074 13.3369L14.4855 13.3705L14.4584 13.3537L14.4178 13.32L14.4313 13.2696L14.4178 13.2359L14.472 13.1854Z" fill="#00735C"/>
<path d="M13.4415 13.3751L13.4944 13.406L13.5737 13.4677L13.5208 13.5602H13.4415L13.3886 13.4985L13.4151 13.406L13.4415 13.3751Z" fill="#00735C"/>
<path d="M15.3386 13.3751L15.4334 13.4368L15.2303 13.5602V13.4368L15.3386 13.3751Z" fill="#00735C"/>
<path d="M16.7334 13.3885H16.7741L16.9095 13.4348L17.0449 13.5042L17.0314 13.5736L16.8689 13.5505C16.8689 13.5505 16.7741 13.5505 16.7199 13.458L16.7064 13.4117L16.7334 13.3885Z" fill="#00735C"/>
<path d="M11.4657 13.4292H11.5063L11.5469 13.4986L11.5198 13.6143H11.4386L11.3573 13.5911L11.4657 13.4292Z" fill="#00735C"/>
<path d="M13.1313 13.4292H13.1855L13.2938 13.6052L13.2803 13.6459L13.199 13.6052V13.5646L13.1584 13.5375L13.1042 13.4969L13.1313 13.4292Z" fill="#00735C"/>
<path d="M15.5752 13.4969C15.5752 13.4969 15.6862 13.4969 15.6862 13.6203L15.6122 13.682H15.5381L15.5011 13.5586L15.5752 13.4969Z" fill="#00735C"/>
<path d="M13.5768 13.5132C13.6039 13.514 13.6354 13.5369 13.6685 13.6009L13.5675 13.6983L13.4834 13.6009C13.4834 13.6009 13.5161 13.5239 13.5654 13.5144C13.5691 13.5137 13.5729 13.5131 13.5768 13.5132Z" fill="#00735C"/>
<path d="M14.6903 13.524L14.806 13.5409V13.6418L14.7135 13.7091L14.644 13.6587L14.6209 13.5745L14.6903 13.524Z" fill="#00735C"/>
<path d="M12.3323 13.5782H12.4136H12.5626C12.5626 13.5782 12.6438 13.5782 12.6844 13.7263L12.2511 13.7633L12.3323 13.5782Z" fill="#00735C"/>
<path d="M17.5053 13.6594L17.6001 13.6762C17.6001 13.6762 17.8032 13.6258 17.8439 13.7772L17.8168 13.8277L17.5189 13.8445L17.2074 13.7604L17.3157 13.7267L17.4241 13.6762L17.5053 13.6594Z" fill="#00735C"/>
<path d="M13.0585 13.736C13.1231 13.7349 13.2337 13.7509 13.2803 13.8626L13.2532 13.9303L13.1855 13.9168L12.8876 13.9033L12.5896 13.9574L12.9417 13.9845L12.9688 14.0251L12.2917 14.1064H12.1428L11.9803 14.0658L11.1948 14.0387L11.3573 13.9845L12.4813 13.9168L12.3188 13.8897H12.1563L12.1292 13.8626L12.1428 13.822L12.5626 13.7678L13.0094 13.7408C13.0094 13.7408 13.0292 13.7365 13.0585 13.736Z" fill="#00735C"/>
<path d="M14.3907 13.7543H14.4584L14.5261 13.8005L14.5667 13.7543L14.6209 13.8699L14.499 13.9394L14.3636 13.8237V13.7774L14.3907 13.7543Z" fill="#00735C"/>
<path d="M17.2345 13.8219L17.2616 13.849L17.4376 13.8761L17.6001 13.9302L17.546 13.9709L17.5053 14.0386L17.3293 13.9979C17.3293 13.9979 17.2074 13.9709 17.1668 13.9167C17.1668 13.9167 17.1668 13.8896 17.2345 13.8896L17.1803 13.8625L17.2345 13.8219Z" fill="#00735C"/>
<path d="M16.0157 13.849C16.0157 13.849 16.1105 13.8761 16.1647 13.9303L16.0293 13.9573C16.0293 13.9573 15.948 13.9573 15.9074 14.025L15.9209 14.0928L16.1105 14.0657L16.2595 14.1198L16.422 14.1334L16.4762 14.0792L16.5574 14.0657L16.6116 14.1334L16.5574 14.2011H16.4626C16.4626 14.2011 16.4626 14.2823 16.5709 14.2823C16.5709 14.2823 16.7064 14.2823 16.7334 14.35L16.7199 14.3907L16.6793 14.4178C16.6793 14.4178 16.6793 14.3907 16.6387 14.3907L16.6251 14.4448L16.4626 14.3907H16.2189L16.0022 14.323L16.1376 14.2417H16.3136C16.3136 14.2417 16.2189 14.1875 15.948 14.2417L15.6095 14.2011L15.6501 14.174L15.7313 14.1469L15.6772 14.1198L15.6095 14.1334L15.5688 14.1063L15.8803 13.8625L16.0157 13.849Z" fill="#00735C"/>
<path d="M16.9095 13.9167L16.9501 13.9303L16.923 13.9574L17.0585 13.9709L17.1803 14.0386L17.1939 14.0793L17.1668 14.0928L16.9366 14.1063C16.9366 14.1063 16.8147 14.1063 16.7741 14.0251C16.7741 14.0251 16.7605 13.9845 16.7876 13.9438L16.9095 13.9167Z" fill="#00735C"/>
<path d="M14.515 13.9267C14.5249 13.9255 14.5368 13.9274 14.55 13.9337L14.6029 13.9591V14.0353L14.5235 14.1115L14.4707 14.0861L14.4178 14.0353L14.4707 13.9591C14.4707 13.9591 14.4852 13.9303 14.515 13.9267Z" fill="#00735C"/>
<path d="M13.2938 14.0386C13.2938 14.0386 13.1855 14.1681 13.1042 14.1681L12.9417 14.2237H12.7657L12.8876 14.1311L13.023 14.0756L13.2938 14.0386Z" fill="#00735C"/>
<path d="M11.5909 14.0989C11.7249 14.0981 11.8681 14.1097 11.9938 14.147V14.2012H11.9126H11.8448L11.7501 14.2418C11.7501 14.2418 11.7365 14.3501 11.6146 14.3637L11.425 14.4178C11.4251 14.4178 11.398 14.4314 11.3709 14.3907L11.3303 14.323L11.425 14.2959L11.5469 14.2824C11.5469 14.2824 11.5876 14.2824 11.5605 14.2147H11.3573H11.1542L11.1136 14.147C11.1136 14.147 11.3352 14.1004 11.5909 14.0989Z" fill="#00735C"/>
<path d="M10.0438 14.1063C10.0438 14.1063 10.0709 14.1063 10.0844 14.1356L9.88127 14.282C9.88127 14.282 9.7594 14.326 9.71877 14.2235C9.71877 14.2235 9.6646 14.1063 10.0438 14.1063Z" fill="#00735C"/>
<path d="M17.4918 14.1063L17.6814 14.1618L17.397 14.2914L17.1126 14.2359H17.0314L16.9501 14.1618L17.4918 14.1063Z" fill="#00735C"/>
<path d="M10.4433 14.1703C10.4634 14.1702 10.4839 14.1715 10.5042 14.1741L10.5177 14.216L10.7209 14.202L10.9104 14.216L10.8563 14.2438L10.8427 14.2578L10.8698 14.2857L10.8563 14.3275L10.6261 14.3554L10.3959 14.3275L10.45 14.2996L10.5042 14.3135V14.2578L10.3823 14.2717L10.2604 14.2578L10.2334 14.3275H10.1927L10.1656 14.2857L10.1386 14.3275H10.1115H10.0844L10.0573 14.3135L10.0709 14.2857C10.0709 14.2857 10.2486 14.171 10.4433 14.1703Z" fill="#00735C"/>
<path d="M12.373 14.2146H12.549L12.5896 14.2516L12.3459 14.3256L12.075 14.3997H12.0073L11.9667 14.3627C11.9667 14.3627 11.9667 14.2701 12.0615 14.2701L12.1969 14.2516L12.373 14.2146Z" fill="#00735C"/>
<path d="M13.1313 14.2146L13.2667 14.3143L13.023 14.3712L12.7792 14.3997L12.4678 14.357L12.6032 14.3712L12.7115 14.357L12.7928 14.3143L13.1313 14.2146Z" fill="#00735C"/>
<path d="M13.8448 14.2552L13.8832 14.2823L13.9982 14.4178L13.9023 14.499L13.8256 14.4178C13.8256 14.4177 13.7873 14.323 13.8448 14.2552Z" fill="#00735C"/>
<path d="M16.0293 14.4584L16.0563 14.5011L16.0428 14.558H15.8668L15.7043 14.5723L15.5147 14.6435L15.4605 14.5865C15.4605 14.5865 15.4334 14.5438 15.474 14.5296L15.5418 14.5153L15.6095 14.5296L16.0293 14.4584Z" fill="#00735C"/>
<path d="M14.4757 14.499H14.5374L14.5991 14.5261L14.63 14.5667L14.6145 14.8105L14.522 15.0272C14.522 15.0272 14.4757 14.9459 14.4757 14.7834L14.4449 14.5261L14.4757 14.499Z" fill="#00735C"/>
<path d="M14.9269 14.5261V14.5667C14.9269 14.5667 14.9886 14.5667 15.0091 14.6074L14.968 14.6751L14.8857 14.7428L14.824 14.7293C14.824 14.7292 14.824 14.5667 14.9063 14.5667H14.9269L14.9063 14.5532L14.9269 14.5261Z" fill="#00735C"/>
<path d="M17.3848 14.5496C17.3893 14.5487 17.3936 14.5501 17.397 14.5551L17.5866 14.6348L17.6272 14.7145L17.546 14.7344L17.4241 14.7145L17.3022 14.6348L17.3564 14.575C17.3564 14.575 17.3715 14.5524 17.3848 14.5496Z" fill="#00735C"/>
<path d="M14.0228 14.5532L14.1154 14.6458L14.0228 14.7383L13.9303 14.6458L14.0228 14.5532Z" fill="#00735C"/>
<path d="M18.846 14.5668L19.0627 14.6004C19.0627 14.6004 19.1981 14.6172 19.2793 14.6846V14.7182L19.2658 14.735L19.1439 14.7519L19.0356 14.7014L18.9272 14.6677L18.8054 14.6172L18.846 14.5668Z" fill="#00735C"/>
<path d="M12.8578 14.5891C12.8728 14.5901 12.8884 14.5993 12.9011 14.6226C12.9011 14.6226 12.8198 14.7965 12.7115 14.7716C12.7115 14.7716 12.6167 14.7716 12.5355 14.6226L12.6709 14.6723L12.7928 14.6226C12.7928 14.6226 12.8246 14.5869 12.8578 14.5891Z" fill="#00735C"/>
<path d="M13.4563 14.6615L13.5647 14.69L13.6188 14.7754L13.524 14.8466L13.3886 14.7754C13.3886 14.7754 13.4292 14.6615 13.4563 14.6615Z" fill="#00735C"/>
<path d="M10.8077 14.675L10.9466 14.7367V14.8293L10.8309 14.8601L10.7615 14.7984L10.8077 14.675Z" fill="#00735C"/>
<path d="M16.2595 14.675L16.3949 14.7021L16.5168 14.7292H16.6251H16.7335L16.7741 14.7698L16.747 14.8105L16.6387 14.7834L16.4897 14.7969C16.4897 14.7969 16.4085 14.7969 16.3678 14.8376H16.4897L16.6251 14.8511C16.6251 14.8511 16.273 15.0136 16.0428 14.9594H16.0022L16.0293 14.9865L15.948 15.0542L15.8532 15.0678L15.7991 15.0948L15.7855 15.0542L15.8532 14.973L15.9616 14.9459H15.8126L15.6907 14.8782C15.6907 14.8782 15.8126 14.7292 16.0428 14.8105L16.0022 14.8511L16.1376 14.8376C16.1376 14.8375 16.2189 14.8376 16.246 14.7834L16.2189 14.7698L16.1647 14.7292L16.1918 14.7021L16.2595 14.675Z" fill="#00735C"/>
<path d="M13.9784 14.6886L14.1018 14.7996L13.9784 14.8737L13.9167 14.7996L13.9784 14.6886Z" fill="#00735C"/>
<path d="M13.2803 14.7021L13.3074 14.733L13.2938 14.7793H13.2397C13.2397 14.7793 13.199 14.7638 13.199 14.7947V14.8564L13.0636 14.8872C13.0636 14.8872 12.9824 14.8872 12.9417 14.8255L13.1042 14.733L13.2803 14.7021Z" fill="#00735C"/>
<path d="M10.4771 14.7834H10.5177C10.5177 14.7834 10.7479 14.7834 10.7209 14.8863L10.5854 14.9685L10.4229 14.8657L10.4771 14.7834Z" fill="#00735C"/>
<path d="M14.0845 14.8105L14.1154 14.8512V15.0137C14.1154 15.0137 13.9303 14.9324 13.9303 14.8376L14.0845 14.8105Z" fill="#00735C"/>
<path d="M14.939 14.8376C14.939 14.8376 15.0427 15.0001 14.8612 15.1762L14.7834 15.1356V14.9731C14.7834 14.9731 14.7834 14.8647 14.939 14.8376Z" fill="#00735C"/>
<path d="M15.3499 14.8782L15.4425 14.9337L15.3808 15.0633H15.2574C15.2574 15.0633 15.2574 14.9152 15.3499 14.8782Z" fill="#00735C"/>
<path d="M17.6265 14.901C17.6646 14.8997 17.7186 14.9137 17.7355 14.9971C17.7355 14.9971 17.7626 15.086 17.6272 15.086H17.4918C17.4918 15.086 17.4241 15.086 17.3835 14.9971L17.5866 14.9082C17.5866 14.9082 17.6037 14.9017 17.6265 14.901Z" fill="#00735C"/>
<path d="M13.5646 14.9188C13.5646 14.9188 13.6459 14.9188 13.673 14.9743L13.7001 15.0484L13.673 15.1039H13.5511L13.4834 15.0114C13.4834 15.0114 13.4834 14.9188 13.5646 14.9188Z" fill="#00735C"/>
<path d="M12.6438 15.0272L12.9553 15.0678L13.2396 15.1762L12.9011 15.2303L12.8334 15.1762L12.7657 15.122L12.6573 15.1085L12.549 15.1356L12.5084 15.1085L12.4542 15.122L12.1834 15.1085L11.9396 15.1762C11.9396 15.1762 11.7636 15.2574 11.75 15.1762L11.7907 15.122L11.899 15.0678H11.9802H12.0615L12.6438 15.0272Z" fill="#00735C"/>
<path d="M16.8356 15.0272L16.905 15.0889L16.8587 15.1506L16.7662 15.1815L16.7199 15.2123V15.1198C16.7199 15.1198 16.7893 15.0272 16.8356 15.0272Z" fill="#00735C"/>
<path d="M12.1969 15.1626H12.3188L12.3323 15.2032L12.2646 15.2709L12.1698 15.3251C12.1698 15.3251 12.1969 15.3251 12.1969 15.3657L12.3188 15.3251L12.373 15.3386L12.4271 15.4064V15.4334L12.3865 15.4741L12.1698 15.5147H11.9396L11.6146 15.5418L11.2625 15.6501L11.2354 15.5959C11.2354 15.5959 11.2625 15.5418 11.3438 15.5282L11.4657 15.4876L11.3844 15.4741L11.5469 15.4199H11.7094L11.6823 15.3793L11.7094 15.3386L11.7636 15.3251L11.9125 15.3116L12.0615 15.298L12.1969 15.1626Z" fill="#00735C"/>
<path d="M13.5105 15.2709L13.4022 15.3819L13.2803 15.456L13.199 15.4189L13.1313 15.3449L13.5105 15.2709Z" fill="#00735C"/>
<path d="M15.4507 15.3301C15.4729 15.3296 15.4986 15.3323 15.5282 15.3386L15.5418 15.3792L15.5011 15.4199L15.447 15.474L15.3657 15.5824L15.2574 15.6501C15.2574 15.6501 15.2032 15.6365 15.2438 15.5553L15.3115 15.4199C15.3115 15.4199 15.3308 15.3328 15.4507 15.3301Z" fill="#00735C"/>
<path d="M13.2667 15.3793H13.4022H13.5376H13.673L13.7136 15.4634L13.7001 15.5644C13.7001 15.5644 13.6188 15.4466 13.4699 15.4634L13.199 15.4971L13.1313 15.4297L13.2667 15.3793Z" fill="#00735C"/>
<path d="M15.948 15.4199L16.0428 15.4405C16.0428 15.4405 16.097 15.4405 16.1241 15.5022L16.0564 15.5844L15.9209 15.605L15.772 15.5844C15.772 15.5844 15.7855 15.5227 15.8532 15.5022L15.948 15.4199Z" fill="#00735C"/>
<path d="M17.6001 15.4199L17.7626 15.4728L17.8981 15.605L17.5189 15.5521C17.5189 15.5521 17.4918 15.4992 17.546 15.4464L17.6001 15.4199Z" fill="#00735C"/>
<path d="M14.1951 15.4875L14.3185 15.5669L14.1951 15.6726L14.1334 15.5669L14.1951 15.4875Z" fill="#00735C"/>
<path d="M13.7633 15.5553V15.6611L13.7448 15.7404L13.6337 15.6875L13.5782 15.6082L13.7633 15.5553Z" fill="#00735C"/>
<path d="M14.7847 15.5824H14.8476L14.8895 15.5959L14.8476 15.8397L14.7638 16.0564C14.7638 16.0564 14.6171 15.7178 14.7847 15.5824Z" fill="#00735C"/>
<path d="M11.5604 15.5959L11.6823 15.6501L11.75 15.6366L11.8177 15.6501C11.8177 15.6501 11.6688 15.772 11.4386 15.7991L11.0323 15.8397L10.9917 15.7991L10.9781 15.7314L11.0188 15.6637H11.1L11.2084 15.7043L11.3032 15.6907L11.4386 15.6637L11.5604 15.5959Z" fill="#00735C"/>
<path d="M17.0584 15.6366L17.1532 15.6572L17.2751 15.6777L17.3834 15.76V15.8011L17.3699 15.8217L17.2209 15.8011L17.072 15.7806L16.9501 15.7189V15.6777L16.9772 15.6572L17.0584 15.6366Z" fill="#00735C"/>
<path d="M15.5418 15.6907L15.5959 15.7178V15.7584L15.5418 15.7719L15.4605 15.8938L15.3522 15.9073L15.5418 15.6907Z" fill="#00735C"/>
<path d="M13.2667 15.772L13.497 15.7855L13.7136 15.8261L13.7678 15.9074L13.7542 16.0157L13.7001 16.0564L13.6324 16.0428L13.673 15.9074L13.3615 15.9209L13.0365 15.948C13.0365 15.948 12.7928 16.0428 12.7115 15.948L12.6709 15.9209L12.6844 15.8803H13.0094C13.0094 15.8803 13.199 15.9074 13.2667 15.772Z" fill="#00735C"/>
<path d="M12.201 15.7838C12.2607 15.7832 12.326 15.7936 12.3865 15.8262C12.3865 15.8262 12.1021 15.9751 11.7636 15.9751L11.75 16.0428L11.6146 16.0835L11.4928 16.0428H11.3844L11.2625 16.0157L11.6282 15.921L11.9938 15.8262C11.9938 15.8262 12.0871 15.7851 12.201 15.7838Z" fill="#00735C"/>
<path d="M16.5709 15.948L16.598 15.9744L16.6387 16.0009L16.8553 16.0273V16.1066L16.8282 16.1331H16.7199H16.6251L16.5574 16.0273L16.5709 15.948Z" fill="#00735C"/>
<path d="M16.3001 16.0428H16.3407L16.5438 16.0765L16.747 16.1438L16.6928 16.2279L16.5303 16.1943L16.3813 16.1438L16.273 16.0933L16.3001 16.0428Z" fill="#00735C"/>
<path d="M15.3522 16.0835L15.4741 16.1992L15.5959 16.1529L15.5688 16.2223L15.5147 16.2454L15.4741 16.1992L15.447 16.2686H15.2709L15.2574 16.1529C15.2574 16.1529 15.2845 16.0835 15.3522 16.0835Z" fill="#00735C"/>
<path d="M17.9901 16.1789C18.0022 16.178 18.0165 16.1831 18.0335 16.1986L18.1012 16.2399C18.1012 16.2399 18.1553 16.2606 18.1689 16.3019L18.0605 16.3639L17.9522 16.3432C17.9522 16.3432 17.9522 16.3019 17.9928 16.3019L18.0199 16.2812L17.9657 16.2606L17.9387 16.2399C17.9387 16.2399 17.9539 16.1819 17.9901 16.1789Z" fill="#00735C"/>
<path d="M15.2513 16.246L15.2811 16.2595L15.2662 16.3001L15.2811 16.3408L15.3258 16.3678L15.3557 16.3949V16.4626V16.5168L15.296 16.6387L15.2363 16.7064C15.2363 16.7064 15.1468 16.6658 15.1767 16.5304L15.2214 16.2866L15.2513 16.246Z" fill="#00735C"/>
<path d="M13.6459 16.4897L13.7407 16.5052V16.5823L13.6594 16.6286H13.5511L13.4563 16.6748L13.3886 16.6286L13.4157 16.5514L13.5511 16.5052L13.6459 16.4897Z" fill="#00735C"/>
<path d="M16.5032 16.5303L16.6793 16.5508H16.7199L16.747 16.592L16.7334 16.6537H16.6251L16.598 16.7154L16.3813 16.6537C16.3813 16.6537 16.422 16.5303 16.5032 16.5303Z" fill="#00735C"/>
<path d="M16.8689 16.5438L16.923 16.5808L16.9772 16.6549L16.747 16.7289L16.8147 16.5808L16.8689 16.5438Z" fill="#00735C"/>
<path fill-rule="evenodd" clip-rule="evenodd" d="M22.9216 23.5357L26.6698 19.5H27.2066L30.7918 23.5357H32.0475V23.6795H27.0724V23.5357H28.702L27.753 22.4525H24.3691L23.3913 23.5357H24.9922V23.6795H21.6562L21.6754 23.5357H22.9216ZM27.59 22.2991L26.1234 20.5832L24.5417 22.2991H27.59Z" fill="#2F6EBB"/>
<path d="M21.7885 23.5357L21.9227 22.3375H21.4434C21.1462 22.951 20.6382 23.2002 20.6382 23.2002C19.9672 23.5261 18.4909 23.5261 18.4909 23.5261H16.4874V21.6089C17.8199 21.5993 18.2608 21.7623 18.2608 21.7623C18.7018 21.9157 18.8072 22.4429 18.8072 22.4429H19.2674V20.6887H18.8072C18.7497 21.168 18.2129 21.3213 18.2129 21.3213L16.4874 21.4556V19.6534H17.887L19.3345 19.7013C20.0055 19.778 20.4177 19.9697 20.4177 19.9697C20.897 20.1998 21.1462 20.6312 21.1462 20.6312H21.6064L21.5105 19.5H12.375V19.6534H14.0238V23.5261H12.3846V23.6795H21.7693" fill="#00735C"/>
<path d="M13.1041 19.6534L13.1038 19.6534L13.1041 19.5L13.1041 19.5H8.66579L6.35555 22.3662L4.122 19.5H0V19.6534H1.5817V23.5261H0V23.6795H3.6427V23.5261H2.08976V19.7588H2.11852L5.30109 23.6795H5.84749L9.03965 19.7588H9.08758V23.5261H7.50588V23.6795H13.1137L13.1134 23.6795L13.1137 23.5261V23.5261H11.1294V19.6534H13.1041Z" fill="#B61F24"/>
</g>
<defs>
<clipPath id="clip0">
<rect width="32" height="32" fill="white"/>
</clipPath>
</defs>
</svg>
