<svg width="32" height="32" viewBox="0 0 32 32" fill="none" xmlns="http://www.w3.org/2000/svg">
<path fill-rule="evenodd" clip-rule="evenodd" d="M6.53526 6.99129C6.48578 7.38868 6.74521 8.03351 6.86668 8.11899C6.91766 7.99152 7.06762 7.67361 7.30306 7.57913C7.52359 7.48917 7.80456 7.50572 8.09189 7.52264C8.34578 7.5376 8.60464 7.55284 8.83115 7.49516C9.43399 7.3392 9.7684 6.68087 9.88987 6.10503C9.85387 6.12434 9.8143 6.14886 9.77155 6.17536C9.6184 6.27026 9.42443 6.39047 9.20755 6.38695C8.86664 6.3823 8.58137 6.28198 8.30458 6.18463C8.04566 6.09357 7.79417 6.00513 7.51151 6.00005C7.00464 5.99406 6.59525 6.49042 6.53526 6.99129ZM11.0969 26.2244C11.2543 26.3528 11.4109 26.4807 11.5649 26.6091L18.2322 20.6827H17.5004C17.2199 20.7096 16.7416 20.7036 16.7341 20.2373H18.0552C18.3401 20.2373 18.6475 20.1428 18.8605 19.9538L21.5118 17.6445H16.0172L15.5674 17.1406H21.3243C21.6947 17.1406 22.1086 17.0911 22.3921 16.8557L25.0658 14.6243H14.5701L14.1187 14.1399H25.0089C25.3133 14.1399 25.6537 14.0709 25.8846 13.8745L28.5884 11.5816L11.6894 11.5786L11.241 11.0912L28.6034 11.0867C28.8748 11.0867 29.1777 11.0177 29.4102 10.8108L32 8.52238H13.7558C12.902 8.52238 12.4183 8.92785 11.949 9.32133C11.5157 9.68456 11.0946 10.0376 10.4057 10.052C10.1223 10.0565 9.27054 9.81954 9.27054 9.53911C9.27054 9.46713 9.34702 9.39665 9.416 9.39665C9.8029 9.67108 10.1358 9.82554 10.6637 9.77455C11.0944 9.70638 11.4054 9.42694 11.7186 9.1456C12.0117 8.8823 12.3066 8.61735 12.7031 8.52238H0.961244C0.925253 8.98726 0.577346 9.31567 0 9.23619L0.236937 10.1225L1.33764 10.1255L0.634331 10.8498L1.21468 11.4391C1.5086 11.0417 1.82801 10.7208 2.46834 10.7823C3.22031 10.8515 3.61594 11.3573 4.01714 11.8702C4.42403 12.3904 4.83665 12.9179 5.6325 13.0047C6.10038 13.0572 6.3943 12.8682 6.72571 12.5908C8.10985 13.8475 8.6707 15.2061 8.57172 17.547C8.54513 18.168 8.39942 18.6823 8.25317 19.1986C8.06958 19.8466 7.88515 20.4976 7.93439 21.3665C8.06991 23.7542 9.61983 25.019 11.0969 26.2244Z" fill="#004FA3"/>
</svg>
