<svg width="32" height="32" viewBox="0 0 32 32" fill="none" xmlns="http://www.w3.org/2000/svg">
<path fill-rule="evenodd" clip-rule="evenodd" d="M10.7143 17.246C10.4652 17.411 10.2057 17.5827 9.93439 17.7606C9.61201 17.8899 8.22345 18.3202 8.26621 17.502L10.8177 13.8209C7.95469 14.9295 5.82333 16.9527 2.78797 20.9032C2.08827 21.3558 0.24771 22.1523 0 21.4091C0.68918 17.8682 1.87312 14.0252 3.70282 10.7425L6.83489 10C4.1762 13.4762 3.12121 17.2655 2.49717 19.7084C5.09138 16.6517 8.88006 13.5841 11.5818 12.7228L11.7217 12.5291L13.1747 12.432L13.3471 12.4215C13.304 12.4902 13.2543 12.559 13.2086 12.6222L13.1747 12.6692C12.7125 13.3523 12.3385 13.9815 11.9637 14.6119C11.5532 15.3025 11.1419 15.9944 10.613 16.7599C11.517 16.0921 12.3457 15.5427 13.1747 15.0693C14.1113 14.542 15.037 14.1328 16.0485 13.7884C17.6308 12.2386 20.3218 10.9793 20.8169 11.4741C21.1771 11.6138 20.7896 12.5212 20.4767 13.2541C20.3312 13.5947 20.2019 13.8976 20.1711 14.0683C20.4079 13.966 20.7764 13.5519 21.1449 13.1377C21.5136 12.7232 21.8825 12.3087 22.1196 12.2064C22.3561 12.1096 22.8726 12.1952 23.0232 12.4215C23.0802 12.5095 23.1372 12.7044 23.1954 12.9035C23.2583 13.1185 23.3226 13.3383 23.3897 13.4334C25.6605 12.0554 29.3525 11.0547 32 10.7319L30.8161 11.8188C30.533 11.8542 30.2312 11.8866 29.9163 11.9204C27.8366 12.1437 25.1873 12.4281 23.6262 14.0361C23.2176 14.1976 22.937 14.1545 22.8189 13.8426C22.7906 13.7645 22.7505 13.6328 22.7057 13.4854C22.6145 13.1852 22.5036 12.8203 22.4314 12.712C22.0902 12.8528 21.5249 13.4004 20.9612 13.9465C20.4054 14.4849 19.8511 15.0218 19.5145 15.1661C19.1484 15.317 19.0625 15.1661 18.998 14.9832C19.0263 14.8135 19.2548 14.398 19.5075 13.9384C19.9281 13.1737 20.4158 12.2869 20.1606 12.2064C18.2825 13.0071 16.8684 14.6246 16.0697 15.5381C15.9024 15.7295 15.762 15.89 15.6501 16.0056C15.4278 16.2365 15.3006 16.066 15.2415 15.9869C15.2263 15.9666 15.2156 15.9523 15.209 15.9523L15.6827 14.7249C14.7892 14.9187 14.0034 15.2417 13.1747 15.7042C12.4282 16.1116 11.6415 16.6323 10.7143 17.246ZM13.7023 11.8938L13.1747 11.9264L12.0769 11.9909L12.6796 11.1836L13.1747 11.1514L14.2728 11.076L13.7023 11.8938Z" fill="#DC4433"/>
</svg>
