<svg width="32" height="32" viewBox="0 0 32 32" fill="none" xmlns="http://www.w3.org/2000/svg">
<path d="M0.15979 21.8047L1.67527 21.7979C13.3402 9.80431 36.6258 8.25644 21.4456 21.786L25.8674 21.8166C34.2293 14.4521 32.987 10.5627 27.6276 10.0515C20.7597 9.68617 8.30404 13.9444 0.15979 21.8047Z" fill="#0168B3"/>
<path d="M16.4021 13.5379L12.5498 15.1301C19.2937 14.1038 20.3031 17.3273 15.2843 21.8029L18.6149 21.8074C20.3734 20.0776 22.4882 18.0481 22.4882 15.8326C22.3389 14.5204 22.0216 13.0394 16.4021 13.5379Z" fill="#0168B3"/>
<path d="M9.25006 16.7401L11.3519 15.6622C16.8707 15.3372 15.6621 18.7468 12.4118 21.824L10.1842 21.7881C13.2644 18.7193 12.9813 16.4896 9.25006 16.7401H9.25006Z" fill="#0168B3"/>
</svg>
