<svg width="32" height="32" viewBox="0 0 32 32" fill="none" xmlns="http://www.w3.org/2000/svg">
<g clip-path="url(#clip0)">
<path fill-rule="evenodd" clip-rule="evenodd" d="M22.0394 7.05901C22.906 8.08655 24.1717 8.45258 24.9809 7.86164C25.4881 7.48899 25.6755 6.81205 25.5652 6.07337C26.0459 6.14613 26.5134 6.29166 27.0713 6.51658C27.3469 6.60919 27.6754 5.45596 27.2477 5.41627C22.6524 4.75476 20.1012 8.46361 20.1629 8.40407C20.873 7.87046 21.4595 7.41843 22.0394 7.05901ZM24.6612 7.48238C24.0548 7.97409 23.0427 7.6676 22.3305 6.88261C23.2897 6.28946 24.1033 6.00942 24.9787 6.02045C25.1573 6.58493 25.003 7.21116 24.6612 7.48238ZM1.76645 9.1185C2.55806 6.5254 3.9362 4.17484 5.72667 2.2234C13.6449 -1.11721 23.8541 -1.09295 31.5056 5.06567C26.7052 2.6181 12.5093 0.0139694 1.76645 9.1185ZM1.30781 17.6078C0.959417 15.7358 0.899882 13.8042 1.16448 11.9101C6.76744 6.21449 15.1531 2.46595 23.9556 4.30715C19.1376 4.31817 7.58771 7.61909 1.30781 17.6078ZM4.30443 24.622C3.37391 23.3166 2.60436 21.879 2.05311 20.3487C5.3871 13.2904 11.8147 7.1428 20.454 5.80435C16.1542 7.42504 7.19301 14.0203 4.30443 24.622ZM9.74201 29.6472C8.41459 28.8645 7.21506 27.9053 6.13901 26.8204C7.29003 19.3586 11.8478 11.5595 19.1376 7.51104C18.6018 8.30044 18.3548 9.22434 18.3989 10.2078C14.1499 14.5164 9.92944 21.2064 9.74201 29.6472ZM16.485 32C15.0473 31.8015 13.6581 31.4443 12.3417 30.9372C12.3902 24.1832 14.5798 16.1635 18.5555 11.2463C18.776 12.1085 19.1949 12.9927 19.8719 13.8791C23.0184 10.1769 26.6479 7.55955 31.155 6.40191C25.0096 8.73483 15.4442 16.1768 16.485 32Z" fill="#00265D"/>
</g>
<defs>
<clipPath id="clip0">
<rect width="32" height="32" fill="white"/>
</clipPath>
</defs>
</svg>
