<svg width="32" height="32" viewBox="0 0 32 32" fill="none" xmlns="http://www.w3.org/2000/svg">
<path fill-rule="evenodd" clip-rule="evenodd" d="M26.3793 15.7106C26.7933 15.2195 27.4067 14.9038 28.091 14.8857L30.4092 17.2036H32L28.7964 14H28.7333C26.9919 14 25.5684 15.3918 25.5303 17.1326L25.5288 17.2036H25.8329L25.8368 17.1104C25.8676 16.5364 26.3433 16.0867 26.9182 16.0867H26.9813H27.5762V15.4918H27.2081C26.9072 15.4918 26.6242 15.571 26.3793 15.7106ZM0.850556 15.7106C1.26453 15.2195 1.87773 14.9038 2.56222 14.8857L4.88041 17.2036H6.47125L3.26761 14H3.20429C1.46311 14 0.0396309 15.3918 0.0015077 17.1326L0 17.2036H0.304124L0.307786 17.1104C0.338586 16.5364 0.814587 16.0867 1.38945 16.0867H1.45256H3.54761L2.95272 15.4918H1.67936C1.37847 15.4918 1.09545 15.571 0.850556 15.7106ZM8.16461 15.4915C8.33196 15.4915 8.46766 15.3559 8.46766 15.1887C8.46766 15.0214 8.33196 14.8857 8.16461 14.8857H5.48263V15.4918L8.16461 15.4915ZM5.57395 16.0869L4.8746 15.3875V14H8.46766C9.04381 14 9.51077 14.467 9.51077 15.0433C9.51077 15.6193 9.04403 16.0862 8.46787 16.0864L9.58529 17.2039H7.99445L6.87725 16.0867L5.57395 16.0869ZM10.4229 15.5077V17.2036H9.81489V14H10.5061L12.9285 16.4224L12.1331 17.2176L10.4229 15.5077ZM13.4079 17.2036H14.4513V14H13.7599L12.2423 15.5178L13.0377 16.313L13.4079 15.9428V17.2036ZM15.7985 14H19.3916V14.8857H16.1097C15.9424 14.8857 15.8067 15.0214 15.8067 15.1887C15.8067 15.3561 15.9424 15.4918 16.1097 15.4918H19.3916V16.0867H15.9842C15.8862 16.0867 15.8067 16.1661 15.8067 16.2641C15.8067 16.3621 15.8862 16.4416 15.9842 16.4416H19.3916V17.2036H15.6111C15.1386 17.2036 14.7552 16.8205 14.7552 16.3477C14.7552 16.1065 14.8551 15.8885 15.0156 15.733C14.8536 15.5491 14.7552 15.3078 14.7552 15.0433C14.7552 14.4672 15.2224 14 15.7985 14ZM20.3082 15.517V17.2036H19.6965V14H20.3918L23.5957 17.2036H21.9951L20.3082 15.517ZM23.5653 16.9549V14H22.522V15.9118L23.5653 16.9549ZM24.0213 14H25.0728V17.2036H24.0213V14ZM27.7289 15.4918H28.4815L29.0764 16.0867H27.7289V15.4918Z" fill="#0033A0"/>
<path fill-rule="evenodd" clip-rule="evenodd" d="M27.0655 14H25.5287V14.5441H26.3214C26.5447 14.333 26.7946 14.1499 27.0655 14Z" fill="#D90012"/>
<path fill-rule="evenodd" clip-rule="evenodd" d="M26.3214 14.5439H25.5287V15.088H25.8484C25.9879 14.8914 26.1465 14.7091 26.3214 14.5439Z" fill="#0033A0"/>
<path fill-rule="evenodd" clip-rule="evenodd" d="M26.0287 15.0879H25.5287V15.632C25.6713 15.4407 25.8387 15.2589 26.0287 15.0879Z" fill="#F2A800"/>
</svg>
