<svg width="32" height="32" viewBox="0 0 32 32" fill="none" xmlns="http://www.w3.org/2000/svg">
<rect width="32" height="32" fill="#FFEC00"/>
<path d="M16.2575 12.2713C16.3406 11.8465 16.4361 11.4242 16.5279 11.0006C17.2237 11.0019 17.9189 11.0025 18.6147 11.0006C18.5248 11.418 18.4324 11.8353 18.3543 12.2558C17.656 12.2887 16.9558 12.2614 16.2575 12.2713Z" fill="black"/>
<path d="M24.7072 12.2465C24.7884 11.8304 24.8858 11.4174 24.9726 11.0019C25.669 11 26.3648 11.0037 27.0606 11C26.9695 11.4229 26.8808 11.8471 26.7909 12.2701C26.0963 12.2564 25.3992 12.2998 24.7072 12.2465Z" fill="black"/>
<path d="M28.8504 11.1768C29.545 11.1792 30.2402 11.178 30.9354 11.178C30.8175 11.7399 30.7041 12.3023 30.5788 12.863C31.0377 12.8623 31.4966 12.8648 31.9562 12.8611C31.8538 13.3213 31.7633 13.7839 31.6591 14.244C31.202 14.2416 30.745 14.2434 30.2886 14.2434C30.131 14.9889 29.9667 15.733 29.8117 16.4785C29.7726 16.6248 29.7775 16.8425 29.9599 16.884C30.3462 16.9665 30.7462 16.912 31.1375 16.8995C31.0358 17.3318 30.9645 17.7715 30.8486 18.2C30.2036 18.3141 29.5425 18.316 28.8889 18.3023C28.5068 18.2738 28.0734 18.231 27.7918 17.9402C27.5326 17.6617 27.5754 17.2462 27.6318 16.9002C27.8216 16.0146 28.0101 15.1284 28.1955 14.2416C27.8327 14.2434 27.4706 14.2391 27.1084 14.2471C27.2027 13.7845 27.3106 13.325 27.3974 12.8611C27.7608 12.8642 28.1236 12.8599 28.487 12.8648C28.611 12.303 28.7258 11.7386 28.8504 11.1768Z" fill="black"/>
<path d="M2.53102 12.8115C3.36389 12.6242 4.22528 12.6348 5.07303 12.6782C5.71924 12.7476 6.43179 12.8586 6.90993 13.3423C7.19644 13.6183 7.25412 14.0369 7.21877 14.4152C6.44172 14.4183 5.66528 14.4158 4.88823 14.4165C4.87769 14.2323 4.79334 14.0444 4.60978 13.9761C4.2104 13.8161 3.75831 13.8248 3.34094 13.9048C3.07986 13.9513 2.82063 14.1479 2.80823 14.432C2.87955 14.6267 3.10838 14.6682 3.28823 14.7017C3.81908 14.7724 4.35241 14.8214 4.88389 14.8859C5.42528 14.9442 5.9921 14.9951 6.47582 15.2673C6.7797 15.4329 6.99117 15.7548 7.00234 16.1039C7.01288 16.6273 6.80699 17.1569 6.42683 17.521C6.00823 17.9191 5.44823 18.125 4.89381 18.2472C4.30156 18.3823 3.69133 18.3929 3.0873 18.4134C2.20544 18.3718 1.2473 18.3551 0.49629 17.8273C0.0814063 17.5414 -0.0618495 17.0056 0.0237318 16.5268C0.829313 16.5244 1.63489 16.5262 2.44048 16.5256C2.47086 16.6751 2.47645 16.8599 2.61908 16.9523C2.86156 17.1241 3.17288 17.1346 3.45877 17.142C3.77195 17.1433 4.10869 17.1365 4.38218 16.9628C4.53288 16.863 4.64947 16.6602 4.57567 16.4803C4.48389 16.3334 4.29226 16.3104 4.13722 16.2806C3.51769 16.1963 2.89691 16.1262 2.27676 16.0499C1.83148 15.9954 1.36637 15.9228 0.987453 15.6655C0.726988 15.4912 0.57629 15.178 0.592414 14.8667C0.61722 14.3948 0.794585 13.9259 1.10652 13.5693C1.47489 13.1594 2.00327 12.9343 2.53102 12.8115Z" fill="black"/>
<path fill-rule="evenodd" clip-rule="evenodd" d="M12.2104 12.7297C11.452 12.7539 10.7134 13.0633 10.1552 13.5743C10.2058 13.362 10.2524 13.1481 10.299 12.9341C10.3044 12.9094 10.3098 12.8846 10.3152 12.8599C9.63739 12.8655 8.95956 12.8636 8.28173 12.8611C8.17766 13.3511 8.07366 13.8411 7.96966 14.3311C7.56054 16.2586 7.15141 18.1862 6.73755 20.1126H8.82933C8.89727 19.7858 8.96789 19.4596 9.03849 19.1334C9.14126 18.6587 9.24401 18.1841 9.33848 17.7077C9.82964 18.308 10.6669 18.4357 11.3974 18.4022C12.3034 18.3669 13.2051 18.0227 13.8687 17.3982C14.6408 16.6844 15.0513 15.601 14.9484 14.5548C14.8932 14.0401 14.6377 13.5415 14.2166 13.2326C13.6442 12.8103 12.9044 12.7024 12.2104 12.7297ZM9.93321 15.1408C10.1403 14.6584 10.6098 14.3204 11.1214 14.2298C11.5419 14.1616 12.0051 14.1585 12.3878 14.3712C12.6501 14.5194 12.7921 14.819 12.7921 15.1148C12.7921 15.6642 12.5732 16.2422 12.1149 16.5709C11.7118 16.8537 11.194 16.9194 10.714 16.8698C10.3896 16.8314 10.0417 16.6943 9.88111 16.3898C9.6746 15.9997 9.76825 15.5284 9.93321 15.1408Z" fill="black"/>
<path d="M15.0005 18.1913C15.372 16.4127 15.7509 14.6354 16.1348 12.8599C16.8293 12.8661 17.5245 12.8636 18.2197 12.8611C17.8414 14.6378 17.4668 16.4158 17.0854 18.1926C16.3903 18.1876 15.6957 18.1901 15.0005 18.1913Z" fill="black"/>
<path d="M17.9294 18.1876C18.3158 16.4133 18.6879 14.6366 19.0649 12.8605C19.7453 12.8648 20.4256 12.8636 21.1059 12.8611C20.7146 14.6354 20.3462 16.414 19.9679 18.1907C19.2888 18.1876 18.6091 18.1926 17.9294 18.1876Z" fill="black"/>
<path d="M23.4426 18.1901C23.824 16.414 24.1955 14.6354 24.58 12.8599C25.2752 12.8654 25.9704 12.8623 26.6662 12.8617C26.2904 14.6372 25.9077 16.4115 25.5375 18.1882C24.8392 18.1901 24.1409 18.1895 23.4426 18.1901Z" fill="black"/>
<path d="M21.834 13.3311C22.3977 12.8549 23.1431 12.5218 23.8929 12.6521C23.7434 13.2791 23.6262 13.9135 23.478 14.5404C22.7133 14.4121 21.855 14.3947 21.1908 14.8561C20.9167 15.0248 20.7518 15.3057 20.5967 15.5773C20.7326 14.7153 21.1505 13.8868 21.834 13.3311Z" fill="black"/>
</svg>
