<svg width="32" height="32" viewBox="0 0 32 32" fill="none" xmlns="http://www.w3.org/2000/svg">
<path fill-rule="evenodd" clip-rule="evenodd" d="M31.3658 14.3736C30.9337 12.2794 29.2716 10.2184 27.2771 9.28756L27.2106 9.15459C27.7092 8.95513 28.1746 9.02163 28.6732 9.08814C29.0721 9.08814 29.5043 9.52029 29.8034 9.15459C28.8062 8.55625 27.7092 8.25706 26.6455 7.79168C22.0581 6.66144 16.8059 6.09634 11.8528 6.82769C7.09918 7.52576 1.28183 9.42055 0.151593 14.839C-0.147556 17.7643 0.982681 20.3572 3.44253 22.0525C9.92474 26.2077 20.4292 26.2742 26.9445 22.2187C29.7036 20.5898 31.9641 17.731 31.3657 14.3736L31.3658 14.3736ZM27.1773 19.4596H27.0112C26.8781 17.0662 27.41 14.8058 27.6095 12.4788C27.41 12.0467 27.0776 11.681 26.6455 11.4815C26.1136 11.4151 25.7147 11.6145 25.4488 12.0467C24.8172 14.4401 24.9501 17.1992 24.6842 19.7921C24.6842 20.1577 25.0166 20.4901 25.349 20.6231V20.8226C21.5262 23.083 16.7061 23.4154 12.0191 23.0165C9.39291 22.6176 6.89975 22.0193 4.77227 20.4237L4.73905 20.2242L6.20169 15.9027H6.36789L8.49537 21.1882C9.02725 21.6536 9.55914 22.0525 10.3569 21.8863C10.5564 21.7201 10.8888 21.5206 10.9221 21.2547C11.0882 17.7975 11.5204 14.5066 12.6506 11.4816C12.6174 11.1492 12.3182 10.85 12.0191 10.6838C11.2212 10.3846 10.6561 11.0162 10.1575 11.4483C9.72532 13.0439 9.29318 14.6063 9.09376 16.3017H8.92751C8.36241 14.8722 7.66433 13.5426 7.43165 11.9802C7.03272 11.5481 6.43438 11.5148 5.93577 11.5481C5.53685 11.6478 5.13797 11.9802 4.97174 12.3791C4.24043 14.2739 3.80829 16.3017 3.01049 18.1632H2.81102C2.24591 16.9997 2.01322 15.2712 2.57833 14.0412C5.17121 9.55354 10.4899 8.95515 15.3432 8.65601C17.7034 8.65601 20.1965 8.72246 22.324 9.45382C24.9834 9.95243 28.0084 11.0826 29.0722 13.875C29.5043 15.9692 28.9392 18.0967 27.1773 19.4596L27.1773 19.4596ZM23.6205 11.4151C21.9251 11.2821 20.6619 12.5121 19.299 13.4428H18.9999C19.0663 12.645 19.0663 11.814 19.2326 11.1491C19.0331 10.7835 18.5344 10.4511 18.0358 10.4178C17.5704 10.5175 17.1051 10.8167 16.9721 11.2821L16.5732 15.1049L16.0413 15.6036C15.9416 15.9692 16.2407 16.1687 16.407 16.4346L15.7754 20.7561L15.8751 21.4542C16.0413 21.853 16.4734 22.119 16.9056 22.1522C17.4042 22.0857 17.9693 21.8198 18.1356 21.2879L18.468 18.1299L18.5677 17.9638C19.1993 18.2962 19.7977 18.695 20.396 19.1272C21.493 19.6591 22.0913 21.155 23.5208 20.8891C23.7202 20.7893 24.0526 20.6564 24.1191 20.3572C24.252 19.8585 24.0859 19.3931 23.8532 18.9942C22.457 17.9305 21.0276 16.767 19.6314 15.803C20.5622 15.0052 21.626 14.3736 22.6565 13.7088C23.1551 12.9442 25.2826 13.7088 24.4848 12.1132C24.2853 11.7807 23.9529 11.5148 23.6205 11.415L23.6205 11.4151ZM14.2795 10.9164C13.9471 11.0162 13.6147 11.2489 13.5149 11.5481C12.983 14.5398 12.6174 17.5648 12.0523 20.5566L12.152 21.2547C12.3182 21.6536 12.7836 21.8198 13.116 22.0525C13.5149 22.0857 14.08 22.0193 14.2795 21.5539L15.7089 11.6145C15.3764 11.1823 14.9111 10.7835 14.2795 10.9164L14.2795 10.9164Z" fill="#C20437"/>
</svg>
