<svg width="32" height="32" viewBox="0 0 32 32" fill="none" xmlns="http://www.w3.org/2000/svg">
<path fill-rule="evenodd" clip-rule="evenodd" d="M14.6132 0.462263C16.1566 0.338198 17.7231 0.427525 19.2391 0.752161C22.2018 1.37869 24.9751 2.89104 27.1024 5.04563C28.9861 6.92893 30.3707 9.29981 31.0898 11.8605C31.8094 14.4018 31.871 17.1209 31.2796 19.6927C30.8384 21.5959 30.0419 23.4134 28.9356 25.0225C26.9514 27.9389 23.9577 30.1514 20.5853 31.1803C18.338 31.8726 15.9398 32.0463 13.6153 31.6985C10.9504 31.3077 8.39381 30.2093 6.27437 28.546C3.89936 26.6974 2.06982 24.1562 1.08764 21.3097C-0.0922192 17.9215 -0.068647 14.1309 1.16497 10.7621C1.87297 8.80479 2.9788 6.99469 4.39066 5.46704C6.08869 3.62219 8.23915 2.1909 10.5984 1.34023C11.8904 0.87209 13.2439 0.582192 14.6132 0.462263Z" fill="#231F20"/>
<path fill-rule="evenodd" clip-rule="evenodd" d="M14.7294 1.31283C17.8699 1.04981 21.0877 1.81198 23.7683 3.479C26.236 4.99879 28.2434 7.25388 29.4617 9.88405C30.4827 12.0655 30.9505 14.498 30.8231 16.9041C30.7226 19.1244 30.1035 21.3212 29.0361 23.2702C28.1387 24.9219 26.9204 26.3996 25.478 27.6022C24.1356 28.72 22.5963 29.6021 20.9488 30.186C18.4154 31.0909 15.6342 31.2881 13.0003 30.7547C11.5153 30.4569 10.0803 29.9267 8.75733 29.1918C6.28224 27.8267 4.21283 25.742 2.86673 23.2587C1.19971 20.2187 0.665821 16.5869 1.3581 13.1949C1.86139 10.6805 3.03711 8.30967 4.72315 6.37964C6.16231 4.72833 7.96828 3.39009 9.97565 2.51212C11.4806 1.85044 13.093 1.44475 14.7294 1.31283Z" fill="white"/>
<path fill-rule="evenodd" clip-rule="evenodd" d="M16.8757 4.73594C17.3244 4.58541 17.8273 4.71692 18.2065 4.9758C19.0187 5.59488 19.7189 6.36077 20.2524 7.23088C21.0067 8.43762 21.3665 9.86106 22.2481 10.9863C22.4338 11.2262 22.6427 11.4429 22.8594 11.6517C23.2576 12.0384 23.5364 12.5566 23.5748 13.1173C23.6406 13.8448 23.3581 14.5639 22.9057 15.1288C22.4996 15.6549 21.9041 15.9799 21.3354 16.3083C20.0319 17.0241 18.6627 17.6159 17.286 18.1767C16.3575 18.5481 15.4217 18.9037 14.4664 19.2015C13.882 19.3834 13.275 19.5303 12.6563 19.5034C12.3581 19.4802 12.0413 19.4223 11.8015 19.2288C11.5769 19.0584 11.4611 18.7685 11.4996 18.4898C11.5848 17.5502 11.8788 16.6491 11.9909 15.7128C12.0877 14.9084 12.1571 14.0999 12.227 13.2914C11.3991 13.3109 10.579 13.3961 9.75523 13.435C9.41902 13.4656 9.07081 13.2956 8.90456 12.9937C8.78463 12.7849 8.77677 12.526 8.86197 12.3014C9.36484 10.8358 10.2503 9.52443 11.3065 8.39502C12.3391 7.30408 13.5264 6.35292 14.8415 5.62176C15.4912 5.26239 16.1681 4.95264 16.8757 4.73594Z" fill="#231F20"/>
<path fill-rule="evenodd" clip-rule="evenodd" d="M16.4696 5.48242C16.7326 5.38193 17.0072 5.27772 17.2975 5.28557C17.4985 5.2893 17.692 5.37035 17.8546 5.48242C18.1407 5.6954 18.3765 5.96586 18.6279 6.21358C19.0071 6.56551 19.2817 7.01049 19.5563 7.44348C20.2176 8.52284 20.7862 9.65596 21.3739 10.7738C21.4512 10.9206 21.5637 11.0484 21.6758 11.172C22.0277 11.5513 22.4338 11.8916 22.7316 12.3209C22.9677 12.6612 23.0293 13.0942 23.0062 13.4966C22.9561 14.1078 22.6273 14.657 22.2287 15.1057C21.842 15.4965 21.3586 15.7748 20.8751 16.03C20.0087 16.4787 19.1035 16.8463 18.2065 17.2252C16.9299 17.7512 15.6731 18.3235 14.3539 18.7412C13.8398 18.9 13.3138 19.0394 12.7762 19.0584C12.5285 19.051 12.2539 19.0237 12.0603 18.8537C11.9057 18.6213 11.9598 18.3198 11.9793 18.0568C12.0955 17.2136 12.3391 16.3898 12.4743 15.5466C12.6021 14.7922 12.6753 14.0264 12.7063 13.2609C12.8998 13.2493 13.093 13.2567 13.2902 13.2493C13.1897 14.1889 13.0739 15.1252 12.8998 16.0494C12.8146 16.5019 12.7063 16.9506 12.6521 17.4071C12.6405 17.6081 12.6174 17.8248 12.722 18.0064C12.772 18.111 12.8767 18.192 12.9966 18.2036C13.3138 18.2425 13.6306 18.1536 13.9325 18.0647C14.7331 17.8169 15.4911 17.4572 16.2455 17.0937C17.6416 16.4051 19.0377 15.7012 20.3338 14.8311C20.902 14.4482 21.4396 14.0148 21.9235 13.5276C22.0083 13.435 22.1203 13.3572 22.1514 13.2299C21.8383 13.2567 21.5443 13.3845 21.2386 13.435C20.6857 13.5045 20.1287 13.4619 19.5754 13.4466C18.6201 13.3845 17.6648 13.2956 16.7173 13.16C16.2144 13.0905 15.7194 12.9863 15.2128 12.9474C14.3233 12.8663 13.4296 12.8548 12.5363 12.8701C11.8941 12.8701 11.2523 12.9089 10.6137 12.9515C10.316 12.9747 10.0145 13.0595 9.72047 12.9747C9.55422 12.9321 9.36068 12.8353 9.31808 12.6534C9.31808 12.5529 9.36854 12.4602 9.40328 12.3672C9.64686 11.7097 9.96405 11.0831 10.3549 10.4992C10.7804 9.85695 11.2754 9.25772 11.7857 8.68123C12.7026 7.64074 13.8473 6.82481 15.054 6.15155C15.5143 5.90797 15.9824 5.67597 16.4696 5.48242Z" fill="#FFCB0A"/>
<path fill-rule="evenodd" clip-rule="evenodd" d="M17.1776 8.0857C17.3091 8.06254 17.4754 8.05468 17.5796 8.15145C17.6495 8.21721 17.6032 8.32142 17.5449 8.3756C17.3323 8.58858 17.0304 8.65805 16.779 8.80486C16.671 8.87062 16.5511 8.90577 16.427 8.91735C16.4196 8.78584 16.5201 8.68907 16.5858 8.58858C16.7484 8.38718 16.9225 8.16303 17.1776 8.0857Z" fill="#231F20"/>
<path fill-rule="evenodd" clip-rule="evenodd" d="M14.4507 14.2896C14.8257 14.0498 15.3096 14.0572 15.7231 14.1887C15.7542 14.2081 15.8199 14.2003 15.8278 14.2507C15.468 14.5563 15.1003 14.8657 14.8415 15.2602C14.7215 15.4422 14.6016 15.6237 14.5127 15.8173C15.0929 15.0592 15.9709 14.5911 16.8757 14.3318C17.2161 14.2239 17.599 14.1928 17.9356 14.3396C18.2024 14.4596 18.4228 14.6837 18.5469 14.9509C18.5779 15.0357 18.6242 15.1403 18.5584 15.2255C18.4617 15.3607 18.3029 15.438 18.1598 15.5232C17.8699 15.6816 17.6031 15.8752 17.3091 16.0261C16.6052 16.3975 15.8857 16.7453 15.1702 17.0898C14.7137 17.3023 14.2728 17.5616 13.7778 17.6658C13.6463 17.6968 13.4916 17.6968 13.3911 17.5963C13.2518 17.4533 13.2013 17.2481 13.1782 17.055C13.1434 16.7068 13.1939 16.3586 13.2634 16.0182C13.3407 15.6663 13.4643 15.3181 13.6732 15.0204C13.8783 14.7263 14.157 14.4865 14.4507 14.2896Z" fill="#EC2028"/>
<path fill-rule="evenodd" clip-rule="evenodd" d="M21.8462 20.4124C21.9773 20.2887 22.1361 20.1841 22.3255 20.1841C22.5922 20.1841 22.8631 20.1762 23.134 20.192C23.1997 20.2383 23.1377 20.304 23.1071 20.3503C22.8168 20.7486 22.5037 21.1357 22.1981 21.5302C21.9657 21.8354 21.7378 22.1646 21.6485 22.5471C21.61 22.6596 21.6605 22.7679 21.7147 22.8643C22.6232 22.3267 23.4627 21.6501 24.4569 21.2672C24.6695 21.2556 24.882 21.3135 25.0909 21.3561C24.5574 21.8548 23.9577 22.2688 23.3928 22.7212C23.1687 22.9032 22.9367 23.081 22.7431 23.2898C23.2076 23.6922 23.8031 23.8854 24.3638 24.1099C24.569 24.1951 24.7853 24.2609 24.9867 24.3614C24.8473 24.516 24.6347 24.5661 24.4453 24.6281C24.0504 24.7327 23.6563 24.8254 23.2497 24.8527C23.0914 24.868 22.9483 24.779 22.7973 24.748C22.1902 24.5971 21.5753 24.485 20.9641 24.3572C20.8131 24.3109 20.6584 24.3882 20.5464 24.485C20.3917 24.6438 20.2949 24.8564 20.113 24.9837C19.8735 25.1231 19.5832 25.1115 19.3165 25.1078C19.2507 25.0226 19.1655 24.9416 19.1424 24.8332C19.1271 24.6165 19.2544 24.423 19.2855 24.2104C19.2933 24.0442 19.2119 23.8932 19.1655 23.7348C19.1035 23.5529 19.1114 23.3477 19.2044 23.1815C19.2391 23.081 19.3591 23.0773 19.4401 23.0268C19.711 22.8684 19.8967 22.5976 20.0472 22.3267C20.2681 21.8937 20.4843 21.4566 20.7126 21.0236C20.8172 20.8495 20.9215 20.656 21.1113 20.567C21.347 20.4818 21.6448 20.5939 21.8462 20.4124Z" fill="#FFCB0A"/>
<path fill-rule="evenodd" clip-rule="evenodd" d="M7.55471 22.3577C7.73254 22.1762 8.003 22.1451 8.247 22.1178C8.63739 22.0988 9.03977 22.0753 9.41899 22.1952C9.59682 22.2535 9.66258 22.4582 9.6663 22.6286C9.67788 22.7795 9.6084 22.9458 9.70889 23.0773C9.95247 23.0152 10.1113 22.7985 10.3391 22.7022C10.5558 22.5976 10.7994 22.5976 11.0314 22.5434C11.287 22.4971 11.5422 22.4156 11.8052 22.4119C12.2154 22.4272 12.5748 22.648 12.9656 22.7444C13.0624 22.818 13.093 22.9574 13.1434 23.0657C13.2518 23.3829 13.3175 23.7232 13.2828 24.0595C13.2439 24.3614 13.1707 24.6554 13.1203 24.9569C13.0041 24.9763 12.8883 24.9957 12.7721 24.9995C12.4354 25.0073 12.1071 25.1037 11.7663 25.1157C11.5422 25.1194 11.3064 25.1231 11.0935 25.0458C10.9698 25.0032 10.8499 24.9221 10.7994 24.7985C10.7494 24.4656 10.7572 24.1252 10.7068 23.7927C10.6679 23.6765 10.5211 23.6459 10.4128 23.6343C10.1539 23.6149 9.89044 23.6649 9.651 23.7654C9.53479 23.8122 9.48475 23.9358 9.42644 24.0363C9.29907 24.284 9.09767 24.4813 8.90454 24.6785C8.75732 24.8216 8.57577 24.9606 8.36279 24.9606C8.08034 24.9606 7.79416 24.9763 7.51212 24.9763C7.39219 24.9763 7.27226 24.9647 7.16391 24.9143C7.18335 24.5313 7.16763 24.1293 7.33801 23.7733C7.46167 23.4797 7.61261 23.1546 7.50426 22.8337C7.45794 22.6786 7.42693 22.4855 7.55471 22.3577Z" fill="#FFCB0A"/>
<path fill-rule="evenodd" clip-rule="evenodd" d="M15.6731 22.2378C15.8819 22.1683 16.1102 22.1878 16.3265 22.2068C16.8294 22.2494 17.3244 22.354 17.8078 22.493C18.0167 22.5587 18.2297 22.6245 18.4112 22.7485C18.4848 22.8027 18.5737 22.8722 18.5663 22.9768C18.5584 23.2125 18.4269 23.4255 18.2913 23.6149C17.9666 24.052 17.5295 24.3883 17.0771 24.6939C16.7946 24.8953 16.4311 24.9379 16.0945 24.9763C15.7736 25.0111 15.4523 25.0148 15.1314 25.0189C14.9225 25.0305 14.7062 25.0537 14.5048 24.9916C14.265 24.8796 14.0793 24.6397 14.0756 24.3688C14.0913 23.9396 14.3539 23.5608 14.3733 23.1274C14.3423 23.0463 14.2997 22.9727 14.2571 22.8953C14.3733 22.7601 14.5437 22.6944 14.6984 22.6129C15.0156 22.4661 15.3365 22.3346 15.6731 22.2378Z" fill="#FFCB0A"/>
<path fill-rule="evenodd" clip-rule="evenodd" d="M15.3443 23.3013C15.5375 23.2434 15.7389 23.2397 15.9361 23.2745C16.1718 23.3208 16.427 23.3518 16.6247 23.5102C16.427 23.8352 16.0329 23.951 15.6731 23.9473C15.5259 23.9436 15.3559 23.8931 15.2939 23.7463C15.2203 23.5991 15.3133 23.4444 15.3443 23.3013Z" fill="white"/>
</svg>
