<svg width="32" height="32" viewBox="0 0 32 32" fill="none" xmlns="http://www.w3.org/2000/svg">
<path fill-rule="evenodd" clip-rule="evenodd" d="M20.5043 14.8502C20.7125 15.1338 20.8793 15.4649 21.1712 15.6059C21.3799 15.7485 21.881 15.8895 22.0886 15.7485C22.9229 15.2753 23.4653 14.9442 24.2164 14.4235C24.2578 14.377 24.2164 14.2349 24.1736 14.1399C24.1328 14.0934 24.0491 14.0459 23.9659 14.0459C23.8822 14.0459 23.5485 14.0004 23.4648 14.0474C23.0061 14.378 22.8191 14.5154 22.3185 14.799C22.1517 14.8931 21.927 15.0103 21.7601 14.9628C21.4264 14.8683 21.1294 14.8502 20.8375 14.7076C20.7543 14.6606 20.6706 14.5661 20.5869 14.5661C20.5456 14.5661 20.3855 14.6456 20.3442 14.6931C20.3442 14.7877 20.4619 14.7551 20.5043 14.8502Z" fill="white"/>
<path fill-rule="evenodd" clip-rule="evenodd" d="M24.2499 13.2172C24.2499 13.1377 24.08 12.9708 24.1197 12.8918C24.1993 12.8127 24.3775 12.6748 24.5149 12.6511C24.6244 12.6325 24.7236 12.5457 24.8027 12.6242C24.9215 12.743 24.8817 12.9403 24.8419 13.0592C24.8419 13.1377 24.7634 13.2172 24.6844 13.256C24.5661 13.2957 24.4865 13.3743 24.3687 13.3743C24.2892 13.3743 24.2892 13.256 24.2499 13.2172Z" fill="white"/>
<path fill-rule="evenodd" clip-rule="evenodd" d="M26.1494 13.0241C26.6624 12.7084 27.0968 12.3138 27.6098 12.0374C28.0045 11.8003 28.3991 11.6422 28.7943 11.4841C29.0702 11.4056 29.3863 11.3658 29.6229 11.2475C29.6627 11.2475 29.89 10.9174 29.8507 10.9174C29.6926 10.8379 29.3832 10.8405 29.2246 10.8405C28.8697 10.8802 28.3852 11.0497 28.0685 11.168C27.6346 11.3255 27.1924 11.5859 26.7972 11.823C26.2843 12.0994 25.8725 12.4718 25.4386 12.8262C25.3983 12.8665 25.3198 12.9455 25.3596 12.9455C25.5569 13.0241 25.7935 13.0241 25.9908 13.0241C26.0306 13.0241 26.1091 13.0633 26.1494 13.0241Z" fill="white"/>
<path fill-rule="evenodd" clip-rule="evenodd" d="M21.6922 15.8812C19.8552 16.8813 6.43963 21.9671 4.65174 19.5929C3.07153 17.495 6.0181 14.6828 6.72581 14.0567L5.80423 14.05C5.13733 14.5629 1.809 17.2393 1.79144 19.6058C1.77233 22.2357 7.07399 23.2213 22.2713 16.1028L21.6922 15.8812Z" fill="#003772"/>
<path fill-rule="evenodd" clip-rule="evenodd" d="M28.8383 14.0636C29.7062 14.4934 30.8375 15.0534 30.9124 15.087C31.0384 15.1427 31.0286 15.1882 30.9351 15.2409L30.9252 15.2465C30.8293 15.3009 30.65 15.4025 30.4774 15.4873C30.3297 15.5596 30.2357 15.5581 30.183 15.555C30.1637 15.5537 30.1116 15.5432 30.0095 15.5225C29.7747 15.475 29.2753 15.3739 28.3032 15.2094C27.1925 15.0212 26.8013 15.0307 26.4159 15.04C26.3696 15.0412 26.3234 15.0423 26.2761 15.043C26.2532 15.0434 26.2306 15.0437 26.2084 15.0441C25.2226 15.0587 24.8528 15.0642 24.5714 15.2016C24.5714 15.2016 23.7795 15.4821 22.6368 15.9465L23.0201 16.4073C23.0578 16.4533 23.0439 16.5081 22.9891 16.5298L22.8155 16.598C22.7608 16.6202 22.6698 16.6238 22.613 16.6067L19.5296 15.6867C19.4727 15.6697 19.4629 15.6237 19.5073 15.5849L19.6701 15.4418C19.7145 15.4031 19.7987 15.3762 19.8576 15.383L20.7161 15.4811L20.0751 14.7166C20.0751 14.7166 20.4687 14.4567 20.4956 14.4376C20.5343 14.4097 20.5498 14.4025 20.6092 14.4226C20.711 14.4562 21.4316 14.6845 21.6728 14.7481C21.9084 14.8096 22.0711 14.7419 22.4265 14.5249C22.5164 14.4702 22.7763 14.2971 23.1265 14.061L19.668 12.7298C19.6303 12.7148 19.6246 12.7024 19.6778 12.6694C19.8137 12.579 20.1396 12.363 20.2667 12.2845C20.4141 12.1939 20.6755 12.2373 21.0128 12.2932C21.0466 12.2989 21.0812 12.3046 21.1165 12.3103C21.5039 12.3723 23.7536 12.6725 23.9158 12.6725C24.0786 12.6725 24.1839 12.6611 24.4159 12.4849C24.4251 12.478 24.4341 12.4712 24.4432 12.4643C24.4733 12.4415 24.5026 12.4193 24.5316 12.3987C24.5414 12.3899 25.0482 11.956 25.4036 12.455C25.4909 12.4276 25.5889 12.3675 25.7167 12.2892C25.7288 12.2818 25.7412 12.2742 25.7538 12.2664C26.1356 12.0035 26.335 11.865 26.4967 11.7514C27.1532 11.2359 29.2154 10.1769 30.4785 10.9192C30.8747 11.1522 30.3705 11.8149 29.3988 12.5237C28.6012 13.1059 27.8424 13.5698 27.8424 13.5698C27.8424 13.5698 27.9137 13.6054 28.0356 13.6658C28.2877 13.5847 28.5521 13.5475 28.7412 13.6426C28.9148 13.7294 28.9566 13.841 28.8383 14.0636ZM23.6446 14.5983C23.6446 14.5983 23.3244 14.8158 22.5309 15.3359C21.8103 15.8086 21.2901 15.4067 21.2901 15.4067L20.3917 14.7109C20.3917 14.7109 20.4651 14.6628 20.5198 14.6287C20.563 14.6016 20.5862 14.6109 20.6595 14.6404L20.6743 14.6463C20.742 14.6752 21.5065 14.9816 21.5783 15.0079C21.6594 15.0368 21.7467 15.0544 21.8335 15.0544C21.9658 15.0544 22.0861 15.0157 22.1982 14.9635C22.3083 14.9125 22.4174 14.8462 22.5477 14.767L22.5567 14.7615C22.6089 14.7295 22.6952 14.6732 22.8155 14.5936C23.0005 14.4712 23.4365 14.1928 23.4365 14.1928C23.8575 14.3503 23.9546 14.3911 23.6446 14.5983ZM24.2862 12.8445C24.0801 12.9865 24.3224 13.3363 24.3224 13.3363L24.8007 13.0346C24.67 12.8657 24.6587 12.5934 24.6587 12.5934C24.6587 12.5934 24.4923 12.7024 24.2862 12.8445ZM25.7699 12.9283L26.0534 12.9654C26.5964 12.5526 28.4927 11.1263 29.5652 11.0256C29.8291 11.006 29.795 10.9693 29.7232 10.9595C29.6514 10.9497 29.5016 10.9342 29.3859 10.9342C28.8636 10.9331 28.2913 11.1067 27.7943 11.3283C27.2974 11.5489 26.8743 11.8144 26.6418 11.9782C26.531 12.0563 26.3016 12.2119 26.0311 12.3953L26.0311 12.3953L26.0309 12.3955L26.0308 12.3955C25.8112 12.5445 25.5645 12.7118 25.3323 12.8708C25.4785 12.8902 25.6243 12.9093 25.7698 12.9283L25.7699 12.9283L25.7699 12.9283Z" fill="#003772"/>
</svg>
