<svg width="32" height="32" viewBox="0 0 32 32" fill="none" xmlns="http://www.w3.org/2000/svg">
<g clip-path="url(#clip0)">
<path fill-rule="evenodd" clip-rule="evenodd" d="M0.707214 13.546C0.707214 13.546 0.860747 13.1361 1.07391 12.6636C1.27574 12.2163 1.53289 11.7114 1.71502 11.4289C1.74012 11.39 1.75118 11.3698 1.75523 11.3623C1.7555 11.3617 1.75577 11.3623 1.75631 11.3625C1.75712 11.3631 1.75847 11.3639 1.75982 11.3647C1.76467 11.3679 1.77358 11.3736 1.78005 11.3766C1.80272 11.3898 1.84805 11.4173 1.91875 11.4562C2.42171 11.7252 3.67047 12.5131 4.32751 12.9321C4.58142 13.0943 4.74628 13.2025 4.74628 13.2025C4.74628 13.2025 3.57387 11.5673 3.45029 11.3034C3.24333 10.8614 3.58979 10.8542 3.92465 11.0171C4.13242 11.1183 5.27757 11.7808 6.34421 12.7349C7.41084 13.6893 8.83661 15.1264 9.94831 17.0465C11.0597 18.9663 11.3965 19.6171 12.261 20.19C13.1255 20.7623 13.9002 20.8748 15.1126 20.8972C16.0043 20.9139 16.8975 20.8613 17.7914 20.8319C18.357 20.813 18.9228 20.7876 19.4886 20.7787C19.6538 20.776 19.8192 20.772 19.9843 20.772C20.1446 20.7723 20.3049 20.7768 20.4649 20.7774C20.6387 20.7777 20.8119 20.7763 20.9857 20.7763C21.4913 20.7758 21.9962 20.7652 22.4945 20.8057C22.8939 20.8378 23.2708 20.8985 23.4605 20.9479C23.6262 20.9911 23.8189 21.0464 24.0512 21.1578C24.2943 21.2747 24.4376 21.4201 24.6375 21.5661C24.7403 21.6411 24.8245 21.7105 24.9519 21.7736C25.08 21.8367 25.2562 21.898 25.4027 21.936C26.0007 22.0904 27.6032 22.1943 28.3892 22.2226C29.1752 22.2509 29.5597 22.2757 30.0538 22.3378C30.5012 22.3937 31.0543 22.4873 31.3252 22.8794C31.3309 22.8874 31.1795 22.8842 30.9267 22.8974C30.2767 22.932 28.9599 22.9101 27.9569 22.9749C26.5646 23.0647 24.1901 23.188 23.3197 23.2331C22.4495 23.2779 21.31 23.177 20.1762 23.0534C19.0421 22.9298 16.7742 22.582 15.5165 22.6155C11.8679 22.7131 9.48204 23.9182 4.89523 24.6243C4.39334 24.7015 3.86637 24.8135 3.3572 24.8534C3.28057 24.8594 3.20799 24.8631 3.13945 24.8669C3.12029 24.868 3.11058 24.8669 3.10977 24.8664C3.09574 24.8529 3.10275 24.8612 3.08225 24.8386C2.42575 24.0987 1.83591 23.1014 1.44628 22.187C1.25362 21.7342 1.184 21.5224 1.04855 21.0944C1.03128 21.0394 1.02966 21.0499 1.05367 21.0426C1.41417 20.936 1.54368 20.8826 2.02101 20.5888C2.55014 20.2631 2.93033 19.8063 3.06498 19.5165C3.40766 18.7801 3.42061 17.9836 3.14377 17.2205C2.81161 16.3055 2.48539 15.7945 2.02209 15.1169C1.93467 14.989 1.84103 14.866 1.74875 14.7435C1.59657 14.5414 1.43494 14.3476 1.2752 14.1625C1.17861 14.05 1.08147 13.9383 0.984598 13.8333C0.893126 13.734 0.800035 13.638 0.707214 13.546Z" fill="#E4152F" stroke="#E82726" stroke-width="0.216"/>
<path fill-rule="evenodd" clip-rule="evenodd" d="M12.5114 20.3428C12.5114 20.3428 12.6444 20.4278 12.8455 20.5165C13.0287 20.5972 13.268 20.6817 13.5057 20.7381C14.0036 20.8563 14.3314 20.8673 14.7245 20.887C14.9253 20.8973 15.3422 20.9029 15.7545 20.8992C16.1492 20.8951 16.54 20.8827 16.7348 20.873C16.986 20.8606 18.2213 20.8131 19.1311 20.788C19.6659 20.7732 20.0887 20.7721 20.1335 20.7732C21.2379 20.802 22.491 20.6882 23.5693 20.9782C23.6866 21.0109 23.8027 21.0495 23.9149 21.0967C23.9352 21.105 23.9835 21.1261 24.0164 21.1409C24.0218 21.1431 24.0145 21.1396 24.0069 21.1328C23.9999 21.1266 23.9899 21.1161 23.9783 21.1075C23.9465 21.0799 23.6958 20.8854 23.2471 20.7297C22.9805 20.6372 22.8388 20.6118 22.7293 20.5967C22.62 20.581 22.5428 20.5756 22.3939 20.5673C22.0963 20.5503 21.2263 20.4828 20.5415 20.4771C19.8564 20.4715 17.235 20.5335 16.7914 20.5673C16.3478 20.6007 15.2364 20.6064 14.6976 20.6064C14.1587 20.6064 13.2097 20.5835 12.5114 20.3428Z" fill="#BA0F2B" stroke="#BA0F2B" stroke-width="0.216"/>
<path fill-rule="evenodd" clip-rule="evenodd" d="M22.2314 20.5575C22.2314 20.5575 22.311 20.2753 22.3164 20.2499C22.5622 19.1425 22.7346 18.0298 22.6761 16.8895C22.6151 15.6995 22.3566 14.4467 21.9473 13.331C20.8221 10.2665 18.2334 7.78815 15.1786 6.68644C13.4129 6.04964 11.4841 5.86778 9.63069 6.17457C7.72165 6.49027 5.94725 7.25038 4.41004 8.44168C3.49775 9.1489 2.52421 10.157 1.89766 11.1481C1.84424 11.2325 1.77327 11.3313 1.75519 11.362C1.75277 11.3661 2.43543 11.7471 3.10218 12.1599C3.51124 12.4133 3.92111 12.6718 4.32747 12.9322C4.30454 12.9022 4.05791 12.579 3.96698 12.4449C3.87146 12.3043 3.57681 11.902 3.47292 11.7557C3.36877 11.6095 3.03094 11.1054 2.97023 10.9848C2.78135 10.61 3.07385 10.5596 3.3685 10.6966C3.51421 10.7708 3.61324 10.8245 3.73466 10.8941C3.88657 10.981 3.96644 11.0272 4.12969 11.1292C4.12969 11.1292 4.6197 11.4068 5.18175 11.8083C5.68714 12.1694 6.25 12.6335 6.62425 12.9826C6.8304 13.1747 7.10941 13.4473 7.43752 13.7781C8.34522 14.6933 9.45044 16.1018 10.1836 17.4513C10.4394 17.9221 10.6223 18.2146 10.7839 18.4785C10.873 18.6245 10.9542 18.7591 11.0397 18.8897C11.1137 19.0025 11.1919 19.111 11.2723 19.2308C11.3325 19.3204 11.4161 19.4207 11.5038 19.5257C11.7143 19.778 12.0122 20.0629 12.499 20.3338C12.5305 20.3511 12.5629 20.3603 12.5918 20.3695C12.642 20.3856 12.6851 20.3997 12.7313 20.4105C12.8155 20.4304 12.8991 20.4528 13.0003 20.4723C13.2928 20.5292 13.6714 20.5783 14.1066 20.5907C14.6862 20.6077 15.1579 20.6091 15.6244 20.6029C15.9336 20.5985 16.2404 20.5929 16.575 20.578C17.4754 20.5386 17.9282 20.5111 18.3041 20.5111C18.5291 20.5111 18.8108 20.4987 19.2468 20.4914C19.5887 20.4858 19.8853 20.4806 20.2282 20.4763C20.6284 20.4717 20.9511 20.4831 21.2673 20.4984C21.4621 20.5079 21.6567 20.5189 21.8515 20.5319C21.9783 20.5405 22.1057 20.5489 22.2314 20.5575ZM4.60108 13.1094C4.66097 13.1479 4.71713 13.1839 4.75189 13.2066C4.7584 13.2109 4.76088 13.2125 4.76647 13.2162L4.60108 13.1094ZM4.77632 13.2206C4.76825 13.2097 4.65375 13.0606 4.53956 12.9108C4.57338 12.951 4.5982 12.988 4.62427 13.0221C4.70588 13.1279 4.75118 13.1879 4.7729 13.216C4.77477 13.2186 4.77415 13.2177 4.77694 13.2212L4.77632 13.2206Z" fill="#F9D814"/>
<path d="M22.3164 20.2499L22.211 20.2265L22.2108 20.2274L22.3164 20.2499ZM22.6761 16.8895L22.5682 16.895V16.895L22.6761 16.8895ZM21.9473 13.331L22.0487 13.2938L22.0487 13.2937L21.9473 13.331ZM15.1786 6.68644L15.2153 6.58485L15.2153 6.58484L15.1786 6.68644ZM9.63069 6.17457L9.64831 6.28113L9.64832 6.28113L9.63069 6.17457ZM4.41004 8.44168L4.34388 8.35631L4.34387 8.35632L4.41004 8.44168ZM1.89766 11.1481L1.98894 11.2058L1.98895 11.2058L1.89766 11.1481ZM1.75519 11.362L1.84781 11.4176L1.8483 11.4168L1.75519 11.362ZM3.10218 12.1599L3.15905 12.0681L3.15903 12.0681L3.10218 12.1599ZM4.32747 12.9322L4.2692 13.0231L4.41322 12.8665L4.32747 12.9322ZM3.96698 12.4449L4.05637 12.3842L4.05631 12.3842L3.96698 12.4449ZM3.47292 11.7557L3.56097 11.6932L3.56089 11.6931L3.47292 11.7557ZM2.97023 10.9848L3.0667 10.9363L3.06668 10.9362L2.97023 10.9848ZM3.3685 10.6966L3.41754 10.6003L3.41405 10.5987L3.3685 10.6966ZM3.73466 10.8941L3.68094 10.9878L3.68104 10.9879L3.73466 10.8941ZM4.12969 11.1292L4.07241 11.2208L4.07644 11.2231L4.12969 11.1292ZM5.18175 11.8083L5.24453 11.7204H5.24453L5.18175 11.8083ZM6.62425 12.9826L6.55058 13.0616L6.55062 13.0616L6.62425 12.9826ZM7.43752 13.7781L7.5142 13.702L7.5142 13.702L7.43752 13.7781ZM10.1836 17.4513L10.2785 17.3997L10.2785 17.3997L10.1836 17.4513ZM10.7839 18.4785L10.8761 18.4223L10.876 18.4221L10.7839 18.4785ZM11.0397 18.8897L10.9494 18.9489L10.9494 18.9489L11.0397 18.8897ZM11.2723 19.2308L11.1826 19.291L11.1827 19.291L11.2723 19.2308ZM11.5038 19.5257L11.5868 19.4565L11.5867 19.4565L11.5038 19.5257ZM12.499 20.3338L12.4464 20.4282L12.4471 20.4286L12.499 20.3338ZM12.5918 20.3695L12.6249 20.2667L12.6245 20.2665L12.5918 20.3695ZM12.7313 20.4105L12.7562 20.3054L12.7559 20.3053L12.7313 20.4105ZM13.0003 20.4723L13.0209 20.3662L13.0207 20.3662L13.0003 20.4723ZM14.1066 20.5907L14.1098 20.4828L14.1097 20.4828L14.1066 20.5907ZM15.6244 20.6029L15.6258 20.7108L15.6259 20.7108L15.6244 20.6029ZM16.575 20.578L16.5703 20.4701L16.5702 20.4701L16.575 20.578ZM19.2468 20.4914L19.2451 20.3834L19.245 20.3834L19.2468 20.4914ZM20.2282 20.4763L20.227 20.3683L20.2268 20.3683L20.2282 20.4763ZM21.2673 20.4984L21.2621 20.6063H21.2621L21.2673 20.4984ZM21.8515 20.5319L21.8588 20.4241L21.8587 20.4241L21.8515 20.5319ZM4.75189 13.2066L4.8118 13.1167L4.81086 13.1161L4.75189 13.2066ZM4.76647 13.2162L4.7079 13.3069L4.82638 13.1263L4.76647 13.2162ZM4.77632 13.2206L4.68952 13.2848L4.69556 13.293L4.70301 13.2999L4.77632 13.2206ZM4.53956 12.9108L4.62215 12.8413L4.45369 12.9763L4.53956 12.9108ZM4.62427 13.0221L4.53844 13.0877L4.53875 13.0881L4.62427 13.0221ZM4.7729 13.216L4.86054 13.1528L4.85836 13.1499L4.7729 13.216ZM4.77694 13.2212L4.70364 13.3005L4.8608 13.1531L4.77694 13.2212ZM22.2314 20.5575C22.3354 20.5868 22.3354 20.5868 22.3354 20.5868C22.3354 20.5868 22.3354 20.5868 22.3354 20.5868C22.3354 20.5868 22.3354 20.5868 22.3354 20.5868C22.3354 20.5868 22.3354 20.5867 22.3354 20.5866C22.3355 20.5865 22.3355 20.5863 22.3356 20.586C22.3357 20.5855 22.336 20.5847 22.3363 20.5836C22.3368 20.5816 22.3377 20.5785 22.3388 20.5746C22.341 20.5668 22.3441 20.5557 22.3479 20.5422C22.3555 20.5154 22.3656 20.4792 22.3759 20.4423C22.3956 20.3716 22.4184 20.2894 22.422 20.2724L22.2108 20.2274C22.2108 20.2274 22.2097 20.2317 22.2068 20.2427C22.2042 20.2525 22.2008 20.2653 22.1967 20.2802C22.1885 20.3099 22.1781 20.3474 22.1679 20.3842C22.1576 20.421 22.1475 20.457 22.14 20.4838C22.1362 20.4972 22.1331 20.5083 22.1309 20.5161C22.1298 20.52 22.1289 20.523 22.1284 20.5251C22.1281 20.5261 22.1278 20.5269 22.1277 20.5274C22.1276 20.5277 22.1276 20.5279 22.1275 20.528C22.1275 20.5281 22.1275 20.5281 22.1275 20.5282C22.1275 20.5282 22.1275 20.5282 22.1275 20.5282C22.1275 20.5282 22.1275 20.5282 22.1275 20.5282C22.1275 20.5282 22.1275 20.5282 22.2314 20.5575ZM22.4218 20.2733C22.6685 19.162 22.8432 18.0383 22.784 16.8839L22.5682 16.895C22.6261 18.0212 22.4559 19.1231 22.211 20.2265L22.4218 20.2733ZM22.784 16.8839C22.7224 15.683 22.4617 14.4196 22.0487 13.2938L21.8459 13.3682C22.2515 14.4739 22.5078 15.716 22.5682 16.895L22.784 16.8839ZM22.0487 13.2937C20.9119 10.1979 18.2986 7.69685 15.2153 6.58485L15.142 6.78803C18.1682 7.87945 20.7323 10.3352 21.8459 13.3682L22.0487 13.2937ZM15.2153 6.58484C13.4324 5.94186 11.4849 5.75818 9.61305 6.06802L9.64832 6.28113C11.4833 5.97738 13.3934 6.15743 15.142 6.78804L15.2153 6.58484ZM9.61306 6.06802C7.68681 6.38657 5.89564 7.15375 4.34388 8.35631L4.4762 8.52704C5.99887 7.34701 7.75649 6.59398 9.64831 6.28113L9.61306 6.06802ZM4.34387 8.35632C3.42361 9.06972 2.44082 10.0868 1.80638 11.0903L1.98895 11.2058C2.60759 10.2272 3.57188 9.22808 4.47621 8.52703L4.34387 8.35632ZM1.80639 11.0903C1.78081 11.1308 1.75071 11.1751 1.72397 11.2143C1.69903 11.2508 1.67354 11.2878 1.66208 11.3073L1.8483 11.4168C1.85492 11.4055 1.87396 11.3777 1.90238 11.3361C1.92899 11.2971 1.96109 11.2498 1.98894 11.2058L1.80639 11.0903ZM1.66259 11.3065C1.63636 11.3502 1.6504 11.3914 1.65551 11.4037C1.66157 11.4182 1.66939 11.4278 1.67217 11.4312C1.67861 11.4389 1.68476 11.4441 1.68626 11.4453C1.69063 11.449 1.69454 11.4517 1.69581 11.4525C1.69925 11.4549 1.70293 11.4572 1.70575 11.459C1.71187 11.4627 1.72029 11.4678 1.73026 11.4736C1.75046 11.4855 1.77992 11.5026 1.8169 11.5239C1.89114 11.5667 1.99683 11.6275 2.1235 11.7011C2.37684 11.8482 2.7132 12.0461 3.04532 12.2517L3.15903 12.0681C2.82441 11.8609 2.48607 11.6619 2.23199 11.5143C2.10496 11.4405 1.99877 11.3795 1.92485 11.3368C1.88775 11.3154 1.85907 11.2988 1.83979 11.2875C1.83003 11.2817 1.82338 11.2777 1.81945 11.2753C1.81723 11.2739 1.81714 11.2738 1.8181 11.2745C1.81812 11.2745 1.82112 11.2765 1.8249 11.2797C1.82611 11.2807 1.83204 11.2856 1.83835 11.2932C1.84107 11.2965 1.84885 11.3061 1.85488 11.3205C1.85998 11.3328 1.87401 11.3739 1.8478 11.4176L1.66259 11.3065ZM3.04531 12.2517C3.45387 12.5048 3.86328 12.763 4.2692 13.0231L4.38574 12.8412C3.97894 12.5806 3.56861 12.3218 3.15905 12.0681L3.04531 12.2517ZM4.41322 12.8665C4.38945 12.8355 4.14513 12.5151 4.05637 12.3842L3.87759 12.5055C3.9707 12.6428 4.21962 12.969 4.24172 12.9978L4.41322 12.8665ZM4.05631 12.3842C3.96021 12.2427 3.66237 11.8359 3.56097 11.6932L3.38488 11.8183C3.49125 11.968 3.78272 12.3658 3.87765 12.5056L4.05631 12.3842ZM3.56089 11.6931C3.50993 11.6215 3.40026 11.4602 3.29546 11.3012C3.18884 11.1395 3.09353 10.9896 3.0667 10.9363L2.87376 11.0334C2.90764 11.1007 3.01161 11.2631 3.11512 11.4201C3.22045 11.5799 3.33177 11.7437 3.38495 11.8184L3.56089 11.6931ZM3.06668 10.9362C3.02361 10.8507 3.01625 10.799 3.01882 10.773C3.0206 10.755 3.02592 10.7505 3.03558 10.7457C3.05218 10.7376 3.08636 10.731 3.14129 10.7382C3.19427 10.7452 3.25719 10.764 3.32295 10.7946L3.41405 10.5987C3.33249 10.5608 3.24834 10.5344 3.16952 10.5241C3.09263 10.5139 3.01025 10.5176 2.9405 10.5518C2.86382 10.5894 2.81302 10.6592 2.80387 10.7518C2.79551 10.8363 2.82242 10.9315 2.87379 11.0334L3.06668 10.9362ZM3.31949 10.7929C3.46369 10.8663 3.56115 10.9192 3.68094 10.9878L3.78838 10.8005C3.66532 10.7299 3.56472 10.6754 3.41751 10.6004L3.31949 10.7929ZM3.68104 10.9879C3.83235 11.0744 3.91088 11.1198 4.07246 11.2208L4.18691 11.0376C4.022 10.9345 3.94079 10.8876 3.78828 10.8004L3.68104 10.9879ZM4.12969 11.1292C4.07644 11.2231 4.07644 11.2231 4.07644 11.2231C4.07644 11.2231 4.07644 11.2231 4.07644 11.2231C4.07645 11.2231 4.07646 11.2231 4.07649 11.2232C4.07653 11.2232 4.0766 11.2232 4.07671 11.2233C4.07691 11.2234 4.07724 11.2236 4.07768 11.2238C4.07856 11.2243 4.0799 11.2251 4.0817 11.2261C4.08529 11.2282 4.0907 11.2313 4.09781 11.2354C4.11203 11.2436 4.13307 11.2559 4.16013 11.2718C4.21425 11.3038 4.29238 11.3506 4.38801 11.41C4.57936 11.5287 4.84033 11.6972 5.11897 11.8962L5.24453 11.7204C4.96112 11.518 4.69606 11.3469 4.50189 11.2264C4.40476 11.1661 4.32526 11.1185 4.26994 11.0858C4.24227 11.0695 4.22064 11.0569 4.20587 11.0484C4.19849 11.0441 4.19281 11.0408 4.18896 11.0386C4.18703 11.0375 4.18555 11.0367 4.18454 11.0361C4.18404 11.0358 4.18365 11.0356 4.18338 11.0355C4.18325 11.0354 4.18314 11.0353 4.18307 11.0353C4.18303 11.0353 4.183 11.0352 4.18298 11.0352C4.18296 11.0352 4.18295 11.0352 4.18295 11.0352C4.18294 11.0352 4.18293 11.0352 4.12969 11.1292ZM5.11897 11.8962C5.6206 12.2545 6.17981 12.7157 6.55058 13.0616L6.69793 12.9037C6.32019 12.5512 5.75368 12.0842 5.24453 11.7204L5.11897 11.8962ZM6.55062 13.0616C6.75533 13.2524 7.03324 13.5238 7.36084 13.8541L7.5142 13.702C7.18558 13.3707 6.90547 13.0971 6.69789 12.9036L6.55062 13.0616ZM7.36083 13.8541C8.26229 14.7631 9.36103 16.1635 10.0887 17.5028L10.2785 17.3997C9.53985 16.0402 8.42815 14.6236 7.5142 13.702L7.36083 13.8541ZM10.0887 17.5028C10.346 17.9765 10.5303 18.2712 10.6918 18.5349L10.876 18.4221C10.7143 18.158 10.5327 17.8677 10.2785 17.3997L10.0887 17.5028ZM10.6917 18.5347C10.7803 18.68 10.8627 18.8165 10.9494 18.9489L11.1301 18.8305C11.0457 18.7018 10.9656 18.569 10.8761 18.4223L10.6917 18.5347ZM10.9494 18.9489C11.0224 19.0602 11.1063 19.1772 11.1826 19.291L11.362 19.1706C11.2775 19.0447 11.205 18.9448 11.1301 18.8305L10.9494 18.9489ZM11.1827 19.291C11.2466 19.3862 11.3343 19.4912 11.421 19.5949L11.5867 19.4565C11.498 19.3502 11.4184 19.2545 11.362 19.1706L11.1827 19.291ZM11.4209 19.5949C11.6389 19.8562 11.9468 20.1501 12.4464 20.4282L12.5515 20.2395C12.0776 19.9757 11.7897 19.6998 11.5868 19.4565L11.4209 19.5949ZM12.4471 20.4286C12.4901 20.4521 12.5345 20.4646 12.5591 20.4724L12.6245 20.2665C12.5913 20.256 12.571 20.2501 12.5508 20.2391L12.4471 20.4286ZM12.5586 20.4722C12.6079 20.4881 12.6554 20.5036 12.7067 20.5156L12.7559 20.3053C12.7149 20.2957 12.6761 20.2832 12.6249 20.2667L12.5586 20.4722ZM12.7064 20.5156C12.7871 20.5347 12.8757 20.5583 12.9799 20.5783L13.0207 20.3662C12.9225 20.3474 12.8438 20.3262 12.7562 20.3054L12.7064 20.5156ZM12.9797 20.5783C13.2777 20.6363 13.6621 20.6861 14.1035 20.6987L14.1097 20.4828C13.6806 20.4705 13.3079 20.4221 13.0209 20.3662L12.9797 20.5783ZM14.1034 20.6987C14.6847 20.7157 15.1579 20.7171 15.6258 20.7108L15.623 20.4949C15.1578 20.5011 14.6877 20.4997 14.1098 20.4828L14.1034 20.6987ZM15.6259 20.7108C15.9354 20.7065 16.2435 20.7008 16.5798 20.6859L16.5702 20.4701C16.2373 20.4849 15.9318 20.4906 15.6229 20.4949L15.6259 20.7108ZM16.5797 20.6859C17.4831 20.6464 17.9313 20.6191 18.3041 20.6191V20.4031C17.925 20.4031 17.4677 20.4309 16.5703 20.4701L16.5797 20.6859ZM18.3041 20.6191C18.5295 20.6191 18.8173 20.6066 19.2486 20.5994L19.245 20.3834C18.8043 20.3908 18.5287 20.4031 18.3041 20.4031V20.6191ZM19.2486 20.5994C19.5906 20.5937 19.8869 20.5886 20.2296 20.5843L20.2268 20.3683C19.8836 20.3726 19.5868 20.3778 19.2451 20.3834L19.2486 20.5994ZM20.2294 20.5843C20.6267 20.5797 20.947 20.591 21.2621 20.6063L21.2726 20.3906C20.9551 20.3751 20.6301 20.3637 20.227 20.3683L20.2294 20.5843ZM21.2621 20.6063C21.4563 20.6157 21.6502 20.6267 21.8443 20.6397L21.8587 20.4241C21.6632 20.4111 21.468 20.4 21.2725 20.3906L21.2621 20.6063ZM21.8442 20.6396C21.9716 20.6483 22.098 20.6566 22.224 20.6653L22.2388 20.4498C22.1133 20.4412 21.985 20.4327 21.8588 20.4241L21.8442 20.6396ZM4.5427 13.2003C4.60287 13.239 4.65855 13.2746 4.69291 13.297L4.81086 13.1161C4.77571 13.0932 4.71906 13.0569 4.65946 13.0186L4.5427 13.2003ZM4.69198 13.2964C4.69561 13.2989 4.69816 13.3005 4.70038 13.302C4.70252 13.3034 4.70419 13.3045 4.70656 13.306L4.82638 13.1263C4.82316 13.1242 4.8208 13.1226 4.81867 13.1212C4.81662 13.1199 4.81467 13.1186 4.81179 13.1167L4.69198 13.2964ZM4.82503 13.1254L4.65964 13.0187L4.54251 13.2002L4.7079 13.3069L4.82503 13.1254ZM4.86312 13.1563C4.85445 13.1446 4.73867 12.9938 4.62543 12.8453L4.45369 12.9763C4.51084 13.0513 4.56807 13.1261 4.61198 13.1834C4.63395 13.2121 4.65256 13.2364 4.66619 13.2542C4.67301 13.2632 4.67855 13.2704 4.68262 13.2758C4.68466 13.2784 4.68629 13.2806 4.68752 13.2822C4.68814 13.283 4.68862 13.2837 4.68899 13.2841C4.68939 13.2847 4.68953 13.2849 4.68952 13.2848L4.86312 13.1563ZM4.45696 12.9804C4.48906 13.0185 4.50703 13.0465 4.53844 13.0877L4.7101 12.9566C4.68938 12.9294 4.6577 12.8835 4.62215 12.8413L4.45696 12.9804ZM4.53875 13.0881C4.61788 13.1907 4.66734 13.256 4.68745 13.282L4.85836 13.1499C4.83503 13.1198 4.79388 13.0652 4.70979 12.9562L4.53875 13.0881ZM4.68531 13.2792C4.68574 13.2798 4.68766 13.2825 4.68997 13.2854C4.69084 13.2865 4.6917 13.2875 4.69187 13.2877C4.6922 13.2881 4.69255 13.2886 4.69308 13.2892L4.8608 13.1531L4.8605 13.1528L4.68531 13.2792ZM4.85024 13.1418L4.84962 13.1413L4.70301 13.2999L4.70364 13.3005L4.85024 13.1418Z" fill="#F2E249"/>
<path fill-rule="evenodd" clip-rule="evenodd" d="M30.7805 22.4908C30.7805 22.4908 30.5881 22.4261 30.4675 22.4037C30.3468 22.381 30.2195 22.3556 30.0217 22.333C29.8239 22.3106 29.6124 22.2852 29.2289 22.2612C28.8458 22.2372 28.3131 22.2218 27.9985 22.2048C27.6842 22.1878 27.2441 22.1619 26.9071 22.1338C26.7322 22.119 26.5431 22.1009 26.3593 22.0826C26.1891 22.0656 26.0236 22.0451 25.8739 22.0235C25.6545 21.9919 25.5347 21.9706 25.4052 21.9369C25.3507 21.9226 25.2911 21.9077 25.2282 21.8861C25.0609 21.8308 24.8912 21.7577 24.7498 21.6525C24.7163 21.6274 24.6675 21.5953 24.6362 21.5677C24.6284 21.561 24.6578 21.5707 24.6734 21.5753C24.7417 21.5958 25.0175 21.6681 25.2571 21.7C26.641 21.8851 28.0358 21.8745 29.4227 22.0262C29.8506 22.0731 30.4407 22.15 30.7805 22.4908Z" fill="#BA0F2B" stroke="#BA0F2B" stroke-width="0.216"/>
<path fill-rule="evenodd" clip-rule="evenodd" d="M5.33502 10.7288C5.33502 10.7288 5.70388 10.8434 6.19254 11.1411C7.18982 11.7487 8.16337 12.4403 9.03869 13.2463C9.40674 13.5852 10.2346 14.4084 10.5603 14.7846C10.8857 15.1607 11.6436 16.0981 12.0254 16.7268C12.4072 17.3555 12.5869 17.6474 12.7947 17.9955C13.0025 18.3436 13.356 18.8657 13.5357 19.1015C13.7154 19.3374 14.0902 19.7346 14.4269 19.9367C14.5489 20.0098 14.4774 19.9828 14.3551 19.9631C14.132 19.9278 13.8624 19.8692 13.5243 19.6911C13.2156 19.5281 12.8846 19.2756 12.598 18.9332C12.4369 18.7405 12.0743 18.2745 11.812 17.8355C11.3223 17.0144 10.8347 16.1758 10.274 15.4019C10.111 15.1774 9.37598 14.2735 9.08942 13.9538C8.80286 13.6337 7.9556 12.7635 7.41648 12.3032C6.87736 11.8429 6.02416 11.1694 5.33502 10.7288Z" fill="#F7F9DC"/>
<path fill-rule="evenodd" clip-rule="evenodd" d="M3.11354 24.8661C3.11354 24.8661 2.93977 24.8815 2.81349 24.7577C2.68721 24.6341 2.21825 24.1389 1.89256 23.5904C1.34913 22.6751 0.88826 21.803 0.561768 20.7855C0.561768 20.7855 1.21313 20.4992 1.48242 20.3476C1.75198 20.1959 2.18425 19.8648 2.30783 19.7302C2.43141 19.5956 2.77949 19.18 2.87501 18.8935C2.97053 18.6072 3.09411 18.2256 3.05472 17.8212C3.01532 17.4172 2.94247 16.8781 2.71203 16.3897C2.48187 15.9013 2.20637 15.4264 2.14593 15.3053C2.08549 15.1841 2.64512 16.0675 2.78003 16.3573C2.91467 16.6469 3.05795 16.962 3.14214 17.2097C3.2266 17.4569 3.31915 17.8144 3.33021 18.0702C3.34154 18.3263 3.33857 18.5683 3.29945 18.7764C3.26032 18.9844 3.19557 19.2181 3.09438 19.4455C2.99319 19.6738 2.79109 19.9631 2.52153 20.2048C2.25197 20.4471 1.96542 20.6214 1.84777 20.6889C1.72959 20.7566 1.53882 20.8689 1.43493 20.9083C1.33105 20.9477 1.03909 21.0462 1.03909 21.0462C1.03909 21.0462 1.19074 21.5383 1.2582 21.7129C1.32565 21.8875 1.49403 22.3146 1.64594 22.6187C1.79758 22.9225 1.99402 23.3022 2.12327 23.5046C2.25251 23.7072 2.46865 24.0701 2.64269 24.2865C2.81619 24.5046 3.00992 24.7717 3.11354 24.8661Z" fill="#BA0F2B" stroke="#BA0F2B" stroke-width="0.216"/>
<path fill-rule="evenodd" clip-rule="evenodd" d="M4.13104 11.1292C4.0679 11.0863 3.58734 10.8027 3.38335 10.7037C3.08384 10.5582 2.77839 10.6041 2.97051 10.9848C3.03149 11.1055 3.36931 11.6092 3.4732 11.7557C3.57708 11.902 3.87201 12.3043 3.96726 12.4449C4.06277 12.5855 4.32964 12.9344 4.32964 12.9344L4.74598 13.2031C4.74598 13.2031 4.41274 12.7347 4.34394 12.6362C4.29887 12.5714 4.07654 12.2536 3.91545 12.0215C3.81993 11.8839 3.71712 11.7282 3.61567 11.5744C3.54174 11.4619 3.46079 11.3532 3.4222 11.2401C3.38469 11.1311 3.37498 11.041 3.41006 10.9897C3.45161 10.929 3.52231 10.9166 3.6073 10.9217C3.78728 10.9317 4.02392 11.0626 4.13104 11.1292Z" fill="#BA0F2B" stroke="#BA0F2B" stroke-width="0.216"/>
<path fill-rule="evenodd" clip-rule="evenodd" d="M0.707207 13.5465C0.707207 13.5465 0.567435 13.8131 0.314876 14.9024C-0.0960735 16.6744 -0.0693605 18.5785 0.433061 20.3365C0.578768 20.8473 0.561229 20.7828 0.561229 20.7828C0.561229 20.7828 0.836455 20.6619 0.880706 20.6417C0.924958 20.6211 1.19883 20.4924 1.24713 20.4692C1.54422 20.327 1.87368 20.1198 2.14701 19.8783C2.30243 19.7404 2.43033 19.5855 2.54771 19.4412C2.76114 19.1786 2.89039 18.8616 2.9252 18.7407C2.94274 18.68 2.9878 18.5222 3.02018 18.3716C3.05229 18.2205 3.05822 18.0748 3.06092 18.0276C3.06848 17.897 3.02773 17.5831 3.00965 17.4439C2.99158 17.3044 2.91009 16.908 2.85396 16.7521C2.83211 16.6908 2.79325 16.5718 2.74495 16.4607C2.66913 16.2869 2.57685 16.1131 2.54798 16.0556C2.5299 16.0195 2.4789 15.9137 2.41279 15.7928C2.30486 15.5967 2.17238 15.3573 2.13865 15.2931C2.08036 15.1828 1.7509 14.7475 1.69775 14.6744C1.64432 14.6013 1.19776 14.0697 1.11222 13.9712C1.02614 13.8725 0.751189 13.5859 0.707207 13.5465Z" fill="#F9D814" stroke="#F2E249" stroke-width="0.216"/>
</g>
<defs>
<clipPath id="clip0">
<rect width="32" height="32" fill="white"/>
</clipPath>
</defs>
</svg>
