<svg width="32" height="32" viewBox="0 0 32 32" fill="none" xmlns="http://www.w3.org/2000/svg">
<path d="M20.8046 16.5148C20.8046 22.2252 16.1754 26.8543 10.465 26.8543C4.75469 26.8543 0.125526 22.2252 0.125526 16.5148C0.125526 10.8045 4.75469 6.17529 10.465 6.17529C16.1754 6.17529 20.8046 10.8045 20.8046 16.5148Z" fill="#1E6D21"/>
<path d="M10.0632 9.76635C10.0632 10.736 9.26695 11.522 8.28476 11.522C7.30257 11.522 6.50635 10.736 6.50635 9.76635C6.50635 8.79676 7.30257 8.01074 8.28476 8.01074C9.26695 8.01074 10.0632 8.79676 10.0632 9.76635Z" fill="white"/>
<path d="M6.0866 11.3739C6.0866 12.1993 5.47031 12.8685 4.71007 12.8685C3.94984 12.8685 3.33355 12.1993 3.33355 11.3739C3.33355 10.5485 3.94984 9.87939 4.71007 9.87939C5.47031 9.87939 6.0866 10.5485 6.0866 11.3739Z" fill="white"/>
<path d="M3.53947 14.1662C3.53947 14.758 3.09762 15.2377 2.55258 15.2377C2.00753 15.2377 1.56569 14.758 1.56569 14.1662C1.56569 13.5745 2.00753 13.0947 2.55258 13.0947C3.09762 13.0947 3.53947 13.5745 3.53947 14.1662Z" fill="white"/>
<path d="M2.7947 16.5353C2.7947 17.0102 2.44008 17.3952 2.00263 17.3952C1.56518 17.3952 1.21056 17.0102 1.21056 16.5353C1.21056 16.0603 1.56518 15.6753 2.00263 15.6753C2.44008 15.6753 2.7947 16.0603 2.7947 16.5353Z" fill="white"/>
<path d="M2.64219 18.4385C2.64219 18.7966 2.37479 19.087 2.04493 19.087C1.71508 19.087 1.44768 18.7966 1.44768 18.4385C1.44768 18.0804 1.71508 17.79 2.04493 17.79C2.37479 17.79 2.64219 18.0804 2.64219 18.4385Z" fill="white"/>
<path d="M8.11554 12.3682C5.26291 12.4796 3.4175 14.2053 3.03907 17.6985C3.38361 20.9459 4.68559 20.8004 5.70422 20.8289C7.55296 20.894 9.04847 19.4883 8.95011 18.5065C8.96361 17.8233 8.34743 16.1878 8.47061 14.8466C8.44609 13.9562 9.29642 13.0482 8.11554 12.3682V12.3682Z" fill="white"/>
<path d="M9.89231 18.5867C9.45589 19.6518 8.6622 21.0777 7.73481 21.2519C7.39021 21.4741 7.18815 21.7845 7.1214 22.0345C6.76939 23.5761 7.18452 24.2032 8.27418 24.7102C9.43858 25.0228 12.1643 22.9548 12.2507 21.6644C12.3519 20.7407 12.2605 19.8277 11.5422 18.8406C11.2157 18.3061 10.2855 17.9808 9.86058 18.6185" fill="white"/>
<path d="M12.0666 12.8665C13.0161 12.9909 14.8217 11.9633 14.4707 14.5441L14.2664 24.5424L22.981 12.1896C24.5106 8.72651 26.9811 8.87363 29.0728 7.87464C30.8279 6.92228 31.2658 4.65279 31.611 2.29053C30.5733 3.62683 30.6543 5.55579 28.5651 6.09788C22.7065 6.95332 21.3184 10.4812 19.8505 12.6973L16.9987 16.8884L16.5508 12.6127C15.9324 10.5164 13.3822 11.4031 12.0666 12.8665Z" fill="#F4AA00"/>
<path d="M10.0529 29.3518C11.4241 29.4717 12.7876 29.5813 13.2237 28.4544L22.2576 14.5746C23.2542 12.9982 24.744 10.2796 25.6929 9.98379C25.7231 9.91896 26.4919 9.51357 27.0311 9.36822C27.0645 9.36247 28.2894 8.97656 28.2894 8.97656C28.3196 8.99239 30.0749 8.2928 31.3512 6.7373C31.1312 8.47489 30.9515 9.53308 28.4197 10.7868L26.8497 11.8183C22.8705 14.9511 19.5255 22.6911 15.7365 27.916L13.822 30.0697C11.0674 30.8677 10.857 29.9042 10.0529 29.3518H10.0529Z" fill="#F4AA00"/>
</svg>
