<svg width="32" height="32" viewBox="0 0 32 32" fill="none" xmlns="http://www.w3.org/2000/svg">
<path fill-rule="evenodd" clip-rule="evenodd" d="M12.5389 1.78204C10.4938 1.78204 8.83462 3.44118 8.83462 5.48726C8.83462 7.53238 10.4938 9.19152 12.5389 9.19152C14.585 9.19152 16.2441 7.53238 16.2441 5.48726C16.2441 3.44118 14.585 1.78204 12.5389 1.78204ZM12.5389 0C15.5691 0 18.0261 2.45702 18.0261 5.48726C18.0261 8.51653 15.5691 10.9736 12.5389 10.9736C9.50961 10.9736 7.05258 8.51653 7.05258 5.48726C7.05258 2.45702 9.50961 0 12.5389 0Z" fill="#FDDD04"/>
<path fill-rule="evenodd" clip-rule="evenodd" d="M17.8408 27.0044C17.3771 29.5565 15.1467 31.4912 12.4659 31.4912C9.44817 31.4912 7.00171 29.0409 7.00171 26.0193C7.00171 24.1998 7.88985 22.5868 9.25518 21.592L10.4602 22.8834C9.43089 23.545 8.74726 24.7029 8.74726 26.0193C8.74726 28.0759 10.4122 29.7428 12.4659 29.7428C14.3987 29.7428 15.9877 28.2651 16.1663 26.3755L17.8408 27.0044Z" fill="#00A650"/>
<path fill-rule="evenodd" clip-rule="evenodd" d="M10.7152 15.5214C9.84816 15.99 9.16741 16.8013 8.89185 17.8277C8.4233 19.5771 9.28551 21.3697 10.8573 22.1311C10.9619 22.1819 11.417 22.3884 11.5284 22.4287C10.9226 22.5507 10.0728 23.1037 9.71278 23.5176C7.62541 22.3049 6.53468 19.8133 7.1895 17.3716C7.5438 16.0466 8.33496 14.9876 9.38825 14.2751L9.43817 14.375L9.76367 14.785L10.2476 15.2641L10.7152 15.5214Z" fill="#ED1C24"/>
<path fill-rule="evenodd" clip-rule="evenodd" d="M15.1066 21.2195C14.5862 22.6021 14.9242 24.2228 16.0831 25.2771C17.5991 26.6578 19.9486 26.5474 21.3293 25.0313C21.7048 24.6203 21.9688 24.147 22.1253 23.6496L23.8708 23.9607C23.651 24.7749 23.24 25.5507 22.6332 26.218C20.5977 28.4542 17.1325 28.6165 14.8963 26.58C13.3831 25.2022 12.8195 23.1705 13.2449 21.3069L15.1066 21.2195Z" fill="#00ADEF"/>
<path fill-rule="evenodd" clip-rule="evenodd" d="M15.5473 10.0747L15.5396 10.0785L15.5427 10.0831C14.6843 10.6429 13.6579 10.9742 12.5557 10.9742C11.4544 10.9742 10.4194 10.6554 9.56003 10.0947C9.93929 9.57619 10.4731 9.147 11.0684 8.8868C11.5264 9.08843 12.0238 9.18733 12.5557 9.18733C13.0886 9.18733 13.5744 9.07979 14.0324 8.8772C14.6373 9.19789 15.1011 9.55602 15.5475 10.0745" fill="#111941"/>
<path fill-rule="evenodd" clip-rule="evenodd" d="M12.5558 6.81396C13.6484 6.81396 14.6662 7.13369 15.5207 7.68482C15.3805 7.94022 15.0099 8.27915 14.6479 8.53263C14.4165 8.6949 14.189 8.81204 14.0267 8.88021L14.019 8.8756C13.5697 8.68357 13.0762 8.57699 12.5558 8.57699C10.5049 8.57699 8.84095 10.24 8.84095 12.2918C8.84095 14.3417 10.5049 16.0057 12.5558 16.0057C14.4876 16.0057 16.0757 14.5299 16.2533 12.6442C16.7497 12.3869 17.4573 11.8559 18.0046 11.733C18.0238 11.9164 18.0334 12.1027 18.0334 12.2918C18.0334 15.3153 15.5802 17.7685 12.5558 17.7685C9.53129 17.7685 7.07907 15.3153 7.07907 12.2918C7.07907 9.26734 9.53129 6.81416 12.5558 6.81416" fill="#00ADEF"/>
<path fill-rule="evenodd" clip-rule="evenodd" d="M15.6336 14.3704C15.6344 14.3681 15.6624 14.3262 15.6644 14.3234C15.986 13.8318 16.1953 13.2605 16.2539 12.6441C16.397 12.5702 16.5304 12.4281 16.6994 12.3244C17.1171 12.069 17.6154 11.8203 18.0052 11.7329C18.0235 11.9163 18.033 12.1026 18.033 12.2908C18.0369 13.5246 17.6413 14.6719 16.8904 15.6398C16.5678 15.2192 16.1674 14.767 15.6336 14.3704" fill="#111941"/>
<path fill-rule="evenodd" clip-rule="evenodd" d="M22.3804 19.4845C21.1399 20.725 19.4539 21.2454 17.838 21.0476C17.7602 20.5445 17.7823 19.8109 17.9176 19.279C19.0545 19.4614 20.2585 19.1139 21.1342 18.2392C22.584 16.7874 22.584 14.436 21.1334 12.9852C19.6836 11.5354 17.3312 11.5354 15.8804 12.9852C15.5885 13.2781 15.3552 13.6074 15.1805 13.9588C15.1709 13.9799 15.1478 14.0308 15.1392 14.051L14.4066 13.6736L13.7124 13.4499L13.4945 13.4038C13.7595 12.7999 14.1397 12.2334 14.6342 11.7389C16.7734 9.60069 20.2414 9.60069 22.3807 11.7389C24.5189 13.8782 24.5189 17.3462 22.3807 19.4845" fill="#00A650"/>
<path fill-rule="evenodd" clip-rule="evenodd" d="M16.1947 18.7971C16.1994 17.1533 15.104 15.6468 13.441 15.2013C12.4876 14.9459 11.5236 15.0851 10.7181 15.5191C10.4588 15.377 9.85488 14.9882 9.40457 14.2575C10.6748 13.3962 12.0056 12.992 13.8971 13.498C15.7886 14.0059 17.6033 15.9128 17.9038 18.0203L16.1947 18.7971Z" fill="#ED1C24"/>
<path fill-rule="evenodd" clip-rule="evenodd" d="M21.9866 24.0197C22.5704 22.6688 22.2795 21.096 21.2108 19.9333C19.7639 18.4988 17.4192 18.4767 15.9655 19.9208C15.5959 20.326 15.2848 20.7743 15.1033 21.264L13.3751 20.8713C13.6343 20.0677 14.0837 19.312 14.7222 18.6745C15.8436 17.5559 17.4423 16.9789 18.9622 17.072C20.3457 17.1565 21.6669 17.82 22.4677 18.6745C24.1479 20.4671 24.3112 22.6486 23.8561 24.0197H21.9866V24.0197Z" fill="#111941"/>
<path fill-rule="evenodd" clip-rule="evenodd" d="M16.1019 25.2931C15.98 24.5566 15.6593 23.9575 15.1005 23.3901C14.1201 22.3925 12.7711 22.0602 11.5277 22.428L11.5171 22.4249C10.8854 22.181 10.2353 21.8536 9.7207 21.2756C10.0059 21.1028 10.316 20.9693 10.6213 20.8541C12.5407 20.134 14.8133 20.5718 16.3544 22.1378C17.4528 23.2545 18.002 24.7245 17.9578 26.1877C17.3606 26.0946 16.6981 25.8238 16.1019 25.2929" fill="#FDDD04"/>
</svg>
