<svg width="32" height="32" viewBox="0 0 32 32" fill="none" xmlns="http://www.w3.org/2000/svg">
<path fill-rule="evenodd" clip-rule="evenodd" d="M15.2211 27.0982C18.5222 25.8547 21.3918 23.7328 20.9838 20.1159C20.4141 15.0669 10.7566 11.2743 10.6628 7.38234C10.6089 5.2014 12.7283 4.59898 12.7283 4.59898C10.553 4.45087 7.16921 4.89281 5.90607 6.88651C3.07999 11.8843 16.4211 19.8173 16.4211 24.0262C16.4211 25.2419 16.1956 26.3361 15.2211 27.0982ZM9.76933 28.4855C9.76933 19.7182 3.43091 18.8755 3.43091 12.5826C3.43091 12.5826 3.50357 9.36407 5.5843 7.23383C2.86002 11.9877 16.1109 19.7182 16.1109 24.2753C16.1109 28.6903 9.76933 28.4855 9.76933 28.4855Z" fill="#CBCCCB"/>
<path fill-rule="evenodd" clip-rule="evenodd" d="M23.9875 5.99539C20.6696 5.99539 14.5767 4.69273 13.4341 4.70551C11.1538 4.73465 9.92979 7.51602 11.8728 9.63548C11.8728 9.63548 12.8489 8.54401 13.7831 8.22503C15.0805 7.77871 16.5848 7.88849 18.4567 7.99868C20.4081 8.11166 22.7627 8.22703 25.7002 7.71084C29.2808 7.08247 30.4844 5.68599 31.0717 4.30908C29.6353 5.49876 27.3066 5.99539 23.9875 5.99539ZM29.5866 6.58823C28.7666 7.1667 27.5741 7.64736 25.8323 7.95356C22.8941 8.46976 20.5419 8.35518 18.5897 8.241C16.7165 8.13122 15.2119 8.02223 13.9148 8.46856C12.9794 8.78634 12.0333 9.80355 12.0333 9.80355C12.0333 9.80355 14.4019 12.2795 15.8211 13.2516C16.7349 10.3154 22.5192 11.4719 24.8834 10.6267C27.8628 9.56322 29.1139 7.77352 29.5866 6.58823ZM29.5866 6.58823L29.5726 6.58304L29.5866 6.58823ZM25.0395 10.8228C22.4932 11.6388 18.9717 11.0168 17.0459 12.145C16.2435 12.6137 16.0159 13.4285 16.0159 13.4285C16.0159 13.4285 17.8252 14.8852 19.4979 16.7927C19.4979 16.344 19.6516 15.6254 20.2349 15.0425C21.2692 14.0077 26.9058 13.2903 27.9578 9.12887C27.1581 10.0439 25.489 10.6782 25.0395 10.8228Z" fill="#C2B496"/>
</svg>
