<svg width="32" height="32" viewBox="0 0 32 32" fill="none" xmlns="http://www.w3.org/2000/svg">
<path d="M18.0905 23.8938L21.2625 6.19287L0.28772 23.8938H18.0905Z" fill="#2F3A8D"/>
<path d="M18.8113 13.9244L18.9583 8.13721L18.4711 8.54824L18.3359 13.9747L17.6807 16.3823H17.6816C17.6807 16.3832 17.6797 16.3832 17.6788 16.3832L17.6808 16.3823L16.5567 14.3298L15.958 10.6694L15.5358 11.0259L16.0644 14.3298V16.9135L16.0789 16.9088C16.0699 16.9117 16.0617 16.9154 16.0531 16.9207L16.0644 16.9149L14.5147 15.098L13.1812 13.0129L12.8231 13.3153L14.0976 15.3095L14.7037 17.6303L14.7199 17.622C14.7082 17.6298 14.6974 17.6377 14.6871 17.6436L14.7037 17.6304L12.6338 16.2316L11.325 14.5789L10.9741 14.8747L12.2703 16.5118L13.4368 18.5979L11.0591 17.6455L9.31767 16.273L8.96703 16.5691L10.7601 17.9841L12.4047 19.7215L12.4207 19.7044C12.412 19.7152 12.4035 19.726 12.3956 19.7373L12.4046 19.7215L9.82531 19.276L7.1537 18.1005L6.77872 18.4163L9.60135 19.66L11.572 21.0455L11.5857 21.0242C11.5776 21.0404 11.5694 21.0573 11.561 21.0739L11.572 21.0455L9.03324 20.8697L5.12522 19.8118L4.71917 20.1553L8.88404 21.2816L11.0321 22.4332L8.51563 22.7295L2.10006 22.365L1.61826 22.7713L8.451 23.1602L10.7763 23.8084L19.5267 16.5597L18.8113 13.9244Z" fill="#F6B727"/>
<path d="M28.1488 23.8938L31.3203 6.19287L10.3455 23.8938H28.1488Z" fill="#E62E2F"/>
</svg>
