<svg width="32" height="32" viewBox="0 0 32 32" fill="none" xmlns="http://www.w3.org/2000/svg">
<path fill-rule="evenodd" clip-rule="evenodd" d="M0.955381 13.3902C1.03903 13.3289 1.13634 13.2855 1.24223 13.2929C1.70022 13.2929 2.15867 13.2933 2.61666 13.2933C2.93579 13.3088 3.27367 13.3156 3.55838 13.4794C3.74837 13.5819 3.88993 13.7663 3.94265 13.9752C4.0254 14.3259 3.95552 14.7238 3.70717 14.9941C3.44775 15.2724 3.07984 15.4195 2.71148 15.4842C2.36887 15.552 2.01812 15.4825 1.67369 15.5202C1.59817 15.5824 1.58666 15.6858 1.55877 15.7736C1.4679 16.145 1.36664 16.5138 1.26797 16.8831C1.2376 17.0052 1.20069 17.1446 1.26933 17.2617C1.39757 17.3947 1.60077 17.3775 1.76976 17.3968C1.75994 17.4422 1.75001 17.4882 1.74064 17.5335C1.16039 17.537 0.580137 17.5335 0 17.5358V17.4024C0.160303 17.3741 0.351988 17.3788 0.469054 17.2462C0.579347 17.1031 0.619197 16.9217 0.66932 16.7518C0.901758 15.8706 1.13341 14.9889 1.38041 14.112C1.42285 13.9554 1.47038 13.7895 1.43143 13.6278C1.3383 13.4571 1.11151 13.4678 0.955381 13.3902ZM2.09093 13.8181C1.98414 14.2072 1.88209 14.5979 1.77315 14.9859C1.74402 15.085 1.72732 15.1875 1.72122 15.2904C2.04803 15.3658 2.3937 15.3088 2.70211 15.1879C3.23077 14.9649 3.43318 14.2363 3.14543 13.7547C2.94866 13.5189 2.60469 13.4747 2.31784 13.5236C2.17549 13.5442 2.1274 13.7003 2.09093 13.8181ZM7.42652 14.6819C7.68165 14.6274 7.97968 14.6282 8.19112 14.8015C8.36994 14.94 8.39872 15.2414 8.23233 15.3988C8.08354 15.5391 7.81035 15.4674 7.75029 15.2728C7.74081 15.1167 7.86137 14.9937 7.90077 14.8487C7.54957 14.7698 7.19284 14.9448 6.96932 15.2119C6.688 15.5413 6.5242 15.9654 6.47317 16.3934C6.45048 16.6609 6.46674 16.9791 6.68078 17.1713C6.82878 17.3127 7.04959 17.2948 7.23608 17.269C7.54054 17.1978 7.78201 16.9821 7.99131 16.7608C8.02687 16.7951 8.06288 16.8295 8.09415 16.8681C7.79748 17.2522 7.36003 17.5683 6.86219 17.6017C6.5899 17.6121 6.30339 17.5087 6.13146 17.2905C6.02207 17.1626 5.97748 16.9975 5.92386 16.8419C5.91234 16.8376 5.88954 16.829 5.87847 16.8247C5.68374 17.0812 5.49375 17.357 5.21074 17.5246C5.10947 17.5898 4.98044 17.5945 4.86597 17.5701C4.77634 17.5297 4.73005 17.426 4.72441 17.332C4.70511 17.0653 4.80716 16.8115 4.88178 16.5601C4.66266 16.9002 4.4195 17.242 4.07643 17.4672C3.89546 17.5893 3.66269 17.6082 3.45418 17.5602C3.26769 17.4762 3.1618 17.2758 3.15017 17.0774C3.09486 16.3826 3.39717 15.6974 3.86036 15.1909C4.13264 14.8898 4.50789 14.6265 4.9328 14.6592C5.09627 14.666 5.21932 14.7792 5.31753 14.8988C5.34665 14.8363 5.35952 14.7629 5.40671 14.7106C5.55855 14.7045 5.71072 14.7114 5.86256 14.7097C5.70609 15.3007 5.51441 15.8818 5.36122 16.4735C5.30376 16.7072 5.21932 16.941 5.24031 17.1854C5.33514 17.1837 5.42816 17.1511 5.49285 17.0795C5.63915 16.9272 5.77292 16.7604 5.88446 16.5812C5.92171 16.4311 5.91573 16.2725 5.96201 16.1236C6.1537 15.4349 6.71758 14.8354 7.42652 14.6819ZM4.77329 14.8461C4.53961 14.8945 4.36125 15.0695 4.22781 15.2578C3.94356 15.6699 3.78269 16.1592 3.7136 16.6523C3.70299 16.829 3.66517 17.0666 3.84015 17.1777C3.9615 17.203 4.09878 17.1957 4.19993 17.1164C4.42333 16.9534 4.58973 16.726 4.7296 16.4902C4.92987 16.1536 5.09965 15.7895 5.16061 15.3993C5.17427 15.2522 5.19098 15.091 5.11851 14.9558C5.04603 14.847 4.8951 14.8127 4.77329 14.8461ZM8.52223 14.8011C8.82883 14.7796 9.12562 14.6913 9.43132 14.6647C9.42568 14.7436 9.42319 14.8239 9.3996 14.8997C9.22248 15.482 9.05517 16.0675 8.87467 16.6485C8.82319 16.8264 8.74518 17.013 8.80987 17.1987C8.88663 17.1892 8.97502 17.2038 9.04152 17.1554C9.20058 17.0383 9.31471 16.8745 9.43945 16.724C9.46349 16.7823 9.54884 16.8483 9.48144 16.9075C9.26368 17.1866 9.01702 17.4946 8.65814 17.5867C8.50507 17.637 8.30266 17.5688 8.25716 17.4024C8.21596 17.2059 8.25931 17.0035 8.31722 16.8153C8.44715 16.3791 8.56207 15.9388 8.68772 15.5018C8.72497 15.3603 8.79576 15.2157 8.75895 15.0665C8.67745 14.9319 8.50676 14.955 8.37378 14.9366C8.39951 14.8667 8.43767 14.7989 8.52223 14.8011ZM11.3345 13.0146C11.4931 12.9978 11.6612 12.9867 11.8161 13.0325C12.0515 13.141 12.2784 13.3367 12.3216 13.6055C12.3559 13.8293 12.1025 14.0434 11.8894 13.949C11.78 13.8881 11.666 13.783 11.6762 13.6462C11.6758 13.5373 11.7475 13.4476 11.7873 13.3512C11.6664 13.2766 11.5334 13.181 11.3834 13.2066C11.1527 13.2688 11.0356 13.4996 10.9511 13.7029C10.8225 14.0467 10.735 14.4061 10.6796 14.7689C10.9515 14.7641 11.2242 14.7822 11.4953 14.76C11.6943 14.7488 11.8829 14.6664 12.0841 14.6763C12.076 14.7749 12.0601 14.8723 12.0296 14.9666C11.8731 15.4786 11.7179 15.9911 11.5665 16.5049C11.5017 16.7265 11.4073 16.9496 11.4395 17.1858C11.5258 17.1863 11.6257 17.215 11.6994 17.1549C11.8452 17.0456 11.9649 16.9006 12.0527 16.7415C12.1338 16.4645 12.127 16.166 12.2393 15.8968C12.5009 15.2209 13.1489 14.663 13.8942 14.6501C14.1318 14.6399 14.3912 14.7398 14.5074 14.958C14.5374 15.1081 14.5581 15.3071 14.4131 15.4061C14.2677 15.5477 13.9392 15.4538 13.9508 15.2325C13.9491 15.0983 14.0515 14.9927 14.1001 14.874C13.7806 14.747 13.4392 14.9293 13.2149 15.154C12.8427 15.5683 12.6283 16.133 12.6694 16.6918C12.6789 16.8839 12.7534 17.0881 12.9143 17.2038C13.0575 17.3081 13.2471 17.29 13.4135 17.2737C13.7295 17.209 13.9683 16.9744 14.1931 16.7591C14.2257 16.8029 14.2582 16.8466 14.2909 16.8908C13.98 17.2159 13.6082 17.5573 13.1351 17.5825C12.9241 17.5962 12.6999 17.5876 12.5185 17.4663C12.3113 17.3539 12.2114 17.127 12.1299 16.9182C11.8975 17.1949 11.6505 17.5121 11.2766 17.5907C11.1376 17.6339 10.97 17.5628 10.9147 17.4269C10.8782 17.2295 10.9018 17.0233 10.9588 16.8316C11.0986 16.3338 11.2418 15.8372 11.3813 15.3393C11.4053 15.2286 11.4631 15.0893 11.3632 14.9984C11.12 14.9718 10.8739 14.9902 10.6299 14.9898C10.4069 16.0036 10.2662 17.0426 9.89744 18.0177C9.7692 18.3591 9.58395 18.7202 9.24043 18.8857C9.07538 18.9286 8.86225 18.9483 8.73954 18.803C8.59933 18.6833 8.57833 18.4127 8.7576 18.3188C8.86439 18.2755 9.01363 18.2892 9.06466 18.4089C9.07279 18.5208 9.05777 18.6327 9.05822 18.7451C9.13623 18.721 9.22801 18.7065 9.28039 18.637C9.42918 18.4496 9.4837 18.2094 9.53721 17.9817C9.72461 16.9839 9.91076 15.9859 10.0951 14.9872C9.99396 14.9872 9.89315 14.9872 9.79234 14.9863C9.80058 14.9177 9.8095 14.8492 9.81898 14.7809C9.92916 14.7698 10.0393 14.7574 10.1496 14.7462C10.2718 14.3628 10.3881 13.9683 10.6205 13.6342C10.7989 13.373 11.0275 13.1191 11.3345 13.0146ZM9.19674 13.3615C9.39745 13.2388 9.69718 13.4049 9.67618 13.6462C9.69503 13.8718 9.42658 14.0369 9.22936 13.9361C8.97457 13.865 8.96091 13.4683 9.19674 13.3615ZM19.1659 13.3975C18.9313 13.3765 18.7194 13.25 18.4831 13.2371C18.1796 13.2204 17.8668 13.2118 17.5736 13.3045C16.8639 13.5095 16.2481 14.003 15.8677 14.6339C15.5363 15.163 15.4007 15.8281 15.5623 16.4371C15.6622 16.8449 15.9385 17.2082 16.3081 17.408C16.7232 17.6379 17.2185 17.6639 17.6787 17.5893C18.2709 17.4765 18.7284 17.0421 19.0989 16.5927C19.1239 16.7591 19.1375 16.932 19.214 17.085C19.3301 17.3432 19.5805 17.528 19.8546 17.5864C20.2208 17.6682 20.602 17.5619 20.9206 17.378C21.4515 17.0564 21.8744 16.5233 21.988 15.9049C22.0494 15.567 21.9846 15.1875 21.7414 14.9324C21.5022 14.6909 21.1372 14.6111 20.8078 14.6557C20.4476 14.7114 20.1128 14.8911 19.849 15.1403C19.5977 15.368 19.3807 15.6407 19.2524 15.9568C19.1963 16.0872 19.1642 16.23 19.0796 16.3466C18.743 16.8166 18.2572 17.2125 17.6761 17.3187C17.3005 17.3981 16.8712 17.3149 16.5958 17.0345C16.3612 16.7798 16.267 16.4298 16.2396 16.0923C16.2031 15.4567 16.384 14.8044 16.7722 14.2963C17.0577 13.8872 17.4836 13.5575 17.9784 13.4559C18.2816 13.4095 18.6371 13.4185 18.8734 13.6411C19.0946 13.8705 19.1187 14.2127 19.1105 14.515C19.1602 14.5185 19.21 14.5219 19.2602 14.5253C19.3309 14.0884 19.457 13.6595 19.4978 13.2187C19.3799 13.2645 19.2906 13.3735 19.1659 13.3975ZM20.696 14.8774C20.8872 14.7929 21.1313 14.8075 21.2886 14.9541C21.4507 15.1472 21.4696 15.4173 21.4477 15.6587C21.3907 16.1128 21.2186 16.5538 20.948 16.9238C20.7761 17.158 20.5351 17.3758 20.2349 17.4093C20.0368 17.435 19.8211 17.3333 19.7466 17.1417C19.596 16.7643 19.7062 16.3479 19.8293 15.9791C19.9957 15.5413 20.2568 15.0859 20.696 14.8774ZM29.4602 14.8435C29.5837 14.8092 29.7001 14.8602 29.7696 14.9696C29.834 15.0879 29.8293 15.2281 29.8147 15.3582C29.7675 15.6982 29.6302 16.0177 29.4729 16.32C29.2992 16.6283 29.1062 16.947 28.8035 17.1451C28.683 17.2064 28.4901 17.233 28.4072 17.1005C28.3425 17.0083 28.3373 16.8861 28.3395 16.7772C28.3883 16.2749 28.5513 15.7835 28.8095 15.3499C28.951 15.1193 29.1827 14.8967 29.4602 14.8435ZM23.5259 14.8444C23.6978 14.7856 23.9182 14.9164 23.9143 15.1064C23.9448 15.3967 23.8607 15.6827 23.7496 15.9478C23.5979 16.3042 23.407 16.6497 23.1523 16.9435C23.0129 17.1026 22.8024 17.2386 22.5823 17.1802C22.4276 17.0713 22.434 16.859 22.452 16.6909C22.5112 16.2377 22.6579 15.7943 22.8851 15.3971C23.031 15.1536 23.2346 14.9079 23.5259 14.8444ZM30.9786 13.2233C30.9769 13.255 30.9695 13.322 30.9682 13.3534C31.0695 13.3662 31.1813 13.3598 31.2697 13.4211C31.3813 13.4786 31.3371 13.6218 31.3255 13.7204C31.114 14.5541 30.8739 15.3809 30.653 16.2124C30.6003 16.4006 30.5698 16.6065 30.4331 16.757C30.2975 16.9114 30.1766 17.1069 29.9742 17.1773C29.8481 17.2168 29.8687 17.0777 29.8815 16.9984C30.0051 16.3977 30.1899 15.8119 30.3649 15.2243C30.4189 15.0557 30.4755 14.8864 30.4883 14.7084C30.3331 14.7084 30.1775 14.7054 30.0231 14.7247C30.0042 14.7886 29.9875 14.853 29.969 14.9173C29.8932 14.8139 29.8087 14.6998 29.6731 14.6771C29.3863 14.6184 29.0899 14.7286 28.8511 14.8838C28.3485 15.2509 27.9918 15.8054 27.845 16.4088C27.8232 16.504 27.7958 16.6001 27.7318 16.6764C27.6079 16.8368 27.4938 17.0083 27.339 17.1413C27.2824 17.1992 27.1958 17.1828 27.1238 17.1944C27.0882 16.9127 27.1863 16.6408 27.2502 16.3706C27.3793 15.9011 27.5093 15.4319 27.6469 14.9649C27.8142 14.9658 27.9814 14.9644 28.1491 14.9649C28.1701 14.8941 28.1894 14.823 28.2074 14.7513C28.0371 14.75 27.8669 14.7522 27.6971 14.7467C27.7601 14.4811 27.8557 14.2252 27.9162 13.9592C27.8657 13.9597 27.8159 13.9602 27.7661 13.9609C27.544 14.3045 27.2733 14.663 26.8673 14.7938C26.6705 14.8726 26.462 14.7916 26.2678 14.7453C26.0087 14.6759 25.7227 14.5905 25.4633 14.7059C25.2163 14.8242 24.9962 15.0726 25.0207 15.3625C25.0448 15.7783 25.3518 16.0918 25.5817 16.4131C25.7249 16.622 25.8681 16.8903 25.7558 17.1446C25.6301 17.4479 25.1862 17.5173 24.9607 17.2887C24.7806 17.0988 24.7278 16.8269 24.7128 16.5739C24.6879 16.5653 24.6382 16.5472 24.6133 16.5383C24.4955 16.7604 24.3711 16.992 24.163 17.1429C24.1107 17.1785 24.0456 17.1764 23.9863 17.1845C23.9855 17.0953 23.9834 17.0052 24.0006 16.9174C24.1579 16.1742 24.4144 15.4576 24.6112 14.7252C24.4593 14.7088 24.3063 14.7016 24.1541 14.7123C24.1043 14.7617 24.0914 14.8345 24.061 14.895C23.9796 14.8135 23.9066 14.7102 23.7891 14.6814C23.525 14.612 23.2449 14.7012 23.0185 14.8388C22.7012 15.0447 22.4473 15.3401 22.2543 15.6631C22.0048 16.0854 21.8525 16.5799 21.8919 17.0734C21.9065 17.2824 22.0262 17.4937 22.2307 17.5671C22.4305 17.6048 22.6497 17.5859 22.8221 17.4698C23.1664 17.2484 23.407 16.9049 23.6223 16.5648C23.5383 16.8471 23.4255 17.1413 23.4885 17.4401C23.5588 17.6121 23.7789 17.61 23.9229 17.5413C24.1713 17.4186 24.3384 17.1892 24.522 16.9903C24.5177 17.1901 24.4727 17.3861 24.4624 17.585C24.5825 17.5577 24.6996 17.456 24.8269 17.5061C25.0756 17.5847 25.3407 17.6524 25.601 17.589C25.9475 17.5096 26.2567 17.2211 26.3042 16.8607C26.3322 16.5241 26.1473 16.2136 25.9491 15.9568C25.7699 15.7085 25.5238 15.4696 25.5023 15.1472C25.5023 14.8791 25.8381 14.756 26.053 14.8718C26.3382 14.9937 26.3874 15.3346 26.4402 15.6034C26.4775 15.6004 26.5153 15.5974 26.5533 15.5948C26.5821 15.3842 26.6164 15.1751 26.6567 14.9666C26.8051 14.9658 26.954 14.9644 27.1028 14.9649C27.0174 15.4674 26.8519 15.9538 26.7304 16.4487C26.6598 16.7626 26.5015 17.0748 26.5685 17.4033C26.6465 17.61 26.9175 17.6005 27.0877 17.5268C27.3755 17.3951 27.577 17.1374 27.7627 16.8908C27.7935 17.1404 27.8407 17.4598 28.1101 17.5623C28.2996 17.6035 28.5097 17.5919 28.6796 17.4899C29.0415 17.2891 29.2764 16.9337 29.5 16.5975C29.4566 16.8011 29.3863 16.9992 29.3622 17.2068C29.3477 17.3351 29.3807 17.48 29.4845 17.5649C29.6204 17.5992 29.7739 17.5876 29.8915 17.5049C30.1115 17.3633 30.2821 17.1583 30.4374 16.9504C30.4356 17.1245 30.373 17.3213 30.4789 17.477C30.5707 17.6017 30.7512 17.591 30.8847 17.553C31.2106 17.4135 31.449 17.1296 31.6522 16.8488C31.6266 16.823 31.5754 16.7715 31.5497 16.7458C31.4125 16.9053 31.295 17.1065 31.0866 17.1797C30.997 17.2137 30.9417 17.1048 30.9545 17.031C30.979 16.8213 31.0535 16.6223 31.1055 16.4187C31.3405 15.5373 31.5987 14.663 31.8315 13.7809C31.8889 13.5544 31.9704 13.3332 32 13.0999C31.6535 13.096 31.323 13.2002 30.9786 13.2233Z" fill="#292C5E"/>
</svg>
