<svg width="32" height="32" viewBox="0 0 32 32" fill="none" xmlns="http://www.w3.org/2000/svg">
<mask id="mask0" mask-type="alpha" maskUnits="userSpaceOnUse" x="0" y="13" width="32" height="6">
<path d="M29.1693 13.366C29.5587 13.1534 29.9597 13 30.4286 13C30.6937 13 30.9805 13.0492 31.299 13.1642C32.1807 13.4825 31.8396 13.416 31.9053 13.4438C31.971 13.4719 32.0372 13.5145 31.9742 13.6759C31.9117 13.8377 31.8642 14.1596 31.7994 14.2337C31.7355 14.3081 31.6441 14.2953 31.5636 14.1943C31.4839 14.0939 31.2687 13.7335 31.0189 13.6651C30.769 13.5974 30.4527 13.414 29.9462 13.6865C29.4406 13.959 29.8994 14.8686 30.0983 15.0399C30.2969 15.211 30.9406 16.1616 30.9965 16.4085C31.0526 16.6546 31.2205 17.3372 30.6913 17.7998C30.1618 18.262 29.7997 18.5316 28.7011 18.553C28.7011 18.553 28.3865 18.5449 28.242 18.5038C28.0978 18.4626 28.1098 18.4041 27.9661 18.407C27.8221 18.41 27.639 18.4282 27.5868 18.4144C27.5336 18.4009 27.4681 18.373 27.4932 18.2849C27.5178 18.197 27.6702 17.8879 27.6702 17.8879C27.6702 17.8879 27.7202 17.7554 27.8236 17.6804C27.927 17.6058 27.875 17.6213 28.0089 17.8084C28.1426 17.995 28.2876 18.0361 28.3794 18.0782C28.4717 18.12 28.9692 18.1397 29.1774 18.0622C29.3854 17.9858 29.5784 17.7631 29.5892 17.6021C29.5993 17.4421 29.6097 17.2375 29.1969 16.7935C28.7843 16.3489 28.3287 15.6725 28.3065 15.0894C28.2844 14.5062 28.5593 13.6988 29.1693 13.3663V13.366ZM20.6492 13.2279C20.9098 13.1206 21.1343 13.0866 21.3278 13.0866C21.5777 13.0866 21.7751 13.1435 21.9304 13.1733C22.2061 13.2267 22.4301 13.3532 22.5881 13.4089C22.7462 13.4638 22.7331 13.4645 22.8786 13.5492C23.0236 13.6336 22.9212 13.7958 22.9212 13.7958C22.9212 13.7958 22.8343 14.0892 22.7841 14.2214C22.7338 14.3541 22.7479 14.3972 22.6561 14.3846C22.6381 14.3822 22.6255 14.3831 22.6154 14.3836C22.5711 14.3861 22.5706 14.389 22.4298 14.1554C22.2551 13.8672 21.9639 13.6395 21.3623 13.6513C20.7607 13.6629 20.6883 14.0727 20.706 14.3935C20.7247 14.714 21.2057 15.3461 21.4595 15.6914C21.7138 16.0366 21.9826 16.4833 22.0397 16.8181C22.0975 17.1524 21.9855 17.5337 21.7418 17.8593C21.4986 18.1847 20.9007 18.4444 20.6662 18.522C20.4321 18.5993 19.779 18.6559 19.6084 18.645C19.4383 18.6335 19.1358 18.5372 19.0438 18.5097C18.9911 18.4942 18.8714 18.4988 18.756 18.5038C18.6689 18.5072 18.5844 18.5106 18.5335 18.5052C18.4151 18.4929 18.4776 18.2731 18.4776 18.2731L18.6802 17.8606L16.823 17.8965C16.7306 17.8694 16.7816 17.7515 16.8582 17.6336C16.935 17.5152 16.8926 17.3412 16.8926 17.3412L16.5446 15.991L15.2623 16.0164C15.2623 16.0164 14.3058 17.5807 14.2418 17.6843C14.1778 17.7877 14.2172 17.7872 14.2172 17.7872C14.3631 17.9157 14.1674 17.9339 14.1674 17.9339L13.4086 17.9487C13.3034 17.9216 13.3667 17.8034 13.4447 17.7436C13.5223 17.6838 13.6111 17.5068 13.6111 17.5068L16.1625 13.3439C16.1625 13.3439 17.6013 13.3013 17.6801 13.3148C17.7591 13.3274 17.7608 13.4588 17.7229 13.5324C17.6847 13.6063 17.7116 13.6494 17.7116 13.6494C17.7116 13.6494 18.581 17.381 18.6216 17.4677C18.6625 17.5543 18.6233 17.5696 18.7417 17.6114C18.8604 17.653 18.8222 17.7409 18.8222 17.7409C18.8862 17.6523 19.0487 17.9846 19.1018 18.0565C19.1553 18.1286 19.3788 18.1678 19.5363 18.2089C19.6941 18.2495 20.0207 18.2281 20.3314 18.0326C20.6428 17.8367 20.599 17.5602 20.4769 17.2855C20.355 17.0108 19.7305 16.3959 19.5555 16.0932C19.3807 15.7902 19.0932 14.9934 19.4354 14.2721C19.7775 13.5509 20.0508 13.4724 20.6489 13.2279H20.6492ZM16.1815 14.5545L15.5944 15.4847L16.4052 15.4687L16.1812 14.5545H16.1815ZM10.948 13.7372C11.585 13.3803 12.0737 13.2343 12.6113 13.2343C12.643 13.2343 12.6748 13.2348 12.7068 13.2358C13.283 13.2543 13.4925 13.2644 13.7423 13.3473C13.9919 13.4298 14.0714 13.4719 14.2024 13.4839C14.23 13.4866 14.259 13.4854 14.2868 13.4839C14.389 13.4788 14.4729 13.4736 14.4148 13.6695C14.34 13.9189 14.1212 14.1569 14.0559 14.1577C13.9907 14.1591 14.0038 14.1879 13.924 14.1023C13.8445 14.0161 13.6168 13.7141 13.4071 13.6745C13.1971 13.6351 12.7127 13.6299 12.388 13.782C12.0633 13.9342 11.5986 14.3221 11.3172 14.7504C11.0361 15.1794 10.7575 15.7535 10.6846 16.1343C10.612 16.5146 10.5153 17.0126 10.7023 17.2567C10.8894 17.5012 11.2033 17.4955 11.3335 17.4635C11.4639 17.4315 11.9306 17.1455 12.1094 16.8651C12.2883 16.5845 12.4515 16.1729 12.4899 16.0843C12.5273 15.9964 12.5133 15.9233 12.4599 15.8665C12.4067 15.8089 12.3274 15.7522 12.3265 15.6942C12.3252 15.6356 12.3634 15.5472 12.3634 15.5472L14.0508 15.5147C14.0508 15.5147 14.2228 15.642 14.0557 15.8207C14.0557 15.8207 13.8748 15.9556 13.8241 16.0585C13.7731 16.1616 13.5732 16.7925 13.5491 16.8806C13.524 16.9687 13.4154 17.5541 13.2488 17.7618C13.0822 17.9691 13.1078 17.9686 13.1078 17.9686L12.1138 17.9883C12.1138 17.9883 12.1625 17.7537 11.9159 17.8751C11.6692 17.9964 11.2399 18.1798 10.9913 18.1847C10.7432 18.1897 10.1913 18.04 9.99293 17.913C9.79453 17.785 9.476 17.4852 9.35292 17.1666C9.22985 16.8479 9.18136 16.2219 9.48462 15.545C9.78837 14.8683 10.2738 14.1148 10.948 13.7372ZM26.6118 13.351L28.3841 13.3166C28.3841 13.3166 28.6319 13.3394 28.4751 13.5775C28.4751 13.5775 27.5292 15.7239 27.4327 15.9056C27.3362 16.0873 26.87 17.1881 26.2681 17.5317C25.6658 17.8748 25.172 18.0959 24.5795 18.1582C23.9358 18.2266 23.2158 18.1572 22.6991 17.6422C22.183 17.1273 22.4894 16.1124 22.6327 15.7365C22.7754 15.3606 23.3827 13.8012 23.3827 13.8012C23.3827 13.8012 23.4319 13.7446 23.3933 13.6762C23.3551 13.608 23.3276 13.429 23.4511 13.399C23.5747 13.3687 23.649 13.3951 23.649 13.3951L25.3224 13.3626C25.3224 13.3626 25.5833 13.4126 25.3271 13.6526C25.3271 13.6526 25.2643 13.6265 25.1464 13.9873C25.028 14.3492 24.0609 16.7312 24.0609 16.7312C24.0609 16.7312 23.8479 17.3712 24.1478 17.5174C24.4224 17.6552 24.7568 17.5655 24.9256 17.3087C25.0826 17.0709 26.6118 13.351 26.6118 13.351ZM6.54776 13.4999C6.54776 13.4999 9.18849 13.4354 9.7256 13.4354C9.76252 13.4354 9.7896 13.4357 9.80511 13.4362C10.0454 13.4465 9.92868 13.6577 9.92868 13.6577C9.92868 13.6577 9.85089 13.8076 9.78591 13.9282C9.72093 14.0481 9.58579 13.9317 9.58579 13.9317C9.50456 13.8438 9.46468 13.8746 9.46468 13.8746L8.14332 13.9002L7.52597 15.4155C7.52597 15.4155 8.59403 15.3946 8.71416 15.3929C8.83428 15.3902 8.8584 15.2407 8.8584 15.2407C9.09668 15.0874 9.03563 15.4608 8.98566 15.7001C8.93643 15.9388 8.84437 16.0449 8.75083 16.0466C8.65729 16.0486 8.62899 15.93 8.61397 15.8411C8.5992 15.752 8.51896 15.7385 8.51896 15.7385L7.38443 15.7609L6.62456 17.5319C6.62456 17.5319 8.72056 17.5058 8.7336 17.4908C8.78357 17.433 8.85053 17.3099 8.85053 17.3099C9.12917 17.1854 9.07945 17.3946 9.05631 17.6334C9.03317 17.8721 8.77003 18.1006 8.77003 18.1006L4.69865 18.1796C4.55194 18.182 4.58985 18.0622 4.58985 18.0622C4.58985 18.0622 6.23834 14.1754 6.31539 13.9952C6.39292 13.815 6.21889 13.8039 6.13816 13.7456C6.05692 13.6878 6.22751 13.5058 6.22751 13.5058L6.548 13.4999H6.54776ZM1.49619 13.5214L5.10603 13.4512C5.10603 13.4512 5.66037 13.6306 5.73619 14.3024C5.81249 14.9744 5.46886 15.654 4.94776 15.928C4.42665 16.2015 4.08646 16.2665 3.69237 16.2741L2.55071 16.2962L1.94345 17.7719C1.94345 17.7719 2.19699 18.0009 1.93606 18.1087L0.0456012 18.1456C0.0456012 18.1456 -0.0339065 18.1033 0.0170473 17.9996C0.0680012 17.896 1.62369 14.1193 1.62369 14.1193C1.62369 14.1193 1.7928 13.9986 1.63305 13.8559C1.63305 13.8559 1.44745 13.7569 1.43416 13.7424C1.36622 13.669 1.49619 13.5214 1.49619 13.5214ZM2.77791 15.7215C2.77791 15.7215 2.83452 15.7289 2.92068 15.7289C3.06148 15.7289 3.28129 15.7092 3.45926 15.6055C3.62591 15.5086 3.90012 15.275 4.0008 14.9951C4.07711 14.7824 4.1768 14.4791 4.02862 14.2478C3.91416 14.069 3.85434 14.0174 3.64363 13.9772C3.53926 13.9575 3.47305 13.9804 3.47305 13.9804L2.77791 15.7215Z" fill="white"/>
</mask>
<g mask="url(#mask0)">
<path d="M29.1693 13.366C29.5587 13.1534 29.9597 13 30.4286 13C30.6937 13 30.9805 13.0492 31.299 13.1642C32.1807 13.4825 31.8396 13.416 31.9053 13.4438C31.971 13.4719 32.0372 13.5145 31.9742 13.6759C31.9117 13.8377 31.8642 14.1596 31.7994 14.2337C31.7355 14.3081 31.6441 14.2953 31.5636 14.1943C31.4839 14.0939 31.2687 13.7335 31.0189 13.6651C30.769 13.5974 30.4527 13.414 29.9462 13.6865C29.4406 13.959 29.8994 14.8686 30.0983 15.0399C30.2969 15.211 30.9406 16.1616 30.9965 16.4085C31.0526 16.6546 31.2205 17.3372 30.6913 17.7998C30.1618 18.262 29.7997 18.5316 28.7011 18.553C28.7011 18.553 28.3865 18.5449 28.242 18.5038C28.0978 18.4626 28.1098 18.4041 27.9661 18.407C27.8221 18.41 27.639 18.4282 27.5868 18.4144C27.5336 18.4009 27.4681 18.373 27.4932 18.2849C27.5178 18.197 27.6702 17.8879 27.6702 17.8879C27.6702 17.8879 27.7202 17.7554 27.8236 17.6804C27.927 17.6058 27.875 17.6213 28.0089 17.8084C28.1426 17.995 28.2876 18.0361 28.3794 18.0782C28.4717 18.12 28.9692 18.1397 29.1774 18.0622C29.3854 17.9858 29.5784 17.7631 29.5892 17.6021C29.5993 17.4421 29.6097 17.2375 29.1969 16.7935C28.7843 16.3489 28.3287 15.6725 28.3065 15.0894C28.2844 14.5062 28.5593 13.6988 29.1693 13.3663V13.366ZM20.6492 13.2279C20.9098 13.1206 21.1343 13.0866 21.3278 13.0866C21.5777 13.0866 21.7751 13.1435 21.9304 13.1733C22.2061 13.2267 22.4301 13.3532 22.5881 13.4089C22.7462 13.4638 22.7331 13.4645 22.8786 13.5492C23.0236 13.6336 22.9212 13.7958 22.9212 13.7958C22.9212 13.7958 22.8343 14.0892 22.7841 14.2214C22.7338 14.3541 22.7479 14.3972 22.6561 14.3846C22.6381 14.3822 22.6255 14.3831 22.6154 14.3836C22.5711 14.3861 22.5706 14.389 22.4298 14.1554C22.2551 13.8672 21.9639 13.6395 21.3623 13.6513C20.7607 13.6629 20.6883 14.0727 20.706 14.3935C20.7247 14.714 21.2057 15.3461 21.4595 15.6914C21.7138 16.0366 21.9826 16.4833 22.0397 16.8181C22.0975 17.1524 21.9855 17.5337 21.7418 17.8593C21.4986 18.1847 20.9007 18.4444 20.6662 18.522C20.4321 18.5993 19.779 18.6559 19.6084 18.645C19.4383 18.6335 19.1358 18.5372 19.0438 18.5097C18.9911 18.4942 18.8714 18.4988 18.756 18.5038C18.6689 18.5072 18.5844 18.5106 18.5335 18.5052C18.4151 18.4929 18.4776 18.2731 18.4776 18.2731L18.6802 17.8606L16.823 17.8965C16.7306 17.8694 16.7816 17.7515 16.8582 17.6336C16.935 17.5152 16.8926 17.3412 16.8926 17.3412L16.5446 15.991L15.2623 16.0164C15.2623 16.0164 14.3058 17.5807 14.2418 17.6843C14.1778 17.7877 14.2172 17.7872 14.2172 17.7872C14.3631 17.9157 14.1674 17.9339 14.1674 17.9339L13.4086 17.9487C13.3034 17.9216 13.3667 17.8034 13.4447 17.7436C13.5223 17.6838 13.6111 17.5068 13.6111 17.5068L16.1625 13.3439C16.1625 13.3439 17.6013 13.3013 17.6801 13.3148C17.7591 13.3274 17.7608 13.4588 17.7229 13.5324C17.6847 13.6063 17.7116 13.6494 17.7116 13.6494C17.7116 13.6494 18.581 17.381 18.6216 17.4677C18.6625 17.5543 18.6233 17.5696 18.7417 17.6114C18.8604 17.653 18.8222 17.7409 18.8222 17.7409C18.8862 17.6523 19.0487 17.9846 19.1018 18.0565C19.1553 18.1286 19.3788 18.1678 19.5363 18.2089C19.6941 18.2495 20.0207 18.2281 20.3314 18.0326C20.6428 17.8367 20.599 17.5602 20.4769 17.2855C20.355 17.0108 19.7305 16.3959 19.5555 16.0932C19.3807 15.7902 19.0932 14.9934 19.4354 14.2721C19.7775 13.5509 20.0508 13.4724 20.6489 13.2279H20.6492ZM16.1815 14.5545L15.5944 15.4847L16.4052 15.4687L16.1812 14.5545H16.1815ZM10.948 13.7372C11.585 13.3803 12.0737 13.2343 12.6113 13.2343C12.643 13.2343 12.6748 13.2348 12.7068 13.2358C13.283 13.2543 13.4925 13.2644 13.7423 13.3473C13.9919 13.4298 14.0714 13.4719 14.2024 13.4839C14.23 13.4866 14.259 13.4854 14.2868 13.4839C14.389 13.4788 14.4729 13.4736 14.4148 13.6695C14.34 13.9189 14.1212 14.1569 14.0559 14.1577C13.9907 14.1591 14.0038 14.1879 13.924 14.1023C13.8445 14.0161 13.6168 13.7141 13.4071 13.6745C13.1971 13.6351 12.7127 13.6299 12.388 13.782C12.0633 13.9342 11.5986 14.3221 11.3172 14.7504C11.0361 15.1794 10.7575 15.7535 10.6846 16.1343C10.612 16.5146 10.5153 17.0126 10.7023 17.2567C10.8894 17.5012 11.2033 17.4955 11.3335 17.4635C11.4639 17.4315 11.9306 17.1455 12.1094 16.8651C12.2883 16.5845 12.4515 16.1729 12.4899 16.0843C12.5273 15.9964 12.5133 15.9233 12.4599 15.8665C12.4067 15.8089 12.3274 15.7522 12.3265 15.6942C12.3252 15.6356 12.3634 15.5472 12.3634 15.5472L14.0508 15.5147C14.0508 15.5147 14.2228 15.642 14.0557 15.8207C14.0557 15.8207 13.8748 15.9556 13.8241 16.0585C13.7731 16.1616 13.5732 16.7925 13.5491 16.8806C13.524 16.9687 13.4154 17.5541 13.2488 17.7618C13.0822 17.9691 13.1078 17.9686 13.1078 17.9686L12.1138 17.9883C12.1138 17.9883 12.1625 17.7537 11.9159 17.8751C11.6692 17.9964 11.2399 18.1798 10.9913 18.1847C10.7432 18.1897 10.1913 18.04 9.99293 17.913C9.79453 17.785 9.476 17.4852 9.35292 17.1666C9.22985 16.8479 9.18136 16.2219 9.48462 15.545C9.78837 14.8683 10.2738 14.1148 10.948 13.7372ZM26.6118 13.351L28.3841 13.3166C28.3841 13.3166 28.6319 13.3394 28.4751 13.5775C28.4751 13.5775 27.5292 15.7239 27.4327 15.9056C27.3362 16.0873 26.87 17.1881 26.2681 17.5317C25.6658 17.8748 25.172 18.0959 24.5795 18.1582C23.9358 18.2266 23.2158 18.1572 22.6991 17.6422C22.183 17.1273 22.4894 16.1124 22.6327 15.7365C22.7754 15.3606 23.3827 13.8012 23.3827 13.8012C23.3827 13.8012 23.4319 13.7446 23.3933 13.6762C23.3551 13.608 23.3276 13.429 23.4511 13.399C23.5747 13.3687 23.649 13.3951 23.649 13.3951L25.3224 13.3626C25.3224 13.3626 25.5833 13.4126 25.3271 13.6526C25.3271 13.6526 25.2643 13.6265 25.1464 13.9873C25.028 14.3492 24.0609 16.7312 24.0609 16.7312C24.0609 16.7312 23.8479 17.3712 24.1478 17.5174C24.4224 17.6552 24.7568 17.5655 24.9256 17.3087C25.0826 17.0709 26.6118 13.351 26.6118 13.351ZM6.54776 13.4999C6.54776 13.4999 9.18849 13.4354 9.7256 13.4354C9.76252 13.4354 9.7896 13.4357 9.80511 13.4362C10.0454 13.4465 9.92868 13.6577 9.92868 13.6577C9.92868 13.6577 9.85089 13.8076 9.78591 13.9282C9.72093 14.0481 9.58579 13.9317 9.58579 13.9317C9.50456 13.8438 9.46468 13.8746 9.46468 13.8746L8.14332 13.9002L7.52597 15.4155C7.52597 15.4155 8.59403 15.3946 8.71416 15.3929C8.83428 15.3902 8.8584 15.2407 8.8584 15.2407C9.09668 15.0874 9.03563 15.4608 8.98566 15.7001C8.93643 15.9388 8.84437 16.0449 8.75083 16.0466C8.65729 16.0486 8.62899 15.93 8.61397 15.8411C8.5992 15.752 8.51896 15.7385 8.51896 15.7385L7.38443 15.7609L6.62456 17.5319C6.62456 17.5319 8.72056 17.5058 8.7336 17.4908C8.78357 17.433 8.85053 17.3099 8.85053 17.3099C9.12917 17.1854 9.07945 17.3946 9.05631 17.6334C9.03317 17.8721 8.77003 18.1006 8.77003 18.1006L4.69865 18.1796C4.55194 18.182 4.58985 18.0622 4.58985 18.0622C4.58985 18.0622 6.23834 14.1754 6.31539 13.9952C6.39292 13.815 6.21889 13.8039 6.13816 13.7456C6.05692 13.6878 6.22751 13.5058 6.22751 13.5058L6.548 13.4999H6.54776ZM1.49619 13.5214L5.10603 13.4512C5.10603 13.4512 5.66037 13.6306 5.73619 14.3024C5.81249 14.9744 5.46886 15.654 4.94776 15.928C4.42665 16.2015 4.08646 16.2665 3.69237 16.2741L2.55071 16.2962L1.94345 17.7719C1.94345 17.7719 2.19699 18.0009 1.93606 18.1087L0.0456012 18.1456C0.0456012 18.1456 -0.0339065 18.1033 0.0170473 17.9996C0.0680012 17.896 1.62369 14.1193 1.62369 14.1193C1.62369 14.1193 1.7928 13.9986 1.63305 13.8559C1.63305 13.8559 1.44745 13.7569 1.43416 13.7424C1.36622 13.669 1.49619 13.5214 1.49619 13.5214ZM2.77791 15.7215C2.77791 15.7215 2.83452 15.7289 2.92068 15.7289C3.06148 15.7289 3.28129 15.7092 3.45926 15.6055C3.62591 15.5086 3.90012 15.275 4.0008 14.9951C4.07711 14.7824 4.1768 14.4791 4.02862 14.2478C3.91416 14.069 3.85434 14.0174 3.64363 13.9772C3.53926 13.9575 3.47305 13.9804 3.47305 13.9804L2.77791 15.7215Z" fill="#DC2C2B"/>
</g>
</svg>
