<svg width="32" height="32" viewBox="0 0 32 32" fill="none" xmlns="http://www.w3.org/2000/svg">
<path d="M20.7433 3.23516C21.7353 2.98906 22.7439 3.31031 23.7463 3.25378C23.9648 3.36339 24.0096 3.64672 23.8504 3.82527C23.2306 4.30163 22.7184 4.90552 22.0993 5.38119C22.0207 5.55216 21.9291 5.72726 21.9304 5.92029C21.9628 6.73789 21.9394 7.55756 21.947 8.37585C21.9339 8.79499 21.9918 9.22309 21.8767 9.63327C21.8257 9.90902 21.6506 10.1351 21.4782 10.3468C21.1597 10.739 20.8192 11.1237 20.4076 11.4215C20.258 11.5339 20.0698 11.5284 19.9395 11.3919C20.0105 10.9555 20.2518 10.5543 20.2422 10.1034C20.1946 9.09142 20.2635 8.07597 20.2042 7.06465C20.2194 6.73858 20.3332 6.40699 20.5606 6.16846C20.9956 5.73553 21.4327 5.30467 21.8601 4.86416C21.8456 4.82211 21.8181 4.73869 21.8036 4.69664C21.1639 4.63942 20.5076 4.57807 19.8809 4.76144C19.6327 4.84762 19.4225 5.0241 19.1674 5.0889C18.9275 5.16059 18.7821 4.79729 18.9523 4.6477C19.2956 4.30232 19.6458 3.96039 20.0347 3.66534C20.2484 3.48885 20.4634 3.29583 20.7433 3.23516Z" fill="#01402B"/>
<path d="M14.0067 3.35992C14.1543 3.22549 14.4362 3.14277 14.5686 3.33717C14.6313 3.52192 14.541 3.70805 14.448 3.86385C14.2832 4.14098 14.1701 4.46499 14.2032 4.79106C14.217 5.32188 14.8602 5.68036 15.3331 5.50526C15.8557 5.20331 16.2714 4.75039 16.6629 4.29816C16.818 4.11341 17.0848 3.99346 17.3199 4.09273C17.8287 4.29127 18.243 4.68697 18.5332 5.14265C18.9778 5.86649 19.2736 6.69512 19.306 7.54926C19.3232 8.0856 19.2012 8.63641 18.8965 9.08381C18.5559 9.5388 18.0775 9.86557 17.7128 10.2978C17.6129 10.4019 17.6625 10.5398 17.6991 10.659C17.9638 10.7845 18.2278 10.9169 18.5125 10.992C18.4836 11.0341 18.4567 11.0768 18.4305 11.1202C18.4911 11.1058 18.5456 11.0782 18.5946 11.0389C19.5769 11.4456 20.5786 11.8586 21.412 12.5341C22.0442 13.016 22.4944 13.7764 22.4888 14.5843C22.4523 15.4805 22.191 16.3733 21.7023 17.1281C21.1397 18.0567 20.2828 18.7668 19.3729 19.339C17.6301 20.3889 15.6475 20.9721 13.6538 21.3168C12.6632 21.4912 11.6594 21.5629 10.6564 21.6277C10.8859 22.2261 11.3981 22.6707 11.991 22.892C12.7376 23.1864 13.5504 23.2491 14.3452 23.276C14.8705 23.3339 15.3952 23.2567 15.9211 23.2595C16.5692 23.2464 17.2151 23.1926 17.8617 23.1623C19.8272 22.9865 21.7822 22.5246 23.5725 21.6842C24.6052 21.1755 25.642 20.5302 26.2632 19.5306C26.6892 18.8564 26.7581 17.9692 26.4328 17.2398C26.1674 16.6945 25.6669 16.3133 25.1478 16.0258C24.4715 15.6798 23.7828 15.3578 23.1141 14.9966L23.1424 14.9201C23.1651 14.8615 23.1879 14.8029 23.2106 14.7443C23.0845 14.685 22.979 14.594 22.9004 14.4796C22.9445 14.423 22.9893 14.3665 23.0348 14.3107C23.0183 14.1914 23.0128 14.0701 23.0321 13.9508C23.0376 13.935 23.0479 13.9019 23.0534 13.886C23.3988 13.6268 23.6525 13.2704 23.9676 12.9781C24.2709 12.7037 24.5411 12.3942 24.7838 12.0661C24.9761 11.7669 24.9127 11.3912 24.83 11.0671C24.6569 10.3991 24.2068 9.86005 23.8104 9.31406C23.678 9.16171 23.5257 8.9549 23.303 8.97007C23.0569 9.0521 22.7818 9.13621 22.535 9.01074C22.5137 8.93835 22.4923 8.86666 22.4709 8.79427C22.493 8.72534 22.5157 8.6564 22.5385 8.58746C22.8728 8.35032 23.1493 8.04423 23.4643 7.78434C23.7642 7.50652 24.0813 7.24869 24.3715 6.96122C24.5652 6.76889 24.9134 6.78543 25.1002 6.9819C25.6159 7.46033 26.1267 7.97047 26.459 8.59849C26.7464 9.15827 26.8774 9.83937 26.6478 10.4426C26.459 10.9775 26.035 11.3739 25.7034 11.8199C25.5 12.0819 25.3629 12.3887 25.1512 12.6444C25.045 12.7782 24.9375 12.9602 25.0237 13.1311C25.1333 13.4186 25.4373 13.5496 25.6476 13.7523C26.5713 14.5582 27.4117 15.5667 27.6661 16.7959C27.8929 17.8265 27.5978 18.9054 27.0511 19.7864C26.2135 21.0693 25.2388 22.3026 23.9565 23.1678C22.7336 24.0033 21.3479 24.5534 19.9995 25.1497C18.3285 25.8915 16.5168 26.3251 14.6879 26.3817C13.7855 26.3989 12.8769 26.3079 12.0027 26.0763C11.1527 25.8281 10.2779 25.4324 9.75812 24.683C9.37621 24.1591 9.26797 23.4704 9.39965 22.8424C9.46996 22.4426 9.65747 22.0786 9.79879 21.7015C8.78127 21.5981 7.75204 21.5526 6.7552 21.3071C5.95828 21.1238 5.18342 20.8129 4.51197 20.3413C4.10454 20.0442 3.68954 19.7009 3.50961 19.2135C3.28419 18.631 3.37174 17.9912 3.51375 17.3998C3.60888 17.0558 3.68333 16.6932 3.91634 16.4112C3.71918 16.263 3.46204 16.3181 3.23317 16.2968C2.73475 16.2513 2.22324 16.2299 1.75101 16.0486C1.46837 15.9452 1.21123 15.7846 0.966502 15.6129C0.69213 15.4261 0.39363 15.2517 0.200604 14.9738C0.00688931 14.6064 0.022745 14.1383 0.237141 13.7826C0.430856 13.4965 0.719015 13.298 0.966502 13.0636C1.38633 12.6548 1.83305 12.2756 2.25977 11.8744C2.59343 11.5918 2.87607 11.2423 3.26695 11.0354C3.74331 10.7817 4.28102 10.6349 4.82219 10.6397C5.53776 10.6418 6.25333 10.6349 6.96959 10.6453C7.40942 10.6632 7.59555 10.0793 8.04571 10.1337C8.11465 10.2358 8.17738 10.3426 8.23253 10.4529C8.19186 10.5322 8.16773 10.6232 8.10224 10.6873C7.73411 11.0541 7.36185 11.416 7.00337 11.7924C6.61939 12.1957 6.07547 12.4569 5.51432 12.4569C4.43476 12.459 3.35588 12.4556 2.27632 12.4569C1.92474 12.6513 1.66139 13.0691 1.78134 13.4758C1.88268 13.9343 2.38317 14.1852 2.82368 14.1645C6.93857 14.1652 11.0535 14.1652 15.1683 14.1645C15.5806 14.139 15.997 14.2403 16.4037 14.1294C16.6781 14.0949 16.8739 13.784 17.1675 13.8908C17.1937 13.9846 17.2227 14.0777 17.253 14.1707C17.1517 14.3658 16.9724 14.4975 16.8201 14.6491C16.4216 15.0338 16.0059 15.3999 15.6164 15.7935C15.2731 16.1596 14.7692 16.3485 14.2749 16.374C11.0859 16.3878 7.89543 16.3602 4.70637 16.3878C4.62916 16.5684 4.50231 16.7683 4.58159 16.9696C4.71326 17.2123 4.89595 17.428 5.11241 17.6004C5.788 18.1319 6.6318 18.3807 7.45836 18.5627C9.17629 18.915 10.939 18.9357 12.6866 18.9226C14.1846 18.9336 15.6868 18.9012 17.1724 18.6882C18.1058 18.5503 19.044 18.3477 19.8961 17.9278C20.3469 17.6852 20.804 17.3929 21.0687 16.9399C21.4431 16.3485 21.4782 15.5267 21.0997 14.9297C20.6882 14.3727 20.0395 14.079 19.4528 13.7474C18.2188 13.0512 16.8339 12.712 15.5013 12.2618C15.3117 12.1536 15.1987 11.9723 15.147 11.7641C15.2145 11.5718 15.2807 11.3574 15.4572 11.236C15.7005 11.0671 15.9515 10.9072 16.1693 10.7052C16.6967 10.2937 17.2454 9.87935 17.6218 9.31682C17.8783 8.95559 17.7811 8.47096 17.6122 8.09387C17.2875 7.44379 17.0228 6.73786 16.4961 6.21739C16.2927 6.03746 16.0783 5.82927 15.7895 5.81686C15.3297 6.25461 14.854 6.67927 14.419 7.14529C14.2639 7.25903 14.1453 7.4817 13.9337 7.4755C13.6931 7.4038 13.6834 7.11564 13.6814 6.90745C13.2967 6.70477 12.8541 6.42902 12.7928 5.95749C12.6749 5.41495 12.8038 4.8407 13.0988 4.37606C13.3332 3.98312 13.6614 3.65635 14.0067 3.35992Z" fill="#01402B"/>
<path d="M14.4273 7.43148C14.5562 7.31498 14.7216 7.38254 14.8512 7.45699C14.8664 7.81409 14.5314 8.08088 14.5562 8.44418C14.5651 9.52719 14.5493 10.6109 14.5645 11.6939C14.6196 11.9572 14.6106 12.2482 14.4452 12.4729C14.0729 12.8755 13.651 13.2347 13.3057 13.66C13.2815 13.66 13.2333 13.6593 13.2098 13.6593C13.0699 13.6483 12.9348 13.6883 12.8031 13.7296C12.7438 13.6952 12.6852 13.6607 12.6266 13.6269C12.7245 13.3077 12.8596 12.9892 12.8514 12.6487C12.7879 11.8704 12.8314 11.0879 12.819 10.3076C12.8341 9.91807 12.759 9.51202 12.9106 9.14045C13.0258 8.77025 13.3574 8.54138 13.6104 8.26977C13.8737 7.98092 14.1819 7.73619 14.4273 7.43148Z" fill="#02402B"/>
<path d="M30.2443 11.3946C30.325 11.3505 30.4208 11.3843 30.5084 11.3794C30.7779 11.6621 31.0406 11.9502 31.3053 12.237C31.4301 12.3583 31.4376 12.5596 31.3625 12.7092C31.2074 12.9071 31.0157 13.0725 30.8572 13.2669C30.6917 13.4476 30.5311 13.7006 30.2485 13.6585C29.9313 13.389 29.6983 13.0374 29.3861 12.7651C29.2054 12.701 28.9476 12.6837 28.8139 12.8478C28.5946 13.0725 28.3871 13.309 28.1707 13.5365C28.0549 13.6702 27.8315 13.6916 27.7088 13.5565C27.4689 13.3111 27.2435 13.0525 27.0139 12.7982C26.9698 12.7451 26.925 12.6927 26.8795 12.6403C26.8705 12.5079 26.8684 12.3632 26.9719 12.2639C27.2173 11.9792 27.4717 11.6979 27.7426 11.438C27.9845 11.2519 28.232 11.5152 28.374 11.6979C28.6298 11.944 28.829 12.2811 29.1579 12.4314C29.6011 12.1901 29.8266 11.6772 30.2443 11.3946Z" fill="#04402B"/>
<path d="M28.8283 13.6255C28.9559 13.5 29.1937 13.4442 29.3254 13.5937C29.5736 13.8488 29.8093 14.1163 30.052 14.3769C30.1988 14.521 30.1816 14.7781 30.041 14.9208C29.7983 15.1834 29.5501 15.4406 29.3054 15.7012C29.2261 15.7935 29.0938 15.7742 28.9869 15.768C28.7897 15.6302 28.656 15.4213 28.474 15.2662C28.3037 15.0097 27.9163 14.7898 28.0955 14.432C28.3396 14.1632 28.5981 13.9067 28.8283 13.6255Z" fill="#03402C"/>
<path d="M12.6266 13.627C12.6852 13.6674 12.7438 13.7087 12.8031 13.75C12.9348 13.7004 13.0699 13.6525 13.2098 13.6658L13.2684 13.7004C13.1092 13.8862 12.9541 14.2231 12.6866 14.1009C12.4963 14.0365 12.5618 13.783 12.6266 13.627Z" fill="#132B22"/>
<path d="M23.1759 14.993C22.7107 14.7883 22.6563 14.212 23.0788 13.9507C23.0557 14.0699 23.0623 14.1913 23.0821 14.3105C23.0277 14.3664 22.9742 14.4229 22.9215 14.4794C23.0154 14.5939 23.1413 14.6849 23.292 14.7442C23.2649 14.8028 23.2377 14.8614 23.2105 14.9199L23.1759 14.993Z" fill="#132B22"/>
</svg>
