<svg width="32" height="32" viewBox="0 0 32 32" fill="none" xmlns="http://www.w3.org/2000/svg">
<path fill-rule="evenodd" clip-rule="evenodd" d="M0.589957 12.0076C0.0591652 12.0076 0.00708008 12.4143 0.00708008 12.5785V20.5341C0.00708008 20.725 0.046229 20.916 0.300186 21.0553C0.388084 21.0935 0.489055 21.1183 0.589957 21.1183C1.13709 21.1183 1.18591 20.7003 1.18591 20.5341V17.8822C1.73304 18.3652 2.22795 18.7834 3.28306 18.7834C5.28572 18.7834 5.9729 16.9314 5.9729 15.3582C5.9729 13.1874 4.768 11.9446 3.14301 11.9446C2.32892 11.9446 1.69389 12.2234 1.18591 12.8324C1.18591 12.4524 1.18591 12.21 0.896067 12.0707C0.769089 12.0076 0.642042 12.0076 0.589957 12.0076ZM1.16317 15.2933C1.16317 13.8348 1.80793 12.9221 3.00303 12.9221C4.71598 12.9221 4.76807 14.711 4.76807 15.3831C4.76807 15.9788 4.68991 16.689 4.33498 17.172C4.09396 17.5023 3.66094 17.8442 2.99002 17.8442C1.77212 17.8442 1.16317 16.7653 1.16317 15.2933Z" fill="#231F20"/>
<path fill-rule="evenodd" clip-rule="evenodd" d="M9.69176 18.7834C10.3007 18.7834 11.2516 18.7069 12.0267 17.8573C12.8016 16.9944 12.8636 15.8776 12.8636 15.3067C12.8636 13.1378 11.6195 11.9446 9.75372 11.9446C9.20979 11.9446 8.15474 12.021 7.36666 12.8953C6.64373 13.7201 6.58191 14.7874 6.58191 15.3964C6.58191 15.8642 6.60792 17.0326 7.39273 17.8956C8.11573 18.6955 9.03073 18.7834 9.69176 18.7834ZM11.6587 15.383C11.6587 15.7763 11.6326 16.5877 11.1897 17.1585C10.8446 17.6168 10.2878 17.8441 9.71457 17.8441C8.99165 17.8441 8.49667 17.5137 8.24271 17.1968C7.88778 16.7405 7.77374 16.0417 7.77374 15.3964C7.77374 14.7988 7.87471 14.1268 8.20683 13.6437C8.68873 12.9716 9.35965 12.922 9.70484 12.922C11.2516 12.922 11.6587 14.1516 11.6587 15.383Z" fill="#231F20"/>
<path d="M14.7263 13.2008C14.9672 12.4772 15.6934 12.0076 16.4425 12.0076C16.5791 12.0076 17.1392 12.0076 17.1392 12.5784C17.1392 13.0233 16.7841 13.0997 16.6053 13.1244C16.2894 13.1741 15.9571 13.2257 15.6153 13.4414C14.7784 14.0256 14.7784 14.9134 14.7784 15.6752V18.1992C14.7784 18.4034 14.7392 18.7319 14.1955 18.7319C13.6744 18.7319 13.6223 18.3767 13.6223 18.1992V12.5403C13.6223 12.3875 13.6744 12.0076 14.1824 12.0076C14.6775 12.0076 14.7263 12.3875 14.7263 12.5403V13.2008Z" fill="#231F20"/>
<path d="M18.8001 13.0729H18.1259C17.986 13.0729 17.6441 13.0233 17.6441 12.5784C17.6441 12.1221 17.986 12.084 18.1259 12.084H18.8131V10.5985C18.8131 10.4344 18.862 10.0544 19.383 10.0544C19.9301 10.0544 19.9659 10.421 19.9659 10.5985V12.084H20.754C20.9072 12.084 21.2359 12.1221 21.2359 12.5784C21.2359 13.0233 20.894 13.0729 20.754 13.0729H19.9659V16.2957C19.9659 17.0574 19.9789 17.1472 20.018 17.298C20.1059 17.6665 20.3469 17.7295 20.6921 17.7562C20.9948 17.7676 21.3142 17.7944 21.3142 18.2374C21.3142 18.6821 20.9072 18.7318 20.5651 18.7318C18.8001 18.7318 18.8001 17.781 18.8001 16.792V13.0729" fill="#231F20"/>
<path fill-rule="evenodd" clip-rule="evenodd" d="M23.281 17.1852C22.9358 16.7652 22.8088 16.2574 22.7859 15.6865V15.6864H27.0487C27.2149 15.6864 27.6219 15.6483 27.6219 15.1156C27.6219 14.4053 27.4037 13.5805 26.987 12.9964C26.5928 12.4637 26.0978 12.1849 25.5247 12.0455C25.2609 11.9826 24.9808 11.9558 24.7007 11.9558C22.4539 11.9558 21.5908 13.8212 21.5908 15.4211C21.5908 16.3337 21.8579 17.2481 22.4278 17.8954C23.076 18.619 23.9127 18.7832 24.7399 18.7832C25.095 18.7832 26.2379 18.7832 27.1139 17.7942C27.2505 17.6416 27.4687 17.3629 27.5177 17.1203C27.5306 17.0822 27.5306 17.0459 27.5306 16.9943C27.5306 16.6259 27.1496 16.4617 26.8729 16.4617C26.6014 16.4617 26.5319 16.58 26.3439 16.9001C26.3379 16.9103 26.3318 16.9207 26.3255 16.9313C26.0977 17.2865 25.7429 17.8058 24.7399 17.8058C24.2319 17.8058 23.7109 17.718 23.281 17.1852ZM24.714 12.9716C25.9187 12.9716 26.3779 13.8977 26.4266 14.7357V14.7358H22.7958C22.7988 14.7224 22.8019 14.7084 22.8051 14.6937C22.8722 14.3882 22.9982 13.8143 23.4829 13.3898C23.9257 12.9965 24.4468 12.9716 24.714 12.9716Z" fill="#231F20"/>
<path d="M29.5497 13.2008C29.7938 12.4772 30.5169 12.0076 31.2657 12.0076C31.4026 12.0076 31.9626 12.0076 31.9626 12.5784C31.9626 13.0233 31.6076 13.0997 31.4286 13.1244C31.1125 13.1741 30.7838 13.2257 30.4386 13.4414C29.6016 14.0256 29.6016 14.9134 29.6016 15.6752V18.1992C29.6016 18.4034 29.5626 18.7319 29.0188 18.7319C28.4978 18.7319 28.4456 18.3767 28.4456 18.1992V12.5403C28.4456 12.3875 28.4978 12.0076 29.0058 12.0076C29.5007 12.0076 29.5496 12.3875 29.5496 12.5403V13.2008" fill="#231F20"/>
</svg>
