<svg width="32" height="32" viewBox="0 0 32 32" fill="none" xmlns="http://www.w3.org/2000/svg">
<path d="M0.43042 15.574C0.43042 15.574 1.44277 14.7683 2.32326 14.7683C3.20363 14.7683 5.07451 15.9042 6.32893 17.4447C7.5834 18.9854 9.52015 20.9312 11.0389 21.2347C11.0389 21.2347 9.38811 21.6926 7.97958 20.5701C6.57105 19.4475 2.80739 15.4859 0.43042 15.574Z" fill="#FBDA00"/>
<path d="M25.5831 10.2386C25.5831 10.2386 22.4743 9.66651 19.8129 11.4076C17.1516 13.1487 13.5452 19.6402 11.7793 19.6651C11.7793 19.6651 13.4366 20.074 14.7638 19.2423C17.145 17.75 22.3 10.6365 25.5831 10.2386Z" fill="#FBDA00"/>
<path d="M20.0617 10.736C20.0617 10.736 18.5561 10.5372 17.145 12.0046C15.7339 13.472 13.0423 18.1332 11.5057 19.1179C11.5057 19.1179 13.023 18.3221 13.9183 17.2029C14.8136 16.0835 18.1849 11.0095 20.0617 10.736Z" fill="#FBDA00"/>
<path d="M27.4251 10.35C22.2506 11.0859 16.5315 20.5149 13.1665 20.5149C9.80155 20.5149 7.95364 15.4937 6.4972 14.5738C5.04071 13.6539 3.11312 13.8837 2.54926 14.3437C2.54926 14.3437 3.93559 14.6586 4.96401 15.4141C7.26374 17.1033 9.41025 21.2349 13.2049 21.2349C19.7975 21.2349 25.1255 11.8523 31.6413 11.8523C31.6413 11.8523 30.199 10.3052 28.0559 10.3052C27.8517 10.3052 27.6413 10.3192 27.4251 10.35Z" fill="url(#paint0_linear)"/>
<defs>
<linearGradient id="paint0_linear" x1="31.6414" y1="10.3052" x2="31.6414" y2="21.2349" gradientUnits="userSpaceOnUse">
<stop stop-color="#FBDA00"/>
<stop offset="0.61264" stop-color="#C9A200"/>
<stop offset="0.61264" stop-color="#C9A200"/>
<stop offset="1" stop-color="#C9A200"/>
</linearGradient>
</defs>
</svg>
