<svg width="32" height="32" viewBox="0 0 32 32" fill="none" xmlns="http://www.w3.org/2000/svg">
<path fill-rule="evenodd" clip-rule="evenodd" d="M4.33606 14.4609C4.33606 14.9457 4.15847 15.3411 3.80459 15.6522C3.44811 15.9711 3.00478 16.1292 2.47849 16.1292C2.40849 16.1292 2.34108 16.1266 2.27757 16.1214C2.21534 16.1214 2.09868 16.1124 1.92757 16.0903C1.75387 16.0501 1.60739 15.9996 1.48554 15.94L1.54776 15.7183H1.64498C2.11035 15.7183 2.4733 15.6107 2.73386 15.3929C2.98404 15.1803 3.10978 14.8783 3.10978 14.4855C3.10978 14.1757 3.02422 13.9398 2.85052 13.7791C2.67423 13.6274 2.40719 13.5509 2.04812 13.5509L1.71498 13.5665L1.54776 13.5743C1.53739 13.6754 1.52832 13.7972 1.51795 13.9385C1.50628 14.0798 1.50109 14.1744 1.50109 14.2172L1.48554 15.7883C1.48554 16.7579 1.50109 17.3788 1.5322 17.6511C1.54776 17.7872 1.57628 17.8974 1.61517 17.9777C1.65665 18.0594 1.74479 18.167 1.8809 18.3018H0C0.132221 18.1722 0.219072 18.0633 0.260553 17.9764C0.304626 17.8896 0.334441 17.7781 0.349996 17.6381C0.384996 17.3853 0.40444 16.8059 0.40444 15.8998V15.5822C0.40444 14.5866 0.384996 13.967 0.349996 13.7259C0.334441 13.5924 0.307219 13.49 0.267034 13.4148C0.216479 13.3085 0.127036 13.1944 0 13.0739H0.601475C0.712955 13.0739 0.886656 13.0661 1.12517 13.0506C1.36498 13.0389 1.52961 13.0337 1.61776 13.0337L2.44219 13C3.05274 13 3.52329 13.1257 3.85125 13.3759C4.17403 13.6248 4.33606 13.9865 4.33606 14.4609ZM7.88269 17.5344L7.74917 18.2279C7.65584 18.2409 7.57547 18.2486 7.50676 18.2551C7.43547 18.2681 7.37066 18.2746 7.31232 18.2746L6.90529 18.2901L6.22474 18.2836L5.38734 18.2746H4.5318C4.63809 18.1735 4.7068 18.0866 4.7405 18.0179C4.7755 17.9492 4.79883 17.8585 4.8105 17.747C4.83902 17.5461 4.85457 17.082 4.85457 16.36V16.1046C4.85457 15.3087 4.83902 14.8148 4.8105 14.6204C4.79883 14.5154 4.7768 14.4311 4.74569 14.3728C4.7042 14.2872 4.63291 14.1965 4.5318 14.0992H5.24087L6.3453 14.0863L7.10751 14.0798H7.15677L7.48214 14.0928L7.53788 14.7591L7.3188 14.7966C7.27473 14.7033 7.1801 14.6333 7.03233 14.5879C6.9377 14.5659 6.81714 14.5491 6.67066 14.54C6.52159 14.527 6.32456 14.5205 6.07826 14.5205H5.76845C5.75549 14.5905 5.74901 14.6605 5.74382 14.7279C5.73604 14.7941 5.73086 14.8394 5.73086 14.8615L5.71919 15.73V15.844L5.80604 15.8505H6.18067C6.27789 15.8505 6.40752 15.8479 6.56826 15.844C6.729 15.8402 6.84177 15.8376 6.90529 15.8376C7.03233 15.8376 7.30714 15.8 7.72973 15.7235C7.57417 15.8881 7.43158 16.0113 7.30584 16.0916C7.19695 16.1603 7.07251 16.2109 6.9364 16.2446C6.73029 16.3042 6.35048 16.334 5.79697 16.334H5.71271C5.69197 16.334 5.67382 16.334 5.65697 16.334C5.67771 16.3431 5.69845 16.3483 5.71919 16.3535V16.6374L5.73086 17.5162L5.76197 17.8572H6.09771C6.55529 17.8572 6.9027 17.8261 7.13862 17.7638C7.37584 17.7029 7.55343 17.6031 7.67139 17.4631L7.88269 17.5344ZM12.5454 18.2772H11.5162C11.4423 18.2772 11.3878 18.2733 11.3489 18.2655C11.3101 18.2603 11.2776 18.2512 11.2491 18.2344C11.218 18.2253 11.1856 18.2072 11.1532 18.1748C11.1195 18.1449 11.0845 18.1125 11.0508 18.0788L9.78952 16.5816C9.761 16.5505 9.73118 16.5194 9.70267 16.4857C9.6547 16.439 9.61193 16.4066 9.57304 16.3898C9.53545 16.3729 9.49915 16.3626 9.46674 16.3587C9.42656 16.3535 9.37471 16.3522 9.3086 16.3522H9.376V16.6374C9.376 17.2427 9.38897 17.6329 9.4136 17.8066C9.42656 17.8961 9.4473 17.9674 9.47582 18.0231C9.50693 18.0814 9.57563 18.167 9.68063 18.2772H8.18861C8.2949 18.1735 8.36361 18.0866 8.39731 18.0179C8.43231 17.9492 8.45564 17.8598 8.46861 17.747C8.49712 17.5461 8.51138 17.082 8.51138 16.36V16.1046C8.51138 15.3087 8.49712 14.8148 8.46861 14.6204C8.45564 14.5154 8.4349 14.4311 8.4025 14.3728C8.36231 14.2872 8.29102 14.1965 8.18861 14.0992H8.65138C8.7486 14.0992 8.9223 14.0954 9.17249 14.0863C9.41748 14.0785 9.56396 14.0733 9.60933 14.0733L10.2497 14.0565C10.6658 14.0565 10.973 14.1291 11.1714 14.2755C11.3969 14.4246 11.5097 14.6476 11.5097 14.9431C11.5097 15.214 11.4073 15.4616 11.2025 15.6859C11.1014 15.7883 10.9938 15.8752 10.8797 15.9464C10.7669 16.0229 10.623 16.0942 10.4493 16.1603L11.4254 17.3037C11.4851 17.3762 11.5641 17.4657 11.6613 17.5707C11.7586 17.6809 11.8402 17.7638 11.9089 17.8183C11.9725 17.874 12.045 17.9324 12.1293 17.9894C12.2097 18.0529 12.3484 18.1501 12.5454 18.2772ZM10.5673 15.1272C10.5673 14.9081 10.5038 14.7474 10.3767 14.6502C10.2601 14.5465 10.0656 14.4933 9.796 14.4933L9.50952 14.4998L9.42656 14.505C9.41359 14.5776 9.40582 14.6476 9.40193 14.7163C9.39285 14.7824 9.38896 14.8239 9.38896 14.8433L9.376 15.6677V15.73V15.9335L9.40841 15.94L9.5847 15.9464C9.90618 15.9464 10.1486 15.8739 10.3093 15.73C10.4804 15.5952 10.5673 15.3942 10.5673 15.1272ZM16.6585 14.0992C16.5198 14.1965 16.4317 14.2794 16.3915 14.3468C16.35 14.4194 16.3202 14.5128 16.302 14.6268C16.2943 14.7396 16.2852 14.9341 16.2774 15.2089C16.2683 15.4837 16.2644 15.8103 16.2644 16.1876C16.2644 16.5648 16.2683 16.8538 16.2774 17.0561C16.2813 17.2609 16.2891 17.489 16.302 17.7418C16.3163 17.8533 16.3422 17.9453 16.3798 18.0179C16.4161 18.0866 16.4887 18.1735 16.5963 18.2746L15.4128 18.2772L15.4374 17.8805C15.2896 17.9985 15.1393 18.0931 14.9811 18.1657C14.6895 18.2888 14.368 18.3523 14.0167 18.3523C13.4723 18.3523 13.0678 18.2331 12.806 17.9946C12.5389 17.7638 12.4054 17.4074 12.4054 16.9238V16.4922L12.4145 16.1759C12.4145 15.3528 12.3989 14.8394 12.3691 14.632C12.3562 14.5179 12.3328 14.4259 12.2965 14.3533C12.2641 14.2859 12.1954 14.2004 12.0891 14.0992H13.6472C13.5137 14.1965 13.4269 14.2833 13.388 14.3598C13.3465 14.4402 13.3193 14.5439 13.3076 14.6696C13.283 14.9237 13.27 15.485 13.27 16.3535C13.27 16.9783 13.3478 17.3801 13.5008 17.5577C13.655 17.7353 13.9221 17.8248 14.3032 17.8248C14.7063 17.8248 14.985 17.7133 15.1432 17.4903C15.3143 17.244 15.3998 16.8098 15.3998 16.1876C15.3998 15.3696 15.3895 14.877 15.3687 14.7085C15.348 14.54 15.3233 14.4285 15.2935 14.3728C15.2469 14.2872 15.1561 14.1965 15.0226 14.0992H16.6585ZM21.2746 14.0992C21.0425 14.3792 20.7936 14.7591 20.5266 15.2426C20.257 15.7287 19.9472 16.3509 19.6011 17.1079C19.4961 17.327 19.3963 17.5461 19.3003 17.7638C19.2031 17.9829 19.1176 18.1631 19.045 18.3083H18.2737C18.1207 17.8079 17.9703 17.3438 17.8213 16.9174C17.6683 16.4922 17.5154 16.0942 17.3611 15.7235C17.2094 15.3553 17.0694 15.0507 16.9437 14.8096C16.7959 14.5387 16.6481 14.3015 16.4965 14.0992H17.2444C17.4013 14.0992 17.5024 14.1161 17.5478 14.1485C17.5802 14.1718 17.6113 14.2004 17.6372 14.2328C17.6592 14.2704 17.6748 14.3079 17.6878 14.3468C17.7124 14.3922 17.7513 14.4752 17.8031 14.5957C17.8265 14.6528 17.8524 14.7124 17.8796 14.772L18.1 15.354L18.8687 17.4242L19.5544 15.9776C19.6218 15.8298 19.6866 15.6742 19.7488 15.5161C19.8137 15.3579 19.8655 15.2076 19.907 15.0637C20.0029 14.7759 20.0496 14.575 20.0496 14.4622L20.034 14.3598L19.9666 14.0992H21.2746ZM22.5268 18.2772H21.0231C21.1294 18.1735 21.1981 18.0866 21.2318 18.0179C21.2668 17.9492 21.2901 17.8598 21.3031 17.747C21.3316 17.5461 21.3459 17.082 21.3459 16.36V16.1046C21.3459 15.3087 21.3316 14.8148 21.3031 14.6204C21.2901 14.5154 21.2694 14.4311 21.237 14.3728C21.1955 14.2872 21.1255 14.1965 21.0231 14.0992H22.5268C22.4218 14.1965 22.3518 14.2794 22.3168 14.3468C22.2779 14.4194 22.2559 14.5063 22.2481 14.6074C22.2234 14.8109 22.2105 15.2542 22.2105 15.94V16.1876V16.43C22.2105 17.0975 22.2234 17.5448 22.2481 17.7703C22.2597 17.874 22.2805 17.9596 22.3103 18.0231C22.3414 18.0853 22.4127 18.1696 22.5268 18.2772ZM27.511 18.2772H26.4078L25.6573 16.5479H24.0836L23.7894 17.1468C23.5988 17.5396 23.5042 17.8196 23.5042 17.9894L23.5107 18.0607C23.5145 18.0814 23.521 18.1022 23.5275 18.1216C23.5327 18.1449 23.5547 18.1968 23.5936 18.2772H22.226C22.4166 18.0931 22.5747 17.9246 22.7005 17.7703C22.8081 17.6407 22.9273 17.4799 23.057 17.2868C23.2734 16.9511 23.5107 16.535 23.7634 16.0372C23.9682 15.6379 24.1381 15.2789 24.2729 14.9613C24.409 14.645 24.4777 14.4531 24.4777 14.3857L24.4608 14.3157C24.4531 14.2898 24.4388 14.2652 24.4181 14.2457C24.3766 14.1978 24.326 14.1485 24.2664 14.0992H25.5367C25.9088 15.1453 26.2549 16.0126 26.5725 16.7035C26.7345 17.0509 26.8849 17.3438 27.0275 17.5837C27.1895 17.8546 27.3502 18.0853 27.511 18.2772ZM25.4603 16.124L24.921 14.8809L24.304 16.124H25.4603ZM32 14.0992C31.847 14.1926 31.7485 14.2768 31.7032 14.3533C31.6591 14.4298 31.6306 14.5296 31.6189 14.6502C31.6189 14.6891 31.6124 14.8718 31.5994 15.2024C31.5852 15.5329 31.5774 15.844 31.5774 16.1357V16.9355V18.2953H30.9176C30.8606 18.2149 30.7737 18.0996 30.6571 17.9518C30.4704 17.7133 30.3343 17.5396 30.2461 17.4307C30.0504 17.1974 29.8585 16.964 29.6693 16.7346L28.233 14.9768L28.2576 16.675C28.2576 17.1235 28.2797 17.4644 28.3237 17.6977C28.3354 17.7949 28.36 17.8844 28.3976 17.9648C28.4365 18.049 28.5078 18.154 28.6089 18.2772H27.2932C27.3995 18.167 27.4747 18.0464 27.5213 17.9168C27.568 17.7885 27.603 17.6316 27.6263 17.4501C27.6717 17.1118 27.6938 16.5674 27.6938 15.8194C27.6938 15.1687 27.6717 14.7591 27.6263 14.5892C27.6108 14.4998 27.5836 14.4285 27.5408 14.3728C27.4825 14.2989 27.3645 14.2094 27.1908 14.0992H28.3043C28.4741 14.0992 28.6595 14.2224 28.863 14.4687L28.9589 14.6022L29.6187 15.4202C29.8819 15.7676 30.1372 16.0942 30.3848 16.4014C30.5806 16.6438 30.7945 16.9018 31.0265 17.1779L31.033 15.73C31.033 15.4798 31.0291 15.2555 31.02 15.0572C31.0122 14.8628 31.0006 14.7124 30.9889 14.6074C30.972 14.5063 30.9513 14.4285 30.9241 14.3728C30.8865 14.2924 30.8204 14.2004 30.7232 14.0992H32Z" fill="#ED3237"/>
</svg>
