<svg width="32" height="32" viewBox="0 0 32 32" fill="none" xmlns="http://www.w3.org/2000/svg">
<path fill-rule="evenodd" clip-rule="evenodd" d="M32 27.9025L13.2977 8.99299C10.8091 6.48771 7.42708 5 3.90766 5H0L0.292044 5.76332L1.59422 9.18883L8.67084 27.9025H32Z" fill="url(#paint0_linear)"/>
<path fill-rule="evenodd" clip-rule="evenodd" d="M11.6005 20.8082C11.6394 21.0813 11.8541 21.3155 12.1273 21.3544C16.0023 21.9597 19.7616 23.5591 23.0337 26.1944C23.0532 26.2138 23.0726 26.2138 23.1121 26.2138C23.1322 26.2138 23.1711 26.1944 23.1906 26.1749C23.2295 26.136 23.2295 26.0575 23.1906 26.0186C20.931 23.6381 18.1457 21.7255 15.0489 20.4766L14.0937 20.0861C13.607 19.8914 13.276 19.4029 13.276 18.8566C13.3344 16.8272 18.1262 17.2361 18.6129 16.2614L18.6902 16.0856C17.6967 15.2456 16.528 14.6025 15.243 14.2503C15.2229 14.3093 15.2029 14.5424 15.4566 14.9719C15.7486 15.4414 15.1451 16.1824 14.2684 15.3824L14.1905 15.324C7.72486 9.35201 2.85574 12.4442 0.284607 5.75128L1.58907 9.16419C4.14073 13.5357 10.86 13.9972 11.6005 20.8082Z" fill="white"/>
<path fill-rule="evenodd" clip-rule="evenodd" d="M15.4543 14.9638C15.5499 15.1173 15.5493 15.3171 15.4715 15.4706C15.3901 15.6287 15.2264 15.738 15.0093 15.738V17.3345C15.7102 17.1398 16.5096 17.0024 17.171 16.8661V15.9682C17.171 15.9682 16.0968 16.0369 15.4543 14.9633V14.9638Z" fill="url(#paint1_linear)"/>
<path fill-rule="evenodd" clip-rule="evenodd" d="M12.9049 21.4919C16.4896 22.1733 19.9758 23.7355 23.0142 26.1749C16.217 20.3787 13.1391 21.4129 12.9055 21.4907L12.9049 21.4919Z" fill="url(#paint2_linear)"/>
<path fill-rule="evenodd" clip-rule="evenodd" d="M0.284027 5.7616L1.58964 9.17679C4.14072 13.5483 10.8606 14.0167 11.6004 20.8276C10.8411 12.1236 7.04227 13.412 2.95251 9.46998C1.90058 8.70838 1.00555 7.61579 0.284027 5.7616Z" fill="url(#paint3_linear)"/>
<defs>
<linearGradient id="paint0_linear" x1="20.2746" y1="27.8169" x2="11.4826" y2="2.57738" gradientUnits="userSpaceOnUse">
<stop stop-color="#BE0000"/>
<stop offset="0.3898" stop-color="#DE0000"/>
<stop offset="0.768" stop-color="#F60000"/>
<stop offset="1" stop-color="#FF0000"/>
</linearGradient>
<linearGradient id="paint1_linear" x1="16.1963" y1="16.1489" x2="16.1963" y2="15.1533" gradientUnits="userSpaceOnUse">
<stop stop-color="white" stop-opacity="0"/>
<stop offset="0.51203" stop-color="#E0E0E0" stop-opacity="0.262"/>
<stop offset="0.66549" stop-color="#C5C5C5" stop-opacity="0.549"/>
<stop offset="0.82415" stop-color="#B5B5B5" stop-opacity="0.805"/>
<stop offset="1" stop-color="#AFAFAF"/>
</linearGradient>
<linearGradient id="paint2_linear" x1="12.9088" y1="23.7814" x2="22.0081" y2="23.7814" gradientUnits="userSpaceOnUse">
<stop stop-color="white" stop-opacity="0"/>
<stop offset="0.08391" stop-color="#F1F1F1" stop-opacity="0.093"/>
<stop offset="0.24826" stop-color="#D4D4D4" stop-opacity="0.325"/>
<stop offset="0.44531" stop-color="#C0C0C0" stop-opacity="0.555"/>
<stop offset="0.7032" stop-color="#B3B3B3" stop-opacity="0.781"/>
<stop offset="1" stop-color="#AFAFAF"/>
</linearGradient>
<linearGradient id="paint3_linear" x1="3.10815" y1="13.2759" x2="11.5839" y2="13.2759" gradientUnits="userSpaceOnUse">
<stop stop-color="white" stop-opacity="0"/>
<stop offset="0.28583" stop-color="#EDEDED" stop-opacity="0.282"/>
<stop offset="0.886" stop-color="#BDBDBD" stop-opacity="0.848"/>
<stop offset="1" stop-color="#AFAFAF"/>
</linearGradient>
</defs>
</svg>
