<svg width="32" height="32" viewBox="0 0 32 32" fill="none" xmlns="http://www.w3.org/2000/svg">
<g clip-path="url(#clip0)">
<path d="M22.6263 3.81021C20.2782 4.60549 17.186 5.91547 13.9977 7.12281C15.7654 7.94055 17.5067 8.70855 18.892 9.33144C23.3847 7.4964 26.8295 6.46623 26.8295 6.46623C26.8295 6.46623 26.2692 7.91647 23.8465 11.5674C25.0153 12.0869 26.4648 12.6994 27.4004 12.9928C30.8188 8.29328 33.001 4.00022 31.5379 2.53234C31.2854 2.27821 30.9639 2 30.0107 2C28.8426 2 26.7261 2.41769 22.6263 3.81021Z" fill="url(#paint0_linear)"/>
<path d="M17.4177 21.9219C18.6163 22.8447 19.5093 22.3597 20.4489 21.6598C20.4546 21.6553 20.3543 21.7505 20.1747 21.9131C21.4214 20.8581 22.967 19.2339 25.1709 16.517C24.0076 15.8171 22.846 15.1236 21.8984 14.5601L17.4177 21.9219Z" fill="url(#paint1_linear)"/>
<path d="M1.32703 3.00055C1.24206 3.00509 1.1691 3.01189 1.09374 3.00734C0.998345 3.0028 0.822771 3.14688 0.822771 3.14688C-3.25542 5.54314 8.87495 24.9705 14.2591 28.5661C15.0063 29.0647 16.3683 29.605 17.5677 29.2114C17.7071 29.1657 18.011 28.9364 18.0246 28.9204C18.0479 28.8972 21.601 24.766 21.601 24.7612C21.5561 24.4325 21.2242 24.6281 21.1841 24.6569C19.7971 25.6655 18.5826 25.1011 14.8435 21.3019C10.8615 17.2606 7.00139 10.1881 7.00139 10.1881L24.9392 18.2675C26.1289 18.803 26.7967 18.4984 27.143 18.2743C27.2384 18.2125 30.4869 14.3003 30.4869 14.3003C30.5085 14.0286 30.2063 14.1792 30.2063 14.1792C29.1601 14.835 28.3632 14.346 26.6716 13.6661C25.53 13.2076 13.5055 7.89239 9.22207 5.86011C3.72489 3.253 2.2137 2.99243 1.54509 2.99243C1.46092 2.99243 1.38956 2.99473 1.32703 3.00155" fill="url(#paint2_linear)"/>
</g>
<defs>
<linearGradient id="paint0_linear" x1="4.5465" y1="21.5846" x2="28.0403" y2="4.81923" gradientUnits="userSpaceOnUse">
<stop stop-color="#20294E"/>
<stop offset="0.500051" stop-color="#005695"/>
<stop offset="1" stop-color="#26B5E3"/>
</linearGradient>
<linearGradient id="paint1_linear" x1="11.2689" y1="24.3714" x2="34.879" y2="9.54081" gradientUnits="userSpaceOnUse">
<stop stop-color="#20294E"/>
<stop offset="1" stop-color="#005F9B"/>
</linearGradient>
<linearGradient id="paint2_linear" x1="23.9789" y1="23.2703" x2="2.93303" y2="1.09258" gradientUnits="userSpaceOnUse">
<stop stop-color="#20294E"/>
<stop offset="0.295092" stop-color="#005695"/>
<stop offset="0.903858" stop-color="#26B5E3"/>
<stop offset="1" stop-color="#26B5E3"/>
</linearGradient>
<clipPath id="clip0">
<rect width="32" height="32" fill="white"/>
</clipPath>
</defs>
</svg>
