<svg width="32" height="32" viewBox="0 0 32 32" fill="none" xmlns="http://www.w3.org/2000/svg">
<path d="M26.7252 19.1387C26.7252 19.1387 27.3011 19.7453 27.51 20.5842C27.51 20.5842 26.2614 20.4854 25.7621 20.8721C25.7621 20.8721 25.8004 21.2226 26.3804 21.8437C26.3804 21.8437 26.4869 22.026 26.232 22.1893C25.9936 22.3418 24.7829 22.4208 24.7389 21.1472C24.7389 21.1472 23.9614 22.0949 22.8962 21.953C22.8962 21.953 22.0554 21.8505 22.0009 21.0593C22.0009 21.0593 22.8087 21.219 23.4512 20.9173C23.4512 20.9173 23.4282 20.3954 22.6914 19.88C22.6914 19.88 23.2665 19.1335 24.5752 18.7806C24.5752 18.7806 24.3199 17.6477 24.6918 16.502C25.0761 15.3517 25.2636 15.0787 25.3616 14.8279C25.4685 14.5891 25.5867 13.989 25.3931 13.3493C25.3931 13.3493 28.4328 13.2872 28.4445 16.5407C28.4449 16.5411 28.4743 18.3519 26.7252 19.1387ZM23.3036 24.7253L21.5206 23.9098L23.2741 23.3359L24.9547 24.1038L23.3036 24.7253ZM20.3079 21.7759C19.2855 21.7162 18.9153 20.6983 18.9153 20.6983C18.4027 21.3706 17.348 21.2649 17.348 21.2649C16.4991 21.0722 16.439 20.3349 16.439 20.3349C17.3742 20.1474 17.6146 19.8066 17.6146 19.8066C17.4001 19.2105 16.3898 18.8802 16.3898 18.8802C16.9972 17.9179 18.3039 17.4304 18.3039 17.4304C17.7949 16.9 17.6477 16.3737 17.5166 15.507C17.3835 14.6157 17.6146 13.2425 17.6146 13.2425C17.8796 12.0132 18.343 11.4171 18.7422 10.8973C19.1746 10.3851 19.6025 10.4464 19.6025 10.4464C20.1699 10.5097 20.6841 10.8138 20.6841 10.8138C21.3645 11.2114 21.8469 11.795 22.0703 12.1011C22.2723 12.4088 22.9301 13.8857 22.1122 15.7393C21.2879 17.5675 20.4442 17.9179 20.4442 17.9179C21.7134 19.1383 21.7073 19.6888 21.7073 19.6888C20.6591 19.6888 20.3792 20.2708 20.3792 20.2708C20.6366 20.7822 21.3879 20.9734 21.3879 20.9734C21.1713 21.8155 20.3079 21.7759 20.3079 21.7759ZM19.6307 24.4797C19.2746 24.4797 18.9842 24.1998 18.9842 23.8408C18.9842 23.473 19.2746 23.1939 19.6307 23.1939C19.9759 23.1939 20.2619 23.473 20.2619 23.8408C20.2619 24.1994 19.9759 24.4797 19.6307 24.4797ZM16.0353 24.4797L14.3313 23.7953L16.0353 23.1044L17.7739 23.7953L16.0353 24.4797ZM13.1557 20.6983C13.1557 20.6983 12.7758 21.7158 11.7639 21.7759C11.7639 21.7759 10.8976 21.8159 10.6867 20.9742C10.6867 20.9742 11.4211 20.7826 11.6881 20.2716C11.6881 20.2716 11.4082 19.6897 10.354 19.6897C10.354 19.6897 10.3443 19.1395 11.6292 17.9188C11.6292 17.9188 10.767 17.5683 9.95067 15.7401C9.1356 13.8861 9.78652 12.4097 10.0015 12.1019C10.216 11.7958 10.6964 11.2123 11.3816 10.8146C11.3816 10.8146 11.8906 10.5105 12.4729 10.4472C12.4729 10.4472 12.8887 10.3859 13.3098 10.8981C13.7151 11.4179 14.2031 12.014 14.4503 13.2433C14.4503 13.2433 14.6854 14.6161 14.5499 15.5078C14.4237 16.3745 14.2785 16.9008 13.7651 17.4312C13.7651 17.4312 15.0577 17.9188 15.6747 18.881C15.6747 18.881 14.6544 19.2113 14.4503 19.8074C14.4503 19.8074 14.6927 20.1482 15.6211 20.3357C15.6211 20.3357 15.5832 21.073 14.7052 21.2658C14.7056 21.2649 13.6647 21.3706 13.1557 20.6983ZM12.4439 24.4797C12.0995 24.4797 11.7909 24.1998 11.7909 23.8408C11.7909 23.4984 12.0999 23.2149 12.4439 23.2149C12.7968 23.2149 13.0642 23.4984 13.0642 23.8408C13.0642 24.1994 12.7968 24.4797 12.4439 24.4797ZM8.76013 24.7253L7.08964 24.1078L8.78633 23.3359L10.5342 23.9239L8.76013 24.7253ZM5.8136 22.2333C5.58412 22.0703 5.6664 21.886 5.6664 21.886C6.24554 21.2734 6.29635 20.9221 6.29635 20.9221C5.79142 20.5382 4.5557 20.6382 4.5557 20.6382C4.75977 19.7808 5.33165 19.1952 5.33165 19.1952C3.57528 18.3733 3.62287 16.5758 3.62287 16.5758C3.62287 13.3368 6.669 13.3881 6.669 13.3881C6.47622 14.0229 6.59923 14.6238 6.6936 14.8811C6.79201 15.1198 6.99407 15.3828 7.37277 16.5411C7.73937 17.6877 7.48528 18.808 7.48528 18.808C8.78755 19.1682 9.35782 19.9155 9.35782 19.9155C8.61655 20.4297 8.61655 20.958 8.61655 20.958C9.24288 21.2649 10.0636 21.0984 10.0636 21.0984C10.0031 21.8953 9.15536 21.9865 9.15536 21.9865C8.10516 22.1252 7.31187 21.1932 7.31187 21.1932C7.27517 22.4599 6.06849 22.3898 5.8136 22.2333ZM31.2256 16.4475C31.8774 16.2297 31.7995 15.5074 31.7995 15.5074C31.66 14.6625 30.7752 14.7827 30.7752 14.7827C31.3349 14.1265 30.8913 13.6147 30.8913 13.6147C30.4582 13.0739 29.7746 13.4227 29.7746 13.4227C30.0855 12.7295 29.6745 12.3798 29.6745 12.3798C29.1281 11.8991 28.5574 12.3963 28.5574 12.3963C28.5409 11.7192 28.0517 11.5643 28.0517 11.5643C27.4757 11.3151 27.0527 11.8337 27.0527 11.8337C26.63 10.671 25.8 11.2679 25.6016 11.3482C25.4052 11.4639 25.3858 11.3482 25.3858 11.3482C25.3487 9.94266 24.1521 10.471 24.1521 10.471C24.478 9.76883 23.9101 9.3732 23.9101 9.3732C23.2959 8.99329 22.7849 9.52564 22.7849 9.52564C22.7216 8.59765 22.036 8.8731 21.8182 8.95497C21.6093 9.00175 21.1584 9.01869 21.1584 9.01869C19.7404 8.84326 19.2157 8.92472 19.2157 8.92472C17.4892 8.88964 16.0345 11.7531 16.0345 11.7531V11.7781L16.0087 11.7531C16.0087 11.7531 14.5334 8.88964 12.8125 8.92472C12.8125 8.92472 12.285 8.84326 10.8714 9.01869C10.8714 9.01869 10.431 9.00175 10.212 8.95497C9.99423 8.8731 9.30539 8.59765 9.2578 9.52564C9.2578 9.52564 8.74036 8.99329 8.12411 9.3732C8.12411 9.3732 7.55869 9.76883 7.88375 10.471C7.88375 10.471 6.6815 9.94266 6.644 11.3482C6.644 11.3482 6.63714 11.4639 6.425 11.3482C6.23384 11.2675 5.40586 10.671 4.98482 11.8337C4.98482 11.8337 4.55449 11.3151 3.98463 11.5643C3.98463 11.5643 3.48816 11.7192 3.47082 12.3963C3.47082 12.3963 2.89692 11.8991 2.34601 12.3798C2.34601 12.3798 1.93384 12.7295 2.23672 13.4227C2.23672 13.4227 1.56966 13.0739 1.15224 13.6147C1.15224 13.6147 0.701349 14.1265 1.26839 14.7827C1.26839 14.7827 0.358942 14.6625 0.233515 15.5074C0.233515 15.5074 0.164557 16.2297 0.799353 16.4475C0.799353 16.4475 0.0536431 16.7964 0.187539 17.3965C0.187539 17.3965 0.233114 17.9942 1.00745 18.1083C1.00745 18.1083 0.358947 18.5382 0.627949 19.1391C0.627949 19.1391 0.884853 19.8405 1.71364 19.6364C1.71364 19.6364 1.40188 20.3632 1.88423 20.6866C1.88423 20.6866 2.33674 21.0726 2.89692 20.6935C2.89692 20.6935 3.19133 20.5846 3.31393 20.7955C3.31393 20.7955 3.52486 21.1335 3.08284 21.6324C3.08284 21.6324 5.49217 21.4283 6.14148 25.3149H25.8581C26.5106 21.4283 28.9538 21.6324 28.9538 21.6324C28.5009 21.1335 28.7203 20.7955 28.7203 20.7955C28.8308 20.585 29.1277 20.6935 29.1277 20.6935C29.6895 21.0726 30.1545 20.6866 30.1545 20.6866C30.6195 20.3632 30.3154 19.6364 30.3154 19.6364C31.1522 19.8405 31.4192 19.1391 31.4192 19.1391C31.6596 18.5386 31.0224 18.1083 31.0224 18.1083C31.7991 17.9942 31.8306 17.3965 31.8306 17.3965C31.9685 16.7964 31.2256 16.4475 31.2256 16.4475ZM6.37177 27.4504C6.41048 27.9089 6.42622 28.332 6.42622 28.332H25.5867C25.5867 28.332 25.6024 27.9319 25.6415 27.5068C25.6851 27.0435 25.7379 26.6797 25.7379 26.6797H6.27175C6.27175 26.6797 6.33345 27.0644 6.37177 27.4504ZM14.9351 8.33308C14.9351 8.33308 14.3188 8.31977 13.9135 8.52102C13.9135 8.52102 15.344 8.90416 16.0353 10.5609C16.7318 8.90456 18.1534 8.52102 18.1534 8.52102C17.7739 8.31977 17.1306 8.33308 17.1306 8.33308C17.0685 8.11691 16.8286 7.94631 16.8286 7.94631C17.0161 7.71966 17.39 7.47082 17.39 7.47082L16.0357 4.2561L14.6862 7.47082C14.6862 7.47082 15.0561 7.72006 15.2416 7.94631C15.2412 7.94591 14.9968 8.11691 14.9351 8.33308Z" fill="#5F6367"/>
<path d="M26.5534 18.8826C26.5534 18.8826 27.1301 19.486 27.3386 20.3277C27.3386 20.3277 26.09 20.2301 25.5915 20.6176C25.5915 20.6176 25.6286 20.9633 26.2074 21.586C26.2074 21.586 26.3159 21.7703 26.061 21.932C25.821 22.0861 24.6127 22.1671 24.5687 20.8931C24.5687 20.8931 23.7875 21.8388 22.7224 21.6985C22.7224 21.6985 21.882 21.5944 21.8295 20.8052C21.8295 20.8052 22.6377 20.9613 23.281 20.6632C23.281 20.6632 23.2532 20.1397 22.5212 19.6239C22.5212 19.6239 23.0951 18.8782 24.4042 18.5253C24.4042 18.5253 24.1441 17.3916 24.5208 16.2459C24.9039 15.0964 25.0922 14.8222 25.1898 14.573C25.2975 14.3326 25.4165 13.7325 25.2213 13.0936C25.2213 13.0936 28.261 13.0311 28.2715 16.2846C28.2719 16.2846 28.3029 18.0958 26.5534 18.8826ZM23.1277 24.4708L21.35 23.6533L23.104 23.0794L24.7793 23.8445L23.1277 24.4708ZM20.1328 21.5198C19.1137 21.4565 18.7394 20.4422 18.7394 20.4422C18.2305 21.1145 17.1758 21.0052 17.1758 21.0052C16.3269 20.8173 16.2688 20.0784 16.2688 20.0784C17.2032 19.8905 17.444 19.5521 17.444 19.5521C17.2307 18.9544 16.2143 18.6233 16.2143 18.6233C16.8262 17.6582 18.1321 17.1734 18.1321 17.1734C17.6231 16.6435 17.4771 16.1184 17.3456 15.2497C17.2121 14.3588 17.444 12.9864 17.444 12.9864C17.7046 11.7575 18.1724 11.1606 18.5725 10.6404C19.0028 10.1282 19.4307 10.1891 19.4307 10.1891C19.9993 10.2524 20.5119 10.5577 20.5119 10.5577C21.1895 10.9557 21.6751 11.5393 21.8969 11.8446C22.1013 12.1519 22.7615 13.6296 21.9388 15.4824C21.1161 17.3102 20.2728 17.6586 20.2728 17.6586C21.5424 18.8822 21.5355 19.4311 21.5355 19.4311C20.4873 19.4311 20.2083 20.0159 20.2083 20.0159C20.4656 20.5261 21.2161 20.7169 21.2161 20.7169C21.0007 21.5598 20.1328 21.5198 20.1328 21.5198ZM19.4621 24.2248C19.1056 24.2248 18.8136 23.9408 18.8136 23.5863C18.8136 23.2181 19.106 22.939 19.4621 22.939C19.8049 22.939 20.0869 23.2181 20.0869 23.5863C20.0869 23.9408 19.8049 24.2248 19.4621 24.2248ZM15.8635 24.2248L14.1579 23.5375L15.8635 22.8475L17.6029 23.5375L15.8635 24.2248ZM12.9847 20.4422C12.9847 20.4422 12.6052 21.4565 11.5889 21.5198C11.5889 21.5198 10.7258 21.5602 10.5157 20.7173C10.5157 20.7173 11.2481 20.5261 11.5171 20.0163C11.5171 20.0163 11.2384 19.4315 10.1834 19.4315C10.1834 19.4315 10.1709 18.883 11.4586 17.659C11.4586 17.659 10.596 17.3106 9.78008 15.4828C8.9642 13.63 9.61311 12.1523 9.83089 11.845C10.045 11.5393 10.5258 10.9557 11.2102 10.5581C11.2102 10.5581 11.72 10.2528 12.3019 10.1895C12.3019 10.1895 12.7153 10.1286 13.1416 10.6408C13.5437 11.161 14.0329 11.7579 14.2789 12.9868C14.2789 12.9868 14.5148 14.3592 14.3789 15.2501C14.2539 16.1188 14.1075 16.6439 13.5945 17.1739C13.5945 17.1739 14.8863 17.659 15.5041 18.6237C15.5041 18.6237 14.4842 18.9544 14.2789 19.5525C14.2789 19.5525 14.5213 19.8909 15.4517 20.0788C15.4517 20.0788 15.4118 20.8177 14.5314 21.0056C14.5314 21.0052 13.4965 21.1145 12.9847 20.4422ZM12.2713 24.2248C11.9244 24.2248 11.6195 23.9408 11.6195 23.5863C11.6195 23.2415 11.9244 22.96 12.2713 22.96C12.6258 22.96 12.8924 23.2411 12.8924 23.5863C12.8924 23.9408 12.6258 24.2248 12.2713 24.2248ZM8.58631 24.4708L6.91784 23.8533L8.6109 23.0794L10.362 23.6654L8.58631 24.4708ZM5.6426 21.9788C5.41353 21.8106 5.49056 21.6279 5.49056 21.6279C6.07333 21.0177 6.12415 20.6677 6.12415 20.6677C5.61961 20.2785 4.3839 20.3789 4.3839 20.3789C4.58918 19.5207 5.16066 18.9371 5.16066 18.9371C3.40307 18.1148 3.45066 16.3189 3.45066 16.3189C3.45066 13.0799 6.4968 13.1312 6.4968 13.1312C6.30523 13.7668 6.42783 14.3665 6.5218 14.6238C6.6194 14.8625 6.82307 15.1259 7.20096 16.2846C7.56756 17.4308 7.31268 18.5483 7.31268 18.5483C8.61171 18.9117 9.184 19.6574 9.184 19.6574C8.44475 20.1748 8.44474 20.7011 8.44474 20.7011C9.06905 21.0052 9.88937 20.8423 9.88937 20.8423C9.83129 21.6388 8.98396 21.732 8.98396 21.732C7.93376 21.8703 7.13764 20.9367 7.13764 20.9367C7.10377 22.2042 5.89789 22.1333 5.6426 21.9788ZM31.0542 16.191C31.7015 15.9724 31.6249 15.2501 31.6249 15.2501C31.4858 14.4056 30.6034 14.5258 30.6034 14.5258C31.1631 13.8696 30.7187 13.359 30.7187 13.359C30.2864 12.8178 29.6032 13.1658 29.6032 13.1658C29.9145 12.4718 29.5027 12.1237 29.5027 12.1237C28.9542 11.6418 28.3864 12.1402 28.3864 12.1402C28.3695 11.4627 27.8811 11.309 27.8811 11.309C27.3023 11.0582 26.8813 11.5784 26.8813 11.5784C26.4594 10.4149 25.6286 11.0114 25.4318 11.0929C25.2338 11.207 25.2156 11.0929 25.2156 11.0929C25.1777 9.68736 23.9795 10.2137 23.9795 10.2137C24.3074 9.51192 23.742 9.11669 23.742 9.11669C23.1257 8.73678 22.6139 9.26873 22.6139 9.26873C22.5518 8.34114 21.861 8.617 21.6452 8.69806C21.4363 8.74484 20.9862 8.76138 20.9862 8.76138C19.567 8.58594 19.0451 8.66781 19.0451 8.66781C17.3166 8.63434 15.8635 11.4966 15.8635 11.4966V11.5212L15.8385 11.4966C15.8385 11.4966 14.3628 8.63434 12.6415 8.66781C12.6415 8.66781 12.1136 8.58635 10.7004 8.76138C10.7004 8.76138 10.26 8.74484 10.0406 8.69806C9.82323 8.61659 9.1352 8.34074 9.086 9.26873C9.086 9.26873 8.56896 8.73678 7.95272 9.11669C7.95272 9.11669 7.38729 9.51192 7.70872 10.2137C7.70872 10.2137 6.51011 9.68736 6.47139 11.0929C6.47139 11.0929 6.46615 11.207 6.25199 11.0929C6.06405 11.0114 5.23608 10.4149 4.81382 11.5784C4.81382 11.5784 4.3839 11.0582 3.81363 11.309C3.81363 11.309 3.31717 11.4627 3.30103 12.1402C3.30103 12.1402 2.72673 11.6418 2.17622 12.1237C2.17622 12.1237 1.76042 12.4718 2.06693 13.1658C2.06693 13.1658 1.39907 12.8178 0.97923 13.359C0.97923 13.359 0.530354 13.8696 1.09901 14.5258C1.09901 14.5258 0.188352 14.4056 0.0601023 15.2501C0.0601023 15.2501 -0.00966941 15.9724 0.626741 16.191C0.626741 16.191 -0.119368 16.5395 0.016545 17.1392C0.016545 17.1392 0.0596986 17.7361 0.833635 17.8518C0.833635 17.8518 0.187948 18.2813 0.45453 18.8826C0.45453 18.8826 0.712642 19.5864 1.54264 19.3819C1.54264 19.3819 1.23169 20.1034 1.71202 20.4301C1.71202 20.4301 2.16736 20.8177 2.72714 20.4354C2.72714 20.4354 3.02114 20.3277 3.14375 20.5386C3.14375 20.5386 3.35468 20.8778 2.90782 21.3754C2.90782 21.3754 5.32037 21.1686 5.97009 25.058H25.6879C26.3413 21.1686 28.7837 21.3754 28.7837 21.3754C28.3279 20.8778 28.5501 20.5386 28.5501 20.5386C28.6602 20.3281 28.9546 20.4354 28.9546 20.4354C29.5185 20.8177 29.9843 20.4301 29.9843 20.4301C30.4493 20.1034 30.1428 19.3819 30.1428 19.3819C30.9825 19.5864 31.2494 18.8826 31.2494 18.8826C31.4866 18.2817 30.8526 17.8518 30.8526 17.8518C31.6257 17.7361 31.6608 17.1392 31.6608 17.1392C31.7951 16.5395 31.0542 16.191 31.0542 16.191ZM6.19795 27.1931C6.23989 27.6524 6.2524 28.0739 6.2524 28.0739H25.4165C25.4165 28.0739 25.4322 27.6738 25.4709 27.2491C25.5145 26.789 25.5637 26.4203 25.5637 26.4203H6.10197C6.10197 26.4203 6.16326 26.8087 6.19795 27.1931ZM14.7633 8.07617C14.7633 8.07617 14.1474 8.06407 13.7421 8.26451C13.7421 8.26451 15.1726 8.64725 15.8639 10.3036C16.5604 8.64725 17.9828 8.26451 17.9828 8.26451C17.6033 8.06367 16.9601 8.07617 16.9601 8.07617C16.8975 7.85839 16.6552 7.6894 16.6552 7.6894C16.8447 7.46275 17.2182 7.21552 17.2182 7.21552L15.8639 4L14.5152 7.21552C14.5152 7.21552 14.8847 7.46275 15.0702 7.6894C15.0698 7.689 14.8213 7.85839 14.7633 8.07617Z" fill="#A6844B"/>
</svg>
