<svg width="32" height="32" viewBox="0 0 32 32" fill="none" xmlns="http://www.w3.org/2000/svg">
<path d="M5.33618 10.933C4.46464 11.2994 3.34962 11.8159 2.82396 12.6761C2.43484 13.3133 2.47808 13.402 2.47808 15.227C2.47808 15.7322 2.43484 15.9347 2.14585 16.2419C1.87961 16.5263 1.72032 16.6219 1.54055 16.6515C0.928427 16.7516 0.0295822 12.5555 0.0295822 12.0071C0.0295822 11.8637 0.0182044 11.841 0.0841956 11.7431C0.179769 11.6066 0.377742 11.4223 0.498347 11.4223C1.03538 11.4223 1.67026 12.1322 1.67026 12.1322C1.67026 12.1322 2.10716 11.7181 3.19488 10.8989C3.94581 10.3346 4.6262 9.88855 4.99257 9.88855C5.4181 9.88855 5.85045 10.289 5.85045 10.4825C5.85045 10.7214 5.62972 10.7806 5.343 10.9376" fill="#A20B31"/>
<path fill-rule="evenodd" clip-rule="evenodd" d="M4.93113 13.9572C4.93113 15.2498 5.6411 16.6379 7.19531 16.6379L7.19303 16.6401C7.65042 16.6401 8.02816 16.5173 8.38087 16.2533C9.0112 15.7845 9.65746 14.9835 10.1581 14.0596C10.6837 13.0857 10.9727 12.1163 10.9727 11.3244C10.9727 10.3209 10.1649 9.86353 9.4117 9.86353C9.18642 9.86353 9.03168 9.87945 8.75861 10.0797C8.62208 10.1798 8.41045 10.3846 8.25344 10.5894C8.24757 10.5796 8.23834 10.5682 8.23008 10.5579C8.22873 10.5563 8.22741 10.5546 8.22613 10.553C8.15787 10.4711 7.79605 10.0615 7.21351 9.99096C7.20441 9.98868 7.19531 9.98868 7.18393 9.98868C6.94044 9.98868 6.41934 10.3277 5.93692 10.9558C5.2406 11.8592 4.93113 12.7853 4.93113 13.9572ZM6.83349 11.4678C7.02692 11.3199 7.18848 11.2471 7.32501 11.2471H7.32956C7.39328 11.2471 7.44789 11.263 7.50023 11.2926C7.53436 11.3131 7.57305 11.3222 7.61401 11.3222C7.71641 11.3222 7.83246 11.2653 8.04636 11.131C8.06002 11.1856 8.0896 11.222 8.11691 11.2448C8.15104 11.2744 8.19883 11.2903 8.25799 11.2903C8.38287 11.2903 8.55364 11.2269 8.69321 11.1751L8.70172 11.172C8.74496 11.1538 8.78364 11.1401 8.81323 11.131C8.95886 11.0832 9.04761 11.0582 9.15456 11.0582C9.22965 11.0582 9.3184 11.0718 9.43673 11.1037L9.4385 11.1042C9.59961 11.1479 10.0853 11.2797 10.0853 12.1049C10.0853 12.4872 9.8213 13.2404 9.31612 13.939C8.98617 14.3942 8.29895 15.1633 7.39328 15.2088H7.34777C7.10201 15.2088 6.72427 15.1201 6.40114 14.8788C6.144 14.6877 5.8368 14.3236 5.8368 13.6887C5.8368 12.865 6.37156 11.8205 6.83349 11.4678Z" fill="#A20B31"/>
<path d="M11.2936 11.3358C11.2936 13.5271 11.6804 15.541 12.4223 16.3192C12.6316 16.5377 12.8683 16.6583 13.1322 16.6583C14.336 16.6583 15.7173 14.8196 16.1929 13.6545C16.3658 14.3509 16.7231 15.1155 17.0553 15.7139C17.3875 16.3124 17.8563 17.0474 18.1544 16.9382C18.4889 16.8176 18.7164 16.3761 18.7824 16.144C18.8712 15.8482 18.7392 15.8004 18.118 14.8037C17.499 13.8047 17.1281 12.2096 17.0689 11.7089C17.028 11.3449 16.8937 11.0854 16.5365 11.4131C16.3157 11.6179 16.095 11.8091 16.0427 12.0503C15.9448 12.5008 15.6626 13.2176 15.2371 13.8662C14.8526 14.4555 13.8968 15.1268 13.4895 15.1268C12.5952 15.1268 12.6817 11.2379 12.6817 10.6463C12.6817 10.0546 12.5588 9.85437 12.1833 9.85437C12.0104 9.85437 11.6326 10.1684 11.4483 10.3618C11.2617 10.5575 11.2913 10.7214 11.2913 11.3335" fill="#A20B31"/>
<path d="M22.8716 23.9333C21.6656 23.9333 20.8873 22.8751 20.4481 21.9877C19.9475 20.9773 19.7109 19.769 19.638 19.1C19.6107 18.8337 19.5834 18.5379 19.6494 18.3832C19.7518 18.1397 20.8373 17.5367 20.8737 17.6254C20.9124 17.7142 20.8964 18.2125 20.9169 18.4924C20.9966 19.5392 21.2196 20.6064 21.5268 21.4165C21.8635 22.3062 22.2663 22.7978 22.6668 22.7978C22.8693 22.7978 23.1856 22.3609 23.4633 21.1366C23.7136 20.0239 23.8592 19.2707 23.8592 17.8393C23.8592 16.5809 23.6476 14.6877 23.3836 14.4169L23.354 14.4374C22.503 15.0449 21.4448 15.7982 19.927 15.7982C18.7688 15.7982 18.3569 14.6627 18.3569 13.6C18.3569 12.9446 18.6891 12.0162 19.2034 11.2334C19.7791 10.355 20.4504 9.85213 21.0443 9.84985C21.6678 9.84985 22.4484 10.33 22.8124 10.7737C23.0286 11.0377 23.1265 11.5611 22.9945 11.7568C22.8602 11.9547 22.5143 12.1277 22.1321 12.1914C22.0934 12.1982 22.057 12.2005 22.0228 12.2005C21.7702 12.2005 21.6405 12.0412 21.5268 11.9001C21.4972 11.8637 21.4699 11.8296 21.4403 11.7977C21.1831 11.5224 20.9533 11.3654 20.8077 11.3654C20.034 11.3654 19.497 12.4872 19.497 13.4953C19.497 14.4829 20.6234 14.5102 20.6347 14.5102C21.24 14.5102 22.1343 14.2781 22.6714 13.98C23.2516 13.6591 23.5497 13.4589 23.8524 13.1835C23.8911 13.1494 23.9343 13.1312 23.9821 13.1312C24.3689 13.1312 24.7831 14.3646 24.9014 14.7423C25.22 15.7663 25.2791 16.9177 25.2791 17.8211C25.2791 18.8565 25.1449 20.1399 24.7717 21.503C24.3348 23.0913 23.6794 23.9333 22.8762 23.9333" fill="#A20B31"/>
<path fill-rule="evenodd" clip-rule="evenodd" d="M30.4401 15.1474C31.0249 14.8606 31.4209 14.5102 31.5529 14.3851L31.5506 14.3828C31.7554 14.1894 31.4436 15.0404 31.3617 15.1769C30.9953 15.7868 29.6596 16.7107 27.8892 16.6538C26.781 16.6174 25.0789 15.7777 25.0789 13.4361C25.0789 11.0946 26.872 9.83167 27.9802 9.83167C29.3592 9.83167 29.8985 10.4461 29.8985 11.0878C29.8985 12.7649 28.2965 13.5659 26.4283 13.5659C26.492 14.5375 27.1497 15.3476 28.4581 15.4705C29.4502 15.5638 29.853 15.4364 30.4401 15.1474ZM28.6424 11.4041C28.6424 11.0991 28.2647 10.8443 27.739 10.8443C27.1201 10.8443 26.4556 11.6999 26.4078 12.9219C27.6958 12.9037 28.6424 12.3871 28.6424 11.4041Z" fill="#A20B31"/>
</svg>
