<svg width="32" height="32" viewBox="0 0 32 32" fill="none" xmlns="http://www.w3.org/2000/svg">
<path fill-rule="evenodd" clip-rule="evenodd" d="M21.2018 1.73554C23.2213 2.41722 25.3579 2.93984 27.5366 3.19001L29.0563 3.20502L29.1032 3.16236C29.6908 3.1786 30.1793 3.01565 30.6901 2.84526C30.9691 2.7522 31.2548 2.65691 31.5669 2.58738L31.5735 2.58581C31.6722 2.56229 31.8924 2.50979 31.9871 2.63785C32.0313 2.80849 31.9623 2.99367 31.7711 3.1207C30.6889 3.95749 29.3986 4.57999 28.1821 5.02801V5.00289C27.8902 5.05959 27.5835 5.16772 27.2776 5.27553L27.2776 5.27554C27.1652 5.31516 27.0529 5.35473 26.9416 5.3917C25.4431 5.85033 23.7371 6.1383 22.1255 6.02099C20.7267 5.94845 19.4231 5.67989 18.162 5.42011C16.6397 5.10652 15.1794 4.80571 13.6887 4.87783C11.0121 4.71973 8.46667 5.7534 7.04199 7.79358C6.31096 8.86116 5.72955 9.98692 5.54823 11.225C5.59619 11.8912 6.16558 12.3135 6.74212 12.7412C7.13567 13.0331 7.53254 13.3274 7.76917 13.7035C7.98882 14.0711 8.1358 14.4634 8.28216 14.8541L8.28216 14.8541L8.28217 14.8541C8.35891 15.0589 8.43548 15.2633 8.52227 15.4634L8.57336 15.556L8.57336 15.556L8.57337 15.556C9.20277 16.6974 9.83073 17.8361 10.6042 18.9104L10.5843 18.933C11.0496 19.6709 11.7912 20.3099 12.668 20.7433C13.8049 21.5646 14.8085 22.5944 15.4052 23.7008L15.3742 23.7183C15.8372 24.4644 16.1602 25.2294 16.4866 26.0025L16.4866 26.0025L16.4866 26.0026C16.6336 26.3507 16.7813 26.7005 16.9427 27.0509C17.0363 27.3289 17.1338 27.5934 17.2299 27.8541L17.2299 27.8542L17.2299 27.8542L17.2299 27.8543L17.23 27.8544L17.23 27.8545C17.3732 28.243 17.5132 28.6229 17.6325 29.0261C17.6765 29.0667 17.6922 29.1233 17.7084 29.1821C17.7174 29.2146 17.7265 29.2477 17.7407 29.2792C17.7953 29.4373 17.8474 29.5985 17.8996 29.7598L17.8996 29.7599C18.0236 30.1429 18.1479 30.5273 18.3058 30.8753C18.2508 30.9177 18.2828 30.9451 18.3168 30.9742C18.3426 30.9963 18.3696 31.0194 18.3605 31.0507C18.364 31.1346 18.3891 31.2303 18.4151 31.3289C18.4819 31.5824 18.5538 31.8555 18.2761 32C17.8413 31.6117 17.5666 31.0832 17.3239 30.6163L17.3239 30.6163C17.2533 30.4805 17.1854 30.3498 17.1171 30.2294C16.4542 29.0609 15.6953 27.9313 14.8779 26.8201L14.9028 26.7975C14.833 26.7089 14.7623 26.6188 14.6906 26.5275C14.2465 25.962 13.7667 25.3512 13.2728 24.7835C11.9752 23.3315 10.3505 22.1908 8.72206 21.0473C7.31532 20.0595 5.90571 19.0697 4.70155 17.8756L4.67678 17.8982C4.52957 17.7648 4.4174 17.6027 4.30604 17.4418L4.30603 17.4418L4.30602 17.4418L4.30601 17.4417C4.24983 17.3606 4.19387 17.2797 4.13372 17.203L4.15115 17.1779C3.98452 16.9421 3.8535 16.6889 3.72214 16.435L3.72213 16.435C3.60391 16.2065 3.48542 15.9775 3.34047 15.7602L3.35782 15.7376C2.55386 14.5275 1.78057 13.2427 1.26061 11.9697C1.22267 11.7723 1.17459 11.5845 1.12631 11.3959C1.03681 11.0464 0.946618 10.6942 0.919102 10.2728L0.858485 10.0605C0.870647 9.84626 0.687551 9.66467 0.487382 9.46615C0.135893 9.11757 -0.268239 8.71677 0.239732 7.99515C0.434359 7.783 0.846045 7.55165 1.31537 7.2879C2.05369 6.873 2.93466 6.37793 3.33766 5.75134C3.33908 5.73675 3.34068 5.7219 3.34231 5.70684C3.35773 5.56389 3.37512 5.40265 3.25696 5.27721C3.25696 5.19317 3.19061 5.10558 3.12428 5.01801L3.12427 5.018C3.10424 4.99156 3.08422 4.96512 3.06602 4.93879C2.9069 4.73883 2.62954 4.69425 2.36792 4.65219C2.02691 4.59737 1.71266 4.54685 1.7219 4.16216C1.77731 4.15943 1.77387 4.13149 1.77004 4.10033C1.76682 4.07423 1.76333 4.04587 1.79389 4.02814C1.73827 3.69265 1.71521 3.47053 1.80881 3.18741C2.00943 2.62985 2.20505 1.98799 2.1657 1.42561C2.20617 1.21431 2.41527 1.08812 2.62624 1.00571C3.03877 0.90106 3.39948 0.844886 3.80434 0.79043L3.85526 0.832091C4.79066 0.754549 5.91405 0.822039 6.53478 1.56515C6.78542 2.09111 6.61912 2.70835 6.47329 3.24958L6.44264 3.36386C6.42315 3.49954 6.3507 3.62486 6.27855 3.74966C6.17694 3.92541 6.07591 4.10016 6.12417 4.30146C6.24707 4.42844 6.50505 4.42069 6.66912 4.35017C8.08129 3.48525 9.31412 2.28482 10.3425 1.07279C11.2904 0.17588 12.6863 -0.134393 13.97 0.0517853C15.7782 0.192754 17.3917 0.661677 19.0219 1.13545C19.7366 1.34314 20.4544 1.55176 21.1933 1.73409L21.2018 1.73554ZM14.4978 6.47818C14.762 6.83337 14.5808 7.15831 14.4045 7.47445C14.3362 7.59674 14.2688 7.71771 14.2281 7.8386C13.1979 9.40209 12.6205 11.1056 12.0424 12.8109L12.0424 12.8109L12.0424 12.8109L12.0424 12.8109C11.764 13.6322 11.4855 14.4538 11.1562 15.2604C11.0805 15.3458 10.9301 15.3718 10.8215 15.3379C10.5518 15.1432 10.5517 14.8221 10.5826 14.5409C10.7859 11.8509 11.4892 9.32719 12.6222 6.92236C12.8869 6.53741 13.3389 6.10102 13.9212 6.19214C14.141 6.23856 14.3376 6.31639 14.4978 6.47825V6.47818ZM18.1197 8.88667C18.3882 8.34455 18.657 7.80191 18.5201 7.18085V7.18093C18.2448 6.81969 17.7459 6.78232 17.248 6.83477C17.1126 6.8736 17.0547 6.93337 16.9844 7.00584L16.9844 7.00585C16.9471 7.04428 16.9064 7.08627 16.8489 7.13061C15.4175 9.63131 14.3938 12.3822 13.5476 15.0711C13.2241 16.2811 12.8819 17.6058 13.1793 18.8789C13.2119 18.9688 13.3174 19.0321 13.443 18.9972C13.5607 18.9526 13.6196 18.8149 13.6608 18.713C14.3293 16.2816 15.5177 14.0063 16.701 11.7404C17.0765 11.0215 17.4515 10.3035 17.8092 9.58173C17.892 9.34618 18.0058 9.11647 18.1197 8.88667ZM22.8154 7.33147C23.2154 7.63607 23.0091 8.2119 22.8519 8.56875C22.1535 10.132 21.2813 11.6089 20.412 13.081C19.1152 15.2769 17.8247 17.4622 17.1264 19.9079C16.9163 20.4723 16.7542 21.0491 16.5928 21.6239L16.5927 21.6241C16.5065 21.9311 16.4204 22.2375 16.3272 22.5413C16.28 22.6984 16.0528 22.7031 15.8907 22.6645C15.7641 22.3614 15.7715 21.9916 15.7784 21.6477C15.7799 21.5713 15.7814 21.4962 15.7814 21.4234C16.1489 18.141 16.925 14.952 18.5119 12.0944C19.2333 10.6671 19.9308 9.38312 20.6877 7.98985C20.9015 7.59617 21.2595 7.23931 21.7795 7.11037C22.1623 7.08779 22.5307 7.17814 22.8156 7.33147H22.8154ZM27.5457 8.72088C27.6729 8.33487 27.8103 7.91777 27.5826 7.53232V7.53255C27.2536 7.17387 26.8343 6.97211 26.2808 7.05643C25.7282 7.21352 25.3702 7.72547 25.189 8.14337C24.4472 10.0323 23.5063 11.839 22.5699 13.6371C21.8638 14.9929 21.1602 16.3439 20.5465 17.7216C20.4786 17.8927 20.4104 18.0639 20.3422 18.2351C19.2649 20.9392 18.1801 23.6622 18.0033 26.6568C18.0174 26.7216 18.0262 26.7883 18.035 26.8553C18.062 27.0613 18.0893 27.2694 18.2739 27.4267C18.2982 27.4197 18.3265 27.4209 18.3544 27.422C18.4063 27.4241 18.4568 27.4262 18.478 27.3753C18.7064 26.9586 18.8426 26.5018 18.9792 26.0438C19.0807 25.7034 19.1824 25.3623 19.3223 25.0366C19.3797 24.8823 19.4372 24.7278 19.4947 24.5732C20.385 22.1783 21.2881 19.7493 22.6255 17.5487C23.1329 16.6784 23.6783 15.8324 24.2227 14.988C25.4621 13.0654 26.6964 11.151 27.4656 8.97614C27.4889 8.8931 27.517 8.80778 27.5457 8.72088Z" fill="#F4CA35"/>
</svg>
