<svg width="32" height="32" viewBox="0 0 32 32" fill="none" xmlns="http://www.w3.org/2000/svg">
<rect width="32" height="32" rx="1" fill="#000F93"/>
<path d="M19.5138 23.6077C19.3091 23.4371 19.2409 23.2665 19.275 23.1642L19.4115 22.3795L19.6162 22.3113C19.9232 22.6183 20.9125 23.5736 22.243 23.5736C23.6703 23.5411 23.648 22.3983 23.6423 22.1101C23.642 22.0952 23.6418 22.0826 23.6418 22.0725C23.6418 21.629 22.9936 19.1386 22.823 18.4904C22.3113 16.5117 23.5394 14.6354 26.4392 14.6354C27.989 14.6354 28.707 15.0346 29.0203 15.2089L29.032 15.2154C29.2366 15.3177 29.1684 15.4883 29.1684 15.4883L29.0661 16.1023L28.8955 16.2047C28.4179 15.8976 27.872 15.5906 27.0533 15.5906C26.0981 15.5906 25.6204 16.307 25.8592 17.3305C25.9616 17.6717 26.6098 20.2303 26.7121 20.7079C27.1215 22.4478 25.9275 24.5288 22.7207 24.5288C20.9125 24.5288 19.8891 23.9147 19.5138 23.6077Z" fill="#FCFFFF"/>
<path d="M2.86562 23.0959C2.8315 23.2324 2.89973 23.403 3.10442 23.5736C3.47969 23.8806 4.60549 24.5288 6.37947 24.5288C9.5863 24.5288 10.7803 22.4478 10.3709 20.7079C10.3201 20.4706 10.1345 19.7195 9.95221 18.9819C9.76765 18.2351 9.58651 17.5021 9.55219 17.3305C9.27926 16.307 9.79099 15.5906 10.7121 15.5906C11.5309 15.5906 12.0767 15.8976 12.5543 16.2047L12.7249 16.1024L12.8272 15.4883C12.8272 15.4883 12.8955 15.3177 12.6908 15.2154C12.4179 15.0448 11.6673 14.6354 10.098 14.6354C7.23235 14.6354 5.9701 16.5117 6.48182 18.4904C6.6524 19.1386 7.30059 21.629 7.30059 22.0725C7.30059 22.0826 7.30084 22.0952 7.30113 22.1101C7.30678 22.3983 7.32917 23.5411 5.90186 23.5736C4.57137 23.5736 3.58204 22.6183 3.275 22.3113L3.07031 22.3795L2.86562 23.0959Z" fill="#FCFFFF"/>
<path fill-rule="evenodd" clip-rule="evenodd" d="M20.162 14.8401H17.501L17.194 14.9765L9.79099 24.1876L9.8251 24.3582H10.7121L10.9168 24.29L12.8955 21.7313L12.9978 21.6972H15.4541L15.5223 21.7313L15.0106 24.2559L15.1471 24.3582H18.3198L18.4562 24.29C18.4562 24.29 18.8315 22.3795 20.2643 14.9765L20.162 14.8401ZM13.6119 20.8444L16.2729 17.3646L16.3411 17.3305V17.3646L15.6929 20.8444L15.6247 20.8785H13.646L13.6119 20.8444Z" fill="#FCFFFF"/>
</svg>
