<svg width="32" height="32" viewBox="0 0 32 32" fill="none" xmlns="http://www.w3.org/2000/svg">
<path d="M13.0077 4.81519L18.8615 10.6689L15.3792 22.929L10.9397 18.5755L8.29817 8.02739" fill="#1082AD"/>
<path d="M22.8217 19.9109H29.4262L24.1431 24.7521L15.3792 22.9292" fill="#1082AD"/>
<path d="M24.1417 24.7521L16.22 26.9226L6.9781 31.7943L15.3778 22.9292" fill="#122E53"/>
<path d="M10.9397 27.6138L3.01653 29.1541L6.97811 31.7942" fill="#7EC2D4"/>
<path d="M22.8217 19.9109H29.4262L26.0782 18.5908" fill="#122E53"/>
<path d="M28.2654 20.972L29.4248 22.1272V19.9124" fill="#122E53"/>
<path d="M22.8217 19.9108L18.8615 10.6689L15.3792 22.9291" fill="#7EC2D4"/>
<path d="M8.29818 8.02888L9.61963 1.42716L4.33659 0.105713" fill="#122E53"/>
<path d="M13.0077 4.81537L9.61962 1.42725L8.29817 8.02758" fill="#7EC2D4"/>
</svg>
