<svg width="32" height="32" viewBox="0 0 32 32" fill="none" xmlns="http://www.w3.org/2000/svg">
<mask id="mask0" mask-type="alpha" maskUnits="userSpaceOnUse" x="1" y="2" width="30" height="27">
<path fill-rule="evenodd" clip-rule="evenodd" d="M25.1396 2.44412C23.1161 2.44412 21.8342 3.3746 20.2785 5.29171L4.10181 25.2206C1.79089 28.0674 1.00659 28.0674 1.00659 28.0674L24.0309 28.0674L30.9645 2.44412H25.1396Z" fill="white"/>
</mask>
<g mask="url(#mask0)">
<path d="M30.9645 28.0674L1.00659 28.0674L1.00659 25.2206L30.9645 25.2206V28.0674Z" fill="#B2B2B2"/>
<path d="M30.9645 25.2207L1.00659 25.2207L1.00659 22.3739L30.9645 22.3739V25.2207Z" fill="#008DB6"/>
<path d="M30.9645 22.373L1.00659 22.373L1.00659 19.5263L30.9645 19.5263V22.373Z" fill="#94C11F"/>
<path d="M30.9645 19.5264L1.00659 19.5264L1.00659 16.6796L30.9645 16.6796V19.5264Z" fill="#5588C7"/>
<path d="M30.9645 16.6794L1.00659 16.6794L1.00659 13.8327L30.9645 13.8327V16.6794Z" fill="#F39200"/>
<path d="M30.9645 13.832L1.00659 13.832L1.00659 10.9852L30.9645 10.9852V13.832Z" fill="#00AAD2"/>
<path d="M30.9645 10.9854L1.00659 10.9854L1.00659 8.13856L30.9645 8.13856V10.9854Z" fill="#9F043E"/>
<path d="M30.9645 8.13843L1.00659 8.13843L1.00659 5.29164L30.9645 5.29164V8.13843Z" fill="#FFD500"/>
<path d="M30.9645 5.29102L1.00659 5.29102L1.00659 2.44423L30.9645 2.44423V5.29102Z" fill="#00528D"/>
</g>
</svg>
