<svg width="32" height="32" viewBox="0 0 32 32" fill="none" xmlns="http://www.w3.org/2000/svg">
<rect width="32" height="32" fill="#0F1E46"/>
<g clip-path="url(#clip0)">
<path d="M25.5131 19.648L25.4472 19.6535L25.4857 19.659L25.5131 19.6481L25.5131 19.648ZM25.4308 19.6699L25.2936 19.6808L16.8624 20.2211L18.3554 21.0617L18.3664 21.0671V21.7985L25.4308 19.6699ZM25.5735 19.7026L25.5076 19.7245L20.2601 21.9349V21.9404L20.1448 22.3552L20.5894 22.1369L21.6927 22.8137L25.5735 19.7026ZM15.781 20.2812L6.62526 20.8815L9.86381 22.7536L9.89126 22.77L10.2481 24.402L17.3893 22.2843V21.2527V21.2254L15.781 20.2812H15.781ZM19.3763 22.3061L15.018 24.14L14.7765 24.2437L13.6622 24.7131L12.3778 26.1212L14.4911 25.117L16.813 26.3395L21.0286 23.3431L19.3763 22.3061ZM31.898 6L31.7868 6.00934L31.8517 6.01868L31.898 6V6ZM31.759 6.03738L31.5272 6.05608L17.2885 6.98162L19.81 8.42135L19.8285 8.43069V9.68343L31.759 6.03738ZM32 6.09347L31.8888 6.13089L23.0267 9.91717V9.92651L22.832 10.637L23.5829 10.2631L25.4461 11.4223L32 6.09347ZM15.4623 7.08446L0 8.11284L5.46929 11.3195L5.51564 11.3475L6.11819 14.1428L18.1784 10.5155V8.74855V8.70181L15.4623 7.08446ZM21.5342 10.5529L14.1738 13.6941L13.7659 13.8717L11.8841 14.6757L9.71495 17.0877L13.2839 15.3676L17.2051 17.4617L24.3245 12.3292L21.5342 10.5529Z" fill="white"/>
</g>
<defs>
<clipPath id="clip0">
<rect width="32" height="20.3395" fill="white" transform="translate(0 6)"/>
</clipPath>
</defs>
</svg>
