<svg width="32" height="32" viewBox="0 0 32 32" fill="none" xmlns="http://www.w3.org/2000/svg">
<path fill-rule="evenodd" clip-rule="evenodd" d="M19.2714 3.87085C20.2153 5.41238 18.9358 7.86687 17.0544 8.87894C15.173 9.89138 13.262 10.0352 12.1515 8.55997C11.1078 7.17233 12.0769 4.65189 13.9083 3.55187C15.7641 2.43708 18.0895 1.94149 19.2714 3.87085Z" fill="#F79718"/>
<path fill-rule="evenodd" clip-rule="evenodd" d="M12.4774 14.6979C13.4768 16.0862 11.8711 18.3418 9.9897 19.3538C8.10865 20.3663 6.06179 20.5371 4.95169 19.2241C3.83077 17.8985 5.22921 15.5326 7.06053 14.4326C8.916 13.3182 11.253 12.9967 12.4774 14.6979Z" fill="#F68E1B"/>
<path fill-rule="evenodd" clip-rule="evenodd" d="M6.03802 29.5587C4.51883 30.3762 1.7641 30.7575 1.09227 29.3529C0.442426 27.9938 1.89386 26.1628 3.48765 25.2055C5.0209 24.2847 7.07928 23.8831 8.14722 24.6797C9.98467 26.0504 7.84266 28.5874 6.03802 29.5587Z" fill="#F68D1A"/>
<path fill-rule="evenodd" clip-rule="evenodd" d="M23.3611 7.6644C23.9778 8.67143 23.0136 10.684 21.785 11.3454C20.5559 12.0064 19.3604 12.4476 18.326 11.571C17.1798 10.5997 18.3307 8.59862 19.4483 7.76243C20.6604 6.85561 22.5891 6.40399 23.3611 7.6644Z" fill="#F7AD10"/>
<path fill-rule="evenodd" clip-rule="evenodd" d="M18.0268 16.0802C18.6759 17.0663 17.5907 18.9813 16.362 19.6427C15.133 20.304 13.8189 20.6857 12.903 19.9573C11.727 19.022 12.9967 17.0144 14.1144 16.1783C15.3265 15.2714 17.3143 14.9975 18.0268 16.0802Z" fill="#F7A413"/>
<path fill-rule="evenodd" clip-rule="evenodd" d="M15.0339 24.1702C15.8272 25.1232 14.6125 26.8341 13.3986 27.5474C12.1952 28.2538 10.7596 28.5281 9.98432 27.9363C8.89728 27.1066 10.1371 25.2893 11.3363 24.4607C12.5815 23.6 14.3581 23.3578 15.0339 24.1702Z" fill="#F8A512"/>
<path fill-rule="evenodd" clip-rule="evenodd" d="M27.072 11.0199C27.5438 11.7901 26.9805 12.8754 26.1036 13.5786C25.2569 14.258 24.1173 14.5809 23.3362 13.9192C22.4856 13.1983 23.3907 11.7645 24.22 11.1439C25.1196 10.471 26.4993 10.0846 27.072 11.0199Z" fill="#FAC009"/>
<path fill-rule="evenodd" clip-rule="evenodd" d="M23.1604 17.3023C23.6668 18.0502 23.0688 19.1574 22.1919 19.8606C21.3453 20.54 20.2056 20.863 19.4246 20.2012C18.574 19.4804 19.5385 18.1057 20.3678 17.4854C21.2671 16.8125 22.5876 16.4557 23.1604 17.3023Z" fill="#FDCC05"/>
<path fill-rule="evenodd" clip-rule="evenodd" d="M21.027 23.3475C21.5525 23.9468 20.876 25.1434 19.9991 25.847C19.1521 26.5264 17.9209 26.7643 17.2908 26.2467C16.5437 25.6329 17.4938 24.2402 18.3227 23.6199C19.2224 22.9467 20.4738 22.7171 21.027 23.3475Z" fill="#FBBD0B"/>
<path fill-rule="evenodd" clip-rule="evenodd" d="M29.7226 13.3708C30.0686 13.945 29.5781 14.7743 28.952 15.3135C28.3414 15.8401 27.4397 16.1111 26.956 15.6851C26.406 15.2007 26.9873 14.1263 27.5698 13.6238C28.238 13.0475 29.3395 12.735 29.7226 13.3708Z" fill="#FAC009"/>
<path fill-rule="evenodd" clip-rule="evenodd" d="M26.8778 18.2009C27.2238 18.7754 26.7332 19.6044 26.1075 20.1439C25.4966 20.6702 24.5948 20.9416 24.1111 20.5155C23.5611 20.0311 24.1429 18.9563 24.7253 18.4539C25.3932 17.8779 26.4946 17.5655 26.8778 18.2009Z" fill="#FDCC05"/>
<path fill-rule="evenodd" clip-rule="evenodd" d="M25.324 22.8415C25.6458 23.3753 25.249 24.1755 24.6676 24.6765C24.1 25.1659 23.0544 25.4474 22.6049 25.0517C22.0942 24.6015 22.6936 23.5732 23.2349 23.1064C23.8556 22.5709 24.9679 22.2512 25.324 22.8415Z" fill="#FDCC05"/>
<path fill-rule="evenodd" clip-rule="evenodd" d="M31.6826 15.128C31.9497 15.5709 31.5712 16.2103 31.0886 16.6263C30.6175 17.0325 29.9219 17.2415 29.5489 16.9132C29.1247 16.5398 29.5903 15.7191 30.0394 15.3316C30.5548 14.8872 31.387 14.6378 31.6826 15.128Z" fill="#FFFF00"/>
<path fill-rule="evenodd" clip-rule="evenodd" d="M29.6065 18.8882C29.8736 19.3312 29.4952 19.9706 29.0126 20.3865C28.5415 20.7927 27.8459 21.0018 27.4728 20.6731C27.0486 20.2997 27.5143 19.4793 27.9634 19.0919C28.4788 18.6475 29.3114 18.3981 29.6065 18.8882Z" fill="#FFFF00"/>
<path fill-rule="evenodd" clip-rule="evenodd" d="M28.6878 22.3851C28.9549 22.828 28.5764 23.4674 28.0938 23.8833C27.6228 24.2895 26.9271 24.4986 26.5541 24.1699C26.1302 23.7965 26.5955 22.9762 27.0446 22.5887C27.56 22.1443 28.3926 21.8949 28.6878 22.3851Z" fill="#FFFF00"/>
</svg>
