<svg width="32" height="32" viewBox="0 0 32 32" fill="none" xmlns="http://www.w3.org/2000/svg">
<path d="M0.0065918 16.6049C5.23449 30.2162 31.4934 24.2445 31.094 9.80127C33.3344 26.0978 2.94919 31.287 0.0065918 16.6049Z" fill="#8CBD00"/>
<path d="M9.9377 6.3048C8.95752 6.00004 8.22033 6.01651 7.33487 6.01651C4.86383 6.01651 3.25601 6.81137 3.25601 8.56169C3.25601 10.5838 6.87361 11.3045 6.87361 12.5277C6.87361 13.1125 6.2435 13.1578 5.49395 13.1743C4.64967 13.1867 3.82187 13.0054 2.98007 12.6842L3.04144 14.7352C4.03603 15.1182 5.04916 15.0894 6.04581 15.0894C7.59433 15.0894 10.0901 14.7352 10.0901 12.5771C10.0901 10.3532 6.56473 9.80133 6.56473 8.60699C6.56473 8.20751 7.05894 8.00982 7.93204 8.00982C8.69806 8.00982 9.40231 8.1169 10.0901 8.33106L9.9377 6.3048Z" fill="#003173"/>
<path d="M11.2103 6.10718L10.7037 14.9659H13.9737L14.1138 11.6423L16.383 14.9659H20.3037L16.6878 10.3244L18.574 8.31464L17.1779 6.10718L14.2662 9.17127L14.4968 6.10718H11.2103Z" fill="#003173"/>
<path d="M20.2296 14.9659L20.5344 11.424L17.1779 6.10718H20.6744L22.2682 9.15892L24.3686 6.10718H27.9392L23.6314 11.6423L23.5408 14.9659H20.2296Z" fill="#8CBD00"/>
<path fill-rule="evenodd" clip-rule="evenodd" d="M5.41571 21.8024L8.23682 16.6379H9.55471L11.5027 21.8024H10.2137L9.53823 19.9615H7.7179L6.85715 21.8024H5.41571ZM9.38585 19.1666L8.82163 17.5728L8.00619 19.1666H9.38585Z" fill="#003173"/>
<path fill-rule="evenodd" clip-rule="evenodd" d="M12.314 16.9756C12.314 16.6049 12.6682 16.3167 13.0965 16.3167C13.5331 16.3167 13.8832 16.6049 13.8832 16.9756C13.8832 17.3421 13.5331 17.6345 13.0965 17.6345C12.6682 17.6345 12.314 17.3421 12.314 16.9756ZM12.1905 21.8024L12.5282 17.9558H13.7308L13.4466 21.8024H12.1905Z" fill="#003173"/>
<path fill-rule="evenodd" clip-rule="evenodd" d="M20.5797 16.9756C20.5797 16.6049 20.9339 16.3167 21.3622 16.3167C21.7905 16.3167 22.1447 16.6049 22.1447 16.9756C22.1447 17.3421 21.7905 17.6345 21.3622 17.6345C20.9339 17.6345 20.5797 17.3421 20.5797 16.9756ZM20.4602 21.8024L20.7979 17.9558H21.9923L21.7163 21.8024H20.4602Z" fill="#003173"/>
<path d="M14.5586 21.8024L14.9704 17.9558H15.9671L15.9218 18.4006C16.1689 18.0464 16.5189 17.8158 16.9019 17.8158C17.149 17.8158 17.2396 17.8487 17.3632 17.9558L17.2396 18.8124C17.0255 18.7383 17.042 18.7383 16.766 18.7383C16.1812 18.7383 15.8929 19.5043 15.86 19.8091L15.6788 21.8024H14.5586Z" fill="#003173"/>
<path d="M18.3269 16.6379L17.8698 21.8024H19.1259L19.4924 16.6379H18.3269Z" fill="#003173"/>
<path d="M22.9436 21.8023L23.2196 17.9557H24.2615L24.1997 18.5694C24.5951 18.141 24.9658 17.8651 25.6865 17.8651C26.5266 17.8651 27.095 18.2934 27.0662 18.9647L26.9261 21.8023H25.8677L25.9913 19.5042C26.0242 19.1665 25.8842 18.7053 25.2417 18.7053C24.7351 18.7053 24.2121 19.1954 24.1668 19.6566L24.0309 21.8023H22.9436Z" fill="#003173"/>
<path fill-rule="evenodd" clip-rule="evenodd" d="M28.1987 19.9614C28.1987 18.7053 28.8741 17.8486 30.2085 17.8486C32.0618 17.8486 32.0453 19.0594 31.9382 19.809H29.1789C29.1789 20.4226 29.6402 21.1887 30.4062 21.1887C30.9251 21.1887 31.3575 21.0363 31.7859 20.8839L31.5717 21.7364C31.3987 21.7694 30.9787 21.8023 30.4227 21.8023C28.4458 21.8023 28.1987 20.7274 28.1987 19.9614ZM30.9581 19.3354C31.0487 18.8741 30.8345 18.5076 30.2373 18.5076C29.6237 18.5076 29.3478 18.9359 29.2736 19.3354H30.9581Z" fill="#003173"/>
</svg>
