<svg width="32" height="32" viewBox="0 0 32 32" fill="none" xmlns="http://www.w3.org/2000/svg">
<path d="M14.4973 13.7243L13.7645 13.8205L13.9226 12.2565L15.8786 12L15.4566 15.0601L15.1545 16.4007L16.9937 12.2113L18.6058 12L18.3947 14.8743C18.3947 14.8755 18.3946 14.8766 18.3946 14.8776C18.3945 14.8799 18.3944 14.882 18.3941 14.8846L18.1611 16.4157L19.7245 12.2602L21.7078 12L19.2652 17.8231H16.8736L17.0224 15.7528C17.062 15.2979 17.0775 15.1724 17.1324 14.7408C17.0067 15.0704 16.9597 15.1883 16.811 15.5409L15.7597 17.8231H13.36L13.6047 15.4007L14.4973 13.7243Z" fill="#1C4E9C"/>
<path d="M11.1857 17.0691L12.4009 14.144L14.2474 13.9021L12.1612 17.784L12.1586 17.7889C12.0967 17.9048 12.0348 18.0208 11.9652 18.1367L11.9504 18.1656C11.8062 18.4467 11.6596 18.7325 11.4398 18.9605C10.9064 19.5093 10.2394 19.5093 9.76115 19.5093C9.13182 19.5093 8.87055 19.4793 8.60249 19.4485L8.58505 19.4465L9.08601 18.3445C9.12944 18.3445 9.17095 18.3452 9.21935 18.3461L9.21945 18.3461C9.28717 18.3473 9.36836 18.3488 9.48708 18.3488H9.49084C9.84255 18.3488 10.1819 18.3488 10.1819 17.7548C10.1819 17.7068 10.1652 17.5921 10.1521 17.5014C10.1459 17.459 10.1405 17.4219 10.1379 17.3993L9.682 14.482L9.01808 15.0942L9.44139 17.8231H7.61399L7.44152 16.4193L6.87692 16.9997L6.66527 17.8231H4.88496L6.32983 12.2406L8.16452 12L7.42884 14.8594L6.9439 15.6609L8.33527 14.1346L11.2611 13.8314L11.383 16.0899L11.1857 17.0691Z" fill="#1C4E9C"/>
<path d="M5.62323 13.4C5.62323 13.4834 5.6195 13.5776 5.61078 13.6689L3.8349 13.9021C3.85985 13.8077 3.87409 13.6433 3.87409 13.5881C3.87409 13.196 3.55265 13.1022 3.32535 13.1022C2.87809 13.1022 2.70562 13.3607 2.70562 13.5804C2.70562 13.7215 2.79179 13.8392 2.86255 13.8941C2.98023 14.0038 3.07422 14.043 3.54458 14.2077L4.1016 14.4117L4.10642 14.4137C4.54579 14.6021 5.20743 14.8857 5.20743 15.8467C5.20743 16.3724 4.97977 16.8977 4.5095 17.3056C3.79584 17.9172 2.90159 17.9646 2.33694 17.9646C0.980295 17.9646 0 17.6582 0 16.4977V16.4568L1.89843 16.2078C1.89843 16.242 1.8964 16.269 1.8943 16.2966C1.8921 16.3257 1.88984 16.3556 1.88984 16.3958C1.88984 16.5055 1.90566 16.6156 1.95284 16.7095C2.03102 16.8507 2.22719 16.9997 2.51747 16.9997C3.01942 16.9997 3.20761 16.6231 3.20761 16.388C3.20761 16.2546 3.14489 16.1292 3.06651 16.0509C2.94883 15.9254 2.7998 15.8703 2.39206 15.7214L1.85099 15.5173C1.37253 15.321 0.713654 15.0391 0.713654 14.1217C0.713654 13.5412 1.01167 12.9372 1.62328 12.5532C2.22719 12.1845 2.94883 12.1453 3.36452 12.1453C4.68997 12.1453 5.62323 12.4354 5.62323 13.4Z" fill="#1C4E9C"/>
<path fill-rule="evenodd" clip-rule="evenodd" d="M22.2336 17.216C22.5763 17.216 22.7284 17.063 22.8523 16.6935L24.5261 16.4711C24.4301 16.8402 24.3324 17.1464 24.0202 17.4235C23.5416 17.8485 22.8159 17.9408 22.0976 17.9408C21.8701 17.9408 21.6346 17.925 21.4076 17.8857C21.1485 17.8389 20.8898 17.7682 20.6858 17.6112C20.2311 17.2821 20.2229 16.788 20.2229 16.5998C20.2229 16.1292 20.4115 15.345 20.6462 14.8978C20.9601 14.3017 21.5011 13.7841 22.8973 13.7841C23.9788 13.7841 24.7622 14.1782 24.7622 15.1724C24.7622 15.5409 24.6815 15.8576 24.6421 15.991L21.9486 16.3486C21.9383 16.3909 21.9271 16.43 21.9161 16.4686L21.9161 16.4687C21.8885 16.5654 21.8616 16.6597 21.8504 16.7953C21.8279 17.067 21.9901 17.216 22.2336 17.216ZM23.2146 14.8978C23.2146 14.6467 23.0732 14.5373 22.8615 14.5373C22.3895 14.5373 22.2685 15.0143 22.145 15.5012L22.1449 15.5013L22.1449 15.5014C22.1295 15.562 22.1141 15.6228 22.0979 15.6829L23.0757 15.5529C23.1239 15.3976 23.2146 15.0726 23.2146 14.8978Z" fill="#1C4E9C"/>
<path d="M27.7602 15.3292L27.2816 15.1802C26.9211 15.0704 26.6546 14.9841 26.6546 14.7567C26.6546 14.5762 26.8352 14.4745 27.0622 14.4745C27.2897 14.4745 27.4388 14.5449 27.4388 14.7726C27.4388 14.7921 27.4323 14.8489 27.4259 14.9058C27.4194 14.9629 27.4129 15.02 27.4129 15.0396L28.958 14.8368C28.9638 14.7872 28.968 14.7405 28.968 14.7097C28.968 13.996 28.1995 13.7764 27.0935 13.7764C26.6387 13.7764 26.1682 13.8314 25.7608 14.0353C25.1799 14.3176 24.9449 14.8035 24.9449 15.2272C24.9449 15.9331 25.486 16.1527 25.8467 16.2939L26.341 16.4744C26.6936 16.592 26.8975 16.6624 26.8975 16.8898C26.8975 17.0468 26.7567 17.2192 26.4586 17.2192C26.3251 17.2192 26.0415 17.1958 26.0415 16.8507C26.0415 16.8035 26.0557 16.7254 26.0636 16.686L24.5225 16.8882C24.5214 16.9132 24.5215 16.9389 24.5215 16.9665V16.9666L24.5215 16.9842C24.5215 17.4752 24.8549 17.7824 25.4625 17.8702C25.8859 17.9408 26.262 17.9408 26.3955 17.9408C26.8192 17.9408 27.4699 17.8935 27.9252 17.5958C28.3485 17.3134 28.6307 16.8192 28.6307 16.3569C28.6229 15.6385 28.0714 15.4408 27.7646 15.3308L27.7602 15.3292Z" fill="#1C4E9C"/>
<path d="M29.4169 14.715L30.395 14.5598L29.0467 14.5615L29.2237 13.9021H29.6314L29.8349 13.088L31.702 12.8434L31.4273 13.9021H32L31.8312 14.5615H31.2588L30.8549 16.1055C30.8506 16.125 30.8465 16.1438 30.8425 16.1618C30.7816 16.4397 30.7608 16.5347 30.7608 16.6231C30.7608 16.8977 31.0352 16.8977 31.1454 16.8977C31.2393 16.8977 31.3175 16.8898 31.4117 16.874L31.1841 17.7604C30.8786 17.8231 30.5256 17.8935 30.1177 17.8935C29.8902 17.8935 29.671 17.8702 29.4588 17.7916C28.9883 17.6112 28.8944 17.2978 28.8944 16.976C28.8944 16.7645 28.9415 16.5683 28.9963 16.3487L29.4169 14.715Z" fill="#1C4E9C"/>
</svg>
