<svg width="32" height="32" viewBox="0 0 32 32" fill="none" xmlns="http://www.w3.org/2000/svg">
<g clip-path="url(#clip0)">
<path fill-rule="evenodd" clip-rule="evenodd" d="M0 9.75206e-05C0 9.75206e-05 1.10163 -0.14707 1.37036 9.75206e-05C7.10883 3.14279 10.6994 6.43258 13.2493 8.98255C17.2534 12.9866 31.3532 32.0001 31.3532 32.0001H0V9.75206e-05Z" fill="#0B872E"/>
<path fill-rule="evenodd" clip-rule="evenodd" d="M1.02306 0H32V32C32 32 23.3218 18.3329 17.6865 12.4124C12.0513 6.49188 1.02306 0 1.02306 0Z" fill="#003167"/>
<path d="M25.365 21.0236C24.0688 19.1268 22.9696 16.5337 19.7765 13.9383C20.2762 13.0402 24.4678 12.7411 24.4678 12.7411C22.9696 10.8447 21.2698 10.878 20.6751 10.9444C17.1828 11.3444 14.8883 8.74839 14.4872 8.15132C10.9949 2.96224 3.99369 1.09743 1 0C1.79896 1.09743 2.93246 2.03697 3.21138 2.34205C4.56103 3.81035 7.58801 7.1691 8.10079 7.65162C10.5628 9.98059 12.1606 10.1128 12.1606 10.1128C8.63378 7.78573 6.30482 4.19259 3.7112 1.86481C5.7742 2.86249 8.02839 5.37722 8.43441 5.85617C10.3633 8.11683 12.0939 9.6475 13.5565 10.7123C10.4963 11.2446 7.77801 10.5627 7.10364 10.5129C5.30886 10.3793 2.78052 9.58038 2.78052 9.58038C3.5117 11.1775 5.90593 11.8429 6.30482 12.1089C7.10364 12.6412 8.10079 14.5036 8.10079 14.5036C11.028 13.6394 11.9611 13.5493 12.6258 13.5053C17.6138 13.1735 20.9088 20.2447 21.341 20.8905C22.6706 22.886 25.4648 26.6785 26.6625 28.008C22.3382 23.9507 20.9161 21.5279 20.408 20.7576C17.8155 16.8332 15.9185 15.2355 14.7886 14.4366C20.0767 21.3227 21.5559 24.5324 24.5674 27.5095C28.639 31.5288 31.5519 32 31.5519 32C27.6608 25.9118 25.8968 21.8047 25.365 21.0236Z" fill="white"/>
</g>
<defs>
<clipPath id="clip0">
<rect width="32" height="32" fill="white"/>
</clipPath>
</defs>
</svg>
