<svg width="32" height="32" viewBox="0 0 32 32" fill="none" xmlns="http://www.w3.org/2000/svg">
<g clip-path="url(#clip0)">
<path d="M5.55979 25.4756C11.6087 23.4011 16.7696 20.3205 17.2801 19.8823C14.7691 20.6403 13.7197 19.6735 13.7197 19.6735C14.4308 19.4955 16.4267 19.1353 16.8887 17.9621C17.2442 16.6109 15.9289 16.0778 15.1113 15.4019C10.2043 12.3087 5.08394 9.74849 0 7.08192C7.53774 7.68612 14.4354 11.6201 22.1513 9.91327L20.4803 11.5622C20.0536 12.1664 19.52 13.0551 20.0889 13.7663L20.4803 14.1218C20.4803 14.1218 21.8333 14.77 23.1822 13.6246C24.5316 12.4787 28.4922 5.31731 32 7.36638C26.132 10.1179 25.9719 13.5587 22.4826 17.2758C19.4506 20.7206 14.1689 23.7011 5.55979 25.4756Z" fill="#EE293D"/>
</g>
<defs>
<clipPath id="clip0">
<rect width="32" height="32" fill="white"/>
</clipPath>
</defs>
</svg>
