<svg width="32" height="32" viewBox="0 0 32 32" fill="none" xmlns="http://www.w3.org/2000/svg">
<path fill-rule="evenodd" clip-rule="evenodd" d="M20.7835 9.16722C23.301 9.40632 25.8286 7.55344 26.4279 5.0276C27.0271 2.50175 25.4715 0.260556 22.954 0.0208558C20.4366 -0.218845 17.9095 1.63524 17.3115 4.16108C16.711 6.68632 18.2673 8.92752 20.7835 9.16722ZM29.3936 17.6988C29.9485 15.5277 29.2605 13.8869 28.0411 13.0737C26.477 12.0598 24.2196 12.0982 22.5555 14.0313C21.9153 14.7746 21.5549 15.9448 21.1388 17.2961C20.6934 18.7425 20.184 20.3965 19.1991 21.9564C17.668 24.3816 15.9194 26.0727 12.8992 27.2197C10.4405 28.1539 7.73785 28.8017 5.44931 27.1645C6.77845 28.7603 9.12571 30.1242 11.977 30.4143C14.5513 30.6767 19.3651 29.8833 22.9768 27.113C24.9729 25.6215 28.3287 21.96 29.3936 17.6988Z" fill="#C5D700"/>
<path fill-rule="evenodd" clip-rule="evenodd" d="M5.70458 10.4221C4.25679 11.0597 3.47777 12.7364 3.96256 14.1681C4.44795 15.5978 6.0132 16.2403 7.46039 15.6021C8.90818 14.9639 9.68781 13.2866 9.20301 11.8555C8.71762 10.426 7.15177 9.78394 5.70458 10.4221ZM5.82204 20.7712C6.70114 20.6825 7.77679 21.0337 8.16691 22.1507C8.60196 23.3941 9.95267 26.7607 12.9591 27.1982C10.4429 28.1654 7.73964 28.8012 5.4511 27.1658C4.72241 26.2915 4.09619 25.1314 3.75702 23.7806C3.41784 22.4251 4.31252 20.9246 5.82204 20.7712Z" fill="#6DB327"/>
</svg>
