<svg width="32" height="32" viewBox="0 0 32 32" fill="none" xmlns="http://www.w3.org/2000/svg">
<g clip-path="url(#clip0)">
<path d="M27.5336 3.03036C21.4728 2.84887 16.412 5.67185 16.412 5.67185L23.717 5.78817C23.717 5.78817 25.6409 3.81591 27.5336 3.03036Z" fill="#2E3192"/>
<path d="M12.3301 8.72444C12.3301 8.72444 13.4092 7.29561 15.4134 6.25464C15.6345 6.30579 23.1798 6.25324 23.1539 6.34819C22.3007 7.32889 21.4766 8.86879 21.4766 8.86879L12.3301 8.72444Z" fill="#2E3192"/>
<path d="M9.94403 11.9996C9.94403 11.9996 10.203 10.9877 11.2148 10.0617C11.2148 10.0617 20.8495 9.99337 20.8561 10.1178C20.3089 10.9881 20.114 12.028 20.114 12.028L9.94403 11.9996Z" fill="#ED1C24"/>
<path d="M8.70227 15.0904C8.70227 15.0904 8.87956 13.7092 9.40828 13.0884C9.62937 13.1395 19.6144 13.2086 19.8025 13.2299C19.4518 14.2776 19.4042 15.1535 19.4042 15.1535L8.70227 15.0904Z" fill="#2E3192"/>
<path d="M8.20058 18.0173C8.20058 18.0173 8.19427 17.3 8.42026 16.8516C8.79517 16.8631 19.0006 16.9735 19.2511 16.991C19.1165 17.601 19.1716 18.0558 19.1716 18.0558L8.20058 18.0173Z" fill="#2E3192"/>
<path d="M7.93884 20.9529C7.93884 20.9529 7.88803 20.3839 8.02748 20.0647C8.11157 20.0808 19.2073 20.1232 19.2903 20.1187C19.2903 20.5139 19.3951 20.9242 19.3951 20.9242L7.93884 20.9529Z" fill="#2E3192"/>
<path d="M8.64795 24.24L8.50079 23.7412C8.50079 23.7412 19.7626 23.7803 19.8249 23.7763C19.8831 24.1479 19.9392 24.2412 19.9392 24.2412L8.64795 24.24Z" fill="#2E3192"/>
<path d="M0 25.8087C0 25.8087 31.0629 25.7403 31.9799 25.973C26.5396 26.3206 24.7726 28.9084 24.7726 28.9084L0 25.8087Z" fill="#2E3192"/>
</g>
<defs>
<clipPath id="clip0">
<rect width="32" height="32" fill="white"/>
</clipPath>
</defs>
</svg>
