<svg width="32" height="32" viewBox="0 0 32 32" fill="none" xmlns="http://www.w3.org/2000/svg">
<path d="M2.16883 19.503C0.96499 19.1661 0.189761 18.2088 0.0371443 16.8707C-0.237091 14.4662 1.02343 12.9353 3.28017 12.932C4.49265 12.9303 5.43552 13.4109 5.43552 14.0308C5.43552 14.326 5.26473 14.7653 5.09527 14.9059C5.02232 14.9665 4.87755 14.9162 4.53243 14.7106C3.60373 14.1574 2.62932 14.2916 2.1937 15.0328C1.98981 15.3796 1.94843 15.8542 1.98146 16.2376C1.98146 16.2376 2.07595 17.4632 2.4458 17.8045C2.70337 18.0423 3.07186 18.1759 3.46973 18.1759C3.83204 18.1759 4.48581 17.9337 4.72181 17.712C4.94515 17.5022 5.05163 17.5778 5.27988 18.1084C5.55725 18.7531 5.43018 19.001 4.63573 19.3647C4.25069 19.541 4.06143 19.5759 3.38359 19.5959C2.83359 19.6121 2.45551 19.5832 2.16883 19.503ZM7.71202 19.486C6.78021 19.2342 6.24336 18.7664 5.79152 17.8126C5.55417 17.3116 5.52312 16.2759 5.50955 16.1691C5.49597 16.0622 5.55723 15.0817 5.77157 14.6446C6.3287 13.5082 7.2752 12.9332 8.59004 12.9323C9.3232 12.9319 9.60276 13.003 10.1493 13.3292C10.9288 13.7945 11.2885 14.5905 11.2885 15.8503V16.5797H9.34171H7.39493L7.44774 16.8612C7.51242 17.206 7.72653 17.6374 7.91963 17.812C8.49034 18.3281 9.67396 18.2789 10.396 17.7091C10.5531 17.5851 10.7162 17.505 10.7585 17.5311C10.9029 17.6204 11.2125 18.3226 11.2125 18.561C11.2125 18.8739 10.8853 19.1795 10.3157 19.3988C9.71033 19.6318 8.41256 19.6753 7.71202 19.486ZM9.53422 15.1405C9.45672 14.6502 9.35876 14.4793 9.06943 14.3297C8.72359 14.1509 8.08086 14.2167 7.81954 14.4576C7.58902 14.6702 7.41185 15.0463 7.41185 15.323V15.5155H8.50268H9.59351L9.53422 15.1405ZM14.7797 19.5162C14.5886 19.4647 14.2808 19.3339 14.0956 19.2256L13.7589 19.0286L13.6223 19.2104C13.4952 19.3796 13.4362 19.3921 12.7672 19.3921H12.0486V14.7271V10.062L12.3354 10.0162C12.6922 9.95912 13.3699 10.061 13.5328 10.1963C13.8296 10.4425 13.8729 10.6792 13.8729 12.0532C13.8729 12.7869 13.8933 13.3872 13.9182 13.3872C13.9431 13.3872 14.0543 13.3235 14.1652 13.2457C14.5239 12.9942 14.9205 12.9117 15.6123 12.9448C16.3782 12.9814 16.8229 13.1599 17.2534 13.6034C17.889 14.2583 18.0542 14.7985 18.052 16.2143C18.0507 17.0877 18.0253 17.297 17.8663 17.7476C17.6441 18.3771 17.3515 18.7591 16.973 19.091C16.5945 19.4229 16.3096 19.456 16.0393 19.4993C15.6547 19.5612 15.2485 19.6427 14.7797 19.5162V19.5162ZM15.5349 17.8943C15.8959 17.6307 16.0324 17.2328 16.0641 16.3507C16.0985 15.3934 16.0059 14.9932 15.6632 14.6192C15.4259 14.3602 15.3771 14.3414 14.8722 14.3128C14.3563 14.2837 14.0716 14.3414 13.961 14.452C13.8504 14.5625 13.8729 14.7437 13.8729 14.7437V16.2225C13.8729 17.855 13.8568 17.7993 14.3853 17.9953C14.7478 18.1298 15.2759 18.0834 15.5349 17.8943Z" fill="#496AA5"/>
<path d="M19.9755 22.4125C19.6899 22.3152 19.3701 22.1494 19.2648 22.0441C18.9522 21.7316 19.0212 21.2503 19.4575 20.6986L19.6034 20.5142L19.973 20.7489C20.4068 21.0244 21.0421 21.2253 21.4776 21.2247C22.4862 21.2234 23.0395 20.6515 23.0407 19.6091L23.0411 19.2473L22.642 19.4571C22.2861 19.6442 22.165 19.6666 21.5209 19.6642C20.9325 19.6621 20.7249 19.6287 20.4003 19.4841C19.4556 19.0634 18.9364 18.0093 18.9364 16.5124C18.9364 15.4544 19.2559 14.4136 19.7416 13.8895C20.0328 13.6162 20.0351 13.6167 20.3806 13.4361C20.7117 13.2633 20.9273 13.2108 21.4163 13.1838C22.092 13.1465 22.4197 13.2221 22.8505 13.5144L23.1235 13.6997L23.3361 13.5425C23.6285 13.3263 24.0672 13.2355 24.5478 13.2915L24.9523 13.3387L24.9215 16.7308C24.8887 20.3282 24.8762 20.4613 24.5005 21.196C23.976 22.2219 23.1711 22.5947 21.488 22.5914C20.6509 22.5897 20.413 22.5616 19.9755 22.4125H19.9755ZM22.8441 18.1582L23.0411 18.0291V16.4741V14.9192L22.7236 14.7572C22.0377 14.4073 21.245 14.745 21.0249 15.481C20.7931 16.2558 20.9291 17.5817 21.2817 17.986C21.5937 18.3436 22.4218 18.4349 22.8441 18.1582ZM27.9805 19.7589C27.0462 19.5462 26.2681 18.8728 25.9282 17.9827C25.7148 17.4239 25.638 16.2357 25.7749 15.6121C25.8973 15.0546 26.2713 14.3486 26.6402 13.9784C26.8011 13.817 27.1603 13.5771 27.4383 13.4453C27.925 13.2148 28.4588 13.1653 28.7692 13.1655C29.0649 13.1657 29.9549 13.2229 30.3478 13.4069C31.5265 13.9588 32.1028 15.1575 31.9849 16.812C31.8503 18.703 30.8396 19.7388 29.0461 19.8237C28.6812 19.841 28.2174 19.8128 27.9805 19.7589ZM29.5022 18.1946C30.1606 17.7171 30.313 15.7295 29.7431 15.0521C29.2629 14.4815 28.4986 14.4851 28.0008 15.0604C27.7261 15.3778 27.6397 15.7378 27.6419 16.5563C27.6436 17.2207 27.6691 17.372 27.8339 17.6965C28.1694 18.3567 28.9551 18.5913 29.5022 18.1946V18.1946Z" fill="#328A74"/>
</svg>
