<svg width="32" height="32" viewBox="0 0 32 32" fill="none" xmlns="http://www.w3.org/2000/svg">
<path d="M27.9294 22.992C28.332 22.8578 28.6898 22.6789 29.0477 22.4105C29.6292 20.9791 30.1213 19.324 30.6133 17.5347C31.2396 15.1639 31.5974 13.0168 31.7763 11.0933C31.9553 9.12511 31.9553 7.38056 31.7763 5.85967C31.5974 4.24932 31.1948 2.63896 30.2555 1.69959C29.3161 0.760219 27.661 0.357631 26.0506 0.223435C24.5298 0.0892384 22.7852 0.13397 20.8617 0.357631C21.2643 0.536559 21.6222 0.760219 21.9353 1.02861C22.8747 1.92325 23.322 3.39941 23.5456 4.87557C23.6798 5.94913 23.7246 7.11217 23.7246 8.4094C23.6798 10.4671 23.322 12.8379 22.651 15.5218C22.1142 17.5795 21.488 19.3687 20.817 20.9344C21.8906 21.6053 22.9194 22.0974 23.9035 22.5C25.156 22.992 26.6769 23.3499 27.9294 22.992Z" fill="#005DA3"/>
<path d="M5.33971 18.5638C5.25025 18.9664 5.25025 19.4137 5.29498 19.861C6.27908 21.0688 7.39738 22.3213 8.73935 23.6185C10.4839 25.3631 12.1837 26.7498 13.7941 27.8681C15.4044 28.9864 16.8806 29.8363 18.2673 30.5073C19.7434 31.1782 21.3538 31.6256 22.651 31.2677C23.9482 30.9098 25.1113 29.7021 26.0059 28.3601C26.9005 27.1076 27.7505 25.5867 28.5109 23.7975C28.153 24.0658 27.7505 24.2895 27.3479 24.379C26.0954 24.7816 24.6192 24.4237 23.2325 23.8422C22.2484 23.4396 21.2196 22.9028 20.1013 22.2318C18.3567 21.1583 16.478 19.6821 14.5098 17.7586C12.9889 16.2825 11.7364 14.8063 10.7523 13.4644C9.63399 14.0459 8.69461 14.6721 7.8447 15.3431C6.68167 16.1483 5.6081 17.2666 5.33971 18.5638Z" fill="#005DA3"/>
<path d="M20.4591 1.16268C20.1907 0.894287 19.8329 0.670627 19.4303 0.491699C17.8647 0.715359 16.2096 1.07322 14.4203 1.56527C12.0495 2.23625 9.99184 2.95196 8.24729 3.75714C6.45801 4.56231 4.98186 5.45695 3.72936 6.35159C2.3874 7.29097 1.17963 8.49873 0.866508 9.79596C0.553384 11.0932 1.0007 12.7483 1.71642 14.2244C2.3874 15.6111 3.23731 17.0873 4.40034 18.6529C4.35561 18.2056 4.35561 17.7583 4.44507 17.3557C4.71346 16.1032 5.78703 14.9401 6.95006 14.0455C7.79997 13.3745 8.78408 12.7483 9.90238 12.1668C11.7364 11.1827 13.9283 10.288 16.6122 9.5723C18.6699 8.99078 20.5039 8.67766 22.2037 8.49873C22.2484 7.24624 22.2037 6.0832 22.0248 5.00963C21.8458 3.53348 21.3985 2.01259 20.4591 1.16268Z" fill="#005DA3"/>
</svg>
