<svg width="32" height="32" viewBox="0 0 32 32" fill="none" xmlns="http://www.w3.org/2000/svg">
<path d="M16.5575 3L17.407 3.18322L17.668 3.4775L17.5958 4.14932L17.4792 9.40733L17.1849 9.44614L16.3687 7.44177L16.0745 5.55399L16.1855 3.66622" fill="#F35C17"/>
<path d="M21.4824 13.6714L23.9642 11.8892L25.2968 11.2618L26.596 10.4067L27.8175 10.1124L28.1507 11.073L27.1457 11.817L24.9248 13.4494L24.2196 13.5604L23.1147 13.9657L22.0765 14.1489" fill="#F35C17"/>
<path d="M24.1863 17.336L24.2974 16.7086L27.9674 16.3755L30.0773 16.3367L31.0434 16.6309L31.5931 16.853L31.5542 17.486L31.1489 17.8913L28.8558 17.9301L26.4461 17.7802L24.9637 17.5581" fill="#F35C17"/>
<path d="M20.7439 22.2665L20.9993 21.9333L21.3325 22.1888L21.2992 23.2659L22.4097 25.4535L22.926 26.8971L23.0759 27.4135L23.1092 29.379L22.5928 29.4512L21.8155 28.4129L21.2992 28.6017L20.9272 28.3407L20.8884 26.8583L20.6663 26.6362L20.5941 23.4158" fill="#F35C17"/>
<path d="M12.1879 24.5595L14.1478 22.1886L14.8141 21.9666L15.2971 22.0054L14.7752 23.5989L13.6314 25.9697L12.7764 26.8192L12.2212 26.9691L11.9991 26.7859" fill="#F35C17"/>
<path d="M1.47749 21.7112L3.07654 21.0783L6.07479 20.6341L7.70716 20.5231L8.03473 20.1899V21.0061L6.66888 21.7501L3.62622 22.9716L1.81617 23.488L1 22.8939L1.0388 21.8945" fill="#F35C17"/>
<path d="M4.10928 11.9614L6.74106 11.556L9.11188 12.3389L11.0774 13.2994L11.5549 13.6714L11.3717 13.9269L9.00083 13.9657L6.77437 13.5937L4.96432 12.9274L4.07596 12.3" fill="#F35C17"/>
<path fill-rule="evenodd" clip-rule="evenodd" d="M12.41 13.3717L13.4427 12.2612L15.1139 11.8558L17.7401 12.189L19.4835 13.1162L21.1492 15.0428L21.5157 17.0805L21.7044 18.2243L21.4824 18.9683L21.3713 19.4514L20.5552 20.1176L17.7401 20.4508L15.9246 20.412L14.4088 19.5625L14.1867 19.0405L13.8147 18.7463L12.4821 15.9313L12.26 14.893L12.41 13.3717ZM17.4459 14.0046L14.964 13.6715L14.2977 14.149L13.9646 15.376L14.5587 16.5198L15.4804 17.8912L17.7013 19.0794L19.3003 18.6685L19.4447 17.5192L19.0005 15.7814L18.1122 14.3711L17.4459 14.0046Z" fill="#F35C17"/>
</svg>
