<svg width="32" height="32" viewBox="0 0 32 32" fill="none" xmlns="http://www.w3.org/2000/svg">
<path d="M4.07156 12.4959C4.54823 6.61994 9.46791 2 15.4666 2C18.0742 2 20.4778 2.87293 22.4013 4.34249L27.266 4.05206L23.0912 4.91353C23.1008 4.92212 23.1104 4.93073 23.12 4.93936L23.0886 4.93152C19.673 5.65313 11.1605 8.16525 4.07156 12.4959Z" fill="#E6C24C"/>
<path d="M26.24 9.25557C22.1359 9.8663 12.5938 11.6301 7.25839 13.7994C9.23809 12.1577 15.2032 8.20436 23.3789 5.22473C24.4059 6.21051 25.253 7.34535 25.8561 8.65452C28.5409 8.48557 33.3067 9.18044 31.6633 9.10899C30.1154 9.04169 27.779 9.10899 26.24 9.25557Z" fill="#3870A1"/>
<path fill-rule="evenodd" clip-rule="evenodd" d="M25.2139 12.187C20.8383 13.9186 11.3166 17.9945 6.86337 20.9628C6.34553 20.3716 5.88764 19.7266 5.4992 19.0372L0.00288636 21.7877C-0.0704017 20.6884 1.27321 19.6135 1.61522 19.4425L4.93458 17.8888L4.92582 17.868C9.46574 15.9997 19.7375 12.3035 25.2139 12.187ZM15.4666 24.8658C21.5457 24.8658 26.5166 20.1214 26.8785 14.1333C20.7801 16.7808 13.8233 21.5209 10.7252 23.8394L10.7834 23.8657C9.39538 24.8568 6.77564 26.8242 6.37894 27.5042C5.86592 28.3837 5.49948 29.483 5.49948 30.8755L12.5873 24.5002C13.5072 24.7388 14.4721 24.8658 15.4666 24.8658Z" fill="#263F66"/>
</svg>
