<svg width="32" height="32" viewBox="0 0 32 32" fill="none" xmlns="http://www.w3.org/2000/svg">
<path fill-rule="evenodd" clip-rule="evenodd" d="M15.5752 26.0002C15.1511 26.1219 14.6666 26.1219 14.1812 26.1219C8.36335 26.1219 3.57573 21.3933 3.57573 15.5759C3.57573 13.5153 4.18191 11.5756 5.2117 10.0004C6.90852 11.6973 8.12136 13.5757 9.21152 15.3942C9.93941 16.7882 10.9088 17.2727 12.182 17.8789C12.2424 17.7571 12.3632 17.6963 12.4844 17.6963C12.6665 17.6963 12.7877 17.8789 12.7877 18.0614C12.7877 18.0614 12.7877 18.1223 12.7877 18.1807C12.9693 18.3025 13.2118 18.4242 13.4548 18.5459L15.4544 16.667C15.1516 16.5453 14.8483 16.4245 14.6058 16.3028C14.5454 16.4245 14.4237 16.4844 14.3034 16.4844C14.1208 16.4844 14.0001 16.3636 14.0001 16.182C14.0001 16.1212 14.0001 16.1212 14.0001 16.0608C11.6367 14.9098 9.87903 13.4549 8.42468 11.9397C6.48491 9.87873 5.03056 7.75783 2.54595 6.42471H0C1.7572 7.27289 3.21203 8.24277 4.42391 9.27256C3.27289 11.0906 2.60585 13.2724 2.60585 15.5754C2.60585 21.94 7.81803 27.0899 14.1817 27.0899C14.6666 27.0899 15.1516 27.0899 15.5757 27.029C18.6061 26.6663 21.3337 25.0893 23.1517 22.7867C23.3937 22.9693 23.6371 23.1519 23.9395 23.3321L25.3948 22.3636L18.849 19.8785L25.8788 21.8792L28.1219 20.5456C24.6669 20.4847 21.4549 20.1196 19.1524 18.9685C22.3644 19.6964 25.8179 19.8785 29.3946 19.8177L32 17.9388C27.2737 18.9072 22.6069 18.7879 17.8188 17.3934L15.5762 19.7568C17.7584 21.2121 20.0001 21.2121 22.2427 22.3028C20.6053 24.3039 18.2424 25.6375 15.5752 26.0002ZM15.5752 19.0299L17.2725 17.3944L15.9998 16.7274L15.5757 17.151L15.3941 17.3335C15.51 17.392 15.5709 17.5607 15.5757 17.68V17.6872V17.692V17.6968V17.7107C15.5685 18.0102 15.3284 18.3025 15.0299 18.3025C14.8487 18.3025 14.6666 18.1807 14.6058 18.0614L13.8784 18.6676L15.1511 19.4564L15.5752 19.0299ZM15.5752 16.0603L17.4541 16.8491C17.9386 16.0603 17.9386 16.0603 18.7264 16.3632C24.7263 18.728 29.2111 18.5454 31.7566 16.0603C29.696 17.0896 27.636 17.4548 25.5141 17.2722C25.6358 16.7269 25.6358 16.1207 25.6358 15.5754C25.6358 9.69712 21.2723 4.78827 15.5752 4.12076C15.1511 4.0599 14.6666 4 14.1812 4C10.9692 4 8.0605 5.33359 5.93911 7.39412C5.33245 6.97004 4.66638 6.72708 3.81725 6.84832C6.42358 8.0602 7.57508 11.4543 10.4843 10.6665C8.84733 10.0608 7.75717 8.90885 6.72643 8.06068C8.6662 6.18176 11.272 4.96989 14.1812 4.96989C14.6662 4.96989 15.1511 5.03074 15.5752 5.09112C20.727 5.81806 24.7268 10.2424 24.7268 15.5759C24.7268 16.1212 24.666 16.6665 24.6051 17.151C22.1809 16.8491 19.7571 15.757 17.2725 14.4248C16.6055 14.0606 15.9998 13.9399 15.5752 14.1819C15.1511 14.364 14.8483 14.8494 14.727 15.6367L15.5752 16.0603Z" fill="#172983"/>
</svg>
