<svg width="32" height="32" viewBox="0 0 32 32" fill="none" xmlns="http://www.w3.org/2000/svg">
<path fill-rule="evenodd" clip-rule="evenodd" d="M22.8498 18.1188V14.4158C22.8498 14.1886 22.6525 14.0001 22.4081 14.0001H22.1405C22.0356 14.0046 21.9303 14.0442 21.8559 14.1268L21.7551 14.2324L20.9494 15.0946V14.4158C20.9494 14.2099 20.7877 14.0356 20.5776 14.0046C20.5672 14.0046 20.5568 14.0035 20.5458 14.0024C20.5338 14.0013 20.5211 14 20.5073 14H20.241C20.1354 14.0046 20.031 14.0441 19.9564 14.1267L19.3435 14.7836L18.6082 15.5759L18.2534 15.9612C18.0956 16.1274 18.1177 16.3993 18.2925 16.5609C18.3856 16.6435 18.4983 16.6875 18.6082 16.6837C18.7135 16.6837 18.8184 16.6399 18.892 16.5564L19.3434 16.0707L19.8992 15.4707C20.0309 15.3437 20.0704 15.5104 20.0704 15.567V16.2765C20.0704 16.5042 20.2675 16.6875 20.5072 16.6875H20.5775C20.7798 16.6709 20.8829 16.5412 20.9453 16.4626C20.9627 16.4407 20.977 16.4227 20.9894 16.4123L21.7551 15.5232L21.7996 15.4708C21.9303 15.3438 21.97 15.5105 21.97 15.567V18.1188C21.97 18.3469 22.1667 18.5301 22.4082 18.5301C22.6525 18.5301 22.8498 18.3469 22.8498 18.1188ZM27.288 14.0001C27.5288 14.0001 27.7261 14.1886 27.7261 14.4158H27.7262V18.1189C27.7262 18.347 27.5289 18.5302 27.288 18.5302C27.1663 18.5302 27.0515 18.4823 26.9686 18.4043C26.8939 18.3295 26.8461 18.2288 26.8461 18.1189V15.5671C26.8461 15.5105 26.8113 15.3438 26.6799 15.4709L25.7296 16.4907L23.9394 18.4043C23.7825 18.5707 23.5104 18.5707 23.3358 18.4079C23.1558 18.2419 23.1387 17.9702 23.2965 17.8036L25.7296 15.1999L26.7319 14.1269C26.7982 14.0574 26.8812 14.0179 26.9685 14.0046C26.9859 14.0001 27.0036 14.0001 27.016 14.0001H27.2839H27.288ZM30.9263 14.8804H28.5794C28.3521 14.8804 28.164 14.6832 28.164 14.438C28.164 14.1969 28.3521 14.0001 28.5794 14.0001H31.5866C31.8006 14.0001 31.9766 14.175 31.9977 14.3936V16.285C31.9848 16.5173 31.8056 16.7006 31.5866 16.7006H30.1423C29.9141 16.7006 29.7307 16.5043 29.7307 16.263C29.7307 16.0176 29.9141 15.8212 30.1423 15.8212H30.9263C31.0482 15.8212 31.1091 15.7635 31.1184 15.6547V15.0464C31.1091 14.8804 30.9914 14.8804 30.9263 14.8804ZM30.6237 16.841C30.821 16.6922 31.0873 16.7229 31.2278 16.9069L31.9191 17.8388C32.0598 18.0186 32.0111 18.2897 31.8181 18.4342C31.6219 18.5785 31.3543 18.548 31.2149 18.3645L30.5186 17.4318C30.3828 17.2529 30.4309 16.9857 30.6237 16.841ZM26.7229 18.0842C26.7229 17.8431 26.5348 17.6417 26.3076 17.6417H25.0903C24.8635 17.6417 24.675 17.8431 24.675 18.0842C24.675 18.3248 24.8635 18.5265 25.0903 18.5265H26.3076C26.5348 18.5265 26.7229 18.3248 26.7229 18.0842ZM17.6966 17.9485C17.6966 18.25 17.4656 18.4958 17.172 18.5221C17.1635 18.5221 17.156 18.5232 17.1485 18.5243C17.1408 18.5254 17.1331 18.5265 17.1241 18.5265H14.4362C14.4362 18.5265 14.4323 18.5265 14.4274 18.5221C14.1169 18.5176 13.8623 18.2631 13.8623 17.9485V14.5728C13.8623 14.2626 14.1169 14.0046 14.4274 14.0001H14.4362H17.172C17.4656 14.0264 17.6966 14.2758 17.6966 14.5728V17.9485ZM16.8178 17.2919C16.8178 17.4845 16.6775 17.6417 16.5066 17.6417H15.0536C14.8829 17.6417 14.7426 17.4845 14.7426 17.2919V15.2353C14.7426 15.0419 14.8829 14.8841 15.0536 14.8841H16.5066C16.6775 14.8841 16.8178 15.0418 16.8178 15.2353V17.2919ZM12.4054 16.9069L13.1008 17.8388C13.2415 18.0186 13.1936 18.2897 13.0002 18.4342C12.8033 18.5785 12.5368 18.548 12.397 18.3645L11.7007 17.4318C11.5647 17.2529 11.6125 16.9857 11.8062 16.841C12.0029 16.6922 12.2696 16.7229 12.4054 16.9069ZM8.55367 14.0001H5.55097C5.32299 14.0001 5.13451 14.1969 5.13451 14.438C5.13451 14.6832 5.32299 14.8804 5.55097 14.8804H8.55367C8.78119 14.8804 8.96922 14.6831 8.96922 14.438C8.96922 14.1969 8.78119 14.0001 8.55367 14.0001ZM13.1794 16.285C13.1668 16.5173 12.9878 16.7006 12.7686 16.7006H11.3235C11.0964 16.7006 10.9126 16.5043 10.9126 16.263C10.9126 16.0176 11.0964 15.8212 11.3235 15.8212H11.7164H11.7165H12.1075C12.23 15.8212 12.2919 15.7635 12.3007 15.6547V15.0464C12.2919 14.8804 12.1738 14.8804 12.1075 14.8804H9.76143C9.53368 14.8804 9.34558 14.6832 9.34558 14.438C9.34558 14.1969 9.53368 14.0001 9.76143 14.0001H12.7686C12.9824 14.0001 13.158 14.175 13.1794 14.3936V16.285ZM8.55367 15.8211H5.55097C5.32299 15.8211 5.13451 16.0175 5.13451 16.263C5.13451 16.5042 5.32299 16.7005 5.55097 16.7005H8.55367C8.78119 16.7005 8.96922 16.5042 8.96922 16.263C8.96922 16.0176 8.78119 15.8211 8.55367 15.8211ZM5.55097 17.6417H8.55367C8.78119 17.6417 8.96922 17.8431 8.96922 18.0842C8.96922 18.3248 8.78119 18.5265 8.55367 18.5265H5.55097C5.32299 18.5265 5.13451 18.3248 5.13451 18.0842C5.13451 17.8431 5.32299 17.6417 5.55097 17.6417ZM4.10103 14.0001H3.83023C3.7249 14.0046 3.61979 14.0442 3.5456 14.1268L2.51243 15.2353L0.104874 17.8036C0.0392614 17.8741 0.00432863 17.9663 0 18.0578V18.0935C0.00432863 18.2062 0.0565759 18.3213 0.1493 18.4079C0.324267 18.5707 0.595528 18.5707 0.753409 18.4043L2.5125 16.5212L3.4932 15.4709C3.62427 15.3438 3.65921 15.5105 3.65921 15.5671V18.1189C3.65921 18.347 3.85673 18.5302 4.10118 18.5302C4.34267 18.5302 4.53891 18.347 4.53891 18.1189V14.4158C4.53875 14.1886 4.3426 14.0001 4.10103 14.0001ZM1.90384 17.6417H3.12086C3.34838 17.6417 3.53216 17.8431 3.53208 18.0842C3.53208 18.3248 3.34831 18.5265 3.12079 18.5265H1.90384C1.67586 18.5265 1.48867 18.3248 1.48867 18.0842C1.48867 17.8431 1.67586 17.6417 1.90384 17.6417Z" fill="#003B79"/>
</svg>
