<svg width="32" height="32" viewBox="0 0 32 32" fill="none" xmlns="http://www.w3.org/2000/svg">
<path fill-rule="evenodd" clip-rule="evenodd" d="M16.2413 7.24896H24.9485C28.3782 7.24896 31.171 10.0226 31.171 13.4602C31.171 16.8914 28.3782 19.6733 24.9485 19.6733H21.2137V24.6552H16.2413V7.24896ZM21.2137 14.7042H24.9485C25.6302 14.7042 26.1956 14.1438 26.1956 13.4602C26.1956 12.7691 25.6302 12.218 24.9485 12.218H21.2137V14.7042Z" fill="#EB2D2E"/>
<path fill-rule="evenodd" clip-rule="evenodd" d="M0.0723156 12.2195V7.25047H16.2413V24.6537L15.3121 21.5528H9.72343L8.78446 24.6537H3.7977V12.2195H0.0723156ZM12.5159 12.2195L11.2003 16.5739H13.8221L12.5159 12.2195Z" fill="#BFD33B"/>
<path fill-rule="evenodd" clip-rule="evenodd" d="M3.7977 24.6552H8.78597V12.2195H12.5159V7.24896H8.78597" fill="#72BC4A"/>
<path fill-rule="evenodd" clip-rule="evenodd" d="M16.2413 24.6552H21.2137L16.2413 7.24896" fill="#C92C32"/>
</svg>
