<svg width="32" height="32" viewBox="0 0 32 32" fill="none" xmlns="http://www.w3.org/2000/svg">
<path d="M32 0H0V32H32V0Z" fill="#E2001A"/>
<path fill-rule="evenodd" clip-rule="evenodd" d="M2.95116 7.11598C9.58106 5.59875 13.4624 8.80885 14.8924 13.2054C7.48252 6.04595 -2.71305 13.0109 0.666904 20.6181C3.17401 16.2213 7.76109 13.945 13.0724 15.0731C1.44689 17.9917 2.56116 29.4897 9.45081 31.1236C7.44512 26.8435 8.39225 21.8824 13.5365 18.0498C8.22511 26.6295 16.6007 35.6567 24.3263 30.4816C18.0864 28.9446 14.4836 22.6412 15.9507 19.4505C19.1078 29.431 32.2562 27.3882 31.9962 18.2835C29.2105 21.2018 22.5435 22.3691 18.4207 18.6337C28.7834 21.435 34.689 10.6179 27.4834 4.85918C27.4648 10.4039 24.3077 15.2288 19.3492 15.6373C28.2634 9.70351 23.1192 -1.32755 15.0036 0.131586C18.755 3.18604 20.0549 9.85916 17.9193 13.2833C18.2167 3.38086 7.31538 -1.05491 2.95116 7.11598Z" fill="white"/>
</svg>
