<svg width="32" height="32" viewBox="0 0 32 32" fill="none" xmlns="http://www.w3.org/2000/svg">
<path fill-rule="evenodd" clip-rule="evenodd" d="M31.637 16.2725C31.637 24.6147 24.7947 31.377 16.3491 31.377C7.91138 31.377 1.07301 24.6147 1.07301 16.2725C1.07301 7.92639 7.91138 1.16409 16.3491 1.16409C24.7947 1.16409 31.637 7.92639 31.637 16.2725Z" fill="#EE3124"/>
<path d="M29.3374 18.9388L3.00008 24.4742C3.00008 24.4742 2.94741 24.4859 2.9084 24.4937C2.73091 24.2109 2.56317 23.9222 2.40518 23.6336C2.45004 23.6219 2.49295 23.618 2.49295 23.618C6.77815 22.8183 10.6693 20.9712 12.3175 16.2081C14.0924 11.1018 12.8734 5.53705 9.2455 2.40069C9.2455 2.40069 9.20454 2.36948 9.17528 2.34608C9.52442 2.16468 9.87941 1.99889 10.248 1.85065C10.289 1.87211 10.3573 1.90137 10.3573 1.90137C17.7281 4.95386 21.5238 9.08302 21.5238 13.0464C21.4906 15.4962 20.2247 17.1716 18.6136 18.5019L29.3393 18.5058C29.6455 18.5038 29.7138 18.8588 29.3374 18.9388Z" fill="white"/>
</svg>
