<svg width="32" height="32" viewBox="0 0 32 32" fill="none" xmlns="http://www.w3.org/2000/svg">
<mask id="mask0" mask-type="alpha" maskUnits="userSpaceOnUse" x="0" y="10" width="32" height="13">
<path fill-rule="evenodd" clip-rule="evenodd" d="M0.137932 10.1724V22.3875H31.9503V10.1724" fill="white"/>
</mask>
<g mask="url(#mask0)">
<path d="M29.7655 14.3101C29.931 13.7804 30.6593 13.3501 31.0897 13.3501C31.4535 13.3501 31.6852 13.5487 31.6852 13.9129V14.4425C31.6852 14.7735 31.3545 14.9722 30.9901 14.9722C30.1956 14.9722 29.7983 15.6673 29.7983 16.4949V17.9515C29.7983 18.3153 29.6328 18.5142 29.3021 18.5142H28.6728C28.3421 18.5142 28.1432 18.3153 28.1432 17.9515V13.946C28.1432 13.5818 28.3421 13.3832 28.6728 13.3832H29.2359C29.5666 13.3832 29.7655 13.5818 29.7655 13.946V14.3101Z" fill="#525350"/>
</g>
<path d="M18.709 14.3103C18.8745 13.7807 19.6028 13.3506 20.0662 13.3506C20.397 13.3506 20.6287 13.5492 20.6287 13.9133V14.443C20.6287 14.774 20.331 14.9727 19.9669 14.9727C19.1724 14.9727 18.7754 15.6678 18.7754 16.4954V17.952C18.7754 18.3161 18.6097 18.5147 18.2458 18.5147H17.6166C17.2858 18.5147 17.1203 18.3161 17.1203 17.952V13.9464C17.1203 13.5823 17.2858 13.3837 17.6166 13.3837H18.1793C18.5432 13.3837 18.709 13.5823 18.709 13.9464V14.3103Z" fill="#525350"/>
<path d="M26.7531 12.8207C26.0246 12.8207 25.4618 12.2249 25.4618 11.5297C25.4618 10.8014 26.0246 10.2056 26.7531 10.2056C27.4483 10.2056 28.011 10.8014 28.011 11.5297C28.011 12.2249 27.4483 12.8207 26.7531 12.8207Z" fill="#F69E25"/>
<path d="M4.87172 12.8207C4.17655 12.8207 3.58069 12.2249 3.58069 11.5297C3.58069 10.8014 4.17655 10.2056 4.87172 10.2056C5.6 10.2056 6.16276 10.8014 6.16276 11.5297C6.16276 12.2249 5.5669 12.8207 4.87172 12.8207Z" fill="#525350"/>
<path fill-rule="evenodd" clip-rule="evenodd" d="M23.6083 15.3367H23.4428C22.1848 15.3367 20.4966 15.7339 20.4966 17.0912C20.4966 17.9521 21.2246 18.6139 22.2179 18.6139C23.2441 18.6139 23.741 17.8197 23.741 17.8197L23.7738 17.7863V17.9188V17.9519C23.7738 18.316 23.9393 18.5146 24.3034 18.5146H24.8C25.1639 18.5146 25.3625 18.316 25.3625 17.9519V15.3698C25.3625 14.1119 24.469 13.3174 23.0455 13.3174C22.2841 13.3174 21.6883 13.5491 21.291 13.7146C20.9603 13.8801 20.8938 14.145 21.0593 14.4429L21.1917 14.6746C21.3572 15.0057 21.589 15.0719 21.92 14.9063C22.1846 14.807 22.549 14.7077 22.8797 14.7077C23.2441 14.7077 23.6083 14.8401 23.6083 15.2705V15.3367ZM23.6083 16.396C23.6083 16.8595 23.1777 17.4222 22.6152 17.4222C22.251 17.4222 22.0193 17.2239 22.0193 16.9588C22.0193 16.4291 22.8138 16.2636 23.4428 16.2636H23.6083V16.396Z" fill="#525350"/>
<mask id="mask1" mask-type="alpha" maskUnits="userSpaceOnUse" x="0" y="10" width="32" height="13">
<path fill-rule="evenodd" clip-rule="evenodd" d="M0.137932 10.1724V22.3875H31.9503V10.1724" fill="white"/>
</mask>
<g mask="url(#mask1)">
<path d="M0.833104 14.8398H0.667587C0.336553 14.8398 0.137932 14.6743 0.137932 14.3101V14.0784C0.137932 13.7143 0.336553 13.5156 0.667587 13.5156H0.866208V12.5887C0.866208 12.2246 1.06483 12.0591 1.39586 12.0591H1.95862C2.32276 12.0591 2.52138 12.2246 2.52138 12.5887V13.5156H3.01793C3.34897 13.5156 3.54759 13.7143 3.54759 14.0784V14.3101C3.54759 14.6743 3.34897 14.8398 3.01793 14.8398H2.52138V16.3956C2.52138 16.826 2.78621 16.9918 3.08414 17.0577C3.48138 17.0908 3.61379 17.2235 3.61379 17.5876V18.0511C3.61379 18.448 3.34897 18.5807 2.91862 18.5807C2.19035 18.5807 0.833104 18.2166 0.833104 16.7267V14.8398Z" fill="#525350"/>
</g>
<path d="M4.04414 13.9461C4.04414 13.5819 4.20965 13.3833 4.57379 13.3833H5.16965C5.53379 13.3833 5.73241 13.5819 5.73241 13.9461V17.9516C5.73241 18.3157 5.53379 18.5143 5.16965 18.5143H4.57379C4.20965 18.5143 4.04414 18.3157 4.04414 17.9516V13.9461" fill="#525350"/>
<path d="M25.9255 13.9461C25.9255 13.5819 26.091 13.3833 26.4218 13.3833H27.051C27.3818 13.3833 27.5807 13.5819 27.5807 13.9461V17.9516C27.5807 18.3157 27.3818 18.5143 27.051 18.5143H26.4218C26.091 18.5143 25.9255 18.3157 25.9255 17.9516V13.9461Z" fill="#525350"/>
<path fill-rule="evenodd" clip-rule="evenodd" d="M16.7228 15.7339C16.7228 14.3767 15.9283 13.3174 14.4055 13.3174C12.8166 13.3174 11.8234 14.476 11.8234 15.9657C11.8234 17.356 12.7834 18.6473 14.571 18.6473C15.3327 18.6473 15.9283 18.4156 16.2927 18.1836C16.5906 18.0181 16.6234 17.7532 16.491 17.4553L16.3255 17.1905C16.16 16.8595 15.9283 16.8261 15.6303 16.9919C15.615 16.9976 15.5994 17.0035 15.5836 17.0095C15.3271 17.1061 15.0153 17.2236 14.7034 17.2236C14.1738 17.2236 13.6772 16.9257 13.5448 16.3298H16.16C16.4908 16.3298 16.7228 16.0319 16.7228 15.7339ZM14.4055 14.5422C14.869 14.5422 15.1338 14.9063 15.1338 15.3367H13.5779C13.6772 14.9063 13.909 14.5422 14.4055 14.5422Z" fill="#525350"/>
<path fill-rule="evenodd" clip-rule="evenodd" d="M9.73793 18.0512V18.0181C9.57241 18.2167 9.17517 18.6473 8.38069 18.6473C7.02345 18.6473 6.12965 17.5546 6.12965 15.9657C6.12965 14.3767 7.08965 13.3174 8.41379 13.3174C9.44 13.3174 9.73793 13.8139 9.73793 13.8139V13.7808C9.77103 13.4829 9.96965 13.3174 10.2676 13.3174H10.8966C11.2276 13.3174 11.4262 13.516 11.4262 13.8801V18.8457C11.3269 18.7132 11.1283 18.647 10.8966 18.647H10.3007C10.069 18.647 9.87034 18.7135 9.73793 18.8457V18.0512ZM7.75172 15.9657C7.75172 16.7604 8.18207 17.2239 8.77793 17.2239C9.27448 17.2239 9.80414 16.8595 9.80414 15.9657C9.80414 15.3698 9.44 14.7408 8.77793 14.7408C8.24827 14.7408 7.75172 15.2043 7.75172 15.9657Z" fill="#525350"/>
<mask id="mask2" mask-type="alpha" maskUnits="userSpaceOnUse" x="0" y="10" width="32" height="13">
<path fill-rule="evenodd" clip-rule="evenodd" d="M0.137932 10.2056V22.3545H31.851V10.2056" fill="white"/>
</mask>
<g mask="url(#mask2)">
<path d="M11.4262 19.8717V19.6731C11.4262 19.309 11.2276 19.1104 10.8966 19.1104H10.3007C10.1352 19.1104 10.0028 19.1766 9.90345 19.2759C9.83724 19.3752 9.80414 19.4748 9.80414 19.6731C9.80414 20.0041 9.63862 20.2359 9.50621 20.3683C9.37379 20.5007 9.17517 20.5669 8.87724 20.5669C8.54621 20.5669 8.34759 20.501 8.21517 20.3683C8.11586 20.2361 7.91724 20.0706 7.95035 19.6731C7.95035 19.4745 7.88414 19.3752 7.81793 19.309C7.75173 19.1768 7.58621 19.1104 7.42069 19.1104H6.82483C6.46069 19.1104 6.29517 19.309 6.29517 19.6731V19.9048C6.29517 19.9048 6.29517 19.9048 6.32828 20.1366C6.39448 21.229 7.58621 22.189 8.87724 22.2221C10.1352 22.1892 11.3269 21.229 11.4262 20.1366C11.4262 20.1366 11.4262 20.0044 11.4262 19.8717Z" fill="#F69E25"/>
</g>
</svg>
