<svg width="32" height="32" viewBox="0 0 32 32" fill="none" xmlns="http://www.w3.org/2000/svg">
<g clip-path="url(#clip0)">
<path d="M8.70108 6.5172C10.2007 6.31014 14.0191 5.77345 15.3638 5.47352C16.7129 5.17235 24.1725 4.07568 28.034 4.01039C31.8933 3.94294 31.6631 4.19957 31.7782 4.90797C31.8943 5.61407 32.2298 5.86311 31.7468 6.53048C31.2632 7.20007 30.4365 7.48339 29.2821 7.96152C27.1471 8.8403 17.7197 11.3239 16.4492 11.9581C18.3982 11.863 21.2426 11.3206 24.0549 11.2409C25.9264 11.1857 26.192 11.6017 26.3459 12.4306C26.4986 13.2629 26.6069 13.709 25.3376 14.2225C24.0725 14.7371 22.5718 15.2728 19.5824 16.1383C15.4663 17.3314 12.9584 17.929 9.81632 19.2384C11.5429 19.3955 14.3507 19.1455 16.5997 19.2415C19.9742 19.3855 20.1624 19.7539 20.2454 20.7511C20.3251 21.7494 20.4025 22.0405 19.018 22.6725C17.6334 23.3055 15.1266 23.9463 13.7055 24.2463C12.2811 24.5471 6.98966 25.6806 5.96148 25.9518C5.06277 26.1865 4.27588 27.2478 2.85368 27.7315C1.27102 28.2693 0.582604 28.0558 0.0757133 26.918C-0.293953 26.0901 0.741978 25.3309 2.05349 24.948C3.36167 24.5661 7.21765 23.7073 8.8634 23.2823C10.5114 22.8529 13.783 21.9475 14.8842 21.5181C13.4332 21.5306 9.80747 21.5899 7.11252 21.6477C5.49663 21.679 4.88238 21.6012 4.61455 20.3959C4.34443 19.194 4.86679 18.7723 6.32559 18.3053C7.7843 17.8382 9.98125 16.8333 11.4023 16.3662C12.8245 15.8969 16.7613 14.4936 17.8869 14.2346C15.2251 14.1715 9.18105 15.5062 7.62383 15.8427C6.4252 16.1006 6.27138 15.6799 5.81318 14.84C5.35275 14.0044 5.94149 13.4444 6.67424 13.2706C7.57072 13.056 9.38027 12.1749 11.8351 11.1976C13.8228 10.4052 16.6406 9.56956 18.718 8.86455C20.6892 8.19277 24.0327 7.05942 25.1019 6.60897C24.2397 6.6027 20.283 7.1878 17.6976 7.53864C15.1155 7.88948 10.6874 8.79484 10.0167 9.04827C9.34262 9.30271 8.56458 9.2111 8.10747 8.18611C7.65815 7.1701 8.06104 6.60232 8.6996 6.51711" fill="#F28E00"/>
</g>
<defs>
<clipPath id="clip0">
<rect width="32" height="32" fill="white"/>
</clipPath>
</defs>
</svg>
