<svg width="32" height="32" viewBox="0 0 32 32" fill="none" xmlns="http://www.w3.org/2000/svg">
<path d="M18.0448 11.9954H16.9917C16.7688 11.9954 16.4051 12.1332 16.3229 12.5682C16.0947 13.735 15.9528 15.0146 15.7915 16.1563C15.6436 15.0694 15.4029 13.614 15.186 12.4941C15.1227 12.2276 14.8752 11.9954 14.5127 11.9954H13.4424C13.0799 11.9954 12.832 12.2276 12.7691 12.4941C12.503 13.6213 12.2982 15.0613 12.1615 16.1442C12.0015 15.0057 11.8596 13.7309 11.6322 12.5682C11.5499 12.1332 11.1867 11.9954 10.9634 11.9954H9.91031C9.60915 11.9954 9.1556 12.2191 9.2068 12.7601C9.41402 14.6239 9.94176 17.0469 10.5501 19.2485C10.6457 19.6549 10.9722 19.8089 11.2464 19.8089L12.6324 19.8085C13.0577 19.8085 13.2811 19.4678 13.3222 19.2429L13.964 16.314H13.9911L14.6329 19.2429C14.674 19.4678 14.8973 19.8085 15.3227 19.8085L16.7083 19.8089C16.9825 19.8089 17.309 19.6549 17.4046 19.2485C18.0133 17.0469 18.5411 14.6239 18.7483 12.7601C18.7995 12.2191 18.3459 11.9954 18.0448 11.9954H18.0448ZM1.01071 10.4037C1.01071 10.0151 1.32558 9.7002 1.71422 9.7002H2.99867C3.38731 9.7002 3.70218 10.0151 3.70218 10.4037V11.9954H4.38149C4.64758 11.9954 4.86367 12.2115 4.86367 12.4779V13.2605C4.86367 13.5266 4.64758 13.7422 4.38149 13.7422H3.70218V17.4255C3.70218 17.873 3.98398 18.0314 4.38149 18.0314C4.64758 18.0314 4.86367 18.2475 4.86367 18.514V19.3271C4.86367 19.5932 4.64758 19.8089 4.38149 19.8089C4.00575 19.8367 3.61671 19.8509 3.33168 19.8509C1.82307 19.8509 1.01071 18.9276 1.01071 17.1953V13.7422H0.482174C0.216091 13.7422 0 13.5266 0 13.2605V12.478C0 12.2115 0.216091 11.9954 0.482174 11.9954H1.01071V10.4037ZM29.6053 12.5537C29.6722 12.2348 29.9548 11.9953 30.2934 11.9953H31.2965C31.6851 11.9953 32 12.3102 32 12.6985C32 12.7368 31.9968 12.7747 31.9911 12.8109C31.6355 14.9868 30.8586 17.677 30.1511 19.9907C29.6117 21.7529 28.9082 22.346 27.5777 22.346C27.252 22.346 26.8968 22.3402 26.6178 22.3254C26.3513 22.3254 26.1361 22.1097 26.1361 21.8432V21.0087C26.1361 20.7422 26.3517 20.5265 26.6182 20.5265L26.617 20.5261L26.6847 20.5269C27.3015 20.5269 27.51 20.0939 27.5071 19.9351C27.5035 19.6767 27.4527 19.5597 27.3979 19.3574C26.906 17.7818 26.3211 15.2746 25.8175 12.8444C25.8078 12.7972 25.8022 12.7488 25.8022 12.6984C25.8022 12.3102 26.1171 11.9953 26.5053 11.9953H27.5321C27.8587 11.9953 28.1336 12.2183 28.2127 12.5198C28.4775 13.4935 28.7521 15.3343 28.969 16.4651H28.9964C29.1843 15.202 29.4076 13.4572 29.6052 12.5537L29.6053 12.5537ZM21.0701 19.9025C19.7691 19.9025 18.9281 19.03 18.9281 17.6799C18.9281 16.289 19.8941 15.3903 21.9679 14.8521C22.4388 14.74 22.6392 14.5131 22.6392 14.0926C22.6392 13.7955 22.4291 13.5802 22.1393 13.5802C21.8784 13.5802 21.689 13.7152 21.6329 13.9418C21.5337 14.3458 21.2608 14.534 20.7742 14.534H20.0929C19.6067 14.534 19.3043 14.2389 19.3043 13.7636C19.3043 13.683 19.3164 13.6048 19.3402 13.531C19.7792 12.0361 21.2826 11.8127 22.1401 11.8127C23.123 11.8127 23.8019 11.972 24.2764 12.3143C24.8324 12.7154 25.121 13.3802 25.1593 14.347C25.2085 15.4956 25.2468 17.7823 25.1742 19.0429C25.1742 19.463 24.8207 19.8085 24.3861 19.8085H23.4967C23.0923 19.8085 22.7751 19.5142 22.7138 19.0881C22.3755 19.6086 21.7881 19.9025 21.0701 19.9025ZM22.686 16.3245C22.5791 16.4119 22.4356 16.4837 22.2868 16.5587C21.9349 16.7349 21.5362 16.9348 21.4841 17.3928C21.4608 17.5936 21.5079 17.7645 21.62 17.8871C21.7168 17.9931 21.8603 18.0564 22.0026 18.0564C22.413 18.0564 22.686 17.8697 22.686 16.9602" fill="#C82F26"/>
<path d="M8.20181 9.9196L8.16956 9.85389V9.85348C7.9071 9.34672 7.37857 9 6.76819 9C5.89737 9 5.19104 9.70593 5.19104 10.5771C5.19104 11.0815 5.4281 11.5302 5.79658 11.8189V11.8193C6.2461 12.168 6.7065 12.8255 5.6204 13.8475C5.4156 14.0616 5.56195 14.2293 5.69942 14.3184C6.03162 14.5341 6.25214 14.5023 6.60612 14.3184C7.51725 13.8451 9.16615 11.9289 8.2018 9.9196" fill="#79A23D"/>
</svg>
