<svg width="32" height="32" viewBox="0 0 32 32" fill="none" xmlns="http://www.w3.org/2000/svg">
<rect width="32" height="32" fill="#D71A21"/>
<path d="M17.7549 14.7151C17.942 14.5382 19.9238 12.7959 20.1266 12.5564C20.3953 12.2516 21.0382 11.474 21.0382 10.2555C21.0382 9.97114 21.0464 4.10601 21.0464 3.84408C21.0464 2.88278 21.4886 2.34736 21.7172 2.09291C21.9567 1.82826 22.7071 1.18127 22.8989 1.00914L22.2778 1.00166C22.1016 1.16358 19.9436 3.11409 19.7306 3.31751C19.417 3.61685 18.9884 4.38223 18.9884 5.46871V12.138C18.9884 12.6918 18.7822 13.2231 18.4564 13.5184C18.2788 13.6769 17.1957 14.6647 17.1304 14.7151H17.7549Z" fill="white"/>
<path d="M18.9056 27.6061H14.8311L17.2538 29.7219H18.8764C20.5255 29.7219 22.0324 29.0157 23.0305 28.0225C24.0238 27.0278 24.3898 25.6882 24.3898 24.4426V20.9729C24.3898 19.8041 23.6557 19.1271 23.4557 18.9237C23.3448 18.8115 22.6352 18.1481 22.6352 18.1481V20.8096C22.6352 20.8096 23.4142 21.611 23.5686 21.7743C24.2884 22.5356 24.2775 23.9309 22.0032 26.1461C21.6059 26.5359 20.467 27.6061 18.9056 27.6061Z" fill="white"/>
<path fill-rule="evenodd" clip-rule="evenodd" d="M6.85209 11.7106C6.85258 11.4247 6.85297 11.2023 6.85297 11.1052C6.85297 10.5636 6.50328 9.65741 5.95221 9.37576H6.78766L6.78832 9.37603C6.88466 9.41553 7.40812 9.63012 7.40812 11.6385C7.40812 11.6385 7.37002 13.9782 7.37002 14.1075C7.37002 15.1239 8.18301 16.2968 9.35794 16.2968C9.5981 16.2968 18.9826 16.2872 18.9826 16.2872C18.988 16.0274 19.2513 15.0463 19.7105 14.5279C19.9725 14.234 22.0373 12.3468 22.2713 12.1665L22.8802 12.1576C22.8557 12.1813 22.7606 12.2679 22.6312 12.3855C22.2964 12.6899 21.7326 13.2026 21.5726 13.3734C21.2984 13.6537 21.046 14.3571 21.046 14.9722V16.2872H22.3727C22.889 16.2872 23.3571 15.9022 23.7252 15.5661C23.7306 15.5484 23.7252 14.2599 23.7252 14.2599C23.7252 14.2599 24.0626 14.6476 24.3654 14.9674C24.4235 14.9147 24.4934 14.8487 24.5727 14.7737C25.1075 14.2684 26.0734 13.3557 26.8009 13.3557C28.4984 13.3557 28.114 15.4824 27.4194 16.1689C27.2128 16.3655 26.3601 17.1536 25.975 17.5094L25.8805 17.5969C25.0831 18.3588 23.7129 17.9969 23.7129 16.0274C23.7129 16.0274 22.2434 17.4227 22.0203 17.6071C21.7985 17.7928 21.046 18.5956 21.046 18.5956V22.0585C21.046 23.7185 20.5358 24.3131 20.0419 24.7744C19.8228 24.9791 18.039 26.597 17.7151 26.8813H17.0824C17.0824 26.8813 18.2308 25.8779 18.4526 25.6499C18.7023 25.3907 18.988 24.8642 18.988 23.9893C18.988 23.7675 18.9629 18.548 18.9629 18.548H10.4567C7.50132 18.548 6.87134 15.2688 6.85297 14.3918C6.84778 14.1943 6.8505 12.6263 6.85209 11.7106ZM25.6559 16.3274C26.571 17.0472 26.9765 16.2192 26.3866 15.2797C26.2417 15.0531 25.673 14.6701 24.6858 15.3116C24.6858 15.3116 25.3818 16.1131 25.6559 16.3274Z" fill="white"/>
<path d="M11.2512 21.1695C12.3568 22.2764 12.7303 22.8254 12.8405 23.3254C12.9228 23.2404 14.41 22.0056 14.41 21.5416C14.41 20.862 13.9644 20.6341 12.8779 19.5435L11.2512 21.1695Z" fill="white"/>
<path fill-rule="evenodd" clip-rule="evenodd" d="M14.5078 14.8989H9.99385C9.28359 14.8989 8.55223 14.3465 8.55223 13.7893C8.55223 13.6519 8.56039 12.1191 8.56039 12.1191C8.57179 12.1323 8.58321 12.1457 8.59469 12.1591C8.81355 12.4149 9.05555 12.6978 9.5979 12.6919C10.0394 12.6831 10.5068 12.3348 10.6334 12.2103C10.7592 12.079 14.0445 8.64669 14.0445 8.64669C14.0445 8.64669 12.507 7.22548 11.496 6.54515C11.0001 6.21587 10.3395 6.63427 10.2429 7.069C9.9333 8.43034 10.2429 10.4843 10.2429 10.4843C10.2429 10.4843 9.23936 9.47941 8.99785 9.24062C8.49508 8.73377 8.51413 7.60102 9.1135 7.00165C9.11788 6.99714 9.12408 6.99055 9.13206 6.98208C9.29268 6.81147 10.1711 5.87842 11.2749 5.87842H13.073C14.2847 5.87842 15.5869 7.0656 15.5869 7.0656C15.5869 7.0656 15.7794 6.84789 15.7794 6.64447C15.7794 6.02673 15.776 4.37353 15.776 4.37353C14.8698 3.46461 14.7432 2.52779 15.1821 2.09306C15.9923 1.2787 16.2876 0.992286 16.2876 0.992286C16.2876 0.992286 16.2794 1.97945 17.2298 2.92783C17.553 3.25303 18.2531 4.13473 17.836 4.5579C17.4612 4.93208 16.8863 5.51989 16.8863 5.51989C16.857 5.30694 16.3189 4.79533 16.3189 4.79533C16.3189 4.79533 16.3216 6.36214 16.3189 6.55807C16.3005 7.26221 16.0331 7.46563 16.0331 7.46563C16.0331 7.46563 17.3401 8.76438 17.3401 10.436C17.3401 10.9914 17.3427 11.5201 17.3443 11.846C17.345 11.991 17.3455 12.0959 17.3455 12.1449C17.3455 12.4851 17.2564 12.7498 17.023 13.0165C16.9019 13.1437 15.6896 14.3628 15.5018 14.5322C15.1514 14.8459 14.7854 14.8989 14.5078 14.8989ZM14.4616 9.0093C14.4616 9.0093 11.6607 11.8919 11.5675 11.9871C11.5054 12.0525 11.4505 12.1109 11.4008 12.1639C11.0952 12.4893 10.987 12.6046 10.6306 12.8205H15.7107C17.089 12.8205 16.8148 11.964 16.5665 11.5381C16.061 10.6482 14.4616 9.0093 14.4616 9.0093Z" fill="white"/>
<path d="M5.8352 18.3718V22.4307C5.8352 25.067 8.01293 27.5039 10.6587 27.5039H12.8712C14.1917 27.5039 14.6598 27.1828 15.4592 26.4732C15.7571 26.2113 16.1374 25.7813 16.2769 25.6269C16.7348 25.1105 17.2314 24.6941 17.2314 23.3362V22.0062C17.2314 20.8564 16.5647 20.3822 16.2463 20.0611C16.0374 19.8549 15.4741 19.3175 15.4741 19.3175L15.4741 22.034C15.4741 22.034 16.0306 22.6266 16.2769 22.8212C17.4253 23.726 16.5116 25.303 15.4449 25.303C15.2333 25.303 10.8901 25.3044 10.5948 25.3044C8.72796 25.3044 6.39307 23.7594 6.39307 21.0768V18.8739C6.39307 16.6118 5.77124 16.6118 5.77124 16.6118H4.93988C4.93988 16.6118 5.8352 17.1023 5.8352 18.3718Z" fill="white"/>
<path d="M7.92932 21.173C9.03894 22.2778 9.4138 22.835 9.51721 23.3364C9.60362 23.2493 11.0915 22.0159 11.0915 21.5506C11.0915 20.8689 10.6452 20.6382 9.55599 19.5497L7.92932 21.173Z" fill="white"/>
</svg>
