<svg width="32" height="32" viewBox="0 0 32 32" fill="none" xmlns="http://www.w3.org/2000/svg">
<path fill-rule="evenodd" clip-rule="evenodd" d="M22.9005 12.0173C23.0598 12.0173 23.2101 12.1618 23.1434 12.364V12.3639L22.8887 12.8243C22.8841 12.8309 22.8791 12.8384 22.8737 12.8466C22.8226 12.9237 22.7339 13.0575 22.522 13.0503L19.0375 13.06C18.4897 13.06 18.2599 13.1135 17.953 13.6786L15.0008 19.1297C14.8082 19.4832 14.3306 19.7498 13.8803 19.7487L11.4184 19.7509C11.0452 19.7488 10.8015 19.3272 10.9826 18.9943L13.8765 13.6774C14.0541 13.3525 13.8229 13.0608 13.5398 13.0608L12.7691 13.06C12.2099 13.06 11.932 13.2055 11.6756 13.6772L8.70744 19.1556C8.50042 19.5078 8.08879 19.7529 7.607 19.7532H0.557489C0.208072 19.7507 -0.0895029 19.3498 0.131691 18.9831C0.131691 18.9831 3.63035 13.0209 3.82494 12.6798C4.08207 12.2305 4.48195 12.0463 4.86247 12.0463L5.35511 12.0461H5.35512C6.10325 12.0459 7.38476 12.0454 7.4888 12.0463C7.8071 12.049 7.96091 12.3967 7.83096 12.6352L4.84554 18.1305C4.67791 18.4388 4.90706 18.7364 5.18009 18.7353L6.08561 18.7364C6.52177 18.7364 6.98386 18.4814 7.17429 18.1306L10.1525 12.6536C10.4006 12.2254 10.8907 12.0443 11.2408 12.0446L22.9005 12.0173ZM25.3602 19.7543H27.4778V19.7542C27.4778 19.7542 28.646 17.3076 28.8375 16.953C29.5052 15.7153 30.7947 15.4274 31.46 15.5609C32.4118 14.7625 31.8505 14.1549 31.3605 14.1711C30.1242 14.2092 29.2042 15.6677 29.2042 15.6677L29.143 15.666C29.173 15.6162 29.8529 14.2562 29.8529 14.2562H28.544C28.3104 14.2562 28.0602 14.2804 27.8559 14.6851C27.5856 15.224 25.3602 19.7543 25.3602 19.7543ZM25.9039 12.2098C25.9554 12.1261 26.0687 12.0214 26.2709 12.0214C26.3523 12.0214 26.582 12.0221 26.8358 12.0229C27.2139 12.0241 27.6455 12.0255 27.7197 12.0249C27.8511 12.0232 28.0519 12.1669 27.9378 12.4012C27.868 12.5457 27.4902 13.3223 27.4439 13.4004C27.398 13.4789 27.2874 13.5891 27.1315 13.5891H25.6626C25.4107 13.5891 25.3419 13.3403 25.402 13.221C25.5126 13.0005 25.9039 12.2098 25.9039 12.2098ZM19.9638 17.2813C20.1621 17.2298 20.4047 17.1891 20.6007 17.1849C20.6007 17.1849 20.1887 17.9349 19.9454 18.1703C19.7028 18.4039 19.4405 18.5224 19.1944 18.5224C19.0672 18.5224 18.9321 18.491 18.8743 18.4039C18.816 18.3164 18.817 18.2038 18.8754 18.0645C18.9242 17.9491 18.994 17.8412 19.0852 17.7434C19.1789 17.6432 19.2912 17.5582 19.4274 17.4852C19.5874 17.4009 19.7661 17.3332 19.9638 17.2813ZM19.4367 14.3778C19.5963 14.2631 19.9029 14.2358 19.9267 14.2358L21.8387 14.2372C22.1646 14.2374 22.4404 14.2658 22.663 14.3211C23.1178 14.4342 23.3646 14.6768 23.4192 15.124C23.4472 15.358 23.396 15.6348 23.2626 15.9518C23.2547 15.9709 23.2464 15.9935 23.2371 16.0183L23.2371 16.0184C23.209 16.094 23.173 16.1907 23.1202 16.2763C23.0956 16.3168 22.9081 16.6695 22.657 17.1417C22.1988 18.0035 21.5289 19.2634 21.2511 19.7508H19.2614C19.2614 19.7508 19.7173 18.9116 19.747 18.8615L19.6862 18.859C19.6862 18.859 18.7779 19.8267 17.6094 19.8364C17.3654 19.8383 17.1698 19.8005 17.0208 19.7293C16.8746 19.6581 16.7647 19.5457 16.6935 19.3919C16.6254 19.253 16.5964 19.0868 16.6043 18.8929C16.6123 18.7 16.6624 18.4909 16.7564 18.268C16.8425 18.0627 16.9558 17.8688 17.0955 17.6842C17.2344 17.5028 17.3965 17.3373 17.5807 17.1873C17.7494 17.0532 17.9343 16.9353 18.1406 16.8302C18.3466 16.7265 18.575 16.6339 18.8239 16.5534C19.11 16.4622 19.4512 16.3858 19.849 16.3218C20.2468 16.2572 20.6684 16.2147 21.1129 16.1929C21.2546 15.9655 21.2739 15.924 21.2739 15.7709C21.2739 15.6627 21.1443 15.5518 20.9764 15.5518C20.9392 15.5518 20.7205 15.5575 20.4319 15.565L20.4318 15.565C19.7513 15.5828 18.6825 15.6106 18.6891 15.5978L19.0952 14.808C19.1349 14.731 19.3157 14.4635 19.4367 14.3777V14.3778ZM24.4716 19.3957L27.1072 14.2533H25.4718C25.3515 14.273 25.1238 14.3121 25.0135 14.4196C24.8897 14.5498 24.8795 14.5681 24.8558 14.6106C24.8438 14.6322 24.8282 14.6601 24.7927 14.712C24.3548 15.5663 23.9286 16.3988 23.5025 17.2313C23.0763 18.0638 22.6502 18.8963 22.2123 19.7507H24.2967L24.4716 19.3957Z" fill="#004990"/>
</svg>
