<svg width="32" height="32" viewBox="0 0 32 32" fill="none" xmlns="http://www.w3.org/2000/svg">
<path fill-rule="evenodd" clip-rule="evenodd" d="M5.27321 15.2748C5.0401 12.2408 6.71934 9.14522 9.0234 6.76638C13.3039 5.81782 17.7011 6.91498 20.766 10.0682L20.859 10.165C22.0056 8.62561 23.1153 6.77524 23.4311 5.04207C21.3071 3.7742 18.785 3.10722 16.104 3.27908C13.3404 3.45602 10.7846 4.52892 8.75734 6.23247C4.09075 7.76028 0.53692 11.9356 0.0525969 17.1364C0.0242303 17.4427 0.00656185 17.7476 0 18.0504H0.000270644C2.32595 20.6396 8.21528 20.2184 9.47126 19.8346L9.472 19.8341C7.23331 20.2128 5.55786 18.9808 5.27323 15.2747L5.27321 15.2748ZM29.5865 17.1407C29.8571 14.2324 29.1345 11.4994 27.7196 9.23997C28.4199 8.25567 29.1001 7.29746 29.7491 6.38133C31.9056 3.33813 32.1604 3.57663 31.9317 3.30012C31.6883 3.00675 28.689 2.34137 26.1179 4.90764C25.7298 5.29497 25.343 5.69731 24.9561 6.11119L24.951 6.1163L24.9015 6.17094L24.9007 6.17147L24.8517 6.22586L24.8466 6.23352L24.8026 6.28229L24.7899 6.29505L24.7511 6.33769L24.7332 6.35556L24.6995 6.39259L24.6765 6.41812L24.6484 6.44927L24.6203 6.48016L24.5974 6.50569L24.5639 6.54272L24.546 6.56314L24.5067 6.60655L24.494 6.61931L24.449 6.6691L24.4439 6.67676L24.3934 6.73293L24.3923 6.73385L24.3407 6.7913L24.3356 6.79641L24.2884 6.849L24.2782 6.85922L24.2363 6.90594L24.221 6.92381L24.1847 6.96441L24.1643 6.98739L24.1334 7.0216L24.1061 7.05224L24.0805 7.08033L24.0279 7.13905L23.9891 7.18246L23.9738 7.19778L23.9291 7.24782L23.9215 7.25803L23.8709 7.31446L23.8684 7.31701L23.8153 7.37651L23.8128 7.37906L23.7627 7.43549L23.7525 7.4457L23.7078 7.496L23.6925 7.51132L23.6537 7.55498L23.6333 7.57796L23.6001 7.61549L23.5735 7.64511L23.5462 7.676L23.454 7.77992L23.4387 7.79779L23.3945 7.84732L23.3843 7.85754L23.3343 7.91396L23.3292 7.91907L23.2748 7.9806L23.273 7.98239L23.2198 8.04214L23.2127 8.0498L23.1652 8.10316L23.1519 8.11848L23.1106 8.1652L23.0912 8.18818L23.0557 8.22827L23.0304 8.25687L23.0008 8.29031L22.9694 8.3258L22.9456 8.35287L22.9086 8.39474L22.8907 8.41517L22.8473 8.46393L22.8353 8.4767L22.786 8.53236L22.7799 8.54002L22.7248 8.60232V8.6025L22.6691 8.66556L22.6635 8.67067L22.6137 8.7271L22.602 8.73986L22.5584 8.7894L22.5405 8.80982L22.5028 8.85272L22.479 8.87978L22.4471 8.91578L22.4172 8.95L22.3915 8.97936L22.3554 9.02021L22.3355 9.04319L22.2936 9.09094L22.2799 9.10625L22.2319 9.16115L22.2239 9.17136L22.1698 9.23315L22.168 9.23496L22.1122 9.2988L22.1078 9.3039L22.0563 9.36288L22.0458 9.37565L22.0001 9.42773L21.984 9.44561L21.9441 9.49106L21.9219 9.51659L21.8879 9.55514L21.8595 9.58757L21.832 9.61923L21.7975 9.65855L21.7758 9.68408L21.7355 9.73029L21.7197 9.74817L21.6732 9.80128L21.6635 9.81149L21.4952 10.004L21.4868 10.0142L21.46 10.0449L21.4288 10.0806L21.4245 10.0857L21.4206 10.0908L21.4119 10.101L21.4038 10.1112L21.3954 10.1215L21.114 10.4442L21.1142 10.4444L20.8926 10.698L20.8301 10.77C20.6362 10.9924 20.4415 11.2138 20.2464 11.4336L20.2385 11.4413L20.1843 11.5023C19.2697 12.5356 18.3391 13.5559 17.3827 14.5213L17.3753 14.5289C11.6688 20.4321 7.39108 20.8924 5.18511 21.0962C3.50228 21.2517 1.72523 21.1483 0.199932 20.6098C0.564996 22.6088 1.40196 24.4568 2.5992 26.024C3.07434 26.6465 3.62478 27.1729 4.2289 27.6027C7.39775 27.7263 10.217 27.1658 10.217 27.1658C9.58463 27.7438 8.11014 28.3112 6.61853 28.7307C8.39585 29.2133 10.3513 29.0542 12.1386 28.2152C15.0966 26.8264 16.5706 24.658 18.4171 22.1445C20.0608 19.9071 21.8775 17.3979 23.698 14.8635C24.2518 16.5004 24.479 18.2772 24.3087 20.1089C24.071 22.6624 23.0931 24.969 21.6071 26.8359C21.472 27.0057 21.4707 27.2385 21.6043 27.4097C21.7375 27.5805 21.9632 27.6361 22.1609 27.547C26.1851 25.7253 29.1448 21.8538 29.584 17.1407H29.5865Z" fill="#E31F24"/>
</svg>
