<svg width="32" height="32" viewBox="0 0 32 32" fill="none" xmlns="http://www.w3.org/2000/svg">
<g clip-path="url(#clip0)">
<path fill-rule="evenodd" clip-rule="evenodd" d="M0.209216 19.0008C1.35562 25.217 6.32337 30.3091 12.5825 31.6634C14.3614 32.0562 17.01 32.1103 18.7889 31.7989C22.0831 31.203 24.9953 29.632 27.4198 27.1401C30.6219 23.8492 32.2031 19.7321 31.9791 15.2765C31.7419 10.4552 29.4755 6.14861 25.6146 3.19626C22.742 1.01585 19.6058 -0.013411 15.8767 0.000131882C11.357 0.0136748 7.40389 1.73362 4.30728 5.03809C2.14624 7.35392 0.828538 9.91353 0.196039 13.0149C-0.0675023 14.3421 -0.0675023 17.5382 0.209216 19.0008ZM26.3261 26.1379C24.1256 28.3725 21.8855 29.6049 18.8152 30.2414C17.313 30.5664 14.9543 30.58 13.4126 30.2956C11.2121 29.8893 9.05102 28.9142 7.17988 27.4651L6.12572 26.6525L13.3336 26.5848L20.5282 26.5171L22.6102 23.7544C24.9294 20.6666 25.6937 19.8269 27.0114 18.9331C27.7624 18.4185 30.2924 17.1861 30.3979 17.2809C30.4374 17.335 29.9367 19.8134 29.7785 20.4093C29.2646 22.224 27.802 24.6482 26.3261 26.1379ZM7.6279 22.5084L9.51222 18.9737L8.51076 16.9829C7.95733 15.8995 7.08764 14.1525 6.57374 13.1097L5.63816 11.2136L7.53566 7.76021L7.73276 7.40129L7.7328 7.40121C10.252 2.81374 10.2874 2.74934 10.1974 2.74934C10.1579 2.74934 9.67035 2.99311 9.11691 3.29106C5.44051 5.26832 2.79192 8.89781 1.89588 13.2315C1.59281 14.7077 1.61916 17.5788 1.97494 19.0821C2.54156 21.5875 3.45077 23.47 4.96614 25.3389C5.29556 25.7181 5.59863 26.0431 5.63816 26.0431C5.69087 26.0431 6.58691 24.4451 7.6279 22.5084ZM22.1886 17.6194C21.9118 17.9851 20.5282 19.854 19.1315 21.7636L16.5883 25.2305H13.2282C11.3834 25.2305 9.88118 25.2035 9.88118 25.1628C9.88118 25.1222 9.99977 24.9191 10.1315 24.7159C10.2274 24.5815 11.0733 23.2673 12.2568 21.4283C12.862 20.4879 13.5556 19.4103 14.2823 18.283L18.1827 12.2158L16.5619 9.64267C16.3816 9.35491 16.1786 9.03154 15.9627 8.68744C15.1218 7.34737 14.0837 5.69309 13.4126 4.60472L11.8577 2.13991L12.3321 1.97739C13.215 1.66591 15.0598 1.48985 16.7991 1.57111C22.07 1.80134 26.5765 4.79432 28.922 9.5885C29.8708 11.5251 30.3056 13.2451 30.3979 15.4526L30.4769 17.1184L26.5897 17.0236L22.7025 16.9423L22.1886 17.6194Z" fill="#0099CC"/>
</g>
<defs>
<clipPath id="clip0">
<rect width="32" height="32" fill="white"/>
</clipPath>
</defs>
</svg>
