<svg width="32" height="32" viewBox="0 0 32 32" fill="none" xmlns="http://www.w3.org/2000/svg">
<path fill-rule="evenodd" clip-rule="evenodd" d="M18.4096 5.06393C14.5088 5.06393 13.5587 5.70227 12.0155 7.39533L0.634216 19.8745C0.636337 19.8745 0.639165 19.8745 0.641992 19.8745C0.650475 19.8738 0.658958 19.8738 0.668148 19.8738C0.6837 19.8731 0.699959 19.8731 0.716925 19.8724C1.06755 19.866 1.40829 19.8745 1.74124 19.895C1.76952 19.8964 1.7978 19.8985 1.82678 19.9006C5.1924 20.1346 7.68003 21.6898 10.08 23.2465C12.9557 25.1106 15.7063 26.9754 19.6933 26.564C19.699 26.5633 19.7053 26.5626 19.711 26.5626C19.7181 26.5619 19.7251 26.5612 19.7322 26.5605C19.7442 26.5591 19.7562 26.5576 19.7683 26.5562C19.7711 26.5562 19.7739 26.5562 19.7774 26.5555C19.9344 26.5378 20.0934 26.5173 20.2553 26.4926C20.2779 26.4891 20.3013 26.4855 20.3239 26.4813C20.7721 26.4106 21.2358 26.3109 21.7165 26.1801L31.1948 5.06393H18.4096Z" fill="#DE1438"/>
<mask id="mask0" mask-type="alpha" maskUnits="userSpaceOnUse" x="0" y="5" width="32" height="22">
<path fill-rule="evenodd" clip-rule="evenodd" d="M18.4096 5.06393C14.5088 5.06393 13.5587 5.70227 12.0155 7.39533L0.634216 19.8745C0.636337 19.8745 0.639165 19.8745 0.641992 19.8745C0.650475 19.8738 0.658958 19.8738 0.668148 19.8738C0.6837 19.8731 0.699959 19.8731 0.716925 19.8724C1.06755 19.866 1.40829 19.8745 1.74124 19.895C1.76952 19.8964 1.7978 19.8985 1.82678 19.9006C5.1924 20.1346 7.68003 21.6898 10.08 23.2465C12.9557 25.1106 15.7063 26.9754 19.6933 26.564C19.699 26.5633 19.7053 26.5626 19.711 26.5626C19.7181 26.5619 19.7251 26.5612 19.7322 26.5605C19.7442 26.5591 19.7562 26.5576 19.7683 26.5562C19.7711 26.5562 19.7739 26.5562 19.7774 26.5555C19.9344 26.5378 20.0934 26.5173 20.2553 26.4926C20.2779 26.4891 20.3013 26.4855 20.3239 26.4813C20.7721 26.4106 21.2358 26.3109 21.7165 26.1801L31.1948 5.06393H18.4096Z" fill="white"/>
</mask>
<g mask="url(#mask0)">
<path fill-rule="evenodd" clip-rule="evenodd" d="M26.3615 13.5962C26.2689 13.4357 26.0286 13.3247 25.6009 13.51C25.26 13.6584 25.0694 13.744 24.9895 13.7799C24.9628 13.7919 24.9484 13.7984 24.9449 13.7998L24.942 13.8011C24.8978 13.8223 24.391 14.0642 24.4437 13.3509L24.6154 11.614C24.6154 11.614 24.6833 10.9813 24.1892 10.9856C24.1892 10.9856 23.9276 10.9545 23.5049 11.3256C23.5049 11.3256 23.2992 11.5179 23.1401 11.5582C23.0496 11.5808 22.9429 11.5914 22.7888 11.5391C22.6347 11.4875 22.4968 11.5108 22.3887 11.544C22.3887 11.544 21.9143 11.6692 21.8797 12.3174L21.6895 13.8563C21.6895 13.8563 21.5884 14.4593 21.6415 14.571C21.6415 14.571 21.6909 14.8142 22.1271 14.6622C22.1271 14.6622 22.4968 14.5569 22.5385 13.9263C22.5385 13.9263 22.6446 12.6892 22.8206 12.4489C22.8206 12.4489 23.0277 12.0601 23.3282 11.8918C23.3282 11.8918 23.7537 11.684 23.7481 12.0332L23.5947 13.4456C23.5947 13.4456 23.4462 14.1455 23.7601 14.2515C23.7601 14.2515 23.794 14.2678 23.7155 14.3102C23.7155 14.3102 21.6796 15.1776 19.0584 16.6338C19.2387 15.1528 19.5462 13.0858 19.5462 13.0858C19.5907 12.7507 19.1807 12.7507 19.1807 12.7507C18.797 12.7359 18.7287 13.1628 18.6937 13.3812L18.6887 13.4124C18.6533 13.6188 18.3515 15.2914 18.3515 15.2914C18.2129 16.0527 17.7612 16.0188 17.7612 16.0188C17.3159 16.0676 17.5809 14.8623 17.5809 14.8623C17.6001 14.7933 17.6173 14.726 17.6341 14.6604L17.6341 14.6604L17.6341 14.6604L17.6341 14.6604L17.6341 14.6604L17.6341 14.6604C17.7217 14.3172 17.7973 14.0211 18.0822 13.7807C18.4151 13.4965 18.4469 13.1296 18.1953 13.1183C17.7782 13.1014 17.3505 13.5495 17.3505 13.5495C16.6061 14.2861 16.6075 16.0619 16.6075 16.0619C16.5934 16.626 16.9737 16.7929 16.9737 16.7929C17.4466 17.0113 18.0963 16.6303 18.0963 16.6303C18.249 16.5285 18.2271 16.6713 18.2271 16.6713L18.1938 17.1237C16.2717 18.2336 14.1355 19.6198 12.2925 21.1849C12.2925 21.1849 11.4464 21.8063 11.7616 22.2149C12.0974 22.6489 12.5619 22.2531 12.7534 22.0763C12.7534 22.0763 14.6423 20.1387 18.1302 17.972L18.0178 19.4297C17.9683 20.0857 17.757 22.1202 17.757 22.1202C17.6603 22.91 17.7859 23.071 17.8342 23.133L17.8354 23.1346C17.9054 23.2215 18.2165 23.4866 18.5678 23.2604C18.9582 23.0087 18.8179 22.4369 18.7354 22.1005L18.7353 22.1005L18.7352 22.1C18.7269 22.0662 18.7192 22.0348 18.7127 22.0064C18.6406 21.6925 18.6505 21.1779 18.6505 21.1779C18.683 20.7587 18.9255 17.9268 18.9255 17.9268C18.9297 17.8172 18.9432 17.6602 18.9623 17.468C20.2983 16.6833 21.8316 15.8859 23.5473 15.1564C23.5473 15.1564 24.2896 14.8616 24.9215 14.6622C24.9215 14.6622 25.1301 14.5838 25.3973 14.506C25.7543 14.4007 26.2152 14.2437 26.3502 14.0458C26.4301 13.9299 26.4584 13.7644 26.3615 13.5962ZM21.4251 11.1602C21.4251 11.1602 21.8196 10.8336 21.6393 10.5939C21.6393 10.5939 21.4718 10.3444 21.0045 10.6752C21.0045 10.6752 20.586 11.0181 20.8426 11.2606C20.8426 11.2606 21.0858 11.4903 21.4251 11.1602ZM20.8518 14.7032C20.7684 15.2391 20.2969 15.3402 20.2969 15.3402C19.865 15.4511 19.9583 15.0263 19.9583 15.0263L20.0226 14.6276L20.3747 12.6631C20.4567 12.2163 20.9084 12.1279 20.9084 12.1279C21.2547 12.051 21.1683 12.5083 21.147 12.6209L21.1438 12.6383C21.1311 12.7062 20.8518 14.7032 20.8518 14.7032ZM14.2556 13.5177C14.6183 13.2272 14.5115 12.9861 14.5115 12.9861C14.3758 12.5959 13.8831 13.0116 13.8831 13.0116C13.4674 13.3099 13.6123 13.5983 13.6123 13.5983C13.794 13.9108 14.2556 13.5177 14.2556 13.5177ZM14.5038 16.6069C14.5327 16.3164 14.7137 15.0129 14.7137 15.0129C14.7745 14.1985 15.2135 14.1801 15.2135 14.1801C15.2644 14.1737 15.6214 14.1278 15.6214 14.1278C15.6214 14.1278 15.7642 14.1151 16.0321 13.9942C16.3841 13.8401 16.4965 14.1299 16.4965 14.1299C16.6775 14.4982 16.0823 14.7661 16.0823 14.7661C15.5281 15.0659 15.4991 15.7643 15.4991 15.7643L15.4037 16.7073C15.3287 17.3768 14.853 17.5083 14.853 17.5083C14.262 17.7062 14.5038 16.6069 14.5038 16.6069ZM13.6123 14.7888C13.0602 14.9146 12.9881 15.543 12.9881 15.543L12.6502 18.0448C12.5965 18.5411 13.2405 18.1805 13.2405 18.1805C13.5049 18.0222 13.5515 17.6956 13.5515 17.6956L13.654 17.0679L13.9672 15.3748C14.0697 14.6686 13.6123 14.7888 13.6123 14.7888ZM15.4284 8.37352C14.9753 8.72132 14.402 9.78028 14.402 9.78028C13.7565 10.7813 13.0228 12.7104 12.4537 14.6424C11.6779 17.2727 11.1795 19.7313 11.041 20.4148C11.0242 20.4973 11.0127 20.554 11.0067 20.5819C10.9508 20.8421 10.8639 21.1559 10.5825 21.1574C10.2081 21.158 10.1565 20.7254 10.1484 20.658C10.1481 20.6558 10.1479 20.654 10.1478 20.6526C10.1435 20.6074 9.66139 14.8623 9.66139 14.8623C9.66139 14.8623 9.63453 14.6233 9.57162 14.6106C9.57162 14.6106 9.49103 14.5767 9.38146 14.8156L8.8343 15.9919C8.60314 16.4854 8.2511 16.2853 8.2511 16.2853C7.93582 16.1475 8.13163 15.782 8.13163 15.782L9.31713 12.8596C9.56596 12.2262 9.98799 12.3033 9.98799 12.3033C10.3104 12.3275 10.333 12.6412 10.3457 12.8178C10.3471 12.8371 10.3484 12.8547 10.3499 12.8702C10.3655 13.025 10.7592 17.3047 10.7592 17.3047C10.7769 17.7705 10.8476 17.6037 10.8476 17.6037C11.7687 12.5047 14.4423 7.44605 14.4423 7.44605C15.0085 6.47616 15.7069 7.04664 15.7069 7.04664C15.9741 7.25094 15.9381 7.58036 15.9381 7.58036C15.9232 8.07379 15.4284 8.37352 15.4284 8.37352Z" fill="white"/>
</g>
</svg>
