<svg width="32" height="32" viewBox="0 0 32 32" fill="none" xmlns="http://www.w3.org/2000/svg">
<path d="M21.4503 26.3279L16.1994 31.5772L10.9452 26.3279L16.1994 21.0723L21.4503 26.3279Z" fill="#ED164A"/>
<path d="M21.4503 5.31941L16.1994 10.5719L10.9452 5.31941L16.1994 0.0668945L21.4503 5.31941Z" fill="#ED164A"/>
<path d="M31.9546 15.8222L26.7037 21.0731L21.4496 15.8222L26.7037 10.5713L31.9546 15.8222Z" fill="#ED164A"/>
<path d="M10.9459 15.8222L5.69502 21.0731L0.440883 15.8222L5.69502 10.5713L10.9459 15.8222Z" fill="#ED164A"/>
<path fill-rule="evenodd" clip-rule="evenodd" d="M10.3641 25.7447V16.4082L10.9459 15.8215L11.5277 16.4082V25.7447L10.9459 26.3282L10.3641 25.7447ZM8.02874 23.4078L9.19718 24.5747V17.5736L8.02874 18.742V23.4078ZM6.86029 22.2409V19.9072L5.69501 21.0725L6.86029 22.2409ZM15.0284 19.9072V22.2409L16.2 21.0725L15.0284 19.9072ZM13.8646 23.4078L12.6962 24.5747V17.5735L13.8646 18.7419V23.4078Z" fill="#ED164A"/>
<path fill-rule="evenodd" clip-rule="evenodd" d="M20.8652 15.2389V5.90392L21.4503 5.31885L22.0321 5.90392V15.2389L21.4503 15.8223L20.8652 15.2389ZM18.5315 12.9035L19.6999 14.0704V7.06765L18.5315 8.23771V12.9035ZM17.3647 11.735V9.40454L16.1962 10.573L17.3647 11.735ZM25.5327 9.40454V11.735L26.7012 10.573L25.5327 9.40454ZM24.3691 12.9035L23.199 14.0704V7.06757L24.3691 8.23764V12.9035Z" fill="#ED164A"/>
<path fill-rule="evenodd" clip-rule="evenodd" d="M20.8652 25.7447V16.4082L21.4503 15.8215L22.0321 16.4082V25.7447L21.4503 26.3282L20.8652 25.7447ZM18.5315 23.4078L19.6999 24.5747V17.5736L18.5315 18.742V23.4078ZM17.3647 22.2409V19.9072L16.1962 21.0725L17.3647 22.2409ZM25.5327 19.9072V22.2409L26.7012 21.0725L25.5327 19.9072ZM24.3691 23.4078L23.199 24.5747V17.5735L24.3691 18.7419V23.4078Z" fill="#ED164A"/>
<path fill-rule="evenodd" clip-rule="evenodd" d="M10.3641 15.2389V5.90392L10.9459 5.31885L11.5277 5.90392V15.2389L10.9459 15.8223L10.3641 15.2389ZM8.02874 12.9035L9.19718 14.0704V7.06765L8.02874 8.23771V12.9035ZM6.86029 11.735V9.40454L5.69501 10.573L6.86029 11.735ZM15.0284 9.40454V11.735L16.2 10.573L15.0284 9.40454ZM13.8646 12.9035L12.6962 14.0704V7.06757L13.8646 8.23764V12.9035Z" fill="#ED164A"/>
</svg>
