<svg width="32" height="32" viewBox="0 0 32 32" fill="none" xmlns="http://www.w3.org/2000/svg">
<path d="M1.13692 18.3717H5.45883V14.0498H1.13692V18.3717Z" fill="#EEF0F0"/>
<path d="M5.46012 18.3717H9.78204V14.0498H5.46012V18.3717Z" fill="#D7A6CC"/>
<path d="M9.78204 14.0504H14.1046V9.72913H9.78204V14.0504Z" fill="#B3D4F0"/>
<path d="M9.78204 18.3717H14.1046V14.0498H9.78204V18.3717Z" fill="#9C3391"/>
<path d="M9.78204 22.6936H14.1046V18.3723H9.78204V22.6936Z" fill="#D7A6CC"/>
<path d="M14.1065 5.40721H18.4278V1.08594H14.1065V5.40721Z" fill="#EEF0F0"/>
<path d="M14.1065 9.72918H18.4278V5.40662H14.1065V9.72918Z" fill="#B3D4F0"/>
<path d="M14.1065 14.0504H18.4278V9.72913H14.1065V14.0504Z" fill="#6BABDE"/>
<path d="M14.1065 18.3717H18.4278V14.0498H14.1065V18.3717Z" fill="black"/>
<path d="M14.1065 22.6936H18.4278V18.3723H14.1065V22.6936Z" fill="#9C3391"/>
<path d="M14.1065 27.0161H18.4278V22.6948H14.1065V27.0161Z" fill="#D7A6CC"/>
<path d="M14.1065 31.3381H18.4278V27.0168H14.1065V31.3381Z" fill="#EEF0F0"/>
<path d="M18.4291 14.0504H22.7517V9.72913H18.4291V14.0504Z" fill="#B3D4F0"/>
<path d="M18.4291 18.3717H22.7517V14.0498H18.4291V18.3717Z" fill="#8CC540"/>
<path d="M18.4291 22.6936H22.7517V18.3723H18.4291V22.6936Z" fill="#D9E8A1"/>
<path d="M22.7517 18.3717H27.0716V14.0498H22.7517V18.3717Z" fill="#D9E8A1"/>
<path d="M27.0742 18.3717H31.3961V14.0498H27.0742V18.3717Z" fill="#EEF0F0"/>
</svg>
