<svg width="32" height="32" viewBox="0 0 32 32" fill="none" xmlns="http://www.w3.org/2000/svg">
<path fill-rule="evenodd" clip-rule="evenodd" d="M18.4095 5.06393C14.5088 5.06393 13.5587 5.70227 12.0155 7.39533L0.634186 19.8745C0.636307 19.8745 0.639134 19.8745 0.641962 19.8745C0.650445 19.8738 0.658928 19.8738 0.668118 19.8738C0.68367 19.8731 0.699929 19.8731 0.716895 19.8724C1.06752 19.866 1.40826 19.8745 1.74121 19.895C1.76949 19.8964 1.79777 19.8985 1.82675 19.9006C5.19237 20.1346 7.68 21.6898 10.08 23.2465C12.9557 25.1106 15.7063 26.9754 19.6933 26.564C19.6989 26.5633 19.7053 26.5626 19.711 26.5626C19.718 26.5619 19.7251 26.5612 19.7322 26.5605C19.7442 26.5591 19.7562 26.5576 19.7682 26.5562C19.7711 26.5562 19.7739 26.5562 19.7774 26.5555C19.9343 26.5378 20.0934 26.5173 20.2553 26.4926C20.2779 26.4891 20.3012 26.4855 20.3239 26.4813C20.772 26.4106 21.2358 26.3109 21.7165 26.1801L31.1948 5.06393H18.4095Z" fill="#DE1438"/>
<mask id="mask0" mask-type="alpha" maskUnits="userSpaceOnUse" x="0" y="5" width="32" height="22">
<path fill-rule="evenodd" clip-rule="evenodd" d="M18.4095 5.06393C14.5088 5.06393 13.5587 5.70227 12.0155 7.39533L0.634186 19.8745C0.636307 19.8745 0.639134 19.8745 0.641962 19.8745C0.650445 19.8738 0.658928 19.8738 0.668118 19.8738C0.68367 19.8731 0.699929 19.8731 0.716895 19.8724C1.06752 19.866 1.40826 19.8745 1.74121 19.895C1.76949 19.8964 1.79777 19.8985 1.82675 19.9006C5.19237 20.1346 7.68 21.6898 10.08 23.2465C12.9557 25.1106 15.7063 26.9754 19.6933 26.564C19.6989 26.5633 19.7053 26.5626 19.711 26.5626C19.718 26.5619 19.7251 26.5612 19.7322 26.5605C19.7442 26.5591 19.7562 26.5576 19.7682 26.5562C19.7711 26.5562 19.7739 26.5562 19.7774 26.5555C19.9343 26.5378 20.0934 26.5173 20.2553 26.4926C20.2779 26.4891 20.3012 26.4855 20.3239 26.4813C20.772 26.4106 21.2358 26.3109 21.7165 26.1801L31.1948 5.06393H18.4095Z" fill="white"/>
</mask>
<g mask="url(#mask0)">
<path fill-rule="evenodd" clip-rule="evenodd" d="M26.3615 13.5962C26.2689 13.4357 26.0285 13.3247 25.6008 13.51C25.26 13.6584 25.0694 13.744 24.9894 13.7799C24.9627 13.7919 24.9483 13.7984 24.9448 13.7998L24.942 13.8011C24.8977 13.8223 24.3909 14.0642 24.4436 13.3509L24.6154 11.614C24.6154 11.614 24.6833 10.9813 24.1891 10.9856C24.1891 10.9856 23.9276 10.9545 23.5048 11.3256C23.5048 11.3256 23.2991 11.5179 23.1401 11.5582C23.0496 11.5808 22.9428 11.5914 22.7887 11.5391C22.6346 11.4875 22.4968 11.5108 22.3886 11.544C22.3886 11.544 21.9143 11.6692 21.8796 12.3174L21.6895 13.8563C21.6895 13.8563 21.5884 14.4593 21.6414 14.571C21.6414 14.571 21.6909 14.8142 22.1271 14.6622C22.1271 14.6622 22.4968 14.5569 22.5385 13.9263C22.5385 13.9263 22.6445 12.6892 22.8205 12.4489C22.8205 12.4489 23.0277 12.0601 23.3281 11.8918C23.3281 11.8918 23.7537 11.684 23.748 12.0332L23.5946 13.4456C23.5946 13.4456 23.4462 14.1455 23.76 14.2515C23.76 14.2515 23.794 14.2678 23.7155 14.3102C23.7155 14.3102 21.6796 15.1776 19.0583 16.6338C19.2386 15.1528 19.5461 13.0858 19.5461 13.0858C19.5906 12.7507 19.1806 12.7507 19.1806 12.7507C18.7969 12.7359 18.7286 13.1628 18.6937 13.3812L18.6886 13.4124C18.6533 13.6188 18.3514 15.2914 18.3514 15.2914C18.2129 16.0527 17.7612 16.0188 17.7612 16.0188C17.3158 16.0676 17.5809 14.8623 17.5809 14.8623C17.6001 14.7933 17.6172 14.726 17.634 14.6604L17.634 14.6604L17.634 14.6604L17.634 14.6604L17.634 14.6604L17.634 14.6604C17.7216 14.3172 17.7972 14.0211 18.0821 13.7807C18.415 13.4965 18.4469 13.1296 18.1952 13.1183C17.7781 13.1014 17.3504 13.5495 17.3504 13.5495C16.6061 14.2861 16.6075 16.0619 16.6075 16.0619C16.5933 16.626 16.9736 16.7929 16.9736 16.7929C17.4466 17.0113 18.0962 16.6303 18.0962 16.6303C18.2489 16.5285 18.227 16.6713 18.227 16.6713L18.1938 17.1237C16.2717 18.2336 14.1354 19.6198 12.2925 21.1849C12.2925 21.1849 11.4463 21.8063 11.7616 22.2149C12.0974 22.6489 12.5618 22.2531 12.7534 22.0763C12.7534 22.0763 14.6422 20.1387 18.1302 17.972L18.0178 19.4297C17.9683 20.0857 17.7569 22.1202 17.7569 22.1202C17.6602 22.91 17.7858 23.071 17.8341 23.133L17.8354 23.1346C17.9054 23.2215 18.2164 23.4866 18.5677 23.2604C18.9581 23.0087 18.8178 22.4369 18.7353 22.1005L18.7353 22.1005L18.7352 22.1C18.7269 22.0662 18.7192 22.0348 18.7127 22.0064C18.6406 21.6925 18.6504 21.1779 18.6504 21.1779C18.683 20.7587 18.9254 17.9268 18.9254 17.9268C18.9297 17.8172 18.9431 17.6602 18.9622 17.468C20.2983 16.6833 21.8316 15.8859 23.5472 15.1564C23.5472 15.1564 24.2895 14.8616 24.9215 14.6622C24.9215 14.6622 25.13 14.5838 25.3972 14.506C25.7542 14.4007 26.2151 14.2437 26.3502 14.0458C26.43 13.9299 26.4583 13.7644 26.3615 13.5962ZM21.4251 11.1602C21.4251 11.1602 21.8195 10.8336 21.6393 10.5939C21.6393 10.5939 21.4717 10.3444 21.0045 10.6752C21.0045 10.6752 20.586 11.0181 20.8426 11.2606C20.8426 11.2606 21.0858 11.4903 21.4251 11.1602ZM20.8518 14.7032C20.7684 15.2391 20.2969 15.3402 20.2969 15.3402C19.8649 15.4511 19.9582 15.0263 19.9582 15.0263L20.0226 14.6276L20.3746 12.6631C20.4566 12.2163 20.9083 12.1279 20.9083 12.1279C21.2547 12.051 21.1682 12.5083 21.1469 12.6209L21.1437 12.6383C21.131 12.7062 20.8518 14.7032 20.8518 14.7032ZM14.2556 13.5177C14.6182 13.2272 14.5115 12.9861 14.5115 12.9861C14.3757 12.5959 13.883 13.0116 13.883 13.0116C13.4674 13.3099 13.6123 13.5983 13.6123 13.5983C13.794 13.9108 14.2556 13.5177 14.2556 13.5177ZM14.5037 16.6069C14.5327 16.3164 14.7136 15.0129 14.7136 15.0129C14.7744 14.1985 15.2134 14.1801 15.2134 14.1801C15.2643 14.1737 15.6213 14.1278 15.6213 14.1278C15.6213 14.1278 15.7641 14.1151 16.032 13.9942C16.3841 13.8401 16.4965 14.1299 16.4965 14.1299C16.6775 14.4982 16.0822 14.7661 16.0822 14.7661C15.528 15.0659 15.499 15.7643 15.499 15.7643L15.4036 16.7073C15.3287 17.3768 14.8529 17.5083 14.8529 17.5083C14.2619 17.7062 14.5037 16.6069 14.5037 16.6069ZM13.6123 14.7888C13.0602 14.9146 12.9881 15.543 12.9881 15.543L12.6502 18.0448C12.5964 18.5411 13.2404 18.1805 13.2404 18.1805C13.5048 18.0222 13.5515 17.6956 13.5515 17.6956L13.654 17.0679L13.9671 15.3748C14.0696 14.6686 13.6123 14.7888 13.6123 14.7888ZM15.4283 8.37352C14.9752 8.72132 14.4019 9.78028 14.4019 9.78028C13.7565 10.7813 13.0227 12.7104 12.4536 14.6424C11.6778 17.2727 11.1794 19.7313 11.0409 20.4148C11.0242 20.4973 11.0127 20.554 11.0066 20.5819C10.9507 20.8421 10.8638 21.1559 10.5824 21.1574C10.2081 21.158 10.1564 20.7254 10.1484 20.658C10.1481 20.6558 10.1479 20.654 10.1477 20.6526C10.1434 20.6074 9.66133 14.8623 9.66133 14.8623C9.66133 14.8623 9.63447 14.6233 9.57155 14.6106C9.57155 14.6106 9.49097 14.5767 9.38139 14.8156L8.83424 15.9919C8.60308 16.4854 8.25104 16.2853 8.25104 16.2853C7.93576 16.1475 8.13157 15.782 8.13157 15.782L9.31707 12.8596C9.5659 12.2262 9.98793 12.3033 9.98793 12.3033C10.3104 12.3275 10.333 12.6412 10.3457 12.8178C10.3471 12.8371 10.3483 12.8547 10.3499 12.8702C10.3654 13.025 10.7592 17.3047 10.7592 17.3047C10.7768 17.7705 10.8475 17.6037 10.8475 17.6037C11.7686 12.5047 14.4422 7.44605 14.4422 7.44605C15.0084 6.47616 15.7069 7.04664 15.7069 7.04664C15.9741 7.25094 15.938 7.58036 15.938 7.58036C15.9232 8.07379 15.4283 8.37352 15.4283 8.37352Z" fill="white"/>
</g>
</svg>
