<svg width="32" height="32" viewBox="0 0 32 32" fill="none" xmlns="http://www.w3.org/2000/svg">
<g clip-path="url(#clip0)">
<path fill-rule="evenodd" clip-rule="evenodd" d="M16.0453 17.1233L14.1831 20.3599H17.9372L16.0453 17.1233ZM12.1825 19.9941C10.7949 20.0962 8.91129 20.7109 6.99966 21.764C3.66089 23.6031 1.50042 26.0849 2.17278 27.3044C2.84515 28.5256 6.09823 28.0246 9.43534 26.1855C11.6502 24.966 13.3476 23.4614 14.043 22.232H10.8954L12.1825 19.9941ZM6.68819 19.7485C9.0629 18.5686 11.4244 18.0462 13.2092 18.2077L12.4297 19.564L13.313 18.0264C12.3358 16.4856 11.6848 14.129 11.6123 11.4593C8.68222 13.0199 6.68819 16.1049 6.68819 19.6546V19.7485ZM21.037 27.428C18.5337 25.9004 16.7243 23.9591 16.0437 22.232H15.958C15.2741 23.9657 13.4498 25.9168 10.93 27.4478C12.3802 28.3888 14.1106 28.9359 15.9679 28.9359C17.8383 28.9359 19.5802 28.3805 21.037 27.428ZM20.419 11.5104C20.3399 14.1323 19.7038 16.4493 18.748 17.9803L17.6834 16.1593C18.2338 14.8936 18.5848 12.9952 18.5848 10.8743C18.5848 7.06253 17.4543 3.97261 16.0601 3.97261C14.6676 3.97261 13.5371 7.06253 13.5371 10.8743C13.5371 12.9672 13.8782 14.8425 14.4171 16.1082L13.7728 17.2271L16.0222 13.3182L21.2347 22.232H17.9586C18.6524 23.4614 20.3498 24.966 22.5646 26.1855C25.9034 28.0246 29.1548 28.5256 29.8272 27.3061C30.4996 26.0849 28.3391 23.6031 25.0003 21.764C23.1414 20.7406 21.3072 20.1308 19.9312 20.004L18.8765 18.2011C20.6349 18.0643 22.9321 18.5785 25.2475 19.7172L25.249 19.6546C25.249 16.1428 23.2961 13.0875 20.4188 11.5104H20.419ZM16.0154 2C18.1743 2 19.9722 5.14761 20.3529 9.30376C24.4019 10.9962 27.2479 14.9942 27.2479 19.6546C27.2479 20.0485 27.2265 20.439 27.187 20.823C30.7845 23.1779 32.7785 26.3634 31.7139 28.2948C30.651 30.2263 26.892 30.2411 22.9781 28.458C21.0681 29.9675 18.6555 30.8706 16.0319 30.8706C13.3985 30.8706 10.9776 29.9609 9.0627 28.4399C5.13561 30.2411 1.35355 30.2312 0.285669 28.2932C-0.783856 26.3519 1.23819 23.1433 4.87359 20.7834C4.83733 20.4127 4.81756 20.0353 4.81756 19.6546C4.81756 15.0073 7.64711 11.0193 11.678 9.31859C12.057 5.15419 13.855 2 16.0154 2V2Z" fill="#00569F"/>
</g>
<defs>
<clipPath id="clip0">
<rect width="32" height="32" fill="white"/>
</clipPath>
</defs>
</svg>
