<svg width="32" height="32" viewBox="0 0 32 32" fill="none" xmlns="http://www.w3.org/2000/svg">
<g clip-path="url(#clip0)">
<path d="M30.933 25.8099C31.5223 25.8099 32 25.3318 32 24.7429V7.06704C32 6.4781 31.5227 6 30.933 6H1.06704C0.477262 6 0 6.4781 0 7.06704V24.7429C0 25.3318 0.477262 25.8099 1.06704 25.8099" fill="#462E84"/>
<path d="M14.0661 20.6106C17.967 16.639 20.8427 15.3005 28.9917 13.3722C19.8037 12.8916 13.3094 13.5901 6.80339 15.9927C8.81282 18.0339 11.2079 19.5209 14.0661 20.6106ZM13.5198 12.3018C9.6565 11.8479 6.7511 11.9011 3.93228 12.4946C4.59024 13.4625 5.29547 14.3447 6.04838 15.1461C8.04987 13.4734 9.5168 12.9213 13.5198 12.3018Z" fill="white"/>
<path d="M13.9364 16.4177C11.7328 16.5746 9.23861 16.4604 6.80336 15.9927C6.78119 16.0003 6.82595 15.984 6.80336 15.9927C8.52335 17.7646 10.908 19.4118 14.066 20.6106C16.9049 17.7713 19.6543 15.3636 28.9912 13.3726C27.5532 13.2651 26.648 13.2977 25.3175 13.2429C22.5112 14.9123 20.9761 15.9162 13.9364 16.4177ZM7.92604 12.7494C6.62894 12.8322 5.32347 12.6837 3.93268 12.4946C4.6333 13.5245 5.23354 14.2631 6.04878 15.1461C8.04483 13.5215 9.33858 12.9573 13.5202 12.3018C13.3943 12.2897 13.3098 12.2755 13.186 12.2642C11.2978 12.5507 10.3755 12.6289 7.92604 12.7494Z" fill="white"/>
</g>
<defs>
<clipPath id="clip0">
<rect width="32" height="32" fill="white"/>
</clipPath>
</defs>
</svg>
