<svg width="32" height="32" viewBox="0 0 32 32" fill="none" xmlns="http://www.w3.org/2000/svg">
<path fill-rule="evenodd" clip-rule="evenodd" d="M14.143 9.38622C14.1836 9.16172 14.3761 9 14.6026 9H16.7244C16.865 9 16.9905 9.05711 17.0779 9.16098C17.1678 9.26683 17.2086 9.41009 17.1865 9.54523L17.0688 10.2054H25.6551C25.8265 10.2054 25.9842 10.3024 26.0665 10.455C26.1489 10.6106 26.1393 10.7886 26.0414 10.9348L25.6682 11.4219H31.555C31.7204 11.4219 31.8718 11.5137 31.9473 11.6602C32.0246 11.8049 32.0163 11.9733 31.9227 12.1129L26.4217 19.3097L30.1947 19.3131C30.3338 19.3131 30.464 19.3732 30.5516 19.4778C30.6395 19.5824 30.6782 19.722 30.655 19.8581L30.322 21.7518C30.2846 21.9758 30.0921 22.1385 29.8629 22.1385L15.314 22.1392C15.2069 23.0581 14.4143 23.7692 13.4831 23.7692C12.4697 23.7692 11.6423 22.9439 11.6423 21.9292C11.6423 20.9153 12.4697 20.0897 13.4831 20.0897C13.9148 20.0897 14.3321 20.2401 14.6619 20.5158L20.1728 13.3047H16.526L15.5047 19.1314C15.4555 19.3525 15.2679 19.5061 15.0474 19.5061H12.9246C12.7865 19.5061 12.6555 19.445 12.5671 19.3399C12.4793 19.2324 12.4411 19.0935 12.4657 18.9572L13.1143 15.2548L9.76517 21.8197C9.66105 22.0171 9.45748 22.1394 9.23693 22.1394L7.44566 22.1387C7.20837 22.1387 7.00923 21.9602 6.98191 21.7237L6.64222 16.5436L3.88628 21.8222C3.78191 22.0186 3.58031 22.1394 3.35877 22.1394L1.55422 22.1387C1.31545 22.1387 1.11557 21.9602 1.08948 21.7237L0.001233 11.2718C-0.00787469 11.1342 0.036433 11.0025 0.122587 10.9079C0.211695 10.8142 0.334771 10.7625 0.467448 10.7625H2.89502C3.152 10.7625 3.36173 10.971 3.36173 11.2284L3.60542 16.1572L6.07336 11.0194C6.15656 10.8592 6.31729 10.7622 6.49157 10.7622H8.67397C8.91643 10.7622 9.11926 10.949 9.13969 11.1886L9.37797 16.1367L11.7782 11.0185C11.8668 10.856 12.0224 10.7622 12.1964 10.7622H13.9015L14.143 9.38622ZM12.1691 11.2863C12.189 11.2528 12.2262 11.2304 12.2678 11.2304H14.2951L14.5863 9.55705C14.5962 9.50511 14.6417 9.46843 14.6959 9.46843L16.5932 9.46695C16.6279 9.46695 16.6562 9.47754 16.6762 9.49994C16.6969 9.52578 16.7072 9.56025 16.7023 9.59077L16.5135 10.6736L25.4334 10.68C25.4816 10.68 25.5161 10.7093 25.533 10.7371C25.5434 10.7578 25.5577 10.7999 25.5284 10.8398L24.723 11.8913L31.3337 11.8896C31.3721 11.8896 31.3996 11.9137 31.4105 11.9354C31.421 11.9509 31.4297 11.9834 31.4095 12.0132L25.9153 19.2046C25.8528 19.2828 25.8555 19.4817 25.8991 19.5669C25.9444 19.6526 26.1012 19.7746 26.1994 19.7746L30.064 19.7786C30.1088 19.7786 30.1351 19.8017 30.1472 19.8155C30.1681 19.8396 30.1772 19.8719 30.1723 19.9031L29.8784 21.5836C29.869 21.6346 29.823 21.6715 29.7686 21.6715H15.0656L14.8239 21.67C14.8418 21.7532 14.849 21.8396 14.849 21.9278C14.849 22.6837 14.2363 23.2966 13.4791 23.2966C12.7225 23.2966 12.1093 22.6837 12.1093 21.9278C12.1093 21.1716 12.7225 20.5594 13.4791 20.5594C13.9958 20.5594 14.4463 20.8457 14.6806 21.2683L20.673 13.4143C20.7618 13.2271 20.7278 13.1508 20.6812 13.0463L20.6693 13.0194C20.6306 12.9294 20.4862 12.8368 20.3286 12.8383H16.1342L15.0624 18.9567C15.0521 19.0047 15.006 19.0384 14.9546 19.0384H13.056C13.0119 19.0384 12.9849 19.0148 12.9721 19.0007C12.9605 18.987 12.9396 18.9567 12.9477 18.9131L14.1118 12.2719L9.37649 21.5521C9.33391 21.6267 9.25514 21.6747 9.16628 21.6747L7.55348 21.6826C7.49588 21.6826 7.44862 21.6415 7.44345 21.5922L6.99865 14.8506L3.50006 21.5538C3.45822 21.6277 3.37748 21.6754 3.29083 21.6754L1.65489 21.6745C1.59877 21.6745 1.55102 21.6331 1.54634 21.5799L0.479264 11.3461C0.476802 11.3141 0.487879 11.2826 0.507079 11.2609C0.527018 11.241 0.555571 11.2302 0.590033 11.2302H2.78893C2.84899 11.2302 2.89945 11.2789 2.89945 11.3431L3.22929 18.0196L6.46326 11.2878C6.48074 11.2528 6.51988 11.2302 6.56099 11.2302L8.56566 11.2215C8.62105 11.2215 8.67053 11.2634 8.67397 11.3126L8.99988 18.0407L12.1691 11.2863ZM19.3913 18.8658L23.2827 13.7749H26.8032C26.9472 13.7749 27.075 13.8519 27.1377 13.9775C27.1988 14.1035 27.1862 14.2527 27.1006 14.3676L23.1776 19.4972H19.7036C19.5562 19.4972 19.4169 19.4103 19.3511 19.2762C19.283 19.1406 19.2982 18.9872 19.3913 18.8658ZM26.6063 14.2426H23.5151L19.8533 19.03H22.9455L26.6063 14.2426Z" fill="url(#paint0_linear)"/>
<defs>
<linearGradient id="paint0_linear" x1="31.9996" y1="23.7692" x2="31.9996" y2="9" gradientUnits="userSpaceOnUse">
<stop stop-color="#161998"/>
<stop offset="0.129" stop-color="#441E93"/>
<stop offset="0.266" stop-color="#6E228F"/>
<stop offset="0.407" stop-color="#90258C"/>
<stop offset="0.549" stop-color="#AB2889"/>
<stop offset="0.694" stop-color="#BE2A87"/>
<stop offset="0.842" stop-color="#C92B86"/>
<stop offset="1" stop-color="#CD2B86"/>
</linearGradient>
</defs>
</svg>
