<svg width="32" height="32" viewBox="0 0 32 32" fill="none" xmlns="http://www.w3.org/2000/svg">
<path fill-rule="evenodd" clip-rule="evenodd" d="M18.6551 15.0191C18.2989 15.2141 17.7332 15.7467 17.0795 16.4803C17.9034 17.3145 18.8471 18.3918 19.864 19.7597C21.4694 17.6066 22.5198 16.1027 23.2797 15.545C24.0394 14.9863 26.501 14.2632 30.835 13.5317C24.3187 14.121 19.6265 14.4863 18.6551 15.0191Z" fill="#4EA322"/>
<path fill-rule="evenodd" clip-rule="evenodd" d="M15.0513 14.6951C13.9966 13.9296 8.03156 13.4681 0.465881 13.2839C4.08627 13.8247 8.72343 14.6029 10.0586 15.4431C11.1205 16.1122 12.2767 17.3669 14.2494 19.6483L19.864 19.7597C17.85 17.0531 16.1243 15.4747 15.0513 14.6951Z" fill="#00482D"/>
</svg>
