<svg width="32" height="32" viewBox="0 0 32 32" fill="none" xmlns="http://www.w3.org/2000/svg">
<path fill-rule="evenodd" clip-rule="evenodd" d="M27.5171 14.6462L26.7451 14.7737L26.377 15.5295L27.1418 15.4039L27.5171 14.6462ZM31.9461 14.9784C30.0496 15.6599 29.5325 15.7834 28.9264 15.8904C28.2215 16.0149 27.5782 16.1609 27.0664 17.1274L26.8672 17.5313L26.4435 18.3913L26.4363 18.3967C26.2496 18.5303 26.097 18.6093 25.9659 18.6283C25.9321 18.6331 25.9032 18.6355 25.8761 18.6337C25.8097 18.6332 25.7572 18.5837 25.7523 18.508C25.7494 18.4905 25.7491 18.4714 25.7505 18.4505C25.7617 18.302 25.868 18.0504 26.0503 17.6947L26.7541 16.2674L25.9605 16.3913L25.2478 17.8491C25.1245 18.1073 25.0475 18.3295 25.0072 18.517L25.0036 18.5295L24.9946 18.5367C24.7498 18.7268 24.5607 18.8383 24.4022 18.8617C24.3687 18.8663 24.3392 18.8689 24.3124 18.8671C24.2461 18.8665 24.1926 18.8151 24.1885 18.7396C24.186 18.7228 24.1872 18.7052 24.1885 18.6857C24.1997 18.5374 24.3063 18.2861 24.4919 17.9281L25.2298 16.4667L24.4399 16.5906L24.4076 16.6552L24.3806 16.6462C24.3383 16.6329 24.2895 16.625 24.2334 16.6211H24.2316C24.2072 16.6195 24.1812 16.618 24.1544 16.6175C23.423 16.6021 22.4147 17.0944 21.8241 18.0681C21.6408 18.3698 21.5511 18.6462 21.535 18.8778C21.5067 19.3186 21.7311 19.5958 22.0934 19.6229C22.1446 19.6265 22.1983 19.6246 22.2549 19.6175C22.6282 19.5704 22.9436 19.4229 23.2711 19.1615C23.3141 19.127 23.3558 19.0913 23.3968 19.0556L23.4363 19.0215L23.4488 19.0735C23.4881 19.2343 23.5914 19.3183 23.7846 19.3339C23.8493 19.3384 23.9253 19.3333 24.009 19.3195C24.2384 19.2813 24.4556 19.19 24.684 19.0448C24.7864 18.9779 24.8445 18.9343 24.9623 18.8365L25 18.8042L25.0144 18.8527C25.0677 19.0226 25.1694 19.0781 25.3429 19.0753L25.367 19.0751C25.4227 19.0746 25.476 19.0742 25.5763 19.052C25.7584 19.0115 26.1091 18.8472 26.2873 18.7216L26.1849 18.9299L26.9892 18.7665C27.0306 18.6755 27.2361 18.2263 27.4668 17.7683L27.517 17.6686C27.6645 17.3747 27.8037 17.0974 27.9695 16.9371C28.3083 16.6111 28.6566 16.4755 29.0036 16.3877C30.2881 16.0625 31.0818 15.5894 31.9461 14.9784ZM23.8286 17.0681C23.8277 17.0681 23.8268 17.0681 23.8259 17.0681L23.8238 17.0682C23.6716 17.0716 23.4836 17.0759 23.0503 17.4811C22.8468 17.6697 22.7836 17.7437 22.5745 18.0484C22.3956 18.3091 22.3125 18.5565 22.2998 18.736C22.296 18.791 22.2975 18.8396 22.307 18.8814C22.3418 19.0205 22.5011 19.1058 22.6338 19.1166C22.6509 19.1178 22.6676 19.1183 22.684 19.1166C22.9834 19.0819 23.2813 18.7685 23.7092 18.0807C23.9449 17.699 24.0674 17.4467 24.079 17.2979C24.0794 17.2936 24.0792 17.2896 24.0791 17.2854C24.0791 17.2837 24.079 17.2819 24.079 17.28C24.0778 17.1655 23.9687 17.0774 23.851 17.0681C23.8435 17.0676 23.836 17.0678 23.8286 17.0681Z" fill="#FAB20B"/>
<path fill-rule="evenodd" clip-rule="evenodd" d="M27.0467 12.07C27.1174 12.0624 27.1883 12.0576 27.2567 12.0574C27.462 12.0567 27.65 12.0906 27.781 12.1687C28.1699 12.3853 28.0959 12.8485 28.0377 13.1059C27.9708 13.4009 27.8608 13.6447 27.7648 13.8563L27.754 13.8634C27.7391 13.873 27.7243 13.8826 27.7092 13.8922C26.8229 13.9693 26.5522 14.0004 25.7702 14.0951L25.7678 14.1026C25.747 14.1686 25.7274 14.2303 25.7127 14.2962C25.6304 14.6618 25.828 14.848 26.3232 14.8024C26.3283 14.802 26.3334 14.8012 26.3386 14.8005L26.3501 14.7989L25.9946 15.5403C25.9893 15.5409 25.9838 15.5411 25.9783 15.5413C25.9736 15.5415 25.9688 15.5417 25.9641 15.5421C25.1036 15.6182 24.9018 15.3176 24.8223 15.192C24.6582 14.9355 24.6738 14.6338 24.7469 14.3069C24.9492 13.4024 25.7609 12.2106 27.0467 12.07ZM24.1759 12.3877C24.2116 12.3835 24.2518 12.3805 24.2926 12.3805C24.5784 12.3809 24.9482 12.5115 24.8241 13.1364C24.7828 13.3439 24.6919 13.5631 24.6032 13.7755L24.4799 14.0906L24.3573 14.4039C24.2691 14.6382 24.1824 14.8541 24.0958 15.0697L24.0957 15.0699L24.0957 15.07L24.0957 15.0701C24.0091 15.2856 23.9226 15.5009 23.8348 15.7342C23.8254 15.7412 23.8158 15.7488 23.8063 15.7563L23.7864 15.7719C23.6457 15.789 23.5054 15.8059 23.3651 15.8227L23.3651 15.8227L23.3651 15.8227L23.3651 15.8227L23.3651 15.8228L23.365 15.8228L23.365 15.8228L23.365 15.8228C23.1836 15.8446 23.0022 15.8664 22.8205 15.8886L22.8043 15.8638L22.7935 15.8473C22.8716 15.6566 22.9483 15.4839 23.0251 15.311C23.1024 15.1369 23.1797 14.9627 23.2585 14.7701C23.2991 14.6699 23.3397 14.5703 23.3804 14.4705L23.3804 14.4703L23.4506 14.298C23.5082 14.1532 23.6868 13.6849 23.7074 13.5816C23.7403 13.4142 23.6995 13.242 23.474 13.2674C23.2701 13.2904 23.095 13.4249 22.978 13.5147L22.9515 13.5349C22.8539 13.8531 22.8275 13.9308 22.6966 14.271L22.5829 14.5564L22.5825 14.5574C22.5361 14.6739 22.4896 14.7903 22.4434 14.9066C22.3759 15.0868 22.3136 15.2579 22.2512 15.429C22.1895 15.5985 22.1278 15.7679 22.061 15.9461L22.0447 15.9587C22.0347 15.9665 22.0247 15.9743 22.0144 15.982C21.8742 15.9994 21.7337 16.0168 21.5931 16.0341L21.593 16.0341L21.5929 16.0341L21.5928 16.0341L21.5926 16.0341C21.4141 16.0562 21.2355 16.0782 21.0575 16.1005C21.0542 16.0939 21.0512 16.0874 21.0481 16.0809L21.048 16.0807C21.0447 16.0736 21.0414 16.0665 21.0377 16.0592C21.1123 15.8747 21.1817 15.6991 21.2513 15.5231L21.2514 15.5229C21.3179 15.3546 21.3845 15.1859 21.456 15.0089C21.4834 14.9392 21.5104 14.8697 21.5375 14.8001L21.5378 14.7992L21.5381 14.7985L21.5383 14.7979L21.5386 14.7971C21.5684 14.7205 21.5982 14.644 21.6284 14.5673C21.8423 14.0081 21.886 13.8783 21.9048 13.7827C21.9697 13.4514 21.7523 13.4633 21.675 13.4721C21.5088 13.4911 21.3412 13.6033 21.1957 13.7252C21.1209 13.9134 21.0466 14.1016 20.9723 14.2897L20.9718 14.2909C20.9172 14.4293 20.8626 14.5675 20.8079 14.7055L20.5654 15.3468C20.463 15.6175 20.3608 15.8879 20.2585 16.1579L20.2403 16.1714C20.2301 16.1789 20.2199 16.1864 20.2101 16.1938C20.0151 16.2181 19.8199 16.2422 19.6249 16.2662L19.6247 16.2663L19.6244 16.2663L19.6242 16.2663L19.624 16.2663L19.6237 16.2664L19.6235 16.2664L19.6233 16.2664L19.6231 16.2665L19.237 16.3141C19.2337 16.3077 19.2307 16.3012 19.2277 16.2947L19.2277 16.2947L19.2277 16.2947L19.2277 16.2946L19.2277 16.2946L19.2277 16.2946L19.2277 16.2946L19.2277 16.2946L19.2277 16.2946L19.2277 16.2946C19.2243 16.2873 19.221 16.28 19.2172 16.2728C19.2949 16.0857 19.3724 15.8985 19.45 15.7111L19.45 15.711L19.4501 15.7108L19.4514 15.7076L19.4556 15.6975L19.4577 15.6924L19.4627 15.6804L19.4651 15.6745C19.5344 15.5072 19.6037 15.3398 19.6733 15.1723C19.7165 15.0656 19.7599 14.9589 19.8034 14.8521C19.8534 14.7291 19.9035 14.606 19.9533 14.4829C20.2207 13.7936 20.3248 13.485 20.5368 12.8437C20.5472 12.8347 20.5572 12.8263 20.5674 12.8177L20.5853 12.8024C20.6037 12.8037 21.1379 12.7444 21.5566 12.6857C21.5673 12.6843 21.5716 12.6964 21.5761 12.7086L21.5761 12.7086C21.5783 12.7147 21.5805 12.7208 21.5835 12.7252C21.5607 12.7837 21.5378 12.842 21.5149 12.9003L21.5144 12.9016C21.4865 12.9726 21.4586 13.0436 21.4309 13.1148C21.5348 13.0282 21.6376 12.9491 21.7451 12.8743C21.9649 12.7303 22.2562 12.6142 22.4704 12.5888C22.7854 12.5514 22.9752 12.6722 23.0215 12.9676C23.381 12.6756 23.7836 12.4335 24.1759 12.3877ZM13.9084 12.5834C13.9038 12.5874 13.125 12.6894 12.9749 12.7019C12.9544 12.7035 12.9266 12.7276 12.9153 12.7373L12.9153 12.7374L12.9153 12.7374C12.9123 12.74 12.9104 12.7415 12.9102 12.7414C12.8407 12.9376 12.7688 13.1172 12.6632 13.3811L12.6632 13.3812L12.6632 13.3812L12.6632 13.3813L12.6631 13.3815C12.569 13.6167 12.4481 13.9187 12.2783 14.359L12.1228 14.7462C12.0022 15.0466 11.8817 15.3466 11.7612 15.6463C11.6456 15.9286 11.5298 16.21 11.4142 16.4912L11.4138 16.492L11.4102 16.5007L11.41 16.5012L11.4098 16.5017L11.4096 16.5022L11.4094 16.5026C11.3279 16.7008 11.2465 16.8988 11.1652 17.0969L11.1831 17.1328C11.4688 17.1041 11.7545 17.0744 12.0403 17.0446L12.1939 17.0287L12.2165 17.0128C12.2252 17.0067 12.2338 17.0007 12.2424 16.9945C12.545 16.151 12.6175 15.9614 12.9264 15.1813C13.0189 14.9451 13.1108 14.7094 13.203 14.4732L13.2036 14.4717L13.2038 14.4712L13.4004 13.9676C13.5831 13.5189 13.7665 13.0682 13.9497 12.6175C13.9479 12.6095 13.9381 12.6041 13.9284 12.5987C13.9201 12.5941 13.9119 12.5896 13.9084 12.5834ZM27.2083 13.0592C27.2522 12.8658 27.1864 12.6825 26.9354 12.6857C26.9186 12.686 26.9017 12.6874 26.8833 12.6893C26.7787 12.7 26.6136 12.7407 26.4039 12.9263C26.1955 13.1059 26.0909 13.3048 26.0072 13.4649C26.3656 13.4245 26.724 13.3851 27.0822 13.3457L27.1077 13.3428L27.111 13.3349L27.111 13.3348C27.1496 13.2421 27.1879 13.1503 27.2083 13.0592ZM18.7074 13.0125C18.614 13.0112 18.5169 13.0172 18.4201 13.0287C16.8237 13.2217 16.2304 14.7843 16.1185 15.368C16.0274 15.8442 16.0888 16.181 16.3106 16.3967C16.5518 16.6355 16.9669 16.6575 17.2837 16.6265C17.7469 16.5816 18.1627 16.4407 18.5691 16.1023C18.9464 15.7922 19.2159 15.3647 19.3968 14.9263C19.4874 14.7072 19.5599 14.4832 19.6014 14.2692C19.6771 13.8801 19.6736 13.5249 19.4183 13.2638C19.2416 13.0854 18.9875 13.0164 18.7074 13.0125ZM15.5637 13.3375C15.6434 13.3283 15.7206 13.3234 15.7971 13.3231C15.8736 13.3228 15.9502 13.3272 16.0269 13.3339C16.248 13.3548 16.3355 13.4067 16.4479 13.4732L16.4704 13.4865C16.4715 13.5007 16.4727 13.5151 16.474 13.5296C16.4159 13.6549 16.3592 13.7687 16.3025 13.8825L16.3025 13.8826L16.3024 13.8827L16.3024 13.8827C16.2463 13.9953 16.1903 14.1079 16.1329 14.2315C16.1159 14.2361 16.099 14.2392 16.0856 14.2416L16.0856 14.2416L16.0856 14.2416C16.0767 14.2433 16.0694 14.2446 16.0646 14.2459C16.0526 14.2188 16.0191 14.1812 15.9587 14.1418C15.8396 14.0641 15.6866 14.0475 15.5153 14.0664C14.9399 14.1305 14.465 14.7712 14.3555 15.3482C14.2386 15.9631 14.5923 16.1217 14.9031 16.0915C15.0533 16.0751 15.1066 16.0674 15.246 16.0233C15.3372 15.9943 15.4738 15.9449 15.6032 15.8976C15.5085 16.124 15.4268 16.3125 15.3403 16.5119L15.307 16.5888C15.2989 16.5973 15.2908 16.6062 15.2827 16.615L15.2826 16.6151L15.2621 16.6373L15.2191 16.6578C15.1695 16.6816 15.122 16.7043 15.0718 16.7235C14.9222 16.7873 14.6687 16.8499 14.4434 16.8707C13.58 16.9492 13.1166 16.4555 13.2944 15.5152C13.4592 14.6436 14.2459 13.491 15.5637 13.3375ZM18.3465 13.7073C18.6456 13.7097 18.6501 14.0113 18.6068 14.2351C18.5682 14.4349 18.5015 14.6256 18.4399 14.7899C18.2181 15.362 18.0551 15.5477 17.9684 15.6464L17.9623 15.6534C17.8325 15.7991 17.6517 15.9311 17.4686 15.9497C17.2671 15.9699 17.1211 15.8835 17.0934 15.6858C17.0837 15.6429 17.0817 15.5626 17.1113 15.4093C17.1679 15.1153 17.4356 14.3726 17.7289 14.0322C17.8125 13.9413 17.9954 13.7441 18.2837 13.7109C18.3063 13.7083 18.3266 13.7071 18.3465 13.7073ZM10.4291 13.8294C10.5013 13.8224 10.5744 13.8184 10.6445 13.8186C10.8549 13.8193 11.049 13.8547 11.1867 13.9335C11.5953 14.1516 11.5387 14.6144 11.4901 14.8725C11.4344 15.1685 11.3333 15.4126 11.2442 15.6247L11.1885 15.6606C10.3481 15.7294 10.0498 15.7608 9.37479 15.8318L9.21005 15.8491L9.20086 15.8822C9.1852 15.9382 9.17043 15.9911 9.15978 16.0484C9.09163 16.4143 9.29544 16.6226 9.80072 16.5816C9.96014 16.5616 10.117 16.5378 10.3752 16.4703C10.5136 16.4342 10.8201 16.3439 10.9013 16.3105C10.8825 16.3508 10.8347 16.4616 10.7825 16.5823L10.7825 16.5824C10.7188 16.7299 10.6488 16.8922 10.6176 16.9586C10.6044 16.9754 10.5957 16.9861 10.5799 16.9981C10.4086 17.0921 10.089 17.2594 9.47217 17.3051C8.59426 17.3693 8.37587 17.0591 8.28905 16.9317C8.11023 16.6701 8.10987 16.3665 8.17056 16.0394C8.33867 15.1339 9.11763 13.9591 10.4291 13.8294ZM8.75224 13.9012C8.61483 13.917 8.45415 13.9315 8.29468 13.9459C8.15055 13.9589 8.0074 13.9718 7.8833 13.9856C7.87667 13.9913 7.87083 13.9969 7.86525 14.0023L7.86525 14.0023C7.85803 14.0092 7.85126 14.0157 7.84381 14.0215C7.59246 14.4816 7.46794 14.7 7.11849 15.3051L6.94837 15.5947L6.94826 15.5949C6.77741 15.8858 6.60698 16.1759 6.43627 16.4649L6.74327 14.8689C6.76709 14.7508 6.79081 14.6325 6.81454 14.5142C6.8398 14.3882 6.86508 14.2622 6.89049 14.1364C6.88684 14.1311 6.88282 14.1246 6.87886 14.1181C6.87237 14.1075 6.86604 14.0972 6.86176 14.0933C6.74112 14.1059 6.57755 14.1222 6.40858 14.1391L6.40852 14.1391L6.40846 14.1391C6.1355 14.1663 5.84847 14.1948 5.70557 14.2118C5.6916 14.2215 5.68441 14.2279 5.67727 14.2342C5.67201 14.2389 5.66678 14.2435 5.65889 14.2495C5.5344 14.4707 5.40746 14.6955 5.28162 14.9182L5.10772 15.2261C4.84101 15.6768 4.57451 16.1263 4.3088 16.5726L4.43137 15.8739L4.5368 15.2728C4.56413 15.1113 4.59146 14.9601 4.6188 14.8087L4.6188 14.8087C4.64591 14.6586 4.67304 14.5084 4.70018 14.3482L4.6941 14.3411C4.68661 14.3323 4.67975 14.3242 4.67145 14.3159C4.344 14.3552 4.22595 14.3657 4.01696 14.3842L4.01684 14.3842C3.94114 14.3909 3.85351 14.3987 3.73968 14.4093C3.72022 14.4298 3.71023 14.4401 3.693 14.4577C3.67378 14.6324 3.65419 14.8021 3.63458 14.9719L3.63458 14.9719C3.61566 15.1358 3.59672 15.2998 3.5781 15.4685C3.55701 15.6514 3.53627 15.8341 3.51553 16.0167L3.51553 16.0168L3.51552 16.0168C3.49402 16.2061 3.47252 16.3955 3.45063 16.5852L3.37084 17.2297L3.31598 17.6732C3.32034 17.6775 3.32471 17.682 3.32907 17.6866L3.32909 17.6866C3.33672 17.6945 3.34435 17.7025 3.35189 17.7091C3.57008 17.6932 3.75815 17.6771 3.93663 17.6619C4.09938 17.6479 4.25416 17.6347 4.41652 17.6229L4.44281 17.6034L4.47217 17.5816C4.66514 17.2394 5.56194 15.7186 5.84022 15.2495L5.71475 15.9579C5.60232 16.5921 5.46874 17.3455 5.44524 17.4865L5.46118 17.5024L5.48115 17.5224C5.67574 17.507 5.90472 17.4846 6.12984 17.4626L6.12988 17.4626L6.1299 17.4626C6.30845 17.4452 6.48455 17.4279 6.63914 17.4147L6.657 17.4009L6.70198 17.3662C6.70198 17.3662 8.38054 14.5942 8.78097 13.9443C8.77594 13.937 8.77099 13.9295 8.76605 13.9219L8.76604 13.9219C8.76145 13.9149 8.75687 13.9079 8.75224 13.9012ZM10.6373 14.8222C10.6736 14.6283 10.6002 14.4459 10.3429 14.447L10.3399 14.447C10.3237 14.447 10.3067 14.4471 10.289 14.4488C10.1825 14.4587 10.0147 14.5 9.8079 14.684C9.60244 14.8616 9.50449 15.0594 9.42549 15.219C9.79935 15.183 10.1733 15.1456 10.5476 15.1077C10.584 15.0121 10.6197 14.9161 10.6373 14.8222Z" fill="#702090"/>
<path d="M0.0574646 16.8534C0.0574646 16.8534 1.44265 19.9459 7.57798 19.7873C11.4168 19.6881 15.7174 18.1272 17.909 17.4965C19.8322 16.9431 22.6943 16.8242 22.6943 16.8242C22.6943 16.8242 19.7539 17.1812 16.7619 18.3612C12.8876 19.8893 9.50947 20.8203 6.85453 20.7512C0.669537 20.5902 0.0574646 16.8534 0.0574646 16.8534Z" fill="#FAB20B"/>
</svg>
