<svg width="32" height="32" viewBox="0 0 32 32" fill="none" xmlns="http://www.w3.org/2000/svg">
<g clip-path="url(#clip0)">
<path d="M31.9418 16.029C31.9418 24.8436 24.7855 31.9999 15.9709 31.9999C7.15636 31.9999 0 24.8436 0 16.029C0 7.18538 7.15636 0.0581055 15.9709 0.0581055C24.8145 0.0581055 31.9418 7.18538 31.9418 16.029Z" fill="#991782"/>
<path d="M7.41817 16.5235C7.41817 16.5235 7.24363 16.4944 7.18545 16.4944C7.12726 16.4944 7.03999 16.4653 7.03999 16.4071C7.03999 16.3489 7.15635 16.3198 7.18545 16.3198C7.24363 16.3198 7.41817 16.2908 7.41817 16.2908L11.2291 16.1162L12.0727 13.3235C12.0727 13.3235 12.0727 13.3235 12.0727 13.2944C12.0727 13.2653 12.0727 13.2362 12.0727 13.178C12.0727 12.9744 11.8982 12.7998 11.6945 12.7998H9.80363C9.62908 12.7998 9.48363 12.9162 9.42545 13.0617V13.0908L8.75635 15.6217L7.99999 13.0908L7.9709 13.0035C7.91272 12.858 7.76726 12.7708 7.62181 12.7708H5.87635C5.70181 12.7708 5.55635 12.8871 5.49817 13.0326L4.74181 15.5926L4.10181 13.0908V13.0617C4.04363 12.9162 3.89817 12.7998 3.72363 12.7998H1.80363C1.59999 12.7998 1.42545 12.9744 1.42545 13.178C1.42545 13.2071 1.42545 13.2653 1.45454 13.2944L3.31635 19.5198V19.5489C3.37454 19.6944 3.51999 19.8108 3.69454 19.8108H5.52726C5.70181 19.8108 5.84726 19.6944 5.90545 19.5489L6.77817 16.8435L7.62181 19.5489V19.578C7.62181 19.578 7.62181 19.578 7.62181 19.6071C7.67999 19.7526 7.82545 19.8398 7.9709 19.8398H9.83272C10.0073 19.8398 10.1527 19.7235 10.2109 19.578L10.24 19.5198L11.1127 16.6689L7.41817 16.5235Z" fill="white"/>
<path d="M14.8073 15.9709C14.9236 15.5345 15.2145 15.1855 15.6218 15.0982C15.6509 14.8945 15.7382 13.76 15.7673 13.6727C15.7964 13.5855 15.8836 13.5855 15.8836 13.5855C15.8836 13.5855 15.9709 13.5855 16 13.6727C16.0291 13.76 16.1455 14.8945 16.1455 15.0982C16.5527 15.2145 16.8436 15.5345 16.96 15.9709L19.7818 16.0873C19.7818 16.0582 19.7818 16.0582 19.7818 16.0582C19.6655 14.1964 18.0945 12.6545 15.8836 12.6545C13.6727 12.6545 12.0727 14.2255 11.9564 16.0873L14.8073 15.9709Z" fill="white"/>
<path d="M16.9018 16.8144C16.7273 17.2507 16.32 17.5416 15.8836 17.5416C15.4182 17.5416 15.04 17.2507 14.8654 16.8144L11.9854 16.698C12.1891 18.5016 13.7309 19.9562 15.8836 19.9562C18.0364 19.9562 19.5782 18.5016 19.7818 16.698L16.9018 16.8144Z" fill="white"/>
<path d="M29.9927 12.8289H28.1018C27.9273 12.8289 27.7818 12.9453 27.7236 13.0907V13.1198L27.0545 15.6507L26.2982 13.1198L26.2691 13.0325C26.2109 12.8871 26.0655 12.7998 25.92 12.7998H24.1745C24 12.7998 23.8545 12.9162 23.7964 13.0616L23.04 15.6216L22.4 13.1198V13.0907C22.3418 12.9453 22.1964 12.8289 22.0218 12.8289H20.0727C19.8691 12.8289 19.6945 13.0034 19.6945 13.2071C19.6945 13.2362 19.6945 13.2944 19.7236 13.3234L20.5673 16.1162L24.3491 16.2907C24.3491 16.2907 24.5236 16.3198 24.5818 16.3198C24.64 16.3198 24.7273 16.3489 24.7273 16.4071C24.7273 16.4653 24.6109 16.4944 24.5818 16.4944C24.5236 16.4944 24.3491 16.5234 24.3491 16.5234L20.7127 16.6689L21.5855 19.5489V19.578C21.6436 19.7234 21.7891 19.8398 21.9636 19.8398H23.7964C23.9709 19.8398 24.1164 19.7234 24.1745 19.578L25.0473 16.8725L25.8909 19.578V19.6071C25.8909 19.6071 25.8909 19.6071 25.8909 19.6362C25.9491 19.7816 26.0945 19.8689 26.24 19.8689H28.1018C28.2764 19.8689 28.4218 19.7525 28.48 19.6071L28.5091 19.5489L30.4 13.3525C30.4 13.3525 30.4 13.3525 30.4 13.3234C30.4 13.2944 30.4291 13.2653 30.4291 13.2071C30.4 13.0034 30.2255 12.8289 29.9927 12.8289Z" fill="white"/>
</g>
<defs>
<clipPath id="clip0">
<rect width="32" height="32" fill="white"/>
</clipPath>
</defs>
</svg>
