<svg width="32" height="32" viewBox="0 0 32 32" fill="none" xmlns="http://www.w3.org/2000/svg">
<g clip-path="url(#clip0)">
<path fill-rule="evenodd" clip-rule="evenodd" d="M21.37 7C20.15 7 19.1575 7.989 19.1575 9.2125L19.17 18.8875V18.9375C19.264 21.1605 20.864 24.4625 24.8825 24.4625H29.72C30.944 24.4625 31.9325 23.474 31.9325 22.25C31.9325 21.03 30.944 20.0375 29.72 20.0375H24.8825C23.731 20.0375 23.6265 19.11 23.595 18.75V9.2125C23.595 7.989 22.5935 7 21.37 7ZM29.2325 21.0125C29.907 21.0125 30.4575 21.558 30.4575 22.2375C30.4575 22.9035 29.903 23.45 29.2325 23.45C28.5569 23.45 27.995 22.902 27.995 22.25C27.995 21.5525 28.5395 21.0125 29.2325 21.0125ZM3.77588 7.651C2.91138 6.787 1.51187 6.787 0.648375 7.651C-0.216125 8.515 -0.216125 9.919 0.648375 10.7785L5.59788 15.733L0.648375 20.6875C-0.216125 21.551 -0.216125 22.951 0.648375 23.815C1.51187 24.679 2.91138 24.679 3.77588 23.815L8.73038 18.865L13.6799 23.815C14.5444 24.679 15.9479 24.679 16.8124 23.815C17.6759 22.951 17.6759 21.551 16.8124 20.6875L11.8579 15.733L16.8124 10.7785C17.6759 9.9145 17.6759 8.515 16.8124 7.651C15.9434 6.787 14.5444 6.787 13.6799 7.651L8.73038 12.6055L3.77588 7.651Z" fill="url(#paint0_linear)"/>
</g>
<defs>
<linearGradient id="paint0_linear" x1="27.8475" y1="24.5133" x2="27.8475" y2="7" gradientUnits="userSpaceOnUse">
<stop stop-color="#06246C"/>
<stop offset="1" stop-color="#3481B9"/>
</linearGradient>
<clipPath id="clip0">
<rect width="32" height="32" fill="white"/>
</clipPath>
</defs>
</svg>
