<svg width="32" height="32" viewBox="0 0 32 32" fill="none" xmlns="http://www.w3.org/2000/svg">
<path fill-rule="evenodd" clip-rule="evenodd" d="M0.457397 15.9035C2.58965 7.39615 11.2331 0.5 19.7638 0.5C28.1532 0.5 33.3147 7.11837 31.4546 15.4307C31.2297 15.5745 29.351 16.2243 27.1584 16.6495C27.2603 16.4783 27.3642 16.3212 27.4681 16.1641C27.6093 15.9506 27.7504 15.7372 27.886 15.4894C34.6204 3.20685 23.9864 0.391426 8.24612 17.9103C5.11648 17.6447 1.02307 16.7529 0.457397 15.9035ZM18.9604 17.7221C16.7509 18.071 13.6502 18.5608 9.81341 18.0967C21.7296 5.34145 29.5402 4.2644 22.778 13.5971C21.9099 14.7926 20.5602 16.3172 19.3052 17.6678C19.1928 17.6854 19.0779 17.7035 18.9604 17.7221Z" fill="#CAB999"/>
<path d="M6.9157 28.1992C6.9157 28.1992 11.9358 25.6275 16.7518 20.5142C13.473 20.9743 11.2065 20.9708 7.67103 20.4453C4.05398 25.5034 3.24014 24.0807 3.24014 24.0807C4.01191 23.1632 5.64053 20.9743 6.26543 20.2256C4.63516 19.8312 1.30341 19.0101 0.108385 17.6585C-0.809802 25.2264 4.18629 31.3044 12.0408 31.3044C20.3118 31.3044 28.6899 24.8214 31.135 16.6746C29.9963 17.264 28.6093 18.0599 25.9807 18.69C15.8999 33.0459 6.9157 28.1992 6.9157 28.1992Z" fill="#004886"/>
</svg>
