<svg width="32" height="32" viewBox="0 0 32 32" fill="none" xmlns="http://www.w3.org/2000/svg">
<path fill-rule="evenodd" clip-rule="evenodd" d="M0 23.0905C4.11158 13.8762 11.0314 8 18.8629 8C24.0072 8 29.0867 10.0791 32 15.2643L31.9599 15.4381C28.8114 11.7793 24.7533 9.73922 20.3211 9.73922C19.6114 9.73922 18.9093 9.80492 18.2208 9.91308C18.8761 10.5542 19.493 11.2048 20.0804 11.8662C21.696 11.4372 23.4022 11.2436 25.1639 11.3311C23.6528 11.6769 22.2136 12.1556 20.8696 12.7759C21.7524 13.8374 22.5618 14.9192 23.291 16.0268C22.3146 14.987 21.2923 13.9996 20.2275 13.0836C19.091 13.661 18.031 14.3509 17.0569 15.1573C17.6527 15.6864 18.0825 16.2105 18.368 16.6421C17.9988 16.4974 17.6858 16.3036 17.3821 16.1156C17.0752 15.9256 16.778 15.7415 16.4422 15.6202C14.4259 17.5261 12.6726 20.2406 11.6924 23.3981H7.83944C9.22147 19.9744 11.4588 16.9003 14.0073 14.8308C12.4857 14.4098 11.2312 14.1923 9.92297 14.2824C7.6882 16.5225 5.55969 19.6843 4.2675 23.0905H0ZM19.0771 12.1472C18.2203 11.4759 17.3332 10.8611 16.4283 10.3144C14.71 10.8276 13.0829 11.6864 11.5854 12.8161C13.1084 13.0075 14.3506 13.4215 15.3447 13.9533C16.5137 13.1959 17.7623 12.5883 19.0771 12.1472Z" fill="#324E96"/>
</svg>
