<svg width="32" height="32" viewBox="0 0 32 32" fill="none" xmlns="http://www.w3.org/2000/svg">
<g clip-path="url(#clip0)">
<path d="M16.5597 22.3195C16.5597 21.2796 17.1197 21.1196 18.0796 21.6796C19.8396 22.6395 21.7596 23.6795 21.7596 23.6795C21.8396 23.1195 22.3195 22.6395 23.3595 22.8795C24.3195 23.1195 25.4395 23.3595 25.4395 23.3595C25.4395 23.3595 24.8795 21.9995 24.5595 21.4396C24.0795 20.3196 24.5595 19.8396 25.0395 19.6796C25.0395 19.6796 24.3995 19.1996 23.9195 18.8796C22.9595 18.2396 23.1995 17.5196 24.0795 17.1196C25.3595 16.5597 26.9595 15.8397 26.9595 15.8397C26.4795 15.5197 25.8395 14.7197 26.5595 13.7597C27.1994 12.7997 28.1594 11.5198 28.1594 11.5198C28.1594 11.5198 26.3995 11.5198 25.2795 11.5198C24.2395 11.5198 23.9995 10.6398 23.9995 10.0798C23.9995 10.0798 22.3195 11.2798 21.1196 12.0798C20.0796 12.7997 19.1996 12.0798 19.3596 10.8798C19.5996 9.03981 19.8396 6.95986 19.8396 6.95986C19.1996 7.35985 18.1596 7.35985 17.6796 6.31987C16.8797 4.9599 15.9997 3.11994 15.9997 3.11994C15.9997 3.11994 15.1997 4.8799 14.4797 6.39987C13.9997 7.43985 12.8797 7.43985 12.3198 7.03985C12.3198 7.03985 12.5597 9.11981 12.7997 10.9598C12.9597 12.1597 11.9998 12.7997 11.0398 12.1597C9.8398 11.3598 8.15984 10.1598 8.15984 10.1598C8.15984 10.7198 7.91984 11.5998 6.87987 11.5998C5.75989 11.5998 3.99993 11.5998 3.99993 11.5998C3.99993 11.5998 4.95991 12.9597 5.59989 13.8397C6.23988 14.7997 5.67989 15.5997 5.1999 15.9197C5.1999 15.9197 6.79987 16.6397 8.07984 17.1996C9.03982 17.5996 9.27982 18.2396 8.23984 18.9596C7.75985 19.2796 7.11986 19.7596 7.11986 19.7596C7.59985 19.9196 8.07984 20.3996 7.59985 21.5196C7.35986 22.0795 6.71987 23.4395 6.71987 23.4395C6.71987 23.4395 7.83985 23.1995 8.79983 22.9595C9.8398 22.7195 10.3998 23.1995 10.3998 23.7595C10.3998 23.7595 12.2398 22.7195 13.9997 21.7596C14.9597 21.1996 15.5197 21.4396 15.5197 22.3995V24.7995C15.5197 26.2395 15.2797 27.8394 14.7197 28.6394C7.83985 27.9194 2.15996 22.4795 2.15996 15.2797C2.15996 7.83984 8.39983 1.75996 15.9997 1.75996C23.6795 1.75996 29.8394 7.75984 29.8394 15.1997C29.8394 22.1595 24.4795 27.8394 17.5196 28.5594V30.3994C25.6795 29.6794 31.9993 23.1195 31.9993 15.1997C32.0793 6.79986 24.8795 0 15.9997 0C7.19986 0 7.62939e-06 6.79986 7.62939e-06 15.2797C7.62939e-06 22.7195 5.51989 28.8794 12.9597 30.2394C14.2397 30.4794 14.9597 30.6394 15.6797 31.4394C16.4797 29.9994 16.6397 26.9594 16.6397 25.1995V22.3195H16.5597Z" fill="#D82F2E"/>
</g>
<defs>
<clipPath id="clip0">
<rect width="32" height="32" fill="white"/>
</clipPath>
</defs>
</svg>
