<svg width="32" height="32" viewBox="0 0 32 32" fill="none" xmlns="http://www.w3.org/2000/svg">
<g clip-path="url(#clip0)">
<path fill-rule="evenodd" clip-rule="evenodd" d="M0 20.2497L3.65392 14.6391L4.59104 14.49L5.97296 19.8719L4.78832 19.9198L4.39472 18.4223L2.25472 18.6358L1.23536 20.182L0 20.2497ZM3.86432 15.9642L2.8552 17.674L4.1856 17.5255L3.86432 15.9642Z" fill="black"/>
<path d="M7.18369 19.8417L8.31089 19.7621L9.36001 13.8523L8.25249 14.0264L7.18369 19.8417Z" fill="black"/>
<path d="M15.0162 14.2404C14.6133 13.1061 13.2459 13.3824 13.2459 13.3824L11.0064 13.684L9.93808 19.6999L11.0694 19.6356L11.9435 14.5314L12.8363 14.4199C12.8363 14.4199 13.0574 14.3909 13.3029 14.4349C13.6835 14.4954 14.1194 14.7274 13.8782 15.4861C13.6485 16.5047 11.7726 16.5664 11.7726 16.5664L13.5782 19.4522L14.9718 19.3653L13.513 17.1541C13.5131 17.1541 15.4213 16.4672 15.0162 14.2404Z" fill="black"/>
<path fill-rule="evenodd" clip-rule="evenodd" d="M20.933 12.2334C21.5486 12.1402 22.0661 12.1631 22.0661 12.1631C22.9768 12.1364 23.611 13.0474 23.611 13.0476C24.7131 15.054 23.4448 17.1799 23.2506 17.415C22.1427 19.0385 20.0536 19.0327 20.0536 19.0327L18.069 19.1662L19.0208 12.51C19.0208 12.51 20.3198 12.3254 20.933 12.2334ZM19.4738 17.9178C19.4738 17.9178 20.8286 17.9511 21.5718 17.4673C23.2363 16.2838 22.7898 14.3847 22.7898 14.3847C22.7898 14.3847 22.636 13.4391 21.8493 13.393C21.6371 13.3468 21.2634 13.3489 21.0954 13.3697C20.9283 13.3892 20.0571 13.529 20.0571 13.529L19.4738 17.9178Z" fill="black"/>
<path fill-rule="evenodd" clip-rule="evenodd" d="M25.4651 14.3073C25.5738 13.9074 26.816 10.8721 29.6589 11.0367C30.3696 11.0737 32.6077 11.9428 31.8429 15.2983C31.6418 16.2188 30.3901 19.0286 27.5955 18.779C26.5229 18.6729 24.4909 17.2678 25.4651 14.3073ZM27.7552 17.4578C29.2672 17.8073 30.3626 16.3457 30.588 15.4606C31.2725 13.2414 29.9573 12.4316 29.3216 12.3846C27.6888 12.2402 26.8597 13.9342 26.8597 13.9342C25.6525 16.5663 27.5093 17.4386 27.7552 17.4578Z" fill="black"/>
</g>
<defs>
<clipPath id="clip0">
<rect width="32" height="32" fill="white"/>
</clipPath>
</defs>
</svg>
