<svg width="32" height="32" viewBox="0 0 32 32" fill="none" xmlns="http://www.w3.org/2000/svg">
<g clip-path="url(#clip0)">
<path d="M21.2739 14.8428C21.4139 15.3 21.3179 15.842 21.0195 16.1703C20.5401 16.7086 19.9177 16.8893 19.2817 16.9887C19.2817 16.9887 19.9103 18.1505 20.1224 18.6592H18.2987C17.9314 18.0029 17.6002 17.3317 17.2611 16.6607C17.2471 16.5942 17.197 16.5388 17.2394 16.5388C18.0167 16.4725 19.0133 16.6126 19.4938 15.8568C19.5646 15.7425 19.5784 15.5617 19.5646 15.4327C19.4374 15.0051 19.0133 14.9865 18.6601 14.9719C16.6535 15.0051 14.0919 18.6702 14.0919 18.6702L13.5827 18.6592C13.5827 18.6592 14.1528 17.7261 14.4776 17.2986C15.933 15.2336 17.8832 13.8252 20.2427 14.0391C20.6545 14.1202 21.0896 14.3672 21.2739 14.8428Z" fill="#2B438F"/>
<path d="M25.9087 14.1754L22.6603 18.6702H20.5547C20.4957 18.6369 23.748 14.1754 23.748 14.1754H25.9087Z" fill="#2B438F"/>
<path fill-rule="evenodd" clip-rule="evenodd" d="M7.59605 14.3265C7.76572 14.4556 7.94936 14.6363 8.02015 14.8502C8.23213 15.4882 7.90691 16.0965 7.58207 16.5537L5.92878 18.6518C5.78772 18.6702 5.45427 18.6592 5.45427 18.6592L6.52255 17.0956C5.79009 17.0491 5.02994 17.075 4.26631 17.101C3.93976 17.1121 3.61257 17.1233 3.28663 17.1288C2.84843 17.5382 2.26929 18.6848 2.26929 18.6848C2.26929 18.6848 0.75445 18.7218 0.0760498 18.6592C0.0194947 18.5264 2.83445 15.2116 4.54403 14.5699C5.44826 14.1937 6.62103 13.8989 7.59605 14.3265ZM6.91804 16.5537C7.25724 16.373 7.44075 15.9306 7.58207 15.536C7.65287 15.3257 7.61042 15.064 7.49731 14.8833C7.29969 14.6843 7.03089 14.6843 6.77685 14.6843C5.64627 14.9314 4.62906 15.6025 3.79523 16.5537C4.49339 16.5883 5.19143 16.5767 5.88534 16.5652C6.23076 16.5594 6.57516 16.5537 6.91804 16.5537Z" fill="#2B438F"/>
<path fill-rule="evenodd" clip-rule="evenodd" d="M12.5558 14.0205C13.4037 14.0205 14.2376 14.2823 14.7036 15.1525C14.9156 16.0376 14.4775 16.8412 13.9405 17.3646C13.0505 18.2164 11.9765 18.5629 10.818 18.6775H6.90394L6.69195 18.6847C6.69195 18.6847 9.95595 14.0057 12.5558 14.0205ZM7.55373 18.1834C9.19305 18.2829 10.8603 18.2684 12.1602 17.3317C12.5841 17.0036 13.1209 16.4652 12.9936 15.7757C12.7817 15.2668 12.2874 15.1672 11.8069 15.1857C10.083 15.3147 7.55373 18.1834 7.55373 18.1834Z" fill="#2B438F"/>
<path fill-rule="evenodd" clip-rule="evenodd" d="M31.432 14.2824C31.6018 14.4151 31.786 14.5959 31.8561 14.8097C32.0699 15.4476 31.7455 16.0558 31.421 16.5132L29.7654 18.6113C29.6252 18.6259 29.2897 18.6186 29.2897 18.6186L30.359 17.0552C29.6281 17.0086 28.8683 17.0345 28.1049 17.0605C27.7784 17.0717 27.4513 17.0828 27.1255 17.0883C26.6867 17.4977 26.1076 18.6444 26.1076 18.6444C26.1076 18.6444 24.5921 18.6813 23.9138 18.6186C23.8584 18.4859 26.6717 15.1673 28.3827 14.5295C29.2859 14.1533 30.4587 13.8584 31.432 14.2824ZM30.7573 16.5132C31.0928 16.3325 31.2772 15.8901 31.421 15.4955C31.4912 15.2854 31.4469 15.0198 31.3363 14.8428C31.1372 14.6438 30.868 14.6438 30.6136 14.6438C29.4854 14.8909 28.4675 15.5619 27.6342 16.5132C28.3308 16.5452 29.0291 16.5345 29.7235 16.5238C30.0693 16.5185 30.4141 16.5132 30.7573 16.5132Z" fill="#2B438F"/>
</g>
<defs>
<clipPath id="clip0">
<rect width="32" height="32" fill="white"/>
</clipPath>
</defs>
</svg>
