<svg width="32" height="32" viewBox="0 0 32 32" fill="none" xmlns="http://www.w3.org/2000/svg">
<g clip-path="url(#clip0)">
<path d="M11.9756 12.4767C13.5328 11.1886 15.5392 10.4125 17.7177 10.4125C19.3761 10.4125 20.931 10.8658 22.2674 11.6481C22.6377 11.4955 22.9389 11.387 23.1022 11.35C23.432 11.2778 23.8498 11.3222 24.3853 11.411C22.5744 9.90663 20.2518 9 17.7177 9C14.3541 9 11.357 10.5997 9.44917 13.074C9.96503 12.9315 10.4222 12.7995 10.7245 12.7006C11.0863 12.586 11.5049 12.5091 11.9756 12.4767Z" fill="#002D62"/>
<path d="M26.5633 13.9006C27.0641 14.6945 27.4584 15.5625 27.7329 16.4865C27.1719 16.4761 26.6931 16.4526 26.41 16.4163C26.3578 16.4106 26.3079 16.4025 26.2582 16.3945L26.2154 16.3877C25.8822 15.461 25.3995 14.6011 24.7949 13.8439C24.8281 13.8439 24.8624 13.8439 24.898 13.8501C25.3671 13.9006 25.8845 13.9466 26.5633 13.9006Z" fill="#002D62"/>
<path d="M21.6816 16.2188C20.9093 16.3879 17.4589 18.0274 16.06 18.7333L15.2321 18.9201C15.1898 18.9099 15.0956 18.8822 14.9572 18.8414C13.7038 18.4719 8.82837 17.0348 6.10213 17.9097C4.62326 18.39 0.146892 19.5596 0.146892 19.5596C-0.304105 19.6994 0.407528 19.7499 0.624145 19.7175C0.836901 19.6893 1.57132 19.5719 2.44165 19.3955C4.18733 19.0426 5.17079 18.9835 6.09093 18.9298C7.84434 18.8306 10.4665 19.0974 12.564 20.1411C12.7254 20.2195 12.7984 20.3094 12.8084 20.4179C12.8242 20.7145 12.3362 21.1964 12.1431 21.3215C12.1431 21.3215 12.7532 21.3562 13.1347 21.2377C13.2722 21.1978 13.4287 21.1878 13.6394 21.1743L13.6625 21.1728L13.7402 21.1667C14.0207 21.1447 14.3954 21.1154 14.9553 21.0114C16.1642 20.7906 16.7133 20.4898 17.2894 20.1646L17.3307 20.1411C17.7018 19.9399 21.0209 18.5861 21.0209 18.5861C22.1905 18.1065 22.9606 18.1822 23.8834 18.273C24.5251 18.336 25.2406 18.4064 26.2155 18.3023C27.5 18.1669 28.6393 17.9017 29.6445 17.6678C30.5026 17.468 31.2628 17.2911 31.9321 17.237C32.2043 17.2135 31.5815 17.0312 31.4132 17.0108C31.109 16.9759 30.3115 16.9706 29.4217 16.9647C28.2534 16.9569 26.926 16.9481 26.3476 16.8698C25.4858 16.7534 24.7096 16.6044 24.0365 16.4752C22.9686 16.2702 22.1603 16.1151 21.6816 16.2188Z" fill="#002D62"/>
<path d="M26.754 19.4466C26.754 20.4467 26.2953 22.2429 26.2953 22.2429C26.2822 22.2932 26.2631 22.3579 26.2474 22.4108L26.247 22.4121C26.2398 22.4365 26.2332 22.4588 26.2285 22.4754C26.2104 22.526 26.2579 22.5711 26.3362 22.5711H27.5498C27.622 22.5711 27.6981 22.5491 27.7027 22.519L27.7067 22.5042C27.7166 22.4678 27.7356 22.3978 27.7526 22.3329C27.7526 22.3329 28.1649 20.4752 28.1649 19.4466C28.1649 19.1199 28.1441 18.7964 28.1132 18.4751C27.6734 18.5612 27.2027 18.638 26.7224 18.6991C26.7436 18.9458 26.754 19.1991 26.754 19.4466Z" fill="#002D62"/>
<path d="M7.27271 19.4466C7.27271 20.4706 7.68664 22.3329 7.68664 22.3329L7.70187 22.3924C7.71613 22.4476 7.72915 22.4979 7.73143 22.519C7.74108 22.5491 7.80981 22.5711 7.88819 22.5711H9.10372C9.17709 22.5711 9.22612 22.526 9.20875 22.4754C9.19653 22.4426 9.1815 22.3896 9.1664 22.3363C9.15718 22.3038 9.14788 22.271 9.13925 22.2429C9.13925 22.2429 8.70022 20.5046 8.68748 19.4979C8.19748 19.4315 7.72216 19.3952 7.27271 19.3833V19.4466Z" fill="#002D62"/>
<path d="M10.2194 14.4134C9.6564 15.2498 9.23204 16.1908 8.97256 17.1947C8.45284 17.1661 7.96786 17.1661 7.52459 17.1947C7.72228 16.3004 8.03273 15.4467 8.44396 14.6594C9.19188 14.5165 9.751 14.4532 10.2194 14.4134Z" fill="#002D62"/>
<path d="M18.7465 13.7745C19.8496 13.2166 22.5904 11.9095 23.2012 11.7821C23.5776 11.7013 24.2168 11.8238 25.0603 11.9854C25.5945 12.0878 26.2106 12.2059 26.8937 12.298C27.3563 12.3595 28.4056 12.3668 29.3292 12.3732C30.0361 12.3781 30.6694 12.3826 30.9095 12.4104C31.0408 12.4262 31.54 12.5679 31.3195 12.586C30.7948 12.6309 30.1968 12.77 29.5225 12.9269C28.7221 13.1132 27.8141 13.3245 26.7934 13.4328C26.019 13.5159 25.4511 13.4598 24.9413 13.4095C24.21 13.3373 23.5985 13.2769 22.6687 13.6564C22.6687 13.6564 20.0442 14.7279 19.7531 14.8959L19.7191 14.909L19.7109 14.9136C19.2601 15.1645 18.8244 15.407 17.8707 15.5801C17.3965 15.666 17.0901 15.689 16.861 15.7062L16.8444 15.7075C16.6695 15.7152 16.5436 15.728 16.4258 15.7604C16.1243 15.85 15.6424 15.826 15.6424 15.826C15.7961 15.728 16.1791 15.3418 16.1725 15.1132C16.164 15.0271 16.1015 14.9511 15.9733 14.8893C14.3122 14.0649 12.2329 13.8498 10.8475 13.9278C10.113 13.9699 9.33692 14.0174 7.95729 14.2974C7.26535 14.436 6.68153 14.5325 6.51627 14.5553C6.34212 14.5761 5.77567 14.5364 6.134 14.4313C6.134 14.4313 9.68289 13.5031 10.8571 13.1231C13.0007 12.4344 16.8311 13.554 17.852 13.8525C17.9718 13.8875 18.0529 13.9112 18.0881 13.9193C18.111 13.9168 18.2974 13.8746 18.4661 13.8364C18.6074 13.8044 18.7364 13.7752 18.7465 13.7745Z" fill="#002D62"/>
</g>
<defs>
<clipPath id="clip0">
<rect width="32" height="32" fill="white"/>
</clipPath>
</defs>
</svg>
