<svg width="32" height="32" viewBox="0 0 32 32" fill="none" xmlns="http://www.w3.org/2000/svg">
<g clip-path="url(#clip0)">
<path fill-rule="evenodd" clip-rule="evenodd" d="M31.515 5.03175H27.8516L15.4815 14.6528C12.9945 16.4104 10.8065 18.1117 9.20165 18.5197C7.01839 19.0748 4.18146 19.3894 0 19.3029C1.25813 19.5867 2.35477 19.7185 3.07136 19.8087C6.50038 20.2403 8.96111 21.4002 11.0395 22.917C12.4086 23.9161 13.2491 24.78 14.2219 25.3593C15.2888 25.9945 16.7751 26.4201 18.0456 26.4201C19.3161 26.4201 20.5866 26.2597 21.6103 25.9884C20.5002 26.0377 19.0571 25.9513 18.0086 25.7293C16.9601 25.5073 14.7321 24.7172 14.4809 23.4351C14.2404 22.2077 17.3145 21.2674 18.5266 21.0915C21.672 20.635 24.3486 20.7585 25.323 20.8325C24.028 20.3268 23.6702 19.71 23.6702 19.1796C23.6702 18.6492 24.0402 18.1435 24.2623 17.7611L31.5151 5.03173L31.515 5.03175Z" fill="#B92D2F"/>
<path fill-rule="evenodd" clip-rule="evenodd" d="M18.4553 14.5704L18.2933 14.6341C18.6225 16.2418 18.9562 17.4352 19.6261 18.7152C19.8764 19.1935 20.2666 20.0108 20.6601 20.8569C20.771 20.8485 20.8805 20.8407 20.9889 20.8335C20.6898 19.9132 20.4049 19.006 20.2577 18.4671C19.8768 17.0734 19.3088 15.9722 18.4553 14.5704ZM10.8209 22.204C10.7223 22.3004 10.6438 22.3789 10.5924 22.4326C10.647 22.3804 10.7252 22.3025 10.8209 22.204ZM16.7753 14.4297L16.6378 14.323C15.4237 15.4272 14.5682 16.3235 13.8099 17.5532C13.0958 18.7112 10.9832 21.7346 10.6279 22.204C10.9947 21.7436 13.4008 18.9481 14.3458 17.9695C15.3495 16.9302 16.0061 15.8795 16.7753 14.4297ZM18.827 14.3357L18.6867 14.4387C19.4162 15.9088 20.0441 16.977 21.0192 18.0432C21.5386 18.611 22.5094 19.7727 23.3189 20.7598C23.3944 20.76 23.4686 20.7605 23.5412 20.7612C22.827 19.6716 21.9658 18.3306 21.5662 17.6417C20.8415 16.3917 20.0107 15.4726 18.827 14.3357ZM19.4342 13.198L19.4063 13.3697C20.9567 13.9079 22.1531 14.2305 23.5957 14.3083C24.1615 14.3389 25.1278 14.4278 26.1048 14.5274L26.2615 14.2521C25.2671 14.0289 24.2717 13.795 23.705 13.6386C22.3122 13.2542 21.0754 13.1801 19.4342 13.198ZM19.1264 14.0137L19.0171 14.1492C20.0984 15.3837 20.9786 16.2558 22.194 17.037C22.6111 17.3051 23.2727 17.7638 23.9674 18.256C24.0271 18.1491 24.0896 18.047 24.1485 17.9504C23.535 17.3878 22.9633 16.853 22.6201 16.509C21.5998 15.486 20.5615 14.8099 19.1264 14.0137ZM23.6638 12.092C22.219 12.0767 21.0044 12.3215 19.4224 12.7585L19.4393 12.9317C21.0758 13.0554 22.3148 13.0612 23.7294 12.7673C24.5279 12.6016 26.1582 12.3405 27.4627 12.144L27.557 11.9784C26.2225 12.039 24.502 12.1008 23.6638 12.092ZM19.3334 13.6259L19.2625 13.7847C20.6235 14.7015 21.6975 15.3196 23.0723 15.7638C23.526 15.9105 24.2433 16.1695 25.0068 16.4543L25.1852 16.1413C24.452 15.7566 23.7671 15.3881 23.3492 15.1443C22.1012 14.4165 20.9245 14.0284 19.3334 13.6259ZM17.4244 14.6976C16.9153 16.2578 16.6151 17.46 16.5643 18.9038C16.5424 19.5237 16.4597 20.6243 16.3689 21.6937C16.4678 21.6543 16.5677 21.6166 16.6678 21.5805C16.8732 20.5779 17.0894 19.5724 17.2359 19.0006C17.5942 17.6008 17.6452 16.3628 17.5966 14.7223L17.4244 14.6976ZM26.9616 6.16192C27.0598 6.06616 27.138 5.98794 27.1902 5.93335C27.1362 5.98452 27.058 6.06323 26.9616 6.16192ZM16.4477 14.1365L16.3422 13.9981C16.3227 14.0082 16.3037 14.0182 16.2843 14.0283L15.4815 14.6528C14.25 15.5232 13.0919 16.3795 12.0415 17.072C10.8015 18.1743 8.89076 19.7863 8.5162 20.0795C8.98853 19.7284 12.0298 17.6413 13.1936 16.9371C14.4297 16.1891 15.3333 15.3412 16.4477 14.1365ZM8.69879 20.0795C8.6003 20.1755 8.52188 20.2535 8.47021 20.3081C8.52392 20.2567 8.60215 20.1784 8.69879 20.0795ZM18.0359 14.7022L17.863 14.7223C17.7699 16.3609 17.7873 17.5999 18.1075 19.0087C18.2162 19.4871 18.3649 20.2657 18.5144 21.0933C18.5185 21.0927 18.5227 21.0921 18.5266 21.0915C18.6395 21.0752 18.7518 21.0596 18.8634 21.0447C18.8191 20.2077 18.7854 19.4192 18.7815 18.9304C18.7699 17.4856 18.5024 16.2758 18.0359 14.7022ZM13.3529 23.7177C13.2813 23.8141 13.2255 23.8928 13.1902 23.9462C13.2298 23.894 13.2856 23.8154 13.3529 23.7177ZM17.0067 14.5615C16.1155 15.9395 15.5178 17.025 15.0992 18.4077C14.7052 19.7098 13.4361 23.1729 13.2128 23.7176C13.4496 23.1787 15.0606 19.8608 15.7238 18.673C16.4283 17.4115 16.7942 16.2278 17.167 14.6295L17.0067 14.5615ZM19.2985 12.2996L19.3591 12.4628C20.9727 12.1637 22.172 11.8524 23.4645 11.2065C24.6814 10.5984 28.0697 9.1413 28.6189 8.92939C28.0645 9.12757 24.5469 10.2363 23.2281 10.5705C21.8275 10.9252 20.716 11.4726 19.2985 12.2996ZM28.6189 9.05438C28.7165 8.99486 28.795 8.9453 28.8475 8.90921C28.7944 8.94046 28.7162 8.99055 28.6189 9.05438ZM22.6959 9.65046C23.6823 8.71373 26.498 6.33147 26.9616 5.96849C26.6738 6.18249 25.4332 7.04029 24.2443 7.83742L19.0936 11.8435C19.0722 11.8663 19.0514 11.8883 19.03 11.9116L19.1357 12.0499C20.5919 11.2929 21.6481 10.6453 22.6959 9.65046Z" fill="#D57634"/>
</g>
<defs>
<clipPath id="clip0">
<rect width="32" height="32" fill="white"/>
</clipPath>
</defs>
</svg>
