<svg width="32" height="32" viewBox="0 0 32 32" fill="none" xmlns="http://www.w3.org/2000/svg">
<path fill-rule="evenodd" clip-rule="evenodd" d="M2.88915 10.2496L3.40288 14.5657L4.21031 14.5811L3.89304 12.113L6.27455 14.8577L0.348511 14.8543L3.62291 16.9538L4.16611 19.9106L6.39341 16.4204L9.16411 17.2596L11.2281 17.2704L4.70881 10.3023L2.88915 10.2496ZM4.18674 10.9197L4.19283 10.9199L4.18005 10.9063L4.18674 10.9197ZM4.19283 10.9199C9.63026 16.6872 9.63693 16.7006 9.63693 16.7006L10.158 16.6992L4.70046 10.9336L4.19283 10.9199ZM20.7203 16.7238L18.0471 13.5861L18.7784 13.5958L21.9462 17.2602H21.041H20.1359L18.91 15.7672L19.4964 15.699L20.3397 16.7478L20.7203 16.7238ZM17.1807 13.8361L17.1503 14.2178L16.7731 14.309L17.1463 14.4581L17.1247 14.8285L17.3855 14.5391L17.749 14.6769L17.5373 14.3485L17.7838 14.0636L17.3924 14.1502L17.1807 13.8361ZM20.1894 14.8075L26.3595 14.7958L26.7677 15.3532L24.2899 15.3747L25.6911 17.2874L24.8272 17.2797L23.3523 15.3819L21.4408 15.3624L21.7542 15.7283L22.543 15.7346L22.9732 16.1935L22.1878 16.2073L22.5719 16.7704L23.5267 16.775L23.9328 17.2725L22.2261 17.272L20.1894 14.8075ZM12.4054 14.7993L9.70691 14.7999L11.6482 17.2484C11.646 17.2568 12.4368 17.2609 12.4368 17.2609L10.7891 15.3737L11.0826 15.3805L12.7516 17.2634L13.3278 17.2604L11.6937 15.3871L12.0087 15.3753L13.7986 17.2582L14.4934 17.2644L12.4054 14.7993ZM14.7825 17.2366C14.7825 17.2366 14.7701 17.232 12.734 14.8111L14.4133 14.8147L14.8174 15.3332C14.809 15.3316 13.8744 15.3266 13.8744 15.3266L14.229 15.7242L15.1589 15.721L15.6096 16.2288L14.6293 16.255L15.029 16.6618L15.8021 16.6823L16.3944 17.2684L14.7825 17.2366ZM14.8233 14.8383L16.695 17.2684L17.5206 17.2638L16.7172 16.2719L17.0712 16.2703L18.08 17.2571L18.8132 17.2797L17.6139 15.9542L17.2141 15.905L17.2234 15.5474L16.5388 14.8434L14.8233 14.8383ZM19.0917 17.271L17.3678 15.1575V15.1574L17.9194 15.1759L19.6585 17.2689L19.0917 17.271ZM2.65636 15.2943L6.8369 15.2948L7.49306 16.068L6.00688 15.6155L4.59683 17.8479L4.46619 16.6341C2.65934 15.2932 2.65636 15.2943 2.65636 15.2943V15.2943ZM16.7849 15.8023L16.3315 15.3536L15.8998 15.3578L16.2805 15.7928L16.7849 15.8023Z" fill="#0175C0"/>
<path fill-rule="evenodd" clip-rule="evenodd" d="M28.4684 17.2918C28.3557 17.2533 28.2881 17.2186 28.3181 17.2186C28.3857 17.2147 28.9381 17.3111 29.1334 17.3651C29.2123 17.3844 29.4037 17.4306 29.5577 17.4614C30.3015 17.6273 31.0829 17.9204 31.4172 18.1557C32.0219 18.5838 31.9728 18.9542 31.2517 19.39C31.124 19.4671 30.9998 19.5288 30.9811 19.5288C30.9585 19.5288 30.8947 19.5559 30.8421 19.5867C30.7369 19.6446 30.1925 19.8218 29.8018 19.9259C29.5164 20.003 29.0243 20.1074 28.1492 20.281C28.0216 20.3051 27.8252 20.3443 27.6884 20.3717L27.6423 20.3809C27.5071 20.4079 27.3041 20.4428 27.1915 20.4582C26.5454 20.5508 26.1661 20.6124 26.136 20.6278C26.121 20.6394 25.9558 20.6664 25.7755 20.6857C25.4337 20.7204 25.0468 20.7708 24.5698 20.844C24.4233 20.8672 24.1341 20.898 23.9313 20.9173C23.7322 20.9366 23.4163 20.9674 23.2285 20.9906C22.7627 21.0446 21.9514 21.1137 21.5007 21.133C21.2941 21.1407 20.8548 21.1642 20.5243 21.1873C20.295 21.2034 20.0748 21.2155 19.9438 21.2227C19.8859 21.2259 19.8454 21.2282 19.8293 21.2293C17.7409 21.264 16.1972 21.264 15.5098 21.2293C13.35 21.1175 11.9038 20.9829 10.4953 20.7554C10.3526 20.7323 10.1311 20.7011 10.0071 20.6857C9.88316 20.6703 9.59776 20.6203 9.36864 20.574C9.18043 20.5354 8.95026 20.4913 8.80947 20.4643C8.78166 20.459 8.75735 20.4544 8.73753 20.4506C8.33938 20.3811 7.55078 20.1881 7.48317 20.1457C7.42682 20.111 7.43445 20.1072 7.52835 20.1226C8.50494 20.2962 9.24085 20.4082 9.53759 20.4352C9.67281 20.4467 9.85673 20.4738 9.95063 20.4931C10.0445 20.5124 10.2289 20.5276 10.3642 20.5315C10.4994 20.5315 10.8112 20.5585 11.0591 20.5894C12.2686 20.7398 13.4405 20.7782 16.4867 20.7744C18.8267 20.7744 19.6042 20.7589 20.2615 20.7088C20.716 20.6741 21.2152 20.6473 21.373 20.6473C21.527 20.6473 21.749 20.632 21.8617 20.6089C21.9743 20.5896 22.3198 20.5546 22.6278 20.5315C23.2739 20.4891 23.8524 20.4349 24.2618 20.3732C24.4158 20.35 24.6786 20.3192 24.8438 20.2999C25.411 20.2421 25.8579 20.1766 26.0908 20.1226C26.2185 20.0918 26.3952 20.0688 26.4778 20.0688C26.5642 20.0688 26.6618 20.053 26.6993 20.0299C26.7369 20.0106 26.8911 19.9759 27.0451 19.9566C27.1991 19.9335 27.3902 19.8991 27.4729 19.8798C27.4923 19.8752 27.518 19.8692 27.5479 19.8622C27.6452 19.8393 27.7873 19.8059 27.9051 19.7794C28.3408 19.6868 28.9453 19.5132 29.1368 19.4284C29.2045 19.3975 29.2759 19.3746 29.2984 19.3746C29.3172 19.3746 29.4978 19.2973 29.7007 19.2009C30.065 19.0235 30.305 18.8307 30.4064 18.6301C30.5905 18.2715 30.0348 17.801 29.047 17.4809L29.0219 17.4728C28.823 17.4085 28.5765 17.3288 28.4684 17.2918ZM3.74219 10.9222L4.27261 10.9192L9.76007 16.7092L9.38288 16.7113L3.74219 10.9222Z" fill="#EE3A43"/>
</svg>
