<svg width="32" height="32" viewBox="0 0 32 32" fill="none" xmlns="http://www.w3.org/2000/svg">
<g clip-path="url(#clip0)">
<path fill-rule="evenodd" clip-rule="evenodd" d="M1.60949 16.8582H2.85622L2.82954 17.3716C2.81966 17.5894 2.79197 17.7423 2.74646 17.8303C2.70086 17.9184 2.65046 17.9763 2.59507 18.004C2.56932 18.0158 2.47036 18.0296 2.2982 18.0455L2.26553 18.1554H4.00797L4.03769 18.0455C3.91104 18.0355 3.82053 18 3.76607 17.9386C3.71161 17.8773 3.68442 17.7794 3.68442 17.6448C3.68442 17.6092 3.68738 17.5053 3.69329 17.3331L3.82686 14.0383H3.69329L0.840727 17.4428C0.632938 17.6902 0.473698 17.8535 0.362837 17.9326C0.279756 17.99 0.184769 18.0276 0.0778771 18.0454L0.0481567 18.1553H1.25031V18.0454C1.13345 18.0395 1.04995 18.0162 0.99946 17.9757C0.949054 17.9352 0.923808 17.8912 0.923808 17.8436C0.923808 17.7981 0.933771 17.7527 0.953529 17.7071C0.979196 17.6477 1.01981 17.5815 1.0752 17.5083L1.36016 17.1669L1.60949 16.8582ZM2.93339 15.3028L2.85622 16.6148H1.81432L2.93339 15.3028Z" fill="white"/>
<path d="M2.85622 16.8582L3.00602 16.866L3.01422 16.7082H2.85622V16.8582ZM1.60949 16.8582V16.7082H1.53782L1.4928 16.764L1.60949 16.8582ZM2.82954 17.3716L2.67974 17.3639L2.67969 17.3649L2.82954 17.3716ZM2.74646 17.8303L2.87966 17.8993L2.87969 17.8992L2.74646 17.8303ZM2.59507 18.004L2.65768 18.1404L2.66215 18.1381L2.59507 18.004ZM2.2982 18.0455L2.28443 17.8961L2.18337 17.9055L2.15443 18.0027L2.2982 18.0455ZM2.26553 18.1554L2.12175 18.1126L2.06441 18.3054H2.26553V18.1554ZM4.00797 18.1554V18.3054H4.12278L4.15276 18.1945L4.00797 18.1554ZM4.03769 18.0455L4.18248 18.0847L4.2297 17.9101L4.04945 17.896L4.03769 18.0455ZM3.76607 17.9386L3.87827 17.8391L3.8782 17.839L3.76607 17.9386ZM3.69329 17.3331L3.54341 17.3271L3.54337 17.328L3.69329 17.3331ZM3.82686 14.0383L3.97674 14.0444L3.98306 13.8883H3.82686V14.0383ZM3.69329 14.0383V13.8883H3.62327L3.57831 13.942L3.69329 14.0383ZM0.840727 17.4428L0.955586 17.5393L0.955702 17.5392L0.840727 17.4428ZM0.362837 17.9326L0.448124 18.056L0.44997 18.0547L0.362837 17.9326ZM0.0778771 18.0454L0.0532171 17.8975L-0.0417675 17.9133L-0.0669169 18.0062L0.0778771 18.0454ZM0.0481567 18.1553L-0.0966372 18.1161L-0.147821 18.3053H0.0481567V18.1553ZM1.25031 18.1553V18.3053H1.40031V18.1553H1.25031ZM1.25031 18.0454H1.40031V17.9028L1.25789 17.8956L1.25031 18.0454ZM0.99946 17.9757L0.905469 18.0926L0.905565 18.0927L0.99946 17.9757ZM0.953529 17.7071L1.09116 17.7667L1.09121 17.7666L0.953529 17.7071ZM1.0752 17.5083L0.959913 17.412L0.955578 17.4178L1.0752 17.5083ZM1.36016 17.1669L1.47532 17.263L1.47685 17.2612L1.36016 17.1669ZM2.85622 16.6148V16.7648H2.99766L3.00596 16.6236L2.85622 16.6148ZM2.93339 15.3028L3.08313 15.3116L3.10938 14.8653L2.81927 15.2055L2.93339 15.3028ZM1.81432 16.6148L1.7002 16.5175L1.48922 16.7648H1.81432V16.6148ZM2.85622 16.7082H1.60949V17.0082H2.85622V16.7082ZM2.97934 17.3794L3.00602 16.866L2.70642 16.8504L2.67974 17.3639L2.97934 17.3794ZM2.87969 17.8992C2.94144 17.7798 2.96943 17.5979 2.97939 17.3784L2.67969 17.3649C2.66989 17.5809 2.6425 17.7048 2.61323 17.7614L2.87969 17.8992ZM2.66215 18.1381C2.7585 18.09 2.82764 17.9997 2.87966 17.8993L2.61325 17.7613C2.57408 17.837 2.54242 17.8626 2.52799 17.8698L2.66215 18.1381ZM2.31198 18.1949C2.39898 18.1869 2.46944 18.1792 2.52233 18.1718C2.54867 18.1681 2.57231 18.1642 2.59227 18.1601C2.60871 18.1567 2.63439 18.151 2.65764 18.1403L2.53249 17.8676C2.54287 17.8629 2.54653 17.8633 2.53179 17.8663C2.52057 17.8686 2.50388 17.8714 2.48075 17.8747C2.43469 17.8811 2.36959 17.8883 2.28443 17.8961L2.31198 18.1949ZM2.4093 18.1981L2.44198 18.0883L2.15443 18.0027L2.12175 18.1126L2.4093 18.1981ZM4.00797 18.0054H2.26553V18.3054H4.00797V18.0054ZM3.89289 18.0063L3.86317 18.1162L4.15276 18.1945L4.18248 18.0847L3.89289 18.0063ZM3.65386 18.0382C3.74517 18.1411 3.8813 18.1837 4.02592 18.195L4.04945 17.896C3.94078 17.8874 3.89588 17.8589 3.87827 17.8391L3.65386 18.0382ZM3.53442 17.6448C3.53442 17.794 3.56358 17.9365 3.65393 18.0382L3.8782 17.839C3.85963 17.8181 3.83442 17.7647 3.83442 17.6448H3.53442ZM3.54337 17.328C3.53751 17.4989 3.53442 17.606 3.53442 17.6448H3.83442C3.83442 17.6125 3.83724 17.5117 3.8432 17.3383L3.54337 17.328ZM3.67698 14.0323L3.54341 17.3271L3.84316 17.3392L3.97674 14.0444L3.67698 14.0323ZM3.69329 14.1883H3.82686V13.8883H3.69329V14.1883ZM0.955702 17.5392L3.80826 14.1347L3.57831 13.942L0.725751 17.3465L0.955702 17.5392ZM0.44997 18.0547C0.577874 17.9634 0.74775 17.7867 0.955586 17.5393L0.725867 17.3464C0.518125 17.5937 0.369522 17.7436 0.275705 17.8105L0.44997 18.0547ZM0.102537 18.1934C0.229536 18.1722 0.345545 18.1269 0.448115 18.056L0.27756 17.8092C0.213967 17.8532 0.140002 17.883 0.0532171 17.8975L0.102537 18.1934ZM0.192951 18.1944L0.222671 18.0846L-0.0669169 18.0062L-0.0966372 18.1161L0.192951 18.1944ZM1.25031 18.0053H0.0481567V18.3053H1.25031V18.0053ZM1.10031 18.0454V18.1553H1.40031V18.0454H1.10031ZM0.905565 18.0927C0.993582 18.1633 1.11641 18.1888 1.24273 18.1952L1.25789 17.8956C1.1505 17.8902 1.10632 17.8691 1.09336 17.8587L0.905565 18.0927ZM0.773808 17.8436C0.773808 17.9517 0.833343 18.0346 0.905469 18.0926L1.09345 17.8588C1.07897 17.8471 1.074 17.8397 1.07287 17.8377C1.0724 17.8369 1.07273 17.8373 1.07315 17.8388C1.07357 17.8403 1.07381 17.8421 1.07381 17.8436H0.773808ZM0.815895 17.6475C0.788836 17.7099 0.773808 17.7756 0.773808 17.8436H1.07381C1.07381 17.8207 1.07871 17.7955 1.09116 17.7667L0.815895 17.6475ZM0.955578 17.4178C0.895776 17.4968 0.847832 17.5736 0.81585 17.6476L1.09121 17.7666C1.11056 17.7219 1.14384 17.6661 1.19481 17.5988L0.955578 17.4178ZM1.24501 17.0708L0.960045 17.4121L1.19035 17.6044L1.47531 17.263L1.24501 17.0708ZM1.4928 16.764L1.24347 17.0726L1.47685 17.2612L1.72618 16.9525L1.4928 16.764ZM3.00596 16.6236L3.08313 15.3116L2.78365 15.294L2.70648 16.606L3.00596 16.6236ZM1.81432 16.7648H2.85622V16.4648H1.81432V16.7648ZM2.81927 15.2055L1.7002 16.5175L1.92844 16.7121L3.04752 15.4001L2.81927 15.2055Z" fill="black"/>
<path d="M8.17546 18.1554H6.43302L6.4657 18.0456C6.58044 18.0357 6.66555 18.0025 6.72094 17.9461C6.77633 17.8897 6.80402 17.8199 6.80402 17.7368C6.80402 17.6477 6.77329 17.5063 6.71199 17.3123L6.28459 15.9411L5.86015 17.4104C5.81261 17.5747 5.78889 17.6934 5.78889 17.7666C5.78889 17.8497 5.82156 17.9165 5.88683 17.9669C5.95209 18.0174 6.06979 18.0437 6.24009 18.0456L6.20742 18.1555H4.25128L4.28396 18.0456C4.44033 18.0417 4.55701 18.0209 4.63418 17.9833C4.71136 17.9458 4.77265 17.8873 4.81825 17.8082C4.86376 17.7291 4.91813 17.5777 4.98154 17.354L5.65835 15.0121C5.73552 14.743 5.77411 14.5717 5.77411 14.4985C5.77411 14.4313 5.74295 14.3729 5.68064 14.3234C5.61833 14.274 5.50004 14.2463 5.32594 14.2403L5.35862 14.1305H7.25244L7.21977 14.2403C7.09312 14.2403 6.9961 14.2592 6.9289 14.2967C6.83982 14.3482 6.76755 14.4234 6.71224 14.5223C6.67467 14.5876 6.62317 14.739 6.5579 14.9765L6.28484 15.9383L7.33265 14.9765C7.53647 14.7885 7.65029 14.6757 7.67402 14.6381C7.70568 14.5887 7.72155 14.5362 7.72155 14.4808C7.72155 14.4214 7.70027 14.3699 7.65772 14.3265C7.61517 14.283 7.54146 14.2543 7.43659 14.2403L7.46927 14.1305H8.9861L8.95342 14.2403C8.83665 14.2503 8.74167 14.267 8.66846 14.2908C8.57154 14.3225 8.46067 14.3764 8.33597 14.4526C8.21126 14.5288 8.08461 14.6183 7.95602 14.7213L7.67993 14.9765L7.0417 15.5494L7.51663 17.0335C7.67098 17.5223 7.7907 17.8113 7.87581 17.9003C7.96083 17.9894 8.07169 18.0379 8.20831 18.0458L8.17546 18.1554Z" fill="white" stroke="black" stroke-width="0.3"/>
<path d="M11.5208 18.1554H8.30603L8.33871 18.0456C8.53062 18.0456 8.6707 18.0085 8.75876 17.9343C8.84674 17.8601 8.92838 17.6934 9.00361 17.4341L9.7516 14.8487C9.79314 14.7062 9.81391 14.5945 9.81391 14.5133C9.81391 14.4342 9.78419 14.3708 9.72484 14.3233C9.66548 14.2758 9.54871 14.2481 9.37461 14.2402L9.40729 14.1304H11.3397L11.307 14.2402C11.121 14.2442 10.982 14.2858 10.89 14.3649C10.798 14.4441 10.7163 14.6054 10.6452 14.8487L9.96243 17.2145C9.8753 17.5154 9.83181 17.6983 9.83181 17.7637C9.83181 17.8033 9.8541 17.8404 9.8986 17.875C9.9431 17.9096 10.0148 17.9269 10.1138 17.9269C10.4423 17.9269 10.7594 17.8517 11.0652 17.7013C11.3709 17.5509 11.6296 17.3263 11.8415 17.0275H11.9662L11.5208 18.1554Z" fill="white" stroke="black" stroke-width="0.3"/>
<path fill-rule="evenodd" clip-rule="evenodd" d="M13.4324 16.8582H14.6791L14.6525 17.3716C14.6426 17.5894 14.6149 17.7423 14.5694 17.8303C14.5239 17.9184 14.4734 17.9763 14.418 18.004C14.3923 18.0158 14.2933 18.0296 14.1211 18.0455L14.0885 18.1554H15.8309L15.8606 18.0455C15.734 18.0355 15.6435 18 15.589 17.9386C15.5345 17.8773 15.5074 17.7794 15.5074 17.6448C15.5074 17.6092 15.5103 17.5053 15.5162 17.3331L15.6498 14.0383H15.5162L12.6637 17.4428C12.4559 17.6902 12.2966 17.8535 12.1858 17.9326C12.1027 17.99 12.0077 18.0276 11.9008 18.0454L11.8711 18.1553H13.0732V18.0454C12.9565 18.0395 12.8729 18.0162 12.8224 17.9757C12.772 17.9352 12.7467 17.8912 12.7467 17.8436C12.7467 17.7981 12.7567 17.7527 12.7765 17.7071C12.8021 17.6477 12.8427 17.5815 12.8981 17.5083L13.1831 17.1669L13.4324 16.8582ZM14.7562 15.3028L14.6791 16.6148H13.6373L14.7562 15.3028Z" fill="white"/>
<path d="M14.6791 16.8582L14.8289 16.866L14.837 16.7082H14.6791V16.8582ZM13.4324 16.8582V16.7082H13.3608L13.3157 16.764L13.4324 16.8582ZM14.6525 17.3716L14.5027 17.3639L14.5026 17.3649L14.6525 17.3716ZM14.5694 17.8303L14.4362 17.7614L14.4361 17.7614L14.5694 17.8303ZM14.418 18.004L14.4806 18.1404L14.4851 18.1381L14.418 18.004ZM14.1211 18.0455L14.1074 17.8961L14.0063 17.9055L13.9774 18.0027L14.1211 18.0455ZM14.0885 18.1554L13.9447 18.1126L13.8874 18.3054H14.0885V18.1554ZM15.8309 18.1554V18.3054H15.9457L15.9757 18.1945L15.8309 18.1554ZM15.8606 18.0455L16.0054 18.0847L16.0526 17.9101L15.8724 17.896L15.8606 18.0455ZM15.589 17.9386L15.7012 17.8391L15.7011 17.839L15.589 17.9386ZM15.5162 17.3331L15.3663 17.3271L15.3663 17.328L15.5162 17.3331ZM15.6498 14.0383L15.7997 14.0444L15.806 13.8883H15.6498V14.0383ZM15.5162 14.0383V13.8883H15.4462L15.4012 13.942L15.5162 14.0383ZM12.6637 17.4428L12.7785 17.5393L12.7786 17.5392L12.6637 17.4428ZM12.1858 17.9326L12.2711 18.056L12.2729 18.0547L12.1858 17.9326ZM11.9008 18.0454L11.8762 17.8975L11.7812 17.9133L11.756 18.0062L11.9008 18.0454ZM11.8711 18.1553L11.7263 18.1161L11.6751 18.3053H11.8711V18.1553ZM13.0732 18.1553V18.3053H13.2232V18.1553H13.0732ZM13.0732 18.0454H13.2232V17.9028L13.0808 17.8956L13.0732 18.0454ZM12.8224 17.9757L12.7284 18.0926L12.7285 18.0927L12.8224 17.9757ZM12.7765 17.7071L12.9141 17.7667L12.9141 17.7666L12.7765 17.7071ZM12.8981 17.5083L12.7828 17.412L12.7785 17.4178L12.8981 17.5083ZM13.1831 17.1669L13.2983 17.263L13.2998 17.2612L13.1831 17.1669ZM14.6791 16.6148V16.7648H14.8205L14.8288 16.6236L14.6791 16.6148ZM14.7562 15.3028L14.906 15.3116L14.9322 14.8653L14.6421 15.2055L14.7562 15.3028ZM13.6373 16.6148L13.5231 16.5175L13.3122 16.7648H13.6373V16.6148ZM14.6791 16.7082H13.4324V17.0082H14.6791V16.7082ZM14.8023 17.3794L14.8289 16.866L14.5293 16.8505L14.5027 17.3639L14.8023 17.3794ZM14.7026 17.8992C14.7644 17.7798 14.7924 17.5979 14.8023 17.3784L14.5026 17.3649C14.4928 17.5809 14.4654 17.7048 14.4362 17.7614L14.7026 17.8992ZM14.4851 18.1381C14.5814 18.09 14.6506 17.9998 14.7027 17.8992L14.4361 17.7614C14.3971 17.8369 14.3654 17.8626 14.3509 17.8698L14.4851 18.1381ZM14.1349 18.1949C14.2219 18.1869 14.2924 18.1792 14.3453 18.1718C14.3716 18.1681 14.3953 18.1642 14.4152 18.1601C14.4316 18.1567 14.4573 18.151 14.4806 18.1403L14.3554 17.8676C14.3658 17.8629 14.3695 17.8633 14.3547 17.8663C14.3435 17.8686 14.3268 17.8714 14.3037 17.8747C14.2576 17.8811 14.1925 17.8883 14.1074 17.8961L14.1349 18.1949ZM14.2322 18.1981L14.2649 18.0883L13.9774 18.0027L13.9447 18.1126L14.2322 18.1981ZM15.8309 18.0054H14.0885V18.3054H15.8309V18.0054ZM15.7158 18.0063L15.6861 18.1162L15.9757 18.1945L16.0054 18.0847L15.7158 18.0063ZM15.4768 18.0382C15.5681 18.1411 15.7042 18.1837 15.8489 18.195L15.8724 17.896C15.7637 17.8874 15.7188 17.8589 15.7012 17.8391L15.4768 18.0382ZM15.3574 17.6448C15.3574 17.794 15.3865 17.9365 15.4769 18.0382L15.7011 17.839C15.6826 17.8181 15.6574 17.7647 15.6574 17.6448H15.3574ZM15.3663 17.328C15.3604 17.4989 15.3574 17.606 15.3574 17.6448H15.6574C15.6574 17.6125 15.6602 17.5117 15.6661 17.3383L15.3663 17.328ZM15.4999 14.0323L15.3663 17.3271L15.6661 17.3392L15.7997 14.0444L15.4999 14.0323ZM15.5162 14.1883H15.6498V13.8883H15.5162V14.1883ZM12.7786 17.5392L15.6312 14.1347L15.4012 13.942L12.5487 17.3465L12.7786 17.5392ZM12.2729 18.0547C12.4008 17.9634 12.5707 17.7867 12.7785 17.5393L12.5488 17.3464C12.3411 17.5937 12.1925 17.7436 12.0986 17.8105L12.2729 18.0547ZM11.9255 18.1934C12.0525 18.1722 12.1685 18.1269 12.2711 18.056L12.1005 17.8092C12.0369 17.8532 11.9629 17.883 11.8762 17.8975L11.9255 18.1934ZM12.0159 18.1944L12.0456 18.0846L11.756 18.0062L11.7263 18.1161L12.0159 18.1944ZM13.0732 18.0053H11.8711V18.3053H13.0732V18.0053ZM12.9232 18.0454V18.1553H13.2232V18.0454H12.9232ZM12.7285 18.0927C12.8165 18.1633 12.9395 18.1888 13.0657 18.1952L13.0808 17.8956C12.9735 17.8902 12.9292 17.8691 12.9163 17.8587L12.7285 18.0927ZM12.5967 17.8436C12.5967 17.9517 12.6563 18.0346 12.7284 18.0926L12.9164 17.8588C12.9019 17.8471 12.8969 17.8397 12.8958 17.8377C12.8953 17.8369 12.8957 17.8373 12.8961 17.8388C12.8965 17.8403 12.8967 17.8421 12.8967 17.8436H12.5967ZM12.6388 17.6475C12.6118 17.7099 12.5967 17.7756 12.5967 17.8436H12.8967C12.8967 17.8207 12.9016 17.7955 12.9141 17.7667L12.6388 17.6475ZM12.7785 17.4178C12.7187 17.4968 12.6708 17.5736 12.6388 17.6476L12.9141 17.7666C12.9335 17.7219 12.9668 17.6661 13.0178 17.5988L12.7785 17.4178ZM13.0679 17.0708L12.783 17.4121L13.0133 17.6044L13.2982 17.263L13.0679 17.0708ZM13.3157 16.764L13.0664 17.0726L13.2998 17.2612L13.5491 16.9525L13.3157 16.764ZM14.8288 16.6236L14.906 15.3116L14.6065 15.294L14.5293 16.606L14.8288 16.6236ZM13.6373 16.7648H14.6791V16.4648H13.6373V16.7648ZM14.6421 15.2055L13.5231 16.5175L13.7514 16.7121L14.8704 15.4001L14.6421 15.2055Z" fill="black"/>
<path d="M19.9984 18.1554H18.256L18.2887 18.0455C18.4034 18.0356 18.4885 18.0025 18.5439 17.9461C18.5993 17.8897 18.627 17.8199 18.627 17.7367C18.627 17.6477 18.5963 17.5062 18.5349 17.3123L18.1075 15.9409L17.683 17.4102C17.6355 17.5746 17.6118 17.6933 17.6118 17.7665C17.6118 17.8495 17.6444 17.9163 17.7097 17.9668C17.775 18.0173 17.8928 18.0436 18.063 18.0455L18.0303 18.1554H16.0742L16.1068 18.0455C16.2632 18.0415 16.3799 18.0208 16.4571 17.9832C16.5342 17.9456 16.5956 17.8872 16.6411 17.8081C16.6866 17.729 16.7411 17.5776 16.8044 17.3539L17.4812 15.0119C17.5584 14.7428 17.597 14.5716 17.597 14.4984C17.597 14.4312 17.5658 14.3728 17.5035 14.3233C17.4412 14.2739 17.3229 14.2461 17.1488 14.2402L17.1815 14.1304H19.0753L19.0426 14.2402C18.916 14.2402 18.8191 14.259 18.7518 14.2966C18.6627 14.3481 18.5905 14.4233 18.5351 14.5222C18.4975 14.5875 18.446 14.7389 18.3808 14.9764L18.1077 15.9382L19.1555 14.9764C19.3594 14.7884 19.4732 14.6756 19.4969 14.638C19.5286 14.5886 19.5444 14.5361 19.5444 14.4807C19.5444 14.4213 19.5231 14.3698 19.4806 14.3263C19.438 14.2829 19.3643 14.2541 19.2595 14.2402L19.2921 14.1304H20.809L20.7763 14.2402C20.6595 14.2502 20.5645 14.2669 20.4913 14.2907C20.3944 14.3224 20.2836 14.3763 20.1588 14.4525C20.0341 14.5286 19.9075 14.6182 19.7789 14.7211L19.5028 14.9764L18.8646 15.5493L19.3395 17.0334C19.4939 17.5222 19.6136 17.8111 19.6987 17.9002C19.7838 17.9893 19.8946 18.0377 20.0312 18.0457L19.9984 18.1554Z" fill="white" stroke="black" stroke-width="0.3"/>
<path fill-rule="evenodd" clip-rule="evenodd" d="M22.8361 16.8583H24.0828L24.0562 17.3715C24.0463 17.5893 24.0186 17.7422 23.9731 17.8302C23.9276 17.9182 23.8771 17.9761 23.8217 18.0038C23.7959 18.0157 23.697 18.0295 23.5248 18.0454L23.4922 18.1552H25.2346L25.2643 18.0454C25.1377 18.0354 25.0471 17.9999 24.9927 17.9385C24.9382 17.8772 24.911 17.7793 24.911 17.6447C24.911 17.6091 24.914 17.5052 24.9199 17.333L25.0535 14.0382H24.9199L22.0674 17.4429C21.8596 17.6903 21.7003 17.8536 21.5895 17.9327C21.5064 17.9901 21.4114 18.0277 21.3045 18.0455L21.2748 18.1553H22.4769V18.0455C22.3602 18.0396 22.2766 18.0163 22.2261 17.9757C22.1757 17.9352 22.1504 17.8912 22.1504 17.8437C22.1504 17.7982 22.1604 17.7527 22.1802 17.7071C22.2058 17.6478 22.2464 17.5815 22.3018 17.5083L22.5868 17.1669L22.8361 16.8583ZM24.16 15.3028L24.0828 16.6148H23.0409L24.16 15.3028Z" fill="white"/>
<path d="M24.0828 16.8583L24.2326 16.866L24.2408 16.7083H24.0828V16.8583ZM22.8361 16.8583V16.7083H22.7644L22.7194 16.764L22.8361 16.8583ZM24.0562 17.3715L23.9064 17.3637L23.9063 17.3647L24.0562 17.3715ZM23.9731 17.8302L23.8399 17.7612L23.8398 17.7613L23.9731 17.8302ZM23.8217 18.0038L23.8843 18.1402L23.8888 18.138L23.8217 18.0038ZM23.5248 18.0454L23.5111 17.896L23.41 17.9053L23.3811 18.0026L23.5248 18.0454ZM23.4922 18.1552L23.3484 18.1125L23.291 18.3052H23.4922V18.1552ZM25.2346 18.1552V18.3052H25.3494L25.3794 18.1944L25.2346 18.1552ZM25.2643 18.0454L25.4091 18.0846L25.4563 17.91L25.2761 17.8958L25.2643 18.0454ZM24.9927 17.9385L25.1049 17.8389L25.1048 17.8389L24.9927 17.9385ZM24.9199 17.333L24.77 17.3269L24.77 17.3279L24.9199 17.333ZM25.0535 14.0382L25.2034 14.0443L25.2097 13.8882H25.0535V14.0382ZM24.9199 14.0382V13.8882H24.8499L24.8049 13.9419L24.9199 14.0382ZM22.0674 17.4429L22.1822 17.5393L22.1823 17.5392L22.0674 17.4429ZM21.5895 17.9327L21.6747 18.0561L21.6766 18.0548L21.5895 17.9327ZM21.3045 18.0455L21.2798 17.8975L21.1849 17.9133L21.1597 18.0063L21.3045 18.0455ZM21.2748 18.1553L21.13 18.1161L21.0788 18.3053H21.2748V18.1553ZM22.4769 18.1553V18.3053H22.6269V18.1553H22.4769ZM22.4769 18.0455H22.6269V17.9029L22.4845 17.8957L22.4769 18.0455ZM22.2261 17.9757L22.1321 18.0926L22.1322 18.0927L22.2261 17.9757ZM22.1802 17.7071L22.3178 17.7668L22.3178 17.7667L22.1802 17.7071ZM22.3018 17.5083L22.1865 17.4121L22.1822 17.4178L22.3018 17.5083ZM22.5868 17.1669L22.7019 17.2631L22.7035 17.2612L22.5868 17.1669ZM24.0828 16.6148V16.7648H24.2243L24.2326 16.6236L24.0828 16.6148ZM24.16 15.3028L24.3098 15.3116L24.336 14.8654L24.0459 15.2055L24.16 15.3028ZM23.0409 16.6148L22.9268 16.5175L22.7158 16.7648H23.0409V16.6148ZM24.0828 16.7083H22.8361V17.0083H24.0828V16.7083ZM24.206 17.3793L24.2326 16.866L23.933 16.8505L23.9064 17.3637L24.206 17.3793ZM24.1063 17.8991C24.1681 17.7797 24.1961 17.5978 24.206 17.3783L23.9063 17.3647C23.8965 17.5807 23.8691 17.7047 23.8399 17.7612L24.1063 17.8991ZM23.8888 18.138C23.9851 18.0899 24.0543 17.9997 24.1063 17.899L23.8398 17.7613C23.8008 17.8368 23.7691 17.8624 23.7546 17.8697L23.8888 18.138ZM23.5386 18.1948C23.6256 18.1867 23.6961 18.179 23.749 18.1716C23.7753 18.168 23.7989 18.1641 23.8189 18.16C23.8353 18.1566 23.861 18.1508 23.8843 18.1402L23.7591 17.8675C23.7695 17.8628 23.7731 17.8631 23.7584 17.8662C23.7472 17.8685 23.7305 17.8713 23.7074 17.8745C23.6613 17.881 23.5962 17.8882 23.5111 17.896L23.5386 18.1948ZM23.6359 18.198L23.6686 18.0882L23.3811 18.0026L23.3484 18.1125L23.6359 18.198ZM25.2346 18.0052H23.4922V18.3052H25.2346V18.0052ZM25.1195 18.0062L25.0898 18.1161L25.3794 18.1944L25.4091 18.0846L25.1195 18.0062ZM24.8805 18.038C24.9718 18.141 25.1079 18.1835 25.2525 18.1949L25.2761 17.8958C25.1674 17.8873 25.1225 17.8588 25.1049 17.8389L24.8805 18.038ZM24.761 17.6447C24.761 17.7939 24.7902 17.9364 24.8806 18.0381L25.1048 17.8389C25.0863 17.818 25.061 17.7646 25.061 17.6447H24.761ZM24.77 17.3279C24.7641 17.4988 24.761 17.6059 24.761 17.6447H25.061C25.061 17.6124 25.0639 17.5116 25.0698 17.3382L24.77 17.3279ZM24.9036 14.0321L24.77 17.3269L25.0698 17.3391L25.2034 14.0443L24.9036 14.0321ZM24.9199 14.1882H25.0535V13.8882H24.9199V14.1882ZM22.1823 17.5392L25.0349 14.1345L24.8049 13.9419L21.9524 17.3465L22.1823 17.5392ZM21.6766 18.0548C21.8045 17.9635 21.9744 17.7868 22.1822 17.5393L21.9525 17.3464C21.7447 17.5937 21.5961 17.7436 21.5023 17.8106L21.6766 18.0548ZM21.3292 18.1934C21.4562 18.1723 21.5722 18.1269 21.6747 18.0561L21.5042 17.8093C21.4406 17.8532 21.3666 17.883 21.2798 17.8975L21.3292 18.1934ZM21.4196 18.1945L21.4493 18.0846L21.1597 18.0063L21.13 18.1161L21.4196 18.1945ZM22.4769 18.0053H21.2748V18.3053H22.4769V18.0053ZM22.3269 18.0455V18.1553H22.6269V18.0455H22.3269ZM22.1322 18.0927C22.2202 18.1634 22.3431 18.1889 22.4694 18.1953L22.4845 17.8957C22.3772 17.8902 22.3329 17.8692 22.32 17.8588L22.1322 18.0927ZM22.0004 17.8437C22.0004 17.9517 22.06 18.0346 22.1321 18.0926L22.3201 17.8588C22.3056 17.8472 22.3006 17.8397 22.2995 17.8377C22.299 17.8369 22.2994 17.8373 22.2998 17.8388C22.3002 17.8404 22.3004 17.8421 22.3004 17.8437H22.0004ZM22.0425 17.6475C22.0155 17.71 22.0004 17.7756 22.0004 17.8437H22.3004C22.3004 17.8207 22.3053 17.7955 22.3178 17.7668L22.0425 17.6475ZM22.1822 17.4178C22.1224 17.4968 22.0745 17.5737 22.0425 17.6476L22.3178 17.7667C22.3372 17.7219 22.3705 17.6662 22.4214 17.5988L22.1822 17.4178ZM22.4716 17.0708L22.1867 17.4122L22.417 17.6044L22.7019 17.2631L22.4716 17.0708ZM22.7194 16.764L22.4701 17.0727L22.7035 17.2612L22.9528 16.9525L22.7194 16.764ZM24.2326 16.6236L24.3098 15.3116L24.0103 15.294L23.9331 16.606L24.2326 16.6236ZM23.0409 16.7648H24.0828V16.4648H23.0409V16.7648ZM24.0459 15.2055L22.9268 16.5175L23.1551 16.7122L24.2741 15.4002L24.0459 15.2055Z" fill="black"/>
<path d="M26.5139 14.2402L26.5466 14.1304H28.5116L28.473 14.2402C28.2949 14.2402 28.1588 14.2798 28.0649 14.3589C27.9709 14.4381 27.8882 14.6034 27.817 14.8546L27.0808 17.4312C27.0273 17.6133 27.0007 17.735 27.0007 17.7963C27.0007 17.8675 27.0284 17.9229 27.0837 17.9625C27.155 18.014 27.2896 18.0417 27.4874 18.0456L27.4577 18.1554H25.46L25.4927 18.0456C25.6925 18.0456 25.839 18.0075 25.932 17.9313C26.025 17.8551 26.1091 17.6884 26.1843 17.4311L26.9264 14.8546C26.9719 14.6962 26.9947 14.5766 26.9947 14.4954C26.9947 14.4222 26.967 14.3648 26.9116 14.3232C26.8562 14.2817 26.7236 14.2541 26.5139 14.2402Z" fill="white" stroke="black" stroke-width="0.3"/>
<path fill-rule="evenodd" clip-rule="evenodd" d="M29.4288 17.4104L29.785 16.1904C29.8305 16.1944 29.8642 16.1964 29.8859 16.1964L29.9838 16.1904L30.5538 18.1554H31.8064V18.0456C31.6382 18.0396 31.518 18.003 31.4458 17.9358C31.3735 17.8685 31.2889 17.6716 31.192 17.3451L30.8299 16.1251C31.192 16.0242 31.4443 15.9045 31.5868 15.7659C31.8124 15.5444 31.9252 15.296 31.9252 15.0209C31.9252 14.7596 31.8283 14.5459 31.6343 14.3797C31.4404 14.2135 31.1049 14.1304 30.6281 14.1304H28.9598L28.9301 14.2402C29.1182 14.2541 29.2379 14.2817 29.2893 14.3233C29.3407 14.3649 29.3665 14.4253 29.3665 14.5044C29.3665 14.5875 29.3457 14.7014 29.3042 14.8458L28.5562 17.4282C28.4809 17.6895 28.3983 17.8577 28.3083 17.9329C28.2183 18.0081 28.0763 18.0457 27.8823 18.0457L27.8467 18.1555H29.785L29.8265 18.0457C29.6326 18.0417 29.505 18.0171 29.4436 17.9715C29.3823 17.9259 29.3516 17.8656 29.3516 17.7904C29.3516 17.7092 29.3774 17.5826 29.4288 17.4104ZM30.0017 16.0182C29.9542 16.0182 29.8958 16.0163 29.8265 16.0123L30.3134 14.3648C30.3667 14.3628 30.4133 14.3618 30.4529 14.3618C30.6151 14.3618 30.7458 14.4113 30.8447 14.5102C30.9437 14.6093 30.9931 14.7537 30.9931 14.9436C30.9931 15.2642 30.9001 15.5235 30.7141 15.7213C30.528 15.9192 30.2906 16.0182 30.0017 16.0182Z" fill="white"/>
<path d="M29.785 16.1904L29.798 16.041L29.6755 16.0303L29.641 16.1484L29.785 16.1904ZM29.4288 17.4104L29.5725 17.4533L29.5728 17.4525L29.4288 17.4104ZM29.8859 16.1964V16.3466L29.8949 16.3461L29.8859 16.1964ZM29.9838 16.1904L30.1279 16.1487L30.0945 16.0335L29.9748 16.0407L29.9838 16.1904ZM30.5538 18.1554L30.4097 18.1972L30.4411 18.3054H30.5538V18.1554ZM31.8064 18.1554V18.3054H31.9564V18.1554H31.8064ZM31.8064 18.0456H31.9564V17.9009L31.8117 17.8957L31.8064 18.0456ZM31.4458 17.9358L31.5481 17.826L31.5479 17.8259L31.4458 17.9358ZM31.192 17.3451L31.0482 17.3877L31.0482 17.3878L31.192 17.3451ZM30.8299 16.1251L30.7896 15.9806L30.6426 16.0215L30.6861 16.1678L30.8299 16.1251ZM31.5868 15.7659L31.6914 15.8735L31.6919 15.8729L31.5868 15.7659ZM31.6343 14.3797L31.5367 14.4936L31.6343 14.3797ZM28.9598 14.1304V13.9804H28.845L28.815 14.0912L28.9598 14.1304ZM28.9301 14.2402L28.7853 14.201L28.7379 14.3765L28.9191 14.3898L28.9301 14.2402ZM29.3042 14.8458L29.4482 14.8875L29.4483 14.8872L29.3042 14.8458ZM28.5562 17.4282L28.4121 17.3865L28.412 17.3867L28.5562 17.4282ZM28.3083 17.9329L28.4045 18.048H28.4045L28.3083 17.9329ZM27.8823 18.0457V17.8957H27.7733L27.7396 17.9994L27.8823 18.0457ZM27.8467 18.1555L27.704 18.1093L27.6403 18.3055H27.8467V18.1555ZM29.785 18.1555V18.3055H29.8886L29.9253 18.2086L29.785 18.1555ZM29.8265 18.0457L29.9668 18.0987L30.042 17.9001L29.8296 17.8957L29.8265 18.0457ZM29.8265 16.0123L29.6827 15.9698L29.6291 16.1512L29.818 16.162L29.8265 16.0123ZM30.3134 14.3648L30.3079 14.2149L30.2001 14.2188L30.1695 14.3222L30.3134 14.3648ZM30.8447 14.5102L30.9508 14.4042L30.9508 14.4042L30.8447 14.5102ZM30.7141 15.7213L30.8234 15.8241L30.8234 15.8241L30.7141 15.7213ZM29.641 16.1484L29.2848 17.3684L29.5728 17.4525L29.929 16.2325L29.641 16.1484ZM29.8859 16.0464C29.871 16.0464 29.8427 16.0449 29.798 16.041L29.772 16.3399C29.8184 16.3439 29.8574 16.3464 29.8859 16.3464V16.0464ZM29.9748 16.0407L29.8769 16.0466L29.8949 16.3461L29.9929 16.3402L29.9748 16.0407ZM30.6978 18.1137L30.1279 16.1487L29.8398 16.2322L30.4097 18.1972L30.6978 18.1137ZM31.8064 18.0054H30.5538V18.3054H31.8064V18.0054ZM31.6564 18.0456V18.1554H31.9564V18.0456H31.6564ZM31.3435 18.0455C31.4553 18.1497 31.6202 18.1891 31.8011 18.1955L31.8117 17.8957C31.6562 17.8902 31.5806 17.8564 31.5481 17.826L31.3435 18.0455ZM31.0482 17.3878C31.0975 17.5538 31.1448 17.6908 31.1903 17.7969C31.2334 17.8972 31.2827 17.989 31.3436 18.0456L31.5479 17.8259C31.5366 17.8153 31.5074 17.775 31.466 17.6784C31.4269 17.5875 31.3834 17.4629 31.3358 17.3024L31.0482 17.3878ZM30.6861 16.1678L31.0482 17.3877L31.3358 17.3024L30.9737 16.0824L30.6861 16.1678ZM31.4822 15.6584C31.3675 15.7699 31.1455 15.8814 30.7896 15.9806L30.8701 16.2696C31.2385 16.167 31.521 16.0391 31.6914 15.8735L31.4822 15.6584ZM31.7752 15.0209C31.7752 15.2496 31.6832 15.461 31.4817 15.6589L31.6919 15.8729C31.9416 15.6278 32.0752 15.3423 32.0752 15.0209H31.7752ZM31.5367 14.4936C31.6965 14.6306 31.7752 14.8023 31.7752 15.0209H32.0752C32.0752 14.717 31.96 14.4613 31.732 14.2658L31.5367 14.4936ZM30.6281 14.2804C31.0964 14.2804 31.3852 14.3638 31.5367 14.4936L31.732 14.2658C31.4955 14.0632 31.1134 13.9804 30.6281 13.9804V14.2804ZM28.9598 14.2804H30.6281V13.9804H28.9598V14.2804ZM29.0749 14.2794L29.1046 14.1695L28.815 14.0912L28.7853 14.201L29.0749 14.2794ZM29.3837 14.2067C29.3309 14.164 29.2608 14.1405 29.1947 14.1252C29.1245 14.109 29.0392 14.0978 28.9411 14.0906L28.9191 14.3898C29.0091 14.3964 29.0776 14.406 29.1272 14.4175C29.1808 14.4299 29.1963 14.441 29.1949 14.4399L29.3837 14.2067ZM29.5165 14.5044C29.5165 14.3898 29.4772 14.2824 29.3837 14.2067L29.1949 14.4399C29.2042 14.4474 29.2165 14.4608 29.2165 14.5044H29.5165ZM29.4483 14.8872C29.4911 14.7384 29.5165 14.6085 29.5165 14.5044H29.2165C29.2165 14.5665 29.2002 14.6644 29.16 14.8043L29.4483 14.8872ZM28.7002 17.47L29.4482 14.8875L29.1601 14.804L28.4121 17.3865L28.7002 17.47ZM28.4045 18.048C28.4723 17.9913 28.5267 17.9094 28.5724 17.8164C28.6189 17.7218 28.6612 17.6054 28.7003 17.4697L28.412 17.3867C28.3759 17.5123 28.3393 17.6106 28.3031 17.6842C28.2662 17.7594 28.2342 17.7993 28.2121 17.8178L28.4045 18.048ZM27.8823 18.1957C28.0901 18.1957 28.2747 18.1564 28.4045 18.048L28.2121 17.8178C28.1618 17.8598 28.0624 17.8957 27.8823 17.8957V18.1957ZM27.9894 18.2018L28.025 18.092L27.7396 17.9994L27.704 18.1093L27.9894 18.2018ZM29.785 18.0055H27.8467V18.3055H29.785V18.0055ZM29.6862 17.9926L29.6447 18.1025L29.9253 18.2086L29.9668 18.0987L29.6862 17.9926ZM29.3542 18.0919C29.4114 18.1344 29.4844 18.1574 29.5569 18.1714C29.6321 18.186 29.7217 18.1936 29.8235 18.1957L29.8296 17.8957C29.7374 17.8938 29.6663 17.8871 29.6139 17.8769C29.5587 17.8662 29.5373 17.8542 29.5331 17.8511L29.3542 18.0919ZM29.2016 17.7904C29.2016 17.914 29.2555 18.0186 29.3542 18.0919L29.5331 17.8511C29.509 17.8332 29.5016 17.8172 29.5016 17.7904H29.2016ZM29.2851 17.3675C29.2333 17.5408 29.2016 17.6856 29.2016 17.7904H29.5016C29.5016 17.7328 29.5214 17.6243 29.5725 17.4533L29.2851 17.3675ZM29.818 16.162C29.889 16.1661 29.9504 16.1682 30.0017 16.1682V15.8682C29.958 15.8682 29.9026 15.8664 29.8351 15.8625L29.818 16.162ZM30.1695 14.3222L29.6827 15.9698L29.9704 16.0548L30.4572 14.4073L30.1695 14.3222ZM30.4529 14.2118C30.4109 14.2118 30.3624 14.2129 30.3079 14.2149L30.3188 14.5147C30.3711 14.5128 30.4157 14.5118 30.4529 14.5118V14.2118ZM30.9508 14.4042C30.8192 14.2726 30.6481 14.2118 30.4529 14.2118V14.5118C30.5822 14.5118 30.6723 14.55 30.7387 14.6163L30.9508 14.4042ZM31.1431 14.9436C31.1431 14.7284 31.0867 14.5402 30.9508 14.4042L30.7386 14.6163C30.8006 14.6783 30.8431 14.7789 30.8431 14.9436H31.1431ZM30.8234 15.8241C31.0402 15.5935 31.1431 15.2951 31.1431 14.9436H30.8431C30.8431 15.2334 30.76 15.4535 30.6048 15.6186L30.8234 15.8241ZM30.0017 16.1682C30.329 16.1682 30.607 16.0542 30.8234 15.8241L30.6048 15.6186C30.449 15.7843 30.2521 15.8682 30.0017 15.8682V16.1682Z" fill="black"/>
</g>
<defs>
<clipPath id="clip0">
<rect width="32" height="32" fill="white"/>
</clipPath>
</defs>
</svg>
