<svg width="32" height="32" viewBox="0 0 32 32" fill="none" xmlns="http://www.w3.org/2000/svg">
<path fill-rule="evenodd" clip-rule="evenodd" d="M17.7257 18.1496C16.7084 17.3329 15.9151 16.3996 16.2017 14.9048C15.8282 14.3231 15.7409 13.7413 15.7837 13.1595C14.8182 12.3164 14.7889 11.3104 15.0218 10.2588C15.6974 11.7518 16.9409 12.5467 18.0699 13.1595C21.1528 14.8326 24.1753 16.0161 24.6332 17.9283C27.6173 17.9561 29.3668 18.293 29.9922 18.9115C30.8625 19.0536 31.6204 19.2791 31.59 20.0915C29.318 19.9941 26.421 20.2676 23.4534 20.5831C21.29 22.0876 16.906 21.7625 13.2763 20.78C10.2776 20.5969 8.32527 20.0501 6.59009 19.4279C3.87088 19.1391 2.27012 18.24 0.764221 17.2892C2.79967 17.8767 3.1675 18.2319 8.19831 18.3655C10.9892 18.4397 14.169 18.4183 17.7257 18.1496Z" fill="#010100"/>
<path fill-rule="evenodd" clip-rule="evenodd" d="M24.6946 18.1742C24.8514 18.8911 24.6487 19.608 23.9203 20.325C26.5343 19.9772 30.2707 19.7057 31.4916 19.9934C31.3484 19.2454 30.3035 19.0159 28.8491 19.0223C28.8363 18.9741 28.8232 18.9259 28.8104 18.8779C29.0364 18.8779 29.2622 18.8779 29.4882 18.8779C29.2349 18.4317 27.8652 18.1613 24.6946 18.1742ZM18.0366 18.4082C15.0015 18.5765 12.1355 18.7332 9.61739 18.7108C6.41306 18.6823 3.68877 18.3928 1.86346 17.7841C3.57079 18.6777 5.707 19.1375 8.0809 19.357C11.2929 19.654 14.5446 19.6517 17.5159 19.2357C16.612 19.4743 15.6594 19.7982 11.8784 19.7345C10.6396 19.7136 8.77976 19.6476 7.01139 19.4617C9.04901 20.0517 11.6797 20.5231 15.0011 20.4474C16.2267 20.4196 17.5638 20.2437 18.2014 19.863C18.6817 19.5765 19.0853 18.9977 18.0366 18.4082ZM16.2712 14.9618C16.2733 15.7587 16.5758 16.5089 17.4896 17.432C18.0525 18.0006 18.4111 18.1446 18.8712 18.5932C19.2837 18.9955 19.197 19.8588 18.518 20.1984C17.2622 20.8268 15.5799 20.8544 14.075 20.8274C16.2362 21.1962 18.5034 21.4843 20.923 21.1309C22.9821 20.8304 24.5294 19.7723 24.1856 18.0011C24.0457 17.2799 22.3213 15.9074 20.961 15.2126C19.3467 14.388 18.0507 13.6964 17.0179 12.9955C16.0024 12.3063 15.2378 11.6095 15.0805 10.5841C15.014 11.8816 15.6306 12.5775 16.6724 13.3916C17.752 14.2349 18.9507 15.0338 20.2401 15.7058C22.6347 16.954 23.4844 18.2438 22.2128 19.7273C22.8965 18.2999 22.0661 17.4608 20.904 16.6804C19.5324 15.7593 17.1975 14.5352 15.8204 13.2018C16.0328 14.3495 16.9015 15.1961 18.1915 16.161C19.0865 16.8306 20.0393 17.4262 20.739 18.1907C21.42 18.9347 20.8745 19.964 20.3349 20.2014C20.9707 19.2249 20.6922 18.4941 19.9365 17.9631C18.4837 16.9423 17.1989 16.0272 16.2712 14.9618Z" fill="#FFC211"/>
</svg>
