<svg width="32" height="32" viewBox="0 0 32 32" fill="none" xmlns="http://www.w3.org/2000/svg">
<path fill-rule="evenodd" clip-rule="evenodd" d="M13.6831 17.8065C14.2769 16.2112 16.0515 14.9177 17.6462 14.9177C19.2415 14.9177 20.0528 16.2112 19.4588 17.8065C18.864 19.4009 17.0895 20.6934 15.4948 20.6934C13.8998 20.6934 13.0889 19.4009 13.6831 17.8065ZM13.9638 25.7929C14.3058 25.1381 14.6703 24.4773 15.0525 23.8446C16.1591 23.7414 17.2873 23.3507 18.3354 22.7575C18.7248 23.0834 19.1068 23.4384 19.474 23.807C17.7541 24.9364 15.8308 25.6607 13.9638 25.7929ZM8.93763 23.887C9.69717 23.4491 10.4727 23.0208 11.2198 22.6417C11.7755 23.2118 12.5078 23.5976 13.3694 23.7703C13.2736 24.4261 13.1415 25.1177 12.9912 25.8055C11.239 25.7226 9.81589 25.0521 8.93763 23.887ZM8.39775 18.3794C9.02593 18.4835 9.64779 18.606 10.2286 18.7498C10.0486 19.7067 10.116 20.6142 10.4235 21.3984C9.82044 22.008 9.16796 22.6206 8.50976 23.2108C7.83595 21.8808 7.7998 20.1986 8.39775 18.3794ZM12.5821 12.596C12.7614 13.0909 12.9236 13.6001 13.0522 14.1094C12.1159 14.9398 11.3273 15.9352 10.8052 17.0213C10.1393 17.1631 9.45696 17.2807 8.78651 17.3763C9.6067 15.5512 10.9599 13.8952 12.5821 12.596ZM17.327 11.8841C16.3956 12.0761 15.4671 12.4562 14.5976 12.9749C14.2084 12.6557 13.8301 12.3044 13.4698 11.94C14.9725 10.9155 16.6399 10.1998 18.2973 9.92309C17.9613 10.6291 17.6365 11.2861 17.327 11.8841ZM24.232 11.7606C23.4815 12.1995 22.7119 12.6278 21.9605 13.0077C21.4652 12.485 20.8205 12.1184 20.0702 11.9169C20.2051 11.2832 20.3685 10.5858 20.5605 9.83045C22.1442 9.99362 23.4233 10.6658 24.232 11.7606ZM24.694 17.385C24.074 17.2886 23.4572 17.1699 22.8773 17.0263C23.1046 15.9767 23.0383 14.9795 22.686 14.1345C23.2891 13.5278 23.9408 12.921 24.5945 12.3394C25.3204 13.7157 25.3558 15.4771 24.694 17.385ZM19.6502 19.3614C20.1654 19.1597 20.726 18.9823 21.3123 18.83C20.9015 19.5255 20.3752 20.1717 19.7721 20.7388C19.689 20.2679 19.6485 19.806 19.6502 19.3614ZM16.6154 21.5942C16.9619 21.7639 17.3137 21.977 17.6677 22.2326C16.9993 22.5779 16.3031 22.8326 15.6062 22.9687C15.9345 22.4738 16.2727 22.011 16.6154 21.5942ZM13.53 21.6068C13.5433 22.0187 13.5186 22.4835 13.468 22.9803C12.8867 22.8539 12.3815 22.6147 11.9762 22.2694C12.5263 22.009 13.0508 21.7822 13.53 21.6068ZM13.3546 16.2863C12.8811 16.4706 12.3693 16.6335 11.8328 16.7754C12.214 16.132 12.6931 15.533 13.2401 14.9977C13.3151 15.4394 13.3542 15.8706 13.3546 16.2863ZM16.1447 13.9926C15.8525 13.848 15.5604 13.6831 15.2716 13.4844C15.7761 13.2066 16.2992 12.9858 16.8282 12.8246C16.5864 13.2615 16.3594 13.6483 16.1447 13.9926ZM19.7141 14.0013C19.7543 13.6242 19.8211 13.1863 19.9142 12.6934C20.4124 12.8342 20.8469 13.0648 21.2015 13.3763C20.6834 13.6183 20.1836 13.8324 19.7141 14.0013ZM22.1185 16.8139C21.6239 16.6596 21.176 16.481 20.7978 16.2756C21.1598 15.7895 21.5962 15.2792 22.0812 14.7622C22.2653 15.3748 22.2763 16.0702 22.1185 16.8139ZM10.9879 18.9582C11.4294 19.0933 11.8324 19.2436 12.1769 19.4116C11.8492 19.8446 11.4638 20.2961 11.0375 20.7572C10.8905 20.212 10.8706 19.6053 10.9879 18.9582ZM20.4361 23.1125C20.2567 22.6226 20.0969 22.1181 19.9651 21.6125C20.957 20.7608 21.7908 19.7249 22.3368 18.5906C23.0033 18.4517 23.6832 18.3369 24.3509 18.2443C23.5094 20.1116 22.11 21.8026 20.4361 23.1125ZM20.8963 24.2535C23.0456 22.6475 24.8169 20.4733 25.7252 18.0774C28.1192 17.8265 30.0577 17.8237 30.0577 17.8237C30.0577 17.8237 28.1131 17.8073 25.8998 17.5487C26.6149 15.3197 26.4772 13.1784 25.513 11.5366C27.6923 9.67498 29.6557 8.24064 29.6557 8.24064C29.6557 8.24064 27.684 9.65859 25.2699 11.1372C24.2907 9.75202 22.7504 8.89746 20.8657 8.66022C21.4305 6.5572 22.1533 4.12963 22.9426 1.60842L22.4294 0.439575C21.2296 3.36574 20.0171 6.20854 18.9018 8.63039C16.7691 8.82615 14.581 9.71844 12.6567 11.0621C11.3804 9.61039 10.4921 8.24084 10.4921 8.24084C10.4921 8.24084 11.349 9.63469 12.1259 11.4499C10.0271 13.0502 8.30076 15.1913 7.40965 17.5478C4.96292 17.814 2.95749 17.8235 2.95749 17.8235C2.95749 17.8235 4.95324 17.9035 7.1969 18.2006C6.54028 20.3526 6.68053 22.4157 7.59258 24.014C5.37578 25.9199 3.35455 27.4034 3.35455 27.4034C3.35455 27.4034 5.4224 25.9817 7.89304 24.5002C8.94928 25.976 10.643 26.843 12.7156 26.9926C12.1356 29.348 11.461 31.3736 11.461 31.3736C11.461 31.3736 12.2099 29.3731 13.3467 27.0236C13.3513 27.0236 13.3564 27.0246 13.3615 27.0246C15.6951 27.0246 18.1519 26.1295 20.299 24.6758C21.584 26.0918 22.5171 27.4036 22.5171 27.4036C22.5171 27.4036 21.6711 26.0418 20.8963 24.2535Z" fill="#0062AC"/>
<path fill-rule="evenodd" clip-rule="evenodd" d="M15.0047 15.4287C15.1943 15.2908 15.4144 15.0439 15.6577 14.716C13.8224 13.4737 12.1627 10.9041 12.1627 10.9041C12.1627 10.9041 13.821 13.5951 14.1671 15.9275C14.4731 15.774 14.757 15.6091 15.0047 15.4287Z" fill="#8BA9D4"/>
<path fill-rule="evenodd" clip-rule="evenodd" d="M19.7952 15.4288C19.9066 15.6062 20.0651 15.7684 20.2551 15.9197C22.3403 13.5796 26.0017 10.9039 26.0017 10.9039C26.0017 10.9039 22.4322 13.4706 19.6708 14.7139C19.672 15.042 19.7097 15.2919 19.7952 15.4288Z" fill="#8BA9D4"/>
<path fill-rule="evenodd" clip-rule="evenodd" d="M18.0107 20.2187C17.7456 20.4116 17.4813 20.6499 17.2185 20.9189C19.0124 22.1583 20.847 24.7415 20.847 24.7415C20.847 24.7415 19.1793 22.0639 18.8372 19.723C18.5357 19.8763 18.256 20.0403 18.0107 20.2187Z" fill="#8BA9D4"/>
<path fill-rule="evenodd" clip-rule="evenodd" d="M13.2199 20.2187C13.1115 20.047 12.9449 19.8878 12.7373 19.7393C10.6493 22.0667 7.00885 24.7414 7.00885 24.7414C7.00885 24.7414 10.7489 22.1708 13.4641 20.9275C13.4123 20.6432 13.3345 20.402 13.2199 20.2187Z" fill="#8BA9D4"/>
</svg>
