<svg width="32" height="32" viewBox="0 0 32 32" fill="none" xmlns="http://www.w3.org/2000/svg">
<g clip-path="url(#clip0)">
<path d="M2.60868 15.6002L2.45432 15.7546H29.7772L31.0121 12.8216H8.9377L9.24644 12.3585L9.70954 11.8954L10.1726 11.278L10.9445 10.3518L11.8707 9.42558L12.9512 8.19065L15.1124 6.02952L15.7298 5.56642L16.5017 4.94895L18.0453 4.02276L19.8977 3.71402L20.3608 3.86839H20.9783L21.4414 4.17712L21.7501 4.48586L22.2132 4.79459L22.6763 6.18389L22.3676 7.11008L22.0588 7.57318L21.7501 7.88192L21.4414 8.03628V7.41882L21.287 6.64699L20.6695 6.02952L19.7434 5.72079L18.6628 5.87515L18.0453 6.49262L17.5822 7.26445V8.49938L17.7366 9.11685L18.0453 9.57995L18.5084 10.043L18.9715 10.3518L19.589 10.5061L20.0521 10.6605L20.8239 10.8149L21.9045 10.6605L22.8307 10.3518L23.7569 9.88868L24.5287 9.27121L24.9918 8.49938L25.3005 7.72755L25.6093 5.87515L25.4549 4.94895L25.1462 4.17712L24.6831 3.25092L24.0656 2.47909L23.2938 1.86163L22.2132 1.39853L21.1326 1.0898L19.8977 0.935429L17.4279 1.24416L16.3473 1.70726L15.2667 2.32473L14.3405 2.94219L12.4881 4.48586L11.7163 5.10332L9.70954 7.41882L7.70277 9.42558L6.15911 11.278L4.76981 12.8216L3.84361 14.0566L3.07178 14.9828L2.60868 15.6002Z" fill="black"/>
<path d="M1.99121 17.4526V17.2983H29.1597L27.9248 20.0769H6.31347L6.46784 20.2312L6.6222 21.1574L7.0853 22.5467L8.0115 24.8622L8.62897 25.9428L9.24643 26.7146L10.4814 27.9495L11.7163 28.567L12.3338 28.7214H12.9512L14.0318 28.567L14.8036 27.9495L15.2667 27.3321L15.4211 26.7146L15.2667 25.9428L15.1124 25.4797L14.8036 25.3253V25.4797L14.4949 25.9428L13.8774 26.4059L12.9512 26.7146L12.025 26.5602L11.4076 26.0971L11.0988 25.4797L10.7901 24.5535V24.3991L10.9445 24.0904L11.0988 23.6273L11.7163 22.7011L12.3338 22.5467L12.9512 22.238L13.8774 22.0836L14.6493 22.238L16.1929 22.8555L16.8104 23.4729L17.2735 24.0904L17.5822 24.8622L17.8909 25.7884L18.0453 26.7146L17.8909 27.4864L17.5822 28.4126L16.656 29.9563L15.8842 30.4194L14.958 31.0369L14.0318 31.3456H11.7163L10.6357 31.0369L9.4008 30.5738L8.4746 29.9563L6.6222 28.1039L6.00474 27.0233L5.23291 25.7884L4.61544 24.0904L3.99797 22.7011L3.38051 21.1574L2.91741 19.9225L2.45431 18.8419L2.29994 17.9157L1.99121 17.4526Z" fill="black"/>
</g>
<defs>
<clipPath id="clip0">
<rect width="32" height="32" fill="white"/>
</clipPath>
</defs>
</svg>
