<svg width="32" height="32" viewBox="0 0 32 32" fill="none" xmlns="http://www.w3.org/2000/svg">
<path fill-rule="evenodd" clip-rule="evenodd" d="M13.9163 31.1106C11.8725 32.9242 5.76758 30.3156 5.37008 29.3219C4.97258 28.3281 2.37333 26.073 1.29571 23.4587C0.218087 20.8445 -0.0356112 18.3351 0.00383198 16.3037C0.0432752 14.2724 0.103207 14.2169 0.898207 12.3287C1.69321 10.4406 10.5114 20.1672 12.4257 23.0612C14.34 25.9553 15.9602 29.2971 13.9163 31.1106Z" fill="#B3D47B"/>
<path fill-rule="evenodd" clip-rule="evenodd" d="M15.5063 2.9875C15.277 1.63364 16.1026 1 18.2888 1C19.306 1 22.3082 2.06233 24.8476 3.58375C27.7664 5.33252 30.2 7.63527 30.4126 8.75125C30.8101 10.8381 31.685 13.8255 31.7045 16.105C31.7239 18.3845 30.8101 19.5831 30.512 20.5769C30.2138 21.5706 26.1281 25.0533 21.4688 18.9869C16.8096 12.9205 15.7357 4.34136 15.5063 2.9875Z" fill="#B3D47B"/>
<path fill-rule="evenodd" clip-rule="evenodd" d="M3.18383 23.9556C2.38883 22.9619 1.82592 22.2889 1.29571 20.875C0.765493 19.4611 0.954861 19.4034 0.699455 17.7944C0.444049 16.1853 0.242517 15.2031 0.301955 12.8256C0.319008 12.1435 0.59979 10.8227 1.09696 9.94375C2.33265 7.75924 4.63479 5.79369 5.56883 4.77625C6.87867 3.34946 10.9351 1.49688 14.2145 1.29813C17.4938 1.09938 21.1553 2.77794 22.4626 3.28563C23.7699 3.79331 23.7545 6.1675 24.4501 6.1675C25.1457 6.1675 19.7336 13.3581 14.9101 17.5956C10.0865 21.8331 3.97883 24.9494 3.18383 23.9556Z" fill="#47A8C3"/>
<path fill-rule="evenodd" clip-rule="evenodd" d="M21.6676 4.97504C21.6676 4.97504 23.4312 3.74076 25.5432 5.47191C27.6552 7.20307 29.2309 9.19434 29.4188 9.44691C29.6068 9.69949 28.922 9.34754 28.922 9.64566C28.922 9.72788 29.165 9.907 29.4188 10.4407C30.0855 11.8421 31.235 14.5663 31.307 16.0057C31.3435 16.7355 31.0476 18.0866 30.9095 19.4838C30.7997 20.5944 30.8699 21.7439 30.7107 22.5644C30.561 23.3362 30.3015 23.6985 30.2138 23.7569C29.9157 23.9557 30.0151 23.3594 29.9157 23.3594C29.8163 23.3594 27.332 28.03 26.4376 28.6263C25.5432 29.2225 21.0713 31.4088 19.5807 31.7069C18.0901 32.005 11.5313 31.8063 9.54384 30.7132C7.55634 29.62 6.76134 28.03 6.56259 27.7319C6.36384 27.4338 10.5388 19.1212 14.4132 13.8194C18.2876 8.51758 21.6676 4.97504 21.6676 4.97504Z" fill="#2874AE"/>
<path fill-rule="evenodd" clip-rule="evenodd" d="M15.5063 31.4088C16.1026 31.5081 18.8054 29.5592 20.3757 28.7256C21.946 27.892 22.8933 27.4889 23.357 27.3344C23.8207 27.1798 23.9532 27.5331 24.5495 27.3344C25.1457 27.1356 24.9937 26.7604 25.6426 26.2413C26.2915 25.7221 26.2103 26.0853 27.0338 25.3469C27.5649 24.8707 28.6238 23.4588 28.922 23.3594C29.2201 23.26 29.0106 22.5415 29.1207 22.2663C29.2601 21.9178 29.7546 21.4974 29.8163 20.9744C29.8919 20.3342 29.5182 19.5785 29.5182 19.0863C29.5182 18.8365 29.8968 18.0983 29.9157 17.5956C29.9233 17.395 29.5253 17.3047 29.5182 17.0988C29.5011 16.6054 29.9448 15.4989 29.717 14.7138C29.4248 13.7071 28.5456 13.0372 28.5245 12.8256C28.4868 12.4491 29.1207 12.4281 29.1207 12.0306C29.1207 11.8854 28.4784 11.2327 28.0276 10.54C27.9052 10.352 28.0977 9.82751 28.0276 9.64563C27.9368 9.41003 27.5878 9.51545 27.4313 9.24813C26.9351 8.40038 26.7246 7.60446 26.3382 7.16125C25.8155 6.56172 24.9777 6.17336 24.4501 5.67063C24.0198 5.2607 23.8862 4.70349 23.5557 4.47813C23.0072 4.10415 22.123 4.12944 21.767 3.88188C21.6453 3.7973 22.2802 3.47718 22.0651 3.385C21.3695 3.08688 20.5676 3.1488 19.6801 3.08688C18.7925 3.02496 18.2449 3.20549 17.9907 3.08688C17.7365 2.96827 18.2888 2.1925 18.0901 2.1925C17.8913 2.1925 16.9381 2.52839 16.3013 2.59C15.6646 2.65162 15.9744 2.33986 15.0095 2.49063C14.7186 2.53607 13.8954 2.87321 13.1213 3.08688C12.7219 3.19714 12.4741 3.03875 12.0282 3.28563C11.4849 3.58643 10.8229 3.94665 10.2395 4.37875C9.67478 4.797 9.18721 5.2874 8.74884 5.57125C8.34212 5.83461 7.99993 5.75544 7.85446 5.86938C6.42827 6.98645 4.1483 9.06742 3.48196 10.0431C2.59872 11.3365 2.75526 12.0727 2.28946 14.0181C1.82366 15.9635 1.10142 15.4789 1.29571 17.8938C1.49001 20.3086 2.56512 21.2578 2.98509 22.6638C3.40506 24.0697 3.07906 24.5043 3.68071 25.5456C4.1362 26.334 4.7393 26.5931 5.56884 27.235C5.83503 27.441 6.01528 27.8702 6.36384 28.1294C7.79862 29.1963 8.53354 29.5074 9.44446 30.0175C10.3554 30.5276 10.4036 30.9086 12.5251 31.1106C14.6465 31.3127 15.407 30.7131 15.7051 30.6138C16.0032 30.5144 14.9101 31.3094 15.5063 31.4088Z" fill="#0C436A"/>
<path fill-rule="evenodd" clip-rule="evenodd" d="M26.2388 24.2537C26.0401 24.2537 26.8477 23.222 26.9345 22.9619C27.0212 22.7017 26.7357 22.5644 26.9345 22.1669C27.1332 21.7694 27.6715 20.8357 27.8288 20.875C27.9862 20.9143 27.6301 22.2662 27.5307 22.5644C27.4313 22.8625 26.4376 24.2537 26.2388 24.2537Z" fill="#8BA5C0"/>
<path fill-rule="evenodd" clip-rule="evenodd" d="M22.1645 6.76375C22.0612 6.83262 23.0416 7.2802 24.152 8.45313C24.7963 9.13384 25.4676 10.3227 26.0401 11.1363C27.9282 13.8194 27.1376 16.038 27.4313 16.3038C27.8011 16.6383 27.9438 14.6044 27.5307 12.925C27.2184 11.6555 26.3608 10.6866 26.3382 10.54C26.3186 10.4122 26.4951 10.0902 26.3382 9.84438C26.0768 9.43477 25.4273 9.07049 25.3445 8.95C25.2859 8.86484 25.4438 8.05563 24.4501 7.45938C23.613 6.95713 22.3309 6.65279 22.1645 6.76375Z" fill="#8BA5C0"/>
<path fill-rule="evenodd" clip-rule="evenodd" d="M7.25821 8.55248C7.20926 8.40564 8.35134 7.55873 8.45071 7.65811C8.55009 7.75748 7.92321 8.52577 7.75509 8.65186C7.58697 8.77795 7.30716 8.69933 7.25821 8.55248Z" fill="#8BA5C0"/>
<path fill-rule="evenodd" clip-rule="evenodd" d="M6.56258 9.64567C6.36383 9.74504 3.58133 12.2294 3.28321 13.72C2.98508 15.2107 3.87467 19.6126 4.17758 19.6825C4.48049 19.7524 4.04776 16.1777 4.57508 14.0182C5.10241 11.8586 6.03793 11.6346 6.26446 11.1363C6.35557 10.9358 6.29191 10.5182 6.36383 10.2419C6.47071 9.83127 6.68139 9.58626 6.56258 9.64567Z" fill="#8BA5C0"/>
<path fill-rule="evenodd" clip-rule="evenodd" d="M10.9351 12.3287C11.0345 12.9249 12.9186 12.3577 13.5188 12.6268C14.1191 12.8959 13.6182 13.8193 14.0157 13.5212C14.4132 13.2231 14.9897 12.2454 17.3945 12.4281C19.7992 12.6107 20.7398 14.5464 21.767 13.9187C22.7941 13.291 20.972 9.94369 20.4751 10.1424C19.9782 10.3412 20.8726 11.5337 20.5745 11.4343C20.4495 11.3926 20.0484 11.2591 19.6801 10.9374C19.17 10.4919 18.6617 9.82063 18.4876 9.74494C18.1878 9.61461 18.587 10.5399 18.2888 10.5399C18.1535 10.5399 17.9094 10.2791 17.6926 9.94369C17.4316 9.54011 17.1338 9.04932 16.1026 9.04932C14.2145 9.04932 10.8357 11.7324 10.9351 12.3287Z" fill="white"/>
<path fill-rule="evenodd" clip-rule="evenodd" d="M12.9226 14.8131C12.8232 14.7137 12.4611 14.3279 11.7301 14.4156C10.999 14.5033 10.2395 14.7137 10.4382 15.1112C10.637 15.5087 11.2988 14.9761 11.8295 14.9125C12.3601 14.8488 13.022 14.9125 12.9226 14.8131Z" fill="white"/>
<path fill-rule="evenodd" clip-rule="evenodd" d="M17.4938 14.7137C17.4938 14.5559 18.1895 14.1175 18.7857 14.3162C19.0936 14.4189 19.4705 15.0421 19.9782 15.4094C20.4538 15.7534 21.0713 15.8439 21.0713 15.9062C21.0713 15.976 20.3609 16.0987 19.7795 15.8069C19.2866 15.5595 18.9225 14.9043 18.7857 14.8131C18.4876 14.6144 17.4938 14.8715 17.4938 14.7137Z" fill="white"/>
<path fill-rule="evenodd" clip-rule="evenodd" d="M20.7732 15.31C20.7732 15.225 21.2407 15.2433 21.4688 15.2107C21.697 15.1781 22.0651 15.0043 22.0651 15.1113C22.0651 15.2182 21.7319 15.3718 21.4688 15.4094C21.2058 15.447 20.7732 15.395 20.7732 15.31Z" fill="white"/>
<path fill-rule="evenodd" clip-rule="evenodd" d="M8.45071 19.8813C8.05321 19.4838 8.88726 17.0591 9.14633 16.7013C9.4054 16.3435 10.298 16.9994 10.5376 16.9994C10.7772 16.9994 10.5857 16.5782 10.8357 16.4032C11.0857 16.2282 11.0497 16.4873 11.6307 16.3038C12.2117 16.1203 12.3527 15.7857 12.7238 15.7075C13.0949 15.6294 13.4195 16.105 13.7176 15.8069C14.0157 15.5088 14.0157 14.2169 14.4132 14.2169C14.8107 14.2169 15.2855 15.4106 15.5063 15.6082C15.7272 15.8058 16.1579 15.7834 16.3013 15.9063C16.4447 16.0292 16.1026 16.2044 16.7982 16.105C17.4938 16.0057 17.747 15.7131 18.7857 15.9063C19.8244 16.0995 20.3757 17.0988 20.6738 17.0988C20.972 17.0988 20.6738 16.7013 20.8726 16.7013C21.0713 16.7013 21.7253 17.1928 21.8663 17.0988C22.0074 17.0048 21.0368 16.333 21.2701 16.3038C21.5034 16.2746 22.6008 16.2508 22.6613 17.0988C22.7219 17.9468 21.9971 17.6674 21.6676 19.285C21.3381 20.9027 21.767 22.1669 21.6676 22.465C21.6015 22.6632 21.0635 23.0835 20.6738 23.4588C20.4771 23.6483 20.343 23.9223 20.2763 23.9557C20.0776 24.055 19.0202 23.9043 18.7857 24.055C18.5512 24.2058 19.2779 25.3237 18.1895 25.1482C17.101 24.9726 16.4003 24.655 16.0032 24.3532C15.6061 24.0514 15.9038 23.3594 15.6057 23.26C15.3076 23.1607 12.5935 23.0573 12.3263 22.9619C12.0592 22.8665 12.3263 22.465 12.7238 22.3657C12.9294 22.3143 14.3015 22.4844 15.6057 22.465C16.824 22.447 17.9019 22.1722 18.0901 22.2663C18.2888 22.3657 18.1895 23.26 18.3882 23.1607C18.587 23.0613 18.5635 21.0736 18.3882 20.5769C18.2129 20.0802 17.8436 20.3709 17.1957 19.7819C16.5478 19.1929 16.6988 18.2913 16.4007 18.3907C16.1026 18.49 16.7689 19.0857 16.1026 19.1857C15.4362 19.2856 15.0527 18.7323 14.3138 18.6888C13.575 18.6453 13.2207 19.1857 12.7238 18.9869C12.227 18.7882 12.6099 17.9343 12.227 17.9932C11.9357 18.038 11.8276 18.5828 11.6307 19.1857C11.5687 19.3755 11.529 19.7438 11.432 19.8813C11.2731 20.1063 10.4382 20.2788 10.3388 20.6763C10.1205 21.5497 10.1854 22.9222 10.2395 23.0613C10.3284 23.29 10.8592 22.3719 11.0345 22.8625C11.2097 23.3532 10.7363 24.2538 10.8357 24.6513C10.9351 25.0488 11.6055 25.2354 12.4257 25.4463C13.2459 25.6572 13.9496 25.1042 14.2145 25.3469C14.4793 25.5897 13.8043 26.1859 13.6182 26.5394C13.4321 26.8929 13.1213 27.5332 12.3263 26.9369C11.5313 26.3407 10.3388 25.3469 9.64321 24.1544C8.94758 22.9619 9.74258 19.6825 9.44446 19.285C9.14633 18.8875 8.84821 20.2788 8.45071 19.8813Z" fill="white"/>
<path fill-rule="evenodd" clip-rule="evenodd" d="M10.8357 21.7694C10.6819 21.6815 10.7612 21.1483 11.0345 20.875C11.3077 20.6017 11.672 20.3875 11.8295 20.4775C11.987 20.5675 12.06 20.9426 11.7301 21.2725C11.4001 21.6025 10.9896 21.8573 10.8357 21.7694Z" fill="white"/>
<path fill-rule="evenodd" clip-rule="evenodd" d="M13.6182 21.67C13.3132 21.5085 14.0157 21.2725 14.4132 20.9744C14.8107 20.6763 15.0095 20.3781 16.4007 20.2788C17.792 20.1794 18.1751 20.9893 18.0901 21.3719C18.0051 21.7544 17.0963 22.0675 16.0032 21.9681C14.9101 21.8688 13.9232 21.8315 13.6182 21.67Z" fill="white"/>
<path fill-rule="evenodd" clip-rule="evenodd" d="M10.8357 16.9994C10.8141 16.9128 11.2264 17.0778 11.7301 16.9C12.2338 16.7223 12.3348 16.5371 12.5251 16.5025C12.7153 16.4679 12.8232 16.6019 12.8232 16.7013C12.8232 16.8006 12.1465 17.2351 11.7301 17.2975C11.3137 17.36 10.8574 17.0859 10.8357 16.9994Z" fill="#0C436A"/>
<path fill-rule="evenodd" clip-rule="evenodd" d="M16.5995 16.7012C16.5001 16.9993 17.2487 17.1523 17.8913 17.0987C18.534 17.0452 18.9845 16.566 18.9845 16.5025C18.9845 16.4389 18.6522 16.6461 17.9907 16.7012C17.3292 16.7563 16.6988 16.4031 16.5995 16.7012Z" fill="#0C436A"/>
<path fill-rule="evenodd" clip-rule="evenodd" d="M19.0838 20.4775C19.0094 20.4961 19.1832 21.4323 19.1832 21.9681C19.1832 22.504 18.9492 23.0949 19.0838 23.0612C19.2184 23.0276 19.5807 23.0612 19.5807 21.8687C19.5807 20.6762 19.1583 20.4589 19.0838 20.4775Z" fill="#0C436A"/>
</svg>
