<svg width="32" height="32" viewBox="0 0 32 32" fill="none" xmlns="http://www.w3.org/2000/svg">
<path fill-rule="evenodd" clip-rule="evenodd" d="M22.3321 16.2068L21.1538 17.5414L20.4327 18.4101L19.5104 17.3595L19.9462 16.8186L21.4071 15.1258L23.1002 13.1237L23.5107 12.66L21.4843 10.1197L20.6637 9.06703C20.4857 10.0955 19.5616 11.8653 19.1774 12.4815L21.0494 14.6374L19.9719 15.92L18.2797 13.6118L17.767 14.201L16.9209 15.2027L16.8965 15.2541C17.5744 16.0684 18.2346 16.8913 18.8979 17.7181L18.898 17.7183L18.8982 17.7185C19.3636 18.2987 19.8306 18.8809 20.3064 19.4633C20.3064 19.4633 21.0498 20.4887 21.8443 19.8995C22.151 19.5918 22.1264 19.1299 22.1264 19.1299C22.1264 19.1299 22.151 18.7191 21.5871 17.9755L22.7411 16.6668L23.3048 17.3333C23.7922 17.8451 25.5099 19.5663 27.5616 20.6944C27.5616 20.6944 25.9204 21.8249 24.4333 20.4124C24.2017 20.1832 23.8685 19.8747 23.5353 19.5672C23.5353 19.5672 23.7149 19.9518 23.3556 20.6441C23.0741 21.1577 22.5611 21.4653 21.8948 21.4913C20.9461 21.5161 20.2534 21.0546 19.7413 20.4898L18.2542 18.8213L15.9981 16.2815L14.1262 18.3093L13.3572 17.4353L15.1013 15.2545L15.0751 15.2031L13.6906 13.6122L12.9988 14.4847C12.9141 14.599 12.7716 14.7844 12.5927 15.0173C11.6862 16.1968 9.8443 18.5937 9.8443 19.1303C9.8443 19.1303 9.84429 19.5914 10.1265 19.8999C10.9726 20.4896 11.6389 19.5138 11.6389 19.5138L12.3832 20.361C11.8448 20.9774 11.1013 21.542 10.0755 21.491C9.40917 21.4651 8.92262 21.1574 8.66571 20.6438C8.2809 19.9516 8.43518 19.567 8.43518 19.567C8.27184 19.7166 8.11486 19.8669 7.96714 20.0084L7.96713 20.0084C7.81255 20.1564 7.66814 20.2947 7.53722 20.4122C6.97242 20.9531 6.43423 21.1319 5.9213 21.1319C5.07609 21.1585 4.43504 20.695 4.43504 20.695C6.47224 19.5745 8.18069 17.8689 8.70608 17.3443L8.71647 17.334L10.562 15.1271L12.7926 12.4835C12.4085 11.8673 11.4853 10.0975 11.3055 9.06902L10.4847 10.1221L8.45956 12.662L10.1781 14.6906L9.25489 15.7433L7.02518 13.1C7.02518 13.1 5.94812 11.8952 4.43571 11.842C3.56324 11.8179 2.69166 12.1513 1.84557 12.8705C2.20511 13.2554 2.79518 13.743 3.58962 13.9215C4.46098 14.05 5.30795 13.8441 6.25579 13.1516L7.20451 14.2316C5.89713 15.1539 4.56339 15.5146 3.307 15.3088C1.38429 14.8981 0.332938 13.256 0.282178 13.1525L0 12.691L0.384143 12.2805C1.69218 10.9977 3.05208 10.3815 4.51307 10.4327C5.84593 10.4841 6.89706 11.1263 7.48713 11.6381L8.28157 10.7661C8.43673 10.6375 9.0514 9.89361 9.17931 9.55868C9.19789 9.47735 9.21312 9.40215 9.22729 9.33217L9.22735 9.33188L9.22736 9.33184L9.22736 9.33182L9.22737 9.33178C9.25322 9.20414 9.27555 9.09387 9.30831 8.99543C9.38545 8.58491 9.43621 7.86561 9.43621 7.86561C9.43621 7.86561 9.43621 7.712 9.48786 7.50629L9.59138 7.25027C9.59138 7.25027 8.77167 6.89096 8.1816 6.91689L7.84844 7.37884L7.82206 6.94238V6.30133C7.82206 6.30133 7.84844 5.96618 8.1816 5.7106C8.41213 5.53149 8.51542 5.50489 8.79716 5.47852C8.88906 5.46544 8.96247 5.46081 9.02558 5.45683C9.20858 5.44527 9.30491 5.43919 9.51424 5.24865C9.77026 4.91438 11.4624 4.96581 11.873 5.12009C11.873 5.12009 12.2323 5.19745 12.4375 5.76069L12.9248 7.25005C12.9248 7.25005 13.0274 7.73793 13.0529 8.45546C13.079 9.12466 13.13 9.63714 13.2579 9.8945L13.4641 10.6898C13.8227 11.6139 14.2332 12.0757 14.2332 12.0757C14.4972 12.4023 14.7805 12.7199 15.0657 13.0397L15.0658 13.0397L15.0658 13.0397L15.0658 13.0397C15.2505 13.2468 15.436 13.4547 15.6175 13.6665V13.6925L16.0014 14.1542L16.3854 13.6925L17.7699 12.075C17.7699 12.075 18.1294 11.6381 18.4881 10.7661L18.7447 9.89361C18.8483 9.61077 18.8992 8.86531 18.9247 8.45457C18.95 7.73705 19.0781 7.24939 19.0781 7.24939L19.5392 5.76003C19.7708 5.19678 20.0785 5.11942 20.0785 5.11942C20.5143 4.96603 22.2067 4.9146 22.4636 5.24799C22.6732 5.43896 22.7554 5.44439 22.9321 5.45605C22.9925 5.46004 23.0639 5.46475 23.1552 5.47785C23.4622 5.50401 23.5657 5.53083 23.7962 5.70971C24.1032 5.96551 24.1549 6.30044 24.1549 6.30044V6.94305L24.1294 7.3795L23.7962 6.91756C23.2062 6.89184 22.3856 7.25094 22.3856 7.25094L22.4627 7.50718C22.5401 7.712 22.5401 7.8665 22.5401 7.8665C22.5401 7.8665 22.5908 8.58579 22.6935 8.99632C22.7002 9.03859 22.7051 9.08295 22.7102 9.12989L22.7102 9.12992L22.7102 9.12995V9.12997C22.7237 9.25283 22.7392 9.39326 22.795 9.55956C22.8563 9.76717 23.1165 10.1046 23.336 10.3894C23.3902 10.4598 23.442 10.5269 23.4877 10.5881L24.4883 11.639C24.5007 11.6269 24.5713 11.5754 24.6419 11.524C24.7122 11.4727 24.7825 11.4214 24.7953 11.4091C25.437 10.9727 26.3602 10.485 27.4878 10.4336C28.9231 10.383 30.3076 10.9984 31.5895 12.2814L32 12.6919L31.6921 13.1536C31.6413 13.2569 30.59 14.899 28.6662 15.3095C27.4098 15.5143 26.076 15.1297 24.7944 14.2056L25.7176 13.1283C26.6661 13.8459 27.5632 14.052 28.384 13.9235C29.2046 13.7446 29.8202 13.2567 30.1788 12.8721C29.3063 12.1528 28.4084 11.8194 27.5632 11.844C26.0253 11.8959 24.9739 13.1015 24.9739 13.1015L22.9475 15.4372L22.3321 16.2068ZM17.8455 19.2875L18.7689 20.3645L14.9233 24.8559C14.8958 24.8902 14.864 24.9291 14.8287 24.9722C14.4706 25.41 13.7603 26.2781 13.6669 27.1663C13.6669 27.1663 12.845 26.0362 13.4616 24.4713C13.5203 24.1739 15.6272 21.7965 16.9506 20.3032L16.9506 20.3032L16.9512 20.3025C17.342 19.8616 17.6644 19.4978 17.8455 19.2875ZM17.1186 24.9711L17.1187 24.9713C17.4772 25.4091 18.1879 26.2772 18.2812 27.1663C18.2812 27.1663 19.1265 26.0362 18.4867 24.4454C18.4867 24.4454 18.3848 24.061 17.3084 22.9578L16.3588 24.0863L16.4878 24.1896L17.0249 24.8559C17.0522 24.89 17.0837 24.9285 17.1186 24.9711ZM15.6151 20.9801L14.6919 22.084L11.1539 17.9256L12.0261 16.7975L15.6151 20.9801Z" fill="#164577"/>
</svg>
