<svg width="32" height="32" viewBox="0 0 32 32" fill="none" xmlns="http://www.w3.org/2000/svg">
<path fill-rule="evenodd" clip-rule="evenodd" d="M31.498 15.969C31.498 24.7275 24.6188 31.8276 16.134 31.8276C7.64921 31.8276 0.769997 24.7275 0.769997 15.969C0.769997 7.20953 7.64921 0.109375 16.134 0.109375C24.6188 0.109375 31.498 7.20953 31.498 15.969Z" fill="#174489"/>
<path fill-rule="evenodd" clip-rule="evenodd" d="M30.676 15.9691C30.676 24.2587 24.1655 30.9792 16.134 30.9792C8.10244 30.9792 1.59201 24.2587 1.59201 15.9691C1.59201 7.67846 8.10244 0.958008 16.134 0.958008C24.1655 0.958008 30.676 7.67846 30.676 15.9691Z" fill="#FFF101"/>
<path fill-rule="evenodd" clip-rule="evenodd" d="M8.83438 10.5911V13.5164C8.83438 13.5164 10.9119 14.0666 12.0849 14.9325C11.7677 14.7136 7.5094 14.146 5.51629 14.1247C4.82189 14.1169 4.72149 14.6148 4.72149 14.6148V18.0612C4.72149 18.0612 5.57259 17.4142 5.98548 17.3522C19.4915 18.0893 26.4233 26.7199 26.4233 26.7199L26.8155 26.1853L26.6757 23.011C26.6757 23.011 20.8606 15.8024 17.1446 13.7372C20.0029 13.8108 30.6731 13.7779 30.6731 13.7779L30.4245 12.509C30.4245 12.509 23.6419 12.509 23.1267 12.509C22.3432 12.509 22.3348 11.7457 23.0639 11.7457C23.55 11.7457 30.2537 11.7457 30.2537 11.7457L29.8061 10.6046L8.83438 10.5911Z" fill="#174489"/>
</svg>
