<svg width="32" height="32" viewBox="0 0 32 32" fill="none" xmlns="http://www.w3.org/2000/svg">
<mask id="mask0" mask-type="alpha" maskUnits="userSpaceOnUse" x="0" y="0" width="32" height="32">
<path fill-rule="evenodd" clip-rule="evenodd" d="M0.0343094 15.9786C0.0343094 24.7844 7.1735 31.9237 15.9787 31.9237C24.7861 31.9237 31.9243 24.7843 31.9243 15.9786C31.9243 7.17288 24.7861 0.0336914 15.9787 0.0336914C7.17339 0.0338014 0.0343094 7.17288 0.0343094 15.9786Z" fill="white"/>
</mask>
<g mask="url(#mask0)">
<path d="M31.9243 15.9786C31.9243 24.7844 24.7861 31.9237 15.9787 31.9237C7.1735 31.9237 0.0343094 24.7843 0.0343094 15.9786C0.0343094 7.17288 7.1735 0.0336914 15.9787 0.0336914C24.786 0.0338014 31.9243 7.17288 31.9243 15.9786Z" fill="#E32526"/>
</g>
<mask id="mask1" mask-type="alpha" maskUnits="userSpaceOnUse" x="0" y="0" width="32" height="32">
<path fill-rule="evenodd" clip-rule="evenodd" d="M0.0343094 15.9786C0.0343094 24.7844 7.1735 31.9237 15.9787 31.9237C24.7861 31.9237 31.9243 24.7843 31.9243 15.9786C31.9243 7.17288 24.7861 0.0336914 15.9787 0.0336914C7.17339 0.0338014 0.0343094 7.17288 0.0343094 15.9786Z" fill="white"/>
</mask>
<g mask="url(#mask1)">
<path fill-rule="evenodd" clip-rule="evenodd" d="M14.6383 14.9593C14.9403 14.6052 14.3089 14.2231 14.0279 14.2742C13.8784 14.2988 13.7063 14.3298 13.0371 15.0834C13.2024 14.7942 13.2539 14.5558 13.0549 14.4242C12.8434 14.2862 12.4771 14.3932 12.2745 14.5225C12.1489 14.6016 12.1432 14.6406 12.1219 14.7908C12.1041 14.8919 12.0106 15.112 11.9452 15.2369L11.7426 15.6561C11.0946 16.7479 10.6875 17.1693 10.4997 17.3637L10.4996 17.3637C10.4649 17.3997 10.4377 17.4279 10.4178 17.4511C10.287 17.5866 10.1784 17.6665 10.1044 17.6799C10.0485 17.6899 10.0226 17.6508 10.03 17.5816C10.0373 17.4752 10.0783 17.3298 10.1686 17.1397C10.3107 16.8173 10.5461 16.3401 10.7276 16.0226C10.828 15.8308 11.0824 15.3826 11.0824 15.3826C11.3252 14.8614 10.8659 14.6796 10.599 14.7176C10.5835 14.72 10.5382 14.7255 10.4682 14.7341L10.4681 14.7341L10.4679 14.7341L10.4675 14.7342L10.4674 14.7342C10.182 14.7691 9.48706 14.854 8.71158 14.9826C9.135 13.2728 9.19019 13.141 9.48003 12.4486C9.55113 12.2788 9.63635 12.0752 9.7446 11.8063C10.0126 11.1414 9.97993 10.9878 9.75604 10.7369C9.66462 10.6354 9.61665 10.5297 9.57513 10.4381C9.5136 10.3025 9.46622 10.1981 9.31266 10.1848C8.7184 10.1322 6.65193 13.0101 4.98936 15.8073C4.20651 16.0339 3.42279 16.3021 2.69833 16.6188C2.22695 16.8257 2.30943 17.2033 2.35291 17.4023L2.35513 17.4125C2.41473 17.689 2.72549 17.8121 2.97303 17.6788C3.34845 17.4719 3.77798 17.2794 4.23994 17.1C4.2251 17.129 4.22037 17.1448 4.2251 17.1428C3.59477 18.2878 2.88714 19.8833 2.65479 20.5941C2.52657 20.9901 2.73187 21.3453 3.08442 21.4998C3.43763 21.6538 3.67769 21.491 3.79546 20.9598C3.94314 20.2971 4.83607 18.248 5.74075 16.5919C5.74075 16.5919 5.74614 16.5856 5.75384 16.5734C6.29861 16.4061 6.8491 16.2536 7.36989 16.121C7.05275 17.4264 6.96984 17.9656 6.97633 18.4144C6.9793 18.8551 7.14567 19.3713 7.6469 19.2986C8.056 19.2422 8.07722 18.9303 8.10046 18.5887C8.1057 18.5116 8.11105 18.4331 8.12096 18.3557C8.15147 18.1251 8.17574 17.9258 8.19825 17.741V17.741C8.26971 17.1544 8.32351 16.7127 8.5032 15.8733C8.51002 15.8722 8.51628 15.8622 8.52376 15.844C9.07986 15.7172 9.55227 15.6195 9.88525 15.5552C9.84488 15.6409 9.79778 15.7355 9.74861 15.8342L9.72965 15.8723C9.51015 16.304 9.27307 16.831 9.12264 17.2164C8.97913 17.596 8.90204 17.8972 8.88049 18.1535C8.83332 18.7168 9.08085 19.0213 9.5195 18.942C9.84676 18.8832 10.3471 18.4545 10.9123 17.607C10.8474 17.8096 10.811 17.9741 10.8063 18.0781C10.7877 18.5189 11.0137 18.8794 11.7483 18.3997C11.8226 18.3512 11.8338 18.2809 11.8368 18.1403C11.8729 17.6664 12.0739 17.0359 12.5127 16.3921C12.8577 15.8956 13.0994 15.6136 13.4145 15.4829C13.6158 15.3989 13.7906 15.3548 13.9467 15.3155C14.2215 15.2462 14.4381 15.1917 14.6383 14.9593ZM7.61347 15.1797C7.92555 14.0178 8.30328 12.8313 8.67706 11.9455C7.9239 12.9327 7.11686 14.1889 6.38966 15.443C6.81292 15.3439 7.22463 15.2561 7.61347 15.1797ZM11.4907 12.7894C11.8513 12.7242 12.1193 12.9434 12.0924 13.2767C12.0654 13.6096 11.7503 13.9348 11.3903 13.9992C11.0321 14.0631 10.7618 13.8439 10.7904 13.5104C10.8178 13.177 11.1308 12.8554 11.4907 12.7894ZM27.1229 16.4527C27.4992 15.99 28.0814 14.9284 28.1178 14.6385C28.1345 14.5055 28.0962 14.4529 27.9916 14.4664C27.8623 14.4836 27.5721 14.7207 27.2959 15.0588C26.8913 15.5443 26.3466 16.5235 26.3039 16.8462C26.286 16.9781 26.3398 17.0648 26.4329 17.0537C26.5825 17.0331 26.8412 16.8086 27.1229 16.4527ZM29.7947 15.7507C29.8873 15.512 29.5412 15.4271 29.3776 15.6867C29.2171 15.9371 29.0726 16.1513 28.8685 16.3676C28.684 16.563 28.5362 16.639 28.4562 16.6114C28.2452 16.5366 28.3643 16.2435 28.5819 15.8127C28.6853 15.6114 28.8295 15.3501 28.9603 15.1263C29.1465 14.8337 29.1864 14.7512 29.1973 14.6448C29.2198 14.4956 29.1238 14.3972 28.831 14.2811C28.6479 14.2021 28.6331 14.1879 28.558 13.9815C28.4515 13.7287 28.2307 13.6037 27.957 13.6415C27.5403 13.6953 26.8915 14.1812 26.3171 14.8666C26.11 15.0896 25.4369 15.9683 25.3115 16.132L25.3113 16.1323L25.3113 16.1323L25.3007 16.1461L25.1873 16.2892C24.8748 16.7027 24.7891 16.8 24.6489 16.9467C24.5122 17.0786 24.3997 17.1538 24.3233 17.1632C24.2688 17.1713 24.2448 17.1298 24.2557 17.0601C24.2688 16.9558 24.3169 16.8126 24.4162 16.6255C24.5762 16.3111 24.831 15.8466 25.03 15.5349C25.1379 15.35 25.3255 15.011 25.3404 14.9743L25.4437 14.7962C25.718 14.3279 25.3034 14.102 24.991 14.1255C24.8673 14.1353 24.6644 14.2218 24.5616 14.2949C24.4798 14.3481 24.4683 14.3683 24.4461 14.473C24.4172 14.606 24.2314 14.9959 24.0388 15.3408C23.7977 15.7616 23.5367 16.2775 23.3685 16.6529C23.2065 17.0292 23.1116 17.3257 23.0783 17.5804C23.0037 18.1394 23.2354 18.4549 23.678 18.3957C24.006 18.3528 24.3596 18.0484 24.7909 17.5693C24.9313 17.4144 25.0838 17.2043 25.2315 16.9857C25.1533 17.6109 25.4745 18.0417 26.0264 17.9696C26.3959 17.919 26.7016 17.6585 27.1014 17.2349L27.1107 17.226C27.1571 17.1822 27.1775 17.1629 27.2047 17.16C27.2323 17.1554 27.2575 17.1804 27.2585 17.2305L27.277 17.2885C27.332 17.5732 27.5572 17.7093 27.875 17.6645C28.2691 17.6122 28.7051 17.3298 29.1785 16.7478C29.5637 16.2927 29.7148 15.9573 29.7947 15.7507ZM25.6042 13.5254C25.9635 13.4614 26.2775 13.1376 26.3059 12.8033C26.3317 12.4697 26.0627 12.2525 25.7051 12.3168C25.345 12.3815 25.0298 12.705 25.0035 13.0397C24.9748 13.3726 25.2456 13.5901 25.6042 13.5254ZM17.8608 15.4267C18.5888 14.1776 19.3921 12.9269 20.1399 11.9448C19.7669 12.8295 19.3922 14.015 19.0779 15.1729C18.6956 15.2453 18.2865 15.3294 17.8608 15.4267ZM20.3277 14.9635C20.5425 14.9318 21.2408 14.849 21.214 15.1419C21.1765 15.5731 21.0249 15.6046 20.523 15.7089L20.5229 15.7089C20.4753 15.7188 20.4246 15.7293 20.3705 15.7409C20.2524 15.7675 20.1267 15.7945 19.9948 15.8224C19.9853 15.8541 19.9751 15.8725 19.9679 15.8736C19.791 16.7034 19.7366 17.1453 19.6656 17.7218L19.6656 17.7218L19.6655 17.722C19.6421 17.9124 19.6168 18.1174 19.5848 18.356C19.5744 18.4346 19.5688 18.5143 19.5634 18.5925C19.5396 18.9327 19.518 19.2427 19.1105 19.299C18.6095 19.3717 18.4364 18.8551 18.4394 18.4147C18.4411 17.6645 18.8054 16.2206 18.8345 16.1054L18.8363 16.0981C18.3265 16.228 17.7799 16.3757 17.236 16.5454C16.588 17.646 15.407 20.2975 15.2608 20.9601C15.1419 21.4913 14.9022 21.6541 14.548 21.4985C14.1956 21.3456 13.9986 20.9935 14.1195 20.5945C14.4179 19.5991 15.4693 17.5508 15.6761 17.1478C15.6972 17.1067 15.7095 17.0827 15.7113 17.0788C15.2501 17.264 14.8202 17.4629 14.4495 17.6743C14.2199 17.805 13.9269 17.6804 13.8647 17.405L13.862 17.3921C13.8199 17.1906 13.7419 16.8168 14.1808 16.6162C14.9002 16.2883 15.6824 16.0141 16.4635 15.7889C18.1234 12.9969 20.182 10.1324 20.7751 10.1853C20.9299 10.1984 20.9776 10.3034 21.0395 10.4396C21.0809 10.5309 21.1287 10.6361 21.2194 10.7371C21.4443 10.9873 21.476 11.1416 21.2064 11.8066C21.0989 12.0751 21.0142 12.2785 20.9436 12.4483C20.655 13.1418 20.6004 13.2729 20.1753 14.9866C20.2054 14.9824 20.2345 14.9778 20.2636 14.9733C20.2849 14.9699 20.3062 14.9666 20.3277 14.9635ZM22.7413 17.212C22.7293 18.528 21.5307 18.7907 21.1207 18.8327C20.7981 18.865 20.0921 18.7137 19.9724 18.1666C19.9313 17.9914 20.1973 17.5172 20.2531 17.4358C20.3498 17.294 20.4969 17.3776 20.5477 17.4492C20.6604 17.6048 21.2534 18.1201 21.5986 17.7875C21.7671 17.6241 21.6076 17.4232 21.4587 17.2359C21.4122 17.1773 21.3667 17.12 21.3327 17.0657C20.8025 16.2247 21.5187 15.2452 21.7437 15.0311C22.2315 14.5658 22.5759 14.5244 22.8194 14.519C23.5159 14.4954 23.7557 14.8749 23.7037 15.1008C23.6449 15.3472 23.5086 15.4924 23.4152 15.5894C23.3482 15.6594 23.1524 15.68 23.091 15.5938C23.0699 15.5637 23.05 15.5322 23.0301 15.5008C22.9111 15.3124 22.7937 15.1266 22.4272 15.2709C22.081 15.4069 22.0626 15.8597 22.1389 16.0791C22.1851 16.2176 22.2874 16.343 22.3948 16.4747C22.5627 16.6804 22.743 16.9015 22.7413 17.212Z" fill="white"/>
</g>
</svg>
