<svg width="32" height="32" viewBox="0 0 32 32" fill="none" xmlns="http://www.w3.org/2000/svg">
<path d="M0.158892 16.3275C0.158892 16.3275 5.92776 13.3733 11.4173 14.3455C11.4173 14.3455 12.5722 14.5066 13.5175 14.8074C14.4629 15.1082 15.7091 15.409 15.7091 15.409C15.7091 15.409 17.8791 15.8495 20.3714 15.4788C20.3714 15.4788 22.5415 15.409 28.3318 13.8406L31.6299 13.0349C31.6299 13.0349 32.3228 12.8737 31.8125 13.2443C31.8125 13.2443 26.6184 15.8763 21.7519 17.0956C18.5344 17.9067 17.0465 18.272 15.9132 18.3901C14.7852 18.5029 13.539 18.7339 11.8524 18.1108C10.1658 17.4877 6.6153 15.871 4.55806 16.059C2.50619 16.2416 0.518775 16.5209 0.217977 16.5907C0.217977 16.5907 -0.0505925 16.6713 0.00849282 16.4296L0.158892 16.3275Z" fill="#006688"/>
</svg>
