<svg width="32" height="32" viewBox="0 0 32 32" fill="none" xmlns="http://www.w3.org/2000/svg">
<path fill-rule="evenodd" clip-rule="evenodd" d="M32 12C31.6792 12.321 31.3112 12.6281 30.9088 12.9215C30.8659 12.8251 30.818 12.7379 30.761 12.667C30.6202 12.489 30.418 12.3505 30.1523 12.2455C29.8882 12.1418 29.5802 12.0889 29.2309 12.0889C28.6758 12.0889 28.2406 12.216 27.9263 12.4702C27.6133 12.7221 27.4563 13.0521 27.4563 13.4565C27.4563 13.6937 27.5138 13.9012 27.6287 14.0874C27.7423 14.2717 27.9043 14.4198 28.1125 14.5301L28.1169 14.5321L28.1229 14.535C27.6357 14.7669 27.1391 14.9843 26.6422 15.1876C26.6681 15.2918 26.6817 15.4039 26.6817 15.5249C26.6817 15.5719 26.6785 15.6176 26.6748 15.6628C27.3369 15.3825 27.9837 15.0718 28.6081 14.7213C28.3934 14.6534 28.2314 14.5912 28.123 14.535C28.477 14.3668 28.8254 14.1915 29.164 14.0084C28.7841 13.9038 28.55 13.8239 28.4649 13.771C28.3021 13.6717 28.2209 13.5348 28.2209 13.3613C28.2209 13.1845 28.3055 13.0385 28.4738 12.9251C28.642 12.8127 28.8988 12.7561 29.2429 12.7561C29.7862 12.7561 30.1139 12.9653 30.2281 13.3835C30.4634 13.2334 30.6917 13.0799 30.9088 12.9216C30.9281 12.9652 30.9461 13.0113 30.9626 13.06C30.808 13.2068 30.6489 13.3507 30.4757 13.4862L30.4617 13.4967L30.4464 13.5081L31.053 13.4206C31.0308 13.2869 30.9992 13.1688 30.9626 13.06C31.1809 12.8525 31.3868 12.6368 31.5944 12.4193C31.7277 12.2797 31.8616 12.1394 32 12ZM30.9088 12.9216L30.9089 12.9216L30.9088 12.9215L30.9088 12.9215L30.9088 12.9216ZM3.57589 16.6725C3.21653 16.9308 2.77141 17.0609 2.2416 17.0609C1.57307 17.0609 1.03307 16.8504 0.620853 16.4311C0.206933 16.0117 0 15.4065 0 14.6167C0 13.7955 0.209173 13.1685 0.62608 12.7367C1.04325 12.3059 1.572 12.0889 2.21189 12.0889C2.82213 12.0889 3.33253 12.3017 3.74043 12.7242C4.14912 13.1498 4.35344 13.7616 4.35344 14.5661L4.34816 14.7795H0.821973C0.85424 15.3132 1.00443 15.7155 1.27141 15.9885C1.53909 16.2576 1.86416 16.3953 2.24693 16.3953C2.84645 16.3953 3.26368 16.0627 3.49851 15.4044L4.31963 15.5165C4.18197 16.0256 3.93435 16.4099 3.57589 16.6725ZM10.6985 16.4564C10.8548 16.6492 11.0384 16.7974 11.2517 16.901C11.4645 17.0079 11.6948 17.0609 11.9403 17.0609C12.4924 17.0609 12.9734 16.8418 13.3837 16.4034C13.7933 15.9653 13.9993 15.3441 13.9993 14.5342C13.9993 14.0113 13.9071 13.5646 13.7256 13.1942C13.543 12.8214 13.3032 12.5453 13.0047 12.3643C12.7046 12.1799 12.3695 12.0889 11.9986 12.0889C11.7143 12.0889 11.4622 12.146 11.2421 12.2625C11.022 12.3747 10.8224 12.5633 10.6426 12.8213V12.1885H9.90576V18.7739H10.6985V16.4564H10.6985ZM11.0262 13.2069C11.2883 12.8882 11.5793 12.7262 11.899 12.7262C12.2553 12.7262 12.5575 12.8743 12.8051 13.173C13.0529 13.4716 13.1773 13.9308 13.1773 14.5488C13.1773 15.1779 13.0498 15.6434 12.794 15.9441C12.5401 16.2447 12.2431 16.3953 11.9047 16.3953C11.5529 16.3953 11.2533 16.249 11.0051 15.959C10.7563 15.669 10.6324 15.2157 10.6324 14.6029C10.6324 13.9923 10.7643 13.5275 11.0262 13.2069ZM5.79525 16.9455H4.82603L6.54736 14.4705L4.968 12.1885H5.94821L6.68229 13.2979C6.81413 13.5053 6.92144 13.6778 7.00469 13.8123L7.165 13.5818L7.35499 13.3086L8.13312 12.1886H9.10219L7.49696 14.4263L9.24416 16.9455H8.26384L7.28891 15.4658L7.0312 15.0698L5.79525 16.9455ZM22.0739 14.5661C22.0739 13.7616 21.8699 13.1498 21.4615 12.7242C21.0519 12.3017 20.5436 12.0889 19.9328 12.0889C19.2933 12.0889 18.7645 12.3059 18.3474 12.7367C17.9286 13.1685 17.7209 13.7955 17.7209 14.6167C17.7209 15.4065 17.9266 16.0117 18.3406 16.431C18.7535 16.8503 19.2943 17.0609 19.9612 17.0609C20.4926 17.0609 20.9373 16.9308 21.2957 16.6725C21.6544 16.4099 21.9031 16.0256 22.0403 15.5165L21.2184 15.4044C20.984 16.0627 20.5666 16.3953 19.9673 16.3953C19.5843 16.3953 19.2591 16.2576 18.9924 15.9885C18.7246 15.7155 18.5741 15.3132 18.5417 14.7795H22.0679L22.0739 14.5661ZM19.0103 13.122C18.7556 13.3679 18.6162 13.6978 18.5902 14.114H21.2327C21.1961 13.7043 21.0898 13.3992 20.9116 13.1962C20.6551 12.9018 20.3265 12.756 19.9285 12.756C19.5696 12.756 19.2631 12.8765 19.0103 13.122ZM14.9716 12.1885V16.9455H15.765V14.4611C15.765 14.1161 15.8158 13.7911 15.9174 13.4831C15.975 13.3086 16.0746 13.1709 16.2164 13.0714C16.3578 12.9737 16.514 12.9251 16.6843 12.9251C16.8721 12.9251 17.0659 12.9803 17.2661 13.0967L17.5349 12.3429C17.2574 12.1757 16.9838 12.0889 16.7177 12.0889C16.526 12.0889 16.3534 12.1439 16.2005 12.253C16.0471 12.3643 15.8777 12.5844 15.6941 12.9209V12.1885H14.9716ZM29.5919 14.1213C30.1089 14.2591 30.4527 14.3717 30.6202 14.4611C30.815 14.5661 30.9668 14.7066 31.0749 14.8854C31.1834 15.0657 31.2379 15.2772 31.2379 15.5249C31.2379 15.9813 31.0632 16.3528 30.7144 16.6365C30.3649 16.9202 29.8881 17.061 29.2836 17.061C28.1519 17.061 27.4957 16.5498 27.3146 15.5291L28.1077 15.4173C28.1542 15.7473 28.2828 15.9931 28.4929 16.154C28.7018 16.3125 28.9793 16.3954 29.327 16.3954C29.6731 16.3954 29.942 16.3243 30.1308 16.1814C30.3215 16.0395 30.4158 15.8574 30.4158 15.6414C30.4158 15.4509 30.3348 15.3049 30.1713 15.2012C30.0585 15.1267 29.787 15.0382 29.3568 14.93C29.0595 14.855 28.8108 14.7858 28.6081 14.7213C28.943 14.5334 29.2714 14.3341 29.5919 14.1213ZM23.1385 16.4271C21.4187 16.954 20.1763 17.2291 20.1763 17.2291C3.67003 21.3673 0.353067 18.4022 0.353067 18.4022C0.918139 19.22 2.10799 19.4261 3.01036 19.5825L3.01595 19.5835C5.52333 20.0237 8.16533 19.805 10.6883 19.5963L10.7643 19.59C13.508 19.3653 16.0655 18.7833 18.7365 18.1098C19.7348 17.8603 20.7301 17.5988 21.7207 17.3182C22.3281 17.1456 22.9399 16.9682 23.5502 16.7801C23.391 16.6858 23.2521 16.5701 23.1385 16.4271ZM23.9585 16.168C23.9549 16.1654 23.951 16.1632 23.9471 16.161C23.9432 16.1587 23.9393 16.1565 23.9357 16.1539C23.7265 15.993 23.598 15.7471 23.5515 15.4172L22.7586 15.529C22.8231 15.8948 22.9514 16.1923 23.1385 16.4271C23.4018 16.3464 23.6756 16.2605 23.9585 16.168C24.1601 16.3122 24.4217 16.3895 24.7442 16.3937C25.069 16.2832 25.3924 16.1688 25.713 16.0481C25.8091 15.931 25.8595 15.7952 25.8595 15.6414C25.8595 15.5925 25.8538 15.5468 25.843 15.5037C25.1939 15.7508 24.5575 15.9724 23.9585 16.168ZM23.9585 16.168L23.9585 16.168L23.9585 16.168L23.9585 16.168L23.9585 16.168ZM1.28885 13.1221C1.5424 12.8765 1.8488 12.7561 2.20816 12.7561C2.60683 12.7561 2.93451 12.9018 3.19221 13.1963C3.36885 13.3993 3.47643 13.7044 3.51307 14.114H0.87072C0.896107 13.6978 1.03584 13.3679 1.28885 13.1221ZM26.5191 14.8853C26.4107 14.7066 26.2587 14.5661 26.0646 14.4611C25.8698 14.3574 25.4405 14.2228 24.7764 14.0537C24.295 13.9267 24.0066 13.8314 23.9094 13.771C23.7463 13.6717 23.6646 13.5348 23.6646 13.3613C23.6646 13.1845 23.7484 13.0385 23.9177 12.9251C24.0859 12.8127 24.3428 12.7561 24.6868 12.7561C25.2932 12.7561 25.6327 13.0142 25.7035 13.5348L26.497 13.4206C26.4423 13.0946 26.3449 12.8418 26.2049 12.667C26.0645 12.489 25.8615 12.3505 25.5962 12.2455C25.3321 12.1418 25.0243 12.0889 24.6745 12.0889C24.1194 12.0889 23.6844 12.2159 23.3704 12.4701C23.0569 12.7221 22.8999 13.0521 22.8999 13.4565C22.8999 13.6937 22.9577 13.9011 23.0726 14.0874C23.1865 14.2717 23.3482 14.4198 23.5561 14.53C23.7643 14.64 24.1792 14.7735 24.8004 14.93C25.2312 15.0381 25.5023 15.1267 25.6149 15.2011C25.7359 15.2782 25.8116 15.3788 25.843 15.5036C26.1079 15.4025 26.3749 15.297 26.6421 15.1875C26.615 15.0783 26.5743 14.9775 26.5191 14.8853ZM29.1639 14.0083C29.5326 13.8089 29.8881 13.6001 30.228 13.3834C30.2411 13.4318 30.2533 13.481 30.2606 13.5348L30.4463 13.5081C30.1689 13.7245 29.8834 13.9279 29.5918 14.1213C29.5093 14.0994 29.4234 14.0769 29.3322 14.0537C29.2732 14.0381 29.2173 14.0229 29.1639 14.0083ZM24.7709 16.3953C25.1171 16.3953 25.3861 16.3243 25.5756 16.1813C25.6299 16.1406 25.6743 16.0954 25.713 16.0482C26.0366 15.9264 26.3572 15.7973 26.6748 15.6628C26.6427 16.0565 26.4711 16.382 26.1571 16.6365C25.8088 16.9201 25.3321 17.061 24.7275 17.061C24.2482 17.061 23.8592 16.9635 23.5501 16.7801C23.9493 16.6571 24.3479 16.5285 24.7443 16.3938C24.7488 16.3938 24.7531 16.3941 24.7574 16.3945C24.7618 16.3949 24.7662 16.3953 24.7709 16.3953Z" fill="#D92B24"/>
</svg>
