<svg width="32" height="32" viewBox="0 0 32 32" fill="none" xmlns="http://www.w3.org/2000/svg">
<path d="M19.9992 12.2368C19.4864 12.4612 18.9736 12.6855 18.4929 12.8778C17.4032 13.3586 16.3455 13.8714 15.2879 14.4162C15.2238 14.4483 15.1597 14.4483 15.0956 14.4483C14.8071 14.4803 14.4866 14.5124 14.1982 14.5444C13.5892 14.6406 13.0123 14.7047 12.4034 14.8329C11.4739 14.9931 10.5445 15.1534 9.61502 15.3457C8.20482 15.6662 6.79462 15.9867 5.35236 16.3392C5.28826 16.3392 5.25621 16.3713 5.19211 16.3713C4.99981 16.4033 4.87161 16.3392 4.80751 16.1469C4.74341 15.9546 4.77546 15.7944 4.96776 15.6982C5.22416 15.57 5.48056 15.4739 5.73696 15.3777C7.59587 14.6726 9.48682 14.0316 11.4098 13.4868C12.788 13.1022 14.1982 12.7817 15.6084 12.5573C16.5058 12.3971 17.4032 12.3009 18.3006 12.2368C18.8454 12.2048 19.3903 12.2048 19.9351 12.1727C19.9351 12.2048 19.9672 12.2048 19.9992 12.2368C19.9992 12.2368 19.9992 12.2048 19.9992 12.2368Z" fill="#00A651"/>
<path d="M31.1527 15.0573C30.8642 14.9932 30.5758 14.9612 30.2873 14.8971C29.1015 14.7048 27.9156 14.5125 26.6977 14.3522C26.0888 14.2561 25.4478 14.2561 24.8068 14.192C24.6465 14.192 24.6786 14.1599 24.6465 14.1279C24.294 13.6151 23.9414 13.1343 23.5889 12.6215C23.5568 12.5894 23.5248 12.4933 23.4927 12.4292C26.1208 13.0382 28.7169 13.8715 31.1527 15.0253C31.1527 15.0573 31.1527 15.0573 31.1527 15.0573Z" fill="#00A651"/>
<path d="M21.9223 13.1343C22.1466 13.4548 22.371 13.7432 22.6274 14.0637C21.73 14.0637 20.7685 14.0637 19.871 14.0637L19.9351 14.0317C20.5761 13.7432 21.2492 13.4227 21.9223 13.1343Z" fill="#00A651"/>
<path d="M21.8902 13.1343C22.4351 12.9099 22.9799 12.6856 23.5248 12.4933C23.7812 12.8779 24.0376 13.2304 24.294 13.583C25.2234 14.865 25.8965 16.2752 26.5054 17.7174C26.9862 18.8392 27.3387 19.961 27.6592 21.1148C27.6592 21.1468 27.6913 21.1789 27.6913 21.243C27.7233 21.4353 27.6592 21.5955 27.4669 21.6596C27.2746 21.7237 27.1144 21.6917 27.0182 21.4994C26.858 21.2109 26.7298 20.8904 26.5695 20.5699C25.4798 18.3264 24.1978 16.179 22.6915 14.1919C22.4351 13.8714 22.2107 13.5509 21.9543 13.2304C21.9543 13.1984 21.9223 13.1984 21.8902 13.1343Z" fill="#005E9E"/>
<path d="M21.8902 10.5062C21.5056 10.4741 21.121 10.41 20.7364 10.378C20.3518 10.3459 19.9672 10.3139 19.5826 10.2818C19.4864 10.2818 19.4223 10.2498 19.3582 10.1857C18.8134 9.64081 18.2685 9.06391 17.6916 8.51906C16.4417 7.30115 15.0956 6.14735 13.7495 5.05765C13.6854 5.0256 13.6213 4.9615 13.5892 4.8974C13.461 4.73715 13.461 4.5769 13.5892 4.4487C13.7174 4.28845 13.8777 4.2564 14.07 4.35255C14.2302 4.4487 14.3905 4.54485 14.5507 4.641C16.025 5.63455 17.4993 6.66015 18.9095 7.7819C19.871 8.55111 20.8005 9.38441 21.6338 10.2498C21.73 10.3459 21.7941 10.4421 21.8902 10.5062Z" fill="#005E9E"/>
<path d="M23.685 12.4612C23.3325 12.5894 22.6915 12.8458 22.3389 13.006C19.4544 14.1278 16.7622 15.6021 14.1341 17.2687C12.179 18.5186 10.256 19.8647 8.39712 21.307C6.85872 22.5249 5.32031 23.7748 3.78191 24.9927C2.85246 25.7619 1.95505 26.5632 1.0256 27.3324C0.961502 27.3965 0.865352 27.4286 0.769202 27.4606C0.608951 27.5247 0.480751 27.4606 0.384601 27.3324C0.288451 27.2042 0.288451 27.076 0.384601 26.9478C0.512801 26.7875 0.673052 26.6273 0.833302 26.467C2.27556 24.8966 3.71781 23.3261 5.28826 21.8518C7.78817 19.4801 10.4483 17.3328 13.3649 15.5059C15.352 14.256 17.4993 13.2304 19.6787 12.365C19.9351 12.2689 20.1915 12.1407 20.448 12.0766C20.5121 12.0445 20.8646 11.9484 20.8967 11.9484C21.6979 12.0766 22.2428 12.2048 23.0761 12.365C23.1722 12.365 23.5889 12.4612 23.685 12.4612Z" fill="#FFCB05"/>
<path d="M23.8132 11.0831C24.1017 11.019 24.4222 10.8908 24.6786 10.8267C25.6401 10.6023 26.6016 10.378 27.5631 10.1857C28.3964 10.0254 29.2297 9.89724 30.063 9.76904C30.1591 9.76904 30.2553 9.76904 30.3514 9.76904C30.5117 9.80109 30.6399 9.89724 30.6399 10.0575C30.6719 10.2177 30.6078 10.3459 30.4476 10.41C30.1591 10.5062 29.9027 10.5703 29.6143 10.6344C28.4605 10.9549 27.2746 11.2754 26.1208 11.5959C25.9606 11.6279 25.8324 11.6279 25.7042 11.5959C25.1273 11.4036 24.5504 11.2754 24.0055 11.0831C23.9735 11.1151 23.8773 11.1151 23.8132 11.0831Z" fill="#FFCB05"/>
<path d="M13.2687 11.3395C12.5957 11.3395 11.8906 11.3395 11.2175 11.3395C11.1534 11.3395 11.0573 11.3395 10.9932 11.3074C10.865 11.2754 10.7688 11.1792 10.7368 11.019C10.7047 10.8587 10.7688 10.7305 10.9291 10.6664C11.0573 10.6344 11.1855 10.6023 11.3137 10.5703C11.8585 10.5062 12.4354 10.41 12.9803 10.378C13.429 10.3139 13.9097 10.2818 14.3584 10.2498C14.9674 10.2177 15.5763 10.1536 16.1853 10.1216C16.9224 10.0895 17.6916 10.0895 18.4288 10.1216C19.1339 10.1536 19.8069 10.2177 20.48 10.2818C21.3454 10.378 22.2107 10.5062 23.0761 10.6985C24.0055 10.8908 24.8709 11.1792 25.7683 11.4997C26.9862 11.9484 28.172 12.5253 29.2938 13.1984C29.9348 13.583 30.5437 13.9676 31.1527 14.3522C31.1847 14.3842 31.2168 14.4163 31.2488 14.4163C31.377 14.5445 31.4091 14.6727 31.345 14.8329C31.2809 14.9932 31.1847 15.0573 30.9924 15.0252C30.8963 15.0252 30.8001 14.9932 30.736 14.9611C29.5181 14.3522 28.2361 13.8714 26.9541 13.4227C25.7362 13.0061 24.5183 12.6535 23.2684 12.3651C22.4351 12.1728 21.6338 12.0446 20.8005 11.8843C20.2236 11.7882 19.6146 11.692 19.0057 11.6279C18.5249 11.5638 18.0762 11.5318 17.5955 11.4997C16.9865 11.4356 16.3776 11.4036 15.8007 11.3715C15.0635 11.3395 14.3584 11.3395 13.6213 11.3074C13.5572 11.3395 13.429 11.3395 13.2687 11.3395Z" fill="#ED1C24"/>
</svg>
