<svg width="32" height="32" viewBox="0 0 32 32" fill="none" xmlns="http://www.w3.org/2000/svg">
<path fill-rule="evenodd" clip-rule="evenodd" d="M4.20901 10L0 21.3764H3.05456L3.68062 19.4282H7.73758L8.36364 21.3764H11.4182L7.20919 10H4.20901ZM29.2977 10H32V21.3764H29.2977V10ZM20.243 13.1988H22.9453V17.913C22.9453 18.3819 22.9077 18.7915 23.2854 19.1477C23.6157 19.4593 24.1251 19.564 24.5932 19.4423C24.8888 19.3654 25.168 19.1981 25.3753 18.9354C25.5828 18.6728 25.7183 18.3148 25.7268 17.8563V13.1988H28.429V21.3764H25.7908V20.2768C25.5884 20.6535 25.2669 20.9655 24.8788 21.1998C24.4906 21.4342 24.0358 21.5914 23.5668 21.6583C23.0977 21.7252 22.6144 21.7021 22.1693 21.5763C21.7243 21.4502 21.3174 21.2218 21.0012 20.8776C20.3609 20.181 20.2407 19.1753 20.243 18.6106V13.1988ZM11.7131 21.3764H19.4818V19.3561H15.0804L19.1932 15.2191V13.1988H12.0018V15.2191H15.85L11.7131 19.3561V21.3764ZM4.40709 17.1674L5.70915 13.1158L7.01111 17.1674H4.40709Z" fill="#132E62"/>
</svg>
