<svg width="32" height="32" viewBox="0 0 32 32" fill="none" xmlns="http://www.w3.org/2000/svg">
<path d="M29.7261 14.0258C28.8264 14.92 26.8774 15.6875 25.9185 16.0468C24.6084 16.539 24.0271 16.7131 23.294 16.9517C22.4644 17.2209 20.8047 17.7231 20.8047 17.7231C24.2429 18.7497 26.6658 19.0593 26.6658 19.0593C26.6658 19.0593 27.7946 18.7103 29.5829 17.754C30.5512 17.2619 31.0278 16.9305 31.3685 16.6138C31.4942 16.5002 31.8187 16.1624 31.8994 15.7301C31.9046 15.6985 31.9203 15.6159 31.9203 15.5345C31.9203 15.5345 31.9203 15.4772 31.915 15.4274C31.9131 15.3701 31.903 15.3317 31.903 15.3317C31.903 15.3317 31.8838 15.2292 31.8584 15.1572C31.832 15.0853 31.7214 14.8633 31.542 14.7191C31.4223 14.6218 31.2152 14.3793 30.4653 14.1157C30.2104 14.0271 29.7977 13.9454 29.7977 13.9454L29.7261 14.0258Z" fill="url(#paint0_linear)"/>
<path d="M31.9199 15.5117C31.9199 15.5117 31.9147 15.416 31.8913 15.3349C31.8731 15.2627 31.8408 15.1937 31.7923 15.1211C31.7337 15.0348 31.6547 14.9336 31.5378 14.8216C31.4496 14.7383 31.3529 14.6647 31.2364 14.5866C30.7674 14.2794 30.1619 14.1062 29.6262 14.033C28.7959 13.9226 27.8435 13.9422 27.7533 13.9389C27.447 13.9347 25.468 13.9509 24.9593 13.9601C22.7 14.0066 19.9343 14.0128 19.2098 14.0128C11.7303 14.047 8.47469 13.8858 4.85131 13.1593C1.76889 12.5471 0.058754 11.9654 0.058754 11.9654C2.77759 11.8714 18.6415 11.2132 21.5354 11.1364C23.4301 11.083 24.7754 11.0716 25.8518 11.1338C26.4038 11.1647 26.9174 11.2116 27.5626 11.3213C28.141 11.4202 28.6663 11.5882 28.9723 11.7018C29.6167 11.9404 30.16 12.2854 30.4285 12.6389C30.4285 12.6389 30.5079 12.7203 30.6157 12.8648C30.7364 13.0327 30.8767 13.2394 30.9242 13.3166C31.3165 13.9109 31.5026 14.2842 31.5674 14.4144C31.6374 14.5511 31.6992 14.6931 31.7595 14.832C31.8184 14.9701 31.8425 15.0537 31.8613 15.112C31.9027 15.2581 31.9128 15.3912 31.9147 15.4212L31.9199 15.5117Z" fill="#CE210F"/>
<defs>
<linearGradient id="paint0_linear" x1="21.0216" y1="12.0164" x2="20.1251" y2="19.3521" gradientUnits="userSpaceOnUse">
<stop stop-color="#E6EBEF"/>
<stop offset="0.0764" stop-color="#BBCEE5"/>
<stop offset="0.1854" stop-color="#85A9D8"/>
<stop offset="0.2796" stop-color="#5D8FCF"/>
<stop offset="0.3543" stop-color="#457EC9"/>
<stop offset="0.4" stop-color="#3C78C7"/>
<stop offset="0.9" stop-color="#2E5C99"/>
</linearGradient>
</defs>
</svg>
