<svg width="32" height="32" viewBox="0 0 32 32" fill="none" xmlns="http://www.w3.org/2000/svg">
<path d="M16.0195 31.8271C24.7442 31.8271 31.8172 24.7541 31.8172 16.03C31.8172 7.3053 24.7442 0.23291 16.0195 0.23291C7.29543 0.23291 0.222458 7.3053 0.222458 16.03C0.222458 24.7541 7.29543 31.8271 16.0195 31.8271Z" fill="#ED1C24"/>
<path d="M2.7671 14.3967H16.803C16.803 14.3967 18.5577 14.2795 19.2593 15.0983C19.961 15.9171 21.1624 16.9701 21.1624 16.9701C21.1624 16.9701 21.7157 17.9061 23.2361 16.9701C24.9791 15.8977 26.7455 14.7474 26.7455 14.7474L25.6925 13.8115H30.7223L23.3533 19.0751C23.3533 19.0751 21.9494 20.3613 20.5967 19.0751C18.9774 17.5352 18.2651 18.1981 17.0373 19.0751C16.0849 19.7549 13.177 21.8823 13.177 21.8823H4.75542L12.8262 15.9171L1.0124 15.9677" fill="white"/>
</svg>
