<svg width="32" height="32" viewBox="0 0 32 32" fill="none" xmlns="http://www.w3.org/2000/svg">
<path d="M2.95531 9V9.00038C1.73892 9.00038 1.29723 9.82758 1.18671 10.2422C0.965553 11.0159 0.969955 11.2684 0.804095 11.4068C0.389609 11.7656 0 11.8742 0 12.3438C0 13.0347 1.04804 12.7864 1.04804 14.1128V17.8722C1.04804 18.5905 1.38306 18.8371 2.12949 18.8371C2.84767 18.8371 3.14995 18.5078 3.14995 17.8722V13.9741C3.14995 13.5873 3.28875 13.2863 3.48246 13.1479C3.70342 12.9818 4.39726 12.814 4.39726 12.3162C4.39726 12.0951 4.25813 11.8446 3.95403 11.7064C3.53954 11.5126 3.45487 11.4066 3.45487 11.1851C3.45487 10.9917 3.59524 10.8512 4.03716 10.6028C4.50694 10.3538 4.44737 10.0247 4.44737 9.721C4.44737 9.33357 4.03517 9.00004 3.48246 9.00004L2.95531 9ZM5.93858 9.03885V9.03923C5.44137 9.03923 5.11234 9.42943 5.11234 9.92644V17.8278C5.11234 18.5464 5.41435 18.8533 6.24351 18.8533C6.93444 18.8533 7.26941 18.5473 7.26941 17.9661V10.0647C7.26941 9.3744 6.96254 9.03885 6.38219 9.03885H5.93858ZM15.4591 9.39932C14.9892 9.39932 14.7716 9.76115 14.7716 10.259V17.7444C14.7716 18.629 14.9901 18.8534 15.7089 18.8534C16.3442 18.8534 16.2879 18.6596 16.9508 18.6596C17.6143 18.6596 17.6748 19.0197 18.6973 19.0197C20.4103 19.0197 21.7362 17.7474 21.7362 15.1496C21.7362 12.9113 20.4882 11.6948 18.775 11.6948C18.0005 11.6948 17.6146 12.0001 17.1722 12.0001C16.7854 12.0001 16.5958 11.5551 16.5958 11.1685V10.2587C16.5958 9.67838 16.2896 9.39948 15.9028 9.39948L15.4591 9.39932ZM25.8506 11.462C24.0544 11.462 22.3406 12.5357 22.3406 15.3547C22.3406 17.7038 23.861 18.9479 25.8782 18.9479C27.951 18.9479 28.9447 17.7043 28.9447 17.2621C28.9447 16.9303 28.4492 16.5469 28.0077 16.5469C27.2893 16.5469 27.0941 17.5118 25.9062 17.5118C25.1875 17.5118 24.4701 16.85 24.4701 16.242C24.4701 15.7722 24.7992 15.521 25.435 15.521H28.3127C28.9763 15.521 29.25 15.3584 29.25 14.7228C29.2497 14.1703 28.8632 11.4624 25.8507 11.4621L25.8506 11.462ZM8.52209 11.7064C8.13506 11.7064 7.69138 11.8484 8.02293 12.954C8.10567 13.2581 9.84712 18.3951 9.84712 18.865C9.84712 19.252 9.57392 19.6143 9.04886 19.7243C8.55104 19.835 8.24476 20.0532 8.24476 20.4949C8.24476 20.9647 8.55099 21.2439 8.99331 21.2439H9.68126C10.4822 21.2439 11.3684 20.9942 11.9211 19.2806L14.1062 12.649C14.134 12.5378 14.1613 12.3991 14.1613 12.2054C14.1613 11.9287 13.8836 11.7066 13.5515 11.7066H13.0803C12.5554 11.7066 12.2257 11.9574 12.1154 12.4276L11.5331 15.1056C11.4503 15.5205 11.2826 15.9652 11.0063 15.9652C10.7854 15.9652 10.5961 15.8239 10.4574 15.1331L9.90273 12.5938C9.7649 12.0134 9.49091 11.7066 9.02094 11.7066L8.52209 11.7064ZM25.8506 12.8985C26.5141 12.8985 27.0983 13.3931 27.0983 13.8354C27.0983 14.2225 26.6232 14.4177 25.7115 14.4177C24.9651 14.4177 24.5803 14.1944 24.5803 13.7803C24.5807 13.2829 25.2982 12.8985 25.8505 12.8985H25.8506ZM18.2817 12.9925C19.3867 12.9925 19.8844 14.0726 19.8844 15.4821C19.8844 16.9747 19.1106 17.6892 18.2265 17.6892C17.2868 17.6892 16.6238 16.8906 16.6238 15.2882C16.6238 13.6857 17.4247 12.9925 18.2817 12.9925ZM30.6916 16.4085C29.7516 16.4085 29.4769 16.7662 29.4769 17.706C29.4769 18.3138 29.5859 18.9478 30.7191 18.9478C31.5203 18.9478 31.9393 18.6727 31.9393 17.6504C31.9393 16.9867 31.8246 16.4085 30.6916 16.4085H30.6916ZM15.8087 19.591C14.8674 19.591 14.5886 19.952 14.5886 20.8939C14.5886 21.5031 14.7007 22.1416 15.8363 22.1416C16.6392 22.1416 17.0502 21.8642 17.0502 20.8387C17.0506 20.1743 16.9446 19.591 15.8087 19.591ZM18.7975 19.591C17.8558 19.591 17.5774 19.952 17.5774 20.8939C17.5774 21.5031 17.6889 22.1416 18.8247 22.1416C19.6276 22.1416 20.0394 21.8642 20.0394 20.8387C20.0398 20.1743 19.9332 19.591 18.7975 19.591ZM21.8306 19.591C20.8893 19.591 20.6163 19.952 20.6163 20.8939C20.6163 21.5031 20.7223 22.1416 21.8582 22.1416C22.6611 22.1416 23.0783 21.8642 23.0783 20.8387C23.0783 20.1743 22.9664 19.591 21.8306 19.591ZM24.8194 19.591C23.8777 19.591 23.5996 19.952 23.5996 20.8939C23.5996 21.5031 23.7111 22.1416 24.847 22.1416C25.6499 22.1416 26.0667 21.8642 26.0667 20.8387C26.0667 20.1743 25.9554 19.591 24.8194 19.591H24.8194ZM27.8082 19.591C26.8668 19.591 26.5881 19.952 26.5881 20.8939C26.5881 21.5031 26.7001 22.1416 27.8358 22.1416C28.6387 22.1416 29.0555 21.8642 29.0555 20.8387C29.0558 20.1743 28.9444 19.591 27.8082 19.591H27.8082ZM30.7527 19.591C29.8113 19.591 29.5326 19.952 29.5326 20.8939C29.5326 21.5031 29.6444 22.1416 30.7803 22.1416C31.5834 22.1416 32 21.8642 32 20.8387C32 20.1743 31.8885 19.591 30.7527 19.591Z" fill="#5A3F99"/>
</svg>
