<svg width="32" height="32" viewBox="0 0 32 32" fill="none" xmlns="http://www.w3.org/2000/svg">
<path fill-rule="evenodd" clip-rule="evenodd" d="M21.1816 0.486409C21.1816 0.755365 20.7281 0.972818 20.1687 0.97568C19.6065 0.97568 19.1544 0.755365 19.1515 0.486409C19.1515 0.216023 19.6065 0 20.1687 0C20.7281 0 21.1816 0.216023 21.1816 0.486409ZM18.2731 5.08154C19.0185 5.08154 19.6222 4.78112 19.6236 4.40629C19.6222 4.03004 19.0185 3.72818 18.2731 3.72818C17.5278 3.73247 16.9241 4.0329 16.9241 4.40629C16.9241 4.78112 17.5278 5.08154 18.2731 5.08154ZM14.3346 18.2804C14.3346 19.2289 13.1758 19.9957 11.7467 19.9986C10.3175 19.9986 9.16011 19.2289 9.16011 18.2804C9.16011 17.3305 10.3175 16.5608 11.7467 16.5608C13.1758 16.5608 14.3346 17.3319 14.3346 18.2804ZM9.31175 25.4936C10.9913 25.4907 12.3532 24.5379 12.3532 23.3577C12.3532 22.1817 10.9913 21.2303 9.31175 21.2303C7.63078 21.2318 6.27169 22.1817 6.27169 23.3577C6.27169 24.5379 7.63078 25.4907 9.31175 25.4936ZM6.4634 32C8.37756 32 9.92835 30.8555 9.92835 29.4435C9.92835 28.0329 8.37756 26.887 6.46483 26.887C4.5478 26.887 2.99988 28.0329 2.99988 29.4435C2.99988 30.8555 4.5478 32 6.4634 32ZM19.276 2.91559C19.9241 2.91273 20.4477 2.66524 20.4477 2.35336C20.4477 2.04006 19.9241 1.79113 19.276 1.79113C18.6279 1.79113 18.1029 2.04006 18.1029 2.35336C18.1043 2.66524 18.6279 2.91559 19.276 2.91559ZM16.0128 13.8183C16.0128 14.5808 15.0285 15.1989 13.811 15.1989C12.595 15.1989 11.6079 14.5808 11.6079 13.8183C11.6079 13.0587 12.595 12.4378 13.811 12.4378C15.0285 12.4378 16.0128 13.0587 16.0128 13.8183ZM15.585 11.2031C16.6208 11.2031 17.4605 10.7024 17.4605 10.093C17.4605 9.48212 16.6208 8.98283 15.585 8.98283C14.5464 8.98283 13.7037 9.48212 13.7037 10.093C13.7037 10.7024 14.5464 11.2031 15.585 11.2031ZM18.0128 29.02C18.0128 30.289 16.6065 31.3162 14.8683 31.3162C13.1301 31.3162 11.7223 30.289 11.7223 29.02C11.7223 27.7482 13.1301 26.7196 14.8654 26.7225C16.6065 26.7225 18.0128 27.7511 18.0128 29.02ZM22.0914 29.1345C23.658 29.1345 24.9269 28.2289 24.9269 27.1059C24.9269 25.9857 23.658 25.0801 22.0914 25.0801C20.5263 25.0801 19.256 25.99 19.256 27.1059C19.256 28.2289 20.5263 29.1345 22.0914 29.1345ZM28.4562 23.2175C28.4562 24.1001 27.4176 24.8155 26.1344 24.8155C24.8525 24.8155 23.8139 24.1001 23.8139 23.2175C23.8139 22.3362 24.8525 21.6209 26.1344 21.6209C27.4162 21.6209 28.4562 22.3362 28.4562 23.2175ZM23.3919 17.3376C24.3232 17.3376 25.0814 16.8627 25.08 16.279C25.0814 15.6953 24.3232 15.2189 23.3919 15.2189C22.4562 15.2189 21.6994 15.6953 21.6994 16.279C21.6994 16.8627 22.4562 17.3376 23.3919 17.3376ZM18.7138 6.98999C18.7138 7.47926 17.997 7.87554 17.1143 7.87554C16.2331 7.87554 15.5178 7.47926 15.5192 6.98999C15.5192 6.50215 16.2331 6.10587 17.1143 6.10587C17.997 6.10587 18.7138 6.50215 18.7138 6.98999ZM25.8654 20.4721C26.9541 20.475 27.8368 19.8999 27.8354 19.1845C27.8354 18.4764 26.9555 17.8984 25.8668 17.8984C24.7781 17.8984 23.8954 18.4778 23.8983 19.1845C23.8983 19.8956 24.7781 20.475 25.8654 20.4721Z" fill="#EE452A"/>
</svg>
