<svg width="32" height="32" viewBox="0 0 32 32" fill="none" xmlns="http://www.w3.org/2000/svg">
<path d="M0.161804 15.2515C4.27421 14.8278 14.6961 13.78 14.3711 8.26251C16.8825 8.21354 19.3627 8.4935 21.7085 8.90297C15.6779 14.0429 7.47578 15.2057 0.161804 15.2515Z" fill="#38499E"/>
<path d="M6.34262 15.1833C12.3682 14.2963 18.3594 12.981 22.5446 9.16838C24.5114 9.72155 26.168 10.3223 27.8016 11.4368C19.5314 14.7132 13.5615 14.9964 6.34262 15.1833Z" fill="#007DC3"/>
<path d="M13.8357 15.085C19.5969 14.541 24.4864 13.5688 28.2617 11.7656C29.741 12.5987 31.1216 14.1859 30.8253 15.1506C25.1503 15.1265 19.5089 15.1063 13.8357 15.085Z" fill="#2CA5DB"/>
<path d="M30.9242 15.5364C26.8118 15.9608 16.39 17.0089 16.715 22.5254C14.2025 22.5747 11.7237 22.2961 9.37616 21.8845C15.4082 16.7456 23.6103 15.5832 30.9242 15.5364Z" fill="#EE3439"/>
<path d="M24.7434 15.6055C18.7196 16.4911 12.727 17.8075 8.5422 21.6201C6.5747 21.0669 4.91874 20.4666 3.28442 19.3528C11.5546 16.076 17.5249 15.7918 24.7434 15.6055Z" fill="#F79439"/>
<path d="M17.2511 15.7039C11.4891 16.2479 6.59891 17.2204 2.82465 19.0229C1.34468 18.1902 -0.0341612 16.6027 0.261052 15.6376C5.93574 15.6596 11.5764 15.6819 17.2511 15.7039Z" fill="#FEE53F"/>
</svg>
