<svg width="32" height="32" viewBox="0 0 32 32" fill="none" xmlns="http://www.w3.org/2000/svg">
<path d="M18.7213 20.2996C18.5139 19.0566 17.8922 17.8136 16.9082 16.6223C15.976 15.483 14.8884 14.8614 13.7487 14.8096L12.3505 14.8615L11.211 15.2242C8.88026 16.2082 6.34248 18.2281 3.75279 21.1804C1.26681 23.7183 0.0755005 25.4271 0.0755005 26.256C4.27075 20.8697 7.79265 17.8139 10.6931 17.0369L11.8845 16.8814L12.7648 16.9333C14.8885 17.1923 16.1315 18.5908 16.4423 21.0249C16.7012 24.288 17.1155 25.9449 17.4781 25.9449C17.8923 25.9449 19.3945 24.1843 21.9321 20.7659C23.538 18.4871 24.988 17.3993 26.4902 17.4512L27.474 17.7102L28.044 17.9691C29.6493 19.0568 30.3226 21.5946 30.012 25.4791C30.012 26.2559 30.1674 26.6186 30.4778 26.5149C30.6853 26.4629 30.8927 25.2723 31.0995 22.9931C31.5138 17.8139 30.3227 15.3794 27.474 15.5865L26.2828 15.7936L25.6097 16.0009C23.1752 17.2958 21.1551 18.9011 19.6534 20.7658C19.1871 21.0246 18.9281 20.8694 18.7213 20.2996Z" fill="#6B6A77"/>
<path d="M27.474 17.7097L26.4902 17.4507C26.6971 19.7295 26.6971 22.4747 26.5418 25.7376C26.5418 26.2034 26.6971 26.3076 26.9561 26.2554L27.1114 25.1675C27.3186 22.3711 27.474 19.8851 27.474 17.7097Z" fill="#6E92AE"/>
<path d="M27.474 15.5863C27.3186 9.52667 26.1791 6.31543 24.0558 6.05645C20.8961 5.64219 17.8406 7.5065 14.8884 11.7019L12.3505 14.8613L13.7487 14.8094C17.1154 11.2357 19.8086 9.52667 21.932 9.57823C24.2111 9.68194 25.6611 11.7537 26.2828 15.7934L27.474 15.5863Z" fill="#6E92AE"/>
<path d="M11.8844 16.8813L10.693 17.0369C6.49777 22.4752 4.63346 25.3754 5.09951 25.738C7.58537 22.2162 9.86428 19.264 11.8844 16.8813Z" fill="#6E92AE"/>
</svg>
