<svg width="32" height="32" viewBox="0 0 32 32" fill="none" xmlns="http://www.w3.org/2000/svg">
<path fill-rule="evenodd" clip-rule="evenodd" d="M23.46 0.35791C24.3846 5.95913 21.7529 11.027 15.4581 15.5436C13.182 17.1617 11.5106 18.9044 10.497 20.7715C9.62567 22.4786 9.21668 24.1322 9.44785 25.8215C9.66124 27.3508 10.4081 28.7022 11.5106 29.8047C12.7019 30.9072 14.1423 31.6362 15.9027 31.9385C10.9771 29.5913 10.7637 26.1772 15.2448 21.6784C15.547 21.3761 16.1339 20.9493 16.9163 20.3447C17.9653 19.5801 18.6766 19.0466 19.2101 18.691C20.0814 17.9441 20.8283 17.2151 21.3973 16.4861C22.1975 15.5614 22.7132 14.619 23.0688 13.6054C23.2466 13.2497 23.3711 12.4673 23.46 11.2226C23.5134 10.0312 23.6023 8.69758 23.6912 7.23945C23.7267 5.63913 23.7267 4.2699 23.7267 3.0785C23.6912 1.74484 23.6023 0.838027 23.46 0.35791Z" fill="#335788"/>
<path fill-rule="evenodd" clip-rule="evenodd" d="M23.3711 15.8103C23.46 15.3124 23.5134 14.5478 23.6023 13.5342C23.3711 15.4369 21.095 17.9441 16.6495 21.1449C15.9916 21.5716 15.387 22.0872 14.8891 22.6918C14.0533 23.5809 13.4843 24.4523 13.1287 25.3236C12.7019 26.4616 12.7019 27.5286 13.1287 28.5243C13.6266 29.7157 14.6757 30.7826 16.3472 31.7606C12.2573 28.7021 12.3108 25.5547 16.6495 22.354L20.3837 19.5089C21.3084 18.7443 22.0552 18.0863 22.4109 17.5884C22.8554 17.0372 23.1577 16.4504 23.3711 15.8103Z" fill="#C1A159"/>
<path fill-rule="evenodd" clip-rule="evenodd" d="M22.1441 18.6022C21.3084 19.4735 20.2059 20.3093 18.9789 21.0739C18.2321 21.5363 17.5386 22.0519 16.8807 22.6387C16.1339 23.2078 15.547 23.7056 15.1558 24.1324C13.9289 25.5549 13.6266 27.1376 14.4623 28.9157C14.5868 29.2891 14.8002 29.6448 15.0314 29.9648L15.1203 30.0182C15.9027 30.9962 16.9163 31.6008 18.2321 31.8853C17.8765 31.6719 17.5386 31.3874 17.1296 31.0318C16.7029 30.6228 16.3472 30.196 16.1339 29.7337C15.3337 28.5245 15.2447 27.3154 15.9027 26.0884C16.4717 24.8792 17.3608 24.2035 18.4633 24.0257L19.7258 24.0435C20.0814 24.1324 20.2948 24.2213 20.4371 24.3458C20.6504 24.5058 21.0416 24.5591 21.4862 24.5414C23.46 24.3635 24.1713 21.6252 23.5134 16.3262L23.3711 16.8418C23.0688 17.4108 22.6243 18.0154 22.1441 18.6022Z" fill="#D43336"/>
</svg>
