<svg width="32" height="32" viewBox="0 0 32 32" fill="none" xmlns="http://www.w3.org/2000/svg">
<path d="M24.481 21.848C24.481 21.848 24.095 18.6125 24.0276 18.0487C23.8131 16.2593 23.7089 15.2053 23.5434 14.9909C22.9674 14.8744 22.183 14.9602 21.5212 14.9357C21.3251 15.1624 21.3068 15.2237 21.2332 15.334C21.3251 15.3156 21.6683 15.3401 21.6867 15.524C21.6867 15.6036 21.2884 16.0326 21.0616 16.3022C19.499 18.0058 17.9241 19.6971 16.3554 21.4619C16.239 21.5967 16.1654 21.7071 16.0674 21.8296C16.3738 21.8296 16.674 21.8296 16.9804 21.8296C17.82 20.9227 21.7602 16.5473 22.2566 16.1C22.3301 16.8415 22.9674 21.8296 22.9674 21.8296L24.481 21.848Z" fill="#0D2B60"/>
<path d="M16.9314 18.1897C16.8028 17.197 14.6947 17.1908 13.653 17.246C12.4335 17.3073 11.2202 17.5463 10.6319 18.2755C10.3623 18.6064 10.2275 19.0599 10.0069 19.5869C9.82918 20.0158 9.52891 20.5428 9.60857 20.9534C9.76177 21.7745 11.2386 21.8358 12.2865 21.8358C13.4692 21.8358 14.5783 21.6826 15.2769 21.2659C15.951 20.8676 16.1654 20.2793 16.5025 19.5011C16.6679 19.1211 16.9927 18.6493 16.9314 18.1897ZM14.9644 19.403C14.6886 20.0465 14.5416 20.6409 14.0207 20.9718C13.414 21.364 11.594 21.5907 11.0303 20.8921C11.0119 20.4019 11.2754 19.9668 11.4592 19.5501C11.643 19.1395 11.7656 18.6861 12.0291 18.3797C12.4213 17.9262 13.1505 17.7301 13.9962 17.724C14.4619 17.7178 15.2463 17.7791 15.3627 18.1774C15.4669 18.5329 15.0992 19.0844 14.9644 19.403Z" fill="#0D2B60"/>
<path d="M9.97625 16.1429C9.87821 15.3953 8.64037 15.0766 8.32172 15.0582C6.563 14.9541 4.10571 14.9112 2.07737 14.9418C2.01609 15.095 2.00383 15.1257 1.93642 15.3095C2.24895 15.3095 2.44504 15.2911 2.5247 15.4075C2.61662 15.5362 2.46342 15.8794 2.24895 16.3329C1.41555 18.1283 0.680199 20.1383 0 21.8357C2.96591 21.7928 7.47606 22.2463 8.89161 20.4386C9.07545 20.2057 9.25316 19.8748 9.28993 19.5255C9.41249 18.4654 8.45653 18.4592 7.66603 18.2693C8.43815 18.0977 9.25929 17.7178 9.66373 17.1417C9.83531 16.8844 10.0191 16.4861 9.97625 16.1429ZM7.69667 19.4397C7.7702 20.0648 7.18805 20.6898 6.75297 20.9533C5.60092 21.6519 3.37648 21.3455 1.67905 21.4068C2.09575 20.4631 2.45117 19.4581 2.90463 18.5573C2.94753 18.5757 7.53734 18.0977 7.69667 19.4397ZM7.40253 17.6994C6.39142 18.2815 4.39372 18.159 3.07009 18.1528C3.42551 17.2091 3.81157 16.29 4.17924 15.3585C4.20988 15.334 4.24052 15.3156 4.27116 15.3034C5.79701 15.2972 5.8154 15.2911 6.6059 15.3034C7.27384 15.3156 8.17465 15.4075 8.34623 15.8733C8.62198 16.627 7.86825 17.4298 7.40253 17.6994Z" fill="#0D2B60"/>
<path d="M29.5243 7.00004C29.5243 7.00004 28.5868 7.31869 27.9433 8.44623C27.3305 9.51861 26.0927 12.8951 25.7495 14.3352C25.5105 15.3524 24.671 16.5719 24.4382 17.0376C23.3535 19.1823 22.2689 19.5194 21.8583 19.5378C20.6817 19.5929 20.1057 18.7779 20.1057 18.7779L20.7798 18.7228C20.7798 18.7228 21.2639 19.1823 21.987 18.7534C22.7959 18.2693 23.4087 16.8415 23.8621 15.7017C24.481 14.1207 25.1367 11.6266 25.4983 10.8606C26.8893 8.09694 27.447 7.80892 28.121 7.40448C28.8074 6.98778 29.5243 7.00004 29.5243 7.00004Z" fill="#D6430D"/>
<path d="M28.8932 7.55761C28.5561 7.79047 28.121 8.34811 28.121 8.34811C28.121 8.34811 28.8625 7.09801 29.6714 7.21444C30.756 7.36764 31.3811 9.49403 31.3811 9.49403C31.3811 9.49403 30.5845 8.26232 29.8981 7.69855C29.6224 7.47794 29.175 7.36151 28.8932 7.55761Z" fill="#D6430D"/>
<path d="M30.3332 9.64129C30.3332 9.64129 29.2792 9.76997 28.6358 10.8975C28.023 11.9699 27.735 12.4234 27.0793 13.747C26.6136 14.6784 25.6025 16.9764 25.3696 17.4421C24.285 19.5869 23.3351 19.832 22.9246 19.8504C21.748 19.9056 21.0372 19.1825 21.0372 19.1825L21.7112 19.1273C21.7112 19.1273 22.2076 19.5195 22.8327 19.0109C24.046 18.0243 24.7691 15.6099 25.5657 14.0534C26.0069 13.1832 26.6136 12.0312 27.0303 11.4613C27.7534 10.4686 28.4274 9.89866 29.2425 9.67193C29.6592 9.5555 30.3332 9.64129 30.3332 9.64129Z" fill="#F5A300"/>
<path d="M28.8931 10.7135C28.8931 10.7135 29.5366 9.72079 30.3393 9.8556C31.332 10.0211 32 12.3006 32 12.3006C32 12.3006 30.9521 10.4255 30.1126 10.0701C29.6162 9.86173 28.8931 10.7135 28.8931 10.7135Z" fill="#F5A300"/>
<path d="M29.4446 13.612C29.4446 13.612 28.5071 13.7284 27.9617 14.6108C27.6369 15.1378 26.3991 17.2948 26.3991 17.2948C26.3991 17.2948 25.4737 18.6062 25.149 19.0168C24.7077 19.5867 23.9172 20.0708 23.5067 20.0892C22.4159 20.1382 22.0298 19.5132 22.0298 19.5132L22.5323 19.4764C22.5323 19.4764 23.0226 19.7399 23.4638 19.5009C24.1072 19.1516 24.8548 17.8586 25.2347 17.2581C25.5657 16.7311 26.1968 15.7567 26.6013 15.1807C26.9812 14.6353 27.7717 13.8755 28.5806 13.6365C28.9115 13.5446 29.4446 13.612 29.4446 13.612Z" fill="#AABC14"/>
<path d="M28.3539 14.3045C28.3539 14.3045 28.8686 13.7101 29.3282 13.7836C30.0574 13.8939 30.3945 15.4627 30.3945 15.4627C30.3945 15.4627 29.843 14.2065 29.2731 13.943C28.936 13.7836 28.3539 14.3045 28.3539 14.3045Z" fill="#AABC14"/>
</svg>
