<svg width="32" height="32" viewBox="0 0 32 32" fill="none" xmlns="http://www.w3.org/2000/svg">
<path fill-rule="evenodd" clip-rule="evenodd" d="M27.75 13L27.5682 13.7784H28.6761L28.8409 13H27.75ZM16.2954 13.233L15.4204 17.3523H18.3125L18.4773 16.5341H16.7273L17.4261 13.233H16.2954ZM20.5966 14.1989C18.4637 14.2731 17.9606 17.4298 20.4091 17.4318C21.5889 17.4202 22.4441 16.8393 22.4318 15.5795C22.4102 14.65 21.6759 14.1957 20.8068 14.1989C20.7347 14.1946 20.6654 14.1965 20.5966 14.1989ZM24.5852 14.1989C22.5457 14.1732 22.2889 17.413 24.1875 17.3523C24.5802 17.3732 24.9852 17.1409 25.1989 16.8182L25.2102 16.8295C25.0582 18.0593 23.9725 18.0657 23.1136 17.6477L22.9091 18.4659C23.6239 18.7298 25.0991 18.8091 25.6193 18.2386C25.8734 17.9966 25.972 17.6445 26.0852 17.3239C26.3157 16.4864 26.4623 15.6252 26.6704 14.7841L26.8068 14.2841H25.8125L25.6761 14.8409H25.6591C25.4979 14.4009 25.023 14.203 24.5852 14.1989ZM30.6761 14.2102C28.2427 14.3367 28.0711 18.1329 31.25 17.3068L31.4148 16.5057C29.2529 17.3359 29.6482 14.2348 31.6193 15.1534L31.8523 14.4034C31.4153 14.2474 31.0237 14.1922 30.6761 14.2102ZM27.4773 14.2841L26.8182 17.3523H27.9091L28.5682 14.2841H27.4773ZM20.75 14.9489C21.1161 14.9366 21.3311 15.2357 21.3125 15.5795C21.3259 16.1 21.0945 16.677 20.4943 16.6818C20.088 16.675 19.9032 16.3811 19.9091 16C19.8927 15.5161 20.2195 14.9559 20.75 14.9489ZM24.7216 15.017C24.7474 15.0148 24.7741 15.0162 24.8011 15.017C25.7836 15.015 25.3707 16.6109 24.5852 16.5341C23.7199 16.5673 23.9223 15.086 24.7216 15.017Z" fill="#FFCC00"/>
<path fill-rule="evenodd" clip-rule="evenodd" d="M2.47727 13.2329L0 17.3522H1.21023L1.70455 16.4772H3.32386L3.44886 17.3522H4.56818L3.88636 13.2329H2.47727ZM3.02273 14.0795H3.03977L3.21591 15.6988H2.13636L3.02273 14.0795ZM6.72727 14.1988C5.28052 14.2412 4.45201 16.0241 5.40909 17.0113C6.03591 17.5822 6.95818 17.4586 7.70454 17.2556L7.8409 16.5056C7.35523 16.737 6.02386 16.9695 6.02273 16.125H8.23296C8.2827 15.9375 8.31225 15.7427 8.31817 15.5511C8.30341 14.6343 7.74614 14.2179 6.86932 14.1988C6.8214 14.1965 6.77394 14.1975 6.72727 14.1988ZM11.0682 14.1988C10.6407 14.2097 10.2684 14.5295 10.1023 14.909H10.0909L10.2102 14.284H9.20454C9.11272 15.2813 8.68136 16.445 8.5909 17.3522H9.66477L9.97727 15.9431C9.97727 15.9431 10.0269 15.5869 10.2386 15.3465C10.3784 15.1855 10.5702 15.104 10.7727 15.0852C10.8693 15.0863 10.963 15.1038 11.0568 15.1136C11.1673 15.147 11.1775 15.1559 11.2727 15.2215L11.5227 14.284C11.3257 14.2077 11.2666 14.2202 11.0682 14.1988ZM13.1818 14.1988C10.956 14.3222 10.638 17.4789 13.0057 17.4318C14.1784 17.4286 15.0398 16.8215 15.0114 15.5795C15.0257 14.6718 14.255 14.1897 13.4034 14.1988C13.3277 14.1963 13.2536 14.1948 13.1818 14.1988ZM6.88636 14.909C7.08846 14.925 7.25129 15.0195 7.31818 15.142C7.40419 15.2986 7.41477 15.5227 7.41477 15.5227H6.09091C6.16795 15.16 6.51341 14.909 6.88636 14.909ZM13.3352 14.9488C13.733 14.9425 13.9036 15.2147 13.9091 15.5795C13.9173 16.0965 13.6736 16.6877 13.0739 16.6818C12.1157 16.6588 12.4411 14.9461 13.3352 14.9488Z" fill="#5F6A6D"/>
</svg>
