<svg width="32" height="32" viewBox="0 0 32 32" fill="none" xmlns="http://www.w3.org/2000/svg">
<path d="M5.0436 12H6.33159C6.32104 12.4274 6.32807 12.8551 6.32551 13.2829C5.89778 13.2829 5.46973 13.2845 5.04168 13.2803C5.03976 12.8535 5.04392 12.4268 5.0436 12Z" fill="#11185E"/>
<path fill-rule="evenodd" clip-rule="evenodd" d="M10.5232 12H13.174C13.7878 12.0406 14.4428 12.1368 14.9367 12.5351C15.2519 12.7934 15.4412 13.1895 15.4588 13.5952C15.4987 14.0658 15.3699 14.5728 15.0205 14.9062C14.7542 15.1645 14.4074 15.317 14.0608 15.4343C14.4029 15.5261 14.7472 15.6434 15.0317 15.8608C15.2414 16.0171 15.407 16.2316 15.5039 16.4749C15.6432 16.8189 15.6595 17.2028 15.5969 17.566C15.5099 18.0464 15.2011 18.4764 14.7833 18.7261C14.2271 19.0672 13.5573 19.1544 12.916 19.1481C12.3841 19.1478 11.8521 19.1479 11.3199 19.148H11.3199L10.5216 19.1481C10.5204 17.8736 10.5213 16.5992 10.5223 15.3247C10.523 14.2164 10.5238 13.1082 10.5232 12ZM11.8714 14.3729V14.3729V14.3729C11.8713 14.5535 11.8712 14.734 11.8713 14.9145C12.2297 14.9168 12.5884 14.9155 12.9471 14.91C13.261 14.8963 13.5909 14.8237 13.8351 14.6137C14.2012 14.3078 14.2466 13.6818 13.9058 13.3404C13.6858 13.1304 13.37 13.0668 13.0756 13.0575C12.8352 13.0531 12.595 13.0547 12.3547 13.0562H12.3547C12.1929 13.0572 12.0312 13.0583 11.8694 13.0575C11.8719 13.4959 11.8717 13.9344 11.8714 14.3729ZM12.1739 18.0952C12.0731 18.095 11.9723 18.0947 11.8716 18.095C11.8729 17.7876 11.8719 17.4802 11.871 17.1728C11.8697 16.7658 11.8685 16.3588 11.8723 15.9519C12.0488 15.9542 12.2253 15.9538 12.4018 15.9534C12.5727 15.9531 12.7436 15.9527 12.9144 15.9548C13.2543 15.966 13.611 16.0299 13.8885 16.2396C14.3447 16.5948 14.3779 17.3719 13.9425 17.7565C13.6571 17.995 13.2747 18.0688 12.9132 18.0896C12.6668 18.0962 12.4202 18.0957 12.1739 18.0952Z" fill="#11185E"/>
<path d="M20.7888 12H22.0749C22.0746 14.3826 22.0752 16.7652 22.0746 19.1477C21.6456 19.1484 21.2162 19.1477 20.7869 19.1481C20.7901 16.7652 20.7882 14.3826 20.7888 12Z" fill="#11185E"/>
<path d="M23.1826 12H24.4687C24.4696 12.5911 24.4664 13.1822 24.4712 13.7733C24.7931 13.7717 25.115 13.7669 25.437 13.7691C25.4373 14.0936 25.437 14.4181 25.437 14.7425C25.1144 14.7435 24.7915 14.7422 24.469 14.7432C24.4696 15.6929 24.4667 16.643 24.4709 17.5928C24.4731 17.7987 24.4958 18.041 24.6745 18.1746C24.9104 18.3354 25.2125 18.2897 25.4782 18.2517C25.4785 18.5774 25.4785 18.9032 25.4782 19.2289C25.3666 19.2366 25.2554 19.2478 25.1441 19.2567H24.609C24.2155 19.2257 23.7922 19.1257 23.5205 18.8175C23.2353 18.494 23.1915 18.042 23.1839 17.6293C23.18 16.6673 23.1851 15.7051 23.1803 14.7432C22.9153 14.7422 22.6503 14.7432 22.3853 14.7429C22.3843 14.4203 22.3866 14.0974 22.384 13.7752C22.6497 13.7589 22.9163 13.7781 23.1823 13.7662C23.1829 13.1774 23.1823 12.5889 23.1826 12Z" fill="#11185E"/>
<path d="M25.9373 12H27.2141C27.2141 12.4274 27.2144 12.8551 27.2137 13.2826C26.7879 13.2832 26.3618 13.2832 25.9357 13.2826C25.9344 12.8551 25.9363 12.4274 25.9373 12Z" fill="#11185E"/>
<path fill-rule="evenodd" clip-rule="evenodd" d="M2.71632 13.663C1.89123 13.6096 1.04088 13.7819 0.330869 14.2141C0.331189 14.4006 0.331109 14.5872 0.331029 14.7737C0.330949 14.9602 0.330869 15.1468 0.331189 15.3333C0.904376 14.942 1.56036 14.6089 2.27037 14.6105C2.5373 14.6172 2.84036 14.6412 3.03632 14.8458C3.18166 15.0007 3.17047 15.224 3.16041 15.4246C3.15936 15.4455 3.15833 15.4661 3.15748 15.4864C3.15525 15.5643 3.07825 15.5937 3.01407 15.6182C3.00471 15.6217 2.99563 15.6252 2.98709 15.6287C2.8691 15.6685 2.7511 15.7083 2.63307 15.7481C2.28294 15.8663 1.93268 15.9844 1.58242 16.1028C1.19528 16.2281 0.801758 16.3745 0.490709 16.6462C0.198841 16.887 0.0300499 17.253 0 17.6267V17.9166C0.0313287 18.2117 0.143536 18.501 0.33982 18.7258C0.613147 19.0458 1.02745 19.2145 1.43952 19.2567H1.88963C2.41007 19.2018 2.88511 18.9367 3.26585 18.587C3.28967 18.6804 3.31317 18.7738 3.33666 18.8672C3.36016 18.9606 3.38366 19.0541 3.40747 19.1474C3.75337 19.1484 4.09926 19.1481 4.44484 19.1477C4.44442 18.6155 4.44419 18.0833 4.44395 17.551C4.44364 16.8412 4.44333 16.1313 4.4426 15.4215C4.43365 14.9711 4.34861 14.482 4.02254 14.147C3.68368 13.8017 3.1837 13.6889 2.71632 13.663ZM1.92 16.8959C2.25534 16.769 2.59261 16.6462 2.93179 16.5292C3.01267 16.5014 3.08971 16.4634 3.16388 16.4205C3.1621 16.6223 3.16252 16.8241 3.16294 17.0259C3.16343 17.2591 3.16391 17.4923 3.161 17.7255C2.9043 18.0058 2.56735 18.2306 2.19109 18.3095C1.93726 18.3645 1.64635 18.3063 1.46062 18.1168C1.27073 17.9103 1.26434 17.5874 1.37175 17.3399C1.47756 17.1187 1.70102 16.9857 1.92 16.8959Z" fill="#11185E"/>
<path d="M9.34745 13.7422C9.61439 13.653 9.90466 13.6236 10.1809 13.6862C10.1812 14.09 10.1812 14.4937 10.1789 14.8975C9.77806 14.8371 9.35608 14.9135 9.00923 15.1251C8.53802 15.3895 8.18478 15.8933 8.17518 16.4431C8.17071 17.3446 8.17327 18.2461 8.17231 19.148C7.74362 19.147 7.31492 19.1505 6.88655 19.1454C6.88623 17.3552 6.88591 15.5653 6.88655 13.7754C7.30278 13.7713 7.71868 13.77 8.1349 13.7735C8.1349 14.1008 8.13459 14.4282 8.13522 14.7559C8.43988 14.3214 8.83437 13.9167 9.34745 13.7422Z" fill="#11185E"/>
<path fill-rule="evenodd" clip-rule="evenodd" d="M18.286 13.6533C17.5492 13.6508 16.8034 13.8273 16.1723 14.2144C16.172 14.5875 16.1717 14.9605 16.1726 15.3336C16.6899 14.9807 17.2685 14.677 17.9021 14.6201C18.1281 14.6038 18.3612 14.6054 18.5798 14.6712C18.7422 14.7227 18.9075 14.8256 18.965 14.9944C19.0127 15.1428 19.0047 15.3016 18.9969 15.4558C18.9964 15.466 18.9959 15.4762 18.9954 15.4864C18.996 15.5599 18.9203 15.5941 18.8621 15.6159C18.6104 15.7031 18.3577 15.7877 18.1049 15.8722C17.7679 15.9849 17.4308 16.0976 17.0962 16.2169C16.686 16.3687 16.2772 16.6024 16.0441 16.9857C15.8434 17.3159 15.8018 17.7264 15.875 18.1007C15.9425 18.4549 16.1618 18.773 16.4607 18.9725C16.703 19.1371 16.9901 19.227 17.2803 19.2567H17.7263C18.2486 19.204 18.7243 18.9351 19.1086 18.5879C19.1263 18.6589 19.1437 18.73 19.1612 18.8011C19.1894 18.916 19.2176 19.031 19.247 19.1458C19.4723 19.1485 19.6976 19.1482 19.9231 19.148C20.0461 19.1478 20.169 19.1477 20.292 19.148C20.2922 18.4974 20.2922 17.8467 20.2921 17.196C20.2921 16.8707 20.292 16.5454 20.292 16.2201C20.2901 16.1042 20.291 15.9881 20.2919 15.872C20.2941 15.5805 20.2964 15.2888 20.2543 14.9998C20.2003 14.6165 20.0241 14.2326 19.7003 14.0053C19.2924 13.7154 18.7732 13.6575 18.286 13.6533ZM18.3378 16.6833C18.3923 16.6637 18.4468 16.6441 18.5012 16.6245C18.5434 16.6089 18.5861 16.5942 18.6287 16.5796C18.757 16.5354 18.8855 16.4913 19.0031 16.4224C19.0028 16.4659 19.0024 16.5095 19.0021 16.553C18.9991 16.9456 18.9962 17.3383 19.0002 17.7309C18.7288 18.0096 18.3906 18.2468 18.0006 18.3152C17.7451 18.361 17.4533 18.2935 17.2803 18.0902C17.1224 17.899 17.1125 17.6225 17.1895 17.3955C17.2771 17.1561 17.5041 17.0052 17.7288 16.909C17.9304 16.8298 18.1341 16.7565 18.3378 16.6833Z" fill="#11185E"/>
<path d="M28.4496 14.2975C28.8716 13.9037 29.4454 13.7 30.0161 13.6639C30.6474 13.6208 31.305 13.7227 31.8552 14.0495C31.8545 14.4391 31.8571 14.8288 31.8526 15.2185C31.6525 15.059 31.445 14.9024 31.2046 14.8077C30.8312 14.6546 30.4083 14.6207 30.0167 14.7198C29.6302 14.8202 29.3048 15.105 29.1302 15.4612C28.8665 15.9877 28.8495 16.6152 29.0088 17.1753C29.1213 17.5688 29.3684 17.948 29.7504 18.1225C30.1944 18.3217 30.7126 18.2878 31.1644 18.1315C31.4575 18.0343 31.71 17.8549 31.968 17.6913V18.7177C31.999 18.8207 31.914 18.8482 31.8523 18.8843C31.4358 19.0975 30.9757 19.2177 30.5103 19.2567H29.9601C29.464 19.2184 28.9675 19.0662 28.5765 18.75C28.1041 18.3824 27.817 17.8201 27.6923 17.2431C27.5804 16.7169 27.5833 16.1654 27.7019 15.6405C27.8192 15.1357 28.0647 14.6508 28.4496 14.2975Z" fill="#11185E"/>
<path d="M5.04168 13.7773C5.47037 13.7613 5.89906 13.7712 6.32775 13.7757C6.32392 15.5666 6.32711 17.3571 6.32551 19.1479C5.8981 19.1473 5.47069 19.1486 5.04328 19.1473C5.04488 17.3574 5.0404 15.5672 5.04168 13.7773Z" fill="#11185E"/>
<path d="M25.9334 13.7765C26.3608 13.7627 26.7886 13.7714 27.216 13.7762C27.2153 15.5664 27.2179 17.3569 27.2144 19.1474C26.7879 19.1477 26.3618 19.15 25.9357 19.1455C25.936 17.3559 25.935 15.566 25.9334 13.7765Z" fill="#11185E"/>
</svg>
