<svg width="32" height="32" viewBox="0 0 32 32" fill="none" xmlns="http://www.w3.org/2000/svg">
<path fill-rule="evenodd" clip-rule="evenodd" d="M8.69173 17.3037C8.19349 17.6982 7.34233 18.4248 6.96868 18.5285C6.63649 18.487 6.34588 18.0303 6.22132 17.6982C5.14181 18.4455 2.44298 19.0267 1.61259 18.3624C1.32198 18.1341 1.13514 17.9473 1.13514 17.6774C1.13514 17.5113 1.17667 17.3659 1.23894 17.1999C1.3012 17.0338 1.42577 16.847 1.5711 16.6601L2.04855 16.0581C0.761441 15.9335 1.48804 15.3315 2.73362 15.3315C3.16959 14.8956 3.60554 14.4596 3.89619 14.2728C4.18683 14.0859 4.43594 14.0029 4.66432 14.0029C4.68506 14.0029 4.70585 14.0029 4.72659 14.0236C4.74733 14.0444 4.74733 14.0652 4.74733 14.0859C4.74733 14.1067 4.74733 14.1274 4.72659 14.169C4.70585 14.2105 4.68506 14.2313 4.64356 14.2727L3.87545 15.1239C4.60201 15.0201 5.2248 14.854 5.68156 14.6464C6.13827 14.4388 6.32511 14.2105 6.32511 14.0029C6.32511 13.8783 6.24207 13.7745 6.076 13.7122C5.90989 13.6292 5.7023 13.6084 5.4324 13.6084C5.05877 13.6084 4.62279 13.65 4.1453 13.7538C3.66781 13.8368 3.16958 13.9821 2.60908 14.169C2.79591 14.2313 2.81666 14.335 2.65061 14.4804L1.52957 14.771C1.40498 14.7917 0.699167 15.1447 0.844487 14.6257C0.969035 14.169 1.48803 13.5462 1.7579 13.3801C1.88248 13.297 2.04855 13.214 2.27692 13.1517C3.39797 12.8196 5.55699 12.2798 6.74029 12.9649C7.44615 13.5669 6.86487 14.6257 6.09675 14.8956C5.41166 15.1239 4.58127 15.4146 3.41871 15.5391L3.16959 15.7675C3.81313 15.892 6.9064 16.0373 5.68156 17.4698C5.61925 17.5321 5.55699 17.6151 5.49472 17.6774C5.72305 17.5736 5.97217 17.4282 6.20054 17.1792C6.24208 17.0961 6.28359 17.013 6.34588 16.93C6.51195 16.7016 6.71955 16.4733 7.01019 16.2865C7.65375 15.8297 8.44261 15.4561 9.25227 15.3523C9.35606 15.3315 9.62593 15.3731 9.72972 15.4769C9.81277 15.5807 9.8543 15.6222 9.89583 15.7052C9.91657 15.726 9.89583 15.7882 9.87504 15.809C9.81277 15.8505 9.66746 15.9336 9.5844 15.9751C9.93732 16.1619 9.9581 16.3695 9.41833 16.9716C8.54642 18.1549 9.5844 17.9888 10.4563 17.1169V17.0961C10.6847 16.8677 10.8923 16.6602 11.0583 16.4734C11.2245 16.2865 11.2868 16.2035 11.432 16.0166C11.183 15.9751 10.7677 16.0997 10.6639 16.0166C10.6224 15.9543 10.7885 15.7052 10.9338 15.5391C11.3075 15.0409 11.5774 15.0201 12.1587 14.9994C12.1794 14.9579 12.2625 14.8956 12.2832 14.8333C12.5946 14.1275 13.944 13.9199 12.989 14.9786C13.1344 14.9786 13.4043 15.0616 13.4872 15.0202C13.5081 14.9994 13.425 15.3315 13.3627 15.4146C13.2382 15.6429 13.0097 15.9336 12.8645 15.9959C12.8022 16.0374 12.5324 16.0582 12.4285 16.0582C12.3455 16.0582 12.2832 16.0374 12.2416 16.0374C12.2002 16.0374 12.1587 16.0582 12.1171 16.0582C11.868 16.3488 11.6812 16.6394 11.5358 16.9508C11.3905 17.2622 11.3075 17.5529 11.3075 17.7813C11.3075 17.8642 11.3282 17.9266 11.3697 17.9681C11.4113 18.0096 11.4736 18.0303 11.5566 18.0303C11.6812 18.0303 11.868 17.9473 12.1378 17.7813C12.3663 17.6359 12.6777 17.4076 13.0513 17.0961C13.0928 17.0131 13.1344 16.9093 13.1759 16.8055C13.5703 15.726 15.501 14.9994 14.6083 16.3695C14.4215 16.6602 14.1101 16.9093 13.7364 17.2C13.7157 17.2622 13.7157 17.3037 13.6949 17.366C13.6949 17.4076 13.6949 17.4491 13.6741 17.4906C13.5703 17.7813 13.7779 17.9473 14.1101 17.885C14.2554 17.8642 14.4631 17.802 14.7121 17.6359C14.9197 17.5113 15.1273 17.366 15.3557 17.1584C15.4179 16.93 15.5217 16.681 15.6463 16.4318C15.8747 15.9959 16.2691 15.5184 16.8297 14.8956C17.3486 14.3143 18.8848 12.965 19.2793 12.9857C19.3416 12.9857 19.383 13.0065 19.4247 13.048C19.4661 13.0895 19.4869 13.131 19.4869 13.1933C19.4869 13.3801 19.051 13.8784 18.4489 14.6049C17.8468 15.3315 16.8711 16.1619 15.8747 17.1792V17.4698C16.4144 16.93 18.5528 15.207 18.8226 15.4354C20.0266 16.4941 17.8468 17.3245 17.5562 17.5529L17.4733 17.6152C17.9299 18.5078 18.8018 17.6774 19.5906 17.0131L19.6737 17.3453C19.1547 17.8642 18.7396 18.2171 18.4074 18.4248C17.9507 18.7154 17.5147 18.9022 17.0996 18.5078C16.9334 18.3418 16.6428 18.0511 16.456 17.6566C16.1861 17.7812 16.1861 17.8642 16.0823 18.0511C15.7501 18.7154 15.3141 18.6324 15.3141 17.6151C15.0235 17.9266 14.7744 18.1549 14.546 18.321C14.2554 18.5286 13.9647 18.6324 13.7364 18.6324C13.4873 18.6324 13.2797 18.5286 13.1344 18.3417C12.9891 18.1549 12.9268 17.885 12.9268 17.5529C12.5531 17.9058 12.2002 18.1756 11.8888 18.3832C11.4944 18.6324 11.1622 18.7777 10.9131 18.7777C10.7262 18.7777 10.6017 18.7361 10.4979 18.6324C10.3941 18.5493 10.3526 18.404 10.3526 18.2379C10.3526 18.0926 10.3733 17.9473 10.4356 17.7812C10.4979 17.6151 10.5809 17.4282 10.6847 17.2414C10.3318 17.9058 7.38388 20.1685 8.69173 17.3037ZM2.94126 16.0996L2.54682 16.5356C2.44299 16.6601 2.35998 16.764 2.29767 16.8885C2.23539 16.9923 2.19387 17.0961 2.19387 17.1584C2.19387 17.2829 2.27693 17.3867 2.46377 17.4698C2.65061 17.5736 2.8582 17.6151 3.10732 17.6151C3.54329 17.6151 3.95845 17.5113 4.37368 17.3037C4.78885 17.0961 4.99649 16.9093 4.99649 16.7224C4.99649 16.5979 4.80965 16.4733 4.45672 16.3695C4.10378 16.245 3.60554 16.1619 2.94126 16.0996ZM17.0165 17.1584L17.3485 17.3452C17.743 17.0546 18.1583 16.8055 18.3243 16.6601C18.9679 16.0789 18.179 16.2864 17.9091 16.4733C17.6599 16.6601 17.3279 16.8677 17.0165 17.1584ZM14.7537 15.1447C14.7537 14.9578 14.8366 14.7917 15.0027 14.6257C15.1688 14.4596 15.335 14.3766 15.5009 14.3766C15.584 14.3766 15.667 14.3973 15.7085 14.4388C15.7501 14.4804 15.7708 14.5634 15.7708 14.6465C15.7708 14.8125 15.6878 14.9786 15.5217 15.1447C15.3557 15.3315 15.2103 15.4146 15.0442 15.4146C14.9613 15.4146 14.8782 15.3938 14.8159 15.3315C14.7744 15.29 14.7537 15.2277 14.7537 15.1447ZM9.1692 16.1619C6.59496 16.847 6.59496 17.9265 7.03093 17.9265C7.17625 17.9265 7.44614 17.7604 7.88209 17.4075C8.31803 17.0338 8.73325 16.7016 9.1692 16.1619Z" fill="#B14562"/>
<path fill-rule="evenodd" clip-rule="evenodd" d="M5.14182 12.0307C4.66432 12.4874 3.00353 14.9163 1.46727 16.8263L1.23895 17.0961L1.19742 17.3245C1.19742 17.366 -0.754004 17.449 0.325498 19.8779C0.200951 20.0856 0.0971207 20.0856 0.0763814 20.6253C0.117916 20.6461 0.159439 20.6461 0.200973 20.6253C0.221712 20.2932 0.304759 20.044 0.719946 19.7326C1.09364 19.4212 2.19388 18.5908 2.46378 17.5736C2.48452 17.4698 2.52606 17.3868 2.56757 17.2829L5.97217 12.5705C5.97217 12.5705 5.53624 11.8439 5.14182 12.0307Z" fill="#F6D438"/>
<path fill-rule="evenodd" clip-rule="evenodd" d="M5.49471 12.4045C5.03798 12.965 3.77167 14.8749 2.23542 16.7848L1.96557 16.8056C2.40152 17.0339 2.31847 17.1793 2.46379 17.553C2.48453 17.5945 2.52606 17.3454 2.56757 17.283L5.97214 12.5706C5.97214 12.5706 5.8061 12.28 5.57771 12.1138C5.47391 12.0308 5.70229 12.363 5.49471 12.4045Z" fill="#DEB038"/>
<path fill-rule="evenodd" clip-rule="evenodd" d="M5.76456 12.6123C5.30785 13.1728 4.31141 14.8336 2.77516 16.7643C2.75443 16.6812 2.73363 16.5982 2.75443 16.4943C2.48454 16.6812 2.29769 17.1172 2.46379 17.5739C2.48453 17.4701 2.56757 17.3456 2.56757 17.2832L5.97214 12.5708C5.95141 12.55 5.93065 12.3631 5.76455 12.2386C5.66076 12.1556 5.88914 12.5085 5.76456 12.6123Z" fill="#74512F"/>
<path fill-rule="evenodd" clip-rule="evenodd" d="M1.48806 18.0304C1.40501 18.5909 1.03136 18.7985 0.9483 18.8816C0.927527 18.9023 0.9483 19.2553 0.906776 19.5874C1.23894 19.2345 2.96201 17.6983 1.7787 17.0962C2.29767 17.5114 1.63338 17.9889 1.48806 18.0304Z" fill="#74512F"/>
<path fill-rule="evenodd" clip-rule="evenodd" d="M1.05212 18.6118C1.77872 17.906 1.07286 17.3039 0.574641 17.7607C-0.172709 18.4457 0.470844 19.1931 1.05212 18.6118Z" fill="#5D4530"/>
<path fill-rule="evenodd" clip-rule="evenodd" d="M24.0539 16.9717C23.8878 17.1171 22.2063 18.5079 21.9364 18.4664C21.376 18.4042 20.7739 17.3039 21.0646 16.7642C21.1683 16.5773 21.2929 16.3074 21.5213 16.079C22.2478 15.3317 23.5556 14.7297 24.6975 14.4806C24.822 14.4598 24.9465 14.4598 25.1127 14.4598C25.4033 14.5428 25.6732 14.7712 25.6524 14.9995C25.6524 15.0411 25.6318 15.0618 25.6109 15.0826C25.5901 15.1033 25.5278 15.1241 25.4656 15.1656L25.2787 15.2694C25.4864 15.3317 25.5694 15.4563 25.5901 15.6224C25.6316 15.913 25.2787 16.2659 25.0088 16.5981C24.4899 17.2208 24.5521 17.8021 25.3203 17.4284C25.8185 17.2001 26.5451 16.4735 27.0226 16.1206C27.6661 15.4355 28.7664 15.2487 28.1228 16.2866C27.936 16.5773 27.583 16.8265 27.2094 17.1171C27.2094 17.1378 27.1264 17.2831 27.1264 17.3039C27.1264 17.6361 27.2924 17.8229 27.6038 17.7814C27.8945 17.7398 28.1436 17.5945 28.3512 17.4077C28.5796 17.2001 28.7872 16.9717 28.9947 16.7018C28.9324 16.7018 28.8286 16.7018 28.8079 16.6396C28.5796 16.2866 29.0362 15.7469 29.14 15.6431C29.1609 15.6224 29.8251 14.9788 29.9912 15.2902C30.0328 15.3525 29.9704 15.5393 29.929 15.6016C30.1988 15.5808 30.4272 15.5186 30.7178 15.4978C30.8423 15.477 31.1954 15.4148 31.2368 15.477C31.5689 15.8299 31.5482 16.1414 31.1952 16.4528C30.8631 16.7434 30.6555 17.0132 30.5517 17.2001C30.3441 17.5531 30.5101 17.8229 30.9254 17.6776C31.1745 17.5945 31.5067 17.3039 31.9011 16.951L31.9842 17.2416C31.4858 17.7814 31.0085 18.1758 30.6763 18.4042C29.8043 18.9647 29.3684 18.1135 29.7213 17.3869C29.8459 17.1171 30.0742 16.8057 30.4272 16.4735C30.2195 16.515 30.0328 16.5565 29.8874 16.5773C29.7422 16.5981 29.6175 16.6188 29.493 16.6396C29.3684 16.8265 29.3061 16.951 29.1609 17.1171C28.7249 17.5945 28.3096 18.072 27.9983 18.3004C27.7077 18.5079 27.3963 18.6532 27.1471 18.6532C26.5035 18.674 26.3375 17.989 26.3583 17.5115C26.3583 17.4492 26.379 17.3869 26.379 17.3454C25.6316 18.0721 24.3861 18.8401 24.1784 18.8194C23.1405 18.674 23.9294 17.3662 24.0539 16.9717ZM28.1228 15.0618C28.1021 14.875 28.2059 14.7089 28.372 14.5428C28.538 14.356 29.1193 14.1484 29.1609 14.5844C29.1816 14.7297 29.0778 14.8958 28.9324 15.0826C28.7664 15.2695 28.621 15.3525 28.4549 15.3525C28.372 15.3525 28.2889 15.3317 28.2266 15.2695C28.1436 15.2071 28.1228 15.1449 28.1228 15.0618ZM24.6768 15.5186C23.5556 15.8092 22.9329 16.2036 22.5177 16.3905C21.5212 16.8887 21.4174 18.5703 22.9744 17.0963C23.4519 16.6811 24.1162 16.1206 24.6768 15.5186ZM5.24558 13.6086C4.91343 13.6294 4.56052 13.6709 4.18682 13.7332C4.04149 13.754 3.89618 13.7955 3.75085 13.8163C3.39795 13.8993 3.04504 14.0031 2.65061 14.1276C2.83745 14.1899 2.85821 14.2937 2.69215 14.439L1.57112 14.7297C1.44653 14.7504 0.740726 15.1034 0.886034 14.5844C1.01058 14.1276 1.52958 13.5049 1.79945 13.3388C1.92403 13.2558 2.0901 13.1727 2.31845 13.1104C2.89973 12.9443 3.75086 12.716 4.60204 12.6329C5.03798 12.5914 5.47391 12.5914 5.88914 12.6537L5.24558 13.6086Z" fill="#B14562"/>
</svg>
