<svg width="32" height="32" viewBox="0 0 32 32" fill="none" xmlns="http://www.w3.org/2000/svg">
<path d="M17.4503 2C17.795 2 17.9919 2.14769 18.2134 2.24615C18.6319 2.46769 18.9027 2.64 19.4442 2.66462C19.7396 2.66462 20.035 2.68923 20.3057 2.83692C21.2657 3.28 21.8073 4.90462 21.9796 5.81538C22.0288 6.13538 22.0042 6.45538 21.9796 6.75077C21.955 7.07077 21.9304 7.34154 21.9796 7.61231C22.078 8.08 22.275 8.08 22.3734 8.08C22.4965 8.08 22.6442 8.05538 22.7919 8.00615C22.915 7.98154 23.0134 7.95692 23.1365 7.93231C23.4073 7.88308 23.678 7.88308 23.9242 7.88308C24.2934 7.88308 24.638 7.93231 24.9827 8.00615C25.3519 8.10462 25.6965 8.12923 26.0411 8.15385C26.3119 8.17846 26.5827 8.20308 26.878 8.25231C27.1734 8.30154 28.158 8.47385 28.6996 8.72C29.0196 8.84308 29.2657 9.06462 29.4873 9.28615C29.6842 9.48308 29.8811 9.65538 30.1273 9.77846C31.5057 10.5169 31.8996 11.3785 31.5057 12.7815C31.4565 12.9292 31.4319 13.0769 31.3827 13.2246C31.2596 13.6923 31.1119 14.1846 30.9642 14.6277C30.7673 15.1938 30.4719 15.44 30.1027 15.7354C30.0042 15.8338 29.8811 15.9077 29.7827 16.0062C29.4627 16.3262 29.2165 16.6954 28.9457 17.1138C28.5765 17.68 28.2073 18.2708 27.5919 18.64C27.075 18.9354 26.6565 18.96 26.1396 18.9846C26.115 18.9846 26.0657 18.9846 26.0411 18.9846C25.8196 19.1077 26.0657 19.5754 26.238 19.8954C26.3365 20.0677 26.435 20.24 26.5334 20.4862C26.5827 20.6585 26.6073 20.8308 26.6073 21.0031C26.6073 21.1508 26.6073 21.2985 26.6565 21.4215C26.6811 21.4708 26.755 21.5446 26.8288 21.5938C26.9519 21.7169 27.0996 21.84 27.1734 22.0615C27.3211 22.6031 27.2719 23.7354 27.1242 24.1292C27.075 24.2277 26.9765 24.3508 26.8534 24.4985C26.755 24.5969 26.6565 24.72 26.6073 24.7938C26.558 24.8923 26.5334 25.0154 26.5088 25.1385C26.4596 25.3354 26.435 25.5569 26.2873 25.7538C25.7457 26.5415 24.5642 26.96 23.6288 27.28C23.4073 27.3538 23.1857 27.4523 22.9888 27.5015C22.7427 27.6 22.5211 27.6492 22.3242 27.6492C22.0534 27.6492 21.8565 27.5508 21.6104 27.4277C21.4873 27.3785 21.3642 27.3046 21.2165 27.2554C20.8227 27.1077 20.4534 27.0831 20.035 27.0338C19.838 27.0092 19.6165 27.0092 19.395 26.96C18.9519 26.8862 18.6565 26.6892 18.3857 26.5169C18.3365 26.4923 18.3119 26.4677 18.2627 26.4431H18.2134C17.8196 26.4431 17.5242 26.3446 17.3273 26.1723C16.8842 26.8123 16.2196 27.28 15.2596 27.6738C14.6196 28.0431 13.9304 28.1908 13.3396 28.2892C13.1673 28.3385 13.0442 28.3877 12.9211 28.4123C12.4042 28.5846 11.838 28.6585 11.2473 28.6585C11.0257 28.6585 10.8288 28.6338 10.6073 28.6338C9.8442 28.6338 9.25343 28.4615 8.76112 28.1169C8.2442 27.8708 7.80112 27.5508 7.43189 27.1569C6.89035 26.7877 6.29958 26.3446 6.0042 25.7538C5.65958 25.0646 5.83189 24.7446 6.05343 24.3262C6.10266 24.2277 6.1765 24.1046 6.22574 23.9569C6.25035 23.9323 6.25035 23.8831 6.27497 23.8338C6.66881 22.9477 6.79189 22.5538 6.8165 22.4062C6.37343 22.2831 5.97958 21.8646 5.63497 21.2C5.43804 20.8308 5.24112 20.4862 5.11804 20.3385C5.0442 20.24 4.92112 20.1169 4.79804 19.9938C4.7242 19.92 4.60112 19.8215 4.5765 19.7969C4.18266 19.4031 3.69035 19.1569 3.19804 18.9354C2.75497 18.7138 2.3365 18.4923 1.96727 18.1723C1.72112 17.9508 1.5242 17.68 1.32727 17.3108C0.76112 16.4246 0.194966 15.4892 0.0472733 14.5785C-0.100419 13.6677 0.121119 13.1262 0.391889 12.5846C0.49035 12.3877 0.564196 12.2154 0.687273 12.0185C0.736504 11.92 0.785735 11.8215 0.834966 11.7231C0.908812 11.5754 0.933427 11.4769 0.982658 11.3785C1.08112 11.1323 1.15497 10.9354 1.45035 10.6154C1.81958 10.2215 2.11497 10.0246 2.50881 9.82769C2.95189 9.60615 3.4442 9.45846 3.83804 9.43385C3.86266 9.43385 4.13343 9.38462 4.23189 9.40923C4.33035 9.43385 4.4042 9.45846 4.50266 9.45846C4.52727 9.45846 4.52727 9.45846 4.55189 9.45846C4.65035 9.45846 4.7242 9.40923 4.82266 9.36C4.94574 9.28615 5.09343 9.28615 5.29035 9.28615H5.33958C5.75804 9.31077 7.25958 10.0738 7.70266 10.0985C7.70266 10.0985 7.80112 10.0985 7.85035 10.0985C7.89958 10.0985 7.94881 10.0492 7.94881 10.0492C8.14574 9.87692 8.29343 9.68 8.4165 9.40923C8.44112 9.38462 8.44112 9.36 8.44112 9.33538C8.46574 9.28615 8.49035 9.23692 8.49035 9.18769C8.51497 9.13846 8.51497 9.08923 8.53958 9.01538C8.63804 8.72 8.68727 8.42462 8.7365 8.10462C8.76112 8.03077 8.76112 7.93231 8.78574 7.85846L8.81035 7.78462L8.83497 7.68615C8.83497 7.66154 8.85958 7.61231 8.85958 7.61231C8.85958 7.58769 8.85958 7.56308 8.8842 7.53846V7.51385C8.8842 7.48923 8.8842 7.46462 8.90881 7.46462V7.44C8.90881 7.41538 8.90881 7.39077 8.93343 7.36615C8.93343 7.34154 8.93343 7.31692 8.95804 7.29231V7.26769C8.95804 7.24308 8.98266 7.21846 8.98266 7.19385C8.98266 7.16923 9.00727 7.14462 9.00727 7.12V7.09538C9.00727 7.07077 9.03189 7.04615 9.03189 7.02154C9.03189 6.99692 9.05651 6.97231 9.05651 6.94769V6.92308C9.05651 6.89846 9.08112 6.87385 9.08112 6.84923C9.08112 6.82462 9.10573 6.8 9.10573 6.77538V6.75077C9.10573 6.72615 9.13035 6.70154 9.13035 6.67692C9.27804 6.35692 9.3765 5.98769 9.47497 5.61846C9.6965 4.83077 9.89343 4.01846 10.6073 3.6C10.9273 3.40308 11.2473 3.37846 11.5427 3.35385C11.8134 3.32923 12.0596 3.30462 12.2811 3.18154C12.478 3.08308 12.6257 2.96 12.798 2.81231C13.0442 2.61538 13.2904 2.39385 13.635 2.29538C13.6842 2.29538 13.7088 2.27077 13.7334 2.27077H13.758C13.7827 2.27077 13.8319 2.24615 13.8565 2.24615H13.8811C13.9057 2.24615 13.9304 2.24615 13.9796 2.22154H14.0042C14.0288 2.22154 14.078 2.22154 14.1027 2.19692H14.1273C14.1519 2.19692 14.1765 2.19692 14.2011 2.19692H14.2257C14.2504 2.19692 14.275 2.19692 14.3242 2.19692H14.3734C14.398 2.19692 14.4227 2.19692 14.4473 2.19692C14.4719 2.19692 14.4965 2.19692 14.4965 2.19692C14.5211 2.19692 14.5457 2.19692 14.5457 2.19692H14.595H14.6442H14.6688H14.718H14.7427C14.8411 2.19692 14.9642 2.19692 15.1119 2.22154C15.1611 2.22154 15.2104 2.22154 15.2596 2.22154H15.2842C15.3334 2.22154 15.3827 2.22154 15.4319 2.24615C15.555 2.24615 15.6534 2.27077 15.7519 2.27077C16.0473 2.27077 16.2934 2.22154 16.6134 2.14769C16.9334 2.07385 17.2534 2 17.4503 2Z" fill="#CA5766"/>
<mask id="mask0" mask-type="alpha" maskUnits="userSpaceOnUse" x="0" y="2" width="32" height="27">
<path d="M17.0319 2.22159C16.3919 2.34466 16.0719 2.44313 15.4565 2.39389C14.8903 2.34466 14.3488 2.29543 13.7334 2.49236C13.1919 2.66466 12.8965 3.10774 12.4042 3.37851C11.8626 3.64928 11.2472 3.45236 10.7303 3.77236C9.77031 4.36313 9.79493 5.86466 9.32724 6.80005C8.81031 7.83389 9.03185 9.43389 8.04724 10.2216C8.04724 10.2216 7.99801 10.2708 7.89954 10.2954C7.8257 10.2954 7.70262 10.32 7.70262 10.32C7.25954 10.32 5.9057 9.55697 5.31493 9.50774C5.01954 9.48312 4.84724 9.65543 4.57647 9.68005C4.42877 9.70466 4.33031 9.68005 4.20724 9.68005C4.08416 9.68005 3.9857 9.65543 3.86262 9.68005C3.44416 9.72928 2.95185 9.87697 2.60724 10.0739C2.21339 10.2708 1.94262 10.4431 1.598 10.8124C1.20416 11.2308 1.25339 11.4031 1.03185 11.8708C0.539543 12.9293 0.0472355 13.3724 0.268774 14.6031C0.441082 15.6616 1.17954 16.72 1.77031 17.6308C2.45954 18.6893 3.83801 18.8124 4.79801 19.7231C5.14262 20.0677 5.53647 20.437 5.83185 20.8062C6.07801 21.1262 6.98878 22.0124 7.06262 22.357C7.11185 22.6277 6.59493 23.7847 6.47185 24.1047C6.20108 24.7693 5.85647 24.9416 6.25031 25.7293C6.71801 26.6647 8.04724 27.2554 8.81031 27.92C9.84416 28.8062 11.3949 28.4862 12.6503 28.2893C13.9549 28.0924 15.1365 27.8954 16.1703 26.837C16.7119 26.2954 16.9334 25.7293 17.8195 26.0247C18.4842 26.2462 18.7303 26.7139 19.4442 26.837C20.1334 26.9354 20.6995 26.8862 21.3149 27.1324C22.0042 27.4031 22.1765 27.6739 22.9642 27.3539C23.8995 26.9847 25.5242 26.5908 26.1642 25.6554C26.3611 25.36 26.3365 25.0154 26.4595 24.72C26.558 24.5231 26.9026 24.2277 26.9519 24.0554C27.0995 23.7108 27.1488 22.6031 27.0011 22.1108C26.9026 21.8154 26.5826 21.6924 26.5088 21.4708C26.4103 21.1754 26.5088 20.8062 26.3857 20.5354C26.1149 19.8216 25.4749 19.1324 25.9426 18.8124C26.0165 18.7631 26.9765 18.7877 27.5426 18.4677C28.5765 17.877 28.8719 16.6216 29.7088 15.8585C30.2011 15.4154 30.5949 15.2185 30.8411 14.5293C31.038 13.9631 31.2103 13.3231 31.3826 12.7077C31.8011 11.3047 31.2842 10.5662 30.1026 9.9262C29.5611 9.63082 29.2165 9.11389 28.6749 8.89236C28.2072 8.69543 27.3703 8.52312 26.9026 8.42466C26.2134 8.30159 25.6226 8.3262 24.9826 8.17851C24.4165 8.03082 23.8257 8.03082 23.1857 8.12928C22.5211 8.22774 22.0288 8.52312 21.8319 7.66159C21.7088 7.09543 21.9303 6.43082 21.8319 5.86466C21.6595 4.97851 21.1426 3.42774 20.2565 3.00928C19.7395 2.76312 19.1488 2.93543 18.5826 2.61543C18.0903 2.34466 17.8442 2.22159 17.3519 2.22159C17.2534 2.19697 17.1303 2.19697 17.0319 2.22159Z" fill="white"/>
</mask>
<g mask="url(#mask0)">
<path d="M31.8011 2.19702H0.0472412V28.7816H31.8011V2.19702Z" fill="url(#paint0_radial)"/>
</g>
<mask id="mask1" mask-type="alpha" maskUnits="userSpaceOnUse" x="8" y="2" width="14" height="12">
<path d="M17.2781 2.17224C17.2042 2.17224 17.1057 2.19686 17.0073 2.22147C16.3673 2.34455 16.0473 2.44301 15.4319 2.36916C15.3334 2.36916 14.9642 2.34455 14.8165 2.34455C14.4473 2.31993 14.1027 2.36916 13.7088 2.49224C13.1673 2.66455 12.8719 3.10763 12.3796 3.3784C11.8381 3.64916 11.2227 3.45224 10.7057 3.77224C9.74575 4.36301 9.77036 5.86455 9.30267 6.79993C8.90882 7.56301 8.93344 8.6707 8.56421 9.48301C8.58882 9.77839 8.63806 10.0738 8.73652 10.3692C8.88421 10.8369 9.79498 10.8122 9.62267 11.6984L9.64729 11.8461C10.3611 14.2584 14.6688 13.643 15.8996 12.7076C16.515 12.2153 17.6965 11.8461 18.1888 11.2307C18.6073 10.6892 19.9611 10.2707 20.3057 9.70455C20.8473 8.81839 21.5119 7.63686 21.4627 6.82455C21.2657 4.31378 19.7396 3.15686 18.5827 2.61532C18.0165 2.36916 17.8688 2.17224 17.3519 2.17224C17.3273 2.17224 17.3027 2.17224 17.2781 2.17224Z" fill="white"/>
</mask>
<g mask="url(#mask1)">
<path d="M21.5366 2.17224H8.58887V14.2338H21.5366V2.17224Z" fill="url(#paint1_radial)"/>
</g>
<mask id="mask2" mask-type="alpha" maskUnits="userSpaceOnUse" x="9" y="2" width="13" height="14">
<path d="M17.7211 2.49231C17.6472 2.49231 17.5488 2.51692 17.4503 2.54154C16.7857 2.66462 16.4657 2.78769 15.8257 2.71385C15.7272 2.71385 15.3088 2.68923 15.2103 2.66462C14.8411 2.66462 14.4718 2.68923 14.0534 2.81231C13.4872 2.98462 13.1918 3.45231 12.6749 3.72308C12.1088 4.01846 11.4688 3.79692 10.9518 4.14154C10.4103 4.46154 9.77029 5.64308 9.57337 7.12C9.49952 7.61231 9.84414 8.08 9.77029 8.64616C9.47491 11.0585 10.1641 10.4923 10.6811 11.4769C11.6411 13.2985 11.5426 13.84 11.0749 13.7415C11.6164 14.3815 12.0841 15.1938 11.6903 15.7108C13.3395 16.0554 15.4072 15.6123 16.1949 14.9969C16.8595 14.5046 17.7457 14.0123 18.238 13.3723C18.6811 12.8308 19.4688 11.0585 19.838 10.4923C20.4041 9.58154 20.9949 9.38462 21.438 7.68616C22.1764 4.85539 20.7241 3.62462 19.198 2.98462C18.7303 2.78769 18.1149 2.49231 17.7949 2.49231C17.7457 2.49231 17.7211 2.49231 17.7211 2.49231Z" fill="white"/>
</mask>
<g mask="url(#mask2)">
<path d="M22.1272 2.49231H9.45032V16.0308H22.1272V2.49231Z" fill="url(#paint2_radial)"/>
</g>
<mask id="mask3" mask-type="alpha" maskUnits="userSpaceOnUse" x="6" y="17" width="13" height="12">
<path d="M15.2842 17.5815C14.275 17.8523 12.4534 17.6062 11.5673 18.1969C10.7796 18.7385 10.0657 19.4769 9.67189 20.3385C8.76112 21.3477 7.75189 22.2338 7.18573 22.9969C6.57035 23.8585 6.44727 25.2369 6.84112 26.0246C7.94881 28.24 10.7303 28.9292 12.8473 28.2646C14.915 27.7969 17.4257 27.2062 17.7211 24.4738C17.8688 23.12 18.238 21.7169 17.795 20.4615C17.475 19.5508 17.3765 17.5077 15.7765 17.5077C15.6534 17.5077 15.4811 17.5323 15.2842 17.5815Z" fill="white"/>
</mask>
<g mask="url(#mask3)">
<path d="M18.3119 17.5077H6.49652V28.9292H18.3119V17.5077Z" fill="url(#paint3_radial)"/>
</g>
<mask id="mask4" mask-type="alpha" maskUnits="userSpaceOnUse" x="0" y="10" width="12" height="13">
<path d="M0.244199 14.2092C0.219584 15.1938 1.03189 16.2769 1.45035 17.1384C2.09035 18.3692 2.65651 18.4184 3.7642 19.0338C4.69958 19.5261 5.29035 20.1169 5.83189 21.1507C7.21035 23.7846 8.68727 21.323 9.89343 20.363C10.7796 19.6492 11.3211 18.0492 11.0504 16.8923C10.878 16.1292 10.2627 15.0215 9.62266 14.5538L10.0165 14.8246C9.49958 14.3323 9.89343 13.6923 9.67189 13.1015C9.47497 12.56 9.15497 11.92 8.85958 11.3292C8.44112 10.4431 7.94881 10.6646 7.50574 10.8861C7.2842 11.0092 7.06266 11.1323 6.86574 11.0831C6.29958 10.9354 5.48727 10.7631 4.97035 10.5415C4.60112 10.3938 4.23189 10.3446 3.88728 10.3446C2.01651 10.2954 0.29343 12.1415 0.244199 14.2092Z" fill="white"/>
</mask>
<g mask="url(#mask4)">
<path d="M11.3211 10.2954H0.219604V23.76H11.3211V10.2954Z" fill="url(#paint4_radial)"/>
</g>
<mask id="mask5" mask-type="alpha" maskUnits="userSpaceOnUse" x="16" y="8" width="15" height="13">
<path d="M22.595 8.44925C22.0288 8.54771 21.438 8.96617 21.0196 9.23694C20.5765 9.60617 20.3057 10.4923 19.838 10.7631C18.7796 11.2554 18.755 11.5016 18.1888 12.4123C17.7211 13.1508 17.1304 14.2092 16.6627 15.0216C16.6627 15.3416 16.6873 15.6616 16.7365 15.9569C16.835 16.4739 17.4257 17.2862 17.4011 17.7292L17.4257 17.5569C17.918 20.1662 23.2104 20.9539 22.2257 19.6739C19.715 16.4 23.6288 14.8 24.1211 15.3908C27.198 19.2308 28.4534 16.9662 28.7488 16.5723C29.3888 15.7108 29.8811 14.8492 30.0288 13.9877C31.0134 8.54771 27.9611 9.31079 26.238 8.54771C26.1642 8.54771 26.0657 8.54771 25.9673 8.54771C25.3027 8.59694 24.9827 8.64617 24.3427 8.49848C24.2442 8.47386 24.1457 8.44925 24.0473 8.42463C23.9488 8.42463 23.8504 8.40002 23.7519 8.3754C23.555 8.35079 23.358 8.32617 23.1365 8.32617C22.9642 8.42463 22.7673 8.42463 22.595 8.44925Z" fill="white"/>
</mask>
<g mask="url(#mask5)">
<path d="M31.0134 8.42456H16.638V21.003H31.0134V8.42456Z" fill="url(#paint5_radial)"/>
</g>
<mask id="mask6" mask-type="alpha" maskUnits="userSpaceOnUse" x="7" y="9" width="19" height="18">
<path d="M22.0534 19.3046H22.078V19.28C22.078 19.28 22.078 19.28 22.0534 19.3046ZM20.9949 9.2369C20.8472 9.4092 20.6749 9.58151 20.5765 9.7292C20.3549 10.0984 20.2319 10.2954 19.8134 10.5415C19.518 10.7138 19.2965 10.7877 19.0749 11.0338C18.878 11.28 18.7057 11.5261 18.5334 11.7723C18.1888 12.2646 17.4996 12.3877 16.9088 12.3877C16.7611 12.3877 16.6134 12.3877 16.4903 12.3877C15.6534 12.9292 14.7672 13.2492 13.9796 13.0523C13.4872 12.9292 12.8719 12.043 12.4042 12.1169C11.9365 12.1907 12.6749 12.4369 12.3057 12.8307C11.8872 13.2738 11.3949 12.9046 11.0257 12.5354C10.7796 12.2892 10.6072 12.043 10.5826 12.043C10.4842 12.0677 10.6072 12.3384 10.5826 12.4615C10.558 12.7323 10.3365 12.88 10.3119 13.1507C10.2873 13.4215 10.3119 13.5692 10.3611 13.6923C10.4103 13.84 10.4842 14.0615 10.4596 14.3323C10.4596 14.8 10.4596 14.6523 10.4349 15.0954C10.3857 16.0061 10.0165 16.4 9.79494 17.2861C9.54879 18.2707 10.5826 18.7877 9.35187 20.6338C8.9334 21.2492 7.11187 22.1107 7.21033 22.8246C7.72725 22.7261 8.02263 22.16 8.39187 21.7907C9.27802 20.9046 11.6903 19.9692 13.0934 19.8954C14.5703 19.8215 13.1672 21.4707 13.5611 21.7907C13.9549 22.1107 13.1672 22.9723 13.6103 22.7507C14.078 22.5292 14.718 20.3877 14.9888 19.8461C15.1611 19.5015 17.4996 14.0861 17.5488 22.2584C17.5488 23.0461 18.0165 23.4154 17.7949 24.1538C17.6965 24.4984 16.318 26.4677 18.5826 26.2461C18.878 24.5477 17.598 23.3415 18.2626 22.5046C18.6073 22.0615 19.8626 21.9877 19.838 21.3969C19.7888 20.1415 20.3796 20.1661 20.9211 20.1907C21.2411 20.2154 21.5611 20.2154 21.7088 19.9446C21.9303 19.5015 22.0288 19.3292 22.078 19.28C22.0534 19.28 22.0288 19.2307 22.0042 19.083C21.9549 18.5169 22.4473 18.5169 22.2011 17.9754C22.7426 18.0984 22.8903 17.5815 23.3334 17.4584C23.6288 17.3846 24.2442 17.4092 24.5642 17.4584C25.3026 17.5815 25.6719 18.7877 25.8196 18.7138C25.9919 18.443 25.5734 17.803 25.1796 17.4584C24.8596 17.163 24.4903 16.5969 24.2442 16.2523C23.8749 15.76 24.1211 15.0954 23.5549 14.8C23.3826 14.7015 23.2596 14.7507 23.0872 14.7754C22.8411 14.8246 22.5457 14.8738 21.9796 14.5292C19.0503 16.5969 21.5365 13.4707 21.3642 12.7077C21.0196 11.6984 20.2073 11.403 21.0442 9.2369C21.0442 9.2369 21.0442 9.21228 21.0196 9.21228C20.9949 9.2369 20.9949 9.2369 20.9949 9.2369Z" fill="white"/>
</mask>
<g mask="url(#mask6)">
<path d="M25.9918 9.23694H7.08722V26.4677H25.9918V9.23694Z" fill="url(#paint6_radial)"/>
</g>
<path d="M11.715 19.6985C11.4196 19.477 11.715 18.6893 12.0842 18.32C12.4535 17.9262 12.995 17.3108 12.8473 17.237C12.6996 17.1631 12.0842 17.3108 11.8873 17.237C11.6904 17.1631 12.9704 16.6462 13.1181 16.5723C13.2658 16.4985 12.2073 16.2031 11.8135 16.1539C11.4196 16.1047 10.6319 16.2277 10.7058 16.0554C10.7796 15.8831 11.2473 15.6616 11.3458 15.5631C11.4442 15.4647 10.7304 15.0954 10.6811 14.9231C10.6319 14.7508 10.8288 14.5785 11.5427 14.7508C12.2811 14.9231 12.8719 14.8493 13.1919 14.9231C13.5119 14.997 13.6842 15.0708 13.8073 15.1447C13.9304 15.2185 14.0288 14.9477 14.1273 14.997C14.2258 15.0462 14.4473 15.1939 14.4719 15.0462C14.4965 14.8985 14.3735 14.6277 14.1765 14.4554C13.9796 14.2831 13.6596 13.9139 13.6104 13.7908C13.5611 13.6677 13.4135 13.3477 13.5858 13.2739C13.7581 13.2 13.9304 13.2739 14.0288 13.2247C14.1273 13.1754 14.2996 12.9047 14.5704 13.0277C14.8411 13.1262 14.9396 13.2493 15.0381 13.2985C15.1119 13.3477 15.2596 13.397 15.3827 13.3477C15.5058 13.2985 15.7027 13.077 15.9242 13.2C16.1458 13.3477 16.5642 13.6677 16.9335 13.5939C17.3027 13.52 17.5242 13.3231 17.6227 13.1016C17.7211 12.88 18.0411 12.1908 18.1642 12.0677C18.2873 11.9447 18.6319 11.6739 18.5827 11.7724C18.5335 11.8708 18.2135 12.6093 18.2135 12.9785C18.2381 13.3477 18.1642 13.4462 18.2627 13.52C18.3858 13.6185 18.5334 13.5693 18.6565 13.52C18.7796 13.4708 19.0011 13.2985 19.0258 13.397C19.0504 13.4954 18.2873 14.0123 18.0658 14.2339C17.8442 14.4554 17.6227 14.8985 17.7211 15.0954C17.8196 15.2677 18.2627 15.1939 18.4842 15.1939C18.7058 15.1939 19.1734 15.2185 19.1242 15.3416C19.075 15.44 18.2627 15.9816 18.2627 16.08C18.2627 16.1785 18.7304 16.3508 19.0258 16.3508C19.2965 16.3508 19.9365 16.4739 20.1827 16.5231C20.4288 16.5723 20.6504 16.5723 20.6996 16.72C20.7488 16.8677 20.8227 16.9908 20.7488 16.9908C20.6504 16.9908 20.1088 16.917 19.9365 16.8431C19.7642 16.7693 18.8288 16.5723 18.6073 16.5723C18.3858 16.5723 17.7704 16.5723 17.6719 16.7693C17.5488 16.9908 18.0165 17.1139 18.115 17.2123C18.2135 17.3108 18.5827 17.7047 18.3611 17.7293C18.1396 17.7785 17.9427 17.6062 17.8442 17.5816C17.7458 17.557 17.4011 17.3108 17.3027 17.237C17.2042 17.1631 16.8104 16.7447 16.6381 16.7693C16.4411 16.7939 16.0473 16.8677 15.8258 16.9908C15.6042 17.1385 15.3581 17.4093 15.235 17.557C15.1119 17.7047 14.5704 18.0493 14.3488 18.2216C14.1273 18.3939 12.9211 19.3539 12.6996 19.5262C12.5273 19.6493 11.9858 19.8708 11.715 19.6985Z" fill="white"/>
<path d="M15.2103 12.5108C15.1119 12.3877 15.1611 12.0677 15.2349 11.8708C15.3088 11.6985 15.8257 10.7385 16.3673 10.9354C16.5888 11.0093 16.7365 11.1077 16.7857 11.3293C16.8842 11.7231 16.9088 12.2893 16.6134 12.5847C16.1949 13.0031 15.4565 12.88 15.2103 12.5108ZM12.6996 13.6677C12.8473 13.6431 13.0442 13.4462 13.0934 13.2985C13.1426 13.1016 13.5365 13.077 13.5611 13.0031C13.5857 12.9293 13.1426 11.8708 12.9211 11.7723C12.6503 11.6493 12.5519 11.8462 12.3057 11.8216C12.1088 11.797 11.9365 11.7231 11.8134 11.9447C11.6411 12.2647 11.2965 12.6831 11.5673 13.0277C11.838 13.397 12.2319 13.7662 12.6996 13.6677ZM18.7057 14.5047C18.6319 14.5785 18.4842 14.6523 18.3857 14.5293C18.7057 14.16 18.9765 14.0123 19.3457 13.717C19.4934 13.5693 19.3703 12.9293 19.4442 12.7323C19.518 12.5108 20.1826 12.0677 20.4534 12.2154C20.6011 12.2893 20.7488 12.3385 20.8226 12.4616C20.9703 12.7077 20.9703 13.1016 20.9703 13.2985C20.9703 13.5693 20.8473 13.7416 20.7734 13.9877C20.6996 14.2339 20.2811 14.1847 20.0842 14.2093C19.8134 14.2339 19.5673 14.037 19.3457 14.1847C19.198 14.2831 18.8288 14.3816 18.7057 14.5047ZM15.8011 15.3908C15.8749 15.2185 15.8011 14.997 15.8257 14.8247C15.8503 14.7016 15.8996 14.48 15.7519 14.4062C15.678 14.7262 15.6288 15.0708 15.7519 15.3908C15.7519 15.44 15.8011 15.3908 15.8011 15.3908ZM9.86879 16.2523C10.2134 15.76 10.5826 15.5877 11.0257 15.5139C11.0257 15.4647 10.9026 15.4154 10.8534 15.4154C10.558 15.3416 10.3119 15.1693 10.1149 14.9477C9.74572 14.48 9.52418 14.1108 8.88418 14.3077C8.21956 14.5047 8.19495 15.5877 8.39187 16.1293C8.63803 16.7447 9.49956 16.8185 9.86879 16.2523ZM22.9149 15.44C23.6042 15.1939 24.1457 15.5139 23.8011 16.08C23.6288 16.3754 23.678 16.6954 23.4811 16.9908C23.3334 17.2123 22.9642 17.36 22.6688 17.237C22.4226 17.1385 22.0534 16.9908 21.8811 16.7939C21.6596 16.5723 21.6103 16.4 21.2657 16.3262C20.7242 16.1785 20.1088 16.3262 19.5673 16.1047C20.1826 15.7847 20.8965 16.1293 21.5365 16.08C21.8319 16.1047 22.0288 15.6123 22.9149 15.44ZM19.5673 16.1047C19.3949 16.0062 19.198 16.0062 19.0749 16.08C19.198 16.1293 19.4688 16.1539 19.5673 16.1047ZM11.2226 18.0739C10.6073 17.3354 9.30264 18.7385 9.20418 18.837C9.10572 18.9354 8.85956 19.1077 8.83495 19.2062C8.7611 19.5016 9.42572 19.8954 9.64726 20.0185C9.91803 20.1908 10.1642 20.5847 10.5334 20.3139C10.9026 20.0431 10.9519 19.7723 11.0503 19.3293C11.1488 18.9354 11.2965 18.5416 11.5919 18.2708C11.8873 18 12.2565 17.7785 12.5026 17.4585C11.9119 17.4093 11.6657 17.9016 11.2226 18.0739ZM20.4534 14.8985C20.3303 14.4308 19.4934 14.9231 19.2965 14.8739C19.5426 14.9231 19.8873 14.9231 20.1826 14.9723C20.2811 14.9723 20.478 14.997 20.4534 14.8985ZM16.8596 17.6062C17.1057 17.7293 17.1796 18.0739 17.4257 18.197C17.6226 18.32 17.9426 18.4677 18.1396 18.64C18.238 18.7139 18.3611 19.1077 18.1888 19.2062C17.918 19.3293 17.8196 18.8123 17.6965 19.2554C17.5488 19.6985 17.0319 19.8954 16.9334 20.3631C16.8596 20.6831 16.638 21.1262 16.8349 21.4462C16.9088 21.5447 17.0073 21.5939 17.1057 21.5939C17.3519 21.6185 17.4011 21.6185 17.598 21.7416C17.8688 21.9139 18.0903 21.9877 18.3611 21.8647C18.6319 21.7416 18.878 21.5447 18.9273 21.2247C18.9026 20.88 18.7796 20.5354 18.7796 20.1908C18.7796 19.8462 18.9519 19.6247 18.7549 19.28C18.6073 19.0093 18.4842 18.8616 18.238 18.6647C18.0411 18.517 17.9919 18.2708 17.8442 18.0739C17.6226 17.7539 17.2288 17.3847 17.0811 17.237C16.9334 17.0893 16.7857 16.9908 16.5396 16.9908C16.2934 16.9908 15.9488 17.2616 15.7765 17.4585C15.5549 17.7293 15.2596 17.877 15.0134 18.0985C14.7673 18.3447 14.8165 18.7139 14.6934 19.0093C14.5949 19.2554 14.3734 19.5754 14.3488 19.8462C14.5211 19.7477 14.6442 19.477 14.7426 19.3293C14.8165 19.2062 14.8903 19.0831 14.9888 18.9847C15.0873 18.8616 15.2349 18.8616 15.3334 18.7631C15.6288 18.4677 15.6534 18.1231 15.8503 17.7785C16.0473 17.5323 16.6134 17.4831 16.8596 17.6062ZM22.4965 20.5354C22.4719 20.3631 22.4226 20.1662 22.4473 19.9693C22.4965 19.7231 22.4226 19.5508 22.3242 19.3293C22.2011 19.0831 21.8073 18.4923 21.438 18.6647C21.3149 18.7139 21.1919 18.8616 21.0442 18.7877C20.8719 18.6893 20.8226 18.517 20.6011 18.4431C20.4042 18.3693 20.1826 18.3447 19.9857 18.2954C19.8626 18.2708 19.7396 18.2216 19.5673 18.2216C19.6903 18.517 20.158 18.6893 20.4042 18.8616C20.8965 19.28 20.6749 19.7477 20.6257 20.2893C20.6257 20.4616 20.5765 20.6831 20.6749 20.8308C20.7734 20.9785 21.1919 21.0277 21.2903 21.077C21.3396 21.1016 21.8565 21.2985 22.078 21.1754C22.3242 21.0523 22.5211 20.6831 22.4965 20.5354ZM16.9334 25.3847C17.0811 25.36 17.278 25.5077 17.6226 25.6308C17.9426 25.7539 18.2134 25.8277 18.4842 25.8523C18.7549 25.8523 19.2473 26.1723 19.3457 26.3447C19.4442 26.517 19.4934 27.0093 19.3211 27.28C19.1734 27.5508 18.9026 27.92 19.0503 28.5354C19.198 29.1508 19.4442 29.3723 19.0011 29.3231C18.558 29.2739 18.238 29.1262 17.9673 29.0523C17.7211 28.9785 17.3519 28.9293 17.0565 28.5847C16.7857 28.24 16.5888 28.3139 16.1457 28.0185C15.678 27.7477 15.4073 27.157 15.6288 26.9108C15.8503 26.6647 16.5642 26.0247 16.638 25.9016C16.7365 25.8031 16.8596 25.4093 16.9334 25.3847ZM25.9919 21.7908C25.9919 21.6431 26.3119 21.4216 26.3365 21.3477C26.3611 21.2493 26.3611 20.7077 26.3119 20.4862C26.2626 20.2647 26.2134 19.9939 26.3857 19.8954C26.558 19.797 27.0257 19.6247 27.2965 19.7477C27.5673 19.8708 27.8134 19.9693 28.0596 20.0677C28.3303 20.1662 28.9949 20.5108 29.118 20.757C29.2411 21.0031 29.3888 21.2739 29.2165 21.5447C29.0442 21.8154 29.0442 22.0123 28.8965 22.1354C28.7734 22.2585 28.4042 22.5047 28.2319 22.7508C28.0349 22.997 27.9119 23.5139 27.6657 23.6123C27.4442 23.7354 26.9765 23.8585 26.8534 23.7108C26.7303 23.5385 26.6565 23.1939 26.6811 23.0708C26.7057 22.9231 27.0257 22.677 26.9519 22.4308C26.878 22.2093 26.6319 22.16 26.3857 22.0862C26.1396 22.0123 25.9919 21.9385 25.9919 21.7908ZM4.67495 23.8339C4.55187 23.7108 4.42879 23.5877 4.50264 23.4647C4.55187 23.3416 4.72418 23.0462 4.74879 22.8247C4.77341 22.6031 4.77341 22.0616 4.74879 21.9139C4.72418 21.7662 4.82264 21.52 4.87187 21.3723C4.9211 21.2247 4.87187 20.9539 5.11803 20.88C5.38879 20.7816 5.65956 20.8062 5.8811 20.8554C6.12726 20.9047 6.59495 21.0277 6.71803 21.2739C6.8411 21.52 6.93956 21.8154 7.08726 21.9385C7.23495 22.037 7.70264 22.2585 7.72726 22.3077C7.72726 22.3816 7.62879 22.48 7.4811 22.7508C7.30879 23.0462 7.33341 23.76 7.30879 23.9077C7.28418 24.0554 7.30879 24.597 7.11187 24.72C6.91495 24.8431 6.61956 24.72 6.37341 24.597C6.10264 24.4739 5.73341 24.3262 5.58572 24.1785C5.46264 24.0554 5.46264 23.8831 5.36418 23.8585C5.2411 23.8093 4.79803 23.9816 4.67495 23.8339ZM14.5949 21.1754C14.6934 21.2985 14.7426 21.6431 14.7426 21.7416C14.7426 21.9631 14.718 22.2339 14.5949 22.3816C14.4965 22.5293 14.1273 22.7262 14.0042 22.7508C13.8811 22.8 13.5611 22.8985 13.3642 22.7508C13.2903 22.677 12.9949 22.48 12.9211 22.3077C12.8226 22.1354 12.7242 21.4708 13.0688 21.1016C13.2165 20.9293 13.5119 20.9047 13.7088 20.757C13.8811 20.6093 14.0288 20.4616 14.2011 20.3385C14.2257 20.5108 14.078 20.7323 14.2011 20.9047C14.3242 21.0277 14.4965 21.077 14.5949 21.1754ZM18.7796 17.04C18.558 17.0154 18.4349 16.9416 18.1888 16.9416C18.3365 17.1631 18.7057 17.1139 18.9273 17.2123C19.0257 17.2616 19.0996 17.3354 19.198 17.3847C19.4442 17.5323 19.9119 17.7047 19.9857 17.7785C20.0596 17.8523 20.5026 18.0493 20.7488 17.9508C20.8473 17.9016 21.0442 17.877 20.9949 17.7293C20.798 17.3354 20.2319 17.4585 19.9365 17.2862C19.838 17.237 19.838 17.1385 19.6903 17.1139C19.5426 17.0893 19.3703 17.1139 19.2719 17.0647C19.1488 17.0154 18.9273 17.0647 18.7796 17.04ZM16.0226 13.397C16.0226 13.397 16.0226 13.4708 15.998 13.6431C15.9734 13.8154 15.8749 14.1847 16.0473 14.48C16.0473 14.48 16.1457 14.3816 16.1211 14.1108C16.0965 13.84 16.1457 13.8154 16.1457 13.717C16.1211 13.6431 16.0226 13.397 16.0226 13.397Z" fill="#A12132"/>
<path d="M15.0134 16.5724C15.1119 16.6955 14.9642 16.8924 14.8903 17.0155C14.7919 17.1385 14.6442 17.2124 14.3488 17.5324C14.0534 17.8524 13.7334 18.2216 13.6349 18.3201C13.5611 18.4185 13.3642 18.7139 13.2903 18.6647C13.2165 18.5908 13.438 18.197 13.4873 18.0985C13.5365 18.0001 13.8565 17.5816 13.9796 17.5078C14.078 17.4339 14.6442 16.9662 14.6442 16.917C14.6196 16.8432 14.4473 16.8678 14.3488 16.8924C14.2503 16.917 13.8319 17.0647 13.7088 17.0893C13.5857 17.1139 13.438 17.0401 13.6103 16.8924C13.7826 16.7447 13.8319 16.7201 13.9303 16.6955C14.0288 16.6708 14.2749 16.6708 14.3242 16.6216C14.3734 16.5724 14.398 16.4001 14.3242 16.3508C14.2749 16.3016 14.2011 16.3508 14.1273 16.3508C14.0534 16.3508 13.1919 16.2032 13.0442 16.1785C12.8965 16.1539 12.0842 15.9324 11.9365 15.9078C11.7888 15.8832 11.7642 15.7847 12.0103 15.7847C12.2565 15.7847 12.6749 15.8585 12.8226 15.8585C12.9703 15.8585 13.1673 15.8339 13.3149 15.8339C13.4873 15.8339 13.9303 15.9324 14.078 15.8832C14.2257 15.8339 14.398 15.7601 14.4473 15.6616C14.4719 15.5632 14.4965 15.4647 14.4226 15.3908C14.3488 15.317 13.9796 15.0708 13.8811 14.8739C13.7826 14.677 13.6842 14.5047 13.5857 14.4308C13.4873 14.3816 13.3149 14.357 13.2411 14.2585C13.1673 14.1601 13.1426 13.8893 13.2657 13.9385C13.3888 13.9878 13.7334 14.1847 13.7826 14.2585C13.8319 14.3324 13.9303 14.5047 14.0288 14.6278C14.1273 14.7508 14.3734 14.9724 14.4719 15.0462C14.5703 15.1201 14.7919 15.2678 14.8657 15.4155C15.2103 15.4401 15.2842 15.4155 15.5057 15.4155C15.7273 15.4155 16.0965 15.4647 16.1703 15.4893C16.2442 15.5385 16.4903 15.637 16.5642 15.5632C16.638 15.4893 16.8842 14.997 16.958 14.8739C17.0565 14.7508 17.4749 14.2339 17.5488 14.1108C17.6226 13.9878 18.1149 13.5939 18.1642 13.6185C18.2134 13.6432 18.3119 13.717 18.1149 13.8647C17.9426 14.037 17.4257 14.5293 17.3519 14.6524C17.278 14.7755 16.9826 15.2432 16.9334 15.3416C16.8842 15.4401 16.7365 15.5385 16.7611 15.6124C16.8103 15.6862 17.1057 15.7601 17.1796 15.8093C17.2534 15.8832 17.4257 16.2278 17.3026 16.3016C17.1796 16.4001 17.0073 16.3016 16.8842 16.1785C16.7611 16.0555 16.7119 15.9078 16.5642 15.8339C16.4411 15.7601 16.2688 15.7108 16.0473 15.637C15.8011 15.5632 15.2842 15.5385 15.1365 15.5632C14.9888 15.6124 14.6934 15.7108 14.6934 15.8585C14.6688 16.0308 14.7426 16.2278 15.0134 16.5724Z" fill="#A12132"/>
<path d="M15.4073 15.0954C15.3334 15.0954 15.0627 14.8492 14.9642 14.6769C14.8657 14.5046 14.6934 14.16 14.6196 14.0615C14.5457 13.9877 14.5211 13.7908 14.4473 13.7415C14.3981 13.6923 14.1027 13.3477 14.1765 13.2985C14.2504 13.2492 14.5457 13.5446 14.595 13.6431C14.6442 13.7169 14.915 14.1354 14.9888 14.2338C15.0627 14.3323 15.2842 14.6769 15.3334 14.7754C15.4073 14.8492 15.5057 15.0954 15.4073 15.0954Z" fill="#A12132"/>
<defs>
<radialGradient id="paint0_radial" cx="0" cy="0" r="1" gradientUnits="userSpaceOnUse" gradientTransform="translate(13.3115 15.3817) scale(14.4422 14.4424)">
<stop stop-color="white"/>
<stop offset="0.0675" stop-color="white"/>
<stop offset="0.1978" stop-color="#FAEEEF"/>
<stop offset="0.3804" stop-color="#F2D3D9"/>
<stop offset="0.6619" stop-color="#DC969C"/>
<stop offset="0.8889" stop-color="#CE6875"/>
<stop offset="1" stop-color="#CA5767"/>
</radialGradient>
<radialGradient id="paint1_radial" cx="0" cy="0" r="1" gradientUnits="userSpaceOnUse" gradientTransform="translate(14.1786 3.98835) scale(11.1252)">
<stop stop-color="#CA5767"/>
<stop offset="0.2086" stop-color="#CA5767"/>
<stop offset="0.298" stop-color="#CB5C6B"/>
<stop offset="0.4185" stop-color="#D06B77"/>
<stop offset="0.5569" stop-color="#D7848D"/>
<stop offset="0.7085" stop-color="#E2A8AC"/>
<stop offset="0.8693" stop-color="#F2D3D8"/>
<stop offset="0.8712" stop-color="#F2D3D9"/>
<stop offset="1" stop-color="#F2D3D9"/>
</radialGradient>
<radialGradient id="paint2_radial" cx="0" cy="0" r="1" gradientUnits="userSpaceOnUse" gradientTransform="translate(15.9704 5.87843) scale(12.3684)">
<stop stop-color="#CA5767"/>
<stop offset="0.0956" stop-color="#CA5B6A"/>
<stop offset="0.2053" stop-color="#CE6673"/>
<stop offset="0.3219" stop-color="#D47C84"/>
<stop offset="0.4434" stop-color="#DD999F"/>
<stop offset="0.5675" stop-color="#EABCC1"/>
<stop offset="0.638" stop-color="#F2D3D9"/>
<stop offset="0.7246" stop-color="#F4D8DD"/>
<stop offset="0.837" stop-color="#F7E5E7"/>
<stop offset="0.9631" stop-color="#FFFAFA"/>
<stop offset="1" stop-color="white"/>
</radialGradient>
<radialGradient id="paint3_radial" cx="0" cy="0" r="1" gradientUnits="userSpaceOnUse" gradientTransform="translate(10.9896 19.6096) scale(8.03988)">
<stop stop-color="white"/>
<stop offset="0.1712" stop-color="#FAEEEF"/>
<stop offset="0.411" stop-color="#F2D3D9"/>
<stop offset="0.6787" stop-color="#DC969C"/>
<stop offset="0.8944" stop-color="#CE6875"/>
<stop offset="1" stop-color="#CA5767"/>
</radialGradient>
<radialGradient id="paint4_radial" cx="0" cy="0" r="1" gradientUnits="userSpaceOnUse" gradientTransform="translate(11.1778 16.0675) scale(10.2268)">
<stop stop-color="white"/>
<stop offset="0.0675" stop-color="white"/>
<stop offset="0.2183" stop-color="#FAEEEF"/>
<stop offset="0.4294" stop-color="#F2D3D9"/>
<stop offset="0.6887" stop-color="#DC969C"/>
<stop offset="0.8977" stop-color="#CE6875"/>
<stop offset="1" stop-color="#CA5767"/>
</radialGradient>
<radialGradient id="paint5_radial" cx="0" cy="0" r="1" gradientUnits="userSpaceOnUse" gradientTransform="translate(33.1918 8.11312) scale(20.5016)">
<stop stop-color="#CA5767"/>
<stop offset="0.3067" stop-color="#CA5767"/>
<stop offset="0.368" stop-color="#CB5F6E"/>
<stop offset="0.4741" stop-color="#D47A83"/>
<stop offset="0.6125" stop-color="#E0A3A8"/>
<stop offset="0.7607" stop-color="#F2D3D9"/>
<stop offset="1" stop-color="#F2D3D9"/>
</radialGradient>
<radialGradient id="paint6_radial" cx="0" cy="0" r="1" gradientUnits="userSpaceOnUse" gradientTransform="translate(15.6926 17.7396) scale(10.6912)">
<stop stop-color="white"/>
<stop offset="0.092" stop-color="white"/>
<stop offset="0.2096" stop-color="#FAEEEF"/>
<stop offset="0.3742" stop-color="#F2D3D9"/>
<stop offset="0.4169" stop-color="#EAC1C5"/>
<stop offset="0.5149" stop-color="#DE9CA2"/>
<stop offset="0.61" stop-color="#D57D85"/>
<stop offset="0.7001" stop-color="#CE6875"/>
<stop offset="0.7833" stop-color="#CB5B6B"/>
<stop offset="0.8528" stop-color="#CA5767"/>
<stop offset="1" stop-color="#CA5767"/>
</radialGradient>
</defs>
</svg>
