<svg width="32" height="32" viewBox="0 0 32 32" fill="none" xmlns="http://www.w3.org/2000/svg">
<path d="M4.09234 13.3307H4.35615L4.82083 15.0347L4.47999 15.13C4.29674 14.7367 4.15748 14.4728 4.06221 14.3384C3.90586 14.121 3.71094 13.9488 3.47777 13.8217C3.24449 13.6948 2.98724 13.6312 2.70643 13.6312C2.37664 13.6312 2.073 13.7199 1.79584 13.8971C1.51858 14.0744 1.29385 14.3341 1.12155 14.6764C0.949249 15.0187 0.863151 15.4039 0.863151 15.8317C0.863151 16.2717 0.9505 16.6642 1.1252 17.0089C1.29979 17.3537 1.53619 17.619 1.8343 17.8047C2.13231 17.9906 2.45356 18.0834 2.79806 18.0834C3.12296 18.0834 3.45526 17.9903 3.79485 17.804C4.13434 17.6176 4.42881 17.3566 4.67803 17.0208L4.97124 17.2224C4.81969 17.4472 4.65614 17.6377 4.48019 17.794C4.20168 18.0456 3.91222 18.2314 3.61171 18.351C3.3112 18.4707 2.98141 18.5306 2.62232 18.5306C1.82836 18.5306 1.18336 18.2363 0.687412 17.6474C0.276832 17.1589 0.0715942 16.5775 0.0715942 15.9032C0.0715942 15.4072 0.18521 14.9584 0.412441 14.5565C0.639672 14.1546 0.953001 13.8352 1.35243 13.5982C1.75185 13.3613 2.18245 13.2428 2.64421 13.2428C2.89093 13.2428 3.11993 13.2764 3.33132 13.3436C3.5426 13.4108 3.75691 13.5189 3.97445 13.6679L4.09234 13.3307Z" fill="black"/>
<path fill-rule="evenodd" clip-rule="evenodd" d="M8.12624 15.9216L8.12561 16.321C7.52626 16.3846 7.05794 16.4554 6.72053 16.5336C6.38302 16.6119 6.13536 16.7022 5.97765 16.8048C5.81994 16.9074 5.70257 17.0259 5.62544 17.1602C5.54841 17.2946 5.50995 17.4363 5.50995 17.5853C5.50995 17.8321 5.61491 18.0471 5.82505 18.2303C6.03519 18.4135 6.3088 18.5052 6.6459 18.5052C6.88782 18.5052 7.12725 18.4588 7.36418 18.3659C7.6011 18.273 7.86617 18.1118 8.15938 17.8822C8.18138 18.0117 8.23016 18.1235 8.30594 18.2175C8.38161 18.3116 8.47876 18.383 8.59727 18.4319C8.71579 18.4808 8.86161 18.5052 9.03516 18.5052C9.19641 18.5052 9.3783 18.4758 9.58114 18.4171V18.0978C9.42479 18.1495 9.29043 18.1754 9.17807 18.1754C9.0705 18.1754 8.98325 18.1491 8.91602 18.0967C8.84868 18.0442 8.80178 17.9655 8.77489 17.8606C8.76259 17.7996 8.75654 17.669 8.75654 17.4689V16.0595C8.75654 15.7301 8.71985 15.5031 8.64657 15.3787C8.54151 15.198 8.37775 15.0596 8.15553 14.9632C7.93319 14.8668 7.66573 14.8186 7.35302 14.8186C7.01822 14.8186 6.72814 14.8694 6.48267 14.9707C6.23709 15.072 6.05447 15.2003 5.93481 15.3554C5.81504 15.5106 5.75521 15.6687 5.75521 15.83C5.75521 15.94 5.78502 16.0273 5.84496 16.092C5.90489 16.1568 5.98359 16.1892 6.08136 16.1892C6.25241 16.1892 6.36592 16.0792 6.42221 15.8594C6.4687 15.6786 6.49809 15.5748 6.51029 15.5479C6.53968 15.4747 6.58554 15.4093 6.64798 15.3519C6.71031 15.2944 6.79308 15.2492 6.89585 15.2163C6.99873 15.1832 7.1187 15.1667 7.25577 15.1667C7.53252 15.1667 7.74661 15.2248 7.89848 15.3408C8.05025 15.4568 8.12624 15.6504 8.12624 15.9216ZM7.07138 16.8121C7.20584 16.7804 7.55659 16.723 8.12363 16.6399L8.12394 17.5266C7.81103 17.7464 7.5543 17.8943 7.35386 17.9699C7.15341 18.0457 6.97371 18.0835 6.81486 18.0835C6.70229 18.0835 6.59597 18.0579 6.4958 18.0066C6.39553 17.9553 6.31787 17.8852 6.26294 17.796C6.2079 17.7068 6.18039 17.6146 6.18039 17.5193C6.18039 17.424 6.20478 17.3344 6.25366 17.2501C6.30255 17.1658 6.38437 17.087 6.49934 17.0137C6.61421 16.9403 6.80485 16.8732 7.07138 16.8121Z" fill="black"/>
<path d="M9.80084 13.6789V13.3747C10.133 13.3503 10.4568 13.2477 10.7719 13.0669H11.0431V17.5779C11.0431 17.7684 11.0553 17.8882 11.0798 17.9369C11.1115 18.0053 11.158 18.0555 11.2191 18.0871C11.28 18.1189 11.3973 18.1348 11.5708 18.1348H11.6881V18.4426H9.80095V18.1348H9.99149C10.1111 18.1348 10.2009 18.1165 10.2608 18.0802C10.3207 18.0437 10.3634 17.994 10.389 17.9309C10.4147 17.8678 10.4275 17.7416 10.4275 17.5521V13.6788H9.80084V13.6789Z" fill="black"/>
<path d="M12.0801 15.4379V15.1264C12.2639 15.1091 12.4243 15.0789 12.5616 15.0356C12.6988 14.9923 12.8556 14.92 13.0321 14.8186H13.3041V15.4342C13.5826 15.2144 13.8 15.0666 13.9564 14.9908C14.1958 14.8759 14.4242 14.8186 14.6416 14.8186C14.7905 14.8186 14.9367 14.8461 15.0796 14.9011C15.2225 14.956 15.3373 15.0238 15.4241 15.1044C15.5107 15.185 15.5846 15.295 15.6458 15.4342C15.9022 15.207 16.1399 15.0476 16.3584 14.956C16.577 14.8644 16.7988 14.8186 17.0236 14.8186C17.2386 14.8186 17.4285 14.8632 17.5934 14.9523C17.7583 15.0416 17.878 15.1533 17.9525 15.2877C18.027 15.422 18.0642 15.6187 18.0642 15.8776V17.578C18.0642 17.7563 18.0679 17.8602 18.0752 17.8895C18.0872 17.9358 18.1134 17.9798 18.1534 18.0214C18.1935 18.063 18.239 18.0923 18.2902 18.1094C18.3411 18.1265 18.4357 18.135 18.5743 18.135H18.6909V18.4428H16.855V18.135C17.0652 18.1326 17.2013 18.1173 17.2636 18.0893C17.326 18.0612 17.3723 18.0155 17.4029 17.9519C17.4334 17.8884 17.4486 17.7638 17.4486 17.5781V15.962C17.4486 15.7567 17.4303 15.6151 17.3935 15.5369C17.3568 15.4587 17.2913 15.3935 17.197 15.3408C17.103 15.2883 16.9859 15.262 16.8465 15.262C16.6726 15.262 16.4902 15.3084 16.2992 15.4013C16.0446 15.5283 15.8438 15.6712 15.6971 15.83V17.578C15.6971 17.7466 15.7049 17.8571 15.7208 17.9097C15.7367 17.9622 15.7636 18.0062 15.8014 18.0416C15.8393 18.0771 15.8832 18.1016 15.9334 18.1149C15.9834 18.1284 16.1049 18.135 16.298 18.135V18.4428H14.495V18.135H14.5976C14.7418 18.135 14.8437 18.1179 14.9036 18.0838C14.9634 18.0496 15.0104 17.997 15.0448 17.9261C15.0691 17.87 15.0815 17.754 15.0815 17.578V16.0169C15.0815 15.7873 15.0636 15.6322 15.0281 15.5515C14.9927 15.4709 14.9247 15.4025 14.8243 15.3462C14.7239 15.2901 14.6065 15.2619 14.4718 15.2619C14.3126 15.2619 14.1523 15.301 13.9908 15.3792C13.7508 15.494 13.5305 15.6442 13.3298 15.8299V17.7134C13.3298 17.8258 13.345 17.9082 13.3756 17.9608C13.4061 18.0133 13.4544 18.0555 13.5203 18.0872C13.5863 18.119 13.6767 18.1348 13.7916 18.1348H13.9272V18.4426H12.0876V18.1348H12.186C12.3535 18.1348 12.464 18.1215 12.5176 18.0945C12.5953 18.0578 12.6511 17.9992 12.6851 17.9185C12.7046 17.8746 12.7143 17.7609 12.7143 17.5777V15.4379H12.0801Z" fill="black"/>
<path fill-rule="evenodd" clip-rule="evenodd" d="M24.1292 13.3307H23.5297L21.9349 17.563C21.8591 17.7634 21.798 17.8946 21.7516 17.9569C21.7053 18.0193 21.651 18.0645 21.5886 18.0925C21.5263 18.1206 21.4242 18.1346 21.2826 18.1346V18.4425H22.8107V18.1346C22.7691 18.1323 22.7154 18.131 22.6494 18.131C22.5518 18.131 22.4809 18.1218 22.4369 18.1035C22.3929 18.0851 22.3581 18.0576 22.3324 18.021C22.3068 17.9844 22.294 17.9417 22.294 17.8928C22.294 17.8488 22.3148 17.7695 22.3563 17.6546L22.7551 16.548H24.6072L24.9453 17.5374C25.0137 17.7377 25.0479 17.8635 25.0479 17.9148C25.0479 17.9858 25.0124 18.0444 24.9415 18.0908C24.9048 18.1153 24.8279 18.1275 24.7107 18.1275C24.6545 18.1275 24.5971 18.1299 24.5385 18.1348V18.4426H26.3577V18.1348H26.2771C26.1427 18.1348 26.0359 18.1 25.9565 18.0305C25.877 17.9611 25.7982 17.819 25.7201 17.6044L24.1292 13.3307ZM24.4629 16.189H22.8843L23.6764 13.9903L24.4629 16.189Z" fill="black"/>
<path fill-rule="evenodd" clip-rule="evenodd" d="M27.8522 13.2886C27.7691 13.2067 27.6689 13.1658 27.5517 13.1658C27.4344 13.1658 27.3342 13.2067 27.2512 13.2886C27.1681 13.3704 27.1266 13.4699 27.1266 13.5872C27.1266 13.7045 27.1681 13.8047 27.2512 13.8877C27.3342 13.9708 27.4344 14.0123 27.5517 14.0123C27.6689 14.0123 27.7691 13.9708 27.8522 13.8877C27.9352 13.8046 27.9767 13.7045 27.9767 13.5872C27.9767 13.4699 27.9352 13.3705 27.8522 13.2886ZM26.6208 15.1263V15.4305H27.2548V17.5889C27.2548 17.7867 27.2432 17.9126 27.22 17.9663C27.1967 18.02 27.157 18.0616 27.1008 18.0909C27.0447 18.1201 26.9347 18.1348 26.7711 18.1348H26.6208V18.4426H28.4971V18.1348H28.3249C28.1856 18.1348 28.0897 18.1233 28.0372 18.1C27.9847 18.0769 27.9437 18.0396 27.9144 17.9883C27.8851 17.937 27.8704 17.86 27.8704 17.7574V14.8185H27.6029C27.427 14.9127 27.27 14.9815 27.132 15.025C26.994 15.0685 26.8236 15.1022 26.6208 15.1263Z" fill="black"/>
<path d="M28.8965 15.4306V15.1264C29.0744 15.1119 29.2326 15.0824 29.3715 15.0377C29.5103 14.9931 29.6688 14.92 29.8465 14.8186H30.1205V15.5112C30.294 15.2987 30.4956 15.1302 30.7252 15.0055C30.9548 14.8808 31.1613 14.8186 31.3444 14.8186C31.5252 14.8186 31.6681 14.8613 31.7732 14.9468C31.8782 15.0324 31.9308 15.1361 31.9308 15.2583C31.9308 15.3462 31.8959 15.4238 31.8263 15.4909C31.7567 15.5581 31.673 15.5917 31.5753 15.5917C31.5313 15.5917 31.4935 15.5857 31.4617 15.5734C31.4299 15.5612 31.3835 15.5343 31.3224 15.4928C31.1881 15.4048 31.0757 15.3608 30.9853 15.3608C30.8632 15.3608 30.7288 15.4121 30.5823 15.5148C30.3966 15.6467 30.2512 15.7762 30.1462 15.9033V17.5926C30.1462 17.7392 30.1541 17.8387 30.17 17.8912C30.1859 17.9438 30.2121 17.989 30.2488 18.0268C30.2855 18.0648 30.3307 18.0922 30.3844 18.1093C30.4382 18.1264 30.5322 18.1349 30.6666 18.1349H30.7875V18.4427H28.8929V18.1349H29.0505C29.1996 18.1349 29.2973 18.1216 29.3438 18.0946C29.4072 18.0579 29.4544 18.0072 29.4849 17.9425C29.5154 17.8778 29.5307 17.7611 29.5307 17.5926V15.4306H28.8965Z" fill="black"/>
</svg>
