<svg width="32" height="32" viewBox="0 0 32 32" fill="none" xmlns="http://www.w3.org/2000/svg">
<path d="M8.28113 11.8126L3.41914 17.9954C3.41914 17.9954 2.33313 19.3053 4.78417 20.8783L6.71309 18.393L7.12243 18.6904L5.27204 21.2685L7.09821 22.5859L5.70477 24.3552C5.70477 24.3552 4.96211 25.3468 5.83175 26.3961L5.84432 26.4462L3.17524 30.0994C3.17524 30.0994 2.95887 30.3834 2.93214 30.5029C2.90708 30.6232 2.88201 30.7309 2.93214 30.7736C2.98393 30.8086 3.10005 30.8629 3.33062 30.6399C3.55701 30.4085 6.58865 27.427 6.58865 27.427C6.58865 27.427 6.69976 27.1981 7.07067 27.386C7.44075 27.5731 7.78828 27.7912 8.57939 27.1479C9.36884 26.5022 10.9419 24.2165 10.9419 24.2165L11.068 24.2332L11.2877 27.2958L15.4639 27.3091L21.0343 31.5036L21.8112 31.4644L12.7505 24.3402L13.0663 24.0127L15.1055 25.5891L13.3553 11.8377L8.28116 11.8126" fill="#18468B"/>
<path fill-rule="evenodd" clip-rule="evenodd" d="M9.15578 4.75882C7.32631 4.73682 6.25279 4.90502 6.25279 4.90502C4.98967 5.07042 4.54023 5.42714 4.54023 5.42714C3.12925 6.30514 3.28714 8.45543 3.28714 8.45543L4.68642 8.41367L4.70728 8.6434C4.80335 9.55231 5.68886 9.54145 5.68886 9.54145C7.32958 9.39358 7.75646 9.62499 7.75646 9.62499C8.3379 9.7386 8.34124 10.2515 8.34124 10.2515L13.3118 10.2098C13.3118 10.2098 13.052 6.43462 12.4973 5.6151C12.0395 4.95013 11.2233 4.84236 11.2233 4.84236C10.4579 4.78114 9.76557 4.76615 9.15574 4.75882H9.15578ZM14.0846 12.152L14.377 14.345L16.7787 14.4076L17.1964 13.1336C17.1964 13.1336 15.8155 12.1654 14.0846 12.152V12.152ZM17.3217 14.7209L17.7394 13.4678C19.5648 14.3692 20.2665 16.2872 20.2665 16.2872L18.7001 16.329L17.3217 14.7209ZM14.4396 14.9506L14.9409 18.3966L17.3426 18.5219L18.2616 16.6214L16.7787 14.9715L14.4396 14.9506ZM18.8046 16.872L20.3709 16.8094V16.8093C20.3709 16.8093 21.1813 18.1343 20.9348 20.0883H19.2014L17.9692 18.689L18.8046 16.872ZM15.0244 18.9814L15.5048 22.3021L17.7394 22.2603L18.8672 20.3807L17.6559 19.0649L15.0244 18.9814ZM7.02552 22.5318L8.96781 20.1301C8.96781 20.1301 10.2368 21.242 9.32286 22.3438C9.32286 22.3438 8.47911 23.6078 7.02552 22.5318ZM19.2014 20.6731L18.1363 22.3647L19.4938 23.6178C20.4461 22.5686 20.7886 20.6731 20.7886 20.6731H19.2431H19.2014ZM15.5674 22.8868L17.7603 22.8242L19.097 24.1608C19.097 24.1608 17.6267 25.713 16.0269 26.124L15.5674 22.8868Z" fill="#419629"/>
<path fill-rule="evenodd" clip-rule="evenodd" d="M9.07225 0.331266C5.13337 0.408955 2.32645 3.12983 2.32645 3.12983L4.76997 5.48982C5.87269 4.75049 10.5342 5.093 10.5342 5.093C12.2342 5.02951 12.3929 5.97017 12.3929 5.97017C12.7722 6.80723 13.1448 10.1889 13.1448 10.1889L8.15331 10.2098C7.81581 11.0669 8.27862 11.8179 8.27862 11.8179L15.3377 11.8597H15.4421C15.5818 11.8435 15.8085 11.6964 16.0146 11.5627L16.0146 11.5627C16.1487 11.4757 16.2741 11.3943 16.3611 11.3584C16.8289 11.1663 17.2933 10.8731 17.5933 10.4395C17.6093 10.4149 17.6245 10.3904 17.6395 10.3662L17.6395 10.3662L17.6395 10.3662L17.6396 10.3661C17.6877 10.2886 17.734 10.214 17.8021 10.1471C18.0928 9.85472 18.5122 9.70769 18.909 9.68764C19.2399 9.66814 19.5624 9.74604 19.8855 9.82407C20.1292 9.88295 20.3733 9.9419 20.6216 9.95915C21.0977 9.99256 21.594 9.93241 22.0208 9.68764C22.4569 9.43535 22.7927 9.02685 23.0442 8.55986C23.0918 8.46758 23.1304 8.36819 23.1692 8.26856L23.1692 8.26854L23.1692 8.26852C23.2325 8.1057 23.2961 7.94223 23.3992 7.80801C23.497 7.67936 23.6123 7.5624 23.7543 7.49474C23.9949 7.38447 24.2722 7.38864 24.527 7.45297C24.8879 7.66766 25.2722 7.83558 25.6757 7.89155C25.9773 7.93245 26.2805 7.90405 26.5528 7.76624C26.6924 7.6944 26.831 7.5766 26.9288 7.45297C27.0683 7.28422 27.1259 7.06284 27.1794 6.84731L27.5344 4.59175C27.5604 4.42715 27.6094 4.27461 27.6589 4.1205C27.6733 4.07594 27.6876 4.03124 27.7015 3.98609C27.7277 3.9007 27.7496 3.81446 27.7713 3.72851C27.8141 3.55968 27.8565 3.392 27.9312 3.23423C28.1484 2.79064 28.4367 2.39633 28.7458 2.02291V1.96029C28.607 1.92539 28.4631 1.93083 28.3193 1.93626C28.2874 1.93746 28.2555 1.93867 28.2236 1.93943C27.6631 1.96029 27.1009 2.05221 26.5528 2.16916C25.4702 2.4131 24.4234 2.85585 23.5454 3.58933C23.4414 3.67615 23.3409 3.77602 23.2415 3.87479L23.2414 3.87489L23.2413 3.87495L23.2412 3.87501L23.2412 3.87507L23.2411 3.87513C23.1962 3.91976 23.1515 3.96416 23.1068 4.00703L22.9398 4.13234C22.2397 4.30276 21.6006 4.72797 21.1646 5.34366C21.0576 5.48901 20.954 5.64106 20.8722 5.80312C20.8422 5.85995 20.8244 5.9187 20.8059 5.97975C20.7944 6.01743 20.7827 6.05598 20.7677 6.09551C20.7314 6.1893 20.6912 6.28273 20.6508 6.37673C20.6048 6.48367 20.5585 6.59136 20.5171 6.70117C20.4219 6.93424 20.2448 7.14393 20.0368 7.26506C19.8446 7.37199 19.604 7.40541 19.3894 7.43214C18.8355 7.50983 18.2825 7.4981 17.7186 7.453C17.1605 7.49724 16.5866 7.65767 16.1104 7.996C15.9358 8.12382 15.7771 8.28338 15.6301 8.45547C15.531 8.56928 15.4465 8.69552 15.3624 8.82114C15.2317 9.01639 15.102 9.21017 14.92 9.35352C13.91 10.1496 13.7688 10.2106 13.5207 10.1889L13.4789 9.7921L17.6977 5.3854L17.6141 5.36454C16.6167 6.10553 16.2984 4.73799 16.2984 4.73799C15.8832 3.1591 14.4605 2.02297 14.4605 2.02297C12.4205 0.148342 9.07225 0.331296 9.07225 0.331296V0.331266ZM8.77986 12.6742L9.11402 13.3494L12.4765 13.4056L12.7271 12.7305L8.77986 12.6742ZM9.80321 14.3471L9.46906 13.6767H12.0797L11.7664 14.4081L9.80321 14.3471ZM10.0747 14.6165L10.3253 15.3479H11.2652L11.474 14.6165H10.0747ZM8.52924 16.7467C8.52924 16.7467 9.15996 15.6908 10.7013 15.7652L8.57101 19.0858C8.57101 19.0858 7.76486 18.0992 8.52924 16.7467ZM10.9101 15.7652L13.2283 19.3156C13.2283 19.3156 13.9008 18.2755 13.0612 16.9347C13.0612 16.9347 12.3203 15.8044 10.9101 15.7652ZM11.3345 28.1089C11.3683 28.0068 11.4108 27.8784 11.5158 27.8784L11.5157 27.8784L15.4002 27.941L15.4838 28.0245C15.4903 28.0623 15.4962 28.0999 15.5021 28.1372C15.5267 28.2919 15.5505 28.4423 15.6091 28.5884C15.7461 28.9777 16.0318 29.2968 16.361 29.5282C16.6617 29.7421 17.0259 29.8515 17.3843 29.8833C17.4298 29.8858 17.4769 29.8803 17.5245 29.8747C17.6036 29.8655 17.684 29.8561 17.7602 29.8833C17.8521 29.92 17.9232 29.9927 17.8855 30.0921C17.9098 30.4037 17.8939 30.7412 17.8647 31.0528L17.8229 31.2199L17.7185 31.2825L15.0452 31.2408C14.4671 31.0812 13.9008 30.7905 13.5415 30.2801H13.4998C13.4204 30.5524 13.4079 30.8222 13.4371 31.0946C13.4079 31.1731 13.3369 31.2408 13.2492 31.2408L11.3904 31.2199L11.3278 31.1781V31.1573L11.307 31.0737L11.3278 28.129C11.33 28.1224 11.3322 28.1157 11.3345 28.1089Z" fill="#C4122E"/>
<path fill-rule="evenodd" clip-rule="evenodd" d="M6.23832 4.67447C6.32394 4.66224 7.25504 4.52917 8.82164 4.52917L8.8216 4.52922C9.51163 4.52922 10.3286 4.5618 11.2442 4.63364H11.2651C11.2663 4.63399 11.2703 4.63464 11.2771 4.63572C11.3844 4.65291 12.1675 4.77844 12.6644 5.48992C12.8356 5.74889 12.9551 6.13819 13.0612 6.6177C13.169 7.09805 13.2441 7.65776 13.3118 8.18406C13.4496 9.23332 13.5207 10.1864 13.5207 10.189L13.103 10.2099C13.1026 10.2099 13.1012 10.1892 13.0985 10.1505C13.088 9.9966 13.0579 9.55782 12.9985 8.99855C12.9217 8.29598 12.7955 7.40796 12.6435 6.7221C12.5457 6.26598 12.4363 5.88921 12.3302 5.74051C11.9902 5.2351 11.3812 5.09136 11.2442 5.0722H11.2234C10.3178 5.00199 9.50328 4.96778 8.8216 4.96778C7.61195 4.96778 6.79577 5.05379 6.46162 5.09308L6.29454 5.11394C5.13668 5.26682 4.69138 5.59432 4.66552 5.61518H4.64467C4.13258 5.93513 3.84353 6.43971 3.68397 6.95181C3.52274 7.46307 3.49601 7.97767 3.49601 8.24667L4.79087 8.18404H5.08325C5.55776 8.18572 6.50927 8.15147 7.04643 7.9752C7.22353 7.92006 7.35051 7.85323 7.38058 7.80812L7.69362 8.07949C7.56079 8.24239 7.38286 8.32259 7.1715 8.39276C6.95848 8.45876 6.71538 8.50634 6.46142 8.53895C5.95183 8.60411 5.41049 8.62249 5.08302 8.62249C5.04223 8.62249 5.01576 8.6226 4.99514 8.62268C4.96509 8.62281 4.94745 8.62288 4.91594 8.62249C4.95787 8.93755 5.0965 9.08589 5.2501 9.18638C5.40966 9.28499 5.60096 9.32856 5.66779 9.33258C6.08716 9.29503 6.43301 9.26995 6.71204 9.26995C7.5316 9.27079 7.79347 9.3943 7.83927 9.4159L7.83982 9.41615C8.16003 9.48906 8.35635 9.691 8.44548 9.87561C8.54235 10.0678 8.54925 10.2298 8.5499 10.2515H8.19486H8.13224V10.2307V10.2098L8.06962 10.0845C8.01699 9.99095 7.94932 9.88322 7.71457 9.8339L7.69372 9.81304H7.67287H7.6311L7.50579 9.77127C7.36127 9.74206 7.1023 9.70864 6.71217 9.70864C6.44735 9.70864 6.12071 9.71446 5.7097 9.75042H5.68884C5.68815 9.75042 5.68705 9.75043 5.68556 9.75046C5.65142 9.751 5.4132 9.75479 5.14584 9.6251C4.86932 9.49562 4.57109 9.19404 4.51929 8.6644L4.49844 8.62263L3.09916 8.68526L3.07831 8.47641V8.24667C3.07914 7.94677 3.10755 7.40209 3.28716 6.82651C3.46183 6.26129 3.80714 5.65171 4.41494 5.26014C4.44418 5.23592 4.93539 4.84412 6.23192 4.67537C6.23231 4.67533 6.23446 4.67503 6.23832 4.67447ZM5.7098 6.9727C5.77913 6.11642 6.56607 6.15819 6.56607 6.15819V6.15822C7.41734 6.12981 7.50589 6.95184 7.50589 6.95184L5.7098 6.9727Z" fill="#18468B"/>
</svg>
