<svg width="32" height="32" viewBox="0 0 32 32" fill="none" xmlns="http://www.w3.org/2000/svg">
<path fill-rule="evenodd" clip-rule="evenodd" d="M31.3636 12.1752C20.8091 12.445 10.6144 14.8438 9.65494 18.172C9.61299 18.4805 9.61299 18.7931 9.65494 19.1016C9.535 22.5198 16.5214 23.6592 23.9875 24.5887V23.989C23.9293 23.9684 23.8658 23.9684 23.8076 23.989C19.6697 22.9396 15.4719 21.3804 15.4719 19.9711C15.4719 17.2425 22.5182 14.5739 30.4641 13.3446C30.6694 13.3078 30.864 13.2258 31.0338 13.1047L31.9333 12.3551C32.0833 12.3551 31.9333 12.2052 31.9333 12.2052H31.2737" fill="#1B1C80"/>
<path fill-rule="evenodd" clip-rule="evenodd" d="M19.6997 28.5167C14.2126 27.1674 8.78543 22.5198 9.62499 18.292C10.8843 11.9953 19.25 5.99844 29.6845 3.23988C29.9844 3.14992 29.9844 3 29.7145 3H15.442C12.9832 3 12.4435 3.32983 11.514 4.61916C11.0043 5.3088 6.74649 11.1857 4.7975 13.8244C4.49824 14.2699 3.98363 14.5215 3.44821 14.484H0C4.07788 25.968 8.4556 28.6966 12.8333 28.6966H19.7597C19.7597 28.6966 19.9396 28.6966 19.7597 28.5167" fill="#DF0011"/>
</svg>
