<svg width="32" height="32" viewBox="0 0 32 32" fill="none" xmlns="http://www.w3.org/2000/svg">
<g clip-path="url(#clip0)">
<path fill-rule="evenodd" clip-rule="evenodd" d="M7.96875 26.7628C7.91875 26.3497 7.67005 25.9549 7.36083 25.7838C9.02537 26.4155 9.39775 28.3471 8.46482 29.588C7.90954 30.3222 6.84765 30.8354 5.72129 30.8235C3.30803 30.7985 1.71981 29.0827 1.57638 27.0694C1.44874 25.2891 2.52905 23.6219 4.18701 22.8929C9.04642 20.756 14.4743 24.9851 15.8125 29.788C15.0138 28.5682 12.8755 26.1431 10.3149 25.2036C9.16748 24.7799 7.65031 24.6246 6.51079 25.2022C5.75024 25.5865 5.31206 26.2983 5.37522 27.001C5.44101 27.7445 6.11473 28.2892 6.8266 28.2011C7.53847 28.1155 8.05165 27.4615 7.96875 26.7628ZM23.9984 26.7628C24.047 26.3497 24.2971 25.9549 24.6063 25.7838C22.9417 26.4155 22.5693 28.3471 23.5036 29.588C24.0576 30.3222 25.1195 30.8354 26.2458 30.8235C28.6591 30.7985 30.2473 29.0827 30.3907 27.0694C30.5184 25.2891 29.4381 23.6219 27.7788 22.8929C22.9207 20.756 17.4928 24.9851 16.1546 29.788C16.9533 28.5682 19.0916 26.1431 21.6522 25.2036C22.7996 24.7799 24.3168 24.6246 25.4563 25.2022C26.2182 25.5865 26.655 26.2983 26.5919 27.001C26.5261 27.7445 25.8524 28.2892 25.1392 28.2011C24.4286 28.1155 23.9155 27.4615 23.9984 26.7628ZM15.9993 12.9952C20.4798 12.9952 24.1115 10.6648 24.1115 7.78969C24.1115 5.54749 21.9022 3.63557 18.8008 2.90396C22.4693 3.65136 25.1234 5.82908 25.1234 8.40287C25.1234 11.3596 21.664 13.4781 18.3692 13.9649L18.3635 13.9658L18.3635 13.9658C16.7551 14.2045 16.4068 14.2563 15.9993 14.6939C15.5932 14.2563 15.2449 14.2045 13.6365 13.9658H13.6365L13.6308 13.9649C10.3346 13.4781 6.8766 11.3596 6.8766 8.40287C6.8766 5.82908 9.53065 3.65136 13.1979 2.90396C10.0978 3.63557 7.88717 5.54749 7.88717 7.78969C7.88717 10.6648 11.5189 12.9952 15.9993 12.9952ZM18.4274 15.3412C17.5881 15.5017 16.6996 15.6717 15.998 16.319C15.2977 15.6718 14.4086 15.5018 13.5692 15.3412C13.4102 15.3108 13.253 15.2808 13.0992 15.2479C8.58719 14.2886 5.62655 11.9201 5.62655 8.92131C5.62655 7.71337 6.13973 6.58043 7.03318 5.6067C8.51351 3.98427 11.0531 2.79869 14.0532 2.43552C8.51088 3.02107 4.28702 6.07251 4.28702 9.74766C4.28702 13.0281 7.4332 15.4387 12.3137 16.7861C14.4295 17.3717 15.4493 17.7638 15.998 18.6928C16.5467 17.7638 17.5678 17.3717 19.6837 16.7861C24.5629 15.4387 27.7077 13.0281 27.7077 9.74766C27.7077 6.07251 23.4852 3.02107 17.9442 2.43552C20.9417 2.79869 23.4825 3.98427 24.9642 5.6067C25.8563 6.58043 26.3695 7.71337 26.3695 8.92131C26.3695 11.9201 23.4089 14.2886 18.8968 15.2479C18.7432 15.2807 18.5863 15.3108 18.4276 15.3411L18.4275 15.3411L18.4274 15.3412ZM15.9993 21.3455C16.8652 19.6139 19.1258 18.7033 21.0232 18.0822L21.1436 18.0429C21.6137 17.8894 21.8673 17.8066 22.4838 17.5743C26.3248 16.1256 28.9091 13.4268 28.9157 10.3385C28.9157 5.99883 23.8483 2.43684 17.3507 1.99998C25.555 2.4342 32 6.78438 32 12.0846C32 15.6295 29.4907 18.5928 24.7523 20.5573C24.5812 20.6283 24.3801 20.7062 24.1551 20.7934L24.155 20.7935C21.8728 21.6778 17.1204 23.5194 15.9993 28.8169C14.8212 23.5004 10.1097 21.6727 7.83796 20.7914C7.61549 20.7051 7.41642 20.6279 7.24635 20.5573C2.508 18.5928 0 15.6295 0 12.0846C0 6.78438 6.44369 2.4342 14.6493 1.99998C8.15165 2.43684 3.08565 5.99883 3.08565 10.3385C3.09092 13.4268 5.67392 16.1256 9.51618 17.5743C10.1432 17.8105 10.3936 17.8921 10.8803 18.0508L10.9768 18.0822C12.8729 18.7033 15.1335 19.6139 15.9993 21.3455ZM15.9967 3.75926C14.3164 3.75926 12.9532 5.13563 12.9532 6.83438C12.9532 8.53182 14.3164 9.9082 15.9967 9.9082C17.6784 9.9082 19.0403 8.53182 19.0403 6.83438C19.0403 5.13563 17.6784 3.75926 15.9967 3.75926Z" fill="#E60012"/>
</g>
<defs>
<clipPath id="clip0">
<rect width="32" height="32" fill="white"/>
</clipPath>
</defs>
</svg>
