<svg width="32" height="32" viewBox="0 0 32 32" fill="none" xmlns="http://www.w3.org/2000/svg">
<path fill-rule="evenodd" clip-rule="evenodd" d="M11.8696 18.3039H9.94094L9.79608 16.8801H7.53568C6.7331 17.6619 5.24113 18.7732 3.22223 18.7913C-0.158819 18.8232 -1.30964 15.8982 1.87952 13.2142C1.87952 13.2142 3.32081 12 5.64456 12C8.03254 12 8.46829 13.58 8.46829 13.58L7.35259 14.0685C7.35259 14.0685 6.9367 12.8775 5.40016 12.8835C2.4262 12.8945 0.520591 19.0767 4.90062 17.8099C7.2596 17.1283 9.53321 13.2626 9.53321 13.2626H11.3002L11.8696 18.3039ZM8.20639 16.1254C8.20639 16.1254 8.19157 16.1463 8.16344 16.1832H9.72371L9.53718 14.3937L8.20639 16.1254Z" fill="#006BB6"/>
<path d="M14.0223 13.2666H15.9972L17.2063 15.8113L18.0992 13.2627H19.0515L17.2752 18.3095H16.253L14.475 14.5918L13.1976 18.3095H12.2327L14.0223 13.2666Z" fill="#006BB6"/>
<path d="M20.2503 12.2441H21.993L19.9137 18.2976C19.9137 18.2976 19.4834 19.7852 17.8099 19.7852H16.3461L16.5557 19.2037H17.2522C17.2522 19.2037 17.8099 19.2791 18.1472 18.2976L20.2503 12.2441Z" fill="#006BB6"/>
<path d="M26.2224 13.9289L26.4434 13.2666H22.5047L20.7072 18.304H24.8337L25.0489 17.6709H22.7252L23.2758 16.0435H25.4093L25.6299 15.3812H23.4997L23.9915 13.9289H26.2224Z" fill="#006BB6"/>
<path d="M31.9744 13.2666H26.7554L26.5644 13.9289H28.2506L26.6986 18.304H28.4937L29.9747 13.9289H31.7532L31.9744 13.2666Z" fill="#006BB6"/>
<path d="M4.74996 17.0891L4.79613 16.578L3.79715 16.7985L3.98303 16.3458L3.01874 15.5552L3.47146 15.4277V14.7421L4.00623 14.8351L4.18062 14.5094L4.68005 15.0673L4.64483 13.8125L5.01681 14.0336L5.50529 13.313L5.80725 14.0336L6.20231 13.8362L5.67914 15.0563L6.43501 14.5094L6.42287 14.8582L7.06212 14.7307L6.72483 15.3809L7.08521 15.6021L5.79522 16.3805V16.7985L4.91275 16.5894L4.85444 17.0891H4.74996Z" fill="#ED1C2E"/>
</svg>
