<svg width="32" height="32" viewBox="0 0 32 32" fill="none" xmlns="http://www.w3.org/2000/svg">
<path d="M22.217 28.6372C20.4288 28.1239 18.2387 28.0905 15.8839 28.5395C13.4544 29.0016 10.9094 29.9738 8.51764 31.3462C8.15475 31.5554 7.79661 31.7717 7.44682 31.9996H26.3474C26.287 31.8571 26.2231 31.7181 26.1536 31.5848C25.4072 30.183 24.043 29.1628 22.217 28.6372Z" fill="#0060A9"/>
<path d="M27.0728 26.998C26.1731 25.3077 24.5337 24.0794 22.3329 23.4486C20.1818 22.8269 17.5451 22.7864 14.7086 23.3275C11.7884 23.8841 8.72369 25.052 5.84835 26.7066C3.67854 27.9536 1.70051 29.4204 0 31.0393V32H6.35814C7.09862 31.4144 7.88674 30.8626 8.71695 30.343C11.6971 28.4744 15.0052 27.2175 18.0342 26.8011C21.033 26.3886 23.6146 26.8166 25.3036 28.0107C26.6281 28.9444 27.3678 30.2981 27.5091 32H27.7327L27.8132 31.1961C27.9725 29.6316 27.7211 28.2191 27.0728 26.998Z" fill="#0060A9"/>
<path d="M0.689254 17.9277C0.457384 18.0627 0.227105 18.1961 0 18.3339V21.0242C6.55032 16.2374 13.639 14.5713 19.4774 14.1949C14.5585 12.7789 7.47462 14.027 0.689254 17.9277Z" fill="#0060A9"/>
<path d="M22.3707 14.8178C22.6049 15.0139 22.8312 15.2203 23.0436 15.4418C23.0436 15.4418 24.5984 17.052 25.1126 18.5748L24.6139 17.788C23.8254 16.5443 22.6962 15.58 21.3018 14.8952C14.9754 15.4216 6.93703 17.3879 0 23.1147V23.5474C1.85655 22.0667 3.85801 20.7785 5.96032 19.7102C8.20676 18.5681 10.4758 17.7229 12.706 17.1989C14.9492 16.6717 17.0472 16.4903 18.9478 16.6622C22.5986 16.9909 25.2166 18.5883 26.5225 21.2862C26.5225 21.2862 27.523 23.3128 27.6112 25.3716L27.3305 24.1985C27.1839 23.5939 26.9676 23.0139 26.6797 22.4772C25.6831 20.607 23.8703 19.2453 21.4336 18.5478C19.053 17.863 16.1372 17.8174 13.0006 18.4145C9.76473 19.0326 6.37442 20.3235 3.19574 22.1532C2.07848 22.7928 1.01205 23.4851 0 24.2243V30.5534C1.11964 29.3886 2.37149 28.287 3.74842 27.266C5.77688 25.7555 7.98084 24.4855 10.2916 23.4899C14.9349 21.4895 19.4786 20.8646 22.7558 21.7686C25.7923 22.6106 27.6008 24.7027 27.9879 27.821C27.9879 27.821 28.1956 29.8138 27.7978 31.9992H32V15.2326C30.8728 15.0437 27.203 14.524 22.3707 14.8178Z" fill="#0060A9"/>
<path d="M6.22237 8.78007C4.18437 9.12902 2.07293 9.78484 0 10.7062V11.5034C2.7745 10.0611 5.5609 9.12307 8.21311 8.53434C7.56475 8.58158 6.9017 8.66257 6.22237 8.78007Z" fill="#0060A9"/>
<path d="M0 0V8.53355C0 8.53355 3.59953 7.29139 7.4226 7.87138L5.89957 7.93013C4.02754 8 2.01298 8.43271 0 9.17983V10.1274C3.13461 8.68678 6.8195 7.95713 10.0204 8.18142C18.0358 6.82453 24.4186 8.47916 24.4186 8.47916C23.1739 8.27074 18.2709 7.58118 12.2276 8.49464C12.7989 8.62723 13.7073 8.89798 14.6268 9.4343L13.88 9.16753C13.1487 8.90711 12.3522 8.72251 11.5057 8.61096C7.8665 9.23144 3.86198 10.4454 0 12.6915V13.1636C5.81818 9.98611 12.0779 8.79675 16.618 10.4295C23.8881 9.90552 29.2378 11.3855 29.2378 11.3855C28.0173 11.1798 23.6745 10.5653 18.0791 11.0869C18.3924 11.2612 19.7542 12.056 20.3327 12.8702L20.0007 12.6018C19.244 11.9964 18.359 11.5149 17.372 11.1564C12.0949 11.7316 5.80826 13.3366 0 17.2056V17.6431C0.499473 17.3192 1.00649 17.006 1.52145 16.7058C5.67247 14.2767 10.0554 12.7936 13.8622 12.53C16.853 12.3231 19.4175 12.8674 21.3995 14.1131C27.4154 13.9929 31.7161 15.152 32 15.2303V0H0Z" fill="#0060A9"/>
<path d="M0 13.7495V15.4946C5.1198 12.449 10.4067 11.0798 15.0549 10.5728C10.7911 9.89917 5.31712 10.9992 0 13.7495Z" fill="#0060A9"/>
</svg>
