<svg width="32" height="32" viewBox="0 0 32 32" fill="none" xmlns="http://www.w3.org/2000/svg">
<path d="M5.61434 15.2287C8.71505 15.2287 11.2287 12.7151 11.2287 9.61434C11.2287 6.51363 8.71505 4 5.61434 4C2.51363 4 0 6.51363 0 9.61434C0 12.7151 2.51363 15.2287 5.61434 15.2287Z" fill="#2F4A93"/>
<path d="M11.601 24.6109C14.1921 24.6109 16.2925 22.5105 16.2925 19.9195C16.2925 17.3285 14.1921 15.228 11.601 15.228C9.01004 15.228 6.90961 17.3285 6.90961 19.9195C6.90961 22.5105 9.01004 24.6109 11.601 24.6109Z" fill="#2F4A93"/>
<path d="M16.5994 15.2203C18.8506 15.2203 20.6756 13.3953 20.6756 11.1441C20.6756 8.89286 18.8506 7.06787 16.5994 7.06787C14.3481 7.06787 12.5231 8.89286 12.5231 11.1441C12.5231 13.3953 14.3481 15.2203 16.5994 15.2203Z" fill="#2F4A93"/>
<path d="M23.8034 15.3057C24.8653 15.3057 25.7262 14.4448 25.7262 13.3829C25.7262 12.321 24.8653 11.4602 23.8034 11.4602C22.7415 11.4602 21.8807 12.321 21.8807 13.3829C21.8807 14.4448 22.7415 15.3057 23.8034 15.3057Z" fill="#2F4A93"/>
<path d="M20.644 20.27C22.0563 20.27 23.2013 19.1251 23.2013 17.7128C23.2013 16.3004 22.0563 15.1555 20.644 15.1555C19.2317 15.1555 18.0867 16.3004 18.0867 17.7128C18.0867 19.1251 19.2317 20.27 20.644 20.27Z" fill="#2F4A93"/>
<path d="M26.2837 17.7752C26.9952 17.7752 27.5719 17.1984 27.5719 16.4869C27.5719 15.7755 26.9952 15.1987 26.2837 15.1987C25.5723 15.1987 24.9955 15.7755 24.9955 16.4869C24.9955 17.1984 25.5723 17.7752 26.2837 17.7752Z" fill="#2F4A93"/>
<path d="M28.4626 15.2371C29.0042 15.2371 29.4432 14.7981 29.4432 14.2565C29.4432 13.7149 29.0042 13.2759 28.4626 13.2759C27.921 13.2759 27.482 13.7149 27.482 14.2565C27.482 14.7981 27.921 15.2371 28.4626 15.2371Z" fill="#2F4A93"/>
</svg>
