<svg width="32" height="32" viewBox="0 0 32 32" fill="none" xmlns="http://www.w3.org/2000/svg">
<g clip-path="url(#clip0)">
<path fill-rule="evenodd" clip-rule="evenodd" d="M27.8755 20.9401C28.6927 20.9458 29.4009 20.9508 29.4923 21.2872C29.6336 21.8091 28.3374 22.8573 24.4779 24.6884C20.6713 26.4946 14.4448 28.9716 5.86214 31.9835C5.83302 31.9932 5.72519 32.0212 5.70038 31.9706C5.66696 31.9037 5.74891 31.8433 5.78234 31.8207L16.4754 24.9817C16.5379 24.9428 16.6188 24.8555 16.4991 24.8048C16.4991 24.8048 15.9869 24.6323 15.0358 24.0392L15.0368 24.0381C13.2338 22.894 11.1041 21.1513 9.03252 18.5169L8.99155 18.463C8.97083 18.4339 8.95173 18.4044 8.93278 18.3752C8.90538 18.3329 8.87828 18.2911 8.84705 18.2516C8.8311 18.2311 8.81454 18.2103 8.79777 18.1892C8.74767 18.1262 8.69577 18.061 8.65294 17.9939C8.622 17.9486 8.59247 17.9004 8.56278 17.852C8.519 17.7807 8.47489 17.7088 8.42541 17.6445C8.38207 17.5854 8.31265 17.4753 8.23461 17.3514C8.13595 17.1949 8.02352 17.0164 7.9326 16.8918L7.93034 16.8887C7.87062 16.8066 7.8079 16.7203 7.75359 16.6352C7.71436 16.5742 7.68217 16.5117 7.65009 16.4494C7.61692 16.3849 7.58388 16.3208 7.54331 16.2588C7.52708 16.2346 7.5114 16.2123 7.49611 16.1906C7.46362 16.1444 7.43283 16.1006 7.40204 16.0464C7.36214 15.9763 7.31685 15.8954 7.28126 15.821C7.26411 15.7835 7.24082 15.7489 7.21737 15.714C7.19365 15.6788 7.16975 15.6433 7.15186 15.6042C7.11628 15.5266 7.05697 15.422 7.01275 15.3508C6.94953 15.2475 6.90592 15.1786 6.84455 15.0818L6.83051 15.0597C6.7993 15.0114 6.77781 14.9584 6.75618 14.9052C6.74642 14.8811 6.73663 14.857 6.72591 14.8332C6.70106 14.7824 6.66998 14.7356 6.63904 14.6889C6.60688 14.6404 6.57487 14.5921 6.55013 14.5399C6.53771 14.5026 6.52456 14.466 6.51153 14.4298C6.50194 14.4031 6.49242 14.3766 6.48328 14.3501C6.46133 14.3036 6.43253 14.2609 6.40366 14.218C6.37295 14.1725 6.34215 14.1268 6.31937 14.0762C6.30855 14.0525 6.30044 14.0291 6.29233 14.0056C6.28347 13.98 6.27461 13.9544 6.26221 13.9285C6.24181 13.885 6.21741 13.8431 6.19285 13.801C6.16808 13.7585 6.14315 13.7157 6.12202 13.6707C6.10252 13.6269 6.08707 13.5812 6.0716 13.5354C6.06311 13.5104 6.05463 13.4853 6.04546 13.4605C6.02926 13.423 6.00553 13.3891 5.98193 13.3553C5.95997 13.3239 5.93812 13.2926 5.92253 13.2588C5.9061 13.2259 5.89573 13.1905 5.88518 13.1545C5.87634 13.1243 5.86737 13.0936 5.85459 13.0636C5.82887 13.0075 5.79805 12.9526 5.76696 12.8972C5.73418 12.8389 5.7011 12.78 5.67343 12.7185C5.63475 12.6361 5.60948 12.5488 5.58413 12.4612C5.56071 12.3803 5.53723 12.2991 5.50304 12.2214C5.47951 12.172 5.45919 12.1194 5.43857 12.066C5.4214 12.0215 5.40402 11.9765 5.38442 11.9324C5.37039 11.903 5.35446 11.8734 5.33838 11.8435C5.31615 11.8022 5.29365 11.7604 5.27551 11.7178C5.26163 11.6863 5.25382 11.6532 5.24608 11.6204C5.23819 11.5869 5.23035 11.5537 5.2162 11.5226C5.19968 11.4863 5.18007 11.4512 5.16034 11.4159C5.13499 11.3705 5.10944 11.3248 5.09003 11.2757C5.07994 11.2459 5.07455 11.2159 5.06924 11.1863C5.06377 11.1558 5.05837 11.1257 5.04798 11.0967C5.03662 11.0662 5.02095 11.0377 5.00556 11.0097C4.9932 10.9872 4.98102 10.9651 4.97141 10.9425C4.95756 10.912 4.95054 10.8801 4.94363 10.8487C4.93708 10.819 4.93063 10.7897 4.91857 10.7624C4.90986 10.7429 4.90018 10.7227 4.89035 10.7023C4.87463 10.6695 4.85851 10.636 4.84524 10.6028C4.83876 10.5829 4.8341 10.5635 4.82955 10.5446C4.822 10.5131 4.81476 10.4829 4.79995 10.454C4.78935 10.4318 4.77617 10.4099 4.763 10.3879C4.74669 10.3608 4.73041 10.3337 4.71907 10.3062C4.70548 10.2756 4.69932 10.2427 4.6931 10.2093C4.68748 10.1792 4.68181 10.1489 4.67055 10.1197C4.65988 10.0919 4.64736 10.0634 4.63496 10.0351C4.62229 10.0063 4.60973 9.97763 4.59938 9.95038C4.58466 9.91528 4.58004 9.87424 4.57539 9.83287C4.57118 9.79543 4.56694 9.75773 4.55516 9.72393C4.54459 9.6955 4.52955 9.66707 4.51478 9.63914C4.50545 9.62151 4.49623 9.60408 4.4883 9.58697C4.47586 9.55949 4.46815 9.5315 4.4605 9.50374C4.45225 9.47377 4.44407 9.44406 4.43007 9.41551C4.42273 9.3991 4.41349 9.38183 4.40401 9.36411C4.38981 9.33757 4.37507 9.31003 4.36537 9.28287C4.34239 9.21689 4.32501 9.15091 4.30764 9.08493C4.29974 9.05493 4.29184 9.02494 4.28342 8.99495C4.27561 8.96664 4.27266 8.93899 4.26977 8.9119C4.26627 8.87915 4.26287 8.84723 4.25107 8.81594C4.21357 8.71005 4.17751 8.59725 4.14141 8.48437C4.10069 8.35701 4.05994 8.22954 4.01706 8.11177C3.99543 8.04952 3.98309 7.98701 3.97083 7.92487C3.95802 7.85999 3.9453 7.79553 3.92216 7.73219C3.91485 7.71106 3.90735 7.68948 3.89973 7.66757C3.86692 7.57318 3.83202 7.47281 3.80139 7.37741C3.78975 7.3425 3.78502 7.30194 3.78042 7.2625C3.7765 7.22885 3.77267 7.19601 3.76472 7.16821C3.75328 7.13069 3.74296 7.09131 3.73244 7.05115C3.72511 7.0232 3.71769 6.99488 3.70973 6.96655C3.70535 6.94611 3.70382 6.92611 3.70228 6.90585C3.7004 6.88123 3.69849 6.85623 3.69139 6.8296C3.66336 6.74333 3.6364 6.65814 3.6116 6.57187C3.6035 6.54644 3.60037 6.52349 3.59721 6.50036C3.59447 6.48033 3.59172 6.46017 3.58571 6.43815C3.57804 6.41245 3.57078 6.38539 3.56349 6.35822C3.55029 6.30901 3.53699 6.25947 3.52101 6.21709C3.5034 6.17013 3.49538 6.11869 3.4872 6.06626C3.48035 6.02237 3.4734 5.97779 3.46062 5.93456C3.45284 5.91002 3.44374 5.88316 3.43459 5.85618C3.42725 5.83455 3.4199 5.81285 3.41318 5.79221C3.40213 5.74995 3.396 5.70961 3.38994 5.66967C3.38238 5.61993 3.37493 5.57082 3.35818 5.51939C3.34935 5.49042 3.34005 5.46226 3.33075 5.43407C3.31166 5.37623 3.29253 5.31829 3.2773 5.25303C3.27051 5.22155 3.26761 5.19112 3.26475 5.16115C3.26261 5.13877 3.2605 5.11664 3.25681 5.09451C3.25493 5.0848 3.25189 5.07151 3.24831 5.05585C3.2376 5.00894 3.22204 4.94083 3.21799 4.88423C3.21152 4.8012 3.28593 4.77424 3.31505 4.84865C3.32817 4.8806 3.33435 4.91528 3.34062 4.95043C3.34619 4.98171 3.35183 5.01337 3.36249 5.04383C3.40886 5.17215 3.45739 5.33607 3.49513 5.4741C3.50389 5.50365 3.50626 5.53292 3.50858 5.56164C3.51083 5.5895 3.51305 5.61684 3.52101 5.6434C3.54907 5.73297 3.57956 5.82524 3.61018 5.91792C3.64076 6.01045 3.67147 6.10339 3.70002 6.19444C3.72272 6.2664 3.73262 6.3412 3.74258 6.41635C3.75202 6.48762 3.76151 6.55922 3.78198 6.62902C3.81972 6.75951 3.85962 6.8943 3.89736 7.01508C3.90694 7.04621 3.90987 7.07768 3.9128 7.10912C3.91515 7.13429 3.91749 7.15944 3.92324 7.18438C3.96803 7.33708 4.02735 7.48892 4.08559 7.63803C4.1199 7.72585 4.15383 7.81272 4.18421 7.89826C4.2037 7.95185 4.21367 8.00871 4.22355 8.065C4.23335 8.12085 4.24305 8.17614 4.26185 8.22716C4.27282 8.25713 4.28495 8.28842 4.29727 8.32019C4.31642 8.36959 4.33602 8.42015 4.35243 8.46871C4.36317 8.49801 4.3706 8.52598 4.37791 8.55352C4.38675 8.58681 4.39542 8.61947 4.40958 8.65311C4.46566 8.77497 4.52497 8.91084 4.57134 9.03809C4.58133 9.06513 4.5862 9.09121 4.59118 9.11791C4.59533 9.14017 4.59957 9.16287 4.60692 9.1869C4.61859 9.22066 4.63269 9.25546 4.64666 9.28992C4.65723 9.31601 4.66773 9.3419 4.67702 9.36699C4.70192 9.43691 4.72031 9.50476 4.73859 9.57218C4.75752 9.64201 4.77632 9.71139 4.80211 9.78216C4.8486 9.90823 4.90696 10.0343 4.96304 10.1555C4.97459 10.1804 4.98605 10.2052 4.99729 10.2297C5.01173 10.2663 5.02394 10.3063 5.03606 10.3461C5.04929 10.3894 5.06241 10.4324 5.07817 10.4702C5.08853 10.4936 5.10248 10.5157 5.11653 10.5379C5.13025 10.5596 5.14407 10.5815 5.15473 10.6049C5.16483 10.6279 5.17026 10.6509 5.17572 10.6741C5.18076 10.6954 5.18583 10.7169 5.19463 10.7387C5.20257 10.7583 5.21051 10.7781 5.2185 10.7981C5.25933 10.9001 5.30139 11.0052 5.351 11.0945C5.37539 11.1371 5.39216 11.1836 5.40931 11.2311C5.42173 11.2656 5.43435 11.3006 5.4502 11.335C5.46317 11.3643 5.47968 11.3939 5.49617 11.4235C5.51123 11.4505 5.52628 11.4775 5.53863 11.5043C5.55886 11.5494 5.57335 11.5958 5.58775 11.6419C5.60327 11.6916 5.61869 11.7409 5.64107 11.7879C5.68013 11.8712 5.72472 11.9536 5.76962 12.0364C5.8177 12.1252 5.86613 12.2146 5.90851 12.3066C5.92366 12.339 5.93562 12.3687 5.9468 12.3964C5.9762 12.4694 6.00021 12.529 6.06271 12.5891C6.06758 12.5935 6.07324 12.5997 6.07943 12.6066C6.09929 12.6285 6.12463 12.6564 6.14683 12.6474C6.16408 12.6409 6.16732 12.6301 6.16839 12.615C6.16839 12.4716 6.13874 12.4096 6.09521 12.3185C6.08963 12.3068 6.08382 12.2947 6.07781 12.2818C6.06095 12.2444 6.05001 12.2052 6.03896 12.1655C6.02738 12.1241 6.01568 12.0821 5.99693 12.0413C5.98006 12.0037 5.95909 11.9693 5.93797 11.9347C5.91186 11.8919 5.88553 11.8488 5.86645 11.7987C5.8571 11.7746 5.85134 11.7518 5.84569 11.7294C5.83896 11.7028 5.83239 11.6768 5.82008 11.6499C5.80473 11.615 5.78848 11.5794 5.77199 11.5432C5.72826 11.4472 5.68278 11.3474 5.64755 11.2487C5.63321 11.2091 5.62417 11.1696 5.61527 11.1308C5.60407 11.0819 5.59308 11.034 5.57206 10.9878C5.5619 10.9691 5.55035 10.9489 5.53871 10.9286C5.51203 10.882 5.48486 10.8346 5.47285 10.8023C5.45905 10.7594 5.44471 10.7175 5.43021 10.6752C5.42431 10.658 5.41839 10.6407 5.41246 10.6233C5.39928 10.5952 5.38502 10.5669 5.37079 10.5386C5.35009 10.4975 5.32943 10.4565 5.31217 10.4162C5.29268 10.3718 5.28075 10.3259 5.26862 10.2793C5.25929 10.2433 5.24982 10.207 5.23669 10.1704C5.20815 10.0954 5.17757 10.022 5.14746 9.94978C5.12865 9.90465 5.11002 9.85996 5.09219 9.81559C5.07178 9.76816 5.06039 9.71839 5.04872 9.66739C5.03943 9.6268 5.02996 9.58542 5.01562 9.54384C4.99441 9.48593 4.9671 9.43381 4.93985 9.38181C4.91585 9.33601 4.8919 9.29031 4.8722 9.24082C4.85705 9.20507 4.85042 9.16897 4.84368 9.13235C4.83843 9.1038 4.83312 9.07492 4.82368 9.04563C4.7827 8.91947 4.73956 8.7782 4.7029 8.65419C4.69478 8.62882 4.69144 8.60464 4.68815 8.58087C4.68445 8.55412 4.68082 8.52789 4.67055 8.50106C4.64906 8.44026 4.63114 8.37514 4.61294 8.30902C4.5937 8.2391 4.57416 8.16808 4.54977 8.09991C4.53097 8.04756 4.51168 7.99186 4.49237 7.93607C4.47071 7.8735 4.44901 7.81083 4.42792 7.75268C4.41829 7.71633 4.41238 7.67865 4.40663 7.64202C4.40078 7.60475 4.39511 7.56855 4.38586 7.53593C4.3722 7.49154 4.35465 7.44932 4.33732 7.40761C4.32728 7.38346 4.31731 7.35948 4.30822 7.33535C4.28702 7.27735 4.27564 7.21674 4.26421 7.15593C4.25355 7.09917 4.24285 7.04222 4.22411 6.98704L4.22196 6.98198C4.19902 6.92778 4.17728 6.8764 4.16264 6.82097C4.15397 6.78917 4.14772 6.75979 4.14129 6.72959C4.13813 6.71473 4.13492 6.69967 4.13137 6.68402C4.12265 6.64333 4.1105 6.60263 4.09756 6.5593C4.0913 6.53833 4.08486 6.51674 4.07853 6.49423C4.07149 6.46671 4.06711 6.43766 4.0629 6.40981C4.06003 6.39073 4.05723 6.37221 4.05372 6.35512C4.04801 6.32942 4.03777 6.29859 4.02555 6.26182C4.01469 6.22914 4.00228 6.19177 3.9901 6.14915C3.98642 6.1335 3.98352 6.11785 3.98066 6.10236C3.97681 6.08158 3.97302 6.06109 3.96746 6.04132C3.92756 5.91407 3.88658 5.75339 3.85531 5.62615C3.85 5.60787 3.84824 5.59121 3.8465 5.57475C3.84506 5.5611 3.84363 5.54758 3.84021 5.53341C3.83439 5.50566 3.82727 5.47773 3.82009 5.44954C3.80996 5.40979 3.7997 5.36952 3.79276 5.32852C3.79023 5.3133 3.7896 5.29808 3.78897 5.28285C3.78827 5.26572 3.78756 5.24859 3.78413 5.23146C3.77389 5.18535 3.75755 5.13704 3.74149 5.08955C3.72375 5.0371 3.70635 4.98564 3.69787 4.93923C3.68745 4.88135 3.67951 4.82161 3.67173 4.76301C3.66502 4.71242 3.65841 4.66268 3.65042 4.61572C3.63518 4.53139 3.60845 4.44131 3.58376 4.35812C3.58225 4.35301 3.58074 4.34794 3.57925 4.34289C3.56872 4.30026 3.56282 4.25866 3.55702 4.21783C3.55095 4.175 3.54499 4.13304 3.53395 4.09164C3.5295 4.07567 3.52493 4.05944 3.5203 4.04304C3.50586 3.99188 3.49094 3.93901 3.47788 3.88675C3.46669 3.84552 3.46483 3.80397 3.46298 3.7628C3.46145 3.72859 3.45993 3.69465 3.45308 3.66137C3.44553 3.6301 3.43771 3.59963 3.42989 3.56917C3.42207 3.5387 3.41426 3.50824 3.40671 3.47697C3.39832 3.44512 3.39805 3.41442 3.39778 3.38429C3.39753 3.35627 3.39729 3.32873 3.39053 3.3012C3.36023 3.19828 3.33811 3.08839 3.31598 2.97844C3.29637 2.88102 3.27675 2.78355 3.25142 2.69084C3.23126 2.62251 3.2239 2.54981 3.21649 2.47667C3.20963 2.40901 3.20274 2.34097 3.18564 2.27567C3.179 2.25185 3.1769 2.2306 3.17483 2.20956C3.17287 2.18965 3.17092 2.16993 3.16515 2.14843C3.15868 2.12578 3.15437 2.10313 3.15006 2.07941H3.14898C3.14857 2.07776 3.14831 2.07659 3.14809 2.07558C3.14774 2.07396 3.14749 2.07278 3.14682 2.07078C3.14574 2.06863 3.14574 2.06647 3.14574 2.06324C3.14427 2.0603 3.14381 2.05686 3.14332 2.05326C3.14309 2.05158 3.14285 2.04986 3.14251 2.04814C3.1328 1.99853 3.12633 1.94677 3.12202 1.89393V1.88746C3.11564 1.84007 3.10984 1.79133 3.10396 1.74198C3.09593 1.67454 3.08777 1.60594 3.07781 1.53807C3.07401 1.505 3.06667 1.47112 3.05922 1.43669C3.05184 1.40263 3.04435 1.36804 3.04006 1.33318C3.03442 1.27417 3.03366 1.21614 3.0329 1.15839C3.03207 1.09477 3.03124 1.03149 3.02389 0.967618C3.02317 0.962114 3.02236 0.956096 3.0215 0.949627C3.01202 0.878791 2.99531 0.753886 3.00124 0.65705C3.00175 0.650175 3.00201 0.643038 3.00228 0.635889C3.00374 0.597062 3.00522 0.55784 3.04438 0.55784C3.08877 0.55784 3.09436 0.611992 3.09829 0.650113C3.09865 0.653661 3.09901 0.657071 3.09937 0.660285C3.10396 0.692421 3.1052 0.725168 3.10648 0.759338C3.10761 0.789379 3.10878 0.820519 3.11231 0.853312C3.11916 0.914941 3.12996 0.970821 3.14077 1.02676C3.14869 1.06772 3.15661 1.10871 3.163 1.15202C3.16513 1.1709 3.16752 1.18979 3.1699 1.2086C3.17595 1.25639 3.18194 1.30371 3.18349 1.34936C3.19049 1.40134 3.19719 1.45491 3.20391 1.50869C3.20959 1.5542 3.2153 1.59985 3.22123 1.64483C3.22747 1.6885 3.24444 1.76647 3.26165 1.84549C3.27716 1.91671 3.29285 1.98879 3.30103 2.03735C3.30149 2.04011 3.30234 2.04287 3.30316 2.04555C3.30428 2.04915 3.30534 2.05259 3.30534 2.05569C3.31246 2.10077 3.31566 2.1465 3.3189 2.19271C3.32154 2.2305 3.32421 2.26862 3.32906 2.30695C3.33519 2.34523 3.34838 2.38351 3.36131 2.42101C3.36659 2.43634 3.37182 2.45153 3.37651 2.46654C3.3855 2.49974 3.39006 2.53561 3.39445 2.57015C3.3969 2.58946 3.3993 2.60835 3.40239 2.62614C3.40478 2.64863 3.40663 2.67123 3.40848 2.6939C3.41249 2.74297 3.41653 2.79239 3.42612 2.84181C3.45226 2.96205 3.49067 3.09891 3.52816 3.23249C3.55254 3.31936 3.57653 3.40483 3.5965 3.48344C3.60231 3.51686 3.60616 3.54979 3.61004 3.58288C3.61192 3.59892 3.6138 3.61499 3.61591 3.63117C3.61734 3.64454 3.61708 3.65705 3.61682 3.66994C3.61648 3.68617 3.61614 3.703 3.61914 3.72284C3.62739 3.76464 3.63917 3.80548 3.65097 3.84641C3.66079 3.88044 3.67062 3.91453 3.67845 3.94929C3.68627 3.98296 3.69006 4.01764 3.69395 4.05314C3.69703 4.0813 3.70017 4.10998 3.70541 4.13908C3.72503 4.22864 3.75747 4.32967 3.78725 4.42243C3.79512 4.44694 3.8028 4.47087 3.81001 4.49387C3.81608 4.51703 3.81848 4.53822 3.82082 4.55888C3.82306 4.57861 3.82524 4.59786 3.8305 4.61788C3.85079 4.68447 3.87084 4.75835 3.89111 4.83309C3.91285 4.91325 3.93487 4.99441 3.95775 5.06863C3.96544 5.09665 3.96977 5.12522 3.97417 5.15422C3.9784 5.18214 3.98269 5.21045 3.9901 5.23901C3.99546 5.25572 4.0009 5.27258 4.00639 5.28957C4.02957 5.36142 4.05349 5.43555 4.07529 5.50968C4.0815 5.53395 4.08387 5.55645 4.08626 5.57918C4.08844 5.59989 4.09064 5.62079 4.09578 5.6434C4.10926 5.69193 4.11924 5.74342 4.12921 5.79491C4.13918 5.8464 4.14916 5.89789 4.16264 5.94642C4.16928 5.97031 4.17183 5.99216 4.17432 6.01348C4.17587 6.0268 4.1774 6.03991 4.17989 6.05318C4.19611 6.10602 4.21436 6.15455 4.23279 6.20356C4.25235 6.25557 4.27212 6.30813 4.28989 6.36698C4.2996 6.40686 4.30616 6.44819 4.31279 6.48995C4.32015 6.53626 4.32758 6.58309 4.33949 6.62902C4.35165 6.66295 4.36989 6.69422 4.3879 6.72508C4.40023 6.74621 4.41244 6.76715 4.42252 6.78862C4.43221 6.81026 4.43677 6.8322 4.44147 6.85477C4.44567 6.87492 4.44997 6.89557 4.45811 6.91695C4.46109 6.92538 4.46407 6.93381 4.46706 6.94226C4.49537 7.02243 4.52395 7.10331 4.55516 7.1833C4.56085 7.20346 4.5648 7.22361 4.5688 7.244C4.57314 7.26616 4.57754 7.2886 4.58428 7.31163C4.59288 7.33703 4.60232 7.36215 4.6118 7.38734C4.62847 7.43167 4.64523 7.47623 4.65761 7.52299C4.6678 7.55918 4.66764 7.59562 4.66747 7.63093C4.66729 7.67031 4.66712 7.70829 4.68133 7.74297C4.694 7.77638 4.71344 7.80548 4.73275 7.83438C4.74959 7.85959 4.76633 7.88464 4.77838 7.91228C4.79653 7.95148 4.80292 7.99736 4.80928 8.04301C4.81464 8.08149 4.81997 8.1198 4.8323 8.15383C4.85246 8.20846 4.87836 8.25918 4.90409 8.30958C4.93067 8.36165 4.95708 8.41337 4.9768 8.46871C4.98603 8.49455 4.9921 8.5218 4.99822 8.54924C5.00282 8.5699 5.00745 8.59068 5.01347 8.61105C5.01999 8.63023 5.02729 8.65032 5.03478 8.67094C5.04708 8.70482 5.05989 8.7401 5.07062 8.77497C5.08146 8.81351 5.08916 8.85011 5.09662 8.88555C5.10919 8.94529 5.12106 9.00172 5.14611 9.05858C5.15907 9.08649 5.17502 9.11279 5.19109 9.13928C5.2098 9.17011 5.22866 9.20121 5.24316 9.23543C5.25555 9.26765 5.26367 9.30059 5.27182 9.33362C5.27785 9.35807 5.28389 9.38258 5.29169 9.40689C5.31067 9.46121 5.33759 9.51077 5.36402 9.55942C5.38114 9.59092 5.39805 9.62204 5.41246 9.65383C5.42754 9.68677 5.43654 9.72 5.44546 9.75292C5.45377 9.78359 5.46201 9.81398 5.47501 9.84362C5.49041 9.87817 5.50865 9.9105 5.52692 9.94288C5.55084 9.98528 5.57482 10.0278 5.59255 10.0755C5.61493 10.1383 5.62994 10.2022 5.64475 10.2652C5.66349 10.3449 5.68188 10.4232 5.7144 10.496C5.78421 10.654 5.86214 10.8081 5.94016 10.9623C6.00436 11.0892 6.06862 11.2163 6.12849 11.3458C6.14384 11.3797 6.1527 11.4169 6.16169 11.4547C6.17102 11.494 6.18049 11.5338 6.19751 11.5712C6.22416 11.6323 6.25786 11.6879 6.29153 11.7434C6.31372 11.7801 6.3359 11.8166 6.35603 11.8548C6.36579 11.8743 6.37195 11.8938 6.37829 11.9139C6.38175 11.9249 6.38527 11.9361 6.38946 11.9475C6.402 11.9761 6.4186 12.0056 6.43488 12.0345C6.4438 12.0503 6.45262 12.066 6.46063 12.0812C6.49213 12.1388 6.51414 12.2068 6.53622 12.275C6.57084 12.3819 6.60562 12.4894 6.67738 12.5579C6.71189 12.5924 6.77228 12.6441 6.80247 12.6366C6.80822 12.6341 6.80959 12.6292 6.81087 12.6246C6.81127 12.6231 6.81166 12.6217 6.81218 12.6204C6.82728 12.5805 6.79169 12.477 6.77983 12.4511C6.75772 12.4019 6.72996 12.3519 6.70204 12.3016C6.67548 12.2537 6.64878 12.2056 6.6267 12.1578C6.61465 12.1314 6.60718 12.1047 6.59958 12.0775C6.5929 12.0536 6.58611 12.0294 6.57602 12.0047C6.55574 11.9567 6.53267 11.912 6.50999 11.868C6.49286 11.8347 6.47595 11.8019 6.46063 11.7685C6.43577 11.716 6.41802 11.6619 6.40039 11.6083C6.38437 11.5595 6.36845 11.5111 6.3474 11.4644C6.31183 11.3891 6.27355 11.3127 6.23501 11.2358C6.18245 11.1309 6.12942 11.025 6.08213 10.9198C6.0721 10.8986 6.06724 10.8777 6.06224 10.8562C6.0581 10.8384 6.05387 10.8203 6.04654 10.8012C6.02885 10.7527 6.00786 10.7026 5.9875 10.654C5.97932 10.6345 5.97124 10.6152 5.96351 10.5963C5.95007 10.5633 5.94184 10.5309 5.9337 10.499C5.92486 10.4643 5.91613 10.43 5.90096 10.3957C5.88536 10.3614 5.8665 10.3274 5.84765 10.2933C5.8274 10.2567 5.80716 10.2202 5.79097 10.1833C5.75215 10.1057 5.71872 10.0205 5.6896 9.93744C5.68221 9.91314 5.6774 9.88988 5.67252 9.86626C5.66743 9.84165 5.66227 9.81666 5.65402 9.78971C5.63622 9.74132 5.61436 9.69545 5.59245 9.64947C5.5626 9.58683 5.53265 9.52399 5.51275 9.45433C5.51118 9.44627 5.50966 9.4382 5.50814 9.43013C5.50233 9.39933 5.49649 9.3684 5.48795 9.33679C5.47826 9.3051 5.46921 9.27328 5.46013 9.24138C5.44296 9.181 5.42571 9.12033 5.40384 9.05965C5.38815 9.01908 5.36649 8.98366 5.34499 8.9485C5.32363 8.91357 5.30242 8.8789 5.28737 8.83967C5.27471 8.80379 5.27057 8.76378 5.26648 8.72431C5.26221 8.68312 5.25801 8.64252 5.24424 8.60782C5.23179 8.57795 5.21759 8.54792 5.20317 8.51743C5.1801 8.46865 5.15647 8.41868 5.13856 8.36627C5.12288 8.31766 5.11429 8.27006 5.1058 8.22299C5.09677 8.17294 5.08785 8.12349 5.07062 8.07403C5.05446 8.02823 5.03264 7.9862 5.01068 7.9439C4.9887 7.90155 4.96657 7.85893 4.94985 7.81199C4.93085 7.76155 4.91902 7.69918 4.90758 7.63889C4.90018 7.59992 4.89296 7.56182 4.88407 7.52838C4.87731 7.50342 4.87732 7.47896 4.87733 7.45525C4.87734 7.42978 4.87734 7.40517 4.86897 7.38172C4.86199 7.36741 4.85501 7.35412 4.8481 7.34097C4.83367 7.31348 4.81955 7.2866 4.80642 7.25232C4.79238 7.21076 4.78691 7.17016 4.78157 7.13051C4.77707 7.09711 4.77266 7.06438 4.76329 7.03233C4.71692 6.90077 4.67055 6.74549 4.63173 6.6053C4.62294 6.57429 4.62084 6.54303 4.61879 6.51235C4.61655 6.47902 4.61436 6.44639 4.60369 6.41551C4.59664 6.39471 4.58878 6.37345 4.5808 6.35184C4.56436 6.30735 4.54737 6.26139 4.53575 6.21493C4.52698 6.17982 4.5233 6.14507 4.51964 6.11047C4.51701 6.08557 4.51439 6.06075 4.50987 6.03592C4.50366 6.01163 4.49389 5.98792 4.48398 5.96388C4.47498 5.94204 4.46586 5.91991 4.45919 5.89682C4.45263 5.87234 4.45102 5.84886 4.44942 5.82564C4.44814 5.80691 4.44687 5.78835 4.44302 5.76957C4.43725 5.73958 4.42778 5.71021 4.41841 5.68113C4.41025 5.65583 4.40216 5.63074 4.39665 5.60566C4.39235 5.5815 4.39046 5.55734 4.38858 5.53331C4.38669 5.50908 4.3848 5.48498 4.38047 5.46116C4.37326 5.43053 4.35903 5.40224 4.34504 5.37443C4.33391 5.35231 4.32294 5.33049 4.31577 5.30803C4.30762 5.27814 4.3022 5.24661 4.29677 5.21496C4.29142 5.18379 4.28605 5.15251 4.27803 5.12255C4.26829 5.09129 4.25441 5.06075 4.24044 5.03002C4.22502 4.9961 4.20949 4.96194 4.19931 4.92629C4.17829 4.85132 4.16409 4.77589 4.14993 4.70061C4.14229 4.66002 4.13466 4.61947 4.12598 4.57906C4.12145 4.5534 4.1188 4.52846 4.11617 4.50366C4.11315 4.4753 4.11016 4.44715 4.10441 4.41838C4.09697 4.3793 4.08596 4.3413 4.07466 4.30231C4.06632 4.27352 4.05782 4.24418 4.05049 4.21349C4.04778 4.19453 4.04677 4.17728 4.04573 4.15935C4.04427 4.13444 4.04274 4.10824 4.03647 4.07438C4.02881 4.03811 4.01752 4.00402 4.00615 3.9697C3.99352 3.93157 3.98079 3.89316 3.97285 3.85116C3.96772 3.82323 3.9659 3.80162 3.96406 3.77966C3.96241 3.76007 3.96074 3.74019 3.95667 3.71529C3.95233 3.68058 3.93539 3.59689 3.92242 3.53284C3.91605 3.50138 3.91063 3.47465 3.90815 3.46079C3.90386 3.44098 3.90224 3.42595 3.90063 3.41108C3.899 3.39602 3.89739 3.38112 3.89305 3.36158C3.88986 3.34247 3.87805 3.29642 3.86636 3.25087C3.85431 3.20391 3.8424 3.15747 3.84021 3.1416C3.83818 3.1269 3.83854 3.11507 3.83892 3.10217C3.83936 3.08762 3.83983 3.07172 3.83697 3.04886C3.83395 3.01939 3.82511 2.97299 3.816 2.92522C3.81211 2.90481 3.80817 2.88415 3.80462 2.86446C3.79856 2.82689 3.79625 2.77741 3.79424 2.73437C3.79267 2.70082 3.79128 2.67119 3.78845 2.65418C3.78471 2.63737 3.77148 2.60601 3.75583 2.56894C3.73534 2.52038 3.71071 2.46201 3.69786 2.4137C3.68905 2.38175 3.68755 2.35092 3.68604 2.31979C3.68459 2.28997 3.68313 2.25987 3.67522 2.22822L3.6752 2.22816C3.6558 2.14839 3.63639 2.06861 3.61591 1.99314C3.61052 1.96564 3.61052 1.93626 3.61052 1.9066C3.61052 1.87695 3.61052 1.84702 3.60512 1.81845C3.60298 1.81045 3.60077 1.80238 3.59854 1.79424C3.57616 1.71242 3.55188 1.6237 3.56954 1.53052C3.58234 1.45457 3.55867 1.38268 3.53915 1.32338C3.53401 1.30775 3.52915 1.29299 3.52533 1.27927C3.51454 1.24799 3.51023 1.21456 3.51023 1.18006C3.50916 1.16667 3.50942 1.1525 3.50968 1.13779C3.50996 1.12286 3.51024 1.10738 3.50915 1.09163C3.50665 1.06407 3.50349 1.05203 3.49719 1.02796C3.49535 1.02095 3.49325 1.01293 3.49082 1.0032C3.48111 0.958992 3.48004 0.950364 3.48004 0.924484C3.48004 0.897438 3.48036 0.874238 3.48065 0.853138C3.48089 0.835539 3.48111 0.8194 3.48111 0.803707C3.48219 0.778905 3.47141 0.728222 3.46386 0.693714C3.45948 0.67913 3.45412 0.651727 3.44978 0.629508C3.4477 0.618868 3.44585 0.609417 3.44445 0.603132C3.4434 0.594589 3.44247 0.587117 3.44163 0.580366C3.43725 0.545357 3.4353 0.529713 3.43259 0.484512C3.43259 0.451083 3.42935 0.350795 3.42073 0.310895C3.40826 0.265643 3.40059 0.225575 3.39261 0.183901C3.38747 0.157052 3.38219 0.129536 3.37543 0.0995363C3.35926 0.0359129 3.37328 0.00571872 3.40886 0.000326903C3.45831 -0.00612249 3.48204 0.0838581 3.50782 0.181625L3.50807 0.18257C3.51171 0.198664 3.51284 0.217007 3.514 0.235795C3.51526 0.256032 3.51654 0.276785 3.52101 0.295798C3.53719 0.357265 3.55876 0.462945 3.56523 0.563232C3.56743 0.600771 3.57416 0.641137 3.58035 0.678252C3.58625 0.713637 3.59166 0.746067 3.59219 0.770278C3.59398 0.790607 3.59577 0.829501 3.59757 0.868395C3.59901 0.899648 3.60045 0.930901 3.60189 0.952521C3.60513 0.983794 3.62238 1.05389 3.6364 1.10349C3.66012 1.1628 3.68061 1.22319 3.70002 1.28574C3.71244 1.32785 3.7135 1.3724 3.71458 1.41762C3.71566 1.46272 3.71675 1.50848 3.72914 1.55317C3.7304 1.55768 3.73169 1.56231 3.73301 1.56703C3.75314 1.63902 3.77934 1.73274 3.78845 1.77423C3.79299 1.79751 3.79514 1.83335 3.79726 1.86867C3.79917 1.90044 3.80105 1.9318 3.80462 1.95324C3.8086 1.98043 3.82522 2.04878 3.84093 2.11345C3.85078 2.15396 3.86027 2.19302 3.86609 2.2196C3.87367 2.26003 3.87681 2.29046 3.87941 2.31568C3.88125 2.33351 3.88282 2.34873 3.8855 2.36302C3.88908 2.38668 3.91078 2.4537 3.92682 2.50327C3.93491 2.52826 3.94156 2.54881 3.94373 2.55713C3.94652 2.5734 3.94811 2.60232 3.94988 2.63453C3.95221 2.677 3.95485 2.7252 3.96099 2.7577C3.96649 2.7874 3.99275 2.88276 4.01845 2.97607C4.04313 3.0657 4.0673 3.15345 4.07206 3.17934C4.07625 3.2022 4.07844 3.2305 4.08078 3.26093C4.08386 3.30086 4.08721 3.34446 4.09578 3.38423C4.10471 3.43258 4.11722 3.46656 4.12979 3.50068C4.13545 3.51603 4.14111 3.53141 4.14646 3.54814C4.16089 3.59603 4.1679 3.6467 4.17478 3.69634C4.18075 3.73949 4.18662 3.78186 4.19715 3.82097C4.20817 3.8614 4.21204 3.90106 4.21585 3.94008C4.21986 3.9812 4.2238 4.02161 4.23597 4.06144C4.28342 4.20918 4.33518 4.3925 4.36968 4.53484C4.37862 4.56939 4.38328 4.60328 4.38802 4.63778C4.39186 4.66574 4.39576 4.69411 4.40204 4.72356C4.41821 4.77567 4.43551 4.82742 4.45284 4.87925C4.4771 4.95183 4.50142 5.0246 4.52281 5.09883C4.54675 5.18285 4.56058 5.27167 4.57442 5.36054C4.58989 5.45987 4.60537 5.55925 4.63496 5.65203C4.67611 5.78643 4.71803 5.92937 4.75744 6.06374C4.76451 6.08785 4.77149 6.11168 4.77838 6.13513C4.78494 6.1644 4.78914 6.19462 4.79341 6.22534C4.79827 6.26026 4.80321 6.29583 4.81181 6.3314C4.82657 6.37683 4.84519 6.41937 4.86363 6.46147C4.87889 6.4963 4.89402 6.53084 4.90671 6.56648C4.91422 6.59323 4.91948 6.6204 4.92472 6.64743C4.93152 6.68251 4.93827 6.71738 4.94984 6.75088C4.9607 6.78084 4.97243 6.81063 4.98412 6.84032C5.00146 6.88435 5.01871 6.92814 5.03288 6.97194C5.04331 7.00614 5.04969 7.04034 5.05605 7.07437C5.06151 7.10365 5.06695 7.13281 5.07493 7.16173C5.09061 7.20527 5.10597 7.25224 5.12135 7.29929C5.13455 7.33964 5.14776 7.38005 5.1612 7.41839C5.17013 7.44238 5.17502 7.46753 5.1799 7.49265C5.18444 7.51606 5.18898 7.53943 5.19679 7.56181C5.21196 7.60277 5.23033 7.64426 5.24778 7.68367C5.25513 7.70028 5.26232 7.71652 5.26904 7.73219C5.28142 7.76048 5.29017 7.79095 5.29887 7.82122C5.30078 7.82786 5.30268 7.8345 5.30463 7.8411C5.31269 7.86197 5.32221 7.88366 5.33181 7.90555C5.34405 7.93344 5.35642 7.96165 5.36609 7.98884C5.36941 8.001 5.37235 8.01329 5.3753 8.02562C5.38098 8.04936 5.38669 8.07325 5.39521 8.09668C5.41007 8.13098 5.42736 8.16467 5.4445 8.19808C5.4597 8.22769 5.47477 8.25708 5.48795 8.28647C5.51706 8.34793 5.53863 8.41479 5.55696 8.48273C5.56447 8.50759 5.56809 8.53061 5.57157 8.55268C5.57609 8.58136 5.58036 8.60844 5.59255 8.63586C5.59993 8.64824 5.60737 8.66037 5.61475 8.6724C5.63758 8.70959 5.65981 8.74582 5.67774 8.78575C5.68867 8.81212 5.69615 8.83887 5.70361 8.86555C5.70866 8.8836 5.7137 8.90162 5.7198 8.91947C5.73058 8.94319 5.74568 8.96476 5.76077 8.98633C5.77587 9.00789 5.79097 9.02946 5.80175 9.05318C5.81565 9.08387 5.81928 9.12046 5.82301 9.15795C5.82622 9.19029 5.82951 9.2233 5.83949 9.25376C5.84856 9.28095 5.86228 9.30813 5.87577 9.33486C5.88475 9.35265 5.89363 9.37023 5.90096 9.38748C5.91935 9.42743 5.93401 9.47111 5.94845 9.51413C5.95857 9.54427 5.96857 9.57408 5.97968 9.60207C5.98362 9.61389 5.98698 9.62528 5.9903 9.6365C5.99606 9.65598 6.00166 9.67496 6.00987 9.69481C6.04546 9.77676 6.09183 9.85225 6.14036 9.92127C6.16839 9.96116 6.21476 10.0269 6.25682 10.0194C6.273 10.0118 6.27515 9.94175 6.2676 9.91156C6.25587 9.86822 6.24848 9.82375 6.24124 9.7802C6.23119 9.71972 6.22143 9.66103 6.20074 9.60962C6.19322 9.59063 6.18579 9.57115 6.17831 9.55154C6.16114 9.50653 6.14371 9.46081 6.12418 9.41875C6.11673 9.40478 6.10707 9.39001 6.09729 9.37505C6.0844 9.35535 6.07129 9.3353 6.06271 9.3163C6.05624 9.29867 6.04976 9.28115 6.04328 9.26364C6.03035 9.22867 6.01741 9.19371 6.00448 9.15778C5.99603 9.13805 5.98491 9.11812 5.97363 9.09788C5.95901 9.07168 5.94413 9.04498 5.93439 9.0176C5.92648 8.98891 5.92242 8.95954 5.91837 8.93022C5.91359 8.89562 5.90882 8.86108 5.89772 8.82781C5.88776 8.80125 5.87509 8.77615 5.86228 8.75076C5.84596 8.71843 5.8294 8.68565 5.81793 8.6488C5.80966 8.61963 5.80753 8.58718 5.80542 8.55489C5.80284 8.51556 5.80027 8.47648 5.78665 8.44391C5.77537 8.4226 5.76167 8.39984 5.74829 8.37763C5.72714 8.3425 5.70682 8.30875 5.69823 8.28431C5.68983 8.25852 5.68377 8.23373 5.67781 8.20938C5.67306 8.18996 5.66838 8.17081 5.66264 8.15167C5.65245 8.12223 5.64017 8.09219 5.62785 8.06202C5.6167 8.03474 5.60551 8.00735 5.59578 7.98021C5.58075 7.93779 5.57213 7.89511 5.56354 7.85255C5.55488 7.80965 5.54624 7.76687 5.53108 7.72464C5.49334 7.62112 5.45128 7.50681 5.41246 7.41191C5.40163 7.38375 5.39624 7.35504 5.39082 7.32619C5.38545 7.29761 5.38006 7.2689 5.36933 7.24046C5.35837 7.21389 5.34609 7.18733 5.33378 7.16071C5.3146 7.11923 5.29535 7.0776 5.2809 7.03557C5.27072 6.99958 5.26395 6.96316 5.25711 6.92632C5.25308 6.90465 5.24903 6.88283 5.24424 6.86087C5.23949 6.84054 5.22794 6.81936 5.21679 6.79893C5.2102 6.78685 5.20375 6.77504 5.19895 6.76382C5.19023 6.73713 5.18729 6.70989 5.1843 6.68209C5.18136 6.65487 5.17837 6.62711 5.16983 6.59883C5.16545 6.5853 5.16005 6.5709 5.15454 6.5562C5.14511 6.53107 5.13537 6.50511 5.12993 6.48129C5.12695 6.4649 5.12436 6.4485 5.12175 6.43202C5.11681 6.4008 5.11181 6.36926 5.10405 6.33679C5.09759 6.31763 5.0911 6.29855 5.08462 6.27951C5.05753 6.19997 5.0307 6.12116 5.00808 6.04024C5.00063 6.01541 4.99782 5.9913 4.99494 5.96647C4.9928 5.94815 4.99063 5.92944 4.98651 5.90976C4.98451 5.90087 4.9825 5.89191 4.98049 5.88291C4.96071 5.79467 4.9398 5.70137 4.91534 5.61428C4.91008 5.59115 4.90764 5.56879 4.90527 5.54706C4.90278 5.52423 4.90037 5.50212 4.89485 5.48057C4.84993 5.33297 4.81132 5.17938 4.77271 5.02577C4.73994 4.89543 4.70718 4.76508 4.67055 4.63837C4.66546 4.61699 4.66229 4.59489 4.65912 4.57275C4.65557 4.54799 4.65201 4.52317 4.64575 4.49926C4.59331 4.3278 4.56211 4.13413 4.53089 3.94023C4.50496 3.77925 4.47901 3.61812 4.44086 3.46942C4.43295 3.43598 4.43259 3.39087 4.43223 3.3461C4.43195 3.31147 4.43168 3.27704 4.42792 3.24836C4.42134 3.21155 4.40796 3.17715 4.39485 3.14344C4.38645 3.12184 4.37816 3.10053 4.37184 3.07905C4.36284 3.05147 4.36147 3.02331 4.36007 2.99455C4.35879 2.96822 4.35749 2.94139 4.35027 2.91406C4.34534 2.89637 4.34018 2.87851 4.33496 2.8605C4.3208 2.81157 4.30631 2.76149 4.29528 2.71025C4.28944 2.66887 4.28674 2.62357 4.28408 2.5791C4.28134 2.53319 4.27866 2.48818 4.27263 2.44929C4.26692 2.41844 4.25273 2.38457 4.23889 2.35151C4.2266 2.32217 4.21459 2.29348 4.20901 2.26812C4.20438 2.24091 4.2041 2.21122 4.20383 2.18287C4.2036 2.15842 4.20338 2.13497 4.20038 2.115C4.19287 2.07626 4.18667 2.02971 4.18012 1.98059C4.1688 1.89569 4.15646 1.80312 4.1346 1.73002C4.1261 1.70339 4.12475 1.67765 4.12334 1.65092C4.12208 1.62679 4.12076 1.60186 4.11411 1.57474C4.09794 1.50788 4.08931 1.43886 4.085 1.35475C4.08484 1.34729 4.08452 1.34014 4.08421 1.33332C4.08243 1.29381 4.08116 1.26566 4.11519 1.25554C4.14862 1.24799 4.17558 1.29652 4.19499 1.35691C4.1973 1.36923 4.19892 1.38087 4.20055 1.3925C4.20347 1.41345 4.20639 1.4344 4.21332 1.45935C4.23705 1.53268 4.25969 1.60601 4.28234 1.69012C4.29131 1.72655 4.28943 1.76608 4.28758 1.80504C4.28565 1.84566 4.28374 1.88566 4.2942 1.92089C4.35401 2.1175 4.39431 2.33233 4.43474 2.54787C4.46794 2.7248 4.50122 2.90222 4.54546 3.07043C4.55359 3.1011 4.55955 3.13358 4.56565 3.16683C4.57006 3.19086 4.57454 3.2153 4.57997 3.23973C4.60604 3.33249 4.62279 3.42991 4.63942 3.52668C4.65856 3.63804 4.67756 3.74854 4.71045 3.85008C4.71971 3.88135 4.724 3.91977 4.72833 3.9585C4.73205 3.99189 4.73581 4.02551 4.7428 4.05497C4.76471 4.12786 4.78254 4.20363 4.80047 4.27991C4.82049 4.36501 4.84065 4.45074 4.86681 4.53376C4.87303 4.54931 4.87987 4.56504 4.88675 4.58084C4.90373 4.61984 4.92091 4.6593 4.92936 4.69768C4.93174 4.71039 4.93406 4.72323 4.93639 4.73615C4.94356 4.77585 4.95087 4.81633 4.96063 4.85619C4.97313 4.8971 4.98772 4.93801 5.0022 4.9786C5.01521 5.01505 5.02812 5.05125 5.03935 5.08696C5.04613 5.11182 5.04965 5.13993 5.05317 5.16803C5.05638 5.19359 5.05958 5.21914 5.06523 5.24225C5.08037 5.29499 5.09241 5.34862 5.10456 5.40273C5.11924 5.4681 5.13408 5.53418 5.15473 5.60027C5.18137 5.68399 5.2079 5.76961 5.23464 5.8559C5.29124 6.03856 5.34879 6.22425 5.41031 6.40149C5.41732 6.42091 5.42136 6.46679 5.42568 6.51576C5.42999 6.56466 5.43457 6.61664 5.44266 6.64843C5.45751 6.69672 5.47557 6.74394 5.49376 6.79152C5.50726 6.82682 5.52084 6.86233 5.53324 6.89861C5.53804 6.92024 5.54268 6.94329 5.54736 6.96654C5.55949 7.02679 5.5719 7.08845 5.58823 7.13046C5.59921 7.16132 5.61454 7.19392 5.62952 7.22577C5.63809 7.24401 5.64656 7.262 5.65402 7.27928C5.66875 7.31286 5.67736 7.34677 5.68619 7.38153C5.69352 7.41038 5.701 7.43982 5.71225 7.47015C5.73476 7.53335 5.76352 7.59724 5.79185 7.66016C5.7988 7.67561 5.80573 7.691 5.81253 7.70631C5.83418 7.75488 5.84833 7.80448 5.86245 7.85398C5.87717 7.90559 5.89186 7.95708 5.91498 8.00717C5.92243 8.02428 5.93023 8.04181 5.93814 8.05957C5.96112 8.11121 5.98495 8.16474 6.0034 8.21529C6.01355 8.24349 6.02282 8.2938 6.03213 8.34433C6.04062 8.39043 6.04914 8.43671 6.0584 8.46655C6.07707 8.51653 6.09775 8.56751 6.11839 8.61838C6.13471 8.65861 6.151 8.69877 6.16624 8.7383C6.17437 8.76099 6.18013 8.78283 6.18573 8.80409C6.19424 8.83638 6.20239 8.86734 6.218 8.8979C6.23431 8.93299 6.25356 8.96853 6.27306 9.00453C6.29611 9.04708 6.3195 9.09025 6.33878 9.13406C6.35828 9.17886 6.37185 9.22469 6.38555 9.27093C6.39987 9.31928 6.41433 9.36808 6.43583 9.41659C6.50484 9.57835 6.5965 9.74765 6.68169 9.90078C6.7048 9.94199 6.72103 9.98681 6.73751 10.0323C6.74949 10.0654 6.76161 10.0989 6.77659 10.1315C6.7871 10.1531 6.80196 10.1739 6.81681 10.1946C6.83243 10.2165 6.84804 10.2383 6.85855 10.261C6.88164 10.3071 6.89997 10.3553 6.91839 10.4037C6.93609 10.4502 6.95389 10.4969 6.97609 10.5424C6.9849 10.5592 6.99606 10.5764 7.00743 10.5941C7.02387 10.6195 7.04074 10.6457 7.05157 10.6718C7.07172 10.7138 7.082 10.761 7.09219 10.8079C7.10164 10.8513 7.11102 10.8944 7.12814 10.9328C7.14424 10.969 7.16557 11.004 7.18654 11.0385C7.20489 11.0686 7.22296 11.0983 7.23705 11.128C7.24868 11.1535 7.25892 11.1798 7.26911 11.206C7.28728 11.2526 7.30531 11.299 7.33087 11.3404C7.34399 11.3604 7.35921 11.3803 7.37432 11.4001C7.38778 11.4178 7.40114 11.4353 7.41283 11.4525C7.43335 11.4841 7.45317 11.5314 7.47478 11.583C7.49973 11.6426 7.52705 11.7078 7.56056 11.761C7.56056 11.7631 7.56164 11.7653 7.56272 11.7663C7.56917 11.7798 7.58364 11.8007 7.59842 11.8221C7.6133 11.8436 7.62847 11.8655 7.63605 11.8807C7.64297 11.8961 7.64647 11.9023 7.65071 11.9099C7.65506 11.9176 7.66018 11.9267 7.67056 11.9486C7.6835 11.9745 7.69752 12.0079 7.70722 12.0392C7.718 12.0758 7.7331 12.1114 7.74388 12.1287C7.765 12.1671 7.78917 12.2034 7.81339 12.2397C7.84483 12.2868 7.87635 12.334 7.90133 12.3864C7.91504 12.4166 7.92603 12.4537 7.93746 12.4923C7.97097 12.6056 8.00824 12.7315 8.12886 12.7315C8.1666 12.725 8.1515 12.5686 8.12023 12.5061C8.10007 12.463 8.07206 12.4248 8.04435 12.387C8.0187 12.3521 7.99331 12.3175 7.97465 12.2796C7.95741 12.2428 7.94676 12.2016 7.93618 12.1607C7.92295 12.1096 7.90984 12.059 7.88407 12.0176L7.88143 12.0141C7.87278 12.0025 7.86485 11.9919 7.85603 11.9831C7.84302 11.9658 7.82711 11.9474 7.81542 11.934C7.80968 11.9274 7.80496 11.922 7.80212 11.9184C7.7881 11.8979 7.75359 11.8418 7.74281 11.8116C7.73727 11.7966 7.73174 11.7776 7.72663 11.7599C7.72477 11.7535 7.72297 11.7473 7.72124 11.7415C7.72042 11.7325 7.71772 11.7241 7.71553 11.7173C7.71484 11.7151 7.7142 11.7131 7.71369 11.7113C7.71153 11.706 7.70937 11.706 7.70937 11.706C7.69626 11.6763 7.67893 11.6482 7.66185 11.6204C7.64661 11.5957 7.63156 11.5713 7.61987 11.5464C7.60762 11.52 7.59955 11.4947 7.5913 11.4689C7.58503 11.4493 7.57865 11.4293 7.57027 11.4083C7.54344 11.3431 7.51145 11.2827 7.47975 11.2228C7.45537 11.1768 7.43115 11.1311 7.40959 11.0837C7.3957 11.0526 7.38713 11.0198 7.37869 10.9874C7.36811 10.9469 7.35772 10.9072 7.33734 10.8724C7.32076 10.8469 7.3015 10.8222 7.28207 10.7973C7.25221 10.7591 7.22195 10.7203 7.20039 10.6772C7.18427 10.6429 7.17467 10.6043 7.16507 10.5657C7.15474 10.5242 7.14441 10.4827 7.12598 10.4464C7.11584 10.4256 7.102 10.4053 7.08826 10.3852C7.07423 10.3646 7.0603 10.3442 7.0505 10.3235C7.03105 10.2814 7.01465 10.235 6.99901 10.1907C6.99383 10.1761 6.98873 10.1617 6.98364 10.1477C6.96248 10.0904 6.93884 10.0403 6.91558 9.99096C6.89024 9.9372 6.86533 9.88437 6.84453 9.82421C6.82885 9.78225 6.81751 9.74049 6.80629 9.69917C6.79128 9.64387 6.77648 9.58937 6.75179 9.53629C6.73851 9.50759 6.72302 9.47957 6.70734 9.45122C6.68356 9.40819 6.65935 9.3644 6.6418 9.3163C6.62882 9.26647 6.61499 9.2162 6.60111 9.16577C6.59307 9.13654 6.58501 9.10726 6.57709 9.07799C6.50476 8.8807 6.43143 8.68309 6.35784 8.48478C6.29868 8.32537 6.23936 8.16552 6.18026 8.00501C6.16513 7.96172 6.1548 7.91844 6.14438 7.87478C6.13326 7.82817 6.12203 7.78115 6.10477 7.73327C6.07579 7.65264 6.04732 7.56814 6.01873 7.48331C5.98883 7.39455 5.9588 7.30543 5.92792 7.21997C5.91425 7.17214 5.90381 7.12395 5.89329 7.0754C5.88554 7.03967 5.87775 7.00375 5.86861 6.96763C5.86421 6.94904 5.86247 6.932 5.86077 6.91542C5.85873 6.89543 5.85676 6.8761 5.85028 6.85548C5.83582 6.81623 5.81765 6.77748 5.79932 6.7384C5.77938 6.69586 5.75925 6.65293 5.74352 6.60853C5.71372 6.52361 5.69061 6.44023 5.66744 6.35661C5.65707 6.31919 5.64669 6.28172 5.63568 6.24405C5.62715 6.22111 5.62336 6.20029 5.61963 6.17975C5.61581 6.15876 5.61205 6.13807 5.60333 6.11572C5.59532 6.09369 5.58492 6.07314 5.57442 6.05237C5.55664 6.01723 5.53854 5.98144 5.53108 5.93671C5.52645 5.90521 5.52301 5.8735 5.51957 5.84177C5.515 5.79965 5.51042 5.75747 5.50304 5.71565C5.48537 5.64959 5.47279 5.58073 5.46023 5.51203C5.44061 5.40468 5.42106 5.2977 5.38227 5.20235C5.33652 5.08869 5.30451 4.9504 5.27305 4.81447C5.25706 4.74535 5.2412 4.67683 5.22375 4.61248C5.215 4.57691 5.21414 4.53471 5.21331 4.49442C5.21261 4.46021 5.21194 4.42737 5.20649 4.40113C5.17199 4.28358 5.12777 4.14232 5.09003 4.02262C5.08048 3.99016 5.07601 3.95347 5.07211 3.92154C5.07161 3.9174 5.07112 3.91335 5.07062 3.90939C5.07007 3.89888 5.06966 3.88795 5.06924 3.87692C5.06804 3.84493 5.06681 3.81212 5.06199 3.78646C5.05588 3.75544 5.04658 3.72407 5.03696 3.69162C5.02283 3.64399 5.00802 3.59404 5.00161 3.53951C5.00134 3.53679 5.00105 3.53402 5.00076 3.53123C4.99743 3.49963 4.99372 3.4644 5.02641 3.45648C5.06199 3.44677 5.08572 3.4856 5.09866 3.52226C5.14846 3.63563 5.17955 3.7713 5.21031 3.90556C5.23017 3.99223 5.2499 4.07831 5.27443 4.15742C5.2815 4.18244 5.2861 4.21103 5.29059 4.23889C5.295 4.26627 5.29929 4.29295 5.3057 4.31486C5.32835 4.38549 5.34911 4.46205 5.36987 4.53862C5.39062 4.61518 5.41138 4.69174 5.43403 4.76238C5.44094 4.78523 5.44444 4.80599 5.4479 4.82646C5.45145 4.84752 5.45496 4.86828 5.46207 4.8907C5.46534 4.89862 5.46897 4.90703 5.47271 4.9157C5.48374 4.94129 5.4958 4.96926 5.50304 4.99423C5.51099 5.02336 5.51555 5.05821 5.51993 5.09163C5.52446 5.12626 5.52879 5.15934 5.53647 5.18294C5.59686 5.37812 5.65833 5.57115 5.7198 5.76418C5.7241 5.78537 5.7281 5.80728 5.73208 5.82906C5.74105 5.87819 5.7499 5.92665 5.76185 5.96475C5.78665 6.03053 5.81146 6.09739 5.83518 6.16317C5.84824 6.19909 5.85526 6.23391 5.8622 6.26833C5.86901 6.3021 5.87574 6.33549 5.88802 6.36914C5.92971 6.48434 5.96722 6.60262 6.0048 6.72112C6.04109 6.83556 6.07745 6.95021 6.11771 7.06253C6.14532 7.13777 6.16396 7.21328 6.1825 7.28838C6.20089 7.36289 6.21918 7.437 6.24604 7.51005C6.26752 7.56603 6.29332 7.61808 6.31894 7.66975C6.33576 7.70369 6.3525 7.73747 6.36789 7.77209C6.40718 7.85952 6.43341 7.95433 6.45954 8.0488C6.48433 8.13843 6.50904 8.22776 6.54474 8.31019C6.57925 8.37597 6.6116 8.44067 6.64395 8.50645C6.66093 8.54479 6.67151 8.58341 6.68205 8.62189C6.69227 8.65916 6.70244 8.6963 6.71836 8.73291C6.80463 8.92486 6.89413 9.12436 6.97932 9.31846C6.99877 9.36114 7.01199 9.4049 7.02509 9.44825C7.03814 9.49143 7.05107 9.53421 7.06991 9.57511C7.08361 9.60363 7.10067 9.63214 7.11781 9.6608C7.13438 9.6885 7.15102 9.71632 7.1648 9.74441C7.18673 9.79147 7.20335 9.83933 7.21993 9.88706C7.23678 9.93558 7.25359 9.98397 7.27587 10.0313C7.29231 10.0663 7.31475 10.0987 7.33716 10.131C7.36032 10.1644 7.38344 10.1978 7.39988 10.234C7.43203 10.2999 7.45646 10.3683 7.48084 10.4365C7.50472 10.5034 7.52853 10.57 7.55948 10.6341C7.58854 10.6982 7.62596 10.7573 7.66352 10.8167C7.69984 10.8741 7.73629 10.9317 7.76545 10.9942C7.7793 11.024 7.78973 11.0533 7.80012 11.0824C7.81156 11.1145 7.82295 11.1464 7.83878 11.1786C7.8539 11.2118 7.87382 11.2463 7.8931 11.2797C7.9027 11.2964 7.91213 11.3128 7.92073 11.3285C7.94943 11.3812 7.9689 11.4368 7.98865 11.4932C8.00527 11.5406 8.02208 11.5886 8.04475 11.6359C8.06671 11.6836 8.09958 11.7225 8.1321 11.7609C8.16345 11.7979 8.19449 11.8346 8.21513 11.8785C8.22927 11.9101 8.23985 11.9449 8.25046 11.9799C8.26088 12.0142 8.27133 12.0486 8.28522 12.0801C8.30888 12.1303 8.34256 12.1743 8.37611 12.2182C8.39301 12.2402 8.40987 12.2623 8.42541 12.285C8.47011 12.3547 8.53486 12.4935 8.57327 12.5759L8.57746 12.5848C8.63543 12.7054 8.6832 12.7733 8.74958 12.8677C8.76098 12.8839 8.77293 12.9009 8.78558 12.9191C8.82231 12.9705 8.85125 13.0284 8.88019 13.0863C8.91498 13.1558 8.94975 13.2253 8.99802 13.2836C9.02821 13.3213 9.14036 13.4281 9.18026 13.4141C9.19644 13.4055 9.15223 13.2232 9.12095 13.1671C9.10118 13.131 9.07452 13.0992 9.04804 13.0676C9.03264 13.0492 9.01729 13.0309 9.00341 13.0119C8.96934 12.9618 8.94472 12.8991 8.92127 12.8394L8.92038 12.8372C8.89018 12.7574 8.84058 12.6711 8.79852 12.6032C8.75816 12.543 8.72738 12.4918 8.6931 12.4348C8.68433 12.4202 8.67533 12.4052 8.66588 12.3896C8.64619 12.3594 8.63489 12.3281 8.62299 12.295C8.61533 12.2737 8.60742 12.2518 8.59687 12.229C8.56344 12.1556 8.52354 12.078 8.48256 12.0047C8.46699 11.976 8.4472 11.9497 8.42778 11.9239C8.40552 11.8943 8.38373 11.8654 8.36933 11.8343C8.33483 11.762 8.3014 11.6898 8.26797 11.6165C8.24127 11.568 8.21128 11.5217 8.18118 11.4752C8.15169 11.4298 8.12211 11.3841 8.09543 11.3361C8.06374 11.2766 8.04563 11.2101 8.02713 11.1422C8.01478 11.0969 8.00227 11.051 7.98544 11.0061C7.95663 10.926 7.92003 10.85 7.88342 10.774C7.86384 10.7333 7.84425 10.6926 7.82584 10.6513C7.80853 10.612 7.79657 10.5721 7.78477 10.5327C7.7723 10.4912 7.76 10.4502 7.74173 10.4108C7.71831 10.3633 7.68746 10.3212 7.6569 10.2795C7.64242 10.2598 7.628 10.2401 7.61448 10.22C7.58321 10.1698 7.56296 10.1145 7.54231 10.0582C7.52878 10.0212 7.51509 9.98386 7.49802 9.94715C7.48755 9.92404 7.47462 9.90058 7.46157 9.8769C7.44235 9.84203 7.42287 9.8067 7.41067 9.77137C7.39665 9.72285 7.38371 9.67432 7.37077 9.62364C7.36509 9.60984 7.35907 9.59571 7.35295 9.58134C7.33467 9.53842 7.31549 9.49338 7.30175 9.44894C7.29546 9.42692 7.29291 9.40508 7.29045 9.38389C7.28699 9.35426 7.28369 9.32591 7.27048 9.30013C7.25481 9.26501 7.22967 9.23666 7.20428 9.20803C7.17899 9.17951 7.15345 9.1507 7.13676 9.11465C7.10151 9.03533 7.08291 8.94385 7.0642 8.85189C7.04858 8.77507 7.03288 8.69791 7.00736 8.62723C6.97902 8.5506 6.94685 8.47423 6.91457 8.39762C6.88053 8.31682 6.84638 8.23575 6.81649 8.15383C6.79548 8.09631 6.77786 8.03682 6.76031 7.97751C6.74364 7.92118 6.72701 7.86502 6.70758 7.81091C6.69909 7.78602 6.69357 7.76023 6.68806 7.73449C6.68307 7.71117 6.67809 7.68788 6.67091 7.66533C6.64679 7.59698 6.61807 7.52893 6.58901 7.46005C6.56351 7.39961 6.53773 7.33853 6.51455 7.27604C6.49854 7.23201 6.49193 7.18707 6.48523 7.14154C6.4793 7.10121 6.47329 7.06042 6.46063 7.01939C6.44135 6.96156 6.4166 6.90763 6.39304 6.85628C6.38892 6.84731 6.38484 6.83842 6.38083 6.8296C6.36784 6.79965 6.36047 6.76971 6.35298 6.73929C6.34618 6.71166 6.33928 6.68365 6.32799 6.6549C6.30916 6.60005 6.28909 6.5452 6.26919 6.49082C6.26288 6.47357 6.25658 6.45637 6.25035 6.43923C6.23855 6.4062 6.23224 6.36703 6.22576 6.32685C6.2204 6.29358 6.21493 6.25962 6.20614 6.22787C6.15911 6.09427 6.11208 5.9363 6.0703 5.79596L6.06918 5.79221C6.06168 5.76701 6.06004 5.73861 6.0583 5.70846C6.05653 5.67799 6.05467 5.64573 6.04654 5.61321C6.0393 5.58562 6.03055 5.55841 6.02179 5.53118C6.00966 5.49349 5.99753 5.45576 5.98939 5.41694C5.98404 5.39398 5.98161 5.37074 5.97921 5.34777C5.97676 5.32436 5.97434 5.30123 5.9689 5.27891C5.96224 5.25561 5.95634 5.2313 5.95034 5.20654C5.93883 5.1591 5.92693 5.11 5.90851 5.06324C5.90449 5.0512 5.90021 5.03892 5.89584 5.0264C5.87556 4.96827 5.85344 4.90491 5.84812 4.83571C5.84596 4.80767 5.84596 4.76561 5.87939 4.75699C5.90851 4.74836 5.92792 4.7764 5.9387 4.80551C5.94069 4.81113 5.94277 4.81696 5.9449 4.82289C5.9497 4.83631 5.95471 4.85028 5.95919 4.86374C5.98185 4.92067 5.9973 4.98166 6.01298 5.04352C6.02641 5.0965 6.03999 5.15011 6.0584 5.20235C6.06531 5.2217 6.07278 5.24161 6.08037 5.26186C6.09647 5.30479 6.11315 5.34925 6.12634 5.39322C6.13941 5.43401 6.14589 5.47532 6.1523 5.51614C6.1591 5.55949 6.16582 5.6023 6.18026 5.6434C6.20937 5.72104 6.23957 5.80731 6.26653 5.88495C6.27767 5.91736 6.28453 5.94882 6.29135 5.98011C6.29906 6.01545 6.30672 6.05057 6.32044 6.08661C6.33903 6.13759 6.35908 6.19089 6.37931 6.24465C6.40486 6.31255 6.43069 6.38118 6.45416 6.44678C6.46957 6.4864 6.47487 6.53304 6.48023 6.58026C6.48538 6.62556 6.49059 6.6714 6.50484 6.71206C6.51534 6.74027 6.53063 6.76768 6.5456 6.79454C6.55524 6.81182 6.56476 6.82888 6.57278 6.84577C6.58998 6.88472 6.60385 6.92627 6.61763 6.96754C6.63323 7.01426 6.64871 7.06063 6.66875 7.10243C6.6757 7.12117 6.67996 7.14036 6.68412 7.15913C6.68643 7.16952 6.68871 7.17978 6.6914 7.18977C6.70733 7.23471 6.72596 7.28056 6.74444 7.32604C6.76099 7.36676 6.77742 7.40719 6.79169 7.44642C6.80183 7.4747 6.80853 7.50166 6.8152 7.52847C6.82201 7.55585 6.82878 7.58308 6.83914 7.61141C6.86117 7.67121 6.88652 7.72948 6.91196 7.78796C6.93881 7.84969 6.96577 7.91166 6.98903 7.9759C6.99603 7.9994 7.00117 8.02406 7.00629 8.04859C7.01221 8.07696 7.0181 8.10516 7.02677 8.13118C7.10063 8.3366 7.19369 8.53981 7.28522 8.73966C7.32198 8.81993 7.35849 8.89966 7.39341 8.97878C7.4169 9.03001 7.42982 9.08653 7.44263 9.14258C7.4557 9.19978 7.46866 9.25649 7.49262 9.3066C7.50834 9.34027 7.52989 9.3716 7.55151 9.40304C7.57143 9.432 7.59141 9.46105 7.60693 9.49208C7.63912 9.56128 7.66463 9.63235 7.69025 9.70369C7.71612 9.77576 7.7421 9.84812 7.77515 9.91911C7.79192 9.95544 7.81304 9.99091 7.834 10.0261C7.85347 10.0588 7.8728 10.0913 7.88838 10.124C7.8992 10.1456 7.90757 10.1671 7.91577 10.1881C7.92719 10.2174 7.93829 10.2458 7.95524 10.2728C7.96057 10.2807 7.96627 10.2886 7.97202 10.2966C7.98602 10.3161 8.0003 10.336 8.01024 10.3558C8.03001 10.399 8.04551 10.4427 8.0611 10.4866C8.07783 10.5338 8.09467 10.5812 8.117 10.6287C8.17326 10.7485 8.25166 10.8713 8.32206 10.9816L8.32943 10.9932C8.34549 11.0185 8.35732 11.0444 8.36911 11.0702C8.38185 11.0981 8.39454 11.1259 8.41247 11.1528C8.42067 11.1658 8.42939 11.1791 8.43829 11.1926C8.46329 11.2308 8.48963 11.271 8.50952 11.3124C8.53704 11.3707 8.56557 11.4284 8.59389 11.4856C8.63103 11.5608 8.66781 11.6352 8.70147 11.7092C8.71487 11.736 8.72644 11.763 8.7379 11.7897C8.75686 11.8339 8.77554 11.8774 8.80176 11.9184C8.82876 11.9614 8.85964 12.0031 8.89069 12.045C8.94149 12.1136 8.99274 12.1829 9.02821 12.2592C9.03751 12.2782 9.05011 12.3031 9.06344 12.3295C9.08412 12.3705 9.10652 12.4149 9.12095 12.4457C9.15807 12.5299 9.21116 12.5875 9.25148 12.6313C9.25919 12.6396 9.26643 12.6475 9.273 12.6549C9.30427 12.6894 9.39593 12.7444 9.41211 12.7336C9.42181 12.7336 9.37329 12.5482 9.36143 12.519C9.34817 12.4886 9.3394 12.466 9.33213 12.4474C9.31575 12.4053 9.30703 12.3829 9.27192 12.3336C9.23095 12.278 9.20428 12.2233 9.17609 12.1655C9.16051 12.1336 9.14446 12.1007 9.12527 12.0661C9.11718 12.0496 9.11 12.0328 9.10288 12.0162C9.09101 11.9886 9.0793 11.9613 9.0638 11.9356L9.05771 11.9265C9.00907 11.853 8.96075 11.7801 8.92038 11.6952C8.89399 11.6335 8.87102 11.5696 8.84816 11.5059C8.80189 11.3771 8.75604 11.2495 8.68314 11.1441C8.57793 10.9949 8.49987 10.8296 8.4181 10.6564C8.40768 10.6344 8.39719 10.6122 8.38659 10.5899C8.36987 10.5543 8.34696 10.5219 8.32404 10.4896C8.30113 10.4572 8.27821 10.4249 8.2615 10.3893C8.25611 10.3731 8.25045 10.3567 8.2448 10.3403C8.23913 10.3238 8.23346 10.3073 8.22807 10.2911C8.2182 10.2695 8.2065 10.2471 8.19464 10.2244C8.17928 10.195 8.16368 10.1651 8.1515 10.1359C8.13722 10.1051 8.12826 10.0738 8.11934 10.0426C8.11074 10.0126 8.10219 9.98272 8.08896 9.95362C7.97897 9.71206 7.87868 9.44571 7.78594 9.19121C7.77833 9.17057 7.77456 9.15129 7.77076 9.13187C7.76701 9.11274 7.76324 9.09346 7.75574 9.07259C7.73383 9.01289 7.70608 8.95531 7.67883 8.89872C7.66719 8.87457 7.65564 8.8506 7.64467 8.82673C7.61578 8.7626 7.59103 8.69847 7.56652 8.63495C7.55352 8.60126 7.54058 8.56775 7.52713 8.53449C7.51943 8.51475 7.51431 8.49609 7.50927 8.47773C7.50302 8.45497 7.4969 8.43268 7.48615 8.4094C7.47519 8.38459 7.46052 8.35915 7.44578 8.3336C7.43297 8.3114 7.42012 8.28911 7.40959 8.26706C7.39123 8.18975 7.37114 8.11332 7.35087 8.03619C7.34852 8.02725 7.34616 8.01829 7.34381 8.00933C7.29113 7.86098 7.23203 7.71477 7.17077 7.56322L7.17019 7.56181L7.16703 7.55382C7.14729 7.50399 7.12504 7.44782 7.10765 7.39358C7.10344 7.37137 7.09895 7.3493 7.09448 7.32731C7.08637 7.28738 7.07832 7.24774 7.07206 7.20811C7.03298 7.08768 6.99079 6.97347 6.94752 6.85634L6.94482 6.84901C6.93005 6.80581 6.92222 6.76205 6.91429 6.71773C6.90658 6.67467 6.89878 6.63108 6.88443 6.58697C6.8782 6.56415 6.86924 6.54033 6.86017 6.51624C6.85037 6.49023 6.84046 6.4639 6.83374 6.43815C6.82512 6.39718 6.81757 6.35728 6.81002 6.31522C6.80188 6.2793 6.7948 6.25423 6.78756 6.22857C6.77849 6.19646 6.76917 6.16344 6.75718 6.1071C6.741 6.02945 6.81218 6.00465 6.84345 6.08014C6.89629 6.22787 6.95129 6.37884 7.00628 6.5255C7.01875 6.56027 7.02483 6.59863 7.03059 6.635C7.0343 6.65841 7.03788 6.681 7.04295 6.70127C7.08239 6.80953 7.12108 6.92125 7.15986 7.03322C7.22498 7.22128 7.29037 7.41007 7.35998 7.58445C7.38802 7.67072 7.41498 7.75591 7.44086 7.84218C7.45722 7.88277 7.47834 7.92371 7.49964 7.96498C7.51625 7.99717 7.53297 8.02956 7.54762 8.06217C7.55374 8.08053 7.55715 8.09727 7.56054 8.11391C7.56192 8.12073 7.56331 8.12753 7.56487 8.13442C7.59143 8.20584 7.61643 8.27648 7.64185 8.34832C7.64637 8.36109 7.6509 8.3739 7.65546 8.38675C7.69211 8.46979 7.73423 8.55587 7.7765 8.64224C7.81383 8.71851 7.85127 8.79502 7.88515 8.86986C7.90513 8.9105 7.9173 8.95196 7.92978 8.99449C7.9375 9.02081 7.94535 9.04755 7.95524 9.07475C8.00269 9.20523 8.05553 9.33248 8.11268 9.45433C8.15163 9.53684 8.19861 9.61715 8.24553 9.69736C8.29735 9.78593 8.34908 9.87437 8.38983 9.96548C8.40563 9.99707 8.41464 10.0296 8.42381 10.0626C8.43216 10.0927 8.44065 10.1233 8.45453 10.1542C8.46619 10.181 8.48224 10.2081 8.49829 10.2352C8.51194 10.2582 8.52558 10.2813 8.53649 10.3041C8.55609 10.3467 8.57279 10.3882 8.58933 10.4293C8.6092 10.4787 8.62883 10.5275 8.65295 10.5769C8.67495 10.6221 8.70351 10.6657 8.7323 10.7096C8.75572 10.7453 8.77929 10.7812 8.79961 10.8185C8.82334 10.8601 8.84207 10.9042 8.86077 10.9481C8.88372 11.0021 8.90664 11.056 8.93872 11.1053C8.9646 11.1468 8.9929 11.1867 9.02121 11.2266C9.04952 11.2665 9.07783 11.3064 9.10371 11.3479C9.14558 11.4119 9.17732 11.4825 9.20899 11.553C9.23931 11.6205 9.26957 11.6879 9.3086 11.7491C9.34318 11.8038 9.38296 11.8553 9.42271 11.9067C9.4598 11.9547 9.49687 12.0027 9.52966 12.0532C9.54856 12.0833 9.56358 12.1144 9.57863 12.1456C9.59536 12.1802 9.61212 12.2149 9.63426 12.2484C9.674 12.3111 9.71394 12.3755 9.75401 12.4401C9.80419 12.521 9.85456 12.6022 9.90493 12.6808C9.92499 12.7124 9.93897 12.7452 9.9536 12.7794C9.95942 12.793 9.96534 12.8069 9.97179 12.821C9.98906 12.8587 10.0161 12.8975 10.0415 12.9341C10.051 12.9478 10.0603 12.9612 10.0688 12.9741C10.0778 12.9878 10.084 13.0013 10.09 13.0146C10.0964 13.0285 10.1026 13.0423 10.112 13.0561C10.1358 13.0925 10.1644 13.1249 10.1927 13.1569C10.213 13.1798 10.2331 13.2026 10.2511 13.2264C10.2967 13.2872 10.3352 13.3539 10.3736 13.4203C10.4088 13.4811 10.4438 13.5417 10.484 13.5974C10.5216 13.6484 10.5644 13.6967 10.6071 13.7449C10.6539 13.7978 10.7007 13.8506 10.7407 13.9069C10.7656 13.9403 10.7867 13.9756 10.8076 14.0108C10.8292 14.0471 10.8508 14.0832 10.8765 14.1172C10.8897 14.1353 10.9071 14.1512 10.9247 14.1673C10.9416 14.1828 10.9588 14.1984 10.9725 14.2164C11.0075 14.2631 11.0347 14.3168 11.0619 14.3707C11.085 14.4164 11.1082 14.4623 11.1364 14.5043C11.1558 14.5323 11.1785 14.5636 11.2 14.5917C11.2103 14.605 11.2843 14.6786 11.3508 14.7447C11.4026 14.7963 11.4499 14.8433 11.4589 14.8537C11.4829 14.8843 11.5069 14.9166 11.5312 14.9494C11.591 15.03 11.6527 15.1131 11.7209 15.1783C11.7272 15.1843 11.7386 15.1959 11.7534 15.2111C11.8297 15.2893 11.9973 15.4609 12.0379 15.4339C12.0518 15.4162 12.0091 15.3469 11.9737 15.2894C11.9595 15.2663 11.9464 15.2452 11.9387 15.23C11.8773 15.1049 11.7631 14.9688 11.6664 14.8537C11.6307 14.8111 11.5973 14.7714 11.5699 14.7362C11.5172 14.669 11.3618 14.4656 11.2657 14.3398C11.24 14.3061 11.2185 14.278 11.2044 14.2595C11.1833 14.2314 11.1566 14.2077 11.13 14.1841C11.1034 14.1605 11.0771 14.1371 11.0566 14.1096C11.0252 14.0676 10.9991 14.0224 10.9732 13.9776C10.9493 13.9361 10.9256 13.8951 10.8981 13.8573C10.8746 13.8239 10.8457 13.7941 10.817 13.7644C10.7891 13.7356 10.7613 13.7069 10.7385 13.675C10.7131 13.6416 10.6955 13.6034 10.6778 13.565C10.6647 13.5366 10.6515 13.508 10.635 13.4809C10.6201 13.4575 10.6031 13.4347 10.5862 13.4119C10.5688 13.3885 10.5516 13.3653 10.5369 13.3418C10.5258 13.3237 10.5188 13.3049 10.5117 13.2863C10.505 13.2685 10.4984 13.2509 10.4883 13.234C10.458 13.187 10.4252 13.142 10.3925 13.0969C10.3403 13.0251 10.2881 12.9533 10.2457 12.8738C10.223 12.8335 10.2081 12.7875 10.1932 12.7416C10.1763 12.6895 10.1595 12.6376 10.1314 12.5945C10.1007 12.5469 10.0641 12.5045 10.0272 12.4619C9.98889 12.4175 9.9503 12.3728 9.91787 12.3217C9.88651 12.2733 9.86272 12.2192 9.83893 12.1652C9.81609 12.1133 9.79324 12.0614 9.76367 12.0144C9.54368 11.6704 9.36036 11.3005 9.17811 10.9123C9.16044 10.8753 9.1369 10.841 9.1132 10.8065C9.08919 10.7715 9.065 10.7362 9.04655 10.6977C9.02801 10.6595 9.01649 10.6189 9.00483 10.5778C8.99411 10.5401 8.98328 10.5019 8.96676 10.4648C8.95799 10.4432 8.94376 10.4212 8.9301 10.4001C8.9219 10.3875 8.91392 10.3751 8.90745 10.3634C8.88271 10.3201 8.86351 10.2763 8.8439 10.2315C8.83615 10.2138 8.82834 10.1959 8.8201 10.1779C8.78298 10.1014 8.74692 10.0217 8.71043 9.94104C8.69498 9.90689 8.67945 9.87256 8.66374 9.83823C8.65035 9.80955 8.63399 9.78107 8.61749 9.75234C8.59677 9.71627 8.57582 9.67979 8.56021 9.64197C8.53413 9.58354 8.5141 9.52435 8.49415 9.46539C8.47286 9.40247 8.45165 9.3398 8.42326 9.27856C8.41893 9.26885 8.41378 9.25761 8.40808 9.24514C8.3783 9.18005 8.33321 9.08148 8.30788 8.9928C8.2917 8.9378 8.29493 8.90653 8.32081 8.89143C8.34562 8.87525 8.38013 8.90545 8.39846 8.94103C8.41402 8.97274 8.42619 9.00598 8.43893 9.04077C8.45002 9.07106 8.46154 9.10252 8.4761 9.13514C8.49966 9.1903 8.53117 9.24025 8.56249 9.28989C8.58996 9.33342 8.61727 9.37671 8.63893 9.42306C8.6605 9.48669 8.68315 9.55031 8.70795 9.61393L8.71856 9.63734C8.75742 9.72309 8.7981 9.81284 8.84059 9.90078C8.86153 9.94663 8.88813 9.99041 8.91459 10.034C8.93854 10.0734 8.96239 10.1126 8.98185 10.1531C9.05949 10.3192 9.13821 10.4777 9.23419 10.6276C9.24806 10.6484 9.25751 10.6703 9.26707 10.6925C9.27385 10.7082 9.28068 10.7241 9.28918 10.7397C9.30004 10.7597 9.31169 10.7799 9.32348 10.8003C9.34798 10.8428 9.37305 10.8862 9.39271 10.9306C9.4001 10.9473 9.40636 10.9638 9.41252 10.98C9.42431 11.0112 9.43575 11.0414 9.45417 11.0697C9.47188 11.0958 9.49411 11.1195 9.5165 11.1435C9.54047 11.1691 9.56462 11.1949 9.58358 11.2239C9.5983 11.2468 9.60861 11.2717 9.61897 11.2966C9.6291 11.321 9.63928 11.3455 9.65367 11.3684C9.69389 11.4309 9.73275 11.4965 9.77175 11.5622C9.81013 11.627 9.84864 11.6919 9.88875 11.7545C9.89999 11.7729 9.90832 11.7925 9.91673 11.8122C9.92608 11.8342 9.93552 11.8564 9.94914 11.8774C10.0052 11.9649 10.0649 12.0535 10.1244 12.142C10.169 12.2082 10.2135 12.2744 10.2565 12.34C10.2769 12.3716 10.2897 12.4076 10.3025 12.4434C10.3145 12.4774 10.3265 12.5112 10.3449 12.5406C10.3696 12.5785 10.3985 12.6136 10.4273 12.6486C10.4551 12.6823 10.4828 12.716 10.5067 12.752C10.521 12.7735 10.5322 12.7947 10.5434 12.8158C10.5541 12.8359 10.5647 12.856 10.5778 12.876C10.5956 12.9035 10.6164 12.9304 10.6371 12.9574C10.6579 12.9844 10.6787 13.0113 10.6964 13.0388C10.7058 13.0551 10.7141 13.0714 10.7223 13.0875C10.7358 13.1141 10.7491 13.1402 10.7665 13.165C10.7855 13.1893 10.8068 13.2126 10.8283 13.236C10.8497 13.2592 10.8712 13.2826 10.8906 13.3073C10.9255 13.3559 10.9587 13.405 10.9918 13.4538C11.0425 13.5286 11.0928 13.6029 11.1483 13.674C11.164 13.6927 11.1818 13.7088 11.1995 13.7248C11.2073 13.7319 11.2151 13.7389 11.2227 13.7462C11.2691 13.7918 11.3096 13.8453 11.3498 13.8984C11.361 13.9132 11.3721 13.9279 11.3834 13.9425C11.3962 13.9589 11.4121 13.9736 11.4283 13.9884C11.4461 14.0048 11.4641 14.0214 11.4783 14.0406C11.5173 14.0913 11.5508 14.1464 11.5845 14.2017C11.6161 14.2534 11.6478 14.3054 11.6842 14.3544C11.7147 14.396 11.7566 14.4313 11.8011 14.4688C11.8305 14.4936 11.861 14.5193 11.8902 14.5485C11.9048 14.5628 11.9225 14.5809 11.9424 14.6014C12.0519 14.7135 12.2284 14.8943 12.3269 14.8807C12.3614 14.8785 12.1619 14.5981 12.0821 14.5C12.0625 14.4776 12.0474 14.4582 12.0329 14.4395C12.0075 14.4068 11.9837 14.3761 11.9398 14.335C11.9056 14.2976 11.876 14.2508 11.846 14.2034C11.8258 14.1716 11.8055 14.1395 11.7834 14.1096C11.7625 14.0808 11.738 14.0546 11.7135 14.0284C11.6913 14.0047 11.6692 13.981 11.6497 13.9554C11.6018 13.8906 11.5585 13.8244 11.5147 13.7574C11.4914 13.7219 11.468 13.6861 11.4438 13.6502C11.4233 13.6201 11.4001 13.5904 11.3769 13.5607C11.3537 13.5311 11.3305 13.5014 11.31 13.4712C11.2839 13.432 11.2638 13.3907 11.2437 13.3492C11.2239 13.3084 11.2041 13.2676 11.1785 13.2286C11.1561 13.1937 11.129 13.1618 11.1017 13.1299C11.0777 13.1017 11.0536 13.0735 11.0329 13.0431L11.0328 13.043C10.9897 12.9643 10.9466 12.8856 10.9024 12.807C10.8631 12.7445 10.8189 12.6852 10.7748 12.6262C10.7391 12.5783 10.7034 12.5306 10.6706 12.4813C10.6559 12.4538 10.6411 12.4255 10.6261 12.3971C10.6048 12.3564 10.5832 12.3153 10.5617 12.2753C10.5468 12.2532 10.5311 12.231 10.5151 12.2083C10.4716 12.1469 10.4255 12.0818 10.387 12.0047C10.36 11.9529 10.3212 11.8807 10.2942 11.8451C10.2719 11.8157 10.2495 11.7621 10.2294 11.7138C10.2155 11.6806 10.2028 11.65 10.1918 11.6315C10.1681 11.5895 10.1314 11.528 10.0969 11.4763C10.0742 11.4447 10.048 11.3955 10.0256 11.3534C10.0128 11.3295 10.0013 11.3078 9.99228 11.2929C9.956 11.2368 9.93568 11.1984 9.91119 11.1522C9.89855 11.1283 9.88481 11.1024 9.86719 11.0708C9.85786 11.0535 9.85142 11.0429 9.84614 11.0341C9.83432 11.0146 9.82834 11.0048 9.80896 10.9511C9.80867 10.95 9.80837 10.949 9.80807 10.9479C9.8016 10.9244 9.79295 10.893 9.81974 10.8735C9.8564 10.8605 9.89954 10.9047 9.93836 10.9587C9.97603 11.0104 9.99745 11.047 10.0214 11.0879C10.0379 11.1161 10.0556 11.1464 10.0807 11.1851C10.0863 11.1936 10.0953 11.2063 10.1056 11.2208C10.1268 11.2509 10.1535 11.2887 10.168 11.3134C10.1785 11.3294 10.1887 11.3481 10.2 11.3687C10.2132 11.3927 10.2277 11.4193 10.2457 11.4472C10.2616 11.4707 10.2748 11.494 10.2893 11.5197C10.3054 11.5482 10.3232 11.5796 10.3481 11.6175C10.3934 11.6919 10.429 11.7502 10.4689 11.8009C10.4984 11.8372 10.5189 11.8825 10.5319 11.9112C10.5374 11.9234 10.5415 11.9325 10.5444 11.9367C10.5771 11.9871 10.6046 12.038 10.6317 12.0882C10.6609 12.1424 10.6898 12.1959 10.7245 12.2473C10.7436 12.2743 10.7637 12.3016 10.784 12.3293C10.8188 12.3766 10.8542 12.4247 10.8862 12.4738C10.8974 12.4907 10.9063 12.508 10.9151 12.5251C10.926 12.5462 10.9367 12.5669 10.9509 12.5859C10.9713 12.6125 10.9953 12.6361 11.0194 12.6597C11.0488 12.6886 11.0783 12.7175 11.1008 12.752C11.1433 12.8167 11.1789 12.8844 11.2144 12.9519C11.258 13.0351 11.3015 13.1179 11.3575 13.1941C11.4081 13.2631 11.4713 13.3217 11.5348 13.3805C11.5943 13.4358 11.654 13.4911 11.7036 13.5553C11.7462 13.6113 11.7847 13.6702 11.8236 13.7299C11.8508 13.7715 11.8782 13.8135 11.9074 13.8551C11.9245 13.8788 11.9456 13.9 11.9665 13.9211C11.9865 13.9412 12.0065 13.9613 12.0228 13.9835C12.0725 14.0443 12.1199 14.1061 12.1671 14.1676C12.1927 14.2009 12.2182 14.2341 12.2439 14.2671C12.2676 14.2962 12.3032 14.3221 12.3345 14.3436C12.3456 14.3522 12.3558 14.3632 12.3658 14.374C12.3771 14.3862 12.3882 14.3982 12.4003 14.4062C12.4351 14.4322 12.4648 14.4572 12.4949 14.4825C12.5196 14.5034 12.5445 14.5244 12.5728 14.5464C12.6112 14.575 12.6528 14.6371 12.6911 14.6943C12.7119 14.7254 12.7318 14.7551 12.7497 14.7771C12.7677 14.797 12.7894 14.8158 12.8113 14.8348C12.8286 14.8498 12.8461 14.8649 12.8618 14.8807C12.8931 14.9173 12.9243 14.9508 12.9567 14.9842C13.0015 15.0245 13.0517 15.0648 13.1029 15.1059C13.1737 15.1628 13.2466 15.2214 13.3104 15.284C13.3636 15.336 13.4035 15.3709 13.4387 15.4017C13.5034 15.4582 13.5519 15.5007 13.6371 15.6096C13.6641 15.642 13.7504 15.7358 13.7816 15.7638C13.8123 15.8027 13.888 15.8594 13.9288 15.89C13.9412 15.8993 13.9504 15.9062 13.9542 15.9094C13.9862 15.9334 14.0067 15.9508 14.026 15.9673C14.0509 15.9885 14.0739 16.008 14.117 16.0377C14.142 16.0538 14.1714 16.0754 14.2025 16.0982C14.288 16.1611 14.3855 16.2326 14.433 16.22C14.447 16.2167 14.4039 16.1035 14.309 15.9827C14.2909 15.9606 14.2588 15.927 14.2266 15.8935C14.1916 15.8569 14.1565 15.8203 14.1397 15.7983C14.0857 15.7315 14.0329 15.683 13.9628 15.6334C13.8474 15.5471 13.787 15.4867 13.6997 15.3745C13.6812 15.3522 13.6521 15.3235 13.6235 15.2953C13.5969 15.2691 13.5707 15.2433 13.5541 15.2236C13.5423 15.2086 13.5306 15.1925 13.5186 15.176C13.4855 15.1307 13.4508 15.083 13.4096 15.0521C13.3938 15.04 13.3747 15.0275 13.3547 15.0144C13.3108 14.9856 13.2621 14.9537 13.2317 14.9152C13.1836 14.8539 13.1292 14.7911 13.0741 14.7277C13.039 14.6872 13.0037 14.6464 12.9696 14.6057C12.9593 14.5957 12.949 14.5854 12.9389 14.5753C12.9151 14.5516 12.8917 14.5283 12.8683 14.5086C12.8262 14.472 12.7798 14.4267 12.7367 14.3803C12.7108 14.3544 12.685 14.3285 12.658 14.3027C12.6447 14.2894 12.6327 14.2736 12.621 14.2582C12.6175 14.2535 12.614 14.2489 12.6105 14.2444C12.5987 14.2272 12.5847 14.2078 12.5685 14.1927C12.5396 14.161 12.5156 14.1277 12.4929 14.0963C12.4893 14.0914 12.4857 14.0864 12.4822 14.0816C12.4585 14.0449 12.4348 14.0104 12.4035 13.9781C12.3895 13.9619 12.3744 13.9457 12.3582 13.9306C12.3118 13.8842 12.2655 13.8346 12.2212 13.7753C12.2023 13.7501 12.1865 13.7218 12.1717 13.6954L12.1706 13.6934C12.1652 13.6842 12.1601 13.6754 12.155 13.6665C12.1498 13.6576 12.1447 13.6486 12.1393 13.6395L12.1242 13.619C12.0972 13.5823 12.0541 13.5187 12.0228 13.4615C12.0002 13.413 12.0088 13.372 12.0293 13.358C12.0358 13.3537 12.0627 13.3408 12.0972 13.3785C12.1166 13.4011 12.1361 13.4292 12.1522 13.4561C12.1596 13.4659 12.1666 13.4759 12.1735 13.4859C12.1859 13.5035 12.1981 13.5212 12.2126 13.537C12.2504 13.5769 12.2816 13.6093 12.3107 13.6384C12.3303 13.659 12.3491 13.6793 12.3697 13.7015C12.3922 13.7259 12.4168 13.7524 12.4466 13.784C12.4611 13.7993 12.4798 13.8254 12.5005 13.8542C12.5075 13.864 12.5147 13.8741 12.5221 13.8842C12.5266 13.8904 12.5312 13.8966 12.5357 13.9027C12.5644 13.9417 12.5916 13.9787 12.6084 13.9964C12.672 14.0589 12.6968 14.0816 12.7184 14.0988C12.7272 14.1087 12.7358 14.1169 12.7476 14.128C12.7602 14.1399 12.7764 14.1552 12.8003 14.1797C12.8467 14.2304 12.8683 14.2574 12.8844 14.2811C12.8876 14.285 12.8906 14.2888 12.8936 14.2926C12.9126 14.3165 12.9322 14.3412 12.9815 14.3868C13.0785 14.459 13.1821 14.5571 13.2532 14.6499C13.2759 14.6726 13.3062 14.6962 13.3364 14.7198C13.3707 14.7467 13.405 14.7734 13.4279 14.7987C13.4535 14.8275 13.4779 14.8526 13.5019 14.8772C13.5334 14.9096 13.5643 14.9412 13.5962 14.9799C13.6393 15.0241 13.704 15.0737 13.7601 15.1125C13.8073 15.1463 13.8517 15.183 13.8958 15.2194C13.9333 15.2504 13.9705 15.2811 14.0092 15.3098C14.0469 15.3379 14.0817 15.3705 14.1165 15.4031C14.1512 15.4357 14.186 15.4684 14.2238 15.4964C14.2805 15.5375 14.3272 15.5737 14.3737 15.6096C14.4235 15.6481 14.473 15.6864 14.5343 15.7304C14.5554 15.746 14.5837 15.7685 14.6126 15.7915C14.6459 15.818 14.6799 15.8452 14.7047 15.863C14.7381 15.8888 14.7712 15.9174 14.8045 15.9462C14.8423 15.9789 14.8803 16.0117 14.9193 16.041C14.9991 16.1057 15.0757 16.1715 15.1533 16.2459C15.1741 16.2681 15.2048 16.289 15.2335 16.3085C15.2494 16.3193 15.2647 16.3297 15.2773 16.3397C15.2943 16.3522 15.3118 16.3654 15.3296 16.379C15.3811 16.4179 15.4359 16.4595 15.4919 16.4939C15.5047 16.5018 15.5166 16.5092 15.528 16.5162C15.5848 16.5512 15.6265 16.5769 15.6796 16.6147C15.726 16.6469 15.765 16.676 15.803 16.7044C15.8514 16.7406 15.8981 16.7755 15.9567 16.8142C15.9885 16.8356 16.0419 16.8658 16.091 16.8936C16.1185 16.9092 16.1447 16.924 16.1648 16.936C16.1945 16.9541 16.2184 16.968 16.2394 16.9802C16.2846 17.0065 16.3164 17.025 16.3643 17.0611C16.3891 17.0788 16.412 17.0953 16.4339 17.1112C16.5122 17.1678 16.5781 17.2154 16.6716 17.2735C16.708 17.2951 16.7498 17.3174 16.7922 17.3401C16.8454 17.3685 16.8994 17.3974 16.9445 17.4256C16.9667 17.4393 16.9875 17.453 17.008 17.4666C17.0602 17.5011 17.1105 17.5344 17.1763 17.5615C17.2474 17.5927 17.3454 17.6508 17.409 17.6886L17.4092 17.6887C17.4739 17.7292 17.5306 17.7626 17.5895 17.7972C17.6279 17.8198 17.6672 17.8429 17.7101 17.8688C17.7662 17.9001 18.2935 18.1783 18.2935 18.1783C19.5994 18.8846 21.0962 19.4993 22.6447 20.0363C24.2989 20.6111 25.6749 20.803 26.7479 20.9012C27.1147 20.9347 27.5062 20.9375 27.8755 20.9401ZM6.77145 11.1765C6.74226 11.1366 6.71168 11.0891 6.69083 11.0471C6.6796 11.024 6.67308 11.0019 6.66664 10.9801C6.65953 10.956 6.65253 10.9323 6.6394 10.908C6.59866 10.8382 6.55581 10.7652 6.51295 10.6922L6.51257 10.6916C6.46344 10.6079 6.41431 10.5241 6.36834 10.4453C6.33081 10.3828 6.28077 10.2674 6.31552 10.1887C6.32108 10.1779 6.35027 10.1844 6.36278 10.1952L6.38011 10.2072C6.40087 10.2215 6.41805 10.2333 6.43784 10.2512C6.44648 10.2616 6.45194 10.2723 6.45741 10.2832C6.46339 10.295 6.46938 10.3068 6.47955 10.3181C6.49286 10.3338 6.50751 10.3494 6.52234 10.3653C6.55548 10.4007 6.58951 10.4371 6.6116 10.4766C6.64738 10.5369 6.67022 10.6007 6.69293 10.6641C6.71609 10.7288 6.73912 10.7931 6.77562 10.853C6.79995 10.8941 6.83327 10.9326 6.86688 10.9714C6.89664 11.0057 6.92661 11.0403 6.95077 11.0773C6.97578 11.1215 6.99246 11.1668 7.00914 11.212L7.00915 11.2121L7.00915 11.2121C7.0169 11.2361 7.0179 11.2659 7.01873 11.2909C7.0191 11.3018 7.01943 11.3117 7.02027 11.3199C7.02166 11.3609 7.0161 11.3857 6.99803 11.3878C6.88837 11.3826 6.84087 11.2978 6.80041 11.2255C6.7906 11.208 6.78121 11.1912 6.77145 11.1765ZM9.94159 13.7462C9.99011 13.8195 10.1648 14.018 10.236 13.9921H10.236C10.2565 13.9813 10.2263 13.867 10.2166 13.8357C10.2009 13.7919 10.1723 13.7595 10.1445 13.7281C10.134 13.7162 10.1236 13.7045 10.1141 13.6923C10.0855 13.6555 10.0551 13.6198 10.0249 13.5843L10.0249 13.5842C9.98699 13.5396 9.94935 13.4953 9.91572 13.4497C9.88953 13.4138 9.87176 13.3728 9.85383 13.3315C9.8378 13.2946 9.82165 13.2573 9.79925 13.2232C9.77931 13.1916 9.75543 13.1608 9.73179 13.1304L9.73178 13.1304C9.71835 13.1131 9.705 13.0959 9.6925 13.0787C9.68355 13.0666 9.67314 13.051 9.6615 13.0335C9.61002 12.9564 9.53461 12.8433 9.45633 12.8372C9.44484 12.8363 9.45022 12.8717 9.45439 12.8992C9.4557 12.9078 9.45689 12.9156 9.4574 12.9213C9.4761 13.0913 9.54627 13.1783 9.61995 13.2697C9.63549 13.2889 9.6512 13.3084 9.6666 13.3289C9.72745 13.4139 9.78653 13.5061 9.84468 13.5968L9.8447 13.5968C9.87723 13.6476 9.90948 13.6979 9.94159 13.7462ZM12.5094 15.2393C12.5761 15.3349 12.7326 15.5378 12.8732 15.5189C12.8848 15.5189 12.905 15.5088 12.9036 15.4856C12.8514 15.2871 12.7674 15.1712 12.663 15.0886C12.621 15.0538 12.4616 15.0002 12.4312 15.0234C12.4124 15.048 12.4892 15.2117 12.5094 15.2393ZM9.60815 14.1038C9.55325 14.0994 9.52248 14.0725 9.49125 14.0453C9.48126 14.0366 9.47123 14.0278 9.46035 14.0198C9.34153 13.9314 9.24154 13.7894 9.23864 13.5836C9.23578 13.5633 9.24445 13.5575 9.25893 13.5575C9.40094 13.5561 9.54439 13.7749 9.59946 13.8763C9.6154 13.9067 9.65307 13.9893 9.64727 14.0473C9.64727 14.0864 9.62989 14.1038 9.60815 14.1038L9.60815 14.1038ZM7.08178 14.4763C7.09903 14.4752 7.10766 14.4612 7.11197 14.4493L7.11196 14.4493C7.12167 14.4094 7.11628 14.3458 7.10118 14.3091C7.08246 14.2632 7.05717 14.222 7.03144 14.1801L7.03144 14.1801C7.00826 14.1424 6.98472 14.104 6.9653 14.0611C6.95453 14.0377 6.94404 14.013 6.93342 13.988C6.90788 13.928 6.88159 13.8663 6.84884 13.8152C6.83217 13.7897 6.81193 13.7662 6.79167 13.7427L6.79166 13.7427C6.76737 13.7145 6.74306 13.6863 6.72483 13.6546C6.70266 13.6137 6.6887 13.5662 6.67474 13.5188C6.6629 13.4786 6.65107 13.4383 6.63425 13.4022C6.6118 13.3555 6.57964 13.3144 6.54734 13.273L6.54734 13.273C6.52069 13.2389 6.49394 13.2047 6.47249 13.1671C6.46411 13.1518 6.45417 13.1315 6.44297 13.1085C6.39653 13.0134 6.32826 12.8735 6.2579 12.863C6.24927 12.8609 6.24496 12.8684 6.23957 12.8781C6.2331 12.9019 6.23957 12.972 6.25143 13.0054C6.2665 13.0529 6.28527 13.1014 6.3033 13.1481C6.31107 13.1682 6.3187 13.1879 6.32584 13.207C6.33015 13.2259 6.335 13.2445 6.33985 13.2631C6.34471 13.2817 6.34956 13.3003 6.35387 13.3192C6.39377 13.4249 6.44985 13.5133 6.51239 13.5974C6.52164 13.6093 6.5325 13.6208 6.54344 13.6324L6.54345 13.6324C6.5593 13.6493 6.57532 13.6663 6.5868 13.6848C6.61025 13.7206 6.62465 13.7603 6.63927 13.8007C6.64885 13.8272 6.65853 13.8539 6.67091 13.8799C6.68959 13.9189 6.71561 13.9555 6.74022 13.99L6.74023 13.99C6.74829 14.0013 6.7562 14.0124 6.76365 14.0234C6.78622 14.0587 6.80724 14.0952 6.8282 14.1317L6.82821 14.1317L6.82821 14.1317C6.84631 14.1631 6.86437 14.1945 6.88335 14.225C6.89663 14.2458 6.90882 14.2732 6.92176 14.3023C6.95714 14.3819 6.99806 14.4739 7.08178 14.4763Z" fill="#006B6E"/>
</g>
<defs>
<clipPath id="clip0">
<rect width="32" height="32" fill="white"/>
</clipPath>
</defs>
</svg>
