<svg width="32" height="32" viewBox="0 0 32 32" fill="none" xmlns="http://www.w3.org/2000/svg">
<g clip-path="url(#clip0)">
<path fill-rule="evenodd" clip-rule="evenodd" d="M25.921 26.9678C25.7572 26.5374 25.6334 26.1593 25.5147 25.7967C25.3744 25.3684 25.2412 24.9617 25.0575 24.5154C23.5458 20.844 20.7882 20.6321 19.1885 20.9301C16.9408 21.3503 16.0036 22.914 16.0036 22.914C16.0036 22.914 15.0646 21.3503 12.8169 20.9301C11.2172 20.6321 8.4596 20.844 6.94794 24.5154C6.7658 24.9577 6.63384 25.3613 6.49514 25.7854C6.37544 26.1515 6.25071 26.5329 6.08438 26.9678C5.6912 28.0002 5.23878 28.7434 4.59066 29.1276C4.14004 29.3969 3.50987 29.6106 2.55476 29.7362C4.47038 30.677 7.74865 31.0504 10.2478 29.7039C12.5314 28.4741 13.3878 26.5118 13.9354 24.8924C14.1759 24.1833 14.4955 23.7991 14.6661 23.6483C14.8456 23.4813 15.0503 23.3503 15.2855 23.2731C15.5063 23.1887 15.7522 23.1438 16.0036 23.1438C16.2531 23.1438 16.4991 23.1887 16.7199 23.2731C16.9551 23.3503 17.1616 23.4813 17.3411 23.6483C17.5099 23.7991 17.8294 24.1833 18.07 24.8924C18.6194 26.5118 19.474 28.4741 21.7594 29.7039C24.2585 31.0504 27.535 30.677 29.4488 29.7362C28.4973 29.6106 27.8654 29.3969 27.4147 29.1276C26.7666 28.7434 26.3142 28.0002 25.921 26.9678ZM11.772 17.3323C12.5351 17.819 13.3089 18.1153 13.9906 18.3764C14.9158 18.7308 15.6713 19.0201 16 19.6321C16.3287 19.0202 17.0846 18.7309 18.0102 18.3766L18.0102 18.3766C18.6923 18.1154 19.4665 17.819 20.2298 17.3323C21.5512 16.4885 22.3698 15.3808 22.3698 13.9176C22.3698 12.6608 21.535 11.1869 20.2298 10.3628C20.9785 11.0989 21.5422 12.2282 21.5422 13.2461C21.5422 14.7237 20.7199 16.1276 18.4524 17.072C18.0941 17.2212 17.7537 17.3393 17.4432 17.4469C16.7938 17.6721 16.2757 17.8518 16 18.1761C15.7265 17.8515 15.2076 17.6718 14.5565 17.4463L14.5565 17.4463L14.5565 17.4463L14.5565 17.4463L14.5565 17.4463C14.2461 17.3388 13.9057 17.2209 13.5476 17.072C11.2801 16.1276 10.4578 14.7237 10.4578 13.2461C10.4578 12.2282 11.0233 11.0989 11.772 10.3628C10.465 11.1869 9.63196 12.6608 9.63196 13.9176C9.63196 15.3808 10.4488 16.4885 11.772 17.3323ZM13.8312 16.1815C14.2062 16.3989 14.5956 16.5524 14.9479 16.6912C15.3985 16.8687 15.7883 17.0223 16.009 17.2551C16.2306 17.0224 16.62 16.8689 17.0701 16.6914C17.4223 16.5525 17.8116 16.399 18.1867 16.1815C19.2244 15.5818 19.8564 14.6267 20.0287 13.5064C20.3145 11.6429 19.5197 10.1799 18.5999 8.48674C18.2427 7.82936 17.8667 7.13728 17.5278 6.37359C16.5063 4.07197 16.009 1.00016 16.009 1.00016C16.009 1.00016 15.5117 4.07197 14.4901 6.37359C14.1514 7.13567 13.7761 7.82644 13.4196 8.48258C12.4986 10.1775 11.7032 11.6414 11.9892 13.5064C12.1616 14.6267 12.7935 15.5818 13.8312 16.1815ZM18.1736 14.2787C18.1736 13.3551 17.4225 12.604 16.4988 12.604C15.5726 12.604 14.8241 13.3551 14.8241 14.2787C14.8241 15.2049 15.5726 15.9535 16.4988 15.9535C17.4225 15.9535 18.1736 15.2049 18.1736 14.2787ZM11.3555 22.297C11.7558 21.9661 12.3519 21.9487 12.8223 21.9584C13.9767 21.9835 15.0359 22.4518 15.7145 23.0496C14.6338 21.4418 11.9192 20.6988 10.5206 21.7301C9.83303 22.237 9.69838 22.9297 9.85996 23.5295C10.0413 24.2144 10.8025 24.7716 11.6625 24.5588C12.0754 24.4562 12.3788 24.1718 12.5099 23.8216C12.7325 23.218 12.4183 22.5621 11.8294 22.5098C11.9551 22.5369 12.0575 22.6375 12.1059 22.7749C12.1903 23.0206 12.0664 23.2876 11.8259 23.3882C11.553 23.5024 11.2334 23.3844 11.1221 23.0903C11.0323 22.8503 11.0682 22.533 11.3555 22.297ZM22.1472 23.5295C21.9641 24.2144 21.2029 24.7716 20.3447 24.5588C19.9318 24.4562 19.6266 24.1718 19.4955 23.8216C19.2729 23.218 19.5871 22.5621 20.1777 22.5098C20.0521 22.5369 19.9479 22.6375 19.9013 22.7749C19.8151 23.0206 19.939 23.2876 20.1813 23.3882C20.4524 23.5024 20.772 23.3844 20.8833 23.0903C20.9749 22.8503 20.9372 22.533 20.6499 22.297C20.2496 21.9661 19.6553 21.9487 19.1831 21.9584C18.0287 21.9835 16.9695 22.4518 16.2926 23.0496C17.3716 21.4418 20.0862 20.6988 21.4847 21.7301C22.1724 22.237 22.307 22.9297 22.1472 23.5295ZM23.3645 14.7129C23.9031 12.3772 24.9874 10.7237 27.754 10.4777C29.7953 10.2964 31.4075 11.1689 32 11.5208C32 11.5208 31.3088 11.5406 30.6876 11.984C30.2298 12.3108 29.754 12.8116 29.4417 14.0774C28.8402 16.5011 28.2908 17.379 27.6373 18.1294C26.6679 19.2443 24.7343 20.388 20.8528 20.1905C17.8456 20.0379 16.4991 21.2659 16 21.8781C15.5009 21.2659 14.1544 20.0379 11.1472 20.1905C7.26571 20.388 5.33393 19.2443 4.36266 18.1294C3.71095 17.379 3.16158 16.5011 2.56014 14.0774C2.24596 12.8116 1.77199 12.3108 1.31418 11.984C0.691203 11.5406 0 11.5208 0 11.5208C0.59246 11.1689 2.20467 10.2964 4.24596 10.4777C7.01436 10.7237 8.09874 12.3772 8.63734 14.7129C9.35257 17.8173 11.4723 18.627 13.2974 19.3241C13.4102 19.3672 13.5218 19.4098 13.632 19.4526C15.5727 20.2048 16 21.2336 16 21.2336C16 21.2336 16.4291 20.2048 18.3698 19.4526C18.48 19.4098 18.5916 19.3672 18.7044 19.3241C20.5295 18.627 22.6492 17.8173 23.3645 14.7129Z" fill="#E60012"/>
</g>
<defs>
<clipPath id="clip0">
<rect width="32" height="32" fill="white"/>
</clipPath>
</defs>
</svg>
