<svg width="32" height="32" viewBox="0 0 32 32" fill="none" xmlns="http://www.w3.org/2000/svg">
<g clip-path="url(#clip0)">
<path fill-rule="evenodd" clip-rule="evenodd" d="M18.3469 19.8953H12.4154L12.8918 17.8775H16.7076C18.012 17.8837 18.6458 16.7403 17.7144 16.1022C16.8001 15.4641 16.2067 14.9552 15.2997 14.3091C13.4632 13.0072 14.3279 9.97162 17.41 9.95447H23.0035L22.5161 11.9423H18.7634C17.7315 11.9245 17.5061 13.0599 18.1743 13.4757L20.576 15.2602C22.5577 16.7556 21.396 19.891 18.3469 19.8953ZM25.164 30.7395C24.5633 31.8528 23.145 32.3151 22.0047 31.7732C15.9299 28.8809 10.5758 24.8263 6.12617 19.8953H11.675L12.1698 17.8934H8.66207C8.56287 17.8926 8.46244 17.8961 8.36323 17.8836C7.83596 17.815 7.52793 17.5927 7.35524 17.3239C7.18072 17.0551 7.12927 16.7501 7.16785 16.5064C7.17227 16.4439 7.35524 15.6784 7.36626 15.6147L7.3698 15.5951L7.89339 13.502H7.89427C8.12637 12.5332 8.93533 11.9532 10.0168 11.9245H13.6127L14.0916 9.93973H11.6194L8.50666 11.1063L8.80551 9.93973H8.3652C7.36701 9.92744 6.6695 10.0163 6.17959 10.2447C5.73745 10.4505 5.40187 10.7897 5.26347 11.2949L3.82986 17.1726C2.57938 15.5853 1.43054 13.9435 0.358259 12.2123C-0.30312 11.1461 -0.0312169 9.67579 1.02882 8.95378C9.20967 3.37434 18.8829 0.230961 28.7883 0.000705556C30.0712 -0.030502 31.1582 0.977458 31.2635 2.24755C31.4736 4.82385 31.4779 7.40689 31.2831 9.97402L25.9995 9.97137L20.9902 19.8736H24.6498L25.2407 18.5558C25.2983 18.4223 25.3595 18.38 25.5322 18.3831H28.1569C28.2078 18.3805 28.3174 18.4009 28.3223 18.5295L28.3547 19.8736H29.5415C28.4937 23.6374 27.0228 27.2884 25.1636 30.7392L25.164 30.7395ZM28.2603 16.5903L28.1408 12.5381C28.1355 12.3961 28.0147 12.3856 27.951 12.5277L26.1071 16.6203C26.0312 16.7801 26.0777 16.9338 26.2167 16.9222H28.0667C28.2259 16.9124 28.2768 16.7856 28.2603 16.5903V16.5903Z" fill="#C60C30"/>
</g>
<defs>
<clipPath id="clip0">
<rect width="32" height="32" fill="white"/>
</clipPath>
</defs>
</svg>
