<svg width="32" height="32" viewBox="0 0 32 32" fill="none" xmlns="http://www.w3.org/2000/svg">
<path d="M14.8757 0.0380341C12.8228 0.178852 10.6378 0.773926 8.79431 1.7006C7.85207 2.16848 6.80512 2.84986 5.87198 3.59483C5.26658 4.07635 4.0057 5.33917 3.50953 5.96149C1.8754 8.01018 0.769278 10.3632 0.277676 12.8207C0.0273204 14.079 0 14.397 0 16.0005C0 17.1952 0.0182102 17.6085 0.0819407 18.0446C0.532577 21.1017 1.55677 23.5184 3.4185 25.9259C3.91921 26.571 5.29844 27.961 5.94026 28.4697C7.55619 29.7417 9.09019 30.5684 10.9929 31.1953C15.0168 32.5262 19.4276 32.1946 23.2102 30.2867C25.6273 29.0693 27.7531 27.1933 29.2734 24.9493C30.5525 23.0596 31.3536 21.0927 31.7679 18.8396C31.959 17.7857 32 17.2951 32 16.0005C32 14.4333 31.8771 13.434 31.522 12.0258C30.7573 9.00954 29.0139 6.14774 26.6834 4.08543C23.3969 1.17367 19.2228 -0.25723 14.8757 0.0380341ZM17.7024 1.14641C19.6643 1.37354 21.5761 1.99586 23.2967 2.95888C27.134 5.1075 29.8925 8.90506 30.6981 13.1614C30.8575 14.0109 30.8757 13.9064 30.5343 13.97C29.5966 14.1471 28.1036 15.0466 25.4498 17.0453C24.6441 17.6494 23.4469 18.5488 22.7824 19.0485C20.8523 20.5021 20.2105 20.8883 19.1909 21.2335C18.7949 21.3698 18.6265 21.4015 18.2532 21.4152C17.8481 21.4334 17.7752 21.4243 17.5932 21.3289C17.3064 21.179 17.2063 20.9882 17.2108 20.5884C17.2154 20.1978 17.2654 20.0252 17.6751 19.044C18.062 18.1173 18.1075 17.9356 18.0848 17.5313C18.0666 17.1497 17.9346 16.9499 17.6068 16.7909C17.4202 16.6955 17.3246 16.6819 16.9559 16.6864C16.5826 16.691 16.4415 16.7182 15.9545 16.8772C13.4464 17.6812 11.5937 18.0219 9.68649 18.0219C7.93855 18.0219 6.67767 17.7539 5.37127 17.0998C4.69303 16.7636 4.16046 16.3821 3.55505 15.7961C2.74937 15.0148 2.23955 14.297 1.70243 13.1887L1.4202 12.6027L1.47482 12.3256C1.54765 11.9713 1.85263 11.0355 2.07112 10.4813C3.54595 6.80641 6.46372 3.81742 10.0962 2.25934C11.7212 1.56433 13.2324 1.21455 15.2489 1.06011C15.6632 1.02831 17.138 1.08282 17.7024 1.14641ZM1.57042 17.2769C2.49901 18.0174 3.57326 18.6034 4.69303 18.9713C5.94026 19.3847 6.99175 19.5664 8.12973 19.5664C9.79574 19.5664 11.2842 19.1939 14.2475 18.031C14.9485 17.7584 15.7588 17.4586 16.0455 17.3633C16.9286 17.0771 17.4748 17.0998 17.5977 17.4223C17.6705 17.6131 17.5477 18.031 17.1789 18.8078C16.6828 19.8707 16.5781 20.2114 16.5735 20.8156C16.569 21.3925 16.6418 21.6105 16.9286 21.8967C17.3064 22.2737 17.7889 22.4009 18.7084 22.3691C19.7462 22.3328 20.4836 22.1056 21.9539 21.3834C23.2649 20.7383 24.198 20.1933 26.2191 18.8941C27.926 17.7902 28.577 17.4268 29.2916 17.177C29.6967 17.0362 30.425 16.9817 30.7437 17.068L30.9394 17.1179L30.9075 17.4223C30.8802 17.7221 30.771 18.4807 30.7255 18.7033C30.7027 18.8169 30.6981 18.8169 30.2384 18.8032C29.2552 18.7714 28.5724 19.0304 26.4467 20.2432C23.7155 21.8013 21.608 22.6644 19.6871 23.0005C19.0953 23.105 18.1212 23.105 17.7297 23.0051C16.8421 22.7689 16.3141 22.2692 16.1092 21.4697C15.9545 20.8746 16.091 20.2659 16.6191 19.1757C17.0879 18.2082 17.1198 18.081 16.9468 17.8629C16.8558 17.7448 16.8376 17.7403 16.528 17.7584C16.1092 17.7812 15.9499 17.8493 13.8151 18.885C11.9625 19.7844 11.3388 20.0524 10.4922 20.3068C9.39061 20.6384 8.56672 20.7656 7.48791 20.7611C6.13145 20.7565 4.91152 20.4931 3.57326 19.9207C2.69929 19.5482 1.34282 18.7851 1.25633 18.617C1.21992 18.5489 1.10612 17.7494 1.04694 17.1134C1.01963 16.8318 1.01963 16.8227 1.10157 16.8908C1.14709 16.9317 1.35647 17.1043 1.57042 17.2769ZM16.4734 18.1854C16.5826 18.2263 16.5599 18.4262 16.4279 18.6579C16.1821 19.0803 15.8134 19.8435 15.6859 20.1933C15.1624 21.6105 15.3718 22.8143 16.2595 23.473C17.1972 24.1634 18.8632 24.3315 20.9616 23.9454C22.1815 23.7182 23.1192 23.4457 25.4361 22.6371C27.0657 22.0648 27.8896 21.8104 28.5405 21.6787C28.9639 21.5923 29.724 21.5696 29.7969 21.6423C29.8515 21.6968 29.5329 22.4509 29.196 23.055C29.0367 23.3458 28.9957 23.3866 28.9138 23.3639C28.6543 23.2867 28.1855 23.2458 27.8577 23.2685C27.0384 23.3321 26.2236 23.4911 23.579 24.1089C22.1587 24.4405 20.9024 24.6813 20.1878 24.763C18.9496 24.9084 17.8344 24.8312 16.9923 24.545C16.4233 24.3542 16.1001 24.1589 15.7269 23.7909C14.8848 22.9551 14.7619 21.6241 15.4037 20.2069C15.6905 19.5755 15.7542 19.3393 15.6859 19.2075C15.5585 18.9713 15.1579 19.1803 14.3386 19.9071C13.6967 20.4794 12.759 21.2471 12.2856 21.5923C11.6119 22.0829 10.5832 22.7234 10.0506 22.9778C9.19033 23.3957 8.0478 23.7092 6.89616 23.8409C5.85377 23.9635 4.11039 23.8863 3.32746 23.6864C3.11351 23.6319 3.10441 23.6228 2.88137 23.2231C2.75391 22.996 2.56273 22.6235 2.45349 22.3918C2.22589 21.9058 2.19404 21.9285 2.87226 22.0648C5.43045 22.5917 7.26487 22.6598 8.87624 22.2828C10.4876 21.9103 12.1673 21.0518 13.9698 19.6799C15.035 18.8714 15.6814 18.4489 16.1275 18.2672C16.4324 18.14 16.3869 18.1536 16.4734 18.1854ZM15.0077 20.2796C14.6162 21.2017 14.5252 21.5242 14.4569 22.192C14.3795 22.946 14.5252 23.6547 14.8711 24.1907C15.9272 25.8214 18.7994 26.362 23.7155 25.8578C25.1994 25.7033 25.905 25.6715 26.3784 25.7397C26.779 25.7987 27.1067 25.9077 27.1067 25.9759C27.1067 26.0349 26.3738 26.7935 26.0962 27.0252L25.8822 27.2024L25.3223 27.1342C24.5348 27.0343 23.2603 26.9707 22.0313 26.9707C19.1863 26.9662 17.889 26.8026 16.6509 26.2939C15.9864 26.0168 15.5312 25.726 15.0896 25.29C14.6572 24.8539 14.4569 24.5495 14.2521 24.0044L14.111 23.6319V22.5872C14.111 21.6196 14.1064 21.5424 14.029 21.5287C13.8834 21.5015 13.6603 21.7286 13.2415 22.3191C12.1809 23.8318 11.4481 24.6767 10.5605 25.4172C9.28137 26.4846 7.92945 27.0615 6.54111 27.1388L6.0222 27.166L5.41224 26.5573C5.07539 26.2257 4.80228 25.935 4.80228 25.9214C4.80228 25.9077 4.97981 25.8805 5.20285 25.8623C6.86885 25.7306 8.63045 25.1991 10.0188 24.4042C11.1431 23.7591 11.7212 23.2594 12.9275 21.9058C14.2748 20.3931 15.0942 19.5982 15.1943 19.6981C15.2171 19.7208 15.1442 19.9525 15.0077 20.2796ZM13.7377 22.4827C13.674 22.9188 13.7013 24.009 13.7878 24.4223C14.0563 25.6988 14.7346 26.571 16.0546 27.3296C17.1835 27.9791 18.4307 28.3834 21.0071 28.9467C22.2452 29.2147 22.6458 29.3192 22.6458 29.3692C22.6458 29.3873 22.4546 29.4873 22.2225 29.5917C18.4717 31.2861 14.3158 31.3997 10.5149 29.9143C9.90498 29.6735 8.48933 28.983 8.48933 28.9285C8.48933 28.9104 8.70783 28.7468 8.98094 28.5697C10.1735 27.7838 11.0839 26.8889 11.835 25.7624C11.9989 25.5216 12.4814 24.6313 12.9092 23.7864C13.3371 22.9369 13.7058 22.2465 13.7286 22.2465C13.7559 22.2465 13.7605 22.3419 13.7377 22.4827Z" fill="#D7000F"/>
<path d="M6.75047 6.36578C6.19513 6.45209 6.02216 6.49752 6.08133 6.54295C6.09044 6.55203 6.26341 6.6338 6.45915 6.72918C6.7186 6.85637 6.91888 7.00173 7.1829 7.25157C7.53794 7.59226 7.63354 7.71945 8.64862 9.28663C9.01733 9.84991 9.48617 10.3678 9.87763 10.6312C10.4603 11.0264 11.5254 11.4171 13.196 11.8486C13.7695 11.994 14.3522 12.1666 14.4933 12.2302C14.8529 12.3983 15.3172 12.8661 15.3172 13.0706C15.3172 13.0978 15.1988 13.116 15.0304 13.116C14.6708 13.116 14.3613 13.2068 14.0654 13.3931C13.9425 13.4748 13.7559 13.5521 13.6603 13.5657C13.4008 13.6066 13.4099 13.6838 13.6876 13.7792C13.8196 13.8201 14.0017 13.9018 14.0882 13.9564C14.3203 14.1017 14.8392 14.2789 15.2717 14.3606C15.9909 14.4969 16.6418 14.4333 17.2836 14.1608C17.4657 14.0835 17.7342 14.0063 17.8754 13.9927C18.0984 13.97 18.1712 13.9836 18.3806 14.0926L18.6264 14.2153L18.8586 14.0972C19.2318 13.9064 19.1317 13.8064 18.3032 13.5521C17.7115 13.3658 17.5066 13.2295 17.5886 13.0751C17.6159 13.0297 17.7388 12.9116 17.8662 12.8207C17.9937 12.7253 18.3897 12.321 18.7493 11.9168C19.5505 11.0173 20.4153 10.1815 20.9069 9.83173C21.3303 9.52738 22.0904 9.13218 22.4773 9.00953C22.6958 8.94139 22.846 8.93231 23.3422 8.94594C24.0387 8.9732 24.4119 9.05496 24.899 9.30026L25.2358 9.46833L25.4316 9.37293C25.691 9.24575 26.1917 8.74607 26.3465 8.4508C26.4148 8.32361 26.5104 8.06014 26.5604 7.86481C26.6515 7.51504 26.6833 6.89271 26.615 6.89271C26.5923 6.89271 26.3419 7.04715 26.0551 7.24249C24.817 8.06922 23.8202 8.36904 22.054 8.43717C20.9616 8.47805 20.5428 8.54619 19.86 8.7824C18.5172 9.25028 17.3746 10.1225 16.487 11.358C16.3459 11.5488 16.1684 11.8214 16.091 11.9531C15.9226 12.2484 15.9863 12.2574 15.0532 11.7986C13.592 11.0718 12.668 10.286 11.0338 8.39175C10.5923 7.87844 10.0825 7.31517 9.89585 7.13801C9.50893 6.76552 8.97636 6.40666 8.68049 6.32035C8.3755 6.22496 7.48333 6.24768 6.75047 6.36578Z" fill="#D7000F"/>
</svg>
