<svg width="32" height="32" viewBox="0 0 32 32" fill="none" xmlns="http://www.w3.org/2000/svg">
<path d="M23.3605 8.62277C23.3605 8.62277 23.0625 8.11652 21.8791 8.11652L21.8769 5.69922H20.689L20.6803 8.1998C20.6803 8.1998 19.5165 8.26555 18.5566 8.99753C17.3425 9.92237 16.2818 11.691 16.2971 13.0695C16.319 14.7964 16.2971 20.9503 16.2971 20.9503C16.2971 20.9503 17.2724 21.6166 17.9364 22.456C18.6004 23.2975 18.9555 24.3166 18.9555 24.3166H19.6239L19.6195 14.6189C19.6195 14.6189 19.4683 13.6415 19.8847 12.5829C20.0535 12.1534 20.1411 11.314 20.8731 10.3366C21.272 9.80622 21.833 9.14875 23.0603 8.78714C23.2707 8.72359 23.3605 8.62277 23.3605 8.62277Z" fill="#ED1C24"/>
<path d="M13.7834 7.3866C13.7834 7.3866 14.248 6.7883 15.3898 6.66119L15.392 4.2417H16.5798L16.5864 6.66119C17.2811 6.77077 18.3418 7.35373 18.6991 8.27638C18.6991 8.27638 18.1402 8.60073 17.8203 8.83742C16.7244 9.65487 16.5119 10.7901 15.9399 11.8508C15.3438 10.8252 14.809 9.51461 13.9982 8.83742C13.6409 8.56128 13.1522 8.29172 13.1084 8.27638C13.0076 8.24131 13.7834 7.3866 13.7834 7.3866Z" fill="#ED1C24"/>
<path d="M8.50607 8.62275C8.50607 8.62275 8.85236 8.11212 10.038 8.11212V5.69263H11.2346V8.1954C11.2346 8.1954 12.3545 8.32251 13.3582 8.99094C14.4211 9.69882 15.6177 11.4652 15.6177 13.0651C15.6177 14.792 15.6177 20.9459 15.6177 20.9459C15.6177 20.9459 14.6425 21.61 13.9784 22.4516C13.3144 23.2931 12.9593 24.3166 12.9593 24.3166L12.372 23.8717V14.5948C12.372 14.5948 12.6788 13.7817 12.1441 12.5829C11.9227 12.0898 11.6094 11.0225 11.033 10.3366C10.6056 9.82812 10.1936 9.14873 8.84139 8.76959C8.65293 8.71699 8.50607 8.62275 8.50607 8.62275Z" fill="#ED1C24"/>
<path d="M13.9785 2.88081C13.9785 1.78064 14.8704 0.888672 15.9706 0.888672C17.0707 0.888672 17.9627 1.78064 17.9627 2.88081C17.9627 3.98098 17.0707 4.87294 15.9706 4.87294C14.8704 4.87294 13.9785 3.98098 13.9785 2.88081Z" fill="#ED1C24"/>
<path d="M19.2908 4.29878C19.2908 3.19861 20.1849 2.30664 21.2829 2.30664C22.383 2.30664 23.2772 3.19861 23.2772 4.29878C23.2772 5.39894 22.383 6.29091 21.2829 6.29091C20.1849 6.29091 19.2908 5.39894 19.2908 4.29878Z" fill="#ED1C24"/>
<path d="M11.7649 23.5363C11.7649 23.5363 9.64789 22.0088 8.57621 22.0088C8.5017 22.0088 8.63976 15.0133 8.57621 14.6144C8.35484 13.1965 7.59002 12.5127 7.59002 12.5127C7.59002 12.5127 6.64543 11.8202 6.41752 11.8969C6.25753 11.9495 6.89527 12.401 6.93254 13.4748C6.95225 14.0863 6.42409 15.9316 4.09884 16.0828C1.77139 16.234 1.00653 13.4376 1.69688 11.8312C2.29078 10.4527 3.61889 8.18658 7.89463 8.92294C10.3426 9.34372 11.6751 12.4886 11.7649 13.854C11.8395 14.9695 11.7649 21.0686 11.7649 21.4456C11.7649 21.8247 11.7649 23.5363 11.7649 23.5363Z" fill="#ED1C24"/>
<path d="M20.2375 23.5362C20.2375 23.5362 22.4708 22.0087 23.5424 22.0087C23.6169 22.0087 23.5424 15.4998 23.5424 14.393C23.5424 13.1526 24.4147 12.5127 24.4147 12.5127C24.4147 12.5127 25.3593 11.7807 25.5894 11.8574C25.7472 11.91 25.1094 12.3614 25.0721 13.4375C25.0524 14.0489 25.5806 15.8921 27.9058 16.0433C30.2333 16.1945 31.0551 13.3717 30.3078 11.7938C29.6525 10.4087 28.3858 8.14924 24.1101 8.88342C21.6621 9.3042 20.2639 12.3636 20.2375 14.1629C20.2244 15.2784 20.2661 20.9458 20.2375 21.4082C20.2156 21.7874 20.2375 23.5362 20.2375 23.5362Z" fill="#ED1C24"/>
<path d="M8.5762 22.6729C8.5762 22.6729 11.2346 23.0718 12.8717 25.1077C12.8717 25.1077 14.2896 22.274 15.9706 21.5662C17.6537 22.274 19.0694 25.1077 19.0694 25.1077C20.7087 23.0718 23.5424 22.6532 23.5424 22.6532C23.549 22.7847 23.5424 22.5195 23.5424 22.6532C23.5424 26.7865 20.1915 30.6875 16.0582 30.6875C11.9271 30.6875 8.5762 27.3366 8.5762 23.2033C8.5762 23.0192 8.5521 22.8548 8.5762 22.6729Z" fill="#ED1C24"/>
<path d="M8.75372 4.29878C8.75372 3.19861 9.6457 2.30664 10.7459 2.30664C11.846 2.30664 12.738 3.19861 12.738 4.29878C12.738 5.39894 11.846 6.29091 10.7459 6.29091C9.6457 6.29091 8.75372 5.39894 8.75372 4.29878Z" fill="#ED1C24"/>
</svg>
