<svg width="32" height="32" viewBox="0 0 32 32" fill="none" xmlns="http://www.w3.org/2000/svg">
<path d="M0 4.1619H32C24.0893 8.72057 23.6873 17.4804 25.8771 27.5803L0 4.1619Z" fill="#ED1C24"/>
<path d="M6.97232 8.13965H8.53652V6.30727H6.97232V8.13965Z" fill="white"/>
<path d="M9.34106 5.2793H11.1732V3.62562H9.34106V5.2793Z" fill="white"/>
<path d="M9.16208 11.134H11.218V9.03375H9.16208V11.134Z" fill="white"/>
<path d="M11.7544 8.81006H14.257V6.08392H11.7544V8.81006Z" fill="white"/>
<path d="M11.8437 13.8604H14.2122V11.6257H11.8437V13.8604Z" fill="white"/>
<path d="M14.7039 11.4023H16.8939V9.21232H14.7039V11.4023Z" fill="white"/>
<path d="M17.3854 8.67603H19.9328V6.17345H17.3854V8.67603Z" fill="white"/>
<path d="M20.5586 5.68164H22.8825V3.17858H20.5586V5.68164Z" fill="white"/>
<path d="M23.0166 14.7542H26.0558V11.4024H23.0166V14.7542Z" fill="white"/>
<path d="M19.8882 17.5251H24.2233V14.4414H19.8882V17.5251Z" fill="white"/>
<path d="M14.7485 5.72632H16.8939V3.80471H14.7485V5.72632Z" fill="white"/>
<path d="M14.7485 17.301H17.3854V14.441H14.7485V17.301Z" fill="white"/>
<path d="M17.3854 19.8938H20.2456V17.0782H17.3854V19.8938Z" fill="white"/>
<path d="M22.3015 19.7151H25.162V16.8546H22.3015V19.7151Z" fill="white"/>
<path d="M22.5698 29.3687H26.7265V21.9046H22.5698V29.3687Z" fill="white"/>
<path d="M20.0223 22.3066H25.6536V19.1785H20.0223V22.3066Z" fill="white"/>
<path d="M18.7263 23.6929H21.0058V21.5475H18.7263V23.6929Z" fill="white"/>
<path d="M16.1786 21.1006H18.0112V19.4918H16.1786V21.1006Z" fill="white"/>
<path d="M13.4525 18.5083H15.2402V16.8992H13.4525V18.5083Z" fill="white"/>
<path d="M17.2513 14.6648H20.3351V11.5808H17.2513V14.6648Z" fill="white"/>
<path d="M19.9328 11.9385H23.0166V8.85445H19.9328V11.9385Z" fill="white"/>
<path d="M22.9274 9.16772H25.8325V6.08418H22.9274V9.16772Z" fill="white"/>
<path d="M25.7433 6.08374H29.2739V2.99995H25.7433V6.08374Z" fill="white"/>
</svg>
