<svg width="32" height="32" viewBox="0 0 32 32" fill="none" xmlns="http://www.w3.org/2000/svg">
<mask id="mask0" mask-type="alpha" maskUnits="userSpaceOnUse" x="0" y="12" width="32" height="8">
<path fill-rule="evenodd" clip-rule="evenodd" d="M30.3291 13.7789H31.8447C31.9764 13.7789 32.0472 13.9342 31.9595 14.0321L29.8937 16.3747C29.9882 16.584 30.0827 16.7933 30.1806 17.0026C30.4675 17.6304 30.7544 18.2583 31.0413 18.8861C31.1325 19.0819 31.0751 19.173 30.8624 19.173C30.373 19.173 29.8835 19.173 29.3941 19.173C29.1679 19.173 29.1308 19.1494 29.0464 18.9368C28.8034 18.3055 28.5603 17.6743 28.3173 17.0465C28.3004 16.9992 28.2802 16.9553 28.2498 16.8878C28.1418 17.4988 28.0405 18.0827 27.9392 18.6667C27.9223 18.7646 27.9055 18.8659 27.8852 18.9638C27.8582 19.0954 27.7603 19.173 27.6253 19.173C27.1865 19.173 26.7477 19.173 26.3088 19.173C26.1502 19.173 26.0793 19.0887 26.1063 18.93C26.292 17.8633 26.481 16.7967 26.67 15.73C26.8658 14.6059 27.065 13.4819 27.2574 12.3612C27.2607 12.3376 27.2641 12.3173 27.2709 12.2937C27.308 12.1249 27.4565 12.0068 27.6287 12.0068H28.8844C28.9991 12.0068 29.0903 12.1047 29.0802 12.2161C29.0802 12.233 29.0768 12.2498 29.0734 12.2667L28.4017 15.9697L30.1097 13.8836C30.1603 13.8161 30.2413 13.7789 30.3291 13.7789ZM24.8 19.1697C24.9856 19.1697 25.07 19.0954 25.1038 18.9199C25.2456 18.1232 25.3907 17.33 25.5257 16.5334C25.5966 16.1216 25.6945 15.7165 25.6878 15.2946C25.6709 14.5283 25.2456 13.9781 24.4962 13.8059C23.7873 13.6405 23.0717 13.6676 22.3629 13.8161C21.9612 13.9005 21.6169 14.0962 21.3536 14.4203C21.1004 14.7376 20.9519 15.1022 20.8776 15.4937C20.7325 16.2431 20.6042 16.9924 20.4726 17.7418C20.4017 18.1368 20.3308 18.5283 20.27 18.9232C20.2396 19.1089 20.3004 19.1697 20.4894 19.1697C20.9148 19.1697 21.3401 19.1697 21.7688 19.1697C21.9207 19.1697 22.0186 19.092 22.0456 18.9469C22.1975 18.0794 22.3494 17.2152 22.5013 16.3477C22.5485 16.0743 22.5958 15.8009 22.6565 15.5308C22.7038 15.3216 22.8321 15.1697 23.0582 15.1528C23.2506 15.1393 23.4464 15.1393 23.6388 15.1494C23.8346 15.1629 23.919 15.2676 23.919 15.4667C23.919 15.514 23.919 15.5612 23.9122 15.6051C23.8076 16.1992 23.7029 16.7899 23.5983 17.384C23.5072 17.9038 23.416 18.4203 23.3283 18.9401C23.3013 19.0988 23.3688 19.1697 23.5274 19.1697C23.7434 19.1697 23.9561 19.1697 24.1721 19.1697C24.378 19.1697 24.5907 19.1697 24.8 19.1697ZM18.8253 12.0068C18.751 12.0068 18.6802 12.0304 18.6261 12.0844C18.5958 12.1114 18.5755 12.1452 18.5654 12.1924C18.5181 12.4794 18.4607 12.7629 18.4169 13.0498C18.3932 13.2017 18.4574 13.2692 18.6126 13.2692C19.0852 13.2726 19.5578 13.2726 20.0304 13.2692C20.1789 13.2692 20.2667 13.195 20.2937 13.0498C20.3443 12.7764 20.3915 12.503 20.4422 12.2296V12.2262C20.4624 12.1081 20.3679 12.0034 20.2498 12.0034L18.8253 12.0068ZM18.8726 19.1697C19.0987 19.1697 19.1865 19.0988 19.2236 18.8794C19.5105 17.2591 19.7941 15.6389 20.081 14.0186C20.108 13.8701 20.0371 13.7823 19.8852 13.7789C19.4464 13.7756 19.0076 13.7756 18.5688 13.7789C18.4169 13.7789 18.319 13.8701 18.292 14.0186C18.2852 14.0625 18.2751 14.1097 18.2683 14.1536C18.0861 15.1798 17.9038 16.2093 17.7249 17.2355C17.627 17.7992 17.5257 18.3629 17.4312 18.9266C17.4042 19.092 17.4717 19.1663 17.6371 19.1663C17.8532 19.1663 18.0658 19.1663 18.2818 19.1663C18.4776 19.1697 18.6734 19.1697 18.8726 19.1697ZM16.0236 12.0068C15.9325 12.0068 15.8413 12.0473 15.7907 12.1249C15.7569 12.1756 15.7367 12.2363 15.7266 12.3072C15.6861 12.5941 15.6287 12.8777 15.578 13.1646C15.2405 15.0819 14.8996 16.9992 14.562 18.9199C14.5316 19.0853 14.6025 19.1697 14.7679 19.1697C15.1966 19.1697 15.6287 19.1697 16.0574 19.1697C16.2261 19.1697 16.3139 19.0988 16.3443 18.9334C16.4219 18.5114 16.4962 18.0895 16.5705 17.6676C16.7595 16.5941 16.9485 15.5207 17.1409 14.4473C17.2692 13.7182 17.4008 12.9891 17.5291 12.26C17.546 12.1722 17.5392 12.0946 17.4751 12.0405C17.4447 12.0169 17.4042 12.0034 17.3637 12.0034L16.0236 12.0068ZM13.1038 12.0068C13.0295 12.0068 12.9586 12.0304 12.9046 12.0844C12.8742 12.1114 12.854 12.1452 12.8439 12.1924C12.7966 12.4794 12.7392 12.7629 12.6953 13.0498C12.6717 13.2017 12.7359 13.2692 12.8911 13.2692C13.3637 13.2726 13.8363 13.2726 14.3088 13.2692C14.4574 13.2692 14.5451 13.1916 14.5721 13.0498C14.6228 12.7764 14.67 12.503 14.7207 12.2296V12.2262C14.7409 12.1081 14.6464 12.0034 14.5283 12.0034L13.1038 12.0068ZM13.1544 19.1697C13.3772 19.1697 13.465 19.0954 13.5055 18.876C13.7924 17.2557 14.0759 15.6355 14.3629 14.0152C14.3865 13.8735 14.319 13.7789 14.1772 13.7789C13.735 13.7756 13.2928 13.7756 12.8472 13.7789C12.6953 13.7789 12.5975 13.8701 12.5705 14.022C12.5637 14.0659 12.5536 14.1131 12.5468 14.157C12.3645 15.1832 12.1823 16.2127 12 17.2389C11.9021 17.7992 11.8042 18.3562 11.7063 18.9165C11.6759 19.0954 11.7434 19.1663 11.9257 19.1663C12.135 19.1663 12.3477 19.1663 12.5569 19.1663C12.7561 19.1697 12.9553 19.1697 13.1544 19.1697ZM10.1907 15.1022C10.2312 15.1022 11.0076 15.1022 11.3485 15.1022C11.5139 15.1022 11.5983 15.0313 11.6287 14.8692C11.6726 14.6296 11.7164 14.3899 11.7569 14.1469C11.8177 13.7958 11.8008 13.7756 11.4464 13.7756C11.1055 13.7756 10.7645 13.7756 10.4135 13.7756C10.4742 13.4414 10.5316 13.1173 10.589 12.7933C10.6261 12.584 10.5485 12.503 10.346 12.5368C9.91054 12.611 9.47509 12.6853 9.03965 12.7595C8.84724 12.7933 8.78311 12.8608 8.74935 13.0498C8.66834 13.5089 8.58733 13.968 8.50632 14.4304C8.31054 15.5443 8.09788 16.6583 7.9291 17.7756C7.82784 18.4439 8.07762 18.9941 8.83712 19.1697C9.45484 19.3148 10.0759 19.2439 10.6937 19.1393C10.8152 19.119 10.8793 19.0346 10.8996 18.9131C10.9401 18.6768 10.9806 18.4405 11.0245 18.2043C11.0616 17.9882 11.0143 17.9275 10.7915 17.9275C10.508 17.9241 9.94429 17.9241 9.94429 17.9241C9.94429 17.9241 9.84978 17.9342 9.77551 17.8498C9.73163 17.7992 9.76201 17.6912 9.76201 17.6912L10.1907 15.1022ZM6.26834 12.0068C6.19408 12.0068 6.12319 12.0304 6.06919 12.0844C6.03881 12.1114 6.01855 12.1452 6.00843 12.1924C5.96117 12.4794 5.90378 12.7629 5.8599 13.0498C5.83627 13.2017 5.90041 13.2692 6.05568 13.2692C6.52826 13.2726 7.00083 13.2726 7.4734 13.2692C7.62193 13.2692 7.70969 13.1916 7.7367 13.0498C7.78733 12.7764 7.83459 12.503 7.88522 12.2296V12.2262C7.90547 12.1081 7.81096 12.0034 7.69281 12.0034H6.26834V12.0068ZM6.32235 19.1697C6.54514 19.1697 6.6329 19.0954 6.67003 18.8726C6.95357 17.2557 7.24049 15.6389 7.52404 14.0254C7.55104 13.8667 7.48353 13.7789 7.32488 13.7789C6.88944 13.7789 6.45737 13.7789 6.02193 13.7789C5.86328 13.7789 5.76539 13.8667 5.73501 14.0254C5.54935 15.0616 5.36708 16.0979 5.1848 17.1342C5.08016 17.7317 4.97551 18.3292 4.87425 18.9266C4.84387 19.0988 4.91138 19.173 5.08353 19.173C5.29281 19.173 5.50547 19.173 5.71476 19.173C5.91729 19.1697 6.11982 19.1697 6.32235 19.1697ZM4.67172 12.3106C4.108 12.1789 3.53416 12.1722 2.9637 12.2397C2.481 12.2971 2.0253 12.4355 1.62024 12.7157C1.04978 13.1106 0.718975 13.6709 0.49619 14.3089C0.303785 14.8591 0.226147 15.4363 0.114755 16.0068C0.0236158 16.4726 -0.0303926 16.9384 0.0404935 17.411C0.121506 17.9545 0.354418 18.4102 0.789861 18.7545C1.18817 19.0684 1.654 19.2068 2.14682 19.2405C2.67003 19.2743 3.18986 19.2304 3.69957 19.0954C3.86497 19.0515 3.95611 18.9705 3.98311 18.7916C4.03374 18.4507 4.10463 18.1131 4.16539 17.7722C4.20252 17.5595 4.15864 17.5123 3.94598 17.5224C3.92235 17.5224 3.89535 17.5258 3.87172 17.5292C3.47003 17.573 3.06497 17.6068 2.6599 17.5967C2.19746 17.5899 1.95779 17.3469 1.93754 16.8844C1.92066 16.5064 1.9983 16.1384 2.06919 15.7705C2.14682 15.3654 2.19746 14.9536 2.35273 14.5688C2.56539 14.0456 2.86581 13.8465 3.42952 13.8498C3.82784 13.8532 4.2194 13.8971 4.61433 13.9275C4.79324 13.941 4.84387 13.8971 4.87762 13.7148C4.91813 13.4954 4.99239 13.0836 5.02615 12.8608C5.05315 12.665 5.07678 12.5705 5.02952 12.4625C4.97889 12.3646 4.81349 12.3443 4.67172 12.3106Z" fill="white"/>
</mask>
<g mask="url(#mask0)">
<rect x="-1.01941" y="9.71484" width="35.3418" height="10.5249" fill="#0C803D"/>
<path d="M25.2591 20.2397L30.3494 9.71484H26.9907L25.2591 20.2397Z" fill="#54B149"/>
<path d="M25.4616 20.2397L29.2422 15.6895L28.2464 20.2397H25.4616Z" fill="#CDD745"/>
</g>
</svg>
