<svg width="32" height="32" viewBox="0 0 32 32" fill="none" xmlns="http://www.w3.org/2000/svg">
<path d="M22.204 12.8183C22.0824 12.8183 21.98 12.8215 21.9224 12.8279C21.8552 12.9495 21.756 13.1127 21.6088 13.3399C23.8997 13.3399 25.9795 13.5286 28.2799 13.9414L27.6305 14.5685C25.5539 14.2006 23.8294 14.0534 21.6313 14.0534C21.3113 14.0534 21.2441 14.0534 21.1674 14.0566C21.0905 14.1717 20.9177 14.3957 20.745 14.6037C20.9402 14.5909 21.3177 14.5845 21.8392 14.5845C23.647 14.5845 25.3363 14.7189 27.1697 15.0133L26.5202 15.6436C25.1252 15.426 23.4198 15.3012 21.8904 15.3012C21.3465 15.3012 20.729 15.3204 20.1754 15.3524C20.0507 15.4964 19.7243 15.8484 19.6252 15.9571C20.3578 15.8803 21.1641 15.8451 22.124 15.8451C23.4902 15.8451 24.7957 15.9348 26.0307 16.1171L25.3811 16.741C24.5013 16.6323 23.4326 16.5683 22.4888 16.5683C20.0539 16.5683 18.1341 17.0961 16.1504 18.3088C18.0413 20.3373 21.1385 21.6203 24.1397 21.6203H24.4213L23.3719 22.6348C19.0428 21.822 14.4866 19.9182 10.6376 17.3105C6.93565 14.8117 5.63984 14.0726 2.75064 12.796L2.73145 12.0536L4.68638 12.892L5.3519 12.364L11.735 15.2884L11.319 15.6211L8.04271 14.1974L7.71955 14.4501L9.42176 15.4004C10.8584 16.2003 11.9526 16.5586 12.9637 16.5586C15.1746 16.5586 17.1583 14.9909 18.4381 12.2361C19.4012 12.1112 20.4282 12.0536 21.6632 12.0536C24.1973 12.0536 26.6577 12.2968 29.4446 12.8183L28.7663 13.4742C27.0322 13.1127 24.0853 12.8183 22.204 12.8183Z" fill="#0A1D3D"/>
<path fill-rule="evenodd" clip-rule="evenodd" d="M16 31C24.2843 31 31 24.2843 31 16C31 7.71573 24.2843 1 16 1C7.71573 1 1 7.71573 1 16C1 24.2843 7.71573 31 16 31ZM32 16C32 24.8366 24.8366 32 16 32C7.16344 32 0 24.8366 0 16C0 7.16344 7.16344 0 16 0C24.8366 0 32 7.16344 32 16Z" fill="#0A1D3D"/>
</svg>
