<svg width="32" height="32" viewBox="0 0 32 32" fill="none" xmlns="http://www.w3.org/2000/svg">
<g clip-path="url(#clip0)">
<path d="M31.8092 18.5023C31.1689 20.5614 29.0344 22.495 26.4731 22.8967C26.8874 23.5371 27.0758 24.3281 26.9753 25.207C26.6991 27.5925 24.414 29.5135 21.9657 29.5386C20.3083 29.5512 18.0609 28.8355 16.4789 26.337C15.0601 24.1146 14.8592 20.5865 14.9596 19.5193C13.227 21.2896 12.1472 23.0097 11.6324 24.2025C10.4773 26.902 10.0379 30.1915 10.063 31.7358C10.063 31.7358 9.84954 31.9367 9.64865 31.9744C9.00831 31.8614 8.45586 31.6228 8.04153 31.2587C7.53931 30.8067 7.4263 30.3798 7.4263 30.3798C8.19219 26.5504 9.41009 24.1648 11.2306 21.4403C13.679 17.7615 17.4582 15.4889 21.9405 14.1204C25.1799 13.1285 28.5448 12.9151 30.855 14.8737C32.098 15.9033 32.1733 17.3848 31.8092 18.5023ZM12.7248 16.4683C11.9589 17.7489 9.86209 19.8081 8.20476 20.8753C4.75198 23.0851 2.26597 23.2357 1.02296 22.4447C0.872297 22.3568 0.746745 22.2438 0.633744 22.1308C-0.333034 21.1138 -0.169815 19.3058 0.960186 17.8243C1.51263 17.0961 2.2283 16.5813 2.91885 16.3427C2.37896 16.0916 2.01486 15.5643 1.93953 14.8235C1.78886 13.3419 2.90631 11.3958 4.45064 10.6048C5.80664 9.91427 8.73208 9.22372 10.8791 12.4254C11.7203 13.6684 12.4737 15.4387 12.7248 16.4683ZM26.9126 3.00871C26.7242 1.16304 24.753 0.485043 22.5809 1.41416C21.5513 1.8536 20.6473 2.59438 20.007 3.4356C20.1074 2.59438 19.8689 1.8536 19.2662 1.41416C18.0734 0.547821 15.9013 1.18815 14.4198 2.79527C13.905 3.36027 12.2225 5.39427 12.1346 8.38249C12.097 9.82638 12.7373 13.0281 14.8466 15.2378C20.4715 13.1159 23.4974 9.86405 24.6526 8.52061C25.9834 6.96372 26.5484 5.59516 26.787 4.59071C26.9628 3.79971 26.9377 3.23471 26.9126 3.00871Z" fill="#82C341"/>
<path d="M24.6525 8.52061C25.9834 6.96372 26.5484 5.59516 26.787 4.59071C26.7996 4.54049 26.8121 4.49027 26.8247 4.42749C26.5484 5.54494 24.188 8.43272 20.9235 10.8936C17.5335 13.4424 15.6 14.7231 14.8592 15.2253C20.4715 13.1159 23.4974 9.86405 24.6525 8.52061Z" fill="#3CB14A"/>
<path d="M8.20476 20.8628C9.86209 19.7956 11.9589 17.7365 12.7248 16.4558C11.2432 17.862 9.05852 19.9588 5.30441 21.6161C3.44619 22.4071 1.62563 22.7085 1.02296 22.4197C2.26597 23.2233 4.75198 23.0726 8.20476 20.8628Z" fill="#3CB14A"/>
<path d="M31.8092 18.5023C31.8971 18.2261 31.9599 17.9373 31.985 17.636C31.8092 18.8288 31.0056 20.2727 29.725 21.0637C28.595 21.7668 27.2892 22.2313 25.8076 22.1058C26.0462 22.3318 26.2345 22.5201 26.4731 22.8842C29.0344 22.495 31.1689 20.5614 31.8092 18.5023Z" fill="#3CB14A"/>
<path d="M15.3112 17.2468C15.2987 17.2594 15.2861 17.2594 15.2861 17.2719C15.2861 17.2594 15.2987 17.2468 15.3112 17.2468Z" fill="#F9ED32"/>
<path d="M15.2861 17.2594C11.2557 20.1472 9.88719 25.3452 9.66119 31.962C9.86208 31.9243 10.0755 31.7234 10.0755 31.7234C10.0504 30.1791 10.4899 26.9021 11.645 24.1901C12.1597 22.9973 13.2395 21.2772 14.9722 19.5068C15.0977 18.3266 15.2359 17.636 15.3238 17.2468C15.2986 17.2468 15.2861 17.2594 15.2861 17.2594Z" fill="#3CB14A"/>
</g>
<defs>
<clipPath id="clip0">
<rect width="32" height="32" fill="white"/>
</clipPath>
</defs>
</svg>
