<svg width="32" height="32" viewBox="0 0 32 32" fill="none" xmlns="http://www.w3.org/2000/svg">
<path d="M7.57682 8.64841C9.25319 8.61559 10.9332 8.64404 12.6103 8.63455C18.9095 8.63455 25.2079 8.63455 31.5063 8.63455C31.7004 8.62142 31.8937 8.77024 31.925 8.96501C31.9659 9.19115 31.855 9.40489 31.7645 9.60405C31.4582 10.2416 31.17 10.8872 30.8658 11.5248C30.7258 11.8312 30.4668 12.0705 30.164 12.212C29.8285 12.3601 29.4528 12.3243 29.0968 12.328C21.7049 12.3272 14.3129 12.328 6.92174 12.3272C6.56064 12.309 6.18641 12.3805 5.83844 12.2623C5.55175 12.1398 5.5802 11.7641 5.68452 11.5248C6.02301 10.8084 6.35201 10.0877 6.68976 9.37061C6.85973 9.0117 7.20697 8.76951 7.57682 8.64841Z" fill="#001246"/>
<path d="M15.0942 14.6623C15.5385 14.1787 15.9244 13.6374 16.4168 13.2012C16.5014 13.2989 16.5846 13.4032 16.6305 13.5273C16.7713 13.9051 16.9143 14.283 17.0558 14.6616C17.6438 14.6784 18.2376 14.6288 18.8234 14.6879C19.0554 14.7222 19.0196 15.0256 18.9051 15.1679C18.5454 15.6391 18.1267 16.0615 17.7554 16.5233C17.9122 16.8939 18.0494 17.2717 18.188 17.6489C18.2391 17.8028 18.258 18.0559 18.0516 18.0939C17.4884 18.2252 16.9048 18.1238 16.3344 18.1661C15.9397 18.5717 15.6012 19.0305 15.2066 19.4369C15.1446 19.5178 15.0424 19.5368 14.9498 19.5222C14.7266 19.0882 14.5865 18.6162 14.4085 18.1624C13.814 18.1369 13.2143 18.1989 12.6242 18.1296C12.3718 18.099 12.4068 17.786 12.5293 17.635C12.8882 17.1587 13.3289 16.7465 13.6797 16.2636C13.5499 15.8397 13.3413 15.4429 13.2296 15.014C13.1727 14.8119 13.3887 14.6864 13.563 14.6828C14.0715 14.6375 14.5836 14.674 15.0942 14.6623Z" fill="#001246"/>
<path d="M2.12679 20.5121C5.71662 20.4881 9.3079 20.5092 12.8985 20.5019C17.2287 20.5027 21.5597 20.5005 25.89 20.5034C26.1292 20.4793 26.3919 20.6683 26.3722 20.9243C26.3919 21.1132 26.2926 21.2803 26.219 21.4452C25.9213 22.0776 25.6273 22.7116 25.3334 23.3455C25.1123 23.8248 24.6112 24.2333 24.0604 24.1778C16.1855 24.1727 8.30996 24.1808 0.435106 24.1742C0.0900563 24.1742 -0.04417 23.7562 0.0951628 23.4841C0.3286 22.9362 0.595593 22.403 0.842891 21.8617C1.01432 21.5276 1.11937 21.1417 1.40387 20.8798C1.60302 20.6938 1.85178 20.5442 2.12679 20.5121Z" fill="#001246"/>
</svg>
