<svg width="32" height="32" viewBox="0 0 32 32" fill="none" xmlns="http://www.w3.org/2000/svg">
<g clip-path="url(#clip0)">
<path d="M3.05592 16.4498L3.42173 15.6816H0.262484C0.262484 15.6816 0.337263 15.839 0.449179 16.0746C0.5232 16.2451 0.556126 16.3542 0.511916 16.6202C0.510653 16.6276 0.0432 19.2824 0.00656842 19.484C-0.0308211 19.6943 0.096 19.7934 0.261558 19.7934C0.419789 19.7934 2.92034 19.7934 2.92034 19.7934L2.74695 19.0234H1.04253L1.20766 18.0851H2.78004L2.91596 17.3106H1.34467L1.49583 16.4496H3.05592V16.4498Z" fill="#D12149"/>
<path d="M28.2099 16.4498L28.576 15.6816H25.5667C25.5667 15.6816 25.6413 15.839 25.7538 16.0746C25.8275 16.2451 25.8605 16.3542 25.8164 16.6202C25.8152 16.6276 25.3469 19.2824 25.3106 19.484C25.2729 19.6943 25.4005 19.7934 25.5656 19.7934C25.7237 19.7934 28.0747 19.7934 28.0747 19.7934L27.9014 19.0234H26.3469L26.5117 18.0851H27.9343L28.0706 17.3106H26.6486L26.8 16.4496H28.2099V16.4498Z" fill="#D12149"/>
<path d="M8.75006 16.7205C8.81996 16.4992 9.06164 16.45 9.41575 16.45H10.0544L10.3341 15.6819C10.3341 15.6819 9.34206 15.6819 9.24211 15.6819C8.84615 15.6819 7.94131 15.6445 7.74712 16.5262C7.47823 17.7536 9.07057 18.1084 8.9904 18.6668C8.94257 18.9947 8.62981 19.0237 8.19798 19.0237C7.95688 19.0237 7.24429 19.0237 7.24429 19.0237L7.42316 19.7937H8.50324C9.06265 19.7937 9.84337 19.6917 10.0269 18.9957C10.3583 17.7438 8.57171 17.3356 8.75006 16.7205Z" fill="#D12149"/>
<path fill-rule="evenodd" clip-rule="evenodd" d="M19.2503 15.6816C20.3046 15.6816 20.7249 16.2216 20.6725 16.8948C20.6296 17.451 20.2769 17.8529 19.8628 18.0193C20.0324 18.1884 20.13 18.4321 20.6706 19.7817L20.6753 19.7935H19.6626C19.613 19.6635 19.5678 19.5444 19.5264 19.4353C19.139 18.4142 19.0829 18.2664 18.8527 18.2533C18.6628 18.2432 18.5947 18.2526 18.5947 18.2526L18.3234 19.7935H17.3978L17.9571 16.6194C18.0011 16.3541 17.9683 16.2451 17.8941 16.0746L17.7089 15.6816H19.2503ZM19.0248 17.5617C19.3907 17.5617 19.6843 17.3109 19.7434 16.9744C19.7956 16.6752 19.6112 16.4497 19.268 16.4497H18.9123L18.7165 17.5617H19.0248Z" fill="#D12149"/>
<path d="M10.5185 15.6816L10.798 16.4498H11.756L11.1663 19.7935H12.1331L12.7226 16.4498H13.797L14.0759 15.6816H10.5185Z" fill="#D12149"/>
<path d="M28.6573 15.6816L28.9366 16.4498H29.7438L29.1547 19.7935H30.1215L30.7107 16.4498H31.7207L32 15.6816H28.6573Z" fill="#D12149"/>
<path d="M23.5847 14.8369C23.5505 14.8343 23.4913 14.8291 23.4467 14.8248C22.2749 14.7016 21.9757 14.612 21.8929 13.1161C21.8929 13.1161 21.8872 13.0386 21.8237 13.0386C21.7595 13.0386 21.7542 13.1161 21.7542 13.1161C21.6717 14.612 21.3722 14.7016 20.2004 14.8248C20.1561 14.8291 20.097 14.8343 20.0624 14.8369C20.0259 14.8398 19.9864 14.8548 19.9864 14.8818C19.9864 14.9114 20.0234 14.9262 20.0624 14.931C21.3554 15.0913 21.6445 15.2019 21.7571 17.0669C21.7583 17.1083 21.7775 17.15 21.8237 17.15C21.8695 17.15 21.8886 17.1082 21.8904 17.0669C22.0025 15.2019 22.2917 15.0913 23.5847 14.931C23.6232 14.9262 23.6611 14.9114 23.6611 14.8818C23.6612 14.8547 23.6211 14.8397 23.5847 14.8369Z" fill="#D12149"/>
<path d="M23.6684 15.6817L23.8547 16.0747C23.9286 16.2452 23.9618 16.3543 23.9177 16.6203L23.6427 18.1894C23.376 19.7168 22.5947 19.7178 22.1115 19.7178C22.0221 19.8649 23.0372 20.0924 23.6957 19.7794C24.2076 19.5369 24.4613 19.1011 24.589 18.3579C24.6241 18.1543 25.0588 15.6816 25.0588 15.6816H23.6684V15.6817Z" fill="#D12149"/>
<path fill-rule="evenodd" clip-rule="evenodd" d="M15.7907 15.6816C15.9918 15.6816 16.1292 15.8134 16.1714 15.9909C16.1926 16.0819 16.4214 17.0649 16.641 18.0085C16.853 18.9193 17.0564 19.7935 17.0565 19.7935H16.0969L15.9112 18.8146H14.5434L14.0469 19.7935H13.0702L14.7597 16.5914C14.868 16.3873 14.878 16.2686 14.7968 16.0925L14.6024 15.6816H15.7907ZM15.5392 16.8485L14.9294 18.0528H15.7673L15.5392 16.8485Z" fill="#D12149"/>
<path fill-rule="evenodd" clip-rule="evenodd" d="M5.81659 15.6816C6.01819 15.6816 6.1552 15.8134 6.19764 15.9909C6.23966 16.1696 7.08211 19.7935 7.08211 19.7935H6.12261L5.93684 18.8146H4.56935L4.07301 19.7935H3.09617L4.78602 16.5914C4.89415 16.3873 4.90417 16.2686 4.82316 16.0925L4.62846 15.6816H5.81659ZM5.56514 16.8485L4.95528 18.0528H5.79318L5.56514 16.8485Z" fill="#D12149"/>
</g>
<defs>
<clipPath id="clip0">
<rect width="32" height="32" fill="white"/>
</clipPath>
</defs>
</svg>
