<svg width="32" height="32" viewBox="0 0 32 32" fill="none" xmlns="http://www.w3.org/2000/svg">
<g clip-path="url(#clip0)">
<path d="M30.505 3H31.1961C31.5548 3.30766 31.8439 3.69107 32 4.14097V6.64089C31.7233 7.3165 31.629 8.04777 31.3878 8.73575C31.0631 9.75149 30.5761 10.7317 29.8402 11.5109C28.9791 12.4215 27.9417 13.1419 26.8997 13.8284C24.3348 15.478 21.6757 16.973 19.001 18.4371C13.5977 21.3451 8.10155 24.0909 2.44774 26.481C1.98702 26.6016 1.53095 26.7299 1.06714 26.8335C1.11043 26.2909 1.684 26.0682 2.07051 25.793C11.4271 20.2073 19.8081 13.1388 27.5598 5.51693C28.5029 4.63724 29.3718 3.6416 30.505 3Z" fill="#548F46"/>
<path d="M27.5907 14.5225C27.9309 14.3602 28.4117 14.521 28.489 14.9168C28.6111 15.5058 28.373 16.0917 28.1535 16.6267C27.2769 18.5422 25.8994 20.2706 24.0874 21.3714C23.1212 21.928 22.056 22.2805 21.0124 22.6593C15.8997 24.4001 10.6417 25.6709 5.37744 26.8598C5.43 26.8938 5.53823 26.9618 5.59234 26.9974C5.50112 27.019 5.32178 27.0623 5.23057 27.084C5.1579 26.7902 4.48693 26.9015 4.81778 27.1783C4.21174 27.2772 3.55931 27.3004 3.03985 27.6653C2.95791 27.5555 2.87906 27.4457 2.80176 27.3344C2.20345 27.3638 1.60978 27.4226 1.01456 27.4751C1.02847 27.2602 1.04548 27.0469 1.06712 26.8335C1.53093 26.7299 1.98701 26.6016 2.44772 26.481C2.82495 26.4115 3.20064 26.3187 3.56395 26.1888C5.50267 25.5101 7.39191 24.6985 9.26569 23.8543C14.567 21.4363 19.7709 18.8004 24.8604 15.9603C25.7664 15.4749 26.6291 14.8936 27.5907 14.5225Z" fill="#F1D212"/>
<path d="M23.1907 22.6515C23.6113 22.5773 24.1616 22.3284 24.508 22.7041C24.9238 23.2514 24.491 23.927 24.2127 24.4295C23.2108 25.9276 21.9091 27.3174 20.2085 28.007C19.4014 28.3981 18.4908 28.3424 17.6235 28.4352C13.0952 28.698 8.5638 28.3749 4.05405 27.9714C3.70774 27.9096 3.30732 27.9297 3.03986 27.6653C3.55932 27.3004 4.21174 27.2772 4.81778 27.1783C4.92137 27.1551 5.12699 27.1072 5.23057 27.084C5.32179 27.0623 5.50113 27.019 5.59234 26.9974C8.7215 26.4748 11.8259 25.8054 14.8994 25.0139C17.69 24.3259 20.4172 23.406 23.1907 22.6515Z" fill="#C12237"/>
</g>
<defs>
<clipPath id="clip0">
<rect width="32" height="32" fill="white"/>
</clipPath>
</defs>
</svg>
