<svg width="32" height="32" viewBox="0 0 32 32" fill="none" xmlns="http://www.w3.org/2000/svg">
<path d="M29.8584 4.67404L21.8552 27.6452H23.3488L31.352 4.67404H29.8584Z" fill="#FF6600"/>
<path d="M15.8273 8.12512L18.4034 4.83173L15.8273 8.12512H15.8314C19.8773 8.58371 22.9865 12.0254 22.9865 16.1473C22.9865 20.5997 19.3639 24.2229 14.9102 24.2229C11.5036 24.2229 8.52116 22.1265 7.34794 18.9658V18.9645L0.548455 27.6484H21.0336L29.0354 4.67661H18.0315L0.0587158 27.6484H0.548455L7.34794 18.9645" fill="#008240"/>
<path fill-rule="evenodd" clip-rule="evenodd" d="M15.8313 8.12513L15.6512 8.3534L15.5082 8.53629L15.473 8.58371L15.3443 8.74357C16.2296 9.18522 17.0113 9.77386 17.6718 10.4729C17.3527 10.7134 17.0059 10.9132 16.6361 11.0609C16.2852 10.2561 15.8503 9.48665 15.3355 8.75983L15.1682 8.97049C15.6512 9.66073 16.061 10.3923 16.3908 11.153C15.9607 11.2986 15.5062 11.3806 15.0374 11.3901V9.13577L14.7794 9.46701V11.3853C14.3282 11.3752 13.8873 11.2952 13.4605 11.1503C13.4544 11.1469 13.2939 11.367 13.2939 11.367L12.8482 11.9354C12.6544 12.4881 12.5007 13.053 12.3855 13.6274C12.1376 13.5807 11.8931 13.5245 11.6513 13.4642L11.4745 13.6904C11.7617 13.7629 12.0462 13.8266 12.3374 13.8815C12.2108 14.5805 12.1437 15.2965 12.1363 16.0172H9.88873L9.89753 15.7043L9.45046 16.2767H9.62997C9.64351 17.2345 9.81557 18.1591 10.1224 19.0234C9.49449 19.2578 8.88282 19.5328 8.29351 19.8525C8.0571 19.4305 7.85931 18.9828 7.70487 18.5086L7.34857 18.9658C8.52111 22.1265 11.5036 24.2229 14.9108 24.2229C19.3638 24.2229 22.9864 20.5997 22.9864 16.1473C22.9864 12.0254 19.878 8.58371 15.8313 8.12513ZM22.4967 16.0172H20.1923C20.1787 15.0669 20.0033 14.1382 19.6897 13.2711C20.3216 13.0388 20.9367 12.7584 21.5294 12.4373C22.1262 13.5021 22.4737 14.7248 22.4967 16.0172ZM14.7794 16.2767H12.3957C12.4031 16.9872 12.4682 17.6842 12.5887 18.367C13.3088 18.2437 14.041 18.1767 14.7794 18.1699V16.2767ZM15.0374 14.1219C15.7751 14.1138 16.5087 14.0461 17.2294 13.9228C17.3527 14.6096 17.4198 15.3073 17.4259 16.0172H15.0374V14.1219ZM17.2335 18.3657C17.3547 17.6815 17.4198 16.9865 17.4259 16.2767H15.0374V18.1686C15.7778 18.174 16.5107 18.2437 17.2335 18.3657ZM12.6362 18.6224C13.342 18.5025 14.0586 18.4354 14.7794 18.4273V20.6471C14.2781 20.662 13.7897 20.7534 13.3284 20.9119C13.0236 20.1756 12.794 19.4075 12.6362 18.6224ZM11.9696 21.6482C12.313 21.3827 12.6843 21.1659 13.0859 21.0054C12.775 20.2501 12.54 19.4698 12.3808 18.6644C11.7264 18.7877 11.0809 18.9624 10.4516 19.1792C10.8079 20.0869 11.32 20.9221 11.9696 21.6482ZM15.0374 18.4273C15.7595 18.4327 16.4782 18.5012 17.1874 18.6197C17.031 19.4048 16.7973 20.1709 16.4958 20.9099C16.0312 20.7494 15.5407 20.6599 15.0374 20.6457V18.4273ZM19.372 19.1751C18.742 18.9597 18.0972 18.785 17.4428 18.661C17.2843 19.4657 17.0472 20.2461 16.7404 21.0007C17.1387 21.1619 17.5126 21.3793 17.8567 21.6462C18.5022 20.9201 19.017 20.0855 19.372 19.1751ZM17.4889 18.4056C17.6128 17.7079 17.6785 16.9994 17.6846 16.2767H19.9342C19.9193 17.2026 19.7547 18.0968 19.458 18.9299C18.8145 18.7091 18.1601 18.5323 17.4889 18.4056ZM17.4855 13.8815C17.6101 14.5805 17.6772 15.2972 17.6846 16.0172H19.9342C19.9193 15.098 19.7499 14.2019 19.4472 13.3606C18.8091 13.5807 18.1547 13.7568 17.4855 13.8815ZM21.4 12.2151C20.8148 12.5301 20.2146 12.8017 19.5969 13.028C19.2318 12.1047 18.7048 11.2471 18.047 10.5014C18.339 10.2521 18.6018 9.97029 18.8307 9.65193C19.882 10.2873 20.7619 11.1706 21.4 12.2151ZM18.6038 9.52187C17.7083 9.01994 16.7004 8.69615 15.6207 8.59726C16.4748 9.04229 17.2315 9.62416 17.875 10.3097C18.1439 10.0773 18.3884 9.81721 18.6038 9.52187ZM17.8479 10.6632C18.486 11.3901 18.9987 12.2192 19.3557 13.1174C18.7298 13.3355 18.0883 13.5035 17.4401 13.6274C17.2816 12.8261 17.0445 12.0498 16.737 11.3C17.1319 11.1388 17.5065 10.9247 17.8479 10.6632ZM17.184 13.6688C17.0269 12.8864 16.7973 12.1237 16.4958 11.3901C16.0312 11.5499 15.5407 11.6387 15.0374 11.6509V13.8618C15.7595 13.8537 16.4782 13.7859 17.184 13.6688ZM13.3339 11.3806C13.8006 11.5438 14.2829 11.6346 14.7794 11.6475V13.8605C14.0593 13.8537 13.344 13.7859 12.6395 13.6688C12.7981 12.8864 13.0277 12.1223 13.3339 11.3806ZM14.7794 14.1219C14.0437 14.1138 13.3135 14.0461 12.5942 13.9255C12.4709 14.611 12.4031 15.3073 12.3957 16.0172H14.7794V14.1219ZM9.88873 16.2767H12.1363C12.1417 17.0008 12.2081 17.712 12.334 18.4104C11.6641 18.5364 11.0084 18.7125 10.369 18.936C10.0689 18.0974 9.90024 17.204 9.88873 16.2767ZM11.7678 21.8115C11.1039 21.065 10.5735 20.2081 10.2098 19.2686C9.59407 19.4962 8.99527 19.7651 8.4195 20.0781C9.06301 21.1456 9.95172 22.0228 10.9983 22.6514C11.2232 22.3378 11.4826 22.0574 11.7678 21.8115ZM11.2232 22.7788C11.4358 22.4909 11.6783 22.2328 11.9432 22.0025C12.5793 22.6792 13.3386 23.2495 14.188 23.6946C13.1259 23.5957 12.1214 23.2753 11.2232 22.7788ZM13.1862 21.2411C12.815 21.3942 12.4648 21.5954 12.1437 21.8393C12.8123 22.541 13.6048 23.129 14.5084 23.5727C13.9828 22.837 13.5384 22.0574 13.1862 21.2411ZM14.7794 23.5042C14.2382 22.7618 13.7877 21.9768 13.4287 21.151C13.8581 21.0054 14.312 20.9201 14.7794 20.9072V23.5042ZM16.3936 21.1497C15.9634 21.0007 15.5062 20.9194 15.0374 20.9065V23.511C15.5827 22.7659 16.0312 21.9768 16.3936 21.1497ZM16.6388 21.2377C17.0086 21.3902 17.3595 21.5913 17.6806 21.8359C17.0134 22.5397 16.2181 23.129 15.3138 23.5747C15.8408 22.8336 16.2818 22.0533 16.6388 21.2377ZM17.8851 22.0018C17.2423 22.6792 16.4843 23.2523 15.6315 23.6973C16.7004 23.5977 17.7036 23.2719 18.6011 22.7727C18.3884 22.4855 18.1473 22.2301 17.8851 22.0018ZM18.8226 22.644C18.6011 22.3331 18.3397 22.0519 18.0558 21.8088C18.721 21.0596 19.2514 20.202 19.6165 19.2646C20.2288 19.4921 20.8256 19.7604 21.4027 20.0727C20.7619 21.1239 19.8753 22.0086 18.8226 22.644ZM19.7005 19.0214C20.3284 19.2517 20.9408 19.5301 21.5294 19.8484C22.1262 18.7877 22.4737 17.5731 22.4967 16.2767H20.1923C20.1787 17.2331 20.0067 18.1577 19.7005 19.0214Z" fill="#FF6600"/>
<path d="M15.7003 17.9536L17.6098 18.8329L16.7069 16.8969L19.1678 16.2927V16.0021L16.7069 15.3871L17.6444 13.4125L15.6908 14.3297L15.0785 10.827H14.7357L14.1349 14.327L12.1854 13.4125L13.1046 15.3945L10.6491 16.0021V16.2893L13.1046 16.8841L12.2132 18.8376L14.1315 17.9658L14.729 21.4672L15.0663 21.4638L15.7003 17.9536Z" fill="white"/>
<path d="M14.9172 11.0211L15.5539 14.5997L17.267 13.7875L16.4575 15.5019L19.0281 16.1454L16.4575 16.7842L17.2399 18.4621L15.5539 17.6946L14.9009 21.2379L14.2696 17.6946L12.5877 18.4641L13.3626 16.7842L10.798 16.1454L13.3626 15.5019L12.5619 13.7875L14.2696 14.5929L14.9172 11.0211Z" fill="#008240"/>
</svg>
