<svg width="32" height="32" viewBox="0 0 32 32" fill="none" xmlns="http://www.w3.org/2000/svg">
<path d="M0.135517 1.67739C0.316206 1.90326 1.31 2.12912 2.39413 2.21946C9.80239 2.85188 15.3134 8.31772 16.0813 15.7712C16.6234 20.9208 14.2745 25.8898 9.75722 28.8711L7.58895 30.3618H19.6048C30.5365 30.3618 32.6596 30.1811 31.2141 29.2777C30.9882 29.1422 28.323 25.7994 25.2513 21.9146C12.1514 5.06532 11.79 4.65877 8.17619 2.94222C5.91757 1.85808 -0.677585 0.81912 0.135517 1.67739Z" fill="black"/>
<path d="M0.632412 3.98187C0.767929 4.38842 0.903446 4.97567 0.903446 5.33704C0.903446 6.28566 2.16827 6.10497 2.71034 5.11118C3.4331 3.66567 3.25241 3.25912 1.76172 3.25912C0.677585 3.25912 0.406551 3.39463 0.632412 3.98187Z" fill="black"/>
<path d="M4.06551 4.79526C4.06551 5.3825 4.38171 6.10526 4.74309 6.42147C5.28516 6.87319 5.46585 6.78285 5.8724 5.74388C6.41447 4.29837 6.14344 3.71113 4.92378 3.71113C4.33654 3.71113 4.06551 4.02733 4.06551 4.79526Z" fill="black"/>
<path d="M6.82102 6.05938C6.18861 7.8211 6.45964 8.09213 7.90516 7.14351C9.26032 6.24007 9.35067 5.698 8.17619 5.06559C7.45343 4.70421 7.22757 4.83972 6.82102 6.05938Z" fill="black"/>
<path d="M2.39413 6.73695C2.07793 6.8273 1.80689 7.32419 1.80689 7.82109C1.80689 8.99557 2.84586 12.7449 3.16206 12.7449C3.29758 12.7449 3.7493 11.7511 4.15585 10.5314C4.78827 8.54385 4.78827 8.18247 4.20103 7.36937C3.52344 6.37558 3.34275 6.3304 2.39413 6.73695Z" fill="black"/>
<path d="M9.57653 6.96228C9.03446 7.50435 8.8086 9.58228 9.26033 9.58228C9.39584 9.58228 9.98308 9.17572 10.48 8.67883C11.3834 7.86573 11.3834 7.68504 10.7962 7.0978C10.2541 6.55573 10.0283 6.51056 9.57653 6.96228Z" fill="black"/>
<path d="M5.10447 11.1643C4.5624 12.5194 4.29137 13.7391 4.47206 13.8294C4.65275 13.9649 5.5562 13.3777 6.45964 12.5194C8.4924 10.6674 8.8086 8.67979 7.04688 8.67979C6.18861 8.67979 5.82723 9.13151 5.10447 11.1643Z" fill="black"/>
<path d="M10.9769 9.5374C9.66688 10.6215 9.66688 10.9377 11.022 10.9377C13.0096 10.9377 13.5969 10.5312 12.9645 9.5374C12.332 8.49844 12.2417 8.49844 10.9769 9.5374Z" fill="black"/>
<path d="M12.7838 11.8863C12.1965 12.1121 11.7448 12.609 11.7448 13.0156C11.7448 13.6028 12.0158 13.6932 12.9645 13.4221C14.5455 13.0608 14.6358 12.9704 14.1389 12.1573C13.8679 11.7056 13.5065 11.6152 12.7838 11.8863Z" fill="black"/>
<path d="M7.00171 13.6489L5.28516 15.4106L7.67929 14.7782C10.0283 14.1458 10.8414 13.5586 10.8414 12.3841C10.8414 11.2096 8.71826 11.8872 7.00171 13.6489Z" fill="black"/>
<path d="M12.9645 14.416C11.79 14.7322 12.2869 15.6357 13.6872 15.8164C14.681 15.9519 14.9069 15.7712 14.9069 15.0484C14.9069 14.0998 14.5455 14.0095 12.9645 14.416Z" fill="black"/>
<path d="M7.90516 15.8162L5.64654 16.4938L7.45343 17.081C9.89274 17.849 11.0672 17.849 11.6996 17.081C12.061 16.6293 12.061 16.3583 11.6545 16.0421C10.5252 15.1838 10.1186 15.1386 7.90516 15.8162Z" fill="black"/>
<path d="M12.5127 17.5779C11.9255 18.12 12.1965 18.5266 13.4162 18.7976C14.5003 19.1138 15.3134 18.5717 15.3586 17.5779C15.3586 17.1714 12.9193 17.1714 12.5127 17.5779Z" fill="black"/>
<path d="M5.8724 17.9848C5.91757 18.2107 6.6855 19.2497 7.67929 20.3338C9.16998 22.0052 9.57653 22.231 10.3445 21.8245C11.8351 21.0114 10.751 18.8883 8.67309 18.4817C7.9955 18.3462 7.09205 18.0752 6.6855 17.9397C6.23378 17.759 5.8724 17.8042 5.8724 17.9848Z" fill="black"/>
<path d="M4.96896 20.063C4.96896 20.3792 5.23999 21.644 5.5562 22.9089C6.05309 24.8513 6.32412 25.1675 7.27274 25.1675C8.94412 25.1675 8.94412 23.4961 7.22757 21.3278C5.78206 19.5209 4.96896 19.0692 4.96896 20.063Z" fill="black"/>
<path d="M12.061 20.4246C12.332 21.4183 13.6872 22.367 14.1841 21.9152C14.8165 21.2828 14.41 20.0632 13.4614 19.7921C11.9255 19.3856 11.79 19.4308 12.061 20.4246Z" fill="black"/>
<path d="M10.8865 22.6378C10.3445 22.9992 10.4348 23.2702 11.2027 24.2188L12.1062 25.4385L12.8289 24.3995C13.5065 23.4509 13.5065 23.3154 12.7838 22.8185C11.8803 22.1409 11.6996 22.0957 10.8865 22.6378Z" fill="black"/>
<path d="M9.39584 24.8507C9.26033 25.3476 9.39584 26.1607 9.71205 26.7028C10.1638 27.6062 10.2993 27.6514 10.7962 27.019C11.2931 26.4317 11.2931 26.1155 10.6607 25.1669C9.75722 23.8117 9.66688 23.8117 9.39584 24.8507Z" fill="black"/>
<path d="M6.86619 27.8319C7.31792 29.1871 7.45343 29.3226 8.17619 28.8709C8.67308 28.5547 9.03446 28.1029 9.03446 27.8771C9.03446 27.1091 8.04067 26.296 7.1824 26.296C6.50481 26.296 6.45964 26.5219 6.86619 27.8319Z" fill="black"/>
</svg>
