<svg width="32" height="32" viewBox="0 0 32 32" fill="none" xmlns="http://www.w3.org/2000/svg">
<g clip-path="url(#clip0)">
<path d="M14.7495 21.2822C8.06257 11.6354 7.00289 -2.10388 13.9822 0.271266C20.998 2.68295 30.9005 9.84494 14.7495 21.2822Z" fill="#00ACE7"/>
<path d="M14.7495 21.2822C8.13565 25.6671 -0.889907 26.0325 0.133233 22.013C1.19291 17.7743 5.50472 11.2335 14.7495 21.2822Z" fill="#13529F"/>
<path d="M15.2245 22.0495C17.3074 25.5939 22.3865 27.019 26.2598 23.2553C31.5217 18.1396 39.2318 6.99469 15.2245 22.0495Z" fill="#66C9EF"/>
<path d="M15.2246 22.0496C10.0358 25.5209 5.87014 31.1117 8.39146 31.0751C10.9493 31.002 17.1247 27.5672 15.2246 22.0496Z" fill="#647EBD"/>
</g>
<defs>
<clipPath id="clip0">
<rect width="32" height="32" fill="white"/>
</clipPath>
</defs>
</svg>
