<svg width="32" height="32" viewBox="0 0 32 32" fill="none" xmlns="http://www.w3.org/2000/svg">
<rect x="0.015213" width="31.9696" height="32" fill="#3270AE"/>
<path d="M31.374 14.95C31.374 14.95 31.374 14.6898 31.1903 14.506C31.1903 14.506 31.0219 14.3376 30.7617 14.3376C30.7617 14.3376 30.5014 14.3376 30.3177 14.506C30.3177 14.506 30.134 14.6898 30.134 14.95C30.134 14.95 30.134 15.1949 30.3177 15.3939C30.3177 15.3939 30.5014 15.5623 30.7617 15.5623C30.7617 15.5623 31.0219 15.5623 31.1903 15.3939C31.1903 15.3939 31.374 15.1949 31.374 14.95Z" fill="#F79234"/>
<path d="M1.27769 13.4039V13.9703H0.604111V14.2918H1.27769V17.675H1.84411V14.2918H2.71669V13.9703H1.84411V13.4652C1.84411 13.4652 1.84411 12.9141 2.80855 12.9141L3.574 13.0212C3.574 13.0212 3.81892 13.1896 3.81892 13.7101V17.675H4.38534L4.36998 12.6385H3.80356L3.39024 12.5926L2.79322 12.5466C2.79322 12.5466 2.2421 12.5466 1.81348 12.7456C1.81348 12.7457 1.27769 12.9753 1.27769 13.4039Z" fill="#F79234"/>
<path d="M8.15115 13.9702V16.7563C8.15115 16.7563 8.15115 17.384 6.98771 17.384C6.98771 17.384 5.85488 17.384 5.85488 16.7563V13.9702H5.25786V16.7869C5.25786 16.7869 5.25786 17.782 6.89585 17.782L8.12052 17.5983V18.8536H8.70224V13.9702H8.15115Z" fill="#F79234"/>
<path fill-rule="evenodd" clip-rule="evenodd" d="M24.8832 15.4398C26.2763 14.95 29.1696 14.95 29.1696 14.95H29.4604L29.3533 15.2255C29.2462 15.5776 29.2462 15.9603 29.2462 15.9603L29.2615 17.6748H28.2358V15.4092L27.3938 15.4705V17.4452L26.5825 17.6136L25.5262 17.7667C23.6892 17.7667 23.6892 16.6032 23.6892 16.6032C23.6892 15.8685 24.8832 15.4398 24.8832 15.4398ZM26.3988 16.4961V15.6082C25.6707 15.6386 25.2131 15.8793 25.2048 15.8837C25.2047 15.8837 25.2047 15.8838 25.2047 15.8838C24.6842 16.1593 24.6842 16.6032 24.6842 16.6032C24.6842 17.1543 25.5568 17.1543 25.5568 17.1543C25.8476 17.1543 26.0773 17.0319 26.0773 17.0319C26.3988 16.8635 26.3988 16.4961 26.3988 16.4961Z" fill="white"/>
<path d="M29.2461 13.9702H28.2358V14.5825H29.2461V13.9702Z" fill="white"/>
<path d="M27.3479 14.6131C27.3479 14.6131 27.1642 13.8477 25.5721 13.8477L24.4087 14.0314L23.9035 14.1997V14.9039L24.3322 14.6896C24.3322 14.6896 24.8986 14.46 25.5875 14.46C25.5875 14.46 26.1079 14.46 26.2763 14.6896L27.3479 14.6131Z" fill="white"/>
<path fill-rule="evenodd" clip-rule="evenodd" d="M19.1579 17.4453V12.7456H20.1835V14.108C20.7499 13.8784 21.301 13.8784 21.301 13.8784C22.342 13.8784 22.7553 14.3223 22.7553 14.3223C23.1533 14.751 23.1533 15.8226 23.1533 15.8226C23.1533 16.8635 22.6635 17.3228 22.6635 17.3228C22.1889 17.782 21.102 17.782 21.102 17.782L19.9692 17.6137L19.1579 17.4453ZM21.944 14.8429C21.7297 14.5214 21.1327 14.5214 21.1327 14.5214C20.74 14.5214 20.4964 14.6852 20.4898 14.6897C20.4897 14.6897 20.4897 14.6898 20.4897 14.6898C20.2294 14.8582 20.2141 15.149 20.2141 15.149V16.5114C20.2294 16.8023 20.505 16.9707 20.505 16.9707C20.75 17.1238 21.1021 17.1238 21.1021 17.1238C21.745 17.1238 21.9593 16.8177 21.9593 16.8177C22.143 16.5574 22.143 15.8226 22.143 15.8226C22.143 15.1184 21.944 14.8429 21.944 14.8429Z" fill="white"/>
<path d="M17.3056 13.9702V16.542C17.3056 16.542 17.3056 17.1697 16.4483 17.1697C16.4483 17.1697 15.591 17.1697 15.591 16.542V13.9702H14.5807V16.7869C14.5807 16.7869 14.5807 17.782 16.3411 17.782L17.5046 17.6289L18.1935 17.4606L18.3159 17.4452V13.9702H17.3056Z" fill="white"/>
<path fill-rule="evenodd" clip-rule="evenodd" d="M12.6977 14.1081V12.7456H13.7234V17.4453L12.8968 17.6137L11.7639 17.7821C10.7077 17.7821 10.2025 17.3229 10.2025 17.3229C9.71262 16.8636 9.71262 15.8226 9.71262 15.8226C9.71262 14.751 10.1106 14.3224 10.1106 14.3224C10.5239 13.8784 11.5649 13.8784 11.5649 13.8784C12.116 13.8784 12.6977 14.1081 12.6977 14.1081ZM12.3763 14.6898C12.1314 14.5214 11.7333 14.5214 11.7333 14.5214C11.1363 14.5214 10.922 14.8429 10.922 14.8429C10.723 15.1184 10.723 15.8226 10.723 15.8226C10.723 16.5574 10.9067 16.8177 10.9067 16.8177C11.121 17.1238 11.764 17.1238 11.764 17.1238C12.1161 17.1238 12.361 16.9707 12.361 16.9707C12.6365 16.8024 12.6671 16.5115 12.6671 16.5115V15.149C12.6365 14.8582 12.3763 14.6898 12.3763 14.6898Z" fill="white"/>
</svg>
