<svg width="32" height="32" viewBox="0 0 32 32" fill="none" xmlns="http://www.w3.org/2000/svg">
<path d="M26.1389 14.6587L27.4333 16.0852L28.6794 14.6587H31.3402L28.7398 17.5829L31.3759 20.531H28.6077L27.3255 19.0933L26.0551 20.531H23.3821L25.9951 17.5951L23.3821 14.6587H26.1389Z" fill="#FF5900"/>
<path d="M23.3821 14.6587V16.6429H20.4226V18.4635H23.3821V20.5311H18.2477V11.2808H23.3821V13.3427H20.4226V14.6587H23.3821Z" fill="#FF5900"/>
<path fill-rule="evenodd" clip-rule="evenodd" d="M16.0819 11.2808V15.0664H16.058C15.5782 14.5153 14.9793 14.3236 14.2843 14.3236C12.8604 14.3236 11.7877 15.292 11.4113 16.5716C10.9815 15.1616 9.87404 14.2971 8.23199 14.2971C6.89853 14.2971 5.84541 14.8956 5.29603 15.8709V14.6587H2.53957V13.3427H5.54768V11.2808H0.0825806V20.5311H2.53957V16.6429H4.98874C4.91572 16.9284 4.8766 17.2344 4.8766 17.5573C4.8766 19.4867 6.35089 20.841 8.23199 20.841C9.81406 20.841 10.8567 20.0982 11.4079 18.7443H9.30206C9.01737 19.1516 8.80136 19.272 8.23199 19.272C7.57178 19.272 7.0024 18.6961 7.0024 18.0133H11.2901C11.4761 19.5458 12.67 20.8675 14.3082 20.8675C15.0149 20.8675 15.6621 20.5198 16.0576 19.933H16.0815V20.532H18.2473V11.2808H16.0819ZM7.07108 16.6702C7.20755 16.0826 7.66348 15.6988 8.23242 15.6988C8.85873 15.6988 9.29119 16.0709 9.40507 16.6702H7.07108ZM13.4724 17.6021C13.4724 18.3788 13.9687 19.1229 14.7672 19.1229C15.6408 19.1229 16.0185 18.3892 16.0185 17.6021C16.0185 16.7719 15.6621 15.9735 14.7672 15.9735C13.904 15.9735 13.4724 16.7719 13.4724 17.6021Z" fill="#2A007C"/>
</svg>
