<svg width="32" height="32" viewBox="0 0 32 32" fill="none" xmlns="http://www.w3.org/2000/svg">
<path fill-rule="evenodd" clip-rule="evenodd" d="M16.462 0.222168H15.7423C14.8841 0.291004 14.0581 0.564924 13.279 0.92247C12.2203 1.3992 11.2524 2.16066 10.7128 3.20684C10.1149 4.33808 10.0577 5.67241 10.2426 6.91628C10.4937 8.55184 11.1121 10.1041 11.8338 11.5834C12.973 13.8764 14.3946 16.0174 15.9121 18.075C18.1197 21.0483 20.5474 23.8535 23.0926 26.5412C23.7764 27.2563 24.4625 27.9703 25.1793 28.653C25.2103 25.4299 25.0658 22.2052 24.7868 18.9938C24.5075 15.9426 24.0956 12.8959 23.3785 9.9149C22.8395 7.73491 22.1588 5.55863 21.0179 3.61104C20.298 2.40556 19.3522 1.26267 18.0611 0.647697C17.5602 0.407057 17.0143 0.271092 16.462 0.222168ZM12.2749 3.67987C12.6783 3.08112 13.2847 2.6499 13.9307 2.34441C14.8236 1.9166 15.8476 1.65093 16.8326 1.87991C17.852 2.09751 18.6892 2.79639 19.3263 3.59227C20.0747 4.54515 20.6066 5.64738 21.0438 6.77179C21.9429 9.12613 22.4512 11.609 22.846 14.092C23.3495 17.3796 23.6063 20.7007 23.7193 24.0231C23.7191 24.1477 23.7225 24.2724 23.726 24.397C23.7327 24.6396 23.7394 24.882 23.7193 25.1241C23.4549 24.9078 23.2268 24.6545 22.9986 24.401C22.8495 24.2353 22.7003 24.0696 22.5408 23.9141C21.0651 22.3096 19.6329 20.6629 18.2801 18.9537C16.8377 17.1426 15.4752 15.2642 14.2729 13.2839C13.5583 12.0892 12.8964 10.8573 12.3881 9.55877C11.9475 8.44944 11.621 7.27667 11.598 6.0766C11.596 5.23806 11.7817 4.37307 12.2749 3.67987Z" fill="#F06519"/>
<path fill-rule="evenodd" clip-rule="evenodd" d="M11.0459 20.892C9.97323 20.5563 8.79648 20.3604 7.6971 20.6869C6.84946 20.9347 6.15086 21.5613 5.7222 22.3225C5.35641 22.9812 5.07566 23.702 5 24.4564V25.0597C5.09358 26.2011 5.84565 27.1634 6.73966 27.8222C8.09049 28.816 9.69902 29.3772 11.299 29.8272C14.187 30.6046 17.1694 30.9636 20.147 31.184C21.8326 31.2998 23.5225 31.374 25.2115 31.3652C24.3175 30.4143 23.3637 29.5232 22.4097 28.6326C20.0775 26.5004 17.6359 24.4663 14.953 22.787C13.7182 22.0298 12.4291 21.3363 11.0459 20.892ZM6.60711 23.0236C6.88644 22.4948 7.3242 22.042 7.87716 21.8014C8.61017 21.4762 9.44644 21.5158 10.2153 21.6773C11.3039 21.9112 12.319 22.3907 13.297 22.9107C14.9883 23.834 16.5519 24.9712 18.06 26.1656C19.2811 27.1427 20.4652 28.1661 21.6076 29.2345C21.6551 29.2782 21.7027 29.3219 21.7504 29.3657C22.0788 29.6668 22.4085 29.9692 22.6981 30.3082C21.6124 30.3099 20.5287 30.2348 19.4469 30.1578C17.5895 30.0138 15.7364 29.7971 13.9045 29.4577C12.1111 29.1116 10.3143 28.6727 8.66677 27.8649C8.01568 27.5312 7.38137 27.1344 6.88558 26.5894C6.41454 26.0894 6.10649 25.4172 6.11815 24.7237C6.11957 24.1241 6.33291 23.5481 6.60711 23.0236Z" fill="#F06519"/>
<path fill-rule="evenodd" clip-rule="evenodd" d="M16.8326 1.87981C15.847 1.65083 14.8236 1.91678 13.9307 2.3443C13.2847 2.64923 12.6786 3.08102 12.275 3.67977C11.7817 4.37296 11.5963 5.23796 11.598 6.0765C11.621 7.27686 11.9478 8.44962 12.3884 9.55867C12.8965 10.8574 13.5584 12.0894 14.2729 13.2838C15.4752 15.2641 16.8374 17.1428 18.2801 18.9536C19.6327 20.6628 21.0651 22.3095 22.5408 23.914C22.7002 24.0694 22.8494 24.2351 22.9985 24.4007C23.2269 24.6542 23.4551 24.9076 23.7196 25.124C23.7394 24.883 23.7328 24.6417 23.7262 24.4003C23.7227 24.2745 23.7193 24.1488 23.7196 24.023C23.6064 20.7006 23.3498 17.3795 22.846 14.0919C22.4512 11.6089 21.9429 9.12603 21.0438 6.77168C20.6066 5.64727 20.0744 4.54505 19.3263 3.59216C18.6889 2.79629 17.8521 2.09741 16.8326 1.87981ZM13.3149 5.22686C13.5655 4.5203 14.1804 3.99579 14.8688 3.73353C15.5185 3.4471 16.2865 3.38196 16.9461 3.6738C17.7656 4.03277 18.3524 4.75497 18.8149 5.4968C19.5596 6.73271 20.0354 8.10715 20.4305 9.48841C21.1479 12.0561 21.5655 14.6974 21.8701 17.3433C21.8797 17.4341 21.8893 17.5248 21.8989 17.6156C22.0199 18.7564 22.1411 19.899 22.1787 21.0462C21.0996 19.9085 20.0983 18.6993 19.109 17.4833C17.7121 15.7391 16.384 13.9337 15.2326 12.0157C14.4601 10.7004 13.7407 9.3314 13.3445 7.85086C13.126 6.99895 13.0082 6.07138 13.3149 5.22686Z" fill="#F79515"/>
<path fill-rule="evenodd" clip-rule="evenodd" d="M10.215 21.6766C9.44643 21.5156 8.61016 21.4761 7.87715 21.8012C7.32419 22.0415 6.88643 22.4944 6.60682 23.0229C6.33233 23.5474 6.119 24.1237 6.11786 24.7224C6.10648 25.4159 6.41453 26.088 6.88529 26.5881C7.38108 27.1337 8.01539 27.5296 8.66648 27.8635C10.314 28.6719 12.1108 29.1103 13.9042 29.457C15.7361 29.7963 17.5892 30.0131 19.4466 30.157C20.5287 30.2341 21.6124 30.3086 22.6978 30.3075C22.4079 29.9676 22.0778 29.6651 21.749 29.3638C21.7017 29.3205 21.6544 29.2771 21.6073 29.2337C20.4652 28.1648 19.2808 27.1422 18.0597 26.1643C16.5516 24.9699 14.988 23.8327 13.2967 22.9094C12.3187 22.39 11.3038 21.9098 10.215 21.6766ZM7.63935 23.602C7.83277 23.2567 8.13941 22.9722 8.51032 22.8255C9.01237 22.6266 9.57045 22.6505 10.0921 22.7458C10.8297 22.8886 11.5328 23.1699 12.2072 23.4959C13.8923 24.3214 15.4368 25.4042 16.9256 26.5397C17.7414 27.1638 18.5353 27.8166 19.3115 28.4888C19.352 28.5243 19.393 28.5594 19.434 28.5945C19.5833 28.7222 19.7327 28.8502 19.8599 29.001C18.2887 28.9527 16.7222 28.7766 15.1658 28.5604C13.8658 28.3676 12.5696 28.1269 11.3053 27.7626C10.3148 27.4707 9.32412 27.1197 8.46453 26.5363C8.00629 26.2126 7.57251 25.7948 7.39302 25.2481C7.21809 24.696 7.36458 24.0958 7.63935 23.602Z" fill="#F79515"/>
<path d="M14.8688 3.73364C15.5185 3.44664 16.2862 3.38207 16.9464 3.67334C17.7659 4.03231 18.3527 4.75451 18.8152 5.49634C19.5596 6.73226 20.0357 8.10669 20.4308 9.48795C21.1479 12.0556 21.5655 14.697 21.8704 17.3429C22.0004 18.5742 22.1383 19.8082 22.1793 21.0458C21.0998 19.908 20.0986 18.6991 19.1093 17.4828C17.7121 15.7386 16.384 13.9333 15.2329 12.0152C14.4603 10.7 13.741 9.33094 13.3447 7.85041C13.1257 6.99878 13.008 6.07092 13.3152 5.22641C13.5655 4.52042 14.1801 3.9959 14.8688 3.73364Z" fill="#FFCF02"/>
<path d="M8.51031 22.8255C9.01264 22.6267 9.57072 22.6506 10.0924 22.7468C10.83 22.8895 11.5328 23.1706 12.2075 23.4968C13.8926 24.3223 15.4371 25.4052 16.9259 26.5401C17.7417 27.1639 18.5353 27.8167 19.3118 28.4891C19.4998 28.6541 19.6978 28.8097 19.8602 29.0014C18.2892 28.953 16.7225 28.777 15.166 28.5614C13.8661 28.3685 12.5699 28.1282 11.3055 27.7629C10.3154 27.4719 9.32468 27.1201 8.4648 26.5373C8.00685 26.2127 7.57278 25.7957 7.3933 25.249C7.21837 24.6969 7.36429 24.0962 7.63963 23.6029C7.83277 23.2562 8.1394 22.9717 8.51031 22.8255Z" fill="#FFCF02"/>
</svg>
