<svg width="32" height="32" viewBox="0 0 32 32" fill="none" xmlns="http://www.w3.org/2000/svg">
<path fill-rule="evenodd" clip-rule="evenodd" d="M11.7032 14.0209C12.2643 14.0705 12.8221 14.3337 13.15 14.8027C13.4532 15.2223 13.5429 15.7669 13.4575 16.2716C13.3582 16.9019 13.0018 17.4859 12.4907 17.8669C11.9589 18.2691 11.2596 18.4355 10.6029 18.3284C10.1321 18.2559 9.6775 18.0198 9.38357 17.6398C9.13286 17.3237 8.9975 16.9209 8.99857 16.518C8.97715 15.7827 9.32714 15.0562 9.89 14.5884C10.2832 14.2569 10.7825 14.0616 11.2943 14.0209H11.7032ZM10.3789 16.998C10.675 17.3687 11.2525 17.3934 11.6414 17.1616C12.045 16.9198 12.2904 16.4523 12.2961 15.9862C12.3 15.7209 12.2061 15.4434 12 15.268C11.79 15.0898 11.4979 15.038 11.2307 15.0755C10.7843 15.1391 10.4289 15.5002 10.2775 15.9116C10.1446 16.2605 10.14 16.693 10.3789 16.998Z" fill="#2D785F"/>
<path d="M18.6757 15.1202C18.7067 15.0078 18.7362 14.8949 18.7657 14.7819C18.8258 14.552 18.8859 14.3218 18.9582 14.0962C19.719 14.0904 20.48 14.0913 21.241 14.0922C21.7008 14.0927 22.1606 14.0932 22.6204 14.0923C22.5636 14.318 22.5036 14.5428 22.4435 14.7676L22.4432 14.7689C22.412 14.8858 22.3808 15.0028 22.35 15.1198C22.205 15.1204 22.0599 15.1198 21.9148 15.1191C21.6445 15.1179 21.3739 15.1168 21.1039 15.1237C21.0295 15.3571 20.9677 15.5951 20.9057 15.8331C20.8678 15.9791 20.8298 16.1252 20.7889 16.2702C20.6943 16.6226 20.5999 16.9752 20.5055 17.3278L20.2507 18.2787C20.1293 18.2785 20.0079 18.279 19.8865 18.2796C19.6161 18.2808 19.3458 18.2819 19.0757 18.2748C19.2181 17.7502 19.3596 17.2254 19.501 16.7005L19.5018 16.6977C19.6435 16.1719 19.7852 15.6461 19.9279 15.1205C19.5104 15.1177 19.0929 15.1187 18.6757 15.1202Z" fill="#2D785F"/>
<path d="M14.8841 14.0924C14.7575 14.0928 14.6309 14.0931 14.5043 14.0928C14.3287 14.7515 14.1516 15.4098 13.9745 16.0682C13.7765 16.8047 13.5782 17.5418 13.3821 18.2788C13.5143 18.2781 13.6466 18.279 13.7788 18.2798C14.0329 18.2815 14.2869 18.2831 14.5404 18.2735C14.6589 17.8611 14.7689 17.4459 14.8789 17.0307C14.9787 16.6542 15.0785 16.2776 15.1846 15.9031C15.3883 16.3137 15.5816 16.7296 15.7749 17.1455C15.9516 17.5259 16.1285 17.9064 16.3132 18.2828C16.4733 18.2779 16.6334 18.2789 16.7935 18.2799C16.9709 18.2811 17.1485 18.2822 17.3257 18.2753C17.4224 17.9532 17.5084 17.6274 17.5944 17.3017C17.6478 17.0993 17.7012 16.897 17.7571 16.6956C17.8485 16.3517 17.9412 16.0082 18.0339 15.6646L18.0343 15.6629C18.1755 15.1397 18.3166 14.6164 18.4532 14.0921C18.2827 14.0927 18.1122 14.0926 17.9417 14.0924C17.7248 14.0923 17.5079 14.0921 17.2911 14.0935C17.1968 14.4506 17.1002 14.8071 17.0036 15.1637C16.907 15.5202 16.8104 15.8767 16.7161 16.2338C16.7028 16.2824 16.6846 16.3291 16.6664 16.3757L16.6607 16.3903C16.4999 16.0375 16.3358 15.6863 16.1718 15.3352C15.979 14.9227 15.7863 14.5102 15.5989 14.0953C15.3606 14.0911 15.1224 14.0917 14.8841 14.0924Z" fill="#2D785F"/>
<path d="M1.64464 14.0921C1.48214 14.0913 1.30679 14.1228 1.18643 14.241C1.02697 14.4001 0.967942 14.6235 0.911901 14.8356L0.899285 14.8831C0.884413 14.9451 0.867086 15.0064 0.849767 15.0678C0.816763 15.1846 0.783784 15.3014 0.767857 15.4221C0.932142 15.3499 1.10429 15.2863 1.28643 15.2892C1.82358 15.2888 2.36073 15.2888 2.89781 15.2889C3.30055 15.2889 3.70344 15.289 4.10607 15.2888C4.4375 15.2878 4.71429 15.0131 4.79536 14.7049C4.81164 14.6425 4.82869 14.5803 4.84574 14.5181C4.88442 14.3769 4.92311 14.2357 4.95286 14.0924L4.1257 14.0925C3.29858 14.0925 2.47151 14.0926 1.64464 14.0921Z" fill="#2D785F"/>
<path d="M23.8666 14.0922C23.6168 14.092 23.367 14.0917 23.1171 14.0937C22.9311 14.7945 22.7428 15.4945 22.5544 16.1944L22.5538 16.1968C22.3671 16.8906 22.1805 17.5843 21.9961 18.2787C22.1202 18.2785 22.2444 18.279 22.3686 18.2796C22.6348 18.2807 22.9013 18.2818 23.1675 18.2755C23.3906 17.4314 23.6175 16.5884 23.8444 15.7454L23.8454 15.7418C23.9933 15.1921 24.1413 14.6423 24.2882 14.0923C24.1477 14.0926 24.0072 14.0924 23.8666 14.0922Z" fill="#2D785F"/>
<path d="M24.7839 14.0927C25.9043 14.0923 27.0246 14.0923 28.145 14.0927C28.1134 14.2092 28.0815 14.3257 28.0496 14.4422C27.9913 14.6548 27.9329 14.868 27.8764 15.0812C27.4849 15.0847 27.0934 15.0841 26.7019 15.0836C26.3605 15.0831 26.0192 15.0827 25.6779 15.0848C25.6631 15.1388 25.6481 15.1927 25.6331 15.2466L25.6328 15.2477C25.5903 15.4008 25.5477 15.5539 25.51 15.7084C25.7704 15.708 26.0308 15.7082 26.2912 15.7083C26.6937 15.7086 27.0961 15.7089 27.4986 15.707C27.4462 15.9139 27.3906 16.1202 27.3351 16.3265C27.3073 16.4296 27.2795 16.5327 27.2521 16.6359C26.5871 16.6377 25.9225 16.637 25.2579 16.6362C25.236 16.7196 25.2133 16.8027 25.1906 16.8858C25.1541 17.0197 25.1176 17.1536 25.0843 17.2884L25.6789 17.2886C26.2239 17.2889 26.7689 17.2892 27.3139 17.2873C27.2788 17.4099 27.2473 17.534 27.2159 17.6581C27.163 17.8667 27.1102 18.0753 27.0396 18.2766C26.316 18.2812 25.5922 18.2805 24.8684 18.2798C24.4663 18.2794 24.064 18.279 23.6618 18.2795C23.8593 17.5355 24.0593 16.7922 24.2593 16.0489L24.2602 16.0458C24.4353 15.3949 24.6105 14.744 24.7839 14.0927Z" fill="#2D785F"/>
<path fill-rule="evenodd" clip-rule="evenodd" d="M8.78357 15.1588C8.74107 14.8431 8.56071 14.5442 8.28714 14.3763C7.91679 14.1424 7.46536 14.0978 7.0375 14.092C6.82571 14.0935 6.61392 14.0929 6.40216 14.0923C6.08755 14.0914 5.773 14.0906 5.45857 14.0963C5.43736 14.1491 5.42335 14.2042 5.40938 14.2592C5.40547 14.2746 5.40156 14.29 5.3975 14.3053C5.25002 14.8592 5.10092 15.4128 4.95181 15.9663C4.74425 16.7369 4.53643 17.5085 4.33321 18.2803C4.48815 18.278 4.64314 18.279 4.79812 18.28C5.03326 18.2815 5.26836 18.283 5.50321 18.2731C5.62321 17.8592 5.73321 17.4413 5.83929 17.0235C5.96856 17.0072 6.09865 17.0099 6.22863 17.0126C6.26959 17.0134 6.31053 17.0143 6.35143 17.0145C6.43385 17.2094 6.51932 17.403 6.60478 17.5965C6.70444 17.8222 6.80415 18.048 6.89893 18.2756C7.23267 18.2823 7.56642 18.2807 7.90017 18.2792C7.99678 18.2788 8.09339 18.2784 8.19 18.2781C8.07969 18.0249 7.96423 17.774 7.84877 17.5232C7.74928 17.307 7.64977 17.0908 7.55357 16.8731C7.90107 16.771 8.24536 16.607 8.48071 16.3231C8.75 16.0056 8.84429 15.5653 8.78357 15.1588ZM7.45393 15.8685C7.27964 16.042 7.02357 16.0899 6.78714 16.0999C6.63991 16.1022 6.49253 16.1017 6.34519 16.1012C6.25988 16.101 6.17453 16.1007 6.08929 16.101C6.1369 15.9115 6.18908 15.7232 6.24127 15.5349C6.28027 15.3942 6.31931 15.2533 6.35643 15.112C6.51136 15.1101 6.66647 15.11 6.82163 15.1099C6.89214 15.1098 6.96269 15.1098 7.03321 15.1095C7.19143 15.112 7.365 15.1353 7.48714 15.2453C7.655 15.4142 7.6225 15.712 7.45393 15.8685Z" fill="#2D785F"/>
<path fill-rule="evenodd" clip-rule="evenodd" d="M31.535 14.4177C31.8368 14.632 32.0061 15.0098 31.9643 15.3781C32.0132 15.8223 31.7993 16.2713 31.4439 16.5359C31.2393 16.7002 30.9911 16.7906 30.7468 16.8759C30.8575 17.1427 30.9793 17.405 31.1011 17.6673C31.1953 17.8702 31.2895 18.0731 31.3786 18.2781C30.9668 18.2809 30.5546 18.2802 30.1429 18.2791C30.0938 18.2897 30.0755 18.2468 30.0594 18.209C30.0553 18.1995 30.0514 18.1903 30.0471 18.1823C29.9458 17.9483 29.8434 17.7148 29.741 17.4814C29.6793 17.3407 29.6172 17.1992 29.5557 17.0584C29.5473 17.0119 29.5045 17.0122 29.4652 17.0125C29.4528 17.0126 29.4408 17.0126 29.4304 17.0113C29.3612 17.0107 29.292 17.0113 29.2229 17.0119C29.1596 17.0125 29.0964 17.013 29.0332 17.0127C28.989 17.1758 28.9452 17.3391 28.9015 17.5024C28.832 17.7619 28.7623 18.0222 28.6907 18.2809C28.4675 18.2793 28.2443 18.2795 28.0211 18.2797C27.8538 18.2799 27.6864 18.2801 27.5189 18.2795C27.7236 17.5077 27.9311 16.7367 28.1386 15.9656L28.1394 15.9626C28.3071 15.3395 28.4749 14.7162 28.6411 14.0927C29.1893 14.0923 29.7375 14.092 30.2861 14.0927C30.7175 14.1031 31.1746 14.1595 31.535 14.4177ZM29.9982 16.0988C30.2325 16.0859 30.4871 16.0323 30.6543 15.8541C30.8118 15.6934 30.8364 15.4038 30.6696 15.2409C30.5457 15.1334 30.3725 15.112 30.215 15.1095C30.1335 15.1103 30.0521 15.1101 29.9706 15.1098C29.8271 15.1095 29.6838 15.1091 29.5407 15.1141C29.4996 15.2793 29.454 15.4432 29.4084 15.6072C29.3628 15.7711 29.3171 15.935 29.2761 16.1002C29.3488 16.1002 29.4216 16.1006 29.4944 16.101C29.6623 16.102 29.8303 16.103 29.9982 16.0988Z" fill="#2D785F"/>
<path d="M0.768213 15.7562C0.86857 15.6394 1.025 15.5912 1.17536 15.5923C2.25178 15.5923 3.32821 15.5923 4.405 15.5927C4.39242 15.6412 4.38046 15.6903 4.36846 15.7397C4.30276 16.0096 4.23566 16.2852 4.0575 16.5044C3.93107 16.6612 3.74071 16.7777 3.53536 16.7798C3.20225 16.7805 2.86914 16.7801 2.53604 16.7797C2.00307 16.7792 1.47011 16.7786 0.937142 16.7823C0.73607 16.7787 0.544999 16.8412 0.361427 16.9155C0.385749 16.7904 0.419836 16.6679 0.453944 16.5453C0.472425 16.4789 0.490913 16.4124 0.507856 16.3455L0.517103 16.3131C0.572969 16.1167 0.63114 15.9123 0.768213 15.7562Z" fill="#2D785F"/>
<path d="M0.858571 17.0838C0.668214 17.0813 0.459643 17.127 0.338214 17.2863C0.198003 17.4687 0.142682 17.6894 0.0875249 17.9096C0.061336 18.0141 0.0351842 18.1184 0 18.2185V18.2785C0.475714 18.2802 0.951786 18.281 1.42786 18.2788C1.69679 18.2788 1.93571 18.0974 2.05536 17.8642C2.14659 17.6806 2.19508 17.4812 2.24339 17.2825C2.25939 17.2167 2.27536 17.151 2.29286 17.086C1.95954 17.0825 1.62622 17.083 1.29303 17.0835C1.14818 17.0837 1.00336 17.0839 0.858571 17.0838Z" fill="#2D785F"/>
</svg>
