<svg width="32" height="32" viewBox="0 0 32 32" fill="none" xmlns="http://www.w3.org/2000/svg">
<g clip-path="url(#clip0)">
<path fill-rule="evenodd" clip-rule="evenodd" d="M0.0937956 22.9191C0.336132 23.034 0.723108 23.4877 1.02621 23.7634C3.36069 25.8853 5.51741 26.9821 7.98963 26.9824C10.8853 26.9826 14.5334 24.4651 17.5206 21.4692C21.3751 17.6037 24.7035 13.1001 27.7109 13.0505C29.7256 13.0174 31.4091 15.4968 32 17.2489C31.5568 16.9355 31.106 16.754 30.6239 16.7869C28.8692 16.9067 25.7195 21.4475 21.6279 25.2691C18.483 28.2067 14.7274 30.55 10.9294 30.55C6.85157 30.55 3.19604 27.4909 0.643282 23.9033C0.420962 23.5906 -0.243617 22.7592 0.0937956 22.9191ZM6.59899 2.0577C6.56325 2.22593 6.32568 2.5369 6.19295 2.76803C5.17071 4.54755 5.13282 5.97726 5.68517 7.47203C6.34832 9.26656 8.3971 10.6724 10.9734 11.9335C14.3781 13.6003 17.5387 15.1317 17.9049 17.0459C18.1475 18.314 17.1872 20.3028 15.7689 20.9437C15.9031 20.6199 15.9295 20.3173 15.845 20.0185C15.4106 18.4846 12.0229 17.186 8.78169 15.2494C6.29041 13.7606 3.97642 12.3235 3.33519 9.9695C2.64703 7.44224 4.0715 4.69719 6.03497 2.55262C6.20606 2.36581 6.64856 1.82347 6.59899 2.0577Z" fill="#0217A6"/>
</g>
<defs>
<clipPath id="clip0">
<rect width="32" height="32" fill="white"/>
</clipPath>
</defs>
</svg>
