<svg width="32" height="32" viewBox="0 0 32 32" fill="none" xmlns="http://www.w3.org/2000/svg">
<path fill-rule="evenodd" clip-rule="evenodd" d="M15.2732 2.07965L15.2733 2.07968L15.2733 2.07976L15.2734 2.0798C15.5582 2.39774 15.8328 2.70435 15.9771 2.89103C15.9771 2.89103 16.8657 0.556552 17.014 0C17.014 0 16.8557 0.0060417 16.6837 0.00652503L16.6395 0.00681549C16.4752 0.00785498 16.2662 0.00917798 16.0213 0.0248915C15.9386 0.0299857 15.8313 0.0348826 15.7088 0.0404731C15.4246 0.0534476 15.0585 0.0701581 14.7276 0.101741L14.6767 0.10672C14.3562 0.138034 14.1341 0.159738 13.689 0.285163C13.689 0.285163 13.9608 0.593285 14.0667 0.702517C14.1232 0.759007 14.2684 0.928324 14.4476 1.13737C14.6096 1.32628 14.7994 1.54763 14.9767 1.74747C15.0733 1.85643 15.1738 1.96862 15.2731 2.07944L15.2732 2.07965ZM10.9773 1.23596L10.9615 1.2187C10.8988 1.15095 10.8534 1.10191 10.9912 1.05616C11.0472 1.03778 11.1293 1.00688 11.2216 0.972118C11.3757 0.914103 11.5584 0.845332 11.6958 0.806042C11.9139 0.743935 11.9883 0.719527 11.9883 0.719527C12.257 1.05935 12.5777 1.37192 12.8758 1.66251C12.9394 1.72447 13.0019 1.78543 13.0627 1.84544C13.2393 2.02021 13.8351 2.59115 14.4033 3.13563C14.9477 3.65725 15.4667 4.15458 15.5675 4.25604C15.7736 4.46314 16.4026 5.1949 16.4026 5.1949C16.4794 5.08407 16.8053 4.18319 17.0841 3.41249L17.0842 3.41245L17.0842 3.41218L17.0843 3.41213L17.0843 3.41195L17.0844 3.41165L17.0846 3.41123L17.0846 3.41117C17.2889 2.84642 17.4679 2.35188 17.5048 2.28986C17.5919 2.14414 18.1723 0.835284 18.2169 0.719527C18.2613 0.60377 18.4926 0.171916 18.4926 0.171916C18.5563 0.184836 18.6158 0.193535 18.6705 0.201539C18.7386 0.2115 18.7993 0.220385 18.8517 0.23499C18.9187 0.254443 19.0503 0.274273 19.1582 0.290545C19.2233 0.300349 19.2798 0.308862 19.3084 0.315223C19.385 0.331656 19.4394 0.378297 19.4394 0.378297C19.3856 0.444385 19.357 0.522874 19.3198 0.625083C19.302 0.673869 19.2823 0.728059 19.2569 0.788884C19.2123 0.898038 19.0683 1.23975 18.9198 1.59234L18.9194 1.59319L18.919 1.59419L18.9161 1.60114L18.9152 1.60327C18.8077 1.85842 18.6983 2.11805 18.6229 2.29832C18.535 2.50764 18.3165 3.12202 18.1051 3.71642L18.1051 3.71645C17.8799 4.3497 17.6627 4.96027 17.6202 5.03419C17.6036 5.06296 17.5853 5.0944 17.5663 5.12696C17.4907 5.25662 17.4047 5.4042 17.3784 5.47257C17.1532 5.42666 15.3887 5.49215 15.3887 5.49215C15.3795 5.48458 15.367 5.47109 15.3513 5.45431L15.3513 5.4543C15.3205 5.42126 15.2778 5.37546 15.2262 5.337C15.177 5.30015 14.6435 4.77183 14.2162 4.34868L14.216 4.34855L14.2159 4.34846L14.2157 4.34822C13.9734 4.10827 13.7653 3.90223 13.6992 3.83892C13.5167 3.66468 11.5755 1.80242 11.4728 1.67652C11.4355 1.63039 11.3575 1.56701 11.2693 1.49525C11.1707 1.41513 11.0593 1.32457 10.9773 1.23596ZM12.6722 6.04653C12.7561 6.02357 13.1986 5.91579 13.4275 5.86625C13.4275 5.86625 13.3918 5.79955 13.3699 5.77877C13.3499 5.75871 13.0537 5.46774 12.8912 5.32009C12.8275 5.26248 12.7081 5.1476 12.5701 5.01492C12.358 4.81088 12.1021 4.56472 11.9376 4.41989C11.6648 4.18088 10.9029 3.51921 10.5107 3.1816C10.2808 2.98417 9.14642 1.90224 9.07665 1.81113C9.07665 1.81113 9.0403 1.81258 8.93344 1.91021C8.82512 2.0076 8.34647 2.3324 8.29548 2.36019C8.24425 2.38943 8.23791 2.40876 8.31134 2.46265C8.3467 2.48786 9.18117 3.21115 10.0582 3.97135L10.0587 3.97177C11.0146 4.80034 12.021 5.67262 12.0984 5.73261C12.2106 5.82132 12.4068 5.9624 12.501 6.0301C12.5292 6.05037 12.5482 6.06406 12.5531 6.0678C12.5781 6.08784 12.5862 6.08364 12.6088 6.072C12.6224 6.06498 12.6412 6.05526 12.6722 6.04653ZM11.2599 6.59931C11.0057 6.60245 7.96398 6.06861 7.81077 6.03502C7.65878 6.00216 7.37359 5.96277 7.37359 5.96277C7.31326 5.5215 7.17685 4.86084 7.10357 4.50596C7.09121 4.44609 7.08064 4.39492 7.07254 4.35498C7.05564 4.27341 7.03429 4.17615 7.01187 4.07402L7.01187 4.07401L7.01186 4.07399L7.01186 4.07396C6.95788 3.82813 6.89772 3.55408 6.87859 3.40282C6.84761 3.16744 6.862 3.13941 7.01253 3.30205C7.06322 3.35679 8.7159 4.60945 9.91384 5.51743C10.5722 6.01646 11.0933 6.41138 11.1355 6.44609C11.2572 6.54493 11.318 6.60028 11.2599 6.59931ZM3.15125 6.9219C3.06586 6.96008 2.99097 6.98256 2.99097 6.98256C3.1349 6.74645 3.43376 6.28125 3.60429 6.06206C3.77335 5.84384 4.30958 5.16186 4.59624 4.89627C4.68004 4.81836 4.77827 4.72656 4.87849 4.63291L4.87854 4.63286C5.12053 4.40672 5.37406 4.1698 5.46376 4.09153C5.5916 3.98134 5.66162 3.93107 5.66162 3.93107C5.70626 3.91367 5.7775 3.91246 5.7775 3.91246C5.81744 3.93604 5.82691 3.96277 5.84982 4.02737L5.84982 4.02738C5.85531 4.04288 5.86158 4.06056 5.86923 4.0809C5.91583 4.22469 6.08928 5.41537 6.11222 5.57632C6.1243 5.66367 6.15981 5.856 6.19096 6.02472L6.19096 6.02473L6.19096 6.02474C6.21703 6.16595 6.24004 6.2906 6.24371 6.3233C6.19508 6.33585 5.81686 6.4068 5.36183 6.49215L5.3618 6.49216C4.63428 6.62863 3.71046 6.80191 3.62356 6.83224C3.58686 6.84512 3.51344 6.85492 3.43349 6.86559C3.3274 6.87975 3.20982 6.89544 3.15125 6.9219ZM6.69761 11.3435C6.70092 11.3783 6.7044 11.415 6.67705 11.4484C6.67705 11.4484 6.43089 11.387 6.34989 11.3237C6.30428 11.2885 4.97496 10.5948 3.8186 9.99136L3.8184 9.99126L3.81805 9.99107C2.93995 9.53283 2.16173 9.12671 2.1213 9.10063C2.07967 9.07379 2.02215 9.04923 1.96095 9.02311L1.96094 9.0231C1.88442 8.99044 1.80215 8.95532 1.73804 8.9102C1.73804 8.9102 1.95785 8.7913 2.0791 8.74877C2.13789 8.72847 2.26987 8.68425 2.45504 8.64534C2.51749 8.63212 2.88879 8.54934 3.35867 8.44457L3.35954 8.44438C4.29025 8.23686 5.60703 7.94327 5.67705 7.93315C5.72681 7.92687 5.76512 8.04456 5.77609 8.07936C5.77825 8.08685 5.79978 8.15195 5.83295 8.25226C5.95394 8.61807 6.22982 9.4522 6.28573 9.66878C6.30456 9.74318 6.34379 9.892 6.39088 10.0706L6.39097 10.071L6.39099 10.071L6.391 10.0711L6.39103 10.0712L6.39104 10.0712C6.51847 10.5546 6.70328 11.2556 6.69705 11.2911C6.69419 11.3075 6.69588 11.3253 6.69761 11.3435ZM5.93587 13.7772C5.37817 13.5571 1.23984 11.7603 1.20496 11.7431C1.17129 11.725 0.665314 11.5749 0.665314 11.5749C0.675316 11.3918 0.762654 11.0266 0.801688 10.9427C0.840722 10.8589 0.953433 10.659 0.953433 10.659C1.01663 10.6941 1.08785 10.7249 1.16272 10.7573L1.16274 10.7573L1.16276 10.7573L1.16277 10.7573C1.25351 10.7966 1.34962 10.8382 1.44331 10.8925C1.61359 10.9908 3.4255 11.8144 3.87097 12.0085C4.31694 12.2023 5.86268 12.8255 5.93684 12.849C6.02296 12.8765 6.09517 12.9092 6.09517 12.9092C6.01589 13.1061 5.99905 13.2516 5.98685 13.3732C5.98165 13.4264 5.97234 13.4834 5.96398 13.5347C5.95313 13.6012 5.94389 13.6579 5.94733 13.6834C5.9505 13.7306 5.93587 13.7772 5.93587 13.7772ZM0.952496 21.8322C0.890455 21.7183 0.859338 21.5935 0.836769 21.503L0.836762 21.503L0.836754 21.5029C0.828534 21.47 0.821448 21.4416 0.814413 21.4199C0.797287 21.3709 0.778909 21.2652 0.760632 21.16L0.760629 21.16C0.748707 21.0914 0.736828 21.0231 0.725367 20.9709C0.707194 20.8859 0.68823 20.7486 0.673448 20.6416C0.665014 20.5805 0.657941 20.5292 0.653155 20.5033C0.688822 20.4887 0.73938 20.45 0.795289 20.4073L0.795307 20.4073C0.839584 20.3734 0.887216 20.337 0.933467 20.308C1.03886 20.243 2.27306 19.1084 2.45652 18.9131C2.57887 18.7831 2.80623 18.5729 3.02648 18.3694C3.1365 18.2677 3.24474 18.1677 3.33722 18.0801C3.45116 17.9722 3.66196 17.755 3.88172 17.5286L3.88176 17.5286C4.19936 17.2014 4.53566 16.8549 4.62534 16.7911C4.69174 16.7444 4.7847 16.6682 4.8751 16.5941L4.87514 16.5941L4.87517 16.594C4.99302 16.4975 5.10649 16.4045 5.15108 16.3851C4.88955 16.2297 3.35869 15.4762 2.98641 15.3094C2.70976 15.1869 1.77242 14.7001 1.22215 14.4144L1.22169 14.4141L1.2207 14.4136L1.22046 14.4135L1.21998 14.4132L1.21967 14.4131C1.02971 14.3144 0.886264 14.2399 0.832711 14.213C0.624855 14.1067 0.223294 13.9215 0.177185 13.9024C0.181604 13.8014 0.205329 13.6843 0.228893 13.5681C0.24696 13.479 0.264933 13.3903 0.274038 13.3096C0.282686 13.2328 0.295605 13.142 0.307803 13.0562L0.307805 13.0562L0.307811 13.0562L0.307813 13.0561C0.325203 12.9339 0.341127 12.8219 0.341127 12.7756C0.520392 12.8272 1.78452 13.5199 2.50932 13.9171L2.50943 13.9171L2.50945 13.9172L2.50958 13.9172C2.76117 14.0551 2.94773 14.1573 3.00129 14.1847C3.14034 14.2551 3.345 14.3325 3.50051 14.3912C3.57882 14.4208 3.64467 14.4457 3.6834 14.4626C3.74716 14.4904 4.21889 14.7383 4.65384 14.9668L4.65431 14.967L4.6544 14.9671C5.01311 15.1555 5.34666 15.3307 5.40553 15.3585C5.5363 15.4186 5.64169 15.4747 5.64169 15.4747C5.68438 15.5172 5.69219 15.5267 5.68609 15.7321C5.68413 15.807 5.68522 15.8907 5.68632 15.9754C5.68824 16.1231 5.6902 16.2738 5.67609 16.3858C5.65315 16.5615 5.67779 17.328 5.67779 17.328C5.47149 17.5276 5.25229 17.7635 5.03411 17.9983C4.751 18.303 4.46961 18.6058 4.22037 18.8249C3.78026 19.2133 2.10814 20.837 2.10814 20.837C2.07585 20.8668 2.0053 20.938 1.91795 21.0261C1.70048 21.2456 1.37883 21.5702 1.2838 21.6226C1.14059 21.7014 1.0313 21.7705 0.952496 21.8322ZM16.6795 16.9338L16.6796 16.9337L16.6797 16.9335L16.6799 16.9332C16.7265 16.8568 16.7866 16.7582 16.8663 16.6208C16.8745 16.6064 16.8845 16.5933 16.8944 16.5801C16.8991 16.5739 16.9039 16.5676 16.9084 16.5612L16.9158 16.5505C16.95 16.5 16.983 16.4487 17.016 16.3973L17.016 16.3973L17.0161 16.3972L17.0161 16.3971L17.0162 16.397L17.0162 16.397L17.0163 16.3969L17.0163 16.3968L17.0164 16.3967L17.0164 16.3967L17.0165 16.3966L17.0165 16.3965L17.0166 16.3964L17.0166 16.3964L17.0167 16.3963L17.0168 16.3962L17.0168 16.3961L17.0169 16.3961L17.017 16.3959C17.0522 16.3409 17.0875 16.286 17.1244 16.2322C17.1678 16.1677 17.2134 16.1043 17.261 16.0434C17.2754 16.0246 17.2918 16.006 17.3083 15.9872L17.3083 15.9871C17.3459 15.9443 17.3845 15.9003 17.404 15.8506C17.411 15.8349 17.4101 15.8338 17.4021 15.8235L17.3969 15.8168C17.3814 15.7962 17.3716 15.775 17.3616 15.7536C17.356 15.7415 17.3504 15.7293 17.3437 15.7172C17.3186 15.6732 17.2886 15.6309 17.2576 15.5901C17.207 15.5224 17.121 15.39 17.0245 15.2412C16.9404 15.1116 16.8482 14.9697 16.7645 14.8475C16.704 14.7591 16.635 14.6544 16.5625 14.5444L16.5619 14.5435L16.5618 14.5434C16.4193 14.3271 16.2632 14.0902 16.1314 13.9163C16.1314 13.9163 16.0553 14.0398 15.9082 14.2839C15.7611 14.5292 15.5313 14.8656 15.3961 15.0548C15.2921 15.2011 15.1321 15.4079 14.8506 15.7716L14.8506 15.7716L14.8497 15.7728C14.9022 15.8493 14.9742 15.9779 15.0549 16.122L15.0549 16.122L15.055 16.1221L15.055 16.1222C15.1625 16.3142 15.2854 16.5336 15.3981 16.694C15.594 16.9751 15.9146 17.4163 16.129 17.7075L16.1781 17.6479C16.2581 17.5508 16.3166 17.4799 16.3669 17.4011C16.3921 17.3626 16.4246 17.32 16.4577 17.2765C16.5057 17.2137 16.5548 17.1492 16.585 17.0932C16.609 17.0494 16.6392 16.9999 16.6795 16.9338ZM9.68223 24.4178C9.20943 24.5294 7.77616 24.5084 7.74566 24.4533C7.71419 24.3984 7.61612 22.1333 7.61612 22.1333C7.64292 22.1686 7.67131 22.2156 7.69719 22.2584L7.69722 22.2585L7.69723 22.2585L7.69725 22.2585L7.69728 22.2586C7.72391 22.3027 7.74787 22.3424 7.76469 22.3602C7.77604 22.3724 7.86372 22.4703 7.97786 22.5978L7.97894 22.599L7.97905 22.5991C8.19612 22.8416 8.50799 23.1899 8.57343 23.2595C8.59615 23.284 8.64502 23.3388 8.70845 23.41L8.70866 23.4102L8.70902 23.4106C8.9215 23.649 9.29654 24.0699 9.4007 24.15C9.53732 24.253 9.68223 24.4178 9.68223 24.4178ZM6.52275 28.8749L6.52275 28.8749C6.50694 28.9441 6.50492 28.9529 6.47074 28.9342C6.17212 28.6974 5.35272 27.9395 4.99684 27.6102L4.93402 27.5521C4.62175 27.2638 4.03404 26.6133 3.89011 26.4069C4.21848 26.2936 6.38828 26.1217 6.44463 26.1208C6.53709 26.1198 6.57686 28.6602 6.54124 28.7982C6.53315 28.8294 6.52736 28.8547 6.52275 28.8749ZM9.31775 29.9076C9.33765 29.8777 9.4852 29.6644 9.66841 29.3996C9.99954 28.921 10.4471 28.2739 10.468 28.2372C10.4874 28.2046 10.5301 28.117 10.5747 28.0252L10.5748 28.0252L10.5748 28.0251L10.5749 28.0249L10.5749 28.0248C10.6083 27.9563 10.6428 27.8854 10.6695 27.8334C10.7047 27.7649 10.7642 27.6574 10.8195 27.5575C10.8627 27.4795 10.9033 27.4062 10.9277 27.3597C10.9828 27.2544 11.9957 25.5224 11.9957 25.5224C12.0699 25.588 12.0808 25.5905 12.0972 25.5941C12.1078 25.5965 12.1207 25.5994 12.1541 25.6198C12.1925 25.643 12.272 25.6883 12.3528 25.7344L12.3528 25.7344C12.4503 25.79 12.5497 25.8466 12.5815 25.867C12.6386 25.9042 12.6839 25.9363 12.6839 25.9363C12.5759 26.0869 12.1958 26.7621 12.1009 26.9448C12.0781 26.9888 11.991 27.1554 11.8715 27.3843L11.8711 27.385C11.4971 28.1009 10.8054 29.4251 10.7632 29.5166L10.7258 29.5964L10.7258 29.5964L10.7257 29.5966C10.6534 29.7502 10.5318 30.0083 10.4866 30.1316C10.4486 30.2323 10.4142 30.2796 10.382 30.3238C10.3668 30.3447 10.3521 30.3649 10.3378 30.3897C10.3019 30.4527 10.2755 30.5091 10.2508 30.5617C10.2339 30.5979 10.2177 30.6324 10.1999 30.6659C10.1428 30.774 10.0938 30.8455 10.0938 30.8455C10.0351 30.7899 9.92403 30.7397 9.81786 30.6917C9.71353 30.6445 9.61393 30.5994 9.57342 30.5536C9.49389 30.4591 9.07184 30.2319 9.07184 30.2319C9.13182 30.1464 9.1731 30.0956 9.21032 30.0498C9.24562 30.0063 9.27726 29.9674 9.31775 29.9076ZM7.68361 27.2097C7.75703 28.1105 7.84998 29.2509 7.87684 29.3334C7.90566 29.4218 7.91091 29.4715 7.91528 29.5129C7.92124 29.5693 7.92558 29.6103 7.98565 29.713C8.0603 29.6717 8.13569 29.6123 8.25084 29.4796C8.31661 29.4057 9.11337 28.1505 9.81633 27.0431L9.81639 27.043L9.81641 27.043C10.3729 26.1664 10.8705 25.3824 10.9003 25.3503C10.9666 25.2773 10.9025 25.2048 10.8276 25.2302C10.8022 25.2393 10.4334 25.2849 9.95192 25.3445C9.01066 25.4609 7.63879 25.6305 7.56067 25.6852C7.57497 25.7288 7.57539 25.801 7.57585 25.8814C7.5763 25.9586 7.57679 26.0435 7.5897 26.118C7.59937 26.1762 7.63766 26.646 7.6836 27.2096L7.68361 27.2097ZM5.11317 24.9069L5.11295 24.907L5.11267 24.907L5.11201 24.9072L5.11144 24.9073L5.11135 24.9074C4.29628 25.1072 3.38304 25.3312 3.30743 25.3659C3.21842 25.4081 3.22531 25.3709 3.23025 25.3442C3.2329 25.3299 3.23499 25.3187 3.22156 25.3241C3.27303 25.1951 6.84586 21.1692 6.84586 21.1692C6.82585 21.5206 6.44356 24.5411 6.40184 24.5822C6.37243 24.5981 5.77545 24.7445 5.11317 24.9069ZM2.15396 24.0554C2.15396 24.0554 2.20763 24.1593 2.2757 24.1192C2.2757 24.1192 2.49282 23.9189 2.59358 23.7821C2.64489 23.7121 3.11401 23.255 3.58588 22.7954L3.58591 22.7953L3.58608 22.7952C4.04075 22.3522 4.49792 21.9069 4.58626 21.8029C4.64404 21.7344 4.78048 21.5976 4.96198 21.4157L4.96199 21.4157C5.34375 21.0329 5.92487 20.4504 6.3928 19.8833C6.37277 19.8151 6.33264 19.697 6.2902 19.5722C6.24993 19.4537 6.20758 19.3291 6.17836 19.2352C6.16502 19.1929 6.15264 19.1545 6.14093 19.1182C6.10164 18.9964 6.06986 18.898 6.03491 18.7533C6.03491 18.7533 5.96123 18.8628 5.93025 18.9121C5.91621 18.9342 5.88636 18.9678 5.83836 19.0219C5.77872 19.0891 5.69106 19.1878 5.57089 19.3352C5.46184 19.4688 5.13613 19.8011 4.79186 20.1522L4.79171 20.1524L4.79168 20.1524L4.79161 20.1525L4.79146 20.1526C4.44964 20.5013 4.08958 20.8685 3.90512 21.0786C3.64834 21.3702 2.84731 22.1459 2.2834 22.692L2.28317 22.6923L2.28313 22.6923L2.28298 22.6924L2.2829 22.6925C2.03001 22.9374 1.82487 23.1361 1.73801 23.2241C1.73801 23.2241 1.76435 23.3377 1.81388 23.4338C1.82838 23.4613 1.85128 23.4999 1.87985 23.548C1.95029 23.6667 2.05521 23.8434 2.15396 24.0554ZM1.45773 16.1117C1.35025 16.0707 1.24779 16.0316 1.18505 16.001C1.13253 15.9755 1.01083 15.9385 0.873213 15.8966C0.751336 15.8595 0.616968 15.8185 0.507085 15.7785L0.475114 15.7665C0.320701 15.7086 0.249044 15.6818 0.00793888 15.6156C0.00793888 15.6156 0.0169654 15.6431 0.0023277 15.8217C-0.012554 15.9994 0.0479486 16.8773 0.0696612 17.1337C0.0916177 17.3901 0.169686 17.989 0.277029 18.5931C0.277029 18.5931 0.418283 18.5487 0.580517 18.4353C0.723129 18.3357 1.28349 17.899 1.62128 17.6358L1.74641 17.5383C1.89245 17.424 2.10412 17.2513 2.29858 17.0927L2.29868 17.0926L2.29916 17.0922C2.5037 16.9254 2.68909 16.7742 2.75885 16.7229C2.88718 16.6289 2.94866 16.5851 2.94866 16.5851C2.88864 16.5728 2.29484 16.4363 2.18408 16.3928C2.13967 16.3751 2.09665 16.3622 2.05203 16.3489L2.05198 16.3488C1.97698 16.3264 1.89744 16.3025 1.79911 16.2524C1.71519 16.2098 1.58305 16.1595 1.45773 16.1117ZM7.31597 8.19862C7.32719 8.37358 7.47601 9.60993 7.53066 9.88277C7.61336 9.78224 8.28279 9.0268 8.80511 8.5454C9.32768 8.06353 9.77218 7.74405 10.1301 7.54032C10.0957 7.5036 10.0168 7.48587 9.94931 7.47068C9.92575 7.46538 9.90356 7.46039 9.88513 7.45502C9.82927 7.43929 8.42365 7.29767 7.75259 7.23006L7.75235 7.23004L7.75224 7.23003L7.75217 7.23002C7.56776 7.21144 7.4389 7.19846 7.40892 7.19523C7.32188 7.18614 7.27675 7.1912 7.23024 7.19642C7.20257 7.19953 7.17442 7.20269 7.13666 7.20296C7.13666 7.20296 7.30402 8.02414 7.31597 8.19862ZM18.5711 5.7825C18.6225 5.69824 18.6876 5.59974 18.7498 5.5057C18.8059 5.42093 18.8596 5.33979 18.8985 5.27597C18.9798 5.14064 20.4057 2.80641 20.5287 2.62105L20.5827 2.53943L20.5827 2.53929C20.7585 2.27354 21.1649 1.65891 21.2467 1.52704C21.3384 1.37697 21.5387 0.994413 21.5387 0.994413C21.7157 0.984215 21.96 1.09164 22.1526 1.17636C22.2201 1.20607 22.2814 1.23299 22.3311 1.25106C22.4742 1.30209 22.6207 1.40777 22.7172 1.47739C22.7505 1.5014 22.7778 1.52113 22.797 1.53284C22.8734 1.57755 22.9395 1.62226 22.9395 1.62226L22.9232 1.6454L22.9232 1.6455L22.923 1.64567C22.6786 1.99282 22.5892 2.11983 22.5472 2.19548C22.4811 2.31969 22.1613 2.70273 21.9333 2.97581L21.9331 2.97601L21.9325 2.97671L21.9324 2.97684L21.9323 2.97692L21.9321 2.97715L21.9321 2.97722L21.9318 2.97753L21.9316 2.97775C21.8476 3.0784 21.7762 3.16393 21.7348 3.21579C21.6718 3.29534 21.6046 3.39436 21.535 3.49704C21.4352 3.64423 21.3303 3.79895 21.225 3.91468C21.0851 4.06871 20.5248 4.85323 20.2225 5.27644C20.1388 5.39371 20.0748 5.48323 20.0452 5.52392C19.9098 5.71242 19.8231 5.86007 19.79 5.92943C19.7748 5.96136 19.7642 5.98816 19.7556 6.01004C19.7281 6.07972 19.7203 6.09948 19.6446 6.07612C19.6143 6.06691 19.5711 6.05326 19.521 6.03742L19.521 6.03741C19.3778 5.99218 19.1782 5.92913 19.063 5.90067C18.9071 5.86273 18.5711 5.7825 18.5711 5.7825ZM22.2966 5.01612C22.0634 5.33657 21.4671 6.25973 21.2485 6.61086C21.2485 6.61086 21.3276 6.61135 21.454 6.57872C21.5165 6.5624 22.0314 6.35375 22.5577 6.14047L22.5578 6.14043L22.5579 6.14041C23.0987 5.92125 23.6515 5.69723 23.7379 5.672C23.9038 5.62365 23.9815 5.56435 24.1081 5.46776L24.1195 5.45909L24.1303 5.43878C24.1713 5.36211 24.2247 5.26232 24.2234 5.08838C24.2223 4.96416 24.2847 4.04056 24.3308 3.35878L24.3308 3.3584L24.3309 3.35777C24.355 3.00014 24.3747 2.70924 24.3783 2.63549C24.3817 2.56624 24.389 2.50328 24.395 2.45202C24.409 2.33191 24.4155 2.27604 24.3459 2.35396C24.2963 2.41143 24.119 2.6385 23.9342 2.87526C23.7592 3.09943 23.5774 3.33228 23.4908 3.43806C23.312 3.65604 22.5291 4.6964 22.2966 5.01612ZM24.1658 9.24578C24.0766 9.16902 23.9488 9.05163 23.8128 8.92677C23.6885 8.81261 23.5574 8.69221 23.4427 8.59087C23.2816 8.44683 23.0346 8.24304 22.8355 8.07884L22.8355 8.07881C22.7406 8.00058 22.6567 7.93134 22.5981 7.88183C22.5641 7.85297 22.5275 7.82154 22.49 7.78943L22.4899 7.78931C22.3271 7.64966 22.1494 7.49721 22.1075 7.48719C22.2512 7.41947 22.4488 7.38855 22.6113 7.36311C22.6836 7.35178 22.749 7.34154 22.7996 7.32963C22.8574 7.31604 23.0009 7.28661 23.1665 7.25264C23.4723 7.1899 23.8538 7.11166 23.9114 7.08893C24.0204 7.04567 24.1107 7.01426 24.1568 7.00676C24.178 7.00304 24.1947 6.99862 24.2079 6.99516C24.2273 6.99004 24.2388 6.98701 24.2451 6.9914C24.2543 6.99776 24.2527 7.01967 24.2488 7.07326C24.2472 7.09536 24.2452 7.12284 24.2434 7.15684C24.2319 7.36926 24.1866 8.98333 24.1895 9.06743C24.1902 9.08544 24.192 9.10626 24.1939 9.12734V9.12735C24.2005 9.20299 24.2074 9.28188 24.1658 9.24578ZM25.3291 10.1107C25.3257 10.1501 25.3533 10.1315 25.4345 10.0303C25.4987 9.92079 26.2393 9.00923 26.4804 8.71996C26.7204 8.4302 27.7504 7.18757 27.9144 7.07834C28.014 7.01234 28.1357 6.90425 28.2428 6.80916L28.2429 6.80913L28.2429 6.8091L28.2429 6.80907L28.243 6.80904L28.243 6.80901L28.243 6.80899L28.243 6.80897L28.2431 6.80893C28.3124 6.74741 28.3755 6.69135 28.4225 6.65567C28.5421 6.5648 28.6143 6.50583 28.5579 6.51743C28.5416 6.52087 28.5216 6.52569 28.4979 6.5314C28.4398 6.54538 28.3596 6.5647 28.2564 6.5822C28.2028 6.59153 27.9684 6.63782 27.682 6.69439L27.6819 6.69442C27.1896 6.79163 26.5437 6.91919 26.3972 6.9418C26.3496 6.94929 26.2979 6.95661 26.2427 6.96441C26.0311 6.99431 25.7689 7.03139 25.4945 7.11362C25.4963 7.15318 25.4815 7.34966 25.4654 7.56505L25.4653 7.56586L25.4653 7.56598C25.4477 7.80033 25.4285 8.05681 25.4269 8.15785C25.4247 8.25963 25.4117 8.46981 25.4 8.65962C25.3895 8.82808 25.3801 8.98051 25.3801 9.02687C25.3801 9.0883 25.3669 9.23743 25.3554 9.3679V9.36793L25.3554 9.36798L25.3554 9.36809L25.3553 9.36932L25.3552 9.36991L25.3552 9.37012C25.3483 9.4482 25.3421 9.51937 25.3396 9.56071C25.3328 9.67163 25.3191 9.89976 25.3291 10.1107ZM25.9147 12.0266L25.9146 12.0264C25.9043 11.975 25.8959 11.9337 25.8905 11.9082C25.8799 11.8627 25.8706 11.8052 25.8612 11.7473L25.8612 11.7473C25.844 11.6413 25.8266 11.5342 25.801 11.4977C25.8582 11.4472 25.8869 11.4115 25.9137 11.3782C25.9373 11.3489 25.9594 11.3215 25.9981 11.2874C26.0321 11.2575 26.2179 11.0575 26.4369 10.822L26.4373 10.8216L26.4373 10.8215L26.4374 10.8215L26.4376 10.8212C26.7485 10.4868 27.1257 10.081 27.2301 9.9875C27.407 9.82728 28.1457 9.09286 28.2345 8.98895C28.2748 8.94142 28.3225 8.86853 28.3718 8.79303C28.4322 8.70077 28.4951 8.60459 28.5502 8.54598C28.587 8.50737 28.6899 8.38874 28.8107 8.2496C29.0241 8.00375 29.293 7.69387 29.3506 7.64819C29.4424 7.57666 29.5531 7.49208 29.5531 7.49208C29.6568 7.59599 29.7185 7.67164 29.8376 7.85627C29.9003 7.95563 29.9629 8.03926 30.0132 8.10651C30.0567 8.16455 30.091 8.21041 30.1084 8.24365C30.1464 8.31615 30.2413 8.4887 30.2735 8.52278L30.1211 8.64649C29.8588 8.85941 29.8327 8.88057 29.8051 8.89933L29.7955 8.9057C29.7874 8.91107 29.7774 8.91771 29.7612 8.92901C29.6678 8.99668 29.506 9.16681 29.4865 9.19291L29.4814 9.20028L29.4814 9.2003C29.4468 9.25 29.3664 9.36558 29.2509 9.46744C29.1735 9.53526 28.1694 10.6124 27.4175 11.4189C26.9771 11.8913 26.6233 12.2709 26.5927 12.3007C26.527 12.3639 26.4685 12.4304 26.4217 12.4836L26.4217 12.4836C26.4081 12.4991 26.3956 12.5134 26.3841 12.5262C26.3473 12.5667 26.2511 12.6392 26.1688 12.7011L26.1687 12.7012C26.1353 12.7263 26.1042 12.7497 26.0803 12.7686C26.0315 12.6052 25.9565 12.2338 25.9147 12.0266ZM27.9719 5.64758L28.0606 5.63592C28.0606 5.63592 27.9874 5.50808 27.8923 5.38701C27.8558 5.34153 27.8189 5.29228 27.7805 5.24098L27.7805 5.24096C27.7174 5.15678 27.6502 5.0671 27.5739 4.97956C27.5322 4.93168 27.3963 4.78141 27.2302 4.59759L27.23 4.59742C26.903 4.23571 26.4587 3.7442 26.3827 3.64727C26.3138 3.55977 26.1922 3.45134 26.087 3.35764L26.087 3.35761L26.0869 3.35754C26.0182 3.29627 25.9565 3.2413 25.9213 3.20261C25.8699 3.1464 25.8529 3.13366 25.8394 3.12355C25.8295 3.11614 25.8215 3.11015 25.8033 3.08951C25.7984 3.08382 25.7934 3.07773 25.7884 3.07161C25.7615 3.03872 25.7337 3.00467 25.7101 3.02402C25.6834 3.04684 25.6815 3.08196 25.679 3.12798V3.128C25.6779 3.14776 25.6768 3.16952 25.6735 3.19318C25.6661 3.24658 25.6619 3.28894 25.658 3.32898V3.329C25.6505 3.40546 25.6439 3.47348 25.6171 3.59386C25.5837 3.74176 25.4681 5.42495 25.461 5.56077C25.4539 5.69682 25.4319 5.99576 25.4319 5.99576C25.4319 5.99576 27.6415 5.70794 27.7242 5.68933C27.8231 5.66698 27.853 5.66309 27.9719 5.64758ZM27.1598 14.8562L27.1429 14.8809C27.0915 14.955 27.0656 14.9922 27.1693 15.0471C27.2837 15.1073 29.981 16.0827 30.313 16.187C30.6441 16.2915 31.4335 16.5959 31.5738 16.652C31.7141 16.7086 31.8353 16.7784 31.8353 16.7784L31.84 16.8375C31.8538 17.011 31.8659 17.1628 31.8644 17.393C31.8629 17.6482 31.8507 17.8688 31.8153 17.9785C31.5954 17.9033 31.2376 17.7559 30.9757 17.6481C30.9001 17.6169 30.8325 17.5891 30.7785 17.5672C30.537 17.4686 29.8558 17.2165 29.5492 17.1071C29.2428 16.9988 28.6951 16.7924 28.4226 16.689C28.3684 16.6688 28.2639 16.6294 28.1302 16.5791C27.5849 16.3737 26.552 15.9848 26.4462 15.9572C26.4645 15.8491 26.4748 15.6951 26.4845 15.5507C26.4929 15.425 26.5008 15.3066 26.5131 15.232C26.5367 15.0941 26.5073 14.8523 26.4874 14.688C26.4843 14.662 26.4814 14.6379 26.4789 14.6165C26.4685 14.5256 26.4637 14.4079 26.4598 14.311L26.4598 14.3108L26.4598 14.3105V14.3105L26.4598 14.3104L26.4598 14.3103L26.4598 14.3102L26.4598 14.3101L26.4598 14.3099L26.4598 14.3098L26.4598 14.3097L26.4598 14.3095L26.4598 14.3094L26.4598 14.3092L26.4598 14.3091L26.4598 14.309L26.4598 14.3088L26.4597 14.3087L26.4597 14.3085L26.4597 14.3083C26.457 14.2392 26.4546 14.1809 26.4509 14.151C26.437 14.0546 26.4747 14.0251 26.5476 13.9681C26.5565 13.9611 26.566 13.9536 26.576 13.9456C26.6106 13.9177 26.694 13.844 26.7982 13.7519L26.7982 13.7518C26.9645 13.6048 27.1839 13.4108 27.3423 13.2815C27.5055 13.149 28.8462 12.004 29.8344 11.16L29.8356 11.159L29.8362 11.1585C30.4117 10.667 30.8672 10.2779 30.9002 10.2511C30.9905 10.1786 31.1644 10.0222 31.1644 10.0222C31.1644 10.0222 31.4638 10.7571 31.5253 10.9814C31.5877 11.2061 31.5946 11.4127 31.5946 11.4127C31.1681 11.6723 30.9029 11.8596 30.6146 12.0913C30.4464 12.2266 30.2613 12.3591 30.1093 12.4678L30.1093 12.4679L30.1092 12.4679C30.0006 12.5456 29.909 12.6112 29.8529 12.6568C29.7668 12.7272 28.8533 13.419 28.1834 13.9261L28.1829 13.9265C27.8069 14.2112 27.5079 14.4376 27.4753 14.4633C27.3641 14.5507 27.2452 14.7286 27.1814 14.8241L27.1814 14.8241L27.1814 14.8241L27.1813 14.8241L27.1598 14.8562ZM31.5505 15.3454C31.7085 15.3957 31.8727 15.448 31.9702 15.5007C31.9779 15.4027 31.9855 15.2125 31.9911 15.0739L31.9939 15.0046C32 14.8683 32 14.6556 32 14.472C32 14.2232 31.9726 13.8463 31.9505 13.5423V13.5423C31.9408 13.4093 31.9322 13.2903 31.9273 13.202C31.9243 13.1443 31.9212 12.9425 31.9243 12.7943C31.9267 12.6739 31.8692 12.7254 31.7971 12.7901C31.7784 12.807 31.7586 12.8247 31.7387 12.8405C31.7059 12.867 31.4565 13.0573 31.1391 13.2994L31.139 13.2995C30.5223 13.7699 29.6489 14.4362 29.6096 14.477C29.5835 14.5035 29.538 14.5316 29.4971 14.5567C29.4425 14.5904 29.3962 14.6189 29.4162 14.6315C29.4353 14.6436 29.4615 14.6493 29.4986 14.6572C29.5308 14.6642 29.5712 14.6729 29.6223 14.6892C29.755 14.731 31.0827 15.1774 31.2808 15.2542C31.3566 15.2836 31.4524 15.3141 31.5505 15.3454ZM31.5052 20.0659L31.4937 20.0859C31.4456 20.1698 31.3814 20.2815 31.3329 20.3849C31.2817 20.4963 31.1953 20.6353 31.14 20.7201C31.1148 20.7582 31.0941 20.7962 31.0739 20.8332C31.0301 20.9135 30.9889 20.989 30.9104 21.0512C30.884 21.0375 30.6942 20.9303 30.4489 20.7918C29.9838 20.5291 29.3194 20.1539 29.1919 20.0901C28.9975 19.9925 26.3791 18.5186 26.3156 18.4693C26.2528 18.4209 26.251 18.3573 26.2481 18.2527L26.2478 18.2433C26.2451 18.1329 26.2412 17.7312 26.2451 17.6053C26.2493 17.4801 26.2456 17.2762 26.2456 17.2762C26.3877 17.3491 26.5483 17.4279 26.6983 17.5015C26.8493 17.5756 26.9895 17.6444 27.0892 17.6967C27.1411 17.7238 27.2842 17.7981 27.4726 17.8959C28.0075 18.1737 28.9068 18.6407 29.1136 18.7527C29.2052 18.802 29.3409 18.8698 29.4883 18.9436L29.4883 18.9436L29.4885 18.9437C29.7902 19.0946 30.1412 19.2702 30.2644 19.3612C30.3851 19.4505 30.5301 19.5388 30.6608 19.6184L30.6608 19.6184C30.7268 19.6586 30.7893 19.6967 30.8431 19.7315C30.9605 19.8078 31.0932 19.8665 31.1901 19.9092L31.1901 19.9092C31.2251 19.9247 31.2553 19.938 31.2785 19.9494C31.3783 19.9971 31.5052 20.0659 31.5052 20.0659ZM26.3918 23.1974C26.5772 23.1897 29.6223 22.8917 29.8558 22.7936C29.8558 22.7936 29.6452 22.6604 29.5054 22.5324C29.4347 22.4675 28.8769 22.0737 28.2971 21.6644L28.2967 21.6642C27.7353 21.2678 27.1534 20.857 26.9731 20.7163C26.7665 20.5553 26.4369 20.3167 26.1792 20.1301L26.1791 20.13C25.978 19.9844 25.8207 19.8705 25.7997 19.8499C25.737 19.7933 25.696 19.7631 25.687 19.8542L25.6838 19.8824C25.6736 19.9704 25.6606 20.0835 25.685 20.2612C25.6981 20.3542 25.7174 20.5363 25.7373 20.7249L25.7374 20.7251L25.7374 20.726C25.7595 20.9346 25.7824 21.1508 25.7987 21.2629C25.8287 21.4768 25.866 21.9773 25.8814 22.2501C25.8878 22.3696 25.9003 22.5125 25.9132 22.6615L25.9133 22.6622L25.9133 22.6623C25.9297 22.8514 25.947 23.0502 25.9541 23.224C25.9541 23.224 26.2073 23.2049 26.3918 23.1974ZM24.6971 23.8454C24.1494 23.9131 22.387 24.0533 22.3055 24.039C22.2248 24.0236 22.1967 23.9878 22.2675 23.9409C22.3392 23.895 22.8379 23.5434 22.9696 23.4494C23.1018 23.3554 23.4365 23.0458 23.6307 22.844C23.7788 22.6908 24.0293 22.372 24.1888 22.169L24.1888 22.169C24.2388 22.1053 24.2799 22.0531 24.306 22.0209L24.3394 21.9796L24.3596 21.9544C24.4388 21.8554 24.4994 21.7796 24.6163 21.6801L24.6193 21.7316L24.6193 21.732L24.6193 21.7321C24.6258 21.8448 24.6336 21.9798 24.6439 22.0987C24.6549 22.2367 24.7442 23.6705 24.6971 23.8454ZM25.8098 28.2439L25.8688 28.2266C25.9078 28.184 26.1639 27.9813 26.4762 27.7343L26.4762 27.7343C26.9719 27.3421 27.609 26.8382 27.7434 26.6847C27.9635 26.4365 28.7522 25.5144 28.7827 25.4643C28.7889 25.4544 28.817 25.412 28.8578 25.3502L28.8582 25.3497C29.0215 25.1026 29.389 24.5465 29.3963 24.5035C29.3998 24.4826 29.4065 24.4696 29.4127 24.4575C29.4224 24.4385 29.431 24.4218 29.4243 24.3805C29.2428 24.4324 26.103 24.756 25.6714 24.7879C25.6766 24.8235 25.6879 25.2352 25.7024 25.761C25.7294 26.738 25.7672 28.1091 25.7961 28.1927L25.8098 28.2439ZM24.6044 28.3849C24.6094 28.4147 24.6204 28.4588 24.6332 28.5097L24.6333 28.5098C24.6718 28.6633 24.7261 28.88 24.6791 28.9635C24.6215 28.9753 24.4705 28.9782 24.39 28.8656C24.3513 28.8124 23.6019 28.0963 22.8095 27.3392L22.809 27.3387L22.8083 27.338L22.808 27.3377L22.8079 27.3376C21.926 26.4949 20.9913 25.6018 20.9243 25.5154C20.7964 25.3525 20.6722 25.2314 20.6722 25.2314C20.9311 25.2085 23.4373 25.2085 23.6166 25.2336C23.7957 25.258 24.1948 25.229 24.1948 25.229C24.2616 25.3691 24.4182 26.7614 24.5187 27.6552L24.5187 27.6552L24.5187 27.6554C24.5604 28.0257 24.5924 28.3104 24.6044 28.3849ZM22.16 30.1536C22.1953 30.2137 22.2365 30.2837 22.2885 30.369C22.4093 30.3333 22.5183 30.2743 22.622 30.2183C22.714 30.1686 22.8017 30.1211 22.8898 30.0942C23.0767 30.0379 23.155 29.9741 23.2131 29.9231C23.1631 29.8554 23.066 29.7448 22.8227 29.4734C22.579 29.2032 20.2631 26.7353 19.9364 26.4001C19.7411 26.2001 19.6251 26.0794 19.5079 25.9572C19.4292 25.8753 19.35 25.7928 19.2458 25.6853C19.2458 25.6853 19.1143 25.7399 18.9591 25.7745C18.8032 25.809 18.6173 25.8554 18.5246 25.8832C18.5046 25.8895 18.4868 25.8941 18.4721 25.8979C18.4176 25.912 18.4036 25.9156 18.4619 25.9557C18.5073 25.9862 19.2642 26.8328 19.923 27.5697L19.9233 27.57L19.9236 27.5703C20.3622 28.0609 20.7573 28.5029 20.8698 28.6227C21.1523 28.9216 21.8689 29.7339 21.9701 29.86C22.0379 29.9457 22.0861 30.0278 22.16 30.1535L22.16 30.1536ZM20.5824 31.0475C20.5204 31.0851 20.3903 31.1231 20.2666 31.1592L20.2665 31.1592C20.1789 31.1847 20.0944 31.2094 20.0396 31.2323C19.9088 31.2867 19.3067 31.401 19.3067 31.401C19.1343 31.1167 18.9063 30.8415 18.6906 30.5811C18.591 30.4609 18.494 30.3438 18.4062 30.2304C18.2695 30.0526 18.0073 29.7172 17.7557 29.3954L17.7552 29.3948L17.755 29.3945L17.7549 29.3944L17.7532 29.3922C17.4966 29.064 17.2515 28.7505 17.1623 28.6332C16.9854 28.401 15.2779 26.647 15.2779 26.647C15.2198 26.7346 15.1687 26.7944 15.1197 26.8518L15.1197 26.8518C15.0409 26.9442 14.9674 27.0303 14.8783 27.2159C14.8289 27.317 14.5622 27.8433 14.2299 28.499L14.2293 28.5003L14.2289 28.5009L14.2288 28.5013C13.5774 29.7866 12.6748 31.5675 12.6622 31.6205C12.5812 31.5839 12.4428 31.5508 12.3075 31.5184C12.183 31.4887 12.0611 31.4595 11.9886 31.4288C11.9511 31.4129 11.9109 31.3965 11.8704 31.3801C11.7494 31.3309 11.6258 31.2806 11.566 31.2372C11.6583 30.9566 11.8071 30.6731 11.961 30.4508C12.0386 30.3382 12.0704 30.3143 12.0922 30.2979C12.1134 30.2821 12.1252 30.2732 12.1601 30.198C12.2021 30.1072 12.3461 29.8411 12.4767 29.5998L12.4769 29.5993L12.477 29.5992C12.5659 29.4348 12.6486 29.282 12.6885 29.2041C12.788 29.0115 14.081 26.4752 14.1225 26.3899L14.1355 26.3629C14.1731 26.2845 14.2109 26.2057 14.2689 26.1207C14.6695 26.1767 15.6975 26.1999 15.9459 26.2026C16.4741 26.6371 16.8456 26.9646 17.3313 27.5351C17.8173 28.105 18.1533 28.4788 18.5216 28.8592C18.6657 29.0077 18.9937 29.3611 19.3471 29.7418L19.3471 29.7419L19.3472 29.742C19.8965 30.3338 20.507 30.9916 20.5824 31.0475ZM14.1458 31.8694C14.209 31.8923 14.289 31.9213 14.4109 31.9247C14.4653 31.9264 14.551 31.9383 14.6509 31.9521C14.8262 31.9765 15.045 32.0069 15.2133 31.9984C15.2133 31.9984 15.266 31.9912 15.5849 31.9989C15.728 32.002 15.7995 31.9981 15.8721 31.9942C15.9367 31.9908 16.0021 31.9872 16.1199 31.9885C16.3685 31.9912 16.6983 31.9489 17.0677 31.8672C17.3397 31.8065 17.4344 31.7887 17.5794 31.7613L17.5794 31.7613L17.5794 31.7613C17.6303 31.7517 17.6873 31.7409 17.7603 31.7268C18.0262 31.6726 18.054 31.6448 17.9732 31.532C17.8918 31.4203 17.7105 31.176 17.5429 30.9556C17.3743 30.7352 17.2406 30.576 16.9864 30.3133C16.8765 30.2008 16.7185 30.0478 16.559 29.8935L16.5589 29.8935L16.5589 29.8934L16.5589 29.8934L16.5588 29.8934L16.5588 29.8934L16.5588 29.8934L16.5587 29.8932C16.3465 29.688 16.1319 29.4803 16.0247 29.3621C15.8388 29.1562 15.6522 28.9493 15.4914 28.7514C15.455 28.783 15.3998 28.8884 15.3414 28.9998L15.3413 28.9999L15.3413 28.9999L15.3413 29L15.3413 29L15.3412 29.0001C15.3049 29.0694 15.2673 29.1411 15.2323 29.1987C15.1718 29.2971 15.0864 29.4873 15.0131 29.6505C14.9753 29.7347 14.9408 29.8116 14.9145 29.8652C14.8903 29.9146 14.8382 30.0272 14.7735 30.1669L14.7734 30.1671L14.7734 30.1671C14.6315 30.4736 14.4292 30.9107 14.3287 31.0982C14.2605 31.2244 14.2162 31.33 14.1738 31.4314C14.1248 31.5483 14.0782 31.6596 13.9998 31.7906L13.9884 31.8275L14.0472 31.8418C14.0776 31.8447 14.1088 31.856 14.1458 31.8694ZM16.0286 22.5439C16.0159 22.5112 15.9933 22.4595 15.967 22.3992L15.967 22.3992C15.9191 22.2894 15.8589 22.1513 15.8237 22.0487C15.7693 21.8914 15.6778 21.4891 15.6529 21.3044C15.6455 21.2457 15.6328 21.1565 15.6191 21.0596L15.619 21.0593L15.619 21.0591C15.5893 20.8501 15.5545 20.6057 15.5575 20.5557C15.5631 20.4825 15.5863 20.2119 15.6263 20.0553C15.6389 20.0052 15.6483 19.9631 15.6564 19.9262C15.6738 19.8477 15.686 19.7927 15.7139 19.7348C15.728 19.7055 15.7535 19.6259 15.7803 19.5419L15.7803 19.5419L15.7804 19.5419C15.805 19.4648 15.8309 19.384 15.8502 19.3349C15.8711 19.2806 15.8835 19.2313 15.8958 19.1822L15.8958 19.1822C15.907 19.1377 15.9181 19.0934 15.9354 19.0461C15.9474 19.0123 15.9566 18.9814 15.966 18.9497L15.966 18.9496C15.9797 18.9036 15.9938 18.8558 16.0181 18.7947C16.1225 18.8953 16.1947 19.0388 16.2577 19.1901C16.3213 19.3411 16.3814 19.5485 16.4121 19.7423C16.4441 19.9361 16.4887 20.3714 16.4531 20.6292C16.4406 20.7228 16.4305 20.8224 16.4203 20.9229C16.4023 21.0999 16.3841 21.2796 16.3523 21.4335C16.3433 21.4762 16.3334 21.524 16.323 21.5745L16.3229 21.5751C16.2747 21.8088 16.2147 22.1001 16.1664 22.2111C16.1442 22.2618 16.1303 22.3107 16.1174 22.3561C16.0962 22.4311 16.0777 22.4963 16.0286 22.5439ZM13.7338 20.7256C13.7238 20.8112 13.7328 20.9422 13.7438 21.0347C13.8075 21.0115 13.8585 20.9494 13.9226 20.8663C13.9348 20.8512 13.9515 20.8299 13.9718 20.804L13.9718 20.804L13.9719 20.8039C14.0616 20.6897 14.2214 20.4861 14.3689 20.3327C14.5496 20.1439 14.6267 19.9419 14.6926 19.7488C14.7582 19.5565 14.846 19.2027 14.8629 19.013C14.8758 18.8695 14.8623 18.7864 14.8523 18.7254C14.8491 18.7059 14.8463 18.6887 14.8448 18.6724C14.8329 18.5487 14.816 18.5166 14.7648 18.5741C14.7395 18.5949 14.6473 18.6989 14.5504 18.8083C14.5165 18.8465 14.482 18.8854 14.4496 18.9216C14.3252 19.062 14.1271 19.3431 14.0558 19.5076C13.9853 19.6732 13.8682 19.9494 13.826 20.1471C13.7848 20.345 13.7433 20.6401 13.7338 20.7256ZM12.393 19.6385C12.2744 19.7055 12.1927 19.726 12.2598 19.6407C12.3066 19.5802 12.4129 19.3708 12.4961 19.2071C12.5308 19.1387 12.5615 19.0783 12.582 19.0401C12.6513 18.9092 12.9265 18.4964 13.0446 18.3886C13.0696 18.3653 13.1021 18.333 13.14 18.2953C13.2784 18.1574 13.4901 17.9464 13.6847 17.8328C13.9321 17.6899 13.9506 17.6866 14.0462 17.6698L14.0485 17.6694C14.1161 17.6586 14.108 17.6888 14.0263 17.8294C13.9922 17.8883 13.9667 17.9457 13.938 18.0104C13.898 18.1006 13.8517 18.2051 13.7667 18.3475L13.7603 18.3584C13.6174 18.5983 13.5174 18.7662 13.2566 19.0336C13.0319 19.2636 12.8565 19.3697 12.7163 19.4545C12.6914 19.4696 12.6675 19.484 12.6447 19.4983C12.5605 19.5511 12.514 19.5738 12.4768 19.5919C12.4477 19.6062 12.4243 19.6176 12.393 19.6385ZM12.8912 17.4312C12.7695 17.5083 12.6504 17.5895 12.534 17.6736C12.2608 17.8698 11.9519 17.9488 11.6853 18.0119C11.435 18.0717 11.0932 18.0596 10.8795 18.0521L10.8363 18.0506C10.9012 17.9622 11.1312 17.7937 11.3304 17.6478L11.3304 17.6478L11.3552 17.6296C11.5077 17.5173 11.7136 17.4335 11.8524 17.377C11.9005 17.3574 11.9406 17.3411 11.9676 17.328C12.071 17.278 12.2327 17.1999 12.3569 17.1728C12.4172 17.1597 12.4504 17.1475 12.4815 17.1361C12.514 17.1241 12.5441 17.113 12.6004 17.1028C12.6582 17.0923 12.7093 17.0884 12.7652 17.0843C12.8328 17.0792 12.9073 17.0737 13.009 17.0552C13.1108 17.0365 13.1608 17.045 13.2825 17.0764C13.3213 17.0858 13.3389 17.1071 13.3074 17.1422C13.2893 17.1609 13.2635 17.177 13.2403 17.1916C13.2332 17.196 13.2264 17.2003 13.2201 17.2045L13.2012 17.2182L13.2012 17.2183C13.1866 17.229 13.1723 17.2395 13.1544 17.2509C13.1339 17.2648 13.1157 17.2798 13.0975 17.2949C13.0748 17.3137 13.0521 17.3325 13.0251 17.3488L12.99 17.3701L12.9899 17.3702L12.9898 17.3703C12.9567 17.3903 12.924 17.4101 12.8912 17.4312ZM13.3743 15.8385C13.1882 15.8894 13.0913 15.9245 12.9925 15.9604L12.9925 15.9604C12.953 15.9747 12.9133 15.9891 12.8674 16.0047C12.8032 16.0267 12.7557 16.0363 12.7121 16.0452C12.6474 16.0583 12.5914 16.0697 12.5024 16.1171C12.0481 16.2735 11.7039 16.3029 11.4116 16.3116C11.1191 16.3196 10.7693 16.3247 10.4295 16.2969C10.2276 16.2807 10.0394 16.2467 9.89114 16.22C9.7901 16.2018 9.70766 16.1869 9.65219 16.1833C9.58319 16.1782 9.49258 16.1498 9.4325 16.1309L9.43246 16.1309L9.43244 16.1309L9.43242 16.1309C9.40736 16.123 9.38763 16.1168 9.377 16.1147C9.33992 16.1077 9.32992 16.0874 9.45361 16.0187C9.52657 15.978 9.59464 15.9614 9.65595 15.9465C9.69899 15.936 9.73869 15.9264 9.77442 15.9097C9.89059 15.8556 9.98483 15.8223 10.0715 15.7916C10.1071 15.779 10.1414 15.7668 10.1755 15.7539C10.3453 15.6889 10.6205 15.6137 10.8649 15.5482C11.1074 15.4837 11.3938 15.459 11.5897 15.4726C11.7861 15.4854 12.0201 15.4975 12.1845 15.4958C12.34 15.4942 12.555 15.54 12.7129 15.5736L12.7459 15.5806L12.7634 15.5843C12.913 15.6154 13.1343 15.6615 13.2206 15.7268C13.2719 15.7645 13.2897 15.7773 13.3093 15.7914L13.3093 15.7914L13.3095 15.7915L13.3098 15.7917L13.3099 15.7918C13.3249 15.8026 13.3411 15.8142 13.3743 15.8385ZM16.1403 12.256L16.1606 12.2232C16.1606 12.2232 16.1906 12.1729 16.2267 12.0861L16.2268 12.0859C16.2577 12.0135 16.2843 11.9514 16.2986 11.794C16.3051 11.7233 16.3174 11.6477 16.3296 11.5723L16.3296 11.5723L16.3296 11.5722L16.3296 11.5722L16.3297 11.5721L16.3297 11.5721L16.3297 11.572L16.3297 11.572C16.3425 11.4933 16.3552 11.4148 16.3613 11.342C16.3659 11.2864 16.3757 11.2103 16.3859 11.1303L16.3859 11.1303L16.3859 11.1302L16.3859 11.1301L16.3859 11.13C16.4019 11.0055 16.419 10.8717 16.4196 10.7918C16.4203 10.7337 16.4211 10.6867 16.4218 10.6462V10.6461C16.4236 10.5429 16.4246 10.4825 16.4211 10.3894L16.4211 10.3892V10.3891C16.4167 10.2363 16.402 9.72706 16.3223 9.41091C16.3075 9.35139 16.2952 9.29711 16.2837 9.24625C16.2339 9.02639 16.1987 8.8707 16.0335 8.6342C15.8493 8.82763 15.7985 9.18761 15.7693 9.39398L15.7634 9.43532C15.7324 9.63106 15.7075 9.95828 15.6958 10.2901C15.6797 10.749 15.7261 11.2988 15.78 11.5163L15.7877 11.5475L15.7877 11.5475L15.7877 11.5476C15.8439 11.7751 15.9445 12.183 15.9927 12.2584C16.0689 12.3725 16.0755 12.3617 16.1403 12.256ZM17.2141 12.7315C17.3759 12.6001 17.623 12.3577 17.7638 12.052C17.9035 11.7489 17.9843 11.5273 18.065 11.2832C18.1524 11.0247 18.2524 10.3586 18.2524 10.3586C18.1156 10.466 17.9539 10.6493 17.8187 10.8025L17.8186 10.8025L17.8186 10.8026L17.8184 10.8028C17.7368 10.8953 17.6648 10.9768 17.614 11.0239C17.4766 11.1491 17.3358 11.4529 17.2797 11.6162C17.2462 11.7129 17.2052 11.8784 17.168 12.0287L17.168 12.0287C17.1426 12.1312 17.119 12.2267 17.1007 12.2883C17.0692 12.4015 17.0715 12.4295 17.0751 12.4741C17.0763 12.4894 17.0777 12.5067 17.078 12.53C17.078 12.587 17.0943 12.6832 17.1126 12.7129C17.1316 12.7426 17.1553 12.7525 17.2141 12.7315ZM18.7806 12.518C18.3832 12.844 18.1432 13.2802 18.0651 13.5603C18.0651 13.5603 18.1841 13.5652 18.3542 13.4948C18.524 13.4248 18.7711 13.2334 18.9843 13.0649C19.1794 12.911 19.2492 12.8261 19.3595 12.6918L19.392 12.6524C19.4853 12.5393 19.5654 12.3705 19.6264 12.2421L19.6264 12.242C19.6504 12.1915 19.6714 12.1471 19.6891 12.1149C19.7022 12.0904 19.7171 12.0658 19.7309 12.0429L19.731 12.0427L19.731 12.0426C19.7813 11.9592 19.8181 11.8981 19.7089 11.9453C19.6448 11.9725 19.6088 11.9915 19.5685 12.0127L19.5685 12.0127C19.5204 12.038 19.4662 12.0665 19.351 12.1161L19.3442 12.1191C19.2781 12.1476 19.2368 12.1654 19.1979 12.1874C19.1333 12.224 19.0754 12.2723 18.9213 12.401C18.8814 12.4342 18.8351 12.4729 18.7806 12.518ZM18.9552 14.6068C18.9375 14.6119 18.9199 14.6173 18.9023 14.6227C18.8533 14.6377 18.8044 14.6528 18.7532 14.6611C18.7466 14.6621 18.7398 14.6634 18.7328 14.6646C18.6881 14.6728 18.6394 14.6817 18.6463 14.6229C18.6519 14.5778 18.6719 14.5268 18.6929 14.4857C18.7038 14.4633 18.7144 14.4387 18.7254 14.4135L18.7254 14.4134L18.7254 14.4134C18.7489 14.359 18.7737 14.3017 18.8054 14.2561C18.8453 14.1958 18.9006 14.1536 18.9571 14.1104L18.9806 14.0925C19.1289 13.9779 19.2823 13.8665 19.4568 13.7938C19.5744 13.7456 19.6489 13.7008 19.7211 13.6572C19.7738 13.6255 19.8254 13.5944 19.8918 13.5632C20.0496 13.4881 20.155 13.4427 20.3399 13.398C20.5229 13.3537 20.668 13.3349 20.7554 13.3291L20.6949 13.4088C20.5059 13.6586 20.3651 13.8446 20.1142 14.027C19.8371 14.2281 19.5551 14.4243 19.3921 14.4738C19.3308 14.4924 19.269 14.5116 19.2102 14.5298C19.1113 14.5605 19.0208 14.5886 18.9552 14.6068ZM21.819 16.0543C22.2176 16.0169 22.6543 15.8837 22.9441 15.7846C22.9441 15.7846 22.8997 15.7324 22.8577 15.6926C22.8153 15.6534 22.748 15.5964 22.5723 15.5355C22.441 15.4904 22.233 15.4382 22.0596 15.3948L22.0595 15.3948L22.0593 15.3947C21.9976 15.3792 21.9403 15.3649 21.8924 15.3523C21.7106 15.3028 21.5201 15.2825 21.3113 15.2641C21.1565 15.2507 21.0515 15.2451 20.8926 15.2366L20.8924 15.2366L20.8924 15.2366C20.8366 15.2336 20.7743 15.2303 20.7009 15.2262C20.5433 15.216 20.2657 15.2421 20.0224 15.3059C19.874 15.3458 19.5612 15.4544 19.3032 15.544C19.1396 15.6008 18.998 15.65 18.9344 15.6691C18.7962 15.7116 18.8577 15.77 18.906 15.8159L18.906 15.8159L18.9192 15.8285C18.9233 15.8326 18.9271 15.8365 18.9305 15.8402C18.9722 15.8886 19.1542 15.9466 19.2274 15.9594C19.2555 15.9646 19.2895 15.9737 19.3295 15.9844C19.3931 16.0014 19.4719 16.0225 19.5669 16.0386C19.7214 16.0657 20.13 16.1099 20.6113 16.1058C21.0932 16.1019 21.422 16.093 21.819 16.0543ZM21.659 17.8237C21.3868 17.8379 21.0677 17.8329 20.7673 17.7794C20.4665 17.7268 20.1523 17.6236 19.9615 17.5371C19.77 17.4505 19.3675 17.2637 19.2457 17.1705C19.126 17.0764 19.1089 16.9974 19.1089 16.9974C19.2419 16.9658 19.3609 16.9697 19.4796 16.9736C19.5087 16.9745 19.5378 16.9755 19.567 16.9759C19.5861 16.9761 19.607 16.9761 19.6294 16.976C19.7813 16.9756 20.005 16.975 20.2316 17.0576C20.4002 17.1193 20.5768 17.2051 20.7314 17.2802C20.8164 17.3215 20.8948 17.3596 20.9615 17.3887C21.1487 17.4713 21.4309 17.6084 21.5219 17.6753C21.6114 17.7432 21.659 17.8237 21.659 17.8237ZM19.8041 19.6762C19.8917 19.7491 20.0722 19.8374 20.1679 19.8726C20.1505 19.7815 20.1242 19.7013 20.0288 19.5529L20.0052 19.5161C19.8857 19.33 19.755 19.1264 19.4994 18.8608C19.2264 18.5773 18.9361 18.3642 18.7736 18.2605C18.7003 18.2139 18.6332 18.1779 18.5698 18.144L18.5697 18.1439C18.4922 18.1024 18.4202 18.0639 18.3491 18.0123C18.2201 17.9195 18.2479 18.0058 18.4042 18.2641C18.4442 18.3307 18.49 18.4083 18.5375 18.4889C18.6748 18.7218 18.8264 18.979 18.8924 19.0614C18.9822 19.1723 19.1561 19.2902 19.3355 19.3944C19.3877 19.4249 19.4417 19.4553 19.4942 19.4848C19.6222 19.5568 19.7413 19.6237 19.8041 19.6762ZM18.245 21.1692C17.9251 20.8135 17.5929 20.363 17.3904 19.8582C17.1869 19.3517 17.152 19.0537 17.1303 18.8633C17.1228 18.7995 17.1223 18.6049 17.1223 18.6049C17.1195 18.5245 17.1288 18.534 17.1836 18.5899C17.1961 18.6026 17.211 18.6178 17.2286 18.6349C17.3789 18.7756 17.534 18.9772 17.6718 19.1564L17.6718 19.1565L17.6719 19.1565L17.7083 19.2038C17.7734 19.2891 17.7971 19.3271 17.8142 19.3545C17.8353 19.3883 17.8464 19.406 17.9127 19.4766C18.0325 19.6052 18.1923 19.908 18.2279 20.2229C18.2322 20.2607 18.2368 20.2997 18.2416 20.3396C18.2763 20.6307 18.3162 20.9654 18.245 21.1692ZM13.4834 14.6498L13.5668 14.6568C13.7423 14.6519 13.6249 14.5839 13.5094 14.517C13.494 14.5081 13.4787 14.4992 13.4641 14.4905C13.3407 14.4166 13.0833 14.2399 12.8025 14.0202C12.5815 13.8476 12.4217 13.8048 12.2688 13.764L12.2688 13.764L12.2688 13.764C12.2265 13.7527 12.1849 13.7415 12.1426 13.7278C12.0171 13.6863 11.7658 13.6361 11.5907 13.6012L11.5907 13.6011L11.5906 13.6011C11.4947 13.582 11.4217 13.5674 11.4048 13.5613C11.3933 13.5569 11.3845 13.5533 11.3769 13.5502L11.3768 13.5502L11.3768 13.5502C11.3488 13.5386 11.3356 13.5332 11.2519 13.5171L11.2265 13.5141C11.1757 13.5078 11.1465 13.5042 11.0401 13.5195C11.0401 13.5195 11.0818 13.5915 11.1082 13.6217L11.1144 13.6293L11.1265 13.6443L11.1265 13.6443C11.1643 13.6914 11.2357 13.7804 11.3155 13.8407C11.4015 13.9066 11.4972 13.965 11.6 14.0278L11.6 14.0278L11.6 14.0278L11.6 14.0278C11.6872 14.081 11.7793 14.1372 11.8747 14.2037C12.084 14.3499 12.3555 14.4344 12.6854 14.5268C12.9773 14.6082 13.2582 14.6313 13.4834 14.6498ZM14.1772 13.7888C14.0694 13.7395 13.9338 13.6621 13.8189 13.5965C13.7641 13.5652 13.714 13.5366 13.6739 13.515C13.6539 13.5045 13.6327 13.4934 13.6104 13.4818C13.4927 13.4206 13.3459 13.3443 13.2116 13.2472C13.0518 13.1325 12.862 12.9918 12.7359 12.8548L12.7231 12.8412C12.6033 12.7143 12.5413 12.6487 12.4136 12.4229C12.3243 12.2644 12.2393 12.0964 12.1795 11.9783L12.1795 11.9783C12.151 11.9219 12.1283 11.8769 12.1135 11.8497L12.1091 11.8414C12.0655 11.7597 12.0247 11.6832 12.2562 11.7699C12.394 11.8221 12.473 11.8607 12.5479 11.8973L12.5479 11.8973C12.6033 11.9243 12.6564 11.9502 12.7293 11.9797C12.8555 12.0311 12.9736 12.1203 13.0521 12.1796L13.0521 12.1796L13.0522 12.1796C13.0797 12.2005 13.1024 12.2176 13.1189 12.2281C13.1825 12.2663 13.3087 12.3647 13.3514 12.4135C13.396 12.464 13.4497 12.5215 13.5885 12.6624C13.7266 12.8035 13.8695 12.9908 13.9837 13.2192C14.0955 13.4473 14.1518 13.6066 14.1633 13.6716C14.1672 13.6909 14.1772 13.7888 14.1772 13.7888ZM14.078 11.8989C14.2148 12.1867 14.4915 12.5925 14.7538 12.8656C14.7538 12.8656 14.7711 12.7198 14.762 12.576C14.754 12.4657 14.7331 12.3508 14.7141 12.2464C14.7083 12.2146 14.7027 12.1838 14.6976 12.1543C14.6858 12.0868 14.6659 12.0308 14.6417 11.9626C14.6285 11.9255 14.614 11.8847 14.5988 11.8365C14.5784 11.7722 14.5437 11.7134 14.5091 11.6545C14.4818 11.6082 14.4544 11.5618 14.4339 11.5125C14.3863 11.402 14.2344 11.1285 14.0763 10.9238C14.0377 10.8738 14.0023 10.8262 13.968 10.7804C13.8627 10.6393 13.7691 10.5139 13.634 10.3793C13.634 10.3793 13.6169 10.4156 13.6359 10.5221C13.6557 10.6282 13.7047 10.8757 13.7747 11.1038C13.845 11.3336 13.9428 11.6106 14.078 11.8989Z" fill="#473729"/>
</svg>
