<svg width="32" height="32" viewBox="0 0 32 32" fill="none" xmlns="http://www.w3.org/2000/svg">
<path fill-rule="evenodd" clip-rule="evenodd" d="M31.7049 19.3458L32 17.9718V17.9625H26.4392L27.8501 11.3135H24.2536L23.0916 16.7637C23.0271 15.6571 22.1326 15.03 20.6663 14.8086L16.5072 14.1723C16.166 14.1262 16.083 13.9602 16.1383 13.702C16.2213 13.3239 16.6455 13.0565 17.7153 13.0565C18.1118 13.0565 18.5084 13.1118 18.7942 13.2501C19.0986 13.3793 19.2738 13.6098 19.1908 13.9787H23.3683C23.6542 12.0605 22.2063 11 18.1579 11C15.1977 11 12.7631 11.6363 12.2651 13.9879C11.9885 15.2605 12.5049 16.2842 14.2017 16.5516L18.1764 17.1602C18.6375 17.234 18.7481 17.5014 18.6928 17.7689C18.6006 18.2023 18.2317 18.5066 17.1066 18.5066C16.5441 18.5066 16.166 18.4421 15.9262 18.313C15.7049 18.1746 15.6311 17.9718 15.6865 17.6674H11.5735L10.2179 11.3135H7.16542C7.16542 11.3135 6.35389 11.3043 5.91124 11.5256C5.52392 11.7193 5.02594 12.5308 5.02594 12.5308L0 20.4063H3.80865L4.41729 19.3643H8.16138L8.31816 20.4063H12.136L12.0161 19.8346C12.9937 20.5816 14.7643 20.7291 16.4795 20.7291C20.0115 20.7291 22.0035 19.936 22.7689 18.2576L22.3078 20.4156H30.0265C30.0265 20.4156 30.7458 20.4248 31.1793 20.1942C31.6219 19.9637 31.7049 19.3458 31.7049 19.3458ZM7.11931 15.3343C8.55793 15.2513 9.73833 15.8138 9.73833 15.8138C9.73833 15.8138 9.36023 15.8507 9.08357 16.0536C8.80692 16.2565 8.65014 16.7452 8.65014 16.7452C8.65014 16.7452 7.97694 16.3118 6.80576 16.2565C5.11816 16.1735 4.19597 16.819 4.19597 16.819C4.19597 16.819 4.94294 15.4634 7.11931 15.3343Z" fill="#00539B"/>
</svg>
