<svg width="32" height="32" viewBox="0 0 32 32" fill="none" xmlns="http://www.w3.org/2000/svg">
<path fill-rule="evenodd" clip-rule="evenodd" d="M22.951 15.7568C22.951 19.3293 20.0549 22.2261 16.4816 22.2261C14.6617 22.2261 13.0182 21.475 11.8419 20.2658C11.7833 20.2056 11.703 20.1711 11.6188 20.1711C11.5345 20.1711 11.4543 20.2056 11.3957 20.2658C10.2201 21.475 8.57668 22.2261 6.75672 22.2261C3.18341 22.2261 0.28656 19.3293 0.28656 15.7568C0.28656 12.1835 3.18341 9.28662 6.75672 9.28662C7.83201 9.28662 8.8455 9.54982 9.73702 10.0136C9.81326 10.053 9.86943 10.122 9.8935 10.2046C9.91677 10.2873 9.90554 10.3755 9.8614 10.4494L8.86155 12.1321C8.7781 12.2717 8.60316 12.3239 8.45792 12.2533C7.94355 12.0029 7.36658 11.8625 6.75672 11.8625C4.60615 11.8625 2.86243 13.6062 2.86243 15.7568C2.86243 17.9074 4.60615 19.6511 6.75672 19.6511C7.69158 19.6511 8.54859 19.3205 9.22025 18.7716C9.29247 18.7122 9.33419 18.6239 9.33419 18.5309V17.3521C9.33419 17.1795 9.19457 17.0407 9.02284 17.0407H7.05443C6.8819 17.0407 6.74308 16.9011 6.74308 16.7294V14.7698C6.74308 14.598 6.8819 14.4584 7.05443 14.4584H9.8927C10.0363 14.4584 10.1615 14.3605 10.1952 14.2209C10.8845 11.389 13.4371 9.28662 16.4816 9.28662C20.0549 9.28662 22.951 12.1835 22.951 15.7568ZM12.5873 15.7568C12.5873 17.9074 14.3311 19.6511 16.4816 19.6511C18.6322 19.6511 20.3751 17.9074 20.3751 15.7568C20.3751 13.6062 18.6322 11.8625 16.4816 11.8625C14.3311 11.8625 12.5873 13.6062 12.5873 15.7568Z" fill="#EB7302"/>
<path d="M27.1655 14.5114C26.5845 11.5343 23.9629 9.28662 20.8157 9.28662C20.0549 9.28662 19.3263 9.41822 18.6482 9.65896C19.8952 10.1027 20.9665 10.9172 21.7272 11.9708C23.4381 12.3817 24.71 13.92 24.71 15.7568C24.71 17.9074 22.9662 19.6511 20.8157 19.6511C18.6651 19.6511 16.9214 17.9074 16.9214 15.7568C16.9214 14.4087 17.6067 13.2202 18.6474 12.5213C18.0287 12.1056 17.2833 11.8625 16.4816 11.8625C16.1671 11.8625 15.8621 11.9002 15.5692 11.97C14.7997 13.0349 14.3455 14.3429 14.3455 15.7568C14.3455 19.3293 17.2423 22.2261 20.8157 22.2261C23.9629 22.2261 26.5845 19.9793 27.1655 17.0014V14.5114Z" fill="#B0B0B3"/>
<path d="M27.5924 19.4881C27.4206 19.4881 27.2818 19.3493 27.2818 19.1768V9.80012C27.2818 9.6284 27.1422 9.48877 26.9705 9.48877H25.0173C24.8448 9.48877 24.7059 9.6284 24.7059 9.80012V21.7526C24.7059 21.9243 24.8448 22.064 25.0173 22.064H31.5621C31.7338 22.064 31.8726 21.9243 31.8726 21.7526V19.7995C31.8726 19.6277 31.7338 19.4881 31.5621 19.4881H27.5924Z" fill="#EB7302"/>
</svg>
