<svg width="32" height="32" viewBox="0 0 32 32" fill="none" xmlns="http://www.w3.org/2000/svg">
<path fill-rule="evenodd" clip-rule="evenodd" d="M6.05385 10.8071C3.09442 11.7564 1.13589 13.2648 0.161621 14.7266C0.561814 6.61545 7.26524 0.161621 15.4746 0.161621C23.6914 0.161621 30.3982 6.62543 30.7884 14.7458C27.8206 11.5018 21.3976 9.62063 14.69 9.62063C11.4236 9.62063 8.20873 10.1148 6.05385 10.8071ZM27.0053 24.6407C27.0053 27.1667 21.1913 30.8258 15.4746 30.8258C8.32937 30.8258 2.32565 25.9387 0.625046 19.3243C2.00284 20.6704 4.65942 21.6713 7.36924 21.6713C8.66102 21.6713 9.97162 21.5565 11.3521 21.4355C12.8879 21.301 14.5102 21.1588 16.2891 21.1588C22.7113 21.1588 27.0053 22.4692 27.0053 24.6407Z" fill="url(#paint0_radial)"/>
<path d="M6.46483 12.5701C3.48211 13.5769 1.12256 15.6111 1.12256 16.9448C1.12256 18.4782 4.22426 19.9899 7.43495 19.9899C9.52493 19.9899 11.902 19.5489 15.7932 19.5489C25.0675 19.5489 28.4729 22.0599 28.4729 24.2531C28.4729 27.1068 24.57 29.5962 20.8052 30.6478L20.7769 31.2843C27.898 29.4323 31.4897 25.4761 31.4897 20.2387C31.4897 17.7893 30.5953 15.854 28.1676 14.398C25.1224 12.5701 19.994 11.3804 14.8797 11.3804C11.981 11.3804 8.84519 11.7681 6.46483 12.5701" fill="url(#paint1_linear)"/>
<path d="M6.39413 13.7167C4.16853 14.5545 2.31317 16.1345 2.31317 16.9673C2.31317 17.8193 4.76341 18.801 5.90741 18.801C8.86268 16.424 14.6759 13.8057 21.6979 13.8057C23.2604 13.8057 24.605 14.0503 26.4129 14.4422C24.0667 13.2682 19.8135 12.3306 15.5761 12.3306C11.9544 12.3306 8.67465 12.8597 6.39413 13.7167" fill="url(#paint2_linear)"/>
<path d="M5.2019 8.90839C5.2019 9.61892 5.34917 10.3053 5.61957 10.9526C5.76184 10.9035 5.90578 10.8553 6.05387 10.807C8.20875 10.1148 11.4236 9.62059 14.69 9.62059C18.4582 9.62059 22.1364 10.2146 25.1633 11.3104C25.5385 10.5591 25.7448 9.75038 25.7448 8.90839C25.7448 4.91729 21.1464 1.68164 15.4738 1.68164C9.8012 1.68164 5.2019 4.91729 5.2019 8.90839" fill="url(#paint3_linear)"/>
<defs>
<radialGradient id="paint0_radial" cx="0" cy="0" r="1" gradientUnits="userSpaceOnUse" gradientTransform="translate(15.4755 15.4939) scale(15.3229 15.3416)">
<stop stop-color="#3C9776"/>
<stop offset="0.899994" stop-color="#108565"/>
<stop offset="0.899994" stop-color="#108565"/>
<stop offset="1" stop-color="#108565"/>
</radialGradient>
<linearGradient id="paint1_linear" x1="-7.02194" y1="19.5282" x2="9.14914" y2="41.2607" gradientUnits="userSpaceOnUse">
<stop stop-color="#4DBF5D"/>
<stop offset="0.75" stop-color="#37A961"/>
<stop offset="1" stop-color="#108565"/>
</linearGradient>
<linearGradient id="paint2_linear" x1="-1.51581" y1="11.5594" x2="-1.31371" y2="19.2623" gradientUnits="userSpaceOnUse">
<stop stop-color="#B8E5B1"/>
<stop offset="1" stop-color="#5EC569"/>
</linearGradient>
<linearGradient id="paint3_linear" x1="5.20212" y1="1.68166" x2="5.20212" y2="11.3104" gradientUnits="userSpaceOnUse">
<stop stop-color="white"/>
<stop offset="1" stop-color="#3C9776"/>
</linearGradient>
</defs>
</svg>
