<svg width="32" height="32" viewBox="0 0 32 32" fill="none" xmlns="http://www.w3.org/2000/svg">
<path d="M5.24766 3.29506C8.03227 0.99977 11.7199 -0.133845 15.3135 0.0125854C20.3349 0.0821398 25.1902 2.83625 27.9334 7.02782C30.6667 11.0547 31.3586 16.3652 29.8052 20.9704C28.6155 24.5958 26.0652 27.755 22.768 29.6769C18.679 32.1089 13.4465 32.5543 9.05119 30.6922C10.0921 30.8557 11.1024 31.1864 12.1616 31.2449C18.4471 32.0576 25.0865 28.7337 28.0078 23.0693C30.2872 18.8289 30.3312 13.4793 28.0639 9.22427C26.4117 5.99792 23.5649 3.42441 20.2141 2.05163C16.3117 0.411608 11.7565 0.409167 7.8529 2.04797C6.94381 2.3811 6.15431 2.9595 5.24766 3.29506Z" fill="#FF1B16"/>
<path d="M7.85289 2.04804C11.7565 0.409241 16.3117 0.411681 20.2141 2.0517C23.5649 3.42449 26.4117 5.998 28.0639 9.22435C30.3312 13.4794 30.2872 18.829 28.0078 23.0693C25.0865 28.7337 18.4471 32.0577 12.1616 31.245C13.0036 30.857 13.9639 31.2035 14.8523 31.0071C17.2867 30.7508 19.6747 29.965 21.7369 28.6349C25.8785 26.0358 28.6497 21.2768 28.596 16.3567C28.6789 13.5489 27.8321 10.7472 26.3348 8.38359C24.2812 5.16579 20.9682 2.77653 17.261 1.85646C13.0756 0.765555 8.44715 1.53553 4.85595 3.95163C4.43496 4.24938 4.01398 4.54956 3.57835 4.82656C3.97981 4.18714 4.5936 3.66488 5.24765 3.29514C6.1543 2.95957 6.9438 2.38117 7.85289 2.04804Z" fill="#FBE11B"/>
<path d="M4.85595 3.95146C8.44715 1.53536 13.0756 0.765379 17.261 1.85629C20.9682 2.77636 24.2812 5.16561 26.3348 8.38342C27.8321 10.747 28.6789 13.5487 28.596 16.3565C28.6497 21.2766 25.8785 26.0356 21.7369 28.6347C19.6747 29.9648 17.2867 30.7506 14.8523 31.0069C12.4801 31.1533 9.99321 30.9203 7.8236 29.9001C8.70829 30.0917 9.59053 30.3016 10.4874 30.4309C10.9682 30.6518 11.5063 30.5871 12.0188 30.5932C17.3306 30.8312 22.7034 27.9502 25.3086 23.2864C26.9376 20.6018 27.3721 17.362 27.006 14.2797C26.2519 9.42917 22.79 5.13999 18.2287 3.33889C16.6509 2.76903 14.9706 2.10888 13.2671 2.38832C12.5838 2.4115 11.8992 2.3334 11.2147 2.37489C10.6131 2.37611 9.97125 2.26629 9.41237 2.54939C8.58992 2.84103 7.71012 2.95695 6.90963 3.31937C5.11342 3.93804 3.57102 5.08141 2.12502 6.2797C2.55577 5.74645 3.05486 5.26689 3.57834 4.82638C4.01397 4.54938 4.43496 4.2492 4.85595 3.95146Z" fill="#269F04"/>
<path d="M9.41238 2.54944C9.97126 2.26634 10.6131 2.37616 11.2147 2.37494C10.6168 2.46036 10.0164 2.54334 9.41238 2.54944Z" fill="#012FF6"/>
<path d="M13.2672 2.38848C14.9706 2.10904 16.6509 2.7692 18.2287 3.33906C22.79 5.14015 26.2519 9.42934 27.006 14.2798C27.3721 17.3622 26.9376 20.602 25.3086 23.2865C22.7034 27.9503 17.3306 30.8314 12.0188 30.5934C11.5063 30.5873 10.9682 30.652 10.4874 30.4311C13.5185 30.6691 16.6363 30.0565 19.2488 28.4677C23.438 26.0101 26.1896 21.228 26.0688 16.3567C26.1213 13.4879 25.1451 10.6374 23.4953 8.30304C21.1573 4.94979 17.2964 2.85217 13.2672 2.38848Z" fill="#012FF6"/>
<path d="M11.5307 5.11309C16.8095 4.51761 22.1164 8.03438 23.9297 12.9825C25.4465 16.9752 24.7058 21.7744 21.9297 25.0447C19.6222 27.905 15.9505 29.6499 12.2665 29.523C10.5021 29.5572 8.78761 29.0544 7.10732 28.5798C4.83643 27.8196 2.55212 26.4785 1.4185 24.2881C0.603373 21.9623 0.958466 19.0984 2.66438 17.2522C3.35504 16.3504 4.85473 16.6457 5.3892 15.578C5.68817 14.9837 5.70891 13.8721 4.86205 13.7561C3.80654 13.3876 2.47524 13.3193 1.77726 12.3309C2.83766 12.1832 3.94808 12.337 4.98652 11.9978C5.42459 11.6744 5.62593 11.0289 6.21043 10.9215C6.78761 10.8532 7.50146 11.1961 7.92123 10.6286C8.03227 10.7775 8.14087 10.9264 8.25192 11.0777C8.63874 10.9642 8.91329 10.6665 9.14392 10.3504C9.2147 10.5066 9.28791 10.6616 9.36235 10.8178C9.70402 10.6164 10.0164 10.3712 10.3007 10.0942C10.4777 10.4712 10.3178 10.8275 10.0884 11.1363C10.2922 11.5865 9.87607 11.9062 9.8053 12.3236C9.75161 12.8739 9.03654 12.9874 8.956 13.545C8.61921 14.1454 8.69243 14.9312 9.4441 15.1362C9.30377 15.5133 8.98529 15.7647 8.65948 15.9782C8.61433 16.4919 8.86082 16.8946 9.36479 17.0325C9.16711 17.5109 8.40811 17.6963 8.58993 18.304C8.70463 18.6249 9.12806 18.5346 9.39041 18.6201C9.22568 18.8617 9.0402 19.0886 8.84252 19.3034C8.99261 20.5688 9.55271 21.8879 10.6546 22.603C11.6808 23.2619 13.0109 23.1277 14.1067 22.7226C15.4185 22.3248 16.6009 21.5108 17.3904 20.3833C19.272 17.2741 18.668 12.9117 15.9432 10.4785C13.3477 8.03194 9.3538 7.63657 6.11769 8.92394C9.91634 6.58106 15.2684 7.43157 18.2299 10.7482C18.9609 11.4377 19.3818 12.3614 19.9968 13.1411C19.322 9.86475 16.8047 7.11186 13.7492 5.84158C13.0353 5.52432 12.2653 5.36812 11.5307 5.11309Z" fill="#C29003"/>
<path d="M6.96577 29.6245C7.26351 29.6709 7.55759 29.7526 7.8236 29.9003C9.99321 30.9204 12.4801 31.1535 14.8523 31.0071C13.9639 31.2035 13.0036 30.857 12.1616 31.245C11.1024 31.1864 10.0921 30.8557 9.05118 30.6922C8.30804 30.4543 7.57833 30.1138 6.96577 29.6245Z" fill="#C29003"/>
</svg>
