<svg width="32" height="32" viewBox="0 0 32 32" fill="none" xmlns="http://www.w3.org/2000/svg">
<path fill-rule="evenodd" clip-rule="evenodd" d="M0.830261 29.4636H26.5904L31.9017 3.03955C29.401 3.15022 26.3851 3.26101 23.8844 3.37157C21.74 3.46637 20.8691 4.62105 19.4201 6.49198L3.6851 26.8079C2.88937 27.8354 1.98111 28.6448 0.830261 29.4636Z" fill="#33327E"/>
<path fill-rule="evenodd" clip-rule="evenodd" d="M10.9344 17.8045L14.9456 12.665C15.2826 12.7176 15.5398 12.8302 15.7123 13.0062V12.3511L18.8844 12.0068L20.0895 24.1092C20.2953 26.1764 19.2856 27.5437 16.1237 27.9013C14.4383 28.0919 12.9422 27.8874 11.5381 27.3834L12.4004 25.4872C16.0154 26.4716 17.173 25.1654 16.6415 23.8673C16.1818 24.3844 15.7524 24.7606 14.952 24.9014C13.4917 25.1584 11.7385 24.8224 11.4354 22.177L10.9344 17.8045ZM15.8193 15.3939L16.4351 21.6546C16.5358 22.6785 14.9879 22.8308 14.8872 21.8068L14.2713 15.5462C14.1706 14.5223 15.7185 14.3701 15.8193 15.3939Z" fill="white"/>
<path fill-rule="evenodd" clip-rule="evenodd" d="M23.074 11.4678L25.138 11.2648C26.9353 11.088 28.5104 12.4183 28.7273 14.2112L29.0483 16.8649L27.42 25.2295C27.2163 25.2917 26.7614 25.5166 26.5422 25.5403L24.5594 25.7553C22.764 25.9501 21.0657 24.5943 20.8889 22.7969L20.1276 15.0571C19.9508 13.2598 21.2767 11.6445 23.074 11.4678ZM25.1706 14.4221L25.9455 22.2995C26.044 23.3007 24.5304 23.4496 24.432 22.4484L23.6571 14.571C23.5587 13.5699 25.0722 13.4209 25.1706 14.4221ZM23.887 25.4537L24.0923 23.3559L24.6255 23.3143L25.0647 25.3618L24.6419 25.3947L24.5807 25.0252L24.3065 25.0466L24.2885 25.4223L23.887 25.4537ZM24.3311 24.6677L24.5254 24.6528L24.4261 24.0244C24.4192 23.9826 24.4124 23.9376 24.4056 23.8895C24.3987 23.8416 24.3887 23.7687 24.3759 23.6714C24.3748 23.7273 24.3729 23.7854 24.3708 23.8458C24.3683 23.9063 24.3656 23.968 24.363 24.0318L24.3311 24.6677ZM25.3321 25.3267L25.2034 23.2536L25.6745 23.2246L25.803 25.2977L25.3321 25.3267ZM26.498 23.9854C26.5902 23.9756 26.6519 23.9565 26.6834 23.9279C26.715 23.8997 26.729 23.8524 26.7253 23.7855L26.7188 23.6683C26.715 23.5992 26.6967 23.5524 26.6641 23.5278C26.6317 23.5036 26.5726 23.4943 26.4872 23.5003L26.4714 23.5013L26.498 23.9854ZM26.1537 25.2519L26.04 23.1789L26.6366 23.1374C26.7907 23.1266 26.9088 23.1552 26.9904 23.2236C27.0718 23.292 27.1166 23.3998 27.1247 23.5473L27.1324 23.6862C27.1383 23.7941 27.1253 23.8803 27.0931 23.9449C27.0608 24.0091 27.0055 24.0615 26.9273 24.1016C27.0089 24.1236 27.0693 24.1644 27.1083 24.2227C27.1474 24.2815 27.1697 24.367 27.1758 24.4788L27.2022 24.9582C27.2052 25.0138 27.2108 25.058 27.2191 25.0907C27.2274 25.1236 27.2386 25.1518 27.2538 25.1755L26.8324 25.2047C26.8208 25.1834 26.8116 25.1554 26.8054 25.1208C26.7989 25.0862 26.7939 25.0354 26.7902 24.969L26.7683 24.5695C26.762 24.4565 26.7423 24.3847 26.7091 24.3536C26.6758 24.3221 26.6112 24.3093 26.5161 24.3142L26.5659 25.2232L26.1537 25.2519Z" fill="white"/>
</svg>
