<svg width="32" height="32" viewBox="0 0 32 32" fill="none" xmlns="http://www.w3.org/2000/svg">
<path fill-rule="evenodd" clip-rule="evenodd" d="M11.6317 26.2566C11.6317 26.8444 11.194 27.3216 10.6596 27.3216C10.1248 27.3216 9.69176 26.8444 9.69176 26.2566C9.69176 25.6711 10.1248 25.1904 10.6596 25.1904C11.194 25.1904 11.6317 25.6711 11.6317 26.2566Z" fill="#C4122F"/>
<path fill-rule="evenodd" clip-rule="evenodd" d="M11.6317 10.9349C11.6317 11.5232 11.194 12.001 10.6596 12.001C10.1248 12.001 9.69176 11.5232 9.69176 10.9349C9.69176 10.3482 10.1248 9.86987 10.6596 9.86987C11.194 9.86987 11.6317 10.3482 11.6317 10.9349Z" fill="#C4122F"/>
<path fill-rule="evenodd" clip-rule="evenodd" d="M7.16701 25.0508C7.77618 25.0508 8.26754 25.5908 8.26754 26.2531C8.26754 26.9194 7.77618 27.4612 7.16701 27.4612C6.56315 27.4612 6.06966 26.9189 6.06966 26.2531C6.06966 25.5908 6.56315 25.0508 7.16701 25.0508Z" fill="#C4122F"/>
<path fill-rule="evenodd" clip-rule="evenodd" d="M7.16701 21.3623C7.70348 21.3623 8.1386 21.843 8.1386 22.425C8.1386 23.0127 7.70348 23.4876 7.16701 23.4876C6.63373 23.4876 6.19861 23.0127 6.19861 22.425C6.19861 21.843 6.63373 21.3623 7.16701 21.3623Z" fill="#C4122F"/>
<path fill-rule="evenodd" clip-rule="evenodd" d="M21.1385 21.3623C21.6745 21.3623 22.1069 21.843 22.1069 22.425C22.1069 23.0127 21.6745 23.4876 21.1385 23.4876C20.6047 23.4876 20.168 23.0127 20.168 22.425C20.168 21.843 20.6047 21.3623 21.1385 21.3623Z" fill="#C4122F"/>
<path fill-rule="evenodd" clip-rule="evenodd" d="M7.16701 17.6755C7.63397 17.6755 8.00859 18.0887 8.00859 18.5968C8.00859 19.1072 7.63397 19.518 7.16701 19.518C6.7043 19.518 6.32967 19.1072 6.32967 18.5968C6.32967 18.0887 6.7043 17.6755 7.16701 17.6755Z" fill="#C4122F"/>
<path fill-rule="evenodd" clip-rule="evenodd" d="M9.82229 22.4249C9.82229 22.9341 10.198 23.3444 10.6596 23.3444C11.1245 23.3444 11.5017 22.9341 11.5017 22.4249C11.5017 21.9192 11.1245 21.5066 10.6596 21.5066C10.198 21.5066 9.82229 21.9192 9.82229 22.4249Z" fill="#C4122F"/>
<path fill-rule="evenodd" clip-rule="evenodd" d="M16.8065 22.4249C16.8065 22.9341 17.1848 23.3444 17.6449 23.3444C18.1086 23.3444 18.4859 22.9341 18.4859 22.4249C18.4859 21.9192 18.1086 21.5066 17.6449 21.5066C17.1848 21.5066 16.8065 21.9192 16.8065 22.4249Z" fill="#C4122F"/>
<path fill-rule="evenodd" clip-rule="evenodd" d="M9.82229 14.7657C9.82229 15.2749 10.198 15.687 10.6596 15.687C11.1245 15.687 11.5017 15.2749 11.5017 14.7657C11.5017 14.2565 11.1245 13.8445 10.6596 13.8445C10.198 13.8439 9.82229 14.2559 9.82229 14.7657Z" fill="#C4122F"/>
<path fill-rule="evenodd" clip-rule="evenodd" d="M16.8065 14.7657C16.8065 15.2749 17.1848 15.687 17.6449 15.687C18.1086 15.687 18.4859 15.2749 18.4859 14.7657C18.4859 14.2565 18.1086 13.8445 17.6449 13.8445C17.1848 13.8439 16.8065 14.2559 16.8065 14.7657Z" fill="#C4122F"/>
<path fill-rule="evenodd" clip-rule="evenodd" d="M11.3739 18.5956C11.3739 18.1632 11.0549 17.8169 10.6596 17.8169C10.2685 17.8169 9.94964 18.1637 9.94964 18.5956C9.94964 19.0262 10.2685 19.3742 10.6596 19.3742C11.0549 19.3748 11.3739 19.0262 11.3739 18.5956Z" fill="#C4122F"/>
<path fill-rule="evenodd" clip-rule="evenodd" d="M2.32022 30.0846C2.32022 30.9063 2.92726 31.5726 3.67386 31.5726C4.42418 31.5726 5.03228 30.9063 5.03228 30.0846C5.03228 29.2628 4.42418 28.5977 3.67386 28.5977C2.92726 28.5982 2.32022 29.2628 2.32022 30.0846Z" fill="#C4122F"/>
<path fill-rule="evenodd" clip-rule="evenodd" d="M2.32022 22.4249C2.32022 23.249 2.92726 23.9153 3.67386 23.9153C4.42418 23.9153 5.03228 23.249 5.03228 22.4249C5.03228 21.6032 4.42418 20.9392 3.67386 20.9392C2.92726 20.9392 2.32022 21.6032 2.32022 22.4249Z" fill="#C4122F"/>
<path fill-rule="evenodd" clip-rule="evenodd" d="M2.32022 14.7658C2.32022 15.5869 2.92726 16.2539 3.67386 16.2539C4.42418 16.2539 5.03228 15.5869 5.03228 14.7658C5.03228 13.9441 4.42418 13.2783 3.67386 13.2783C2.92726 13.2783 2.32022 13.9441 2.32022 14.7658Z" fill="#C4122F"/>
<path fill-rule="evenodd" clip-rule="evenodd" d="M9.30598 30.0846C9.30598 30.9063 9.91144 31.5726 10.6596 31.5726C11.411 31.5726 12.018 30.9063 12.018 30.0846C12.018 29.2628 11.411 28.5977 10.6596 28.5977C9.91144 28.5982 9.30598 29.2628 9.30598 30.0846Z" fill="#C4122F"/>
<path fill-rule="evenodd" clip-rule="evenodd" d="M16.2886 30.0846C16.2886 30.9063 16.8977 31.5726 17.6449 31.5726C18.3968 31.5726 19.0022 30.9063 19.0022 30.0846C19.0022 29.2628 18.3968 28.5977 17.6449 28.5977C16.8983 28.5982 16.2886 29.2628 16.2886 30.0846Z" fill="#C4122F"/>
<path fill-rule="evenodd" clip-rule="evenodd" d="M14.9928 26.2565C14.9928 26.7645 14.6155 27.1783 14.1517 27.1783C13.6911 27.1783 13.3128 26.7645 13.3128 26.2565C13.3128 25.7473 13.6911 25.3335 14.1517 25.3335C14.6155 25.3335 14.9928 25.7473 14.9928 26.2565Z" fill="#C4122F"/>
<path fill-rule="evenodd" clip-rule="evenodd" d="M14.8675 22.4248C14.8675 22.8543 14.5465 23.2058 14.1517 23.2058C13.7622 23.2058 13.4433 22.8543 13.4433 22.4248C13.4433 21.993 13.7622 21.645 14.1517 21.645C14.546 21.645 14.8675 21.993 14.8675 22.4248Z" fill="#C4122F"/>
<path d="M14.7333 18.5956C14.7333 18.2441 14.4733 17.959 14.1517 17.959C13.8323 17.959 13.5733 18.2447 13.5733 18.5956C13.5733 18.9454 13.8323 19.2323 14.1517 19.2323C14.4733 19.2323 14.7333 18.9454 14.7333 18.5956Z" fill="#C4122F"/>
<path fill-rule="evenodd" clip-rule="evenodd" d="M11.7586 7.10309C11.7586 6.43849 11.2683 5.89844 10.6596 5.89844C10.0552 5.89844 9.5644 6.43849 9.5644 7.10309C9.5644 7.77001 10.0558 8.31123 10.6596 8.31123C11.2683 8.31123 11.7586 7.77059 11.7586 7.10309Z" fill="#C4122F"/>
<path fill-rule="evenodd" clip-rule="evenodd" d="M11.8886 3.27322C11.8886 2.53122 11.3378 1.92773 10.6596 1.92773C9.9836 1.92773 9.43493 2.53122 9.43493 3.27322C9.43493 4.01754 9.98307 4.6222 10.6596 4.6222C11.3378 4.6222 11.8886 4.01696 11.8886 3.27322Z" fill="#C4122F"/>
<path fill-rule="evenodd" clip-rule="evenodd" d="M23.5327 22.4249C23.5327 23.0913 24.0252 23.6296 24.6306 23.6296C25.2387 23.6296 25.728 23.0907 25.728 22.4249C25.728 21.758 25.2382 21.2214 24.6306 21.2214C24.0252 21.2214 23.5327 21.758 23.5327 22.4249Z" fill="#C4122F"/>
<path fill-rule="evenodd" clip-rule="evenodd" d="M29.3511 22.425C29.3511 21.6841 28.803 21.0801 28.1232 21.0801C27.4462 21.0801 26.8954 21.6836 26.8954 22.425C26.8954 23.167 27.4462 23.7716 28.1232 23.7716C28.8024 23.7722 29.3511 23.1676 29.3511 22.425Z" fill="#C4122F"/>
<path fill-rule="evenodd" clip-rule="evenodd" d="M22.2375 10.9349C22.2375 11.6006 21.7472 12.1401 21.1385 12.1401C20.5315 12.1401 20.0391 11.6006 20.0391 10.9349C20.0391 10.2685 20.532 9.73023 21.1385 9.73023C21.7477 9.72964 22.2375 10.2685 22.2375 10.9349Z" fill="#C4122F"/>
<path fill-rule="evenodd" clip-rule="evenodd" d="M25.988 7.10326C25.988 7.92731 25.3788 8.5954 24.6306 8.5954C23.8824 8.5954 23.2733 7.92673 23.2733 7.10326C23.2733 6.2827 23.8819 5.61694 24.6306 5.61694C25.3783 5.61694 25.988 6.2827 25.988 7.10326Z" fill="#C4122F"/>
<path fill-rule="evenodd" clip-rule="evenodd" d="M29.7406 3.2733C29.7406 4.25331 29.0158 5.04536 28.1227 5.04536C27.2318 5.04536 26.5085 4.25273 26.5085 3.2733C26.5085 2.29561 27.2318 1.50415 28.1227 1.50415C29.0158 1.50415 29.7406 2.29561 29.7406 3.2733Z" fill="#C4122F"/>
</svg>
