<svg width="32" height="32" viewBox="0 0 32 32" fill="none" xmlns="http://www.w3.org/2000/svg">
<path d="M14.8872 28.173C14.8872 28.4398 14.7416 28.5369 14.5475 28.5369H12.7263C11.95 28.5369 11.7559 28.3428 11.7559 27.4688V23.0021C11.7559 21.837 11.5618 21.643 10.6388 21.643H5.07973C4.10875 21.643 3.93893 21.8128 3.93893 22.9778L3.93893 27.4931C3.93893 28.3428 3.69634 28.5369 2.91943 28.5369H1.07451C0.831916 28.5369 0.758545 28.367 0.758545 28.1002L0.758545 12.5148C0.758545 12.2479 0.928955 12.1266 1.07451 12.1266H2.89518C3.69634 12.1266 3.93893 12.2971 3.93893 13.2195L3.93893 17.5401C3.93893 18.7785 4.15727 18.8507 5.07973 18.8507H10.663C11.537 18.8507 11.7559 18.6567 11.7559 17.6129L11.7559 4.60554C11.7559 3.75704 11.95 3.53811 12.7263 3.53811H14.5475C14.8386 3.53811 14.8872 3.73219 14.8872 3.97479L14.8872 28.173Z" fill="#6F2C91"/>
<path d="M20.4425 17.9771C20.4425 18.8268 20.4911 18.8996 21.2194 18.8996H23.1371C24.4969 18.8996 24.9821 18.6085 25.54 17.5162L27.4341 13.8258C28.0412 12.6607 28.5991 12.1264 30.0074 12.1264H31.0991C31.2695 12.1264 31.5848 12.224 31.3665 12.6607L28.2104 18.8268C27.8707 19.5067 27.6767 19.9439 27.6767 20.3073C27.6767 20.696 27.8707 21.2546 28.2595 22.0551L31.3422 28.0514C31.4878 28.3674 31.2452 28.5366 31.0026 28.5366H29.8612C28.4293 28.5366 27.8707 28.0999 27.1909 26.7645L25.346 23.0989C24.7637 21.9096 24.2779 21.6185 23.0644 21.6185H21.1709C20.5153 21.6185 20.4425 21.7398 20.4425 22.5894V27.6869C20.4425 28.294 20.1999 28.5366 19.5686 28.5366H17.5539C17.3107 28.5366 17.2621 28.4153 17.2621 28.0999L17.2621 6.9792C17.2621 6.73601 17.3598 6.6153 17.5781 6.6153H19.6656C20.2236 6.6153 20.4425 6.90583 20.4425 7.44013L20.4425 17.9771Z" fill="#6F2C91"/>
</svg>
