<svg width="32" height="32" viewBox="0 0 32 32" fill="none" xmlns="http://www.w3.org/2000/svg">
<path d="M15.9989 23.2348C15.7383 23.3753 13.8657 24.9673 10.1361 24.9673C6.99582 24.9673 3.64208 23.3687 2.59167 23.3994C2.22178 23.3862 1.92213 23.4587 1.68999 23.5624C1.25205 23.7446 0.965022 23.4543 1.00344 23.2073C1.04405 22.9593 1.40352 22.4977 1.66529 22.1651C1.98415 21.7519 2.48411 21.2958 3.01645 20.9325C4.5048 19.9172 5.88449 19.8953 6.49531 20.0045C6.58861 20.0204 6.85533 20.033 7.27681 20.4457C8.2921 21.4193 10.1218 22.6459 11.5289 22.8978C11.6777 22.9143 12.317 22.9779 12.3274 22.7957C12.334 22.6876 12.1562 22.6459 12.0959 22.6322C9.83423 22.1212 8.53028 21.0171 7.28559 19.881C6.2725 18.9579 5.50198 17.8131 4.9208 16.6952C4.46255 15.8078 3.8188 14.0522 2.6493 13.4644C2.38807 13.3371 2.38039 12.8596 2.9259 12.734C3.30567 12.6412 5.61284 12.4255 8.36124 13.9095C9.44239 14.4956 9.79143 15.1481 9.83204 15.3089C9.83204 15.3089 9.8957 15.3463 9.91216 15.6267C10.0576 19.5858 11.8006 20.9139 12.643 21.5252C12.9838 21.7903 13.4102 21.9034 13.5277 21.7859C13.5793 21.7283 13.441 21.6048 13.3493 21.5445C10.9198 19.9441 10.45 17.8576 10.3188 15.6196C10.1915 13.3942 11.13 11.4596 11.7243 9.87964C11.8088 9.65463 12.1529 8.63824 11.8939 7.77443C11.721 7.18885 11.9043 7.0522 12.2259 7.00336C12.553 6.95561 13.0491 7.6279 13.222 7.83754C13.3537 7.99614 13.7928 8.50488 14.4491 9.81049C15.7476 12.386 15.758 15.2371 15.7564 15.5636C15.7333 17.4185 15.3909 17.5311 14.5084 17.9613C13.7724 18.2489 13.3597 18.8389 13.3597 19.4134C13.3597 19.999 13.7977 20.4331 14.5935 20.7734C14.6467 20.7887 14.7405 20.8184 14.7811 20.8294C15.1307 20.915 15.4249 20.837 15.4249 20.7037C15.4249 20.5846 15.078 20.5407 15.078 20.5407C14.3009 20.3492 13.762 19.9107 13.762 19.4113C13.762 18.7324 14.7158 18.0431 15.9369 18.0431H15.9989L16.067 18.0414C17.2831 18.0414 18.2364 18.7285 18.2364 19.4102C18.2364 19.9101 17.6991 20.3475 16.9231 20.5396C16.9231 20.5396 16.5768 20.5846 16.5768 20.7015C16.5796 20.8354 16.8671 20.9139 17.2189 20.8277C17.2628 20.8178 17.3528 20.7893 17.4105 20.7706C18.2068 20.4326 18.6403 19.9963 18.6403 19.4107C18.6403 18.8372 18.2304 18.2494 17.4922 17.9602C16.6092 17.5316 16.2728 17.4158 16.2448 15.5614C16.2415 15.236 16.2563 12.3844 17.5482 9.80994C18.2068 8.50324 18.6436 7.99395 18.7792 7.83699C18.9499 7.6279 19.446 6.95616 19.7764 7.00226C20.1012 7.0522 20.2791 7.18885 20.1056 7.77278C19.8477 8.63879 20.1891 9.65463 20.2758 9.87854C20.8646 11.4596 21.808 13.3925 21.6791 15.6185C21.5512 17.8565 21.0814 19.943 18.6508 21.5417C18.5536 21.6032 18.4247 21.7256 18.4773 21.7854C18.5893 21.9045 19.0168 21.7898 19.3576 21.5258C20.1995 20.915 21.9403 19.5858 22.0863 15.6256C22.1066 15.3468 22.1724 15.3068 22.1724 15.3068C22.2114 15.1476 22.5571 14.4951 23.6366 13.91C26.3911 12.4228 28.695 12.6418 29.0753 12.7323C29.6208 12.8607 29.612 13.3382 29.353 13.4628C28.1802 14.0533 27.5386 15.8062 27.0804 16.6936C26.5025 17.8142 25.7287 18.959 24.7167 19.8821C23.4714 21.0171 22.1653 22.1201 19.9037 22.6333C19.8466 22.6454 19.6655 22.6865 19.6737 22.7968C19.6814 22.9779 20.3208 22.9137 20.475 22.8989C21.8783 22.647 23.7041 21.4199 24.726 20.4457C25.1486 20.0341 25.412 20.0226 25.5092 20.0045C26.1139 19.8975 27.4931 19.9194 28.9842 20.9336C29.5198 21.292 30.0198 21.7514 30.3315 22.1646C30.5938 22.4988 30.9538 22.9604 30.9966 23.2084C31.0345 23.4554 30.7491 23.7441 30.309 23.563C30.0768 23.4609 29.7783 23.3873 29.4079 23.4011C28.3558 23.3692 25.0032 24.9695 21.8618 24.9673C18.1371 24.9651 16.264 23.3753 15.9989 23.2348Z" fill="#D09B2B"/>
</svg>
