<svg width="32" height="32" viewBox="0 0 32 32" fill="none" xmlns="http://www.w3.org/2000/svg">
<path d="M20.0732 16.076H18.1564L17.576 17.3219H16.5537L19.2905 11.7046H20.3926L21.1753 17.3219H20.2329L20.0732 16.076ZM19.9507 15.1389L19.6845 12.8706L18.5184 15.1389H19.9507ZM25.1953 15.6234H22.8206V15.7246C22.81 15.9588 22.8792 16.1931 23.0176 16.3848C23.1294 16.5392 23.3104 16.6351 23.5021 16.6351C23.8429 16.6191 24.1357 16.3955 24.2369 16.0653L25.0835 16.2304C24.9504 16.5818 24.7214 16.8853 24.4179 17.1143C24.1464 17.3113 23.8216 17.4124 23.4915 17.4124C23.0496 17.4284 22.6289 17.2367 22.3414 16.9013C22.0326 16.5126 21.8782 16.0227 21.8995 15.5276C21.8888 15.0058 22.0273 14.4893 22.2988 14.0367C22.6129 13.4776 23.2093 13.1369 23.8535 13.1528C24.2529 13.1369 24.6309 13.3073 24.8812 13.6161C25.1527 13.9888 25.2911 14.4467 25.2592 14.9099C25.2645 15.1442 25.2432 15.3838 25.1953 15.6234ZM24.3913 14.9525V14.8407C24.4073 14.6064 24.3487 14.3668 24.2209 14.1698C24.1091 14.0207 23.9387 13.9355 23.7524 13.9409C23.5447 13.9462 23.3477 14.042 23.2146 14.2071C23.0389 14.4254 22.9271 14.6863 22.9005 14.9685L24.3913 14.9525ZM26.2229 13.2434H27.1068L26.963 14.0474C27.2931 13.4563 27.6499 13.1582 28.0332 13.1635C28.1877 13.1688 28.3367 13.2061 28.4699 13.2806L28.0918 14.1698C28.0066 14.1325 27.9161 14.1166 27.8256 14.1166C27.6392 14.1272 27.4635 14.2018 27.3304 14.3296C27.1547 14.484 27.0163 14.681 26.9364 14.9046C26.8139 15.2773 26.7234 15.6553 26.6702 16.044L26.4412 17.3219H25.4882L26.2229 13.2434ZM28.3048 15.6287C28.2728 14.9791 28.4645 14.3402 28.8532 13.8237C29.1993 13.3818 29.7371 13.1315 30.2961 13.1475C30.754 13.1209 31.196 13.2966 31.5101 13.632C31.8136 14.0101 31.9733 14.484 31.9467 14.9685C31.9627 15.5808 31.7763 16.1878 31.409 16.683C31.0735 17.1515 30.5251 17.4231 29.9501 17.4071C29.6412 17.4124 29.3377 17.3326 29.0715 17.1781C28.8159 17.0237 28.6189 16.7948 28.5018 16.5232C28.3793 16.241 28.3101 15.9375 28.3048 15.6287ZM31.0043 14.8407C31.0149 14.6171 30.9457 14.3934 30.8073 14.2124C30.6848 14.058 30.4985 13.9728 30.3015 13.9781C30.0991 13.9781 29.9075 14.058 29.7637 14.2018C29.588 14.3828 29.4602 14.6011 29.3963 14.846C29.3111 15.0963 29.2685 15.3572 29.2632 15.6181C29.2472 15.8683 29.3218 16.1133 29.4655 16.3156C29.5827 16.4753 29.769 16.5765 29.966 16.5818C30.2376 16.5765 30.4825 16.4274 30.6209 16.1931C30.8872 15.7885 31.0203 15.3199 31.0043 14.8407Z" fill="#2AABE8"/>
<path d="M0 13.0569L14.8659 27.2626C14.8659 27.2626 14.3494 25.7983 14.1258 25.2233C13.1301 22.6409 13.3591 19.6965 14.3494 17.1408C16.197 12.3594 20.3022 8.79201 24.5884 6.21497C25.3923 5.72512 27.8735 4.14376 28.3048 4L0 13.0569ZM9.70117 17.3165L10.7714 11.6992H11.815L10.7448 17.3165H9.70117ZM14.4133 14.1644C14.3228 14.1271 14.2216 14.1111 14.1258 14.1111C13.9288 14.1165 13.7371 14.191 13.588 14.3241C13.4017 14.4785 13.2632 14.6755 13.1727 14.8992C13.0449 15.2666 12.9491 15.6499 12.8905 16.0386L12.6456 17.3165H11.6499L12.422 13.2379H13.3484L13.1993 14.0419C13.5454 13.4509 13.9235 13.1527 14.3281 13.1581C14.4879 13.1634 14.6476 13.2007 14.786 13.2752L14.4133 14.1644Z" fill="#2AABE8"/>
</svg>
