<svg width="32" height="32" viewBox="0 0 32 32" fill="none" xmlns="http://www.w3.org/2000/svg">
<path d="M31.3633 4.18823C31.3324 4.18823 31.2991 4.19062 31.2622 4.19301C30.5451 4.23583 24.8192 4.59849 24.8192 4.59849H24.7942C24.7252 4.59849 24.5266 4.62465 24.2841 4.91006C24.0177 5.2133 11.1838 19.7358 7.57819 23.8147C6.98834 24.483 6.64591 24.8707 6.64591 24.8707C6.64591 24.8707 4.25921 27.4287 0.930634 27.7165H24.6158L31.7866 4.65324C31.7866 4.65324 31.8128 4.58781 31.8104 4.50575C31.808 4.37018 31.7379 4.18824 31.3633 4.18824V4.18823Z" fill="url(#paint0_linear)"/>
<path d="M17.3986 21.2498C16.0221 21.339 14.9938 21.628 14.3031 22.0667C14.1473 22.1618 14.0273 22.2748 13.9737 22.4175C13.8976 22.6161 14.1069 22.8741 14.3555 22.9669C14.6325 23.0751 15.0059 23.1477 15.5922 23.156C16.2796 23.1667 16.6268 23.0347 16.6268 23.0347C16.6268 23.0347 16.7802 22.6494 16.936 22.301C17.0406 22.049 17.2842 21.5108 17.3996 21.2502L17.3987 21.2498L17.3986 21.2498Z" fill="url(#paint1_linear)"/>
<path fill-rule="evenodd" clip-rule="evenodd" d="M24.4874 14.6199C26.5313 14.6447 27.1178 13.9789 27.1247 13.9709H27.1247L27.1249 13.9711C27.0354 14.2525 26.5897 15.4609 26.2415 16.0148C25.7717 16.7723 25.365 17.141 24.9749 17.3621C24.667 17.5358 24.2745 17.7082 23.5015 17.7308C22.9033 17.7483 22.4721 17.6642 21.9436 17.5612C21.7177 17.5172 21.4741 17.4697 21.1921 17.4252C19.909 17.2242 18.6651 17.1469 17.3273 17.5643C16.3521 17.8688 15.7647 18.4693 15.7647 18.4693C15.7647 18.4693 16.8135 16.0624 17.0276 15.6331C17.4533 14.7804 18.8304 14.1359 20.6867 14.1573C21.5652 14.1679 22.1897 14.2903 22.783 14.4066C23.3213 14.5121 23.834 14.6125 24.4874 14.6199ZM24.0034 18.26C24.9417 18.1054 25.2271 17.883 25.2271 17.883C25.2271 17.883 24.6325 19.3458 23.8417 20.2638C22.8772 21.3924 21.9021 21.4827 20.0113 21.3103C17.2464 21.0534 15.3889 21.3876 14.3174 22.069C14.1664 22.1642 14.026 22.3663 13.9559 22.5054C13.9559 22.5054 13.9416 22.3627 14.0522 22.1237C14.315 21.5208 14.7788 20.4624 15.2949 19.4872C15.3948 19.2934 15.5827 19.0996 15.7968 18.9176C16.515 18.3207 18.1371 17.7653 20.0493 17.9306C20.7806 17.9939 21.278 18.0745 21.7089 18.1442C22.1111 18.2093 22.4552 18.265 22.8772 18.2885L22.8963 18.2895C23.2102 18.3061 23.6176 18.3276 24.0034 18.26H24.0034Z" fill="url(#paint2_linear)"/>
<defs>
<linearGradient id="paint0_linear" x1="1.47349" y1="20.347" x2="19.9309" y2="31.919" gradientUnits="userSpaceOnUse">
<stop stop-color="#111247"/>
<stop offset="0.0056" stop-color="#111247"/>
<stop offset="0.6236" stop-color="#1E2368"/>
<stop offset="0.8128" stop-color="#1D2265"/>
<stop offset="0.9602" stop-color="#191D5B"/>
<stop offset="1" stop-color="#171B57"/>
</linearGradient>
<linearGradient id="paint1_linear" x1="13.4409" y1="22.3441" x2="14.9122" y2="24.1227" gradientUnits="userSpaceOnUse">
<stop stop-color="#622A15"/>
<stop offset="0.0686" stop-color="#622A15"/>
<stop offset="0.1639" stop-color="#693118"/>
<stop offset="0.2965" stop-color="#7C431E"/>
<stop offset="0.4558" stop-color="#8D5523"/>
<stop offset="0.659" stop-color="#A6712A"/>
<stop offset="0.8895" stop-color="#C69533"/>
<stop offset="1" stop-color="#C69533"/>
</linearGradient>
<linearGradient id="paint2_linear" x1="13.9753" y1="18.8374" x2="19.1131" y2="24.503" gradientUnits="userSpaceOnUse">
<stop stop-color="#C28127"/>
<stop offset="0.0338" stop-color="#C5862C"/>
<stop offset="0.07" stop-color="#CB9339"/>
<stop offset="0.1234" stop-color="#D6AA5D"/>
<stop offset="0.2" stop-color="#E8CF96"/>
<stop offset="0.2281" stop-color="#E6CB8C"/>
<stop offset="0.275" stop-color="#E1C173"/>
<stop offset="0.3348" stop-color="#D9B049"/>
<stop offset="0.35" stop-color="#D7AB3D"/>
<stop offset="0.66" stop-color="#CD992C"/>
<stop offset="0.98" stop-color="#C27F27"/>
<stop offset="1" stop-color="#C27F27"/>
</linearGradient>
</defs>
</svg>
