<svg width="32" height="32" viewBox="0 0 32 32" fill="none" xmlns="http://www.w3.org/2000/svg">
<path d="M31.2022 23.0338C31.2256 22.9879 31.5402 22.417 31.7703 22.0087C31.766 22.0127 31.7594 22.0145 31.7552 22.0167C31.8128 21.7972 31.3835 21.892 31.6745 21.5902C31.3617 21.0515 31.3538 20.576 30.9417 20.2386L31.1154 20.1283C31.1045 19.9572 30.9983 19.8774 30.9352 19.7633L30.8586 19.9195C30.7433 19.8632 30.829 19.6845 30.8142 19.5653C30.4735 19.4277 30.0711 18.9267 29.885 18.8639C29.7691 18.6122 29.5749 18.5178 29.5667 18.2387L29.5907 18.2227C28.7273 17.4184 28.0826 16.7589 27.0563 16.1553C27.0659 15.9379 26.6922 15.8661 26.9494 15.687L26.9873 15.7055L26.4624 15.2564C26.4291 15.3238 26.4172 15.3999 26.3475 15.3938C25.9774 14.8233 25.406 14.2782 24.8759 13.7826L24.8929 13.7587C25.2994 13.2104 25.8123 12.6351 26.3505 12.0431C26.3507 12.0419 26.3544 12.0392 26.3554 12.0369L26.4438 11.9376C27.1027 11.2106 27.7897 10.4603 28.3517 9.7022C30.1352 7.7268 31.9138 5.59759 30.7688 3.6617C29.2979 2.71505 26.8993 1.30507 24.4064 2.31991C24.3912 2.28261 24.3571 2.2537 24.3538 2.22192C24.0342 2.7838 24.1984 1.90015 23.6745 2.01591C23.4562 1.86242 23.1322 1.859 23.027 1.68366C22.612 2.13342 22.675 1.39798 22.2085 1.57276L22.1351 1.79202C22.1161 1.58777 21.9733 1.76598 21.7442 1.69977C21.749 1.76267 21.8448 1.81122 21.7564 1.88978C21.5363 1.9486 21.768 1.80526 21.5851 1.78639C21.4935 1.80107 21.477 1.87135 21.4245 1.92255C21.4438 1.96427 21.4414 2.01381 21.5127 2.0052C21.3826 2.21155 21.2283 2.19974 21.0173 2.33712C21.0604 2.32278 21.1392 2.27985 21.1806 2.31384L21.1568 2.37155C21.2656 2.28526 21.4739 2.52349 21.4899 2.33867C21.5287 2.32575 21.5661 2.30689 21.5975 2.30291V2.30258C21.7097 1.92024 22.0131 2.31318 22.113 2.31947C22.0243 2.32509 22.0058 2.39042 21.9448 2.41249L21.835 2.33547C21.6581 2.49215 21.9463 2.3636 21.8496 2.4766C21.5944 2.51433 21.6956 2.74043 21.3779 2.6377L21.5036 2.48068C21.4374 2.55262 21.3299 2.58893 21.2329 2.54071C21.2398 2.53166 21.2445 2.52151 21.2518 2.50992L21.1391 2.60526C20.9688 2.61442 21.0385 2.49293 20.9546 2.47262C20.7911 2.49591 20.6949 2.61055 20.6218 2.66827L20.8827 2.69375C20.9818 2.96873 20.5294 2.84625 20.4744 3.10942C20.2811 3.17519 20.2499 2.94093 20.046 3.0932C19.9792 3.10369 20.0138 3.13999 20.006 3.16956C20.0822 3.11174 20.1609 3.08956 20.2603 3.18247L20.1847 3.29039C19.6592 3.39069 20.1285 3.72239 19.6613 3.79169C19.687 3.7694 19.6778 3.73541 19.6858 3.70495C19.6276 3.73993 19.5262 3.74578 19.6 3.79908C19.599 3.79908 19.5982 3.79952 19.5982 3.79952C19.6 3.80184 19.6029 3.80184 19.6058 3.8046C19.6083 3.8057 19.6102 3.80824 19.6151 3.81089C19.6171 3.81022 19.6171 3.81022 19.6191 3.81022C19.7088 3.8505 19.8034 3.80294 19.8913 3.76498C19.9042 3.80294 19.9113 3.842 19.973 3.83461C19.96 3.858 19.9454 3.87599 19.9304 3.89442C19.6613 3.99351 19.2283 4.1054 19.136 4.33138L19.3816 4.30931C19.2393 4.34286 19.1507 4.44327 19.0827 4.49657L19.343 4.52206C19.3674 4.58661 19.3591 4.62799 19.3333 4.66032C19.2946 4.67158 19.2501 4.66727 19.205 4.63273C19.1328 4.68978 18.9261 4.72851 18.9483 4.88454C18.9511 4.88322 18.9542 4.88222 18.9569 4.88222C18.9483 4.89911 18.9407 4.91621 18.936 4.93773C18.7427 5.00349 18.7115 4.77044 18.5073 4.92073C18.4397 4.93265 18.4742 4.96829 18.467 4.99787C18.5418 4.94269 18.6185 4.92007 18.7144 5.0057L18.3144 5.18214L18.2952 5.13955C18.3424 5.10512 18.387 5.06363 18.4291 5.02843L18.2925 4.99522L18.2556 5.05293L18.2508 5.04101C18.1371 5.06297 18.0645 5.12145 18.0252 5.1988L17.8302 5.15224C17.7854 5.05326 18.0128 5.00802 17.9031 4.93144C17.6415 4.95649 17.9564 4.99522 17.8413 5.06716C17.5889 5.16912 17.5924 4.95704 17.5388 4.89348C17.4015 4.89977 17.6177 5.54628 17.7411 5.99461L17.7091 6.00553C17.6978 5.92785 17.4413 5.96559 17.5671 5.85734C17.4966 5.86639 17.4302 5.93745 17.3553 5.88129C17.3703 5.86131 17.3792 5.82435 17.4494 5.81707L17.4179 5.74622C17.0742 5.86407 17.3023 5.49265 17.2205 5.58622L17.0964 5.69337L16.9875 5.61712C16.9845 5.66689 16.8839 5.7172 16.9246 5.75229C16.9952 5.74501 17.0034 5.70893 17.0195 5.68719L17.2134 5.73607L17.1084 5.88581C17.0819 5.87853 17.0307 5.87853 17.0409 5.84366L16.8255 5.91649L17.0198 5.9646L16.9653 6.0638C16.8721 6.17999 16.715 6.15792 16.5949 6.12614C16.605 6.10849 16.5607 6.05022 16.5204 6.00553C15.7963 5.7524 16.0493 5.80029 15.5853 6.0724L15.8178 6.47207C15.7065 6.52989 15.569 6.55207 15.4179 6.55582C14.4959 5.6969 13.4131 4.65127 12.2204 3.36421C11.5852 3.138 11.3676 2.50507 10.723 2.30093C10.6997 1.07147 9.37381 1.03295 8.52228 0.562886C7.16537 -0.29328 5.49806 0.221479 3.98247 0.671907C2.43819 1.07875 0.657669 1.92465 0.061145 3.73618C-0.484289 7.51075 2.7508 9.14496 4.53905 11.4294C5.25541 12.2813 6.09017 13.0007 6.98595 13.6488C6.88399 13.727 6.80785 13.8131 6.76647 13.8458C6.88663 14.1131 5.96636 14.3792 6.14854 14.5619C6.03444 14.5844 6.0383 14.6474 5.95334 14.6771C6.06059 14.6678 6.22556 14.5914 6.40023 14.5307C6.3252 14.6088 6.26628 14.6747 6.20735 14.7358C6.00443 14.7892 5.67262 15.0438 5.77348 15.0464C5.80978 15.0279 5.84255 15.0211 5.87555 15.0205C5.83869 15.0464 5.79786 15.0737 5.75141 15.1017L5.71875 15.1358C5.6777 15.1295 5.63014 15.1498 5.55996 15.2346L5.60454 15.2581L5.59152 15.273L5.67262 15.3159L5.55996 15.3973C5.56327 15.3982 5.56768 15.3982 5.57066 15.3982C5.40283 15.4843 5.28476 15.6288 5.22749 15.6754C5.25817 15.7408 5.22429 15.8065 5.15941 15.8719L5.13557 15.8843L5.15113 15.8791C4.94854 16.0731 4.47505 16.255 4.60934 16.3899C4.4948 16.4133 4.50043 16.4756 4.41381 16.5055C4.60492 16.4892 4.9748 16.2657 5.25541 16.2824C5.2468 16.3188 5.23819 16.3555 5.18964 16.3555C5.14815 16.3949 5.03251 16.4187 5.03582 16.4699L5.03019 16.4735C5.0249 16.4908 5.01486 16.508 5.00393 16.5247L4.79075 16.572C4.6687 16.4669 4.10738 16.8704 4.23439 16.8766C4.39372 16.7894 4.52029 16.9577 4.57822 16.7591L4.71836 16.7843C4.61177 16.8664 4.51312 16.9434 4.48741 17.0153C4.45728 17.0241 4.43301 17.036 4.41039 17.0505C4.43301 17.0484 4.45684 17.0405 4.48586 17.0261C4.47957 17.0455 4.47957 17.0633 4.48873 17.0817C4.36051 17.1402 4.30611 17.222 4.25999 17.3031C4.22148 17.3161 4.18297 17.3255 4.14335 17.3314L4.17292 17.2877C4.11555 17.3245 3.98854 17.3182 3.97044 17.3891C4.06799 17.364 4.15979 17.3408 4.24774 17.3223C4.19433 17.4172 4.14225 17.5086 3.9871 17.5613L4.0489 17.5893C3.80283 18.0318 3.18004 18.2443 2.94865 18.6657C2.61982 18.8106 2.5524 19.1583 2.29717 19.3598L2.46225 19.3835C2.45839 19.3864 2.45364 19.389 2.44868 19.3908L2.51113 19.4175C2.2644 19.8595 1.64172 20.0726 1.41033 20.4937C1.08029 20.64 1.01342 20.9873 0.758193 21.188L1.15687 21.248C1.08161 21.3549 1.0004 21.448 0.849007 21.4991C1.04001 21.4828 1.24195 21.381 1.4399 21.3788L1.14043 21.7573L1.80614 21.5296L1.58214 21.8019L1.97806 21.6352C2.34043 21.5596 2.0863 21.8743 2.23814 21.9356C2.6164 21.8406 2.2932 22.2753 2.70545 22.2L2.46843 22.4435L2.5748 22.4075C2.76272 22.6031 2.3316 22.9628 2.31483 23.1469L2.23814 23.1407C2.0681 23.3128 2.2932 23.3175 2.34705 23.3804C2.39141 23.4793 2.21265 23.5228 2.14732 23.5963L2.38048 23.5642C2.24498 23.7564 2.1503 23.8221 1.9732 23.9794L2.08057 23.9432C2.10937 23.9501 2.15825 23.9494 2.1503 23.9846C2.14732 24.0351 2.06181 24.0635 2.01811 24.0787L2.05099 24.1488C2.00741 24.1637 1.68355 24.1612 1.69778 24.3014C1.91218 24.3917 1.76299 24.1173 1.9433 24.1859C1.94661 24.4115 1.4505 24.6305 1.32581 24.9009C1.16647 25.1515 1.32857 25.2907 0.943573 25.5366C0.882442 25.6223 0.725311 25.8225 0.925476 25.7702L0.509807 26.3836C0.906055 26.3298 0.578883 26.7026 0.724759 26.7501C1.2095 26.7799 0.813035 27.2731 1.28112 27.2114C1.234 27.3247 1.08161 27.4257 1.18357 27.4886C1.39157 27.2376 1.51185 27.5562 1.78683 27.3972C1.85491 27.439 1.78915 27.5104 1.74313 27.5751L2.06468 27.4642C2.21541 27.4127 2.24509 27.5337 2.33568 27.5671L2.19742 27.647L2.44404 27.6443C2.40476 27.7219 2.31979 27.7513 2.27499 27.816C2.41557 27.7997 2.46953 27.701 2.56487 27.6358C2.78975 27.4771 3.1636 27.4797 3.3695 27.4418L3.15665 27.6282L3.7449 27.3953C3.75494 27.4738 3.67328 27.5653 3.53204 27.5815L3.57695 27.6806C3.78451 27.5919 3.91891 27.4486 4.15593 27.4822C4.08741 27.6035 3.97739 27.6903 3.86793 27.7758C3.98578 27.9798 3.87058 28.3294 3.6905 28.4222L3.99262 28.4335L3.91968 28.6536C4.19974 28.6721 4.26197 28.5363 4.47681 28.4637C4.34418 28.7702 4.76912 28.7223 4.87604 28.6849C5.1892 28.6114 5.48117 28.3797 5.8441 28.4688C6.1716 28.3721 6.12945 28.387 6.3657 28.144L6.47759 28.1705C6.51268 28.0291 6.84492 27.9965 6.88178 27.9675L6.79847 27.9464C7.01 27.9239 6.87891 27.7418 7.14782 27.7938L7.14959 27.7949L7.12112 27.8378L7.39676 27.7912C7.46021 27.7758 7.5113 27.7758 7.5551 27.7852C7.22727 27.9184 6.73679 27.9128 6.57568 28.2505L6.80079 28.2556C6.6953 28.4201 6.4425 28.4315 6.22699 28.4903C6.51897 28.4161 6.7764 28.547 6.95284 28.3174C6.802 28.5307 6.74539 28.6811 6.39538 28.784L6.70854 28.7089C6.52426 28.8355 6.48432 29.022 6.45552 29.1757C6.32851 29.1547 6.19179 29.1354 6.10738 29.3227L6.32222 29.2493C6.2655 29.8378 5.2777 29.5723 5.03615 30.0779L5.26192 30.0828C5.15742 30.2492 4.9033 30.2601 4.68801 30.3196C4.97943 30.2448 5.23841 30.3752 5.41386 30.1457C5.26302 30.3592 5.2063 30.5096 4.85684 30.6119L5.1711 30.5373C4.98043 30.6669 4.94324 30.8595 4.91466 31.0165C5.45866 30.8471 5.86683 30.5441 6.11532 30.2154C6.46964 30.0123 6.86423 29.8455 7.0356 29.5092C6.92901 29.0569 7.95863 29.1947 8.114 28.7185C7.8527 28.5792 8.29364 28.348 8.02837 28.308C8.10782 28.2645 8.15428 28.3143 8.23075 28.3192C8.17866 28.2568 8.66804 28.1882 8.46854 28.0765C9.36498 27.5915 9.83229 26.9283 10.6816 26.3925C11.3861 25.6486 12.4224 24.8704 13.3569 24.1445C14.0226 23.8194 15.56 22.4806 17.3349 20.8411C17.6212 21.0699 17.8758 21.3445 18.2294 21.4879C18.1162 22.4564 19.2362 22.229 19.4594 22.7525L19.5354 22.5963C19.5921 22.9276 19.8594 22.9204 20.0604 23.0456L20.0061 23.158C20.7557 23.4395 20.8566 24.5133 21.7989 24.6963C22.4859 26.3884 24.4464 26.599 25.6512 27.7684C26.2272 27.5228 26.6235 27.9923 27.1028 28.0887C27.145 27.6107 27.7251 28.1432 27.7323 27.9806L27.715 27.9169L28.1629 28.0805C28.0547 27.8607 27.6766 27.8988 27.6305 27.5985C27.4158 27.2958 26.868 27.3354 26.7414 27.0347C26.7694 27.0441 26.8156 27.0536 26.8221 27.0136L26.7607 27.0395C26.7519 27.0355 26.7446 27.0332 26.7389 27.03C26.7191 26.9799 26.7112 26.9224 26.7156 26.852C26.7446 26.905 26.8134 26.9463 26.8221 27.0136L26.9125 26.9759C26.9698 27.3387 27.1766 27.2048 27.3211 27.273C27.1681 27.096 26.9783 26.9555 26.8085 26.7666L26.7932 26.6097L27.0803 26.6115L26.9554 26.2736C27.2531 26.3077 27.6567 26.5606 27.7994 26.9072C28.4784 26.7956 29.1451 27.3972 29.7157 27.7034C29.7477 27.6369 29.7811 27.5685 29.8508 27.576L29.9478 27.8173C30.0993 27.7521 30.2352 28.0136 30.3735 28.025L30.3916 27.8401L30.4887 27.8869C30.6062 27.6965 30.4895 27.6392 30.4791 27.4674L30.9009 27.5348C30.8838 27.4721 30.8171 27.4118 30.8806 27.3314C30.9321 27.2733 30.999 27.3344 31.0387 27.3535C31.0343 27.2145 30.9869 26.72 30.8896 26.4781C31.0053 26.5344 31.0595 25.9804 31.2904 26.1471L31.2646 26.0529L31.4963 25.9708C31.4943 26.0257 31.5209 26.0672 31.4804 26.1019L31.5189 26.1213L31.5734 26.0097L31.5338 25.9905C31.9874 25.8517 31.5458 25.5251 31.5854 25.2955L31.8514 25.342C31.6562 25.0533 31.4347 24.9183 31.3823 24.533L31.4539 24.484C31.2358 24.4891 31.2205 24.177 31.0476 24.0372L31.2929 23.8803L31.2504 23.7207L31.18 23.7688C31.3618 23.4441 30.9859 23.4259 31.0727 23.0536C31.103 23.0407 31.1455 23.005 31.2022 23.0338Z" fill="#ED3024"/>
<path d="M6.47614 29.1794C6.56982 29.1503 6.65887 29.1162 6.74284 29.0791C6.69065 29.2117 6.58836 29.1986 6.47614 29.1794Z" fill="#ED3024"/>
<path d="M17.7673 6.40808L17.8166 6.35059C17.8181 6.40499 17.8047 6.42827 17.7673 6.40808Z" fill="#ED3024"/>
<path d="M19.2946 4.69305C19.2522 4.71788 19.1937 4.73388 19.1359 4.75528C19.1392 4.70022 19.1271 4.65785 19.2946 4.69305Z" fill="#ED3024"/>
<path d="M19.266 5.00126C19.23 5.00689 19.1938 5.00909 19.158 5.00744L19.2819 4.96484C19.2783 4.9761 19.2727 4.98857 19.266 5.00126Z" fill="#ED3024"/>
<path d="M19.3459 4.94233C19.3232 4.9228 19.2952 4.9142 19.2624 4.91243C19.2624 4.90007 19.2581 4.88429 19.2501 4.86267C19.2435 4.81941 19.3754 4.84115 19.5003 4.82471L19.3459 4.94233Z" fill="#ED3024"/>
<path d="M19.8034 4.3901C19.7679 4.3923 19.7303 4.38679 19.6944 4.36924C19.7021 4.35964 19.7072 4.35037 19.7122 4.33846L19.6009 4.43368C19.439 4.4424 19.493 4.33239 19.4265 4.30458L19.5258 4.29663C19.491 4.27578 19.4416 4.27633 19.4288 4.24786C19.4752 4.21001 19.524 4.17139 19.5722 4.13343C19.5989 4.12836 19.6242 4.12836 19.6413 4.14303L19.6191 4.19964C19.6838 4.1491 19.7821 4.21167 19.8557 4.23186C19.7871 4.27655 19.7547 4.30778 19.8822 4.32036C19.8549 4.35037 19.8303 4.37266 19.8034 4.3901Z" fill="#ED3024"/>
<path d="M19.6479 4.07511C19.7351 4.01089 19.8253 3.94987 19.9224 3.9043C19.8424 3.99533 19.7529 4.02799 19.6479 4.07511Z" fill="#ED3024"/>
<path d="M20.2377 3.96575C20.2048 3.98153 20.167 3.993 20.1285 3.99973C20.1609 3.96806 20.1976 3.95957 20.2377 3.96575Z" fill="#ED3024"/>
<path d="M20.1085 4.15186L20.0622 4.21828L19.9773 4.25514L20.1085 4.15186Z" fill="#ED3024"/>
<path d="M19.9517 4.16728C19.9589 4.16496 19.9662 4.16221 19.973 4.15967C19.9661 4.16496 19.9589 4.16982 19.949 4.17567C19.9499 4.17291 19.9499 4.17059 19.9517 4.16728Z" fill="#ED3024"/>
<path d="M20.0409 4.47971C20.0225 4.48875 20.0003 4.49306 19.9718 4.49306C20.0199 4.41604 20.0478 4.31805 20.1488 4.35943C20.1234 4.40743 20.0865 4.44715 20.0409 4.47971Z" fill="#ED3024"/>
<path d="M20.1499 4.18039L20.1699 4.15766L20.117 4.14475L20.2339 4.05371L20.3299 4.10248L20.1499 4.18039Z" fill="#ED3024"/>
<path d="M20.6261 3.17086C20.5967 3.05069 20.8644 3.20209 20.7885 3.03425C20.7807 2.97014 21.0716 3.04716 21.1962 2.93947C21.219 2.90769 21.2375 2.87657 21.2477 2.84424C21.2405 2.88749 21.2223 2.91673 21.1962 2.93947C21.0846 3.0892 20.8522 3.215 20.6261 3.17086Z" fill="#ED3024"/>
<path d="M21.0537 3.51033C21.0469 3.50349 21.0407 3.49599 21.0353 3.48926L21.0698 3.49235L21.0537 3.51033Z" fill="#ED3024"/>
<path d="M21.2387 3.11951C21.2264 3.16199 21.2041 3.20227 21.1119 3.2005L21.2387 3.11951C21.254 3.0565 21.2445 2.98732 21.3791 3.02759L21.2387 3.11951Z" fill="#ED3024"/>
<path d="M21.7483 3.00606L21.6883 3.05252C21.7025 3.03696 21.7236 3.02096 21.7483 3.00606L21.8726 2.90796L21.7893 2.88865L21.9343 2.77246C22.0585 2.86614 21.8639 2.93301 21.7483 3.00606Z" fill="#ED3024"/>
<path d="M26.7377 26.7272C26.7377 26.7242 26.7377 26.7219 26.7389 26.7202L26.7422 26.721C26.7407 26.7219 26.7388 26.7242 26.7377 26.7272Z" fill="#ED3024"/>
<path d="M4.8022 30.1094L4.62775 30.2176L4.77859 30.1659L4.8022 30.1094Z" fill="#ED3024"/>
<path d="M19.7122 4.33819L19.7619 4.29736C19.7357 4.30663 19.7224 4.32197 19.7122 4.33819Z" fill="#ED3024"/>
<path d="M18.4669 4.99756C18.4546 5.00716 18.4407 5.01742 18.429 5.02801H18.4306C18.4561 5.02084 18.4648 5.00937 18.4669 4.99756Z" fill="#ED3024"/>
<path d="M5.19305 29.2755L5.47145 29.3447C5.35857 29.3675 5.33419 29.4238 5.25816 29.5307C5.39421 29.5009 5.5253 29.4082 5.63719 29.4345C5.54847 29.5132 5.78627 29.5456 5.59272 29.6119C5.74941 29.7381 5.72227 29.4057 5.93711 29.3318L5.68001 29.4198L5.76177 29.3261C5.64072 29.3352 5.50323 29.1379 5.19305 29.2755Z" fill="#ED3024"/>
<path d="M5.91085 29.2744C5.96922 29.2392 6.13938 29.2301 6.10704 29.1606L5.89154 29.2329L5.91085 29.2744Z" fill="#ED3024"/>
<path d="M6.34129 28.2812L6.1665 28.3883L6.31746 28.3386L6.34129 28.2812Z" fill="#ED3024"/>
<path d="M16.4796 5.96075C16.4664 5.94817 16.4642 5.94651 16.4796 5.96075V5.96075Z" fill="#ED3024"/>
<path d="M6.07927 28.5493C6.055 28.561 6.0305 28.5729 6.00909 28.5893C6.03271 28.574 6.05555 28.5605 6.07927 28.5493Z" fill="#ED3024"/>
<path d="M6.24255 28.9672L6.58837 28.7993L5.98523 28.8924L6.24255 28.9672Z" fill="#ED3024"/>
<path d="M5.57406 28.7422L5.51227 28.7769C5.53367 28.7702 5.55398 28.7577 5.57406 28.7422Z" fill="#ED3024"/>
<path d="M3.59613 17.7127L3.74808 17.6619L4.01522 17.4883L3.59613 17.7127Z" fill="#ED3024"/>
<path d="M19.9708 3.20055C19.994 3.19205 20.0031 3.18135 20.0059 3.16943C19.9926 3.17837 19.9798 3.18874 19.967 3.1989L19.9708 3.20055Z" fill="#ED3024"/>
<path d="M19.7212 3.66064C19.6992 3.67256 19.69 3.6879 19.6857 3.70445C19.7053 3.69353 19.7191 3.67874 19.7212 3.66064Z" fill="#ED3024"/>
<path d="M16.4796 5.96094C16.4889 5.97131 16.5028 5.98687 16.5202 6.00519C16.5213 6.00607 16.5241 6.00739 16.5271 6.00916C16.5016 5.98411 16.4867 5.96921 16.4796 5.96094Z" fill="#ED3024"/>
<path d="M29.7789 18.3959C29.7386 18.3592 29.7001 18.3236 29.6605 18.2866C29.6759 18.3471 29.7005 18.3948 29.7789 18.3959Z" fill="#ED3024"/>
<path d="M19.7021 3.37194C19.8085 3.35108 19.8883 3.26534 19.9671 3.19847L19.8306 3.16504L19.7021 3.37194Z" fill="#ED3024"/>
<path d="M19.1271 4.35037C19.1306 4.34352 19.1338 4.33668 19.136 4.33105L19.0726 4.33668L19.1271 4.35037Z" fill="#ED3024"/>
<path d="M24.3539 2.22163C24.3641 2.20453 24.3743 2.18467 24.3862 2.1626C24.3597 2.18467 24.3521 2.20221 24.3539 2.22163Z" fill="#ED3024"/>
<path d="M21.6266 2.42262L21.7087 2.3296L21.6522 2.31592L21.5782 2.42317L21.6266 2.42262Z" fill="#ED3024"/>
<path d="M21.2516 2.50947L21.3011 2.46875C21.2754 2.47791 21.2625 2.49391 21.2516 2.50947Z" fill="#ED3024"/>
<path d="M21.5976 2.30274L21.6523 2.31587C21.6368 2.30241 21.6171 2.29888 21.5976 2.30274Z" fill="#ED3024"/>
<path d="M21.2602 1.83154C21.2376 1.84379 21.2296 1.85869 21.2244 1.87612C21.2427 1.86432 21.2562 1.84942 21.2602 1.83154Z" fill="#ED3024"/>
<path d="M18.5022 4.01053L18.2435 3.98383L18.2639 4.14096L18.5022 4.01053Z" fill="#ED3024"/>
<path d="M18.3517 4.22496L18.3511 4.22655C18.3622 4.28726 18.6871 4.30336 18.7303 4.12805C18.671 4.13467 18.6378 4.16039 18.6095 4.1823C18.5694 4.21333 18.5392 4.23675 18.4588 4.18753C18.4107 4.19271 18.3784 4.20783 18.3511 4.22655L18.3518 4.22375L18.3517 4.22496Z" fill="#ED3024"/>
<path d="M18.171 4.31842C18.1982 4.31522 18.2174 4.30937 18.2367 4.30176L18.2205 4.30551C18.2034 4.30944 18.1866 4.31329 18.171 4.31842Z" fill="#ED3024"/>
<path d="M4.53972 30.3751C4.53323 30.3792 4.5266 30.383 4.51998 30.3868L4.53972 30.3751Z" fill="#ED3024"/>
<path d="M4.51998 30.3868L4.51631 30.3889C4.50041 30.398 4.4846 30.407 4.47064 30.4185C4.48713 30.4069 4.50366 30.3966 4.51998 30.3868Z" fill="#ED3024"/>
<path d="M4.02142 17.0631L4.1524 17.1325L4.02142 17.2255C4.18877 17.2448 4.25961 17.1803 4.33085 17.1153C4.35591 17.0925 4.38102 17.0696 4.41039 17.0503C4.34666 17.0591 4.30254 17.0297 4.26188 17.0026C4.19574 16.9585 4.13875 16.9205 4.02142 17.0631Z" fill="#ED3024"/>
<path d="M14.774 5.53014L14.7753 5.52704L14.7839 5.52925C14.7817 5.53043 14.7794 5.5319 14.7772 5.53337L14.7721 5.53664C14.7721 5.53429 14.7729 5.53244 14.774 5.53014Z" fill="#ED3024"/>
<path d="M14.7721 5.53664C14.7295 5.56102 14.6837 5.58418 14.6343 5.60581C14.645 5.60256 14.656 5.59973 14.6671 5.5969C14.7117 5.5855 14.7557 5.57422 14.7721 5.53664Z" fill="#ED3024"/>
<path d="M18.3155 4.25338C18.3269 4.24469 18.3383 4.23605 18.3507 4.22795C18.3361 4.27484 18.2873 4.28918 18.2367 4.30176C18.2689 4.28907 18.2922 4.27121 18.3155 4.25338Z" fill="#ED3024"/>
<path d="M18.6328 4.65021L18.6457 4.67801L18.471 4.78692L18.4307 4.7525L18.6328 4.65021Z" fill="#ED3024"/>
<path d="M18.3747 4.90092L18.3547 4.85876L18.1614 4.9253L18.1803 4.96779L18.3747 4.90092Z" fill="#ED3024"/>
<path d="M16.5354 5.9342L16.6669 5.84052L16.6434 5.89734L16.5354 5.9342Z" fill="#ED3024"/>
<path d="M18.4742 4.60529L18.2925 4.74895L18.4425 4.69831C18.4789 4.66995 18.5155 4.6406 18.4742 4.60529Z" fill="#ED3024"/>
<path d="M18.5984 3.88749C18.6308 3.9011 18.6642 3.91512 18.5967 3.94523C18.6065 3.88708 18.5789 3.88732 18.5663 3.88743C18.5586 3.8875 18.5564 3.88752 18.5715 3.8744C18.5517 3.86194 18.5543 3.84552 18.6384 3.81744C18.6024 3.84733 18.5821 3.8648 18.5715 3.8744C18.5783 3.87901 18.5884 3.88327 18.5984 3.88749Z" fill="#ED3024"/>
<path d="M20.1841 2.84995L20.1714 2.82269L19.9688 2.92377L20.0102 2.95831L20.1841 2.84995Z" fill="#ED3024"/>
<path d="M21.2209 1.90479C21.2188 1.93717 21.2168 1.969 21.1534 1.98132C21.0762 1.93387 21.1162 1.91929 21.1679 1.90047C21.1869 1.89355 21.2075 1.88603 21.2244 1.87612C21.2222 1.88538 21.2215 1.89513 21.2209 1.90479Z" fill="#ED3024"/>
<path d="M31.3491 20.2415L31.459 20.3494C31.423 20.3171 31.3698 20.3466 31.3201 20.3742C31.3034 20.3834 31.2871 20.3925 31.272 20.3989L31.3491 20.2415Z" fill="#ED3024"/>
<path d="M5.75154 15.1015C5.74768 15.1037 5.74348 15.1065 5.74017 15.1088L5.79226 15.0585L5.75154 15.1015Z" fill="#ED3024"/>
<path d="M19.9132 3.07218L19.8936 3.03058L19.6998 3.09601L19.7191 3.1396L19.9132 3.07218Z" fill="#ED3024"/>
<path d="M20.5037 2.78925L20.5378 2.8101L20.4016 2.88999L20.3654 2.86914L20.5037 2.78925Z" fill="#ED3024"/>
<path d="M19.5949 3.68634C19.4041 3.70157 19.2552 3.86731 19.3075 3.97953C19.4649 3.92583 19.4517 3.87571 19.439 3.82809C19.4259 3.77854 19.4135 3.73169 19.5949 3.68634Z" fill="#ED3024"/>
<path d="M18.7426 4.59535L18.8603 4.4733L18.8265 4.45355L18.6873 4.58232L18.7426 4.59535Z" fill="#ED3024"/>
<path d="M18.932 4.18972L19.2337 4.03711L19.1445 4.11601L18.932 4.18972Z" fill="#ED3024"/>
<path d="M18.8632 4.7175L18.9994 4.63872L18.9652 4.61731L18.8267 4.6972L18.8632 4.7175Z" fill="#ED3024"/>
<path d="M5.88759 28.5666L5.5741 28.742C5.59544 28.7266 5.61732 28.708 5.63996 28.6887C5.71236 28.627 5.79253 28.5588 5.88759 28.5666Z" fill="#ED3024"/>
<path d="M31.903 21.5643C31.8635 21.625 31.8673 21.6981 31.871 21.7692C31.8721 21.7897 31.8731 21.81 31.8731 21.8298C31.9341 21.7229 31.9806 21.6425 31.9999 21.6122L31.903 21.5643Z" fill="#ED3024"/>
<path d="M31.8731 21.8298C31.8414 21.8839 31.8066 21.9438 31.7703 22.0085C31.8553 21.9666 31.8716 21.9013 31.8731 21.8298Z" fill="#ED3024"/>
<path d="M29.6389 18.1907L29.5908 18.2226C29.6027 18.2332 29.6146 18.2443 29.6265 18.2554C29.6378 18.2659 29.6493 18.2766 29.6605 18.2866C29.6569 18.2718 29.6536 18.2567 29.6504 18.2415C29.6467 18.2246 29.6431 18.2076 29.6389 18.1907Z" fill="#ED3024"/>
<path d="M24.4827 25.3419C24.4859 25.2889 24.5075 25.2583 24.537 25.2365C24.5865 25.2725 24.65 25.2576 24.7492 25.1414C24.7212 25.1651 24.6821 25.1775 24.6425 25.1902C24.6049 25.2022 24.5668 25.2144 24.537 25.2365C24.4939 25.2033 24.4619 25.129 24.4262 25.0459C24.3665 24.907 24.2962 24.7435 24.1458 24.7062L24.0912 24.8195C24.0861 24.8003 24.0448 24.7885 23.9951 24.7742C23.8793 24.741 23.7174 24.6945 23.8569 24.5111C23.5085 24.5948 23.259 24.308 23.0533 24.0715C23.0348 24.0502 23.0164 24.029 22.9985 24.0089C23.004 24.0901 23.0686 24.1385 23.1201 24.177C23.1774 24.22 23.2184 24.2507 23.1429 24.301C23.3221 24.4457 23.5548 24.6243 23.8 24.8124C24.0277 24.987 24.2664 25.1702 24.4827 25.3419Z" fill="#ED3024"/>
<path d="M25.9174 26.0432C25.9427 26.1762 26.0548 26.2655 26.172 26.3588C26.2421 26.4147 26.314 26.472 26.3701 26.5409L26.4246 26.4295C26.4172 26.4258 26.41 26.4217 26.4029 26.4176C26.3988 26.4152 26.3948 26.4128 26.3908 26.4104C26.3475 26.3844 26.3095 26.3615 26.2673 26.4074L26.2248 26.249C26.3588 25.8819 26.1921 25.9402 26.018 26.001C25.9132 26.0376 25.8057 26.0752 25.7597 26.0214C25.8356 25.8954 25.7372 25.8864 25.6304 25.8767C25.5563 25.8699 25.4782 25.8628 25.4517 25.8159L25.4885 25.8884C25.5738 25.8829 25.632 25.9514 25.685 26.0136C25.7549 26.0958 25.8156 26.1671 25.9174 26.0432Z" fill="#ED3024"/>
<path d="M27.321 27.2726C27.3625 27.3206 27.4027 27.3707 27.4359 27.4244C27.409 27.3377 27.3689 27.2954 27.321 27.2726Z" fill="#ED3024"/>
<path fill-rule="evenodd" clip-rule="evenodd" d="M16.9434 9.92385L16.9419 9.92414C16.8139 9.94934 16.6632 9.979 16.0898 10.6496C16.231 10.3888 16.2772 10.1766 16.1036 10.0597C15.9227 9.93665 15.6075 10.0314 15.4311 10.1467C15.3258 10.2151 15.3207 10.2508 15.303 10.3753L15.3012 10.3882C15.2864 10.4766 15.2046 10.6737 15.1491 10.7852L14.974 11.1599C14.408 12.1444 14.056 12.5193 13.8961 12.6896C13.8684 12.7191 13.8464 12.7425 13.8302 12.7618C13.7193 12.8849 13.6261 12.9558 13.5615 12.9681C13.5126 12.978 13.4924 12.9422 13.4968 12.8805C13.5047 12.7859 13.5388 12.6552 13.6149 12.4852C13.7412 12.1978 13.9414 11.7725 14.0985 11.4868C14.1842 11.3164 14.4041 10.9154 14.4041 10.9154C14.6126 10.4502 14.2175 10.2872 13.9868 10.3219C13.9748 10.3237 13.9412 10.328 13.8895 10.3345C13.6543 10.3644 13.0429 10.4421 12.361 10.5584C12.7271 9.02738 12.7735 8.91219 13.0245 8.28945C13.0853 8.13861 13.1581 7.95798 13.2503 7.72026C13.4804 7.12605 13.4544 6.98989 13.2604 6.76434C13.1816 6.67387 13.1405 6.57931 13.1048 6.49747C13.0523 6.37666 13.0117 6.28354 12.8799 6.27209C12.365 6.22608 10.5845 8.79612 9.15087 11.2944C8.47666 11.4973 7.80047 11.7378 7.17768 12.0198C6.77095 12.2063 6.84131 12.543 6.87873 12.7221L6.88041 12.7301C6.93283 12.9769 7.20086 13.0864 7.41404 12.9648C7.73735 12.7833 8.10756 12.611 8.50381 12.4499C8.49145 12.476 8.48748 12.4901 8.49145 12.4884C7.94877 13.5109 7.33923 14.9377 7.13972 15.572C7.02783 15.9263 7.20549 16.2422 7.50927 16.3813C7.8136 16.5197 8.02083 16.3726 8.1229 15.8982C8.25035 15.3066 9.02066 13.4757 9.80014 11.996C9.80014 11.996 9.80477 11.9901 9.8093 11.9808C10.2806 11.8301 10.7562 11.6945 11.2043 11.576C10.9298 12.7408 10.8601 13.2227 10.8628 13.6237C10.8667 14.0182 11.0115 14.4789 11.443 14.4164C11.7944 14.3651 11.8129 14.0873 11.8331 13.7831C11.8377 13.7138 11.8425 13.643 11.8512 13.5733C11.8765 13.3744 11.8969 13.2016 11.9158 13.0413C11.9787 12.508 12.0253 12.1126 12.1818 11.3561C12.187 11.3545 12.1927 11.3432 12.1989 11.326C12.6786 11.215 13.0868 11.1276 13.3728 11.0699C13.3329 11.1573 13.2871 11.2531 13.2383 11.3539C13.0489 11.7384 12.8447 12.2117 12.7148 12.5533C12.5913 12.8947 12.5231 13.1633 12.5056 13.3913C12.4654 13.8953 12.6786 14.1665 13.0563 14.0954C13.3392 14.0428 13.7713 13.6612 14.2583 12.9023C14.2021 13.0839 14.1687 13.232 14.1653 13.3245C14.1507 13.7179 14.3449 14.0411 14.9801 13.6118C15.0431 13.569 15.0517 13.5052 15.0534 13.3805C15.0874 12.9557 15.2587 12.3926 15.6379 11.8171C15.934 11.374 16.1421 11.1223 16.4139 11.0064C16.5882 10.9306 16.7396 10.8909 16.8745 10.8555C17.1114 10.7934 17.2977 10.7445 17.4688 10.5367C17.731 10.2205 17.1842 9.87905 16.9434 9.92385ZM11.414 10.7352C11.0778 10.8026 10.7235 10.8809 10.3588 10.9683C10.987 9.84936 11.6828 8.72616 12.3305 7.84484C12.0089 8.63612 11.6834 9.69808 11.414 10.7352Z" fill="white"/>
<path d="M14.1523 9.24377C14.1755 8.94507 14.4472 8.6564 14.7562 8.59958C15.0669 8.54043 15.2982 8.73508 15.2756 9.03345C15.2507 9.33172 14.9807 9.62148 14.67 9.67941C14.3605 9.73712 14.1284 9.54258 14.1523 9.24377Z" fill="white"/>
<path fill-rule="evenodd" clip-rule="evenodd" d="M24.5569 17.4524C24.7338 17.2585 24.8572 17.0696 24.9954 16.8443C25.1369 16.6132 25.4342 16.6895 25.3556 16.9024C25.286 17.0875 25.1545 17.3861 24.8248 17.7939C24.4147 18.3115 24.0415 18.5655 23.7007 18.612C23.4243 18.6505 23.2333 18.5314 23.1856 18.2764L23.169 18.224C23.1671 18.1782 23.1452 18.157 23.121 18.1622C23.0983 18.1648 23.0828 18.1802 23.0474 18.2153L23.0338 18.2288C22.6903 18.6069 22.4224 18.8394 22.1068 18.883C21.6312 18.9499 21.353 18.5641 21.4218 18.0061C21.2948 18.2016 21.1615 18.388 21.0428 18.5259C20.6683 18.9565 20.3653 19.2275 20.0801 19.267C19.6997 19.3205 19.5001 19.0377 19.5641 18.5373C19.5934 18.3099 19.675 18.0432 19.8131 17.7094C19.9598 17.3729 20.1861 16.9119 20.3943 16.5361C20.56 16.2288 20.7201 15.8804 20.7435 15.7613C20.7637 15.6668 20.7732 15.6479 20.8439 15.6011C20.9301 15.5351 21.1067 15.4592 21.212 15.4496C21.4811 15.4292 21.8398 15.6312 21.6054 16.05L21.5142 16.2095C21.5015 16.2419 21.3402 16.5429 21.2465 16.7105C21.0765 16.9875 20.856 17.4029 20.7163 17.6841C20.6319 17.8505 20.5914 17.9787 20.5795 18.0727C20.5703 18.1344 20.5908 18.1711 20.6388 18.164C20.7047 18.1553 20.8004 18.0881 20.9193 17.9718C21.0382 17.8403 21.1141 17.7528 21.3831 17.3836L21.48 17.2554C21.5561 17.1501 22.1731 16.3185 22.3544 16.1129C22.8506 15.4998 23.4118 15.0667 23.7686 15.017C24.0049 14.9842 24.1973 15.0964 24.2873 15.3225C24.3519 15.5058 24.3654 15.5188 24.5241 15.589C24.7734 15.6923 24.8575 15.7812 24.8412 15.9153C24.8292 16.0086 24.7959 16.0824 24.6349 16.3439C24.5216 16.5445 24.3984 16.7782 24.3094 16.9584C24.1216 17.3435 24.0175 17.605 24.2009 17.6711C24.2699 17.6969 24.3964 17.6272 24.5569 17.4524ZM22.4566 18.066C22.5862 18.0477 22.8108 17.8473 23.0501 17.5294C23.3742 17.1168 23.8758 16.1674 23.9086 15.9087C23.9243 15.7912 23.8908 15.7427 23.8008 15.7553C23.6889 15.7699 23.4382 15.982 23.2009 16.2843C22.8507 16.7177 22.3818 17.5922 22.3455 17.881C22.3302 17.9984 22.376 18.0773 22.4566 18.066Z" fill="white"/>
<path d="M22.3462 14.2695C22.3226 14.5678 22.0515 14.8569 21.742 14.9147C21.4326 14.9732 21.2001 14.7788 21.2227 14.4788C21.2476 14.1806 21.5174 13.8914 21.8278 13.8346C22.138 13.7769 22.3697 13.9706 22.3462 14.2695Z" fill="white"/>
<path fill-rule="evenodd" clip-rule="evenodd" d="M17.1492 16.2067L17.1934 16.2004C17.3792 16.1692 17.9809 16.0967 17.9585 16.3586C17.9245 16.7462 17.7932 16.7741 17.356 16.8668C17.3165 16.8752 17.2745 16.8842 17.2298 16.8939C17.1288 16.916 17.0198 16.9405 16.9075 16.9677C16.8991 16.9946 16.89 17.0109 16.8829 17.0149C16.7279 17.7649 16.6813 18.1594 16.619 18.6861C16.5997 18.8498 16.5787 19.0269 16.5526 19.2308C16.5436 19.3012 16.5389 19.3726 16.5342 19.4427C16.5139 19.7463 16.4955 20.0233 16.1432 20.0746C15.7124 20.1366 15.5634 19.6764 15.5643 19.282C15.5659 18.6465 15.8499 17.4537 15.8999 17.2439C15.9046 17.2239 15.9073 17.2128 15.9073 17.212C15.4686 17.3283 14.9966 17.4609 14.5266 17.6116C13.9703 18.5969 12.9513 20.9656 12.8244 21.5568C12.7227 22.0307 12.5152 22.1771 12.2119 22.0383C11.9073 21.9003 11.7366 21.5857 11.8406 21.2294C12.1052 20.32 13.0488 18.4217 13.1946 18.1283L13.2134 18.0904C12.8168 18.2541 12.4467 18.4326 12.1262 18.6218C11.9278 18.7402 11.6748 18.628 11.6233 18.3799L11.6216 18.3717C11.5841 18.1939 11.5129 17.8561 11.8947 17.6759C12.5141 17.3825 13.1894 17.1386 13.862 16.9367C15.2932 14.4421 17.0677 11.8836 17.5809 11.9295C17.7125 11.9415 17.7533 12.035 17.8062 12.1561C17.8418 12.2376 17.8829 12.3316 17.9608 12.4218C18.1563 12.6473 18.1828 12.784 17.9521 13.3792C17.8596 13.6176 17.7866 13.7986 17.7257 13.9496C17.4753 14.5707 17.4284 14.6871 17.0608 16.2196C17.0908 16.2148 17.1202 16.2107 17.1492 16.2067ZM16.117 16.3858C16.3865 15.3509 16.711 14.2923 17.031 13.5024C16.3865 14.3803 15.6958 15.4978 15.068 16.6132C15.4338 16.5262 15.7865 16.4512 16.117 16.3858Z" fill="white"/>
<path d="M16.8901 19.0611C16.9904 19.549 17.5985 19.6866 17.8779 19.657C18.2315 19.6197 19.2654 19.3843 19.2746 18.2072C19.277 17.9281 19.1202 17.7307 18.9743 17.5471C18.8817 17.4306 18.7935 17.3196 18.7532 17.1968C18.6898 16.9988 18.707 16.5943 19.0036 16.4742C19.3204 16.3464 19.4207 16.5105 19.5227 16.6774C19.5401 16.7059 19.5575 16.7344 19.5761 16.7616C19.6287 16.8388 19.7979 16.8217 19.8549 16.7577C19.9367 16.6712 20.053 16.5419 20.1035 16.3211C20.1489 16.1204 19.9419 15.7804 19.3424 15.8005C19.1329 15.8061 18.8358 15.8444 18.4144 16.2588C18.2199 16.4514 17.6034 17.3249 18.0601 18.0772C18.0892 18.125 18.1279 18.1755 18.1675 18.2272C18.2961 18.3952 18.4349 18.5764 18.289 18.7227C17.9918 19.0193 17.4793 18.5603 17.3834 18.4197C17.3416 18.3559 17.2126 18.2805 17.1306 18.4079C17.0829 18.4805 16.8531 18.9034 16.8901 19.0611Z" fill="white"/>
</svg>
