<svg width="32" height="32" viewBox="0 0 32 32" fill="none" xmlns="http://www.w3.org/2000/svg">
<path fill-rule="evenodd" clip-rule="evenodd" d="M19.0467 15.1539C20.2885 14.0321 21.5701 12.9502 22.8718 11.8684C24.1535 10.8065 25.4964 9.82597 26.9167 8.94398C28.4795 7.9634 30.1222 7.16135 31.8635 6.52051L31.9048 6.58046C31.4226 6.96283 30.903 7.32256 30.4033 7.68228C29.4827 8.36576 28.5794 9.06522 27.6574 9.74469C25.8948 11.0677 24.1934 12.4493 22.3096 14.072C20.1272 16.0145 19.3878 16.8366 16.0424 20.4618C14.6781 22.0632 13.6576 23.9285 13.1366 25.9709C12.4958 24.7492 11.7937 23.5647 11.0129 22.4243C10.7331 21.9846 10.3921 21.5636 10.0936 21.1213C9.43147 20.2193 8.71069 19.3986 7.96993 18.5579C5.9648 16.3143 3.58397 14.4517 0.578278 12.9902C0.898032 12.9502 1.35901 12.9689 2.14374 13.0089C3.20426 13.1927 4.22481 13.6111 5.10679 14.2119C5.64505 14.5716 6.1873 14.9527 6.68824 15.3737C7.77141 16.2344 8.77198 17.1976 9.67128 18.2368C10.3121 18.9803 11.1954 19.4785 12.156 19.5185C12.7756 19.5398 13.3991 19.3973 13.9573 19.0975C14.7807 18.6778 16.2809 17.6173 17.3227 16.6953" fill="#00386C"/>
<path fill-rule="evenodd" clip-rule="evenodd" d="M14.5395 14.7529C14.5395 15.9746 13.5603 16.9365 12.3372 16.9365C11.1382 16.9365 10.1549 15.9746 10.1549 14.7529C10.1549 13.5511 11.1368 12.5679 12.3372 12.5679C13.5603 12.5679 14.5395 13.5511 14.5395 14.7529Z" fill="#F5BA24"/>
</svg>
