<svg width="32" height="32" viewBox="0 0 32 32" fill="none" xmlns="http://www.w3.org/2000/svg">
<path fill-rule="evenodd" clip-rule="evenodd" d="M14.3628 2.64502L0.619659 29.2869H8.20054C6.20659 26.3178 5.67793 21.3822 8.28965 16.6549C11.0835 11.5992 17.4677 6.81131 25.3566 4.64051C25.3566 4.64051 27.6629 7.56559 29.5677 12.7959L31.8298 2.64502H14.3628V2.64502Z" fill="#33AB8F"/>
<path fill-rule="evenodd" clip-rule="evenodd" d="M23.5845 29.2416C23.5845 29.2416 25.1789 26.3617 24.9126 21.8403C24.9126 21.8403 27.2197 19.6695 28.2382 19.1367L26.0671 29.2416H23.5845Z" fill="#33AB8F"/>
<path fill-rule="evenodd" clip-rule="evenodd" d="M13.2116 29.2412H20.8356C23.1399 26.1397 22.875 19.8436 21.3242 15.8994C17.3786 18.162 11.9699 23.6998 13.2116 29.2412Z" fill="#33AB8F"/>
<path fill-rule="evenodd" clip-rule="evenodd" d="M14.7607 18.0714C14.7607 18.0714 14.4519 15.0138 13.8311 13.5503C8.42185 18.3386 7.80098 24.7208 10.639 28.6223C10.1945 23.9683 12.8993 20.1557 14.7607 18.0714Z" fill="#33AB8F"/>
<path fill-rule="evenodd" clip-rule="evenodd" d="M20.4815 13.5502C20.4815 13.5502 18.0431 14.7467 16.9358 16.0775C17.0232 15.1914 15.7809 11.866 15.7809 11.866C15.7809 11.866 17.6876 10.5352 18.6625 10.0034C19.5957 11.1102 20.4815 13.5502 20.4815 13.5502Z" fill="#33AB8F"/>
<path fill-rule="evenodd" clip-rule="evenodd" d="M24.3367 7.52051C25.0043 8.62977 26.1102 10.756 26.1102 10.756C26.1102 10.756 23.5395 11.7763 22.6077 12.3551C22.5646 11.8218 20.9247 8.93926 20.9247 8.93926C20.9247 8.93926 22.875 8.05252 24.3367 7.52051Z" fill="#33AB8F"/>
<path fill-rule="evenodd" clip-rule="evenodd" d="M24.558 18.8247C24.6926 17.8493 23.4959 14.614 23.4959 14.614C24.2059 14.3036 27.1323 13.0195 27.1323 13.0195L28.151 16.3862C28.151 16.3862 25.9761 17.6283 24.558 18.8247Z" fill="#33AB8F"/>
</svg>
