<svg width="32" height="32" viewBox="0 0 32 32" fill="none" xmlns="http://www.w3.org/2000/svg">
<path d="M16.3361 26.5009H18.4776L18.4158 24.3594L16.3404 26.5009H16.3361Z" fill="#E60012"/>
<path fill-rule="evenodd" clip-rule="evenodd" d="M31.5992 14.0282C31.7597 15.0771 31.7912 16.4959 31.6858 17.4889H31.6862C31.1493 19.1726 30.0025 20.5915 28.8058 21.6093C28.8058 21.6145 28.8058 21.639 28.85 21.639C30.1705 20.8188 30.8792 20.0235 31.3794 19.3077C31.4034 19.3077 31.4284 19.3077 31.4284 19.3275C29.9785 26.3406 23.6811 31.7383 16.106 31.7383C8.54978 31.7383 2.24577 26.3406 0.808598 19.3275C0.79354 19.3077 0.808598 19.3077 0.813304 19.3077C1.31872 20.023 2.04672 20.8188 3.35448 21.639C3.38883 21.639 3.4086 21.614 3.38883 21.6093C2.21707 20.5915 1.07589 19.1726 0.526716 17.4889C0.434481 16.4955 0.446716 15.0771 0.607187 14.0282C0.607187 14.0183 0.626951 14.0183 0.626951 14.0282C0.95354 15.5519 1.94648 17.6183 4.06883 19.3082C4.0886 19.3082 4.12342 19.2837 4.09848 19.2686C2.22977 17.2762 1.11919 14.8089 0.946481 12.286C1.28577 10.8983 1.82883 9.54111 2.51966 8.34487C2.51966 8.34487 2.5493 8.34487 2.5493 8.35946C2.16107 10.9195 2.77801 14.3058 5.26366 17.0508C5.28342 17.0508 5.30836 17.0258 5.28342 17.0258C3.14883 13.942 2.58177 10.1915 3.52577 6.81734C6.36907 2.96228 10.9526 0.47052 16.1032 0.47052C21.2721 0.47052 25.8364 2.96228 28.6862 6.81734C29.6237 10.1915 29.0566 13.9416 26.9159 17.0258C26.9065 17.0258 26.9159 17.0508 26.9408 17.0508C29.4387 14.3058 30.0434 10.919 29.667 8.35946C29.6571 8.34487 29.6867 8.34487 29.6867 8.34487C30.378 9.54111 30.9206 10.8983 31.2782 12.286C31.1055 14.8089 29.995 17.2766 28.1201 19.2691C28.0952 19.2837 28.1201 19.3082 28.1399 19.3082C30.274 17.6183 31.2613 15.5515 31.5695 14.0282C31.5794 14.0183 31.5992 14.0183 31.5992 14.0282ZM23.1912 18.0922C19.9775 21.2009 15.203 19.2084 15.6844 15.3905C16.067 12.4418 19.6627 9.51805 22.4142 7.92699C22.4241 7.9124 22.4241 7.90205 22.4142 7.87805C22.0561 7.55711 21.3098 6.77358 20.8354 6.2004C19.515 4.61499 17.1898 4.54111 15.8142 6.28699L7.93707 7.02676C7.91777 7.02676 7.90272 7.0564 7.93707 7.07617L16.3757 7.55711C17.8622 7.63758 18.362 8.99993 16.8999 10.0983C11.5578 14.1505 10.602 18.438 11.7921 21.8362C11.802 21.8559 11.7677 21.8856 11.7625 21.8559C11.2688 21.1595 10.8924 20.3077 10.7079 19.4136C8.12342 17.8159 6.04436 14.7195 6.04436 10.9322C6.04436 5.39899 10.5352 0.853108 16.1051 0.853108C21.6754 0.853108 26.178 5.39899 26.178 10.9322C26.178 13.9053 24.858 16.447 23.1926 18.094L23.1912 18.0922ZM25.1413 27.5308H20.3112L22.0199 23.0588H24.154L22.7785 26.5806H25.4985L25.1413 27.5308ZM17.5662 26.6484L17.5912 27.5308H19.7375L19.306 23.0588H17.4058C17.1658 23.0588 16.8999 23.1943 16.746 23.3853L13.1747 27.5308H14.9324L15.642 26.6484H17.5662ZM10.3065 27.6912C9.7206 27.6912 9.22083 27.623 8.82601 27.5308L9.18366 26.5806C10.1582 26.6978 10.9973 26.6103 11.3117 25.767L12.3545 23.0588H14.4947L13.3597 26.038C12.7554 27.5679 11.3121 27.6912 10.3065 27.6912Z" fill="#E60012"/>
</svg>
