<svg width="32" height="32" viewBox="0 0 32 32" fill="none" xmlns="http://www.w3.org/2000/svg">
<path d="M7.9497 9.22949H10.316V12.6096H9.42099C8.20155 12.6096 7.21393 12.8282 6.45891 13.2657C5.5177 13.809 5.04696 14.6373 5.04696 15.751C5.04696 17.0498 5.47761 17.9709 6.33918 18.5145C7.02827 18.952 8.04253 19.1706 9.38116 19.1706H10.3158V22.471H6.93571C4.85471 22.471 3.24419 21.6691 2.1044 20.0654C1.2162 18.8193 0.772095 17.4079 0.772095 15.8304C0.772095 13.8952 1.42163 12.3113 2.72071 11.0784C4.01978 9.84554 5.76269 9.22949 7.9497 9.22949Z" fill="#244167"/>
<path d="M16.7473 9.22949H19.1134V12.6096H18.2186C16.9992 12.6096 16.0115 12.8282 15.256 13.2657C14.3151 13.809 13.8446 14.6373 13.8446 15.751C13.8446 17.0498 14.2752 17.9709 15.1365 18.5145C15.8259 18.952 16.8399 19.1706 18.1785 19.1706H19.0831L18.0598 22.471H15.7336C13.6523 22.471 12.0421 21.6691 10.902 20.0654C10.0141 18.8193 9.56998 17.4079 9.56998 15.8304C9.56998 13.8952 10.2195 12.3113 11.5183 11.0784C12.8171 9.8458 14.5603 9.22949 16.7473 9.22949Z" fill="#244167"/>
<path d="M22.3342 9.23047H26.5887L31.0221 22.471H18.0598L20.6245 14.201H23.9645L22.6324 19.4097H26.1315L22.3342 9.23047Z" fill="#F62013"/>
</svg>
