<svg width="32" height="32" viewBox="0 0 32 32" fill="none" xmlns="http://www.w3.org/2000/svg">
<path fill-rule="evenodd" clip-rule="evenodd" d="M3.82794 10.3296C3.76495 10.4555 4.10467 10.317 4.15503 10.4932L4.28067 10.6064L4.31839 10.7195L4.36858 10.7699C4.34349 10.8831 4.56985 10.8454 4.49439 10.9712C4.55739 11.034 4.58248 11.1096 4.67057 11.1472C4.74603 11.1221 4.75866 11.1849 4.82148 11.2479C4.75866 11.3611 5.06048 11.3988 5.01011 11.512C4.83412 11.5623 4.9473 11.8138 4.75866 11.8138C4.78375 11.927 4.63285 11.9143 4.63285 11.9143C4.43158 11.9898 4.49439 12.3293 4.24294 12.2288C4.1424 12.4299 3.9034 12.5055 3.81531 12.7066C3.77758 12.7066 3.73985 12.694 3.72722 12.7317C3.68967 12.694 3.61404 12.7443 3.58895 12.757C3.48822 12.9203 3.34995 12.9707 3.22413 13.1342C2.89705 13.2223 2.68332 13.5492 2.35623 13.5743C2.20533 13.5994 2.07951 13.4862 1.95387 13.4738C1.82806 13.3229 1.52624 13.2852 1.48851 13.0462C1.31233 13.0086 1.32497 12.7694 1.1237 12.7443L1.16143 12.7066C1.1237 12.6059 0.935065 12.6185 1.07334 12.4927C0.872247 12.3922 0.897338 12.1909 0.746431 12.04C0.783977 11.9017 0.595523 11.9394 0.570251 11.8513C0.670796 11.7506 0.859612 11.7255 0.846976 11.5495C1.01052 11.386 1.27461 11.3735 1.35006 11.1094C1.56397 10.9836 1.90351 10.8831 2.00406 10.6188C2.06687 10.5813 2.10478 10.6314 2.15496 10.6441C2.29323 10.5813 2.33096 10.3547 2.53223 10.3925C2.59505 10.4302 2.72087 10.3798 2.72087 10.3798C2.70841 10.317 2.84668 10.3547 2.84668 10.3547C3.02286 10.1661 2.94741 10.4177 3.12341 10.2165C3.28695 10.1535 3.23659 10.1661 3.41277 10.2038C3.41295 10.2038 3.66458 10.1535 3.82794 10.3296Z" fill="#EB000C"/>
<path fill-rule="evenodd" clip-rule="evenodd" d="M24.7427 17.8754C24.5666 17.951 24.3404 17.9384 24.1642 17.9384C23.7994 17.7245 23.5227 18.127 23.1454 17.951C22.8311 17.951 22.5795 18.039 22.2526 18.0516C22.1392 17.926 21.9381 17.9637 21.7997 18.0014C21.7369 17.9761 21.6235 17.9512 21.6488 17.863C21.674 17.7622 21.7872 17.7121 21.8751 17.687C21.9004 17.3976 22.2903 17.385 22.328 17.1335C22.5419 16.9951 22.4537 16.7312 22.6929 16.6053C22.743 16.555 22.7306 16.4544 22.6929 16.4041C22.8815 16.2784 22.7934 16.0521 22.9694 15.9387C23.0324 15.8382 23.0575 15.6999 23.0575 15.6118C23.0826 15.5616 23.1329 15.5113 23.1077 15.4358C23.0952 15.31 23.0322 15.1842 22.9064 15.134C22.8185 15.134 22.7304 15.134 22.6676 15.0461C22.5167 14.9957 22.4288 15.134 22.3028 15.134C22.0764 14.958 21.9255 15.2347 21.6991 15.197C21.4726 15.3479 21.1206 15.2096 20.8816 15.2096C20.7684 15.3228 20.6805 15.2221 20.5421 15.2724C20.3911 15.4486 20.1271 15.373 19.9382 15.436C19.5734 15.612 19.1209 15.5744 18.8191 15.8761C18.7436 15.9515 18.6052 15.8508 18.555 15.964C18.3914 15.9138 18.2279 16.0521 18.0266 16.0017C17.9512 16.266 17.6871 16.0017 17.5111 16.1275C17.2723 16.266 17.5488 16.3916 17.5235 16.5676C17.4734 16.8694 17.8757 16.8442 18.0519 16.9826C18.1021 16.9071 18.1274 17.033 18.1904 16.9826C18.3537 16.9071 18.5552 16.9071 18.7436 16.857C18.9196 16.7185 19.1837 16.7815 19.3723 16.6808C19.6364 16.6178 19.9382 16.6178 20.1772 16.4922C20.3659 16.5046 20.5545 16.4544 20.7054 16.4795L20.6679 16.5174C20.5671 16.7438 20.4162 16.9198 20.278 17.0707C20.1772 17.4102 19.9132 17.6491 19.561 17.7245C19.5233 17.8754 19.4101 17.9761 19.4855 18.1521C19.4353 18.2151 19.3599 18.2653 19.2844 18.2653C19.146 18.5294 18.7183 18.5043 18.5927 18.8061C18.7561 18.894 18.5801 19.0325 18.7436 19.1204C18.7561 19.3847 18.9953 19.5356 19.1837 19.6865C19.5357 19.8249 19.9007 19.6488 20.2527 19.6488C20.6175 19.8374 20.9946 19.5103 21.4098 19.5733C21.7995 19.674 22.1013 19.4601 22.5039 19.6235C22.6927 19.5733 22.919 19.6488 23.1201 19.4601C23.4472 19.372 23.4221 19.1708 23.6862 19.1834C23.8371 19.2211 24.0133 19.0955 24.1516 19.0072C24.2898 18.9193 24.4407 18.9318 24.5539 19.0072C24.5539 19.0072 24.9061 19.0702 25.1074 18.9067C25.1074 18.9067 25.4343 18.7305 25.6984 18.7682C25.6984 18.7682 26.0126 18.5166 25.7991 18.215L25.3839 18.1142C25.3841 18.1144 25.0193 17.9007 24.7427 17.8754Z" fill="#EB000C"/>
<path fill-rule="evenodd" clip-rule="evenodd" d="M25.183 17.6743C25.4094 17.4102 25.4848 17.1965 25.7616 17.0203C25.7236 16.794 26.013 16.7687 26.0758 16.5802C26.1766 16.4418 26.3903 16.3916 26.3903 16.1652C26.3526 16.1022 26.0883 16.1149 26.0255 16.1149C25.8493 16.266 25.5978 16.052 25.5099 16.3288C25.2834 16.3288 24.9816 16.3163 24.7805 16.4546C24.5666 16.3288 24.2521 16.4797 24.0888 16.2282C24.0133 16.0394 24.1012 15.9011 24.0258 15.7125C24.1516 15.5616 24.3276 15.3981 24.5413 15.3854C24.642 15.2722 24.8431 15.3603 24.9689 15.2973C25.2583 15.2094 25.5599 15.0834 25.8617 15.1087C26.1258 14.9955 26.3901 15.0585 26.6416 15.0332C26.8426 14.9955 27.0439 14.8697 27.2452 14.9074C27.5093 14.7062 27.7105 15.1211 27.9999 14.9327C28.201 14.9829 28.4023 15.1591 28.616 15.008C28.7795 15.0583 28.9808 15.1087 29.0436 15.2973C29.1443 15.5991 28.7795 15.5867 28.7669 15.8506C28.3394 16.0392 28.3268 16.5299 27.9622 16.7813C27.7105 16.9824 27.61 17.2718 27.371 17.4604C27.371 17.4857 27.3585 17.5234 27.3963 17.5359L27.3208 17.6366L27.3461 17.649L27.2076 17.8252C27.3585 18.0265 27.5598 18.2276 27.8239 18.2027C27.8616 18.19 27.9495 18.2027 28.025 18.2027C28.088 18.0642 28.2515 18.0516 28.3898 18.0138C28.5407 18.1146 28.6792 17.951 28.8299 18.0391C28.981 17.9637 29.1193 18.0138 29.2828 18.0391C29.4337 18.0014 29.5722 17.9761 29.7229 17.9384C29.9115 17.7498 30.1379 18.0768 30.3012 17.8505C30.3642 17.9135 30.4522 17.9512 30.5655 17.9259C30.7666 17.7247 31.0811 18.0768 31.3074 17.838C31.4836 17.8882 31.7224 17.7499 31.8356 18.0014C31.8482 18.1021 31.7728 18.19 31.6973 18.2655C31.5464 18.2153 31.4457 18.429 31.2572 18.3536C31.1691 18.6931 30.7417 18.4541 30.6032 18.7056C30.339 18.9195 29.8862 18.8691 29.6852 19.2087C29.3707 19.0702 29.4586 19.4727 29.1945 19.4226C28.8803 19.3345 28.6537 19.5987 28.3268 19.5482C28.1884 19.5105 28.0501 19.4854 27.8992 19.498C27.7105 19.4603 27.4214 19.3345 27.2576 19.435C27.069 19.372 26.7672 19.5357 26.6036 19.4477C26.2894 19.4477 26.2139 19.7117 25.7612 19.674C25.6227 19.4727 25.0568 19.7746 24.9561 19.4854L24.8052 19.2337C24.7047 19.1707 24.5664 19.1707 24.5034 18.957C24.5034 18.957 24.1889 18.7307 24.4027 18.5043C24.4027 18.5043 25.0065 18.0514 24.9938 17.9888C24.9944 17.9888 25.0446 17.7371 25.183 17.6743Z" fill="#EB000C"/>
<path fill-rule="evenodd" clip-rule="evenodd" d="M5.01012 13.2849C5.24912 13.134 5.50057 13.3226 5.7522 13.3353L5.9912 13.5365C6.09193 13.5492 6.2302 13.612 6.30565 13.4988C6.64519 13.6246 6.90928 13.9264 7.2741 14.0019C7.23637 14.1779 7.4501 14.2407 7.425 14.4169C7.51309 14.6433 7.77718 14.3037 7.78982 14.5678C7.95318 14.681 8.079 14.8823 8.22991 14.9954C8.21727 15.0833 8.28027 15.1211 8.33063 15.1716C8.34309 15.1841 8.36836 15.1967 8.38081 15.2093C8.38081 15.2093 8.43118 15.1086 8.51927 15.1339C8.64508 15.1592 8.73317 14.9956 8.85881 15.1213C9.11044 15.1088 9.13553 14.8949 9.55053 14.9453C9.82725 14.8321 9.94043 15.046 10.1542 14.9075C10.4435 14.9579 10.4435 14.8572 10.7076 14.8698C10.8459 14.7566 11.2231 14.8698 11.3993 14.8321C11.7515 15.0207 11.8017 14.807 12.1414 14.9202C12.4559 14.807 12.7701 14.8949 13.0846 14.9956C13.1853 15.0333 13.3109 15.046 13.4241 15.0586C13.4368 15.1088 13.5373 15.1214 13.5122 15.1465C13.6254 15.2974 14.4177 15.1843 14.4807 15.3729C14.5184 15.461 14.4303 15.5742 14.2543 15.6245C14.1915 15.7126 14.0657 15.7881 14.1034 15.8635C13.9525 16.0772 13.6884 16.1778 13.6003 16.1904C13.5124 16.1402 13.3238 16.3917 13.2104 16.3917C13.0218 16.4419 12.7954 16.5803 12.72 16.7312C12.5566 16.8067 12.3678 16.8193 12.3553 17.071C12.2421 17.1966 12.305 17.1589 12.1163 17.3224C12.0409 17.31 12.0031 17.574 11.9905 17.6244C11.89 17.6746 11.9528 17.75 11.9024 17.8006C11.9526 17.8885 11.827 17.9766 11.89 18.052C11.8647 18.0773 11.9528 18.115 11.9652 18.1528C12.0156 18.2535 12.0784 18.2158 12.1414 18.2031C12.3804 18.2282 12.5564 18.0396 12.8205 17.7755C13.0469 17.612 13.1099 17.6497 13.2355 17.4484C13.3109 17.4231 13.4117 17.3603 13.4368 17.2345L13.6254 17.0961C13.8393 17.0081 13.8393 16.9201 14.053 16.7565C14.3926 16.3666 14.468 16.0772 14.3799 15.8133C14.3926 15.4989 14.7949 15.5994 14.9458 15.3731C15.3107 15.348 15.7004 15.4234 15.9646 15.1844C16.1406 15.3102 16.2665 15.0462 16.4425 15.172C16.6186 15.0965 16.6564 15.109 16.7946 15.2222C16.8952 15.3229 17.1719 15.7754 16.9957 15.9641C16.9833 16.2534 17.2598 16.3917 17.0587 16.769C17.0965 16.8193 17.1844 16.8444 17.1595 16.9201C17.0714 17.071 17.2977 17.1715 17.3228 17.3224C17.436 17.5112 17.7252 17.2596 17.7629 17.574C17.7882 17.7502 17.9893 17.6999 18.09 17.8006C18.2534 17.6999 18.3918 17.8383 18.5553 17.8508C18.5804 17.9892 18.4043 17.9764 18.4169 18.1149C18.203 18.291 18.027 18.4797 17.7504 18.5549C17.5869 18.5927 17.4486 18.8317 17.2349 18.8443C17.0084 19.1586 16.5934 19.0582 16.3796 19.3221C16.1533 19.4983 15.8011 19.3976 15.5749 19.3097C15.424 19.0707 15.0845 19.0958 14.9837 18.8319L15.0718 18.7311C15.0592 18.6304 14.9209 18.643 14.8957 18.5678C14.9083 18.5551 14.9334 18.5425 14.9209 18.5048C14.6191 18.5172 14.9083 18.165 14.6191 18.1149C14.6191 17.9764 14.531 17.901 14.4808 17.7878C14.3424 17.6369 14.1538 17.9513 13.9904 18.0268C13.8897 18.165 13.8142 18.3286 13.6633 18.3788C13.5501 18.4669 13.5124 18.5297 13.3739 18.6178C13.286 18.6808 13.1853 18.7434 13.0972 18.8566C12.9212 19.0579 12.7954 18.995 12.5313 19.2589L12.2295 19.4478C11.9024 19.825 11.6636 19.6992 11.3239 19.8375C11.0598 20.0261 10.7453 19.9507 10.4562 19.9633C10.2172 19.8752 9.94061 19.8752 9.78953 19.6236C9.66389 19.5608 9.63862 19.4602 9.52544 19.3972C9.56316 19.3342 9.46262 19.2716 9.43735 19.1961C9.32417 18.9445 9.37453 18.6176 9.48771 18.3786C9.41226 18.2907 9.66389 18.2026 9.56316 18.039C9.60089 17.7372 10.0536 17.8251 9.96552 17.4858C9.97816 17.2341 10.3932 17.2594 10.3051 17.0204C10.5063 16.706 10.6823 16.5551 10.9338 16.3664L11.11 16.2532C11.3111 16.1902 11.4244 16.0522 11.5376 15.9262C11.8521 15.7752 11.3363 15.8254 11.2482 15.7879C11.0219 15.7626 10.7829 15.8884 10.5692 15.7626C10.217 15.8507 10.0536 15.7752 9.70144 15.8758C9.48753 15.813 9.21099 15.9637 9.07271 16.0267C9.14799 16.2153 9.13553 16.1901 9.26117 16.3662C9.36189 16.5173 9.39962 16.7561 9.28644 16.995C9.37453 17.1334 9.18589 17.2717 9.26117 17.3975C9.09781 17.4603 9.16062 17.7118 8.95935 17.7244C9.00972 18.0011 8.66999 18.1268 8.53172 18.2528C8.22991 18.4414 8.14182 18.7683 7.78982 18.8187C7.60118 19.0829 7.26164 19.1331 7.01001 19.284C6.94701 19.5734 6.6201 19.4225 6.53201 19.6362C6.43147 19.6487 6.33074 19.7241 6.29302 19.8248C5.97856 19.8626 5.73975 20.1014 5.46302 20.2398C5.22403 20.2525 5.0103 20.3153 4.8343 20.4537C4.46949 20.8186 3.85322 20.7054 3.45086 20.9065C3.32522 20.8563 3.19923 20.9819 3.08605 21.0198C2.68369 21.1077 2.25605 21.0951 1.89124 21.2336C1.26252 21.1958 0.495345 21.2083 0.180713 20.6048C-0.020377 20.3785 0.293894 20.2276 0.231076 19.9886L0.293894 19.9384C0.21844 19.7371 0.41953 19.5736 0.5078 19.41C0.721526 19.1584 0.985614 19.0077 1.16179 18.7309L1.1367 18.7057C1.30007 18.58 1.50152 18.4918 1.61452 18.3284C1.63979 18.2529 1.67733 18.1649 1.76542 18.1522C1.7907 18.2026 1.84088 18.1647 1.87861 18.1775C2.15533 17.9259 2.50751 17.8504 2.68351 17.5612C2.87214 17.3726 3.11114 17.3222 3.31241 17.1462C3.52613 17.184 3.68968 16.9701 3.89095 16.8695C3.89095 16.706 4.07958 16.8571 4.11731 16.706C4.31858 16.7186 4.43176 16.5049 4.65812 16.5677C4.68339 16.4922 4.7713 16.4419 4.8343 16.3664C4.69585 16.2408 4.63303 16.0144 4.41931 16.0016C4.46967 15.876 4.34385 15.8254 4.30613 15.7375C3.99167 15.5489 3.86604 15.2344 3.53895 15.0584L3.57668 15.0332C3.38804 14.8947 3.23714 14.6684 3.01077 14.5427C3.09886 14.3541 2.72141 14.1404 2.99814 13.9768C3.38804 14.0272 3.58931 13.6624 3.95395 13.6875C4.15522 13.5115 4.40667 13.3605 4.67076 13.4234C4.73358 13.3983 4.79658 13.3479 4.84694 13.3102C4.89694 13.2725 5.01012 13.2849 5.01012 13.2849ZM3.21168 19.9505C3.38786 19.8499 3.62668 19.938 3.72722 19.7618C4.09204 19.7494 4.09204 19.6234 4.41894 19.5479C4.51949 19.5227 4.74603 19.5479 4.94712 19.4095C5.04767 19.334 5.17348 19.2963 5.28666 19.2712C5.37475 19.2586 5.37475 19.1958 5.45021 19.1579C5.61375 19.0826 5.62639 18.9819 5.6892 18.9315C5.87784 18.7429 5.90311 18.7555 5.91557 18.5669C5.91557 18.3279 5.99102 18.353 5.84011 18.0638C5.76466 18.0134 5.7143 17.8625 5.75202 17.7997C5.56339 17.6361 5.57584 17.5354 5.45021 17.3468C5.32457 16.9318 5.04785 17.3091 4.84658 17.3215C4.74585 17.5103 4.58249 17.2964 4.53213 17.5354C4.50703 17.4977 4.46931 17.4977 4.44422 17.4977C4.38122 17.6235 4.23031 17.5103 4.19258 17.6486C3.96622 17.7116 3.80268 17.8876 3.58895 17.9506C3.38768 18.114 3.12359 18.2022 2.98532 18.4158C2.78405 18.5669 2.73369 18.8181 2.4696 18.8936C2.44451 18.9439 2.35642 18.9566 2.38169 19.032C2.20551 19.0445 2.18042 19.2207 2.13006 19.3591C2.14269 19.4976 1.96651 19.7113 2.19288 19.7868L2.16778 19.8118C2.2936 19.8245 2.2936 20.0508 2.43187 19.9629C2.50733 19.9629 2.53242 20.0508 2.68333 20.0007C2.68351 20.0008 2.84705 20.1518 3.21168 19.9505Z" fill="#EB000C"/>
</svg>
