<svg width="32" height="32" viewBox="0 0 32 32" fill="none" xmlns="http://www.w3.org/2000/svg">
<path d="M0 10.0599C3.16605 11.7391 11.4226 17.8585 20.2039 20.346C20.626 20.4653 21.0447 20.5752 21.4574 20.6756C25.7495 21.7201 29.4512 21.7498 32 21.5414C19.1896 19.3784 15.1366 15.7346 14.5551 14.9467C14.4891 14.8585 14.4589 14.809 14.4589 14.809C14.4212 14.7925 16.5357 12.7426 20.6123 12.7954C25.7052 12.8605 29.1551 14.4133 29.1551 14.4133C27.374 13.3434 25.5642 12.6459 24.0297 12.1942C23.1969 11.9395 22.3755 11.7471 21.571 11.6057C20.6001 11.4269 20.0031 11.3836 20.0031 11.3836C17.3694 11.1063 15.4054 11.6821 13.7676 12.2574C12.2355 12.7945 10.2559 13.8074 7.63218 12.6808C6.50515 12.1975 5.71718 12.0371 4.42086 12.1819C2.37665 11.334 0.834656 10.331 0.0664861 10L0 10.0599Z" fill="url(#paint0_radial)"/>
<defs>
<radialGradient id="paint0_radial" cx="0" cy="0" r="1" gradientUnits="userSpaceOnUse" gradientTransform="translate(23.266 16.9987) scale(13.601)">
<stop stop-color="#00AEEF"/>
<stop offset="0.47582" stop-color="#00AEEF"/>
<stop offset="0.79884" stop-color="#0B4379"/>
<stop offset="1" stop-color="#1E285A"/>
</radialGradient>
</defs>
</svg>
