<svg width="32" height="32" viewBox="0 0 32 32" fill="none" xmlns="http://www.w3.org/2000/svg">
<path d="M31.6455 16.0866C31.6455 24.5089 24.8248 31.3364 16.4048 31.3364C7.98255 31.3364 1.15274 24.5089 1.15274 16.0866C1.15274 7.65763 7.98255 0.830078 16.4048 0.830078C24.8248 0.830078 31.6455 7.65763 31.6455 16.0866Z" fill="white"/>
<path d="M22.9526 6.89075C27.5968 8.31626 30.9756 12.6402 30.9756 17.7625C30.9756 18.5159 30.8989 19.2376 30.7636 19.9391L30.7456 20.0384C30.3937 22.0458 29.5772 23.9021 28.4201 25.472L28.3975 25.4969C30.4321 22.9075 31.6501 19.6325 31.6501 16.0732C31.6501 7.65097 24.818 0.81665 16.389 0.81665C12.5546 0.81665 9.05394 2.23539 6.36983 4.5744L6.33153 4.60829C4.21808 6.54807 2.89859 9.33367 2.89859 12.426C2.89859 13.7004 3.11963 14.9365 3.53916 16.0733L3.55958 16.1274C4.62195 18.4461 6.96546 20.0656 9.68565 20.0656C13.4006 20.0656 16.4185 17.0567 16.4185 13.335L16.3981 10.4389C16.3981 9.11715 17.1424 7.94878 18.2363 7.35331L18.2472 7.35005C19.1021 6.88314 20.0787 6.60797 21.1298 6.60797C21.7636 6.60797 22.3703 6.70271 22.9433 6.8854L22.9523 6.89275" fill="#ED192D"/>
<path d="M4.71876 25.8982C7.51789 29.2274 11.7132 31.3476 16.4048 31.3476C20.2415 31.3476 23.7534 29.9312 26.433 27.5921C28.5825 25.6186 29.9043 22.833 29.9043 19.7429C29.9043 18.4662 29.6787 17.2324 29.2614 16.0934C28.1764 13.7137 25.8396 12.0987 23.1127 12.0987C19.3978 12.0987 16.3844 15.1099 16.3844 18.8248L16.4048 21.7299C16.4048 23.0539 15.6604 24.2178 14.5642 24.8133C13.6985 25.2875 12.7151 25.5604 11.6753 25.5604C11.037 25.5604 10.428 25.4567 9.85733 25.283C5.20354 23.844 1.82473 19.5178 1.82473 14.4045C1.82473 13.6579 1.89904 12.9271 2.03675 12.2211L2.0494 12.1264C2.40353 10.1144 3.22004 8.27166 4.3839 6.69503C2.36835 9.25967 1.1481 12.5347 1.1481 16.0872C1.1481 18.5345 1.72778 20.8555 2.7518 22.908" fill="#1C4E9D"/>
</svg>
