<svg width="32" height="32" viewBox="0 0 32 32" fill="none" xmlns="http://www.w3.org/2000/svg">
<path d="M4.46822 0.15345C4.60839 0.246868 4.76184 0.387011 4.92201 0.473866C5.10222 0.593927 5.23577 0.734129 5.42923 0.907598C5.89641 1.23467 6.41712 1.61502 6.86425 2.01549C7.34477 2.33591 7.67849 2.72963 8.18571 3.03665C9.25348 3.77749 10.1545 4.68518 11.0288 5.65293C11.3291 6.01998 11.7697 6.27356 12.1033 6.67409C12.2102 6.7007 12.2369 6.86755 12.3303 6.95437C12.6173 7.32142 12.8309 7.70855 12.951 8.16237C12.9844 8.28914 13.0378 8.41598 13.0845 8.5361C13.1512 8.86985 13.318 9.15685 13.4048 9.47718C13.7251 10.2046 13.9321 10.9788 14.4393 11.6262C14.7863 12.2869 15.3937 12.8475 15.9276 13.3815C15.961 13.4483 15.961 13.495 15.9076 13.5484C15.8542 13.6151 15.7207 13.5617 15.7207 13.6818C15.6473 13.7352 15.5672 13.9488 15.4404 13.8687C15.387 14.0089 15.1601 13.9622 15.1735 14.1357C15.1133 14.189 14.9999 14.2425 15.0066 14.3426C15.0267 14.4093 15.1201 14.3826 15.1735 14.416C15.2134 14.3292 15.2402 14.189 15.3603 14.189C15.3937 14.2492 15.4738 14.2425 15.5139 14.2291C15.5272 14.1023 15.6606 14.1089 15.7607 14.1157C15.8809 14.1423 15.8475 13.8954 15.9877 13.9822C16.0344 14.0489 16.1012 14.1557 16.1946 14.1557C16.2546 14.129 16.2346 14.0556 16.208 14.0222C16.1479 13.9488 16.0678 13.9087 16.0611 13.8354C16.1345 13.842 16.2213 13.8287 16.208 13.7352C16.1879 13.6752 16.288 13.6952 16.308 13.7219C16.3615 13.7819 16.3347 14.0288 16.4749 13.9087C16.4815 13.8554 16.5216 13.8153 16.5884 13.8354C16.7085 13.9622 16.7818 13.7553 16.8887 13.7352C16.8887 13.6418 17.0422 13.7018 17.0022 13.5884C16.8754 13.5416 16.635 13.7752 16.6084 13.515C16.6885 13.4616 16.7753 13.5484 16.8154 13.4349C16.7686 13.3348 16.8687 13.2346 16.9821 13.3081C17.0488 13.3482 17.0222 13.2146 17.0022 13.1946C16.9821 13.1679 16.9621 13.1212 16.9821 13.0945C17.0088 13.0879 17.0622 13.0412 17.1156 13.0612C17.1089 13.0812 17.129 13.1078 17.1557 13.0945C17.2024 13.1078 17.2357 13.0812 17.249 13.0412C17.189 13.0412 17.209 12.9744 17.229 12.9477C17.249 12.9343 17.249 12.9143 17.249 12.8876C17.3692 12.8209 17.3692 13.0812 17.4559 12.9477C17.6296 12.9343 17.556 13.1679 17.6829 13.1345C17.7163 13.1946 17.7363 13.1078 17.7764 13.1546C17.8097 13.1279 17.7897 13.0812 17.7963 13.0412C17.7029 12.9878 17.7163 12.8943 17.6229 12.8876C17.6028 12.8209 17.763 12.9543 17.7163 12.8142C17.6496 12.7274 17.5695 12.901 17.476 12.8142C17.4559 12.7808 17.3959 12.7675 17.4159 12.7208C17.5628 12.8008 17.5294 12.4672 17.6428 12.6674C17.7163 12.6941 17.7429 12.7875 17.8498 12.7742C17.8899 12.7675 17.9165 12.7341 17.9432 12.7007C17.9232 12.674 17.9031 12.6273 17.9232 12.6073C17.8431 12.5873 17.7562 12.614 17.6829 12.554C17.6561 12.4271 17.7764 12.367 17.8698 12.347C18.1168 12.1668 18.4237 12.1268 18.7374 12.1001C18.8575 12.1535 18.9911 12.2336 19.1312 12.1735C19.565 11.9732 19.9054 11.693 20.3391 11.4928C20.4259 11.4928 20.526 11.4928 20.5661 11.5728C20.526 11.6595 20.4393 11.7463 20.3926 11.8131C20.1724 12.02 19.892 12.1802 19.6184 12.307C19.5249 12.4471 19.3647 12.6273 19.2646 12.7942C19.0645 13.1413 18.911 13.5284 18.7374 13.8487C18.6907 14.2158 18.4504 14.4961 18.4371 14.8698C18.4103 14.9099 18.417 14.9699 18.357 15.0033C18.3703 15.0901 18.3503 15.2169 18.3036 15.3036C18.15 16.3715 18.9243 17.0856 19.3982 17.8865C20.0256 18.634 20.7797 19.4549 21.6206 20.0489C21.5672 20.0556 21.8409 20.2758 22.0878 20.3559C22.8353 21.0901 23.516 21.7574 24.07 22.5984C24.1768 22.852 24.2235 23.119 24.4237 23.3326C24.4303 23.3459 24.417 23.3593 24.4104 23.3659C24.8509 23.9266 25.0644 24.5739 25.3848 25.1746C25.4649 25.6151 25.7452 26.0222 25.8787 26.456C25.9855 26.6429 26.0388 26.8631 26.159 27.0233C26.2591 27.2703 26.4193 27.5105 26.4593 27.7575C26.6529 27.9643 26.6195 28.2981 26.7797 28.5317C26.8932 28.8921 26.9265 29.2792 27.12 29.6062C27.1935 29.8398 27.1267 30.1335 27.2535 30.3404C27.2401 30.367 27.2268 30.4004 27.2335 30.4338C27.2802 30.4671 27.2602 30.6274 27.2936 30.6807C27.2535 31.0278 27.3603 31.5684 27.347 31.9221C27.387 32.0356 27.2401 31.9955 27.2001 31.9822C27.1801 31.7285 26.9866 31.5551 26.9732 31.3014C26.9198 31.2347 26.833 31.208 26.8598 31.1146C26.8932 31.1012 26.9198 31.0678 26.9532 31.0344C26.9399 30.921 26.8398 30.8542 26.7797 30.7341C26.6061 30.7141 26.7997 30.4338 26.6328 30.3938C26.4326 30.2469 26.4193 30.04 26.3325 29.8331C26.1523 29.753 26.3658 29.5461 26.219 29.4327C26.2791 29.5728 26.0922 29.7664 26.2391 29.8531C26.1857 30.0934 26.3993 30.2603 26.2725 30.5072C26.3125 30.594 26.4259 30.7008 26.3325 30.7941C26.3726 30.8342 26.4126 30.8942 26.3658 30.941C26.3191 31.0411 26.199 31.0278 26.1056 31.0545C26.1256 31.0078 26.0122 31.0078 26.0655 30.941C26.0789 30.8542 25.9654 30.8743 25.9521 30.7941C25.8654 30.6407 25.9788 30.3737 25.7853 30.3003C25.7585 30.2336 25.7653 30.1535 25.7653 30.0734C25.6518 30.08 25.5984 30.0133 25.5383 29.9266C25.5516 29.8531 25.4715 29.8731 25.4983 29.7931C25.6051 29.7864 25.6718 29.6729 25.7653 29.6462C25.6718 29.3793 25.5716 29.119 25.5383 28.832C25.4783 28.7252 25.5049 28.5918 25.4249 28.4916C25.2113 28.7252 25.4448 29.0323 25.3714 29.3058C25.3581 29.5261 25.4983 29.7797 25.3114 29.9799C25.298 29.9933 25.2847 30.0067 25.278 30.02C25.2247 30.2403 25.5049 30.6007 25.1645 30.6607C25.1044 30.5005 25.0511 30.327 24.991 30.1869C24.951 30.0133 24.8576 29.8465 24.7441 29.7196C24.6507 29.8398 24.5305 29.6929 24.4237 29.6596C24.417 29.5061 24.2301 29.4394 24.2035 29.2858C24.1034 29.1457 23.9299 29.0589 24.0099 28.8721C24.0633 28.832 24.2168 28.8854 24.1634 28.7585C24.1234 28.6318 24.397 28.7119 24.2769 28.5517C24.2102 28.525 24.2435 28.4516 24.2035 28.4182C24.2301 28.1579 24.1434 27.9177 24.2035 27.664C24.13 27.6173 24.1167 27.5506 24.1234 27.4771C24.2301 27.4638 24.1634 27.3503 24.1834 27.2903C24.1368 27.2769 24.0567 27.2436 24.09 27.1768C24.05 27.0967 24.1701 27.0834 24.09 27.0233C24.0099 26.9299 24.1634 26.8365 24.07 26.763C24.0233 26.6296 24.2369 26.5562 24.1034 26.4427C24.0033 26.5428 23.9098 26.7297 23.9766 26.8698C24.1101 26.8898 23.9566 27.03 23.9766 27.1168C23.9299 27.1435 23.9967 27.2302 23.9165 27.2302C23.8698 27.3838 23.9366 27.604 23.8631 27.7241C23.7563 27.7709 24.0299 27.664 23.8631 28.0044C23.7964 28.1713 23.823 28.3915 23.8431 28.5717C23.7563 28.5784 23.9699 28.4983 23.823 28.7386C23.7897 28.7519 23.6896 28.8721 23.7096 28.9054C23.6562 28.9722 23.6095 28.9522 23.5428 28.9254C23.5295 28.7386 23.3425 28.6251 23.3358 28.4382C23.4092 28.3648 23.6963 28.4182 23.5627 28.2113C23.4159 28.1445 23.6095 27.9711 23.4626 27.891C23.476 27.8576 23.4359 27.7709 23.5027 27.7975C23.5227 27.7841 23.5227 27.7709 23.5027 27.7575C23.4894 27.7575 23.476 27.7575 23.4626 27.7575C23.476 27.624 23.4359 27.3838 23.5027 27.2903C23.4359 27.2436 23.4026 27.1501 23.3892 27.0634C23.5428 26.9766 23.2825 26.7364 23.5027 26.743C23.4159 26.5762 23.6629 26.5295 23.5761 26.3626C23.4894 26.3226 23.4493 26.2291 23.4493 26.1357C23.6095 26.149 23.5428 25.9688 23.5627 25.8754C23.4493 25.8286 23.5627 25.6752 23.4493 25.6485C23.2357 25.8354 23.5094 26.149 23.2758 26.3093C23.2892 26.4427 23.149 26.5161 23.2024 26.6629C23.149 26.7297 23.0689 26.8031 23.129 26.8898C23.1089 26.9232 23.1689 26.9699 23.1423 27.0233C23.0021 27.1034 23.1156 27.2837 22.9755 27.3637C22.9287 27.4771 22.8887 27.7709 22.9221 27.7775C22.9821 27.9177 22.862 27.9978 22.7686 28.0779C22.7285 28.0845 22.7085 28.1379 22.6552 28.1178C22.6151 28.0845 22.6151 28.0378 22.6017 27.9844C22.7219 27.951 22.7753 27.7441 22.7285 27.7375C22.7085 27.624 22.7553 27.5172 22.842 27.4571C22.902 27.1836 22.6484 26.9232 22.842 26.703C22.902 26.4627 22.6284 26.1691 22.9354 26.0222C23.0356 25.9488 23.0021 25.782 23.0889 25.6885C22.9354 25.6418 23.1089 25.3214 22.9221 25.4415C22.9421 25.5551 22.8887 25.6552 22.822 25.7219C22.8353 25.842 22.8153 25.9488 22.7686 26.0423C22.7219 26.0289 22.6884 26.0623 22.6752 26.1023C22.6617 26.3626 22.3948 26.4494 22.4683 26.763C22.5016 26.8365 22.4082 26.8098 22.4082 26.8698C22.2946 27.0634 22.595 27.1435 22.4082 27.3037C22.4215 27.377 22.3614 27.4238 22.3548 27.4972C22.2279 27.5506 22.2146 27.3437 22.1479 27.2703C22.1612 27.1968 22.1145 27.1368 22.1812 27.1168C22.2681 27.01 22.1812 26.8298 22.2613 26.723C22.2013 26.6496 22.1412 26.5828 22.1679 26.4761C22.1879 26.4227 22.288 26.3826 22.2013 26.3292C22.1679 26.3025 22.1612 26.2692 22.1679 26.2291C22.1945 26.2425 22.2013 26.2091 22.2213 26.1957C22.2346 26.0356 22.2613 25.9888 22.3748 25.8954C22.555 25.9087 22.3948 25.6352 22.5817 25.6485C22.7018 25.6018 22.595 25.5083 22.6017 25.4415C22.4749 25.3748 22.7686 25.1346 22.5216 25.1012C22.4082 25.168 22.4348 25.3548 22.4282 25.495C22.4082 25.5817 22.3147 25.4883 22.2946 25.5751C22.3481 25.7285 22.2279 25.802 22.1278 25.8754C21.9076 25.8821 22.1679 26.1624 21.9743 26.2291C21.9275 26.2491 21.8876 26.3093 21.8476 26.3426C21.7942 26.4761 21.9677 26.7364 21.7675 26.703C21.674 26.6095 21.6941 26.4827 21.6006 26.4026C21.5872 26.3426 21.6139 26.3025 21.654 26.2692C21.634 26.1757 21.6073 26.0022 21.7541 25.9888C21.7942 25.9154 21.6673 25.9087 21.714 25.8354C21.6673 25.802 21.6139 25.8554 21.5806 25.8954C21.5672 25.9822 21.5672 26.0756 21.4871 26.1357C21.4071 26.1757 21.4071 26.0756 21.3737 26.0423C21.2937 25.8821 21.4671 25.6752 21.2402 25.5884C21.2937 25.5016 21.3937 25.4483 21.3537 25.3081C21.3337 25.2747 21.2937 25.2948 21.2601 25.2881C21.1668 25.3414 21.1868 25.5283 21.0533 25.535C20.9332 25.495 20.9065 25.4015 20.8465 25.3081C20.8731 25.2213 21.0133 25.2547 21.0133 25.1412C21.0933 25.0945 21.2269 25.0879 21.2402 24.9677C21.2135 24.6673 21.634 24.654 21.5605 24.327C21.594 24.2937 21.6941 24.3003 21.654 24.2136C21.5739 24.2602 21.3269 24.1868 21.3537 24.3871C21.2802 24.4739 21.2001 24.6006 21.1668 24.7275C21.0267 24.7942 20.9866 24.881 20.8465 24.9877C20.853 25.0478 20.8465 25.1078 20.793 25.1412C20.7063 25.1412 20.6329 25.1078 20.5461 25.1212C20.4526 25.0144 20.2791 24.8476 20.506 24.7809C20.7663 24.8142 20.5928 24.4605 20.8064 24.4204C20.8931 24.4271 20.8931 24.3537 20.9599 24.307C20.9732 24.2602 20.9399 24.2269 20.8998 24.2136C20.7463 24.1668 20.7864 24.3604 20.6195 24.2937C20.5728 24.4872 20.4259 24.5672 20.3726 24.7408C20.2391 24.8409 20.1456 24.7008 19.9988 24.6673C19.932 24.6874 19.8453 24.6473 19.7919 24.5739C19.7853 24.5339 19.7919 24.5005 19.832 24.4805C19.872 24.4739 19.9255 24.4938 19.9588 24.4605C19.9721 24.3537 19.7786 24.4405 19.7318 24.3871C19.6852 24.4004 19.6517 24.4671 19.585 24.4405C19.5049 24.347 19.7653 24.2336 19.565 24.1801C19.6651 24.1134 19.5783 24.0267 19.6585 23.9733C19.6317 23.9332 19.585 23.9599 19.545 23.9533C19.4649 24.02 19.4181 24.1936 19.2981 24.1601C19.3314 24.0667 19.218 24.08 19.1913 24.0267C19.0311 24.1068 18.9977 23.8798 18.8309 23.9332C18.8442 23.7664 18.4037 23.7263 18.644 23.6129C18.7374 23.5661 18.6907 23.426 18.7574 23.3459C18.684 23.2925 18.6974 23.426 18.624 23.426C18.5038 23.4927 18.3903 23.3926 18.3236 23.3126C18.2436 23.2658 18.297 23.159 18.2302 23.1056C18.1368 23.159 18.05 23.159 17.9632 23.1056C17.9098 23.0456 17.803 22.9855 17.8698 22.8987C17.9499 22.7919 18.0833 22.7986 18.1901 22.7453C18.09 22.4716 17.9632 22.8787 17.8097 22.6919C17.7497 22.7519 17.6629 22.812 17.5895 22.7853C17.476 22.7119 17.3759 22.6384 17.4159 22.4983C17.4426 22.4649 17.516 22.5116 17.5094 22.4449C17.4293 22.4182 17.3292 22.4649 17.249 22.4048C17.169 22.3448 17.1089 22.2646 17.1356 22.1646C16.9821 22.0511 16.7818 22.0178 16.7352 21.8042C16.7085 21.7642 16.6417 21.8042 16.6084 21.7642C16.4482 21.6707 16.7152 21.2902 16.3615 21.3904C16.3147 21.3638 16.248 21.317 16.248 21.2569C16.288 21.2236 16.208 21.1969 16.1946 21.1635C16.0878 21.1301 16.0411 21.0434 15.9877 20.9766C15.9009 20.7564 15.5739 20.6563 15.5872 20.4093C15.4203 20.436 15.4804 20.2091 15.3069 20.2558C15.1735 20.1557 15.2101 20.1407 15.1534 20.0489C15.1201 19.9622 15.1601 19.8154 15.0267 19.8086C14.8931 19.6217 14.6662 19.5616 14.5528 19.3348C14.3725 19.4482 14.2057 19.6084 14.2525 19.862C14.1657 19.9421 14.2457 20.3292 14.2725 20.3359C14.1789 20.5294 14.2925 20.7363 14.1724 20.9165C14.1857 21.0167 14.1657 21.1568 14.1189 21.2569C14.219 21.5306 13.9254 21.7709 14.0789 22.0645C14.0456 22.1445 14.0922 22.3181 13.9654 22.3715C13.7919 22.2646 13.6517 22.4182 13.4783 22.3114C13.4382 22.3715 13.3515 22.4182 13.2713 22.4249C13.1445 22.3114 13.1645 22.0511 12.8909 22.1245C12.8709 22.1846 12.7774 22.2714 12.7241 22.1779C12.6506 22.2381 12.5839 22.1512 12.4971 22.1779C12.4371 22.0912 12.4037 21.8976 12.2702 22.0645C12.2169 22.0444 12.2035 22.1245 12.1567 22.1245C12.0633 21.9043 11.7096 22.1112 11.743 21.7842C11.6762 21.7241 11.7162 21.624 11.7096 21.5372C11.743 21.5039 11.8297 21.5039 11.8231 21.4238C11.7497 21.3638 11.6962 21.4638 11.6295 21.4638C11.6361 21.5439 11.5628 21.604 11.4827 21.5773C11.4026 21.5639 11.3425 21.4905 11.2558 21.4638C11.2624 21.3638 11.1757 21.3703 11.1223 21.4238C11.1289 21.4905 11.0155 21.4972 10.9688 21.4638C10.9355 21.4505 10.9088 21.4171 10.8753 21.3904C10.9488 21.277 10.7486 21.2369 10.8019 21.1234C10.6017 21.0567 10.3747 21.0434 10.2013 20.9165C10.0812 21.0167 10.0677 20.8298 9.99432 20.8031C9.98101 20.6897 10.1345 20.7497 10.1212 20.6362C10.0344 20.5628 10.0144 20.496 9.9009 20.4493C9.77415 20.4827 9.69404 20.4694 9.59388 20.3893C9.60725 20.2825 9.55384 20.2358 9.63395 20.129C9.46714 20.0423 9.73414 19.8687 9.54053 19.822C9.53388 19.7419 9.48713 19.6284 9.38702 19.6952C9.31363 19.7085 9.23351 19.6885 9.24017 19.5817C9.14007 19.4149 9.34027 19.3214 9.27353 19.148C9.33362 19.0411 9.53388 19.0612 9.56049 18.9744C9.58054 18.8609 9.714 18.9143 9.76744 18.8276C9.70735 18.7875 9.6273 18.7474 9.56049 18.7875C9.42038 18.8543 9.29352 19.0011 9.14672 18.8609C9.06002 18.7408 8.93986 18.6807 8.93986 18.5272C9.03325 18.5072 9.08666 18.4204 9.12676 18.3336C9.10006 18.3136 9.08666 18.287 9.04662 18.3003C9.03996 18.3537 8.99995 18.4338 8.93986 18.3737C8.96657 18.2803 8.85981 18.3003 8.83976 18.2202C8.9199 18.1001 8.90651 17.9466 9.03325 17.8464C8.9799 17.773 8.89311 17.693 8.9532 17.5996C8.99995 17.5127 9.01326 17.3993 9.08666 17.3392C9.06667 17.2325 9.10006 17.119 9.24017 17.1124C9.45374 17.0055 9.67405 17.0989 9.88091 16.9588C10.0277 16.8921 10.0878 17.1389 10.2213 16.9988C10.3548 17.0989 10.4415 16.9121 10.5016 17.1323C10.595 17.0723 10.7085 16.9922 10.8419 16.9988C10.8887 17.0589 10.882 17.179 10.9888 17.1857C10.9955 17.1323 11.0422 17.0923 11.1023 17.1124C11.1423 17.1524 11.149 17.2258 11.2158 17.2458C11.229 17.2058 11.189 17.0189 11.3091 17.1124C11.3559 17.3726 11.7162 16.8987 11.5561 17.2992C11.536 17.3192 11.5094 17.3392 11.516 17.3726C11.5294 17.4126 11.5695 17.3859 11.5961 17.3926C11.6495 17.0789 12.03 17.2992 12.03 16.9588C12.2102 16.9321 12.2302 16.7386 12.3503 16.6385C12.3436 16.5183 12.1968 16.4316 12.2502 16.2847C11.9232 16.1312 11.7763 15.8309 11.6896 15.4905C11.4694 15.3236 11.1423 15.2436 11.1624 14.9232C11.1624 14.7697 11.0222 14.6296 10.9154 14.5495C10.8487 14.4427 10.7018 14.3426 10.6485 14.2492C10.7151 14.1957 10.615 14.169 10.6351 14.1157C10.6485 13.9955 10.6284 13.822 10.4615 13.8153C10.3214 13.8086 10.4482 13.555 10.2546 13.5484C10.1813 13.5083 10.1345 13.4149 10.1813 13.3214C10.248 13.2947 10.2079 13.2146 10.2013 13.1746C10.1345 13.1345 10.001 13.1813 9.99432 13.0812C10.0211 12.9343 10.0277 12.8209 9.93432 12.7007C9.87426 12.6874 9.77415 12.7408 9.76744 12.6473C9.64729 12.4872 10.0945 12.2803 9.70735 12.327C9.68074 12.2669 9.60725 12.2936 9.59388 12.2336C9.44708 12.0267 9.8008 11.9732 9.654 11.8131C9.57389 11.8398 9.48713 11.9466 9.40707 11.8531C9.34027 11.7797 9.38037 11.6129 9.33362 11.5328C9.56724 11.506 9.45374 11.2391 9.68739 11.2125C9.714 11.179 9.76076 11.159 9.76744 11.119C9.53388 11.0122 9.5272 11.3859 9.33362 11.3859C9.30697 11.4193 9.26022 11.3927 9.22018 11.3993C9.14672 11.3393 9.12676 11.2258 9.16012 11.139C9.29352 11.119 9.36703 10.9521 9.48044 10.8921C9.60725 10.832 9.68074 10.7385 9.70735 10.6117C9.54053 10.4383 9.41373 10.7919 9.22018 10.7786C9.16677 10.832 9.09331 10.8454 9.03325 10.872C8.93986 10.7919 9.03996 10.7052 9.06667 10.6318C9.16677 10.6718 9.12676 10.5517 9.16012 10.5184C9.27353 10.3114 9.69404 10.4115 9.61399 10.0645C9.54719 10.0244 9.44708 9.96438 9.38702 10.0645C9.27353 10.198 9.12008 10.3182 8.93986 10.3247C8.89311 10.2781 8.80634 10.2914 8.78629 10.2314C8.75974 10.1045 8.91316 10.0845 8.97325 10.0044C9.15337 9.9844 9.28027 9.75081 9.48044 9.74413C9.51383 9.65736 9.44037 9.5973 9.36703 9.65071C9.20681 9.79747 8.9532 9.72414 8.78629 9.85756C8.71299 9.86428 8.6662 9.80422 8.59949 9.79747C8.56613 9.71742 8.56613 9.57054 8.67288 9.55726C8.74625 9.56391 8.81306 9.54386 8.85981 9.4972C8.8798 9.44376 8.77296 9.25692 8.9199 9.33032C8.9199 9.37036 8.96657 9.39035 8.99321 9.42377C9.12008 9.47043 9.16012 9.31701 9.22018 9.25024C9.21346 9.21017 9.27353 9.15014 9.20013 9.12341C8.98656 9.15014 8.81974 9.29025 8.59949 9.29025C8.51269 9.23693 8.59949 9.15014 8.59949 9.08336C8.7262 9.03664 8.83305 9.01 8.9199 8.91655C8.9799 8.89647 9.04662 8.97661 9.08666 8.89647C9.08001 8.8498 9.08666 8.78977 9.14672 8.78306C9.21346 8.78977 9.28027 8.8498 9.35364 8.80305C9.41373 8.70295 9.33362 8.67624 9.27353 8.62955C9.25347 8.60953 9.22686 8.58286 9.20013 8.55612C8.86641 8.55612 8.56613 8.8231 8.23906 8.66959C8.19237 8.55612 8.31908 8.59616 8.35253 8.5361C8.45269 8.44268 8.64618 8.61618 8.7262 8.42269C8.85981 8.50278 8.93315 8.25582 9.03325 8.42269C9.14672 8.40933 9.20013 8.37594 9.31363 8.36926C9.42712 8.24251 9.56049 8.16237 9.59388 7.96882C9.42038 7.9621 9.23351 7.82196 9.06667 7.95548C8.93315 7.90873 8.87315 8.03556 8.74625 8.00886C8.61288 8.16237 8.40594 8.14232 8.19902 8.14232C8.17232 8.10896 8.11226 8.06889 8.16566 8.02888C8.30587 7.91547 8.5394 8.02888 8.65289 7.84195C8.77296 7.67517 9.22018 7.98881 9.10671 7.61502C8.86641 7.57504 8.55945 7.4616 8.33248 7.61502C8.19902 7.62176 8.02552 7.54168 7.91871 7.64849C7.79864 7.55501 7.58498 7.74859 7.52489 7.54168C7.45152 7.36815 7.63845 7.36815 7.71179 7.29472C7.87195 7.38817 8.0055 7.28141 8.16566 7.31474C8.19902 7.28807 8.20576 7.25465 8.19902 7.22132C7.92536 7.00772 7.53838 7.14124 7.23801 7.10782C7.25132 6.95437 7.01102 7.03445 7.07117 6.88095C7.16453 6.87429 7.27137 6.79421 7.35142 6.88095C7.52489 6.85427 7.65844 6.92096 7.82526 6.90097C7.95206 6.96768 8.05891 6.9143 8.18571 6.99438C8.51269 6.88095 8.17232 7.26805 8.46603 7.23466C8.71299 7.16129 8.89311 7.29472 9.14672 7.31474C9.17342 7.20133 9.29352 7.28807 9.36703 7.27467C9.31363 7.20133 9.48713 6.9877 9.33362 7.02771C9.26693 7.04773 9.23351 7.14789 9.16012 7.14124C9.12676 7.09449 9.15337 7.02115 9.08666 6.99438C9.01326 6.9877 9.02 7.06113 8.9532 7.0878C8.8798 7.09449 8.83305 7.03445 8.7663 7.02771C8.61288 6.84756 9.07332 6.85427 8.80634 6.70742C8.80634 6.52052 8.38589 6.71413 8.48599 6.40708C8.55945 6.25354 8.86641 6.49384 8.74625 6.20019C8.59283 5.98662 8.35918 6.14013 8.14567 6.06671C8.10557 5.97326 7.91871 6.02663 7.8653 5.93993C7.79864 5.81975 7.71179 5.93322 7.63845 5.8398C7.53838 5.93993 7.41148 5.8131 7.31806 5.8398C7.17792 5.65958 6.86425 5.81975 6.71065 5.63291C6.48377 5.50608 6.25021 5.57285 5.9966 5.50607C5.9699 5.43268 5.86314 5.39267 5.90315 5.29916C5.97655 5.24581 6.10336 5.30587 6.20346 5.31252C6.37702 5.36596 6.57728 5.27246 6.71065 5.46606C6.9844 5.51282 7.28468 5.49942 7.52489 5.63291C7.75854 5.43268 7.92536 5.85313 8.19902 5.78636C8.29912 5.85313 8.43923 5.8131 8.55945 5.82637C8.59283 5.79308 8.57278 5.73301 8.57944 5.69294C8.40594 5.47272 8.07221 5.47272 7.84531 5.29916C7.67175 5.27911 7.50484 5.26586 7.37147 5.16576C7.26463 5.11235 7.13126 5.11235 7.0177 5.08565C6.92431 4.97209 6.7441 5.16576 6.71065 4.99214C6.53053 5.00551 6.42377 4.9521 6.29688 4.82529C6.16342 4.79865 6.05001 4.73185 5.90315 4.73185C5.82304 4.77189 5.72959 4.76523 5.63615 4.78528C5.63615 4.73184 5.60953 4.69184 5.56278 4.65848C5.26907 4.65848 5.37588 4.32472 5.22237 4.18461C5.27578 4.06446 5.32913 4.18461 5.39593 4.18461C5.47598 4.29146 5.66953 4.19795 5.74964 4.33812C5.82976 4.33812 5.8698 4.44488 5.94319 4.46487C6.10336 4.54498 6.30353 4.54498 6.45039 4.67179C6.65733 4.71854 6.85079 4.77863 7.0177 4.91874C7.11777 4.77863 7.23133 4.94544 7.35142 4.91874C7.56493 5.03889 7.83194 5.05226 8.01215 5.19906C8.11226 5.15236 8.36584 5.30587 8.35253 5.14571C8.29912 5.0923 8.31908 4.9521 8.19902 4.9788C8.06556 4.7519 7.74521 4.89204 7.65844 4.63849C7.48488 4.69858 7.37147 4.49829 7.18458 4.54498C7.13126 4.46487 7.02441 4.53167 6.95761 4.48492C6.8175 4.25801 6.52387 4.36477 6.41038 4.11122C6.19012 4.17131 6.11007 3.83758 5.90315 4.0311C5.74964 3.99109 5.62284 3.87759 5.42923 3.9176C5.35592 3.97104 5.35592 4.1045 5.24242 4.09119C5.18901 4.06446 5.20241 3.95099 5.1089 3.95765C5.08891 3.74413 4.87534 3.65063 4.77524 3.48387C4.79529 3.44377 4.84196 3.46382 4.86866 3.43046C5.03557 3.47047 5.35592 3.33701 5.44928 3.54387C5.60953 3.59063 5.70963 3.72408 5.8831 3.67739C5.98995 3.75073 6.14337 3.75744 6.24347 3.8042C6.39033 3.92435 6.54383 3.87759 6.69734 3.99775C6.75069 3.9777 6.82421 3.931 6.88421 3.9777C6.95761 4.09119 7.09116 4.05775 7.16453 4.16456C7.31806 4.23137 7.49162 4.2447 7.61843 4.37151C7.75189 4.33812 7.80521 4.49829 7.93876 4.52493C8.08561 4.53167 8.19237 4.67853 8.35253 4.59848C8.19902 4.45162 8.03886 4.19136 7.75189 4.23796C7.65844 4.21797 7.70513 4.06446 7.57839 4.09119C7.46483 4.02445 7.33143 3.79748 7.16453 3.82425C6.78414 3.95765 6.6906 3.35707 6.29688 3.52388C6.11675 3.39036 6.00326 3.18351 5.73625 3.18351C5.58948 2.9099 5.20897 3.13675 5.1089 2.8431C4.86866 2.86989 4.90205 2.60288 4.6951 2.54282C4.7085 2.41602 4.52163 2.42261 4.56164 2.28247C4.51489 2.25586 4.52828 2.2091 4.52828 2.169C4.57498 2.14901 4.60168 2.12225 4.66174 2.14901C4.72855 2.22906 4.9354 2.01549 4.94206 2.22241C5.03557 2.24911 5.14226 2.3092 5.16896 2.41602C5.30917 2.44272 5.42264 2.59617 5.56278 2.56287C5.64289 2.58952 5.74964 2.58952 5.82976 2.56287C5.6562 2.42926 5.48264 2.21576 5.26241 2.169C5.20241 2.1357 5.08891 2.08221 5.09566 2.0356C5.0088 1.93544 4.8219 1.8954 4.78864 1.75523C4.60168 1.59504 4.51489 1.34151 4.30138 1.18791C4.34142 1.08784 4.13447 0.947639 4.34142 0.920996C4.42818 0.934393 4.48159 0.907598 4.54827 0.920996C4.35472 0.780794 4.33476 0.547234 4.13447 0.473866C4.02771 0.427111 4.10111 0.253551 4.00101 0.206858C4.00766 0.15345 3.96765 0 4.09446 0C4.22132 0.0533485 4.42153 0 4.46822 0.15345Z" fill="#1F4FA2"/>
</svg>
