<svg width="32" height="32" viewBox="0 0 32 32" fill="none" xmlns="http://www.w3.org/2000/svg">
<path fill-rule="evenodd" clip-rule="evenodd" d="M3.3411 11.0126C3.39553 11.0167 3.45414 11.0209 3.50857 11.0209C3.88957 11.0335 4.18684 11.3475 4.17846 11.7327C4.1659 12.1095 3.85189 12.411 3.47089 12.3984L3.26155 12.3858L3.23757 12.3847C3.15907 12.3809 3.08716 12.3775 3.01871 12.3775C2.31532 12.3775 1.37328 12.5743 1.37328 14.2909V18.4609C1.37328 18.8419 1.06764 19.1476 0.686641 19.1476C0.305639 19.1476 0 18.8419 0 18.4609V14.1192C0 14.0899 0 14.0564 0.00418684 14.0271C0.0962973 12.1263 1.21 11 3.01871 11C3.10258 11 3.18216 11.0043 3.25593 11.0083L3.25593 11.0083C3.28527 11.0098 3.31369 11.0114 3.3411 11.0126ZM11.8906 12.9469C12.0581 12.6077 12.4726 12.4696 12.8117 12.6371C13.1509 12.8087 13.289 13.219 13.1215 13.5582L9.59623 20.6967C9.479 20.9396 9.23198 21.0819 8.98077 21.0819C8.88028 21.0819 8.77561 21.0568 8.67931 21.0107C8.33599 20.8433 8.19783 20.4288 8.3653 20.0896L9.32827 18.1386L7.0632 13.5582C6.89153 13.219 7.03389 12.8045 7.37302 12.6371C7.71215 12.4696 8.12665 12.6077 8.29413 12.9469L10.0945 16.5852L11.8906 12.9469ZM32 17.1923V17.2091C32 18.4316 31.0998 19.1895 29.6512 19.1895C28.7887 19.1895 27.9304 18.9173 27.2396 18.4191C27.0805 18.306 26.9842 18.1093 26.9842 17.9041C26.9842 17.5482 27.2647 17.2719 27.6248 17.2719C27.7713 17.2719 27.8969 17.3138 28.0183 17.3975C28.5542 17.7911 29.0985 17.9836 29.6847 17.9836C30.2834 17.9836 30.6393 17.7492 30.6393 17.3514V17.3347C30.6393 16.9369 30.3546 16.7569 29.3204 16.4931C28.1188 16.1875 27.1977 15.8484 27.1977 14.5421V14.5253C27.1977 13.3907 28.1188 12.6036 29.4377 12.6036C30.1955 12.6036 30.8779 12.7962 31.4766 13.173C31.6232 13.2609 31.7781 13.4451 31.7781 13.7173C31.7781 14.0731 31.4976 14.3495 31.1375 14.3495C31.0119 14.3495 30.9072 14.3202 30.79 14.249C30.2918 13.9559 29.8438 13.8136 29.4209 13.8136C28.9017 13.8136 28.5668 14.0438 28.5668 14.3997V14.4165C28.5668 14.8645 28.8682 15.0026 29.9778 15.2873C31.1878 15.593 32 16.041 32 17.1923ZM16.3203 12.6077C14.5995 12.6119 13.3016 14.0355 13.3016 15.9112V18.4861C13.3016 18.8671 13.6114 19.1727 13.9882 19.1727C14.3692 19.1727 14.6749 18.8629 14.6749 18.4861V15.9112C14.6749 14.7807 15.3531 13.9852 16.3203 13.9852C17.2916 13.9894 17.9699 14.7807 17.9699 15.9112V18.4861C17.9699 18.8671 18.2755 19.1727 18.6565 19.1727C19.0375 19.1727 19.3432 18.8629 19.3432 18.4861V15.9112C19.3432 14.0313 18.0453 12.6119 16.3203 12.6077ZM2.47442 14.1276C2.09761 14.1276 1.78778 14.4332 1.78778 14.8142C1.78778 15.1952 2.09342 15.5009 2.47442 15.5009C2.85124 15.5009 3.16106 15.1952 3.16106 14.8142C3.16106 14.4332 2.85124 14.1276 2.47442 14.1276ZM5.53919 11.0377C5.15818 11.0377 4.85254 11.3433 4.85254 11.7243V18.4609C4.85254 18.8419 5.15818 19.1476 5.53919 19.1476C5.92019 19.1476 6.22583 18.8419 6.22583 18.4609V11.7243C6.22583 11.3475 5.916 11.0377 5.53919 11.0377ZM19.9921 15.8442C20.0256 14.002 21.378 12.6119 23.1658 12.6077C24.9829 12.6119 26.3478 14.0313 26.3394 15.9112V18.4861C26.3394 18.8671 26.0338 19.1727 25.6528 19.1727C25.2718 19.1727 24.9661 18.8671 24.9661 18.4861V15.9112C24.9661 14.7807 24.225 13.9894 23.1616 13.9852C22.1107 13.9894 21.3696 14.7723 21.3612 15.8944C21.3696 17.0207 22.1107 17.8036 23.1658 17.8036C23.3751 17.8036 23.5175 17.7869 23.5468 17.7827C23.9152 17.7115 24.2753 17.9543 24.3465 18.327C24.4176 18.6996 24.1706 19.0597 23.798 19.1308C23.6808 19.156 23.4379 19.1769 23.1658 19.1769C21.378 19.1769 20.0256 17.7911 19.9921 15.9405V15.9112V15.8735V15.8442Z" fill="#00B0AA"/>
</svg>
