<svg width="32" height="32" viewBox="0 0 32 32" fill="none" xmlns="http://www.w3.org/2000/svg">
<path d="M7.55566 12.621L27.5004 0.012207C27.3665 1.21206 27.9694 2.88045 25.0337 5.14885C28.302 6.81599 28.302 10.9526 25.1677 11.8199C23.5646 12.019 22.6315 11.4191 22.299 9.95184C22.5644 8.21725 23.7655 8.68345 23.8326 9.41803C24.1675 11.0855 25.6342 10.7526 25.8998 9.28547C26.3018 4.61411 18.2961 6.48157 20.8323 11.3508C19.1647 10.7526 17.8295 11.1517 16.961 12.6857C17.43 13.9537 18.4971 14.6885 20.7652 14.1547C18.0951 18.7569 25.2347 20.8923 25.8328 16.6212C25.6342 14.6203 24.2345 14.4874 23.8326 16.0212C23.5646 16.9567 22.3659 17.0904 22.232 15.821C22.232 13.153 26.6342 12.8872 27.3018 15.8883C27.8378 17.6229 26.9668 19.024 25.0337 20.2239C26.9668 22.0251 27.5004 23.827 27.3018 25.5616" fill="#8C7036"/>
<path fill-rule="evenodd" clip-rule="evenodd" d="M16.8295 20.9586C15.3604 23.5595 17.162 25.2941 19.0283 25.4287C20.0308 25.5614 21.0979 25.0932 21.4974 24.0277L22.8995 24.9605C22.4974 25.5614 21.83 26.1634 20.9639 26.6951C22.8995 28.4296 23.366 30.1635 23.232 31.899L19.0283 29.0971L4.08643 19.2902L9.22092 16.021L13.5588 18.8229C13.5192 18.8823 13.4798 18.9357 13.4422 18.9867C13.3526 19.1081 13.2734 19.2156 13.2262 19.3564C13.6258 20.5576 14.6259 21.2921 16.6954 20.8921L16.8295 20.9586ZM19.0283 23.3595C18.6957 23.3595 18.3631 23.0922 18.2961 22.4259C18.2961 22.2913 18.2961 22.0922 18.3631 21.9603L19.0283 22.4259L19.7627 22.8932C19.5642 23.1586 19.2987 23.3595 19.0283 23.3595Z" fill="#9C9C9C"/>
</svg>
