<svg width="32" height="32" viewBox="0 0 32 32" fill="none" xmlns="http://www.w3.org/2000/svg">
<g clip-path="url(#clip0)">
<path fill-rule="evenodd" clip-rule="evenodd" d="M20.3926 6.77124C20.3926 6.63137 20.4453 6.53677 20.4945 6.44836C20.9395 5.64698 22.1444 6.02238 22.1978 6.66497C21.9282 6.6022 21.8028 6.50565 21.3484 6.50565C21.2019 6.50565 20.9236 6.80838 20.9236 7.03666C20.9236 7.49535 21.005 7.37564 21.0297 7.67377C20.8499 7.66988 20.8021 7.66599 20.6188 7.4476C20.3682 7.14894 20.3926 7.02446 20.3926 6.77124ZM6.32163 4.0101C6.32163 4.81572 6.25497 5.69861 6.3982 6.48231C6.50518 7.06796 6.58439 7.60074 6.77342 8.17772C7.22893 9.56793 7.25863 9.78914 7.87647 11.1633C8.03154 11.5082 8.16823 11.7632 8.33038 12.09C8.41915 12.2691 8.47485 12.3609 8.5744 12.5363L9.3657 13.8157C9.38232 13.8409 9.41044 13.8818 9.4313 13.9094L9.90979 14.5992C10.0346 14.7719 10.0709 14.8377 10.2062 14.993L11.1456 16.1243C11.3343 16.3607 11.6008 16.5855 11.8238 16.8267L11.9868 16.9823C12.0673 17.0551 12.1007 17.0894 12.1758 17.1649C12.3035 17.2933 12.3928 17.3822 12.5208 17.5103C12.7724 17.7619 12.9799 17.9332 13.2371 18.1744C13.6203 18.5336 14.4977 19.0448 14.7642 19.4085L14.5518 19.9926C13.8679 19.6306 13.0891 19.0854 12.4856 18.6073L9.32874 15.7109C9.27534 15.6486 9.28383 15.6566 9.22848 15.5988L7.40575 13.2268L6.6622 11.8996C6.56123 11.7183 6.50341 11.5954 6.40969 11.4087C5.89176 10.376 5.04724 8.24668 5.04724 7.19598C4.64903 7.19598 4.21598 7.34734 3.90034 7.53566C3.68833 7.6621 3.55147 7.81876 3.40806 7.99913C2.19945 9.51895 2.65938 11.5924 3.57198 13.1315C4.30881 14.3741 5.39471 15.5839 6.50482 16.5172C6.64734 16.6371 6.42083 16.4451 6.56282 16.5653C6.62418 16.6173 6.62224 16.6166 6.67705 16.6638C8.1532 17.9347 8.82655 18.2413 10.4656 19.1937C11.4213 19.7489 12.5102 20.1705 13.5167 20.603C13.6334 20.653 13.6635 20.6626 13.788 20.7032C13.9862 20.7679 14.1724 20.8562 14.3395 20.8953C14.1565 21.2765 14.5442 21.6284 13.9121 21.4882C13.0004 21.2857 12.0952 21.0238 11.2127 20.7298L9.55384 20.1054C8.50332 19.64 7.49983 19.1357 6.54479 18.495C6.42437 18.4142 6.33383 18.3645 6.21801 18.2906C5.41133 17.7769 4.67343 17.1476 3.99866 16.4748C3.72422 16.2012 3.07209 15.5192 2.97643 15.1606C2.65672 15.1873 2.49086 15.5293 2.34816 15.7537C2.26894 15.8783 2.20139 16.0294 2.15277 16.1954C2.12677 16.2849 2.10909 16.3715 2.08628 16.4475C1.92006 17.0063 2.00918 17.7644 2.22421 18.3023C2.48909 18.965 2.97183 19.4939 3.51522 19.9317C3.61742 20.014 3.66269 20.0796 3.76401 20.1607C3.84924 20.229 3.95392 20.2907 4.04888 20.3536C4.45452 20.6224 4.79456 20.8641 5.23202 21.0822C6.03022 21.48 6.84928 21.753 7.72952 21.9829C8.36857 22.1498 9.11903 22.332 9.77629 22.3787L10.6781 22.4856C11.4678 22.5463 12.6932 22.6043 13.487 22.5385C14.3448 22.4673 14.2279 22.2706 14.3869 22.9185C14.4291 23.0907 14.4277 22.9631 14.4456 23.1784C14.1552 23.1848 14.2458 23.2444 14.0136 23.2773C13.7731 23.3112 13.7105 23.2835 13.4896 23.3376C12.6858 23.5346 11.0648 23.6032 10.1977 23.6032C8.55548 23.6032 6.56813 23.2439 5.17173 22.629C4.76538 22.4501 4.39281 22.3085 4.01581 22.086C3.80344 21.9606 3.53644 21.7117 3.29507 21.6917C3.26854 21.8054 3.25245 21.9046 3.21779 22.0392C2.99605 22.8975 3.22787 23.9262 3.90034 24.5377C4.0075 24.635 4.04994 24.656 4.15763 24.7582C5.22937 25.7744 6.89172 25.9394 8.3394 25.9394C8.71339 25.9394 8.94803 25.8722 9.25059 25.842C9.66188 25.8008 9.81219 25.7714 10.1828 25.712C10.268 25.6984 10.4696 25.6676 10.583 25.6344C11.6657 25.3179 12.2883 25.1587 13.4212 24.7027C13.4368 24.6965 13.4813 24.6783 13.4969 24.6723C13.8659 24.5269 14.4488 24.2201 14.8173 24.1342C14.9405 24.3183 15.0832 24.5713 15.189 24.7713C15.1041 24.8282 15.0984 24.8457 15.0063 24.9073C14.9191 24.9653 14.8585 24.9968 14.7743 25.047C14.6017 25.1499 14.4892 25.2273 14.317 25.3329C14.1547 25.4325 14.0491 25.506 13.888 25.5944L12.9325 26.0724C12.735 26.1654 12.6039 26.199 12.4022 26.2855L12.135 26.39C11.051 26.7732 10.0548 27.0485 8.87023 27.1075C8.62674 27.1197 8.53762 27.1655 8.23259 27.1638C7.84888 27.1616 7.22115 27.1116 6.88394 27.023C6.61516 26.9523 6.53488 26.9033 6.32163 26.9484C6.328 27.237 6.47246 27.6909 6.57113 27.9201C6.69102 28.1986 6.89596 28.4933 7.11629 28.6493C8.1318 29.3683 9.54235 29.3173 10.7099 29.0003L11.4119 28.7465C11.9391 28.5481 12.5891 28.1844 13.0506 27.8366C13.789 27.2799 14.4415 26.7134 15.0961 26.059C15.2744 25.8805 15.5316 25.526 15.773 25.4616L16.1977 25.8864C16.1268 26.1525 15.8296 26.4179 15.6531 26.6161C15.5345 26.7493 15.4818 26.8285 15.3645 26.9647L14.0574 28.2594C13.4391 28.7798 12.6663 29.2724 11.9279 29.5812L10.546 30.0047C10.2044 30.0747 10.2755 29.9808 9.9853 30.1343C10.624 31.0881 11.0047 31.2493 12.1624 31.2493C13.5448 31.2493 14.9361 29.6676 15.6142 28.7009C15.6973 28.5824 15.7652 28.5009 15.8588 28.3614L16.535 27.1791C16.6639 26.925 16.8043 26.5687 16.9411 26.3643L17.4714 26.6312C17.4246 26.8342 17.4649 26.6441 17.4187 26.7887C17.034 27.9952 16.4635 29.0995 15.6512 30.0655C14.9377 30.9141 13.9149 31.2631 13.8085 31.4085C13.962 31.9839 15.4034 32.4123 16.5581 31.3441L16.6975 31.2179C16.9917 30.927 17.2225 30.5175 17.3747 30.1428C17.4157 30.0416 17.4693 29.9216 17.517 29.8075C17.7273 29.3055 17.9726 28.2993 18.0484 27.7901C18.0977 27.4584 18.1625 27.2184 18.1625 26.8953C18.4316 26.8953 18.4518 26.9484 18.7465 26.9484C18.7465 27.8124 18.7699 28.7039 18.5716 29.5347C18.5538 29.6091 18.474 29.8777 18.4365 29.9836L18.4068 30.06C18.4001 30.077 18.3713 30.1507 18.3612 30.1739C18.1386 30.6886 17.7957 30.9975 17.5784 31.4085C17.9347 31.5972 18.3853 31.6039 18.7753 31.4904C18.9568 31.4375 18.9023 31.4727 19.0553 31.3988C19.3886 31.2375 19.6593 31.0221 19.834 30.6906C20.1091 30.1679 20.0209 29.4943 20.0209 28.9129C20.0209 28.3358 19.6105 28.0887 20.2821 28.059C20.4807 28.0504 20.5452 28.0313 20.7609 28.007L22.0726 27.7259C23.01 27.4223 23.8059 27.0451 24.6097 26.4929C25.0071 26.2199 25.4154 25.8091 25.7025 25.4088C26.5028 24.293 26.6646 23.7266 27.0823 22.4876C27.2809 21.8986 27.1458 22.1767 27.6715 22.0148C27.9783 21.9203 27.9908 21.5849 27.9164 21.2868C27.8584 21.0549 27.8773 21.0666 27.7222 20.946C27.5558 20.8164 27.5921 20.8541 27.4607 20.6767C27.2959 20.4543 27.1361 20.1876 27.1361 19.8332C27.1361 19.3933 27.259 19.4677 27.5092 19.3036C28.3033 18.7824 27.8435 18.393 27.2952 18.0278C26.68 17.6183 26.3126 17.1824 26.1568 16.4051C26.074 15.9922 26.0654 15.5638 26.2334 15.2136C26.8238 15.2136 27.2911 15.632 27.9988 15.1739C28.4923 14.8545 28.5696 13.9757 28.5696 13.4615C28.3648 13.4661 28.3387 13.5075 28.1668 13.5897C27.6536 13.8351 26.8958 13.7615 26.5469 13.2542C26.3593 12.9816 26.3842 12.5013 26.4602 12.0955C26.5707 11.5067 27.1969 10.7005 27.8262 10.7005C28.1972 10.7005 28.6147 10.6761 28.847 11.0071C28.9201 11.1115 29.0437 11.4881 29.0476 11.6563C29.4848 11.6198 29.9589 10.7113 30.0719 10.3442C30.1099 10.2202 30.1041 10.169 30.1343 10.0349C30.2744 9.41268 30.1094 9.71576 30.1094 9.31984C30.1094 9.13789 30.5297 8.80634 30.0385 8.43377C29.7416 8.20849 29.2032 8.49636 28.2966 8.21238C28.0253 8.12733 27.4625 7.79401 27.2952 7.78004C27.3431 7.57457 27.4807 7.23913 27.4261 7.01279C27.3693 6.77708 27.1097 6.65949 26.927 6.55534L25.652 5.86589C23.7295 4.76126 24.2266 4.0101 23.5785 4.0101C23.4307 4.0101 23.1023 4.15969 23.0068 4.23502C22.9477 4.2817 22.8512 4.38815 22.8073 4.4603C22.7626 4.5335 22.6945 4.6831 22.6758 4.75348C22.1626 4.4099 22.2021 4.26031 21.3063 3.99913L20.6043 3.79843C19.4986 3.44496 19.2482 2.94313 18.7819 3.62072C18.6364 3.83221 18.5872 4.0948 18.5872 4.38179C17.8205 4.36463 18.5533 4.11177 16.8577 4.35137C16.6798 4.37648 16.5383 4.36711 16.3634 4.38815C16.039 4.42705 15.6648 4.58637 15.0137 4.44297C14.9997 4.43996 14.8956 4.4168 14.8937 4.41662L14.825 4.41857C14.6328 4.43377 14.5831 4.59858 14.5571 4.75878C14.4652 5.32551 14.5616 5.50782 14.6049 6.02786C13.5379 6.02786 12.9731 6.24023 11.897 6.24023C11.4694 6.87858 11.8678 7.69534 12.2575 8.26879C12.3481 8.40194 12.4416 8.48204 12.481 8.62969C12.2123 8.69211 12.0878 8.75347 11.7865 8.78512C11.3865 8.82703 11.483 8.93684 11.552 9.2355L11.7523 10.314C11.7746 10.4232 11.8101 10.5196 11.8397 10.6515C12.1449 12.014 12.5829 13.2343 13.2352 14.4064C13.5331 14.9417 13.8406 15.4936 14.2021 15.9881C15.7256 18.0729 15.1078 17.3922 16.6147 16.5331L16.8568 16.4035C16.9719 16.3437 16.9933 16.3395 17.1157 16.2909C17.6445 16.0806 18.1476 15.9167 18.7318 15.8363C19.6061 15.716 20.1245 15.7068 20.9874 15.9464C21.2336 16.0147 21.3618 16.0237 21.5694 16.1077C22.7792 16.5977 23.762 17.2447 24.4921 18.3353C24.6872 18.6268 24.8872 18.9362 25.0357 19.2787C26.0488 21.6167 25.4557 24.5609 23.5353 26.2151L22.4104 26.9484C21.8348 27.2481 21.3307 27.3882 20.678 27.5524C20.6087 27.5698 20.0646 27.6175 19.9999 27.6148C19.7672 27.6053 19.8085 27.3385 19.8085 27.0545C20.3776 26.922 20.7823 26.9196 21.3743 26.7088C21.5077 26.6614 21.5004 26.6672 21.6055 26.6214C21.6889 26.5852 21.7696 26.5496 21.862 26.5061C24.281 25.3713 25.4219 22.4917 24.5351 19.9385C24.4531 19.7022 24.3286 19.4616 24.2129 19.2517C23.4178 17.8063 22.2311 16.9985 20.6658 16.5864C19.8543 16.3729 18.754 16.4567 17.955 16.7055C17.4446 16.8645 16.9776 17.1193 16.5693 17.3906C16.1396 17.676 15.5884 18.2966 15.4013 18.3465C14.9974 18.0759 14.2903 17.3324 13.9574 16.8702C13.8698 16.7487 13.8007 16.6472 13.7093 16.534C13.1848 15.8858 12.742 15.1316 12.3235 14.4155L11.7461 13.2406C11.1884 12.0592 10.6884 10.4657 10.4622 9.16158L10.204 7.66758C10.1825 7.46688 10.1998 7.32276 10.1688 7.11871C10.0346 6.23281 10.0247 5.16248 10.0364 4.22034C10.0399 3.93406 10.0856 3.90736 10.0933 3.64018C10.1022 3.3355 10.1685 2.04697 10.236 1.81833L10.5694 0.187107C10.3508 0.168893 10.3856 0.12504 10.1467 0.0787118C9.57453 -0.0323352 8.90524 -0.0486033 8.33286 0.180564C7.97938 0.321848 7.64712 0.556674 7.41283 0.853389C6.79606 1.63479 6.32163 2.96152 6.32163 4.0101Z" fill="#D7262C"/>
</g>
<defs>
<clipPath id="clip0">
<rect width="32" height="32" fill="white"/>
</clipPath>
</defs>
</svg>
