<svg width="32" height="32" viewBox="0 0 32 32" fill="none" xmlns="http://www.w3.org/2000/svg">
<path d="M22.3445 7.54621L25.6214 5.71033C25.6214 5.71033 25.6708 5.3931 25.5445 5.27762C25.4182 5.16213 25.2678 5.12658 25.2678 5.12658L11.1156 0.0762771C11.1156 0.0762771 10.9602 0.0240145 10.8466 0.0869191C10.733 0.149824 10.7371 0.313244 10.7371 0.313244V2.27638C10.7371 2.27638 10.7351 2.73126 11.0509 3.21988C11.3666 3.70849 11.879 3.83499 11.879 3.83499L22.3445 7.54621Z" fill="#ED1651"/>
<path d="M8.32094 13.0398L11.8437 12.0336C11.8437 12.0336 11.8059 11.7983 11.6796 11.6828C11.5533 11.5673 11.3261 11.4959 11.3261 11.4959L6.4299 9.71739C6.4299 9.71739 6.27446 9.66513 6.16089 9.72803C6.04733 9.79094 6.05136 9.95436 6.05136 9.95436V12.2312C6.05136 12.2312 6.03915 12.4492 6.3549 12.9379C6.67066 13.4265 7.41859 13.302 7.41859 13.302L8.32094 13.0398Z" fill="#ED1651"/>
<path d="M25.6214 11.563L22.3445 13.2606L7.193 7.75711C7.193 7.75711 6.68064 7.63061 6.36488 7.142C6.04913 6.65338 6.0511 6.1985 6.0511 6.1985V4.23536C6.0511 4.23536 6.04707 4.07194 6.16064 4.00904C6.2742 3.94613 6.42964 3.9984 6.42964 3.9984L25.2678 10.8409C25.2678 10.8409 25.4386 10.9021 25.565 11.0176C25.6913 11.1331 25.6214 11.563 25.6214 11.563Z" fill="#ED1651"/>
<path d="M25.6213 5.31329C25.4591 5.1554 25.2678 5.1264 25.2678 5.1264C25.2678 5.1264 25.5479 5.21556 25.5479 5.42124C25.5479 5.71911 24.8292 6.01229 24.8292 6.01229L6.7301 12.5865C6.7301 12.5865 6.35633 12.7157 6.21608 12.5979C6.07583 12.4801 6.05133 12.232 6.05133 12.232C6.05133 12.232 6.04006 12.7159 6.19626 12.9597C6.33496 13.177 6.43271 13.1997 6.43271 13.1997L10.3732 14.6311C10.3732 14.6311 10.4412 14.6521 10.5297 14.6521C10.6182 14.6521 10.6862 14.6311 10.6862 14.6311L25.2729 9.3327C25.2729 9.3327 25.4863 9.25715 25.6319 8.93779C25.7776 8.61844 25.7854 8.26332 25.7854 8.26332V5.66407C25.7854 5.66407 25.7836 5.47119 25.6213 5.31329Z" fill="#2A0088"/>
<path d="M25.6213 11.0276C25.4591 10.8697 25.2678 10.8407 25.2678 10.8407C25.2678 10.8407 25.5478 10.929 25.5478 11.1347C25.5478 11.4326 24.8291 11.7257 24.8291 11.7257L10.6862 16.8629V20.3454L25.2729 15.047C25.2729 15.047 25.4863 14.9714 25.6319 14.6521C25.7776 14.3327 25.7854 13.9776 25.7854 13.9776V11.3784C25.7854 11.3784 25.7836 11.1855 25.6213 11.0276Z" fill="#2A0088"/>
<path d="M18.2471 19.9894C18.3824 20.1247 18.3824 20.4226 18.3824 20.4226V22.3663C18.3824 22.3663 18.3746 22.7214 18.2289 23.0408C18.0833 23.3601 17.87 23.4357 17.87 23.4357L10.686 26.0452V22.5627L17.4261 20.1144C17.4261 20.1144 18.1117 19.854 18.2471 19.9894Z" fill="#2A0088"/>
<path d="M14.0344 27.6907C14.0344 27.6907 14.0344 27.3929 13.8991 27.2575C13.7637 27.1221 13.0782 27.3825 13.0782 27.3825L10.686 28.2945V31.777L13.0782 30.865L13.522 30.7038C13.522 30.7038 13.7353 30.6282 13.881 30.3089C14.0266 29.9895 14.0344 29.6344 14.0344 29.6344V27.6907Z" fill="#2A0088"/>
</svg>
