<svg width="32" height="32" viewBox="0 0 32 32" fill="none" xmlns="http://www.w3.org/2000/svg">
<path fill-rule="evenodd" clip-rule="evenodd" d="M29.0711 7.33159C25.9092 2.12949 19.4574 -0.67209 13.4822 0.164896C5.83894 1.00769 -0.252458 8.36038 0.189285 15.9979C0.15441 23.9202 7.01305 31.1508 14.9412 31.4647C21.4743 31.9646 28.0307 27.8261 30.4312 21.7463C32.3435 17.0964 31.8785 11.5223 29.0711 7.33159ZM1.6947 11.6386C3.12455 6.46554 7.63497 2.33292 12.8952 1.30994C17.9636 0.199771 23.5551 2.02486 26.967 5.93661C30.0243 9.22643 31.3205 13.9752 30.5126 18.3693C29.7279 23.5191 25.9034 28.0296 20.9919 29.7384C16.1153 31.5809 10.3087 30.5173 6.33881 27.1519C1.92138 23.4901 -0.0141492 17.1255 1.6947 11.6386Z" fill="#0854A1"/>
<path fill-rule="evenodd" clip-rule="evenodd" d="M26.967 5.93683C23.5551 2.02509 17.9636 0.199991 12.8952 1.31016C7.63494 2.33314 3.12452 6.46576 1.69467 11.6388C-0.0141786 17.1257 1.92135 23.4903 6.33878 27.1521C10.3086 30.5175 16.1152 31.5812 20.9918 29.7386C25.9033 28.0298 29.7279 23.5194 30.5126 18.3696C31.3205 13.9754 30.0243 9.22665 26.967 5.93683ZM5.7866 7.58755C7.54194 5.32072 10.1052 3.74556 12.8545 2.99576C18.4576 1.54847 24.799 4.46629 27.368 9.63933C29.5593 13.5801 29.4024 18.6486 27.1123 22.508C24.8222 26.5302 20.2014 29.1574 15.5631 28.9423C10.6865 28.9016 6.0191 25.7106 4.11844 21.2409C1.9911 16.87 2.78159 11.3598 5.7866 7.58755Z" fill="white"/>
<path fill-rule="evenodd" clip-rule="evenodd" d="M27.3681 9.6392C24.799 4.46616 18.4577 1.54834 12.8545 2.99562C10.1053 3.74542 7.542 5.32059 5.78665 7.58742C2.78164 11.3597 1.99115 16.8698 4.11849 21.2408C6.01915 25.7105 10.6865 28.9015 15.5631 28.9422C20.2014 29.1572 24.8223 26.53 27.1124 22.5079C29.4024 18.6484 29.5594 13.58 27.3681 9.6392ZM7.12351 21.45C6.32721 21.4674 5.53672 21.5081 4.74042 21.5721C5.43831 18.9067 6.47476 16.343 7.51144 13.7787C8.19293 12.093 8.87452 10.407 9.46009 8.69178C9.7449 8.71212 10.1721 8.74118 10.5993 8.77025C11.0265 8.79931 11.4537 8.82837 11.7386 8.84871C12.2031 10.3768 12.8074 11.8534 13.4121 13.331C13.9575 14.6636 14.5032 15.9971 14.947 17.3697C15.0028 17.5115 15.0546 17.6583 15.1068 17.8063C15.3262 18.4283 15.5529 19.0713 16.1211 19.4563C16.2166 16.5407 16.173 13.6251 16.1294 10.7095C16.1226 10.2539 16.1158 9.79834 16.1095 9.34277L16.5222 8.73247C16.7366 8.75391 17.0511 8.78647 17.3739 8.8199C17.7513 8.85897 18.14 8.89922 18.3938 8.92428C18.2368 10.6506 18.1554 12.3827 18.324 14.1089C18.534 13.922 18.7453 13.7355 18.9569 13.5488C20.6131 12.0872 22.2865 10.6105 23.5029 8.7499C23.8954 8.78189 24.4828 8.82987 25.0702 8.87785C25.6569 8.92578 26.2436 8.9737 26.6357 9.00565C25.0315 10.7261 23.3285 12.3536 21.579 13.9229C22.629 15.5836 23.7816 17.1727 24.9344 18.7621C25.5811 19.6538 26.2279 20.5455 26.8566 21.45C25.8046 21.4442 24.7467 21.4907 23.6947 21.5604C23.1401 20.1036 22.2285 18.8043 21.3198 17.5089C20.8762 16.8766 20.4333 16.2452 20.0329 15.5969C19.451 16.0987 18.8986 16.6249 18.3441 17.1532C18.2948 17.2002 18.2455 17.2472 18.1961 17.2941C18.2019 17.4932 18.2074 17.6922 18.2128 17.8912C18.2456 19.0871 18.2783 20.2823 18.3879 21.4733C18.0049 21.4747 17.6215 21.4769 17.2379 21.4791C16.0848 21.4856 14.9301 21.4921 13.7787 21.4791C13.7246 21.2164 13.6796 20.9509 13.6345 20.6853C13.5101 19.9515 13.3854 19.2165 13.0696 18.538C12.1029 18.1191 11.0325 18.192 9.96178 18.2649C9.29425 18.3104 8.62657 18.3559 7.98374 18.2822C7.5885 19.3052 7.30369 20.3631 7.12351 21.45Z" fill="#0854A1"/>
<path fill-rule="evenodd" clip-rule="evenodd" d="M7.51144 13.7788C6.47476 16.3431 5.43831 18.9069 4.74042 21.5722C5.53672 21.5082 6.3272 21.4676 7.1235 21.4501C7.30369 20.3632 7.58849 19.3053 7.98374 18.2824C8.62656 18.356 9.29425 18.3105 9.96177 18.2651C11.0325 18.1921 12.1029 18.1192 13.0696 18.5381C13.3854 19.2166 13.5101 19.9516 13.6345 20.6854C13.6796 20.9511 13.7246 21.2166 13.7787 21.4792C14.9301 21.4923 16.0848 21.4857 17.2378 21.4792C17.6214 21.477 18.0049 21.4748 18.3879 21.4734C18.2783 20.2824 18.2456 19.0871 18.2128 17.8913C18.2074 17.6923 18.2019 17.4933 18.1961 17.2943C18.2455 17.2473 18.2948 17.2003 18.3441 17.1533C18.8986 16.6251 19.451 16.0988 20.0328 15.597C20.4333 16.2453 20.8762 16.8767 21.3198 17.5091C22.2285 18.8044 23.1401 20.1037 23.6947 21.5606C24.7467 21.4908 25.8046 21.4443 26.8566 21.4501C26.2278 20.5456 25.5811 19.6539 24.9343 18.7622C23.7816 17.1729 22.629 15.5837 21.5789 13.9231C23.3285 12.3537 25.0315 10.7262 26.6357 9.00576C26.2434 8.9738 25.6564 8.92584 25.0693 8.87789C24.4823 8.82994 23.8952 8.78199 23.5029 8.75002C22.2865 10.6106 20.6131 12.0873 18.9569 13.5489C18.7453 13.7356 18.534 13.9221 18.324 14.1091C18.1554 12.3828 18.2368 10.6507 18.3938 8.92439C18.14 8.89933 17.7513 8.85908 17.3739 8.82001C17.0511 8.78659 16.7366 8.75402 16.5222 8.73258L16.1095 9.34288C16.1158 9.79844 16.1226 10.254 16.1294 10.7096C16.173 13.6252 16.2166 16.5408 16.1211 19.4565C15.5529 19.0714 15.3262 18.4285 15.1068 17.8064C15.0546 17.6584 15.0028 17.5117 14.947 17.3698C14.5032 15.9972 13.9575 14.6637 13.4121 13.3311C12.8074 11.8535 12.2031 10.3769 11.7386 8.84883C11.4537 8.82849 11.0265 8.79942 10.5993 8.77036C10.1721 8.7413 9.7449 8.71224 9.46009 8.69189C8.87451 10.4071 8.19292 12.0931 7.51144 13.7788ZM10.1211 12.9334C10.2451 12.6496 10.3691 12.3658 10.4889 12.0805C11.1297 13.008 11.4709 14.0701 11.8118 15.1314C11.9408 15.5333 12.0699 15.9351 12.2152 16.3294C11.1166 16.341 10.0181 16.3585 8.91372 16.3875C9.14101 15.1769 9.63112 14.055 10.1211 12.9334Z" fill="white"/>
<path d="M10.4889 12.0801C11.3723 13.3588 11.6862 14.8933 12.2151 16.3289C11.1166 16.3406 10.0181 16.358 8.9137 16.3871C9.1985 14.87 9.89599 13.4925 10.4889 12.0801Z" fill="#0854A1"/>
</svg>
