<svg width="32" height="32" viewBox="0 0 32 32" fill="none" xmlns="http://www.w3.org/2000/svg">
<path d="M24.8538 16.6671C24.809 16.8054 24.7412 16.9262 24.6498 17.0294C24.558 17.1327 24.4405 17.2126 24.2977 17.2689C24.1545 17.3252 23.9844 17.3534 23.7869 17.3534C23.6368 17.3534 23.5148 17.3464 23.4209 17.3322C23.3271 17.3179 23.2663 17.304 23.2382 17.2901V16.0368C23.2382 15.7695 23.3059 15.5463 23.4422 15.368C23.5784 15.1897 23.7824 15.1008 24.0546 15.1008C24.3267 15.1008 24.5393 15.2004 24.6919 15.3999C24.8441 15.5994 24.9208 15.8634 24.9208 16.1918C24.9208 16.3562 24.8983 16.5284 24.8538 16.6671ZM25.4381 14.7626C25.2855 14.6128 25.1093 14.4986 24.9102 14.4215C24.7106 14.344 24.4985 14.3052 24.2729 14.3052C24.1084 14.3052 23.964 14.3252 23.84 14.3652C23.7155 14.4048 23.6098 14.4521 23.5234 14.5059C23.4364 14.5598 23.3695 14.6104 23.3226 14.6573C23.2757 14.7042 23.2475 14.7348 23.2382 14.7487V13.0845L22.2524 13.3692V18.0152C22.2806 18.0196 22.3357 18.0278 22.4181 18.0396C22.5001 18.0515 22.6021 18.0621 22.7241 18.0715C22.8461 18.0808 22.9844 18.0902 23.1394 18.0996C23.2945 18.109 23.4564 18.1135 23.6254 18.1135C24.3899 18.1135 24.9665 17.9364 25.3536 17.5823C25.7408 17.2277 25.9342 16.7153 25.9342 16.0861C25.9342 15.8001 25.8898 15.5455 25.8004 15.3223C25.7115 15.0996 25.5907 14.9131 25.4381 14.7626ZM20.3907 16.3819C20.3907 16.6496 20.3226 16.8723 20.1867 17.0506C20.0504 17.2289 19.8464 17.3183 19.5739 17.3183C19.3022 17.3183 19.0896 17.2187 18.937 17.0192C18.7848 16.8197 18.7081 16.5557 18.7081 16.2273C18.7081 16.0629 18.7306 15.8903 18.7754 15.752C18.8199 15.6137 18.8876 15.4929 18.9794 15.3897C19.0708 15.286 19.1883 15.2065 19.3315 15.1502C19.4747 15.0939 19.6445 15.0657 19.842 15.0657C19.9921 15.0657 20.1141 15.0727 20.2079 15.0869C20.3018 15.1008 20.3626 15.1151 20.3907 15.129V16.3819ZM20.8979 14.4635C20.7616 14.4235 20.5951 14.3872 20.3981 14.3542C20.2006 14.3215 19.9754 14.3052 19.722 14.3052C19.4074 14.3052 19.1259 14.3533 18.8774 14.4492C18.6286 14.5455 18.416 14.6806 18.2401 14.8544C18.0643 15.0278 17.9292 15.2379 17.8354 15.4843C17.7416 15.7308 17.6946 16.0368 17.6946 16.3326C17.6946 16.6235 17.7391 16.8805 17.8285 17.1033C17.9174 17.3265 18.037 17.5129 18.1875 17.6631C18.3376 17.8132 18.5135 17.9258 18.7155 18.0009C18.917 18.076 19.1308 18.1135 19.356 18.1135C19.5155 18.1135 19.6575 18.0935 19.782 18.0535C19.9064 18.0139 20.0117 17.9682 20.099 17.9164C20.1855 17.865 20.2536 17.8144 20.303 17.7651C20.352 17.7161 20.3813 17.6843 20.3907 17.67V18.0152L21.3764 18.0148V14.6642C21.3528 14.65 21.3014 14.623 21.2214 14.583C21.1418 14.5435 21.0337 14.5035 20.8979 14.4635V14.4635ZM17.6828 14.4443C17.5837 14.3925 17.4405 14.348 17.2348 14.315C17.1173 14.2962 16.9929 14.2872 16.8615 14.2872C16.6457 14.2872 16.4461 14.3072 16.2634 14.3468C16.0802 14.3868 15.9194 14.4313 15.7811 14.4806C15.6424 14.53 15.531 14.5782 15.4465 14.6251C15.3621 14.672 15.3103 14.7026 15.2919 14.7165V18.0152H16.2772V15.2587C16.3197 15.235 16.3947 15.2036 16.5029 15.1636C16.6106 15.1237 16.7632 15.1037 16.9602 15.1037C17.0259 15.1037 17.0953 15.1086 17.1679 15.1179C17.2405 15.1273 17.2989 15.1351 17.3719 15.1563C17.378 15.1583 17.3833 15.1596 17.389 15.1616C17.491 14.9143 17.5857 14.683 17.673 14.4684C17.6763 14.4602 17.6795 14.4525 17.6828 14.4443L17.6828 14.4443ZM31.0139 16.3819C31.0139 16.6496 30.9457 16.8723 30.8099 17.0506C30.6736 17.2289 30.4696 17.3183 30.197 17.3183C29.9253 17.3183 29.7127 17.2187 29.5601 17.0192C29.408 16.8197 29.3313 16.5557 29.3313 16.2273C29.3313 16.0629 29.3537 15.8903 29.3982 15.752C29.443 15.6137 29.5108 15.4929 29.6026 15.3897C29.694 15.286 29.8115 15.2065 29.9543 15.1502C30.0975 15.0939 30.2676 15.0657 30.4651 15.0657C30.6148 15.0657 30.7372 15.0727 30.8311 15.0869C30.9249 15.1008 30.9857 15.1151 31.0139 15.129V16.3819ZM31.8445 14.583C31.765 14.5435 31.6569 14.5035 31.521 14.4635C31.3847 14.4235 31.2183 14.3872 31.0208 14.3542C30.8237 14.3215 30.5985 14.3052 30.3451 14.3052C30.0306 14.3052 29.749 14.3533 29.5002 14.4492C29.2513 14.5455 29.0391 14.6806 28.8633 14.8544C28.687 15.0278 28.5524 15.2379 28.4585 15.4843C28.3647 15.7308 28.3178 16.0368 28.3178 16.3326C28.3178 16.6235 28.3622 16.8805 28.4512 17.1033C28.5405 17.3265 28.6601 17.5129 28.8106 17.6631C28.9608 17.8132 29.1366 17.9258 29.3386 18.0009C29.5401 18.076 29.7539 18.1135 29.9792 18.1135C30.1387 18.1135 30.2807 18.0935 30.4051 18.0535C30.5291 18.0139 30.6348 17.9682 30.7217 17.9164C30.8086 17.865 30.8768 17.8144 30.9261 17.7651C30.9751 17.7161 31.0045 17.6843 31.0139 17.67V18.0152L31.9996 18.0148V14.6642C31.9759 14.65 31.9241 14.623 31.8445 14.583V14.583ZM27.1395 13C26.9889 13 26.86 13.0518 26.7523 13.155C26.6442 13.2583 26.5899 13.3847 26.5899 13.5349C26.5899 13.685 26.6442 13.8131 26.7523 13.9188C26.86 14.0241 26.9889 14.0771 27.1395 14.0771C27.2941 14.0771 27.4255 14.0241 27.5332 13.9188C27.6413 13.8131 27.6952 13.685 27.6952 13.5349C27.6952 13.3847 27.6413 13.2583 27.5332 13.155C27.4255 13.0518 27.2941 13 27.1395 13ZM26.6499 18.0148H27.6356V14.3052L26.6499 14.5896V18.0148ZM11.3959 16.0009C11.4808 15.7724 11.5673 15.5419 11.6546 15.3109C11.7415 15.0796 11.8219 14.867 11.8949 14.6732C11.9683 14.479 12.0332 14.3125 12.0899 14.1734C12.1462 14.0343 12.1866 13.9396 12.2103 13.8899C12.2339 13.9396 12.2739 14.0343 12.3306 14.1734C12.3873 14.3125 12.4522 14.479 12.5253 14.6732C12.5983 14.867 12.6787 15.0796 12.766 15.3109C12.8533 15.5419 12.9394 15.7724 13.0242 16.0009H11.3959ZM14.1287 16.1722C14.0108 15.8642 13.8929 15.5671 13.775 15.2807C13.6566 14.9947 13.5481 14.7303 13.449 14.4868C13.3498 14.2428 13.2605 14.0302 13.1801 13.8486C13.1001 13.6671 13.0361 13.5267 12.9887 13.4272C12.8851 13.1934 12.8398 13.0885 12.8398 13.0885H11.5803C11.5803 13.0885 11.535 13.1934 11.4314 13.4272C11.3841 13.5267 11.3204 13.6671 11.2405 13.8486C11.1601 14.0302 11.0703 14.2428 10.9712 14.4868C10.8724 14.7303 10.7635 14.9947 10.6456 15.2807C10.5277 15.5671 10.4098 15.8642 10.2914 16.1722C10.1735 16.4807 10.0556 16.7916 9.9377 17.1049C9.81979 17.4183 9.70881 17.7214 9.60518 18.0148H10.6456L11.0491 16.9258H13.371L13.775 18.0148H14.8154C14.7117 17.7214 14.6008 17.4183 14.4824 17.1049C14.3645 16.7916 14.2466 16.4807 14.1287 16.1722ZM6.24447 13C6.09433 13 5.96499 13.0518 5.85728 13.155C5.74916 13.2583 5.6953 13.3847 5.6953 13.5349C5.6953 13.685 5.74916 13.8131 5.85728 13.9188C5.96499 14.0241 6.09433 14.0771 6.24447 14.0771C6.3991 14.0771 6.53048 14.0241 6.6386 13.9188C6.74631 13.8131 6.80058 13.685 6.80058 13.5349C6.80058 13.3847 6.74631 13.2583 6.6386 13.155C6.53048 13.0518 6.3991 13 6.24447 13ZM5.75528 18.0148H6.7406V14.3052L5.75528 14.5896V18.0148ZM1.79031 16.0009C1.87558 15.7724 1.96167 15.5419 2.04899 15.3109C2.1363 15.0796 2.21667 14.867 2.28971 14.6732C2.36274 14.479 2.42802 14.3125 2.48473 14.1734C2.54104 14.0343 2.58143 13.9396 2.60468 13.8899C2.62876 13.9396 2.66874 14.0343 2.72504 14.1734C2.78217 14.3125 2.84704 14.479 2.92007 14.6732C2.9931 14.867 3.07348 15.0796 3.16038 15.3109C3.2481 15.5419 3.33419 15.7724 3.41906 16.0009H1.79031ZM4.52352 16.1722C4.4056 15.8642 4.28728 15.5671 4.16937 15.2807C4.05146 14.9947 3.94293 14.7303 3.84379 14.4868C3.74464 14.2428 3.65488 14.0302 3.57451 13.8486C3.49454 13.6671 3.43089 13.5267 3.38356 13.4272C3.27952 13.1934 3.23464 13.0885 3.23464 13.0885H1.97514C1.97514 13.0885 1.92985 13.1934 1.82622 13.4272C1.77889 13.5267 1.71524 13.6671 1.63486 13.8486C1.5549 14.0302 1.46513 14.2428 1.36599 14.4868C1.26685 14.7303 1.15832 14.9947 1.0404 15.2807C0.922492 15.5671 0.804172 15.8642 0.686259 16.1722C0.568347 16.4807 0.450434 16.7916 0.332114 17.1049C0.214201 17.4183 0.103224 17.7214 0 18.0148H1.0404L1.44392 16.9258H3.76586L4.16937 18.0148H5.20978C5.10614 17.7214 4.99517 17.4183 4.87726 17.1049C4.75934 16.7916 4.64143 16.4807 4.52352 16.1722ZM9.76553 15.1616C9.86712 14.9143 9.96218 14.683 10.0495 14.4684C10.0528 14.4602 10.056 14.4525 10.0593 14.4443C9.96014 14.3925 9.81693 14.348 9.6113 14.315C9.49379 14.2962 9.36935 14.2872 9.23798 14.2872C9.02214 14.2872 8.82263 14.3072 8.63984 14.3468C8.45665 14.3868 8.2959 14.4313 8.15759 14.4806C8.01887 14.53 7.90748 14.5782 7.82302 14.6251C7.73857 14.672 7.68675 14.7026 7.66839 14.7165V18.0152H8.65372V15.2587C8.69615 15.235 8.77081 15.2036 8.87934 15.1636C8.98705 15.1237 9.13964 15.1037 9.33671 15.1037C9.4024 15.1037 9.47135 15.1086 9.54438 15.1179C9.61701 15.1273 9.67535 15.1351 9.74839 15.1563C9.75451 15.1583 9.75981 15.1596 9.76552 15.1616" fill="#E81142"/>
</svg>
