<svg width="32" height="32" viewBox="0 0 32 32" fill="none" xmlns="http://www.w3.org/2000/svg">
<path d="M15.5875 10.2789C15.5875 10.2789 15.4352 11.8853 15.6135 12.2495L15.3101 11.6314C14.5818 10.1476 12.6025 9.02915 11.0568 8.52505C10.3941 8.28104 9.60886 8.37394 9.60886 8.37394C8.82731 8.45445 8.4706 8.56097 8.4706 8.56097C9.55808 8.84957 10.5725 9.73763 11.2203 10.809C11.9114 11.9497 12.112 13.2887 11.7702 14.4789C11.7702 14.4789 11.7219 14.6635 11.7144 14.6462C11.7144 14.6462 9.83798 9.25459 6.19654 8.97963C4.25196 8.82234 2.86847 9.64227 2.05224 10.3557C0.869391 11.3887 0.0890805 12.8762 0.0160035 14.2387C-0.142551 16.3864 0.921401 18.1699 1.24963 18.6641C2.19343 20.138 4.74244 22.7032 7.15149 24.4793C7.15149 24.4793 9.99776 26.601 12.9307 27.0221H14.7985C15.2444 26.9465 15.6792 26.8103 16.0904 26.596C12.9518 25.3649 9.76986 23.0946 7.61967 20.4019C6.88891 19.3367 6.04791 17.7996 6.15319 16.4879C6.27706 14.9409 7.6494 13.7866 9.21374 13.9129C10.269 13.9971 11.1819 14.6449 11.5931 15.6036C12.0947 18.7657 15.1292 22.3873 18.1353 24.5586C18.1353 24.5586 19.2847 25.6014 21.0583 25.0973L26.4078 23.4587L24.4657 22.4517C21.8126 21.0385 19.5213 19.245 17.9842 17.3574C16.0582 14.827 15.99 13.1797 15.99 13.1797C15.9827 12.704 16.047 12.1962 16.3604 11.759C16.8224 11.1137 17.7947 10.7075 18.6431 10.6864C18.6431 10.6864 19.5485 10.6741 20.117 10.996C22.0579 11.9039 23.2742 15.3212 23.4922 15.7138C23.4922 15.7138 27.0283 23.3695 32 21.7866C30.1657 20.7214 28.1294 15.7745 28.1294 15.7745C27.6327 14.422 27.1002 12.3597 26.8537 10.892C26.3 7.59982 25.2509 5.29853 21.7693 5.01861C21.6132 5.00632 21.4584 5 21.3048 5C18.3446 5 15.829 7.28148 15.5875 10.2789" fill="url(#paint0_linear)"/>
<defs>
<linearGradient id="paint0_linear" x1="0.941894" y1="2.70865" x2="33.3255" y2="5.31416" gradientUnits="userSpaceOnUse">
<stop stop-color="#FBC707"/>
<stop offset="1" stop-color="#F68712"/>
</linearGradient>
</defs>
</svg>
