<svg width="32" height="32" viewBox="0 0 32 32" fill="none" xmlns="http://www.w3.org/2000/svg">
<path fill-rule="evenodd" clip-rule="evenodd" d="M21.7001 16.9881C21.8223 16.5983 22.3575 16.2842 22.6717 16.2842C22.9393 16.2842 23.108 16.4296 23.108 16.6972V17.087C23.108 17.3314 22.8637 17.4768 22.5961 17.4768C22.0143 17.4768 21.7234 17.9888 21.7234 18.5938V19.6585C21.7234 19.9261 21.6012 20.0715 21.3627 20.0715H20.9031C20.6588 20.0715 20.5133 19.9261 20.5133 19.6585V16.7263C20.5133 16.4587 20.6588 16.3133 20.9031 16.3133H21.3162C21.5605 16.3133 21.7059 16.4587 21.7059 16.7263V16.9939L21.7001 16.9881Z" fill="#525350"/>
<path fill-rule="evenodd" clip-rule="evenodd" d="M13.6019 16.9881C13.724 16.5983 14.2593 16.2842 14.5967 16.2842C14.841 16.2842 15.0097 16.4296 15.0097 16.6972V17.087C15.0097 17.3314 14.7945 17.4768 14.5269 17.4768C13.9451 17.4768 13.6542 17.9888 13.6542 18.5938V19.6585C13.6542 19.9261 13.532 20.0715 13.2644 20.0715H12.8048C12.5605 20.0715 12.4441 19.9261 12.4441 19.6585V16.7263C12.4441 16.4587 12.5663 16.3133 12.8048 16.3133H13.2179C13.4855 16.3133 13.6077 16.4587 13.6077 16.7263V16.9939L13.6019 16.9881Z" fill="#525350"/>
<path fill-rule="evenodd" clip-rule="evenodd" d="M19.4952 15.8945C18.96 15.8945 18.5469 15.4581 18.5469 14.9462C18.5469 14.4109 18.96 13.9746 19.4952 13.9746C20.0072 13.9746 20.4144 14.4109 20.4144 14.9462C20.4144 15.4581 20.0014 15.8945 19.4952 15.8945Z" fill="#F69E25"/>
<path fill-rule="evenodd" clip-rule="evenodd" d="M3.46737 15.8945C2.95541 15.8945 2.51908 15.4581 2.51908 14.9462C2.51908 14.4109 2.95541 13.9746 3.46737 13.9746C4.0026 13.9746 4.41566 14.4109 4.41566 14.9462C4.41566 15.4581 3.97933 15.8945 3.46737 15.8945Z" fill="#525350"/>
<path fill-rule="evenodd" clip-rule="evenodd" d="M17.0692 17.7384H17.1914V17.6919C17.1914 17.3777 16.9238 17.2788 16.6562 17.2788C16.4118 17.2788 16.1442 17.3545 15.9522 17.4243C15.7079 17.5465 15.5392 17.4999 15.417 17.2556L15.3181 17.0869C15.1959 16.8658 15.2483 16.6738 15.4868 16.5516C15.7777 16.4295 16.214 16.2607 16.7725 16.2607C17.8139 16.2607 18.4713 16.8425 18.4713 17.7617V19.6525C18.4713 19.9201 18.3258 20.0655 18.0582 20.0655H17.6917C17.4241 20.0655 17.3019 19.9201 17.3019 19.6525V19.6292C17.3019 19.5827 17.3019 19.5303 17.3019 19.5303L17.2787 19.5536C17.2787 19.5536 16.9121 20.1353 16.1617 20.1353C15.4344 20.1353 14.8992 19.6525 14.8992 19.0183C14.8992 18.0235 16.1384 17.7326 17.0576 17.7326L17.0692 17.7384ZM16.4525 19.2627C16.8656 19.2627 17.1798 18.8496 17.1798 18.5122V18.4133H17.0576C16.598 18.4133 16.0162 18.5355 16.0162 18.9253C16.0162 19.1172 16.1849 19.2627 16.4525 19.2627Z" fill="#525350"/>
<path fill-rule="evenodd" clip-rule="evenodd" d="M0.51196 17.378H0.389788C0.145443 17.378 0 17.2558 0 16.9882V16.8195C0 16.5518 0.145443 16.4064 0.389788 16.4064H0.535231V15.7257C0.535231 15.4581 0.680674 15.3359 0.925019 15.3359H1.33808C1.60569 15.3359 1.75114 15.4581 1.75114 15.7257V16.4064H2.11765C2.362 16.4064 2.50744 16.5518 2.50744 16.8195V16.9882C2.50744 17.2558 2.362 17.378 2.11765 17.378H1.75114V18.5182C1.75114 18.8324 1.94312 18.9546 2.1642 19.0011C2.45508 19.0244 2.55398 19.1233 2.55398 19.3909V19.7283C2.55398 20.0192 2.362 20.1181 2.04202 20.1181C1.50679 20.1181 0.51196 19.8505 0.51196 18.7626V17.378Z" fill="#525350"/>
<path fill-rule="evenodd" clip-rule="evenodd" d="M2.86232 16.7207C2.86232 16.4531 2.98449 16.3076 3.25211 16.3076H3.68844C3.95606 16.3076 4.1015 16.4531 4.1015 16.7207V19.6528C4.1015 19.9204 3.95606 20.0659 3.68844 20.0659H3.25211C2.98449 20.0659 2.86232 19.9204 2.86232 19.6528V16.7207Z" fill="#525350"/>
<path fill-rule="evenodd" clip-rule="evenodd" d="M18.8843 16.7207C18.8843 16.4531 19.0065 16.3076 19.245 16.3076H19.7046C19.949 16.3076 20.0944 16.4531 20.0944 16.7207V19.6528C20.0944 19.9204 19.949 20.0659 19.7046 20.0659H19.245C19.0007 20.0659 18.8843 19.9204 18.8843 19.6528V16.7207Z" fill="#525350"/>
<path fill-rule="evenodd" clip-rule="evenodd" d="M10.4486 16.2607C11.5656 16.2607 12.1474 17.0345 12.1474 18.0293C12.1474 18.2504 11.9787 18.4657 11.7344 18.4657H9.82033C9.91923 18.902 10.2799 19.1231 10.6697 19.1231C10.9141 19.1231 11.1526 19.0242 11.3504 18.9544C11.5715 18.8322 11.7402 18.8554 11.8623 19.0998L11.9845 19.2918C12.0834 19.5129 12.0602 19.7048 11.8391 19.827C11.5715 19.9957 11.1351 20.1644 10.5766 20.1644C9.26764 20.1644 8.5637 19.2161 8.5637 18.198C8.5637 17.1043 9.29091 16.2607 10.4545 16.2607H10.4486ZM10.9897 17.7384C10.9897 17.4243 10.7977 17.1567 10.4545 17.1567C10.0879 17.1567 9.91923 17.4243 9.84941 17.7384H10.9897Z" fill="#525350"/>
<path fill-rule="evenodd" clip-rule="evenodd" d="M7.03363 19.7053V19.7286C7.03363 19.874 7.03363 20.1183 7.03363 20.3103C7.13254 20.2114 7.27798 20.1649 7.44669 20.1649H7.88302C8.05174 20.1649 8.19718 20.2114 8.27281 20.3103V16.6742C8.27281 16.4066 8.12737 16.2612 7.88302 16.2612H7.42342C7.20235 16.2612 7.05691 16.3834 7.03363 16.5986V16.6219C7.03363 16.6219 6.81256 16.2554 6.06207 16.2554C5.09051 16.2554 4.38657 17.0291 4.38657 18.1927C4.38657 19.3562 5.04397 20.1591 6.03298 20.1591C6.61476 20.1591 6.90564 19.8449 7.02782 19.6995L7.03363 19.7053ZM6.32387 19.1177C5.88754 19.1177 5.57338 18.7803 5.57338 18.1985C5.57338 17.64 5.9399 17.3026 6.32387 17.3026C6.80674 17.3026 7.07436 17.7622 7.07436 18.1985C7.07436 18.8559 6.68457 19.1177 6.32387 19.1177Z" fill="#525350"/>
<path fill-rule="evenodd" clip-rule="evenodd" d="M8.26699 21.0605V20.915C8.26699 20.6474 8.12155 20.502 7.8772 20.502H7.44088C7.3187 20.502 7.2198 20.5485 7.14999 20.6241C7.10345 20.6998 7.07436 20.7696 7.07436 20.915C7.07436 21.1594 6.95219 21.3281 6.85328 21.427C6.75438 21.5259 6.60894 21.5724 6.39368 21.5724C6.14934 21.5724 6.0039 21.5259 5.91081 21.427C5.83518 21.3281 5.68974 21.2117 5.71883 20.915C5.71883 20.7696 5.67229 20.6939 5.61993 20.6474C5.57338 20.5485 5.45121 20.502 5.32904 20.502H4.89271C4.62509 20.502 4.50292 20.6474 4.50292 20.915V21.0837C4.50292 21.0837 4.50292 21.0837 4.52619 21.2524C4.57273 22.0553 5.44539 22.7534 6.39368 22.7825C7.31289 22.7592 8.18554 22.0553 8.26117 21.2524C8.26117 21.2524 8.26117 21.1535 8.26117 21.0605H8.26699Z" fill="#F69E25"/>
<path fill-rule="evenodd" clip-rule="evenodd" d="M29.0654 13.5443C28.3265 13.5443 27.8087 13.0266 27.8087 12.3459H27.8262C27.8262 11.2987 29.0479 11.0078 29.9962 11.0078H30.1067V10.938C30.1067 10.6064 29.8449 10.5017 29.5599 10.5017C29.3155 10.5017 29.0596 10.5831 28.8676 10.6762C28.6232 10.7867 28.4371 10.7402 28.3149 10.4958L28.2276 10.3039C28.1171 10.0653 28.1578 9.86171 28.3905 9.73953C28.6814 9.60573 29.1294 9.43701 29.6821 9.43701C30.7409 9.43701 31.3983 10.0362 31.3983 11.0369V13.0324C31.3983 13.3058 31.2528 13.4512 30.9852 13.4512H30.6245C30.3511 13.4512 30.2115 13.3174 30.2115 13.0266V12.9975C30.2115 12.9509 30.2173 12.9218 30.2173 12.9218H30.1998C30.1998 12.9218 29.8333 13.5443 29.0654 13.5443ZM29.0828 12.2208C29.0828 12.2218 29.0828 12.2227 29.0828 12.2237V12.2179C29.0828 12.2189 29.0828 12.2199 29.0828 12.2208ZM29.0828 12.2208C29.0842 12.4056 29.2121 12.5553 29.4493 12.5553C29.8217 12.5553 30.1067 12.183 30.1067 11.863V11.7583H29.9846C29.59 11.7583 29.0855 11.8624 29.0828 12.2208Z" fill="#525350"/>
<path d="M25.7958 12.0026C25.7958 13.3232 26.5172 13.4861 27.1862 13.4861C27.483 13.4861 27.6051 13.3174 27.6051 13.0614V12.6891C27.6051 12.4622 27.483 12.3517 27.3084 12.3284C27.1862 12.3109 27.0932 12.2353 27.0932 11.9386V8.41888C27.0932 8.14544 26.9535 8 26.6801 8H26.2089C25.9413 8 25.7958 8.14544 25.7958 8.41888V11.9968V12.0026Z" fill="#525350"/>
<path fill-rule="evenodd" clip-rule="evenodd" d="M23.044 13.5443C22.3052 13.5443 21.7874 13.0266 21.7874 12.3459H21.8048C21.8048 11.2987 23.0266 11.0078 23.9749 11.0078H24.0854V10.938C24.0854 10.6064 23.8236 10.5017 23.5385 10.5017C23.2942 10.5017 23.0382 10.5831 22.8462 10.6762C22.6019 10.7867 22.4157 10.7402 22.2935 10.4958L22.2063 10.3039C22.0957 10.0653 22.1365 9.86171 22.3692 9.73953C22.6601 9.60573 23.108 9.43701 23.6607 9.43701C24.7195 9.43701 25.3769 10.0362 25.3769 11.0369V13.0324C25.3769 13.3058 25.2315 13.4512 24.9639 13.4512H24.6032C24.3297 13.4512 24.1901 13.3174 24.1901 13.0266V12.9975C24.1901 12.9509 24.1959 12.9218 24.1959 12.9218H24.1785C24.1785 12.9218 23.812 13.5443 23.044 13.5443ZM23.0615 12.2208C23.0615 12.2218 23.0615 12.2227 23.0615 12.2237V12.2179C23.0615 12.2189 23.0615 12.2199 23.0615 12.2208ZM23.0615 12.2208C23.0628 12.4056 23.1907 12.5553 23.428 12.5553C23.8003 12.5553 24.0854 12.183 24.0854 11.863V11.7583H23.9632C23.5687 11.7583 23.0642 11.8624 23.0615 12.2208Z" fill="#525350"/>
<path fill-rule="evenodd" clip-rule="evenodd" d="M19.1171 13.5443C18.0699 13.5443 17.3834 12.7008 17.3834 11.4849H17.3892C17.3892 10.2457 18.1164 9.43702 19.1403 9.43702C19.9141 9.43702 20.1468 9.82681 20.1468 9.82681H20.1642C20.1642 9.82681 20.1584 9.75118 20.1584 9.65228V8.42474C20.1584 8.1513 20.3039 8.00586 20.5715 8.00586H21.0427C21.3162 8.00586 21.4558 8.1513 21.4558 8.42474V13.0324C21.4558 13.3058 21.3103 13.4513 21.0427 13.4513H20.6529C20.3795 13.4513 20.2399 13.3233 20.2399 13.0731V13.0266C20.2399 13.0149 20.2457 12.9742 20.2457 12.9742H20.2282C20.2282 12.9742 19.9083 13.5443 19.1171 13.5443ZM19.437 10.5482C19.0298 10.5482 18.6807 10.8856 18.6807 11.4849C18.6807 12.0725 18.9891 12.4506 19.437 12.4506C19.8268 12.4506 20.1933 12.1655 20.1933 11.4849C20.1933 11.0136 19.9432 10.5482 19.437 10.5482Z" fill="#525350"/>
<path d="M13.1713 13.0324C13.1713 13.3058 13.311 13.4512 13.5844 13.4512H14.0556C14.3232 13.4512 14.4687 13.3058 14.4687 13.0324V11.6768C14.4687 11.1183 14.7305 10.6355 15.3064 10.6355C15.5915 10.6355 15.7311 10.7867 15.7311 11.1532V13.0324C15.7311 13.3058 15.8708 13.4512 16.1442 13.4512H16.6154C16.883 13.4512 17.0285 13.3058 17.0285 13.0324V10.9089C17.0285 9.80353 16.4234 9.43701 15.6497 9.43701C14.969 9.43701 14.6025 9.80935 14.428 10.1177H14.4105C14.4105 10.1177 14.4163 10.0595 14.4163 10.0188V9.94897C14.4163 9.67554 14.2825 9.5301 14.0149 9.5301H13.596C13.3284 9.5301 13.183 9.67554 13.183 9.94897V13.0324H13.1713Z" fill="#525350"/>
<path fill-rule="evenodd" clip-rule="evenodd" d="M10.437 13.5443C9.69815 13.5443 9.18038 13.0266 9.18038 12.3459H9.19783C9.19783 11.2987 10.4196 11.0078 11.3678 11.0078H11.4784V10.938C11.4784 10.6064 11.2166 10.5017 10.9315 10.5017C10.6872 10.5017 10.437 10.5889 10.2392 10.6762C9.99486 10.7867 9.80287 10.7402 9.68652 10.4958L9.59925 10.3039C9.48872 10.0653 9.52944 9.85589 9.76215 9.73953C10.053 9.59991 10.501 9.43701 11.0537 9.43701C12.1125 9.43701 12.7699 10.0362 12.7699 11.0369V13.0324C12.7699 13.3058 12.6245 13.4512 12.3569 13.4512H11.9962C11.7227 13.4512 11.5831 13.3174 11.5831 13.0266V12.9975C11.5831 12.9509 11.5889 12.9218 11.5889 12.9218H11.5715C11.5715 12.9218 11.2049 13.5443 10.437 13.5443ZM10.4545 12.2208C10.4545 12.2218 10.4545 12.2227 10.4545 12.2237V12.2179C10.4545 12.2189 10.4545 12.2199 10.4545 12.2208ZM10.4545 12.2208C10.4558 12.4056 10.5837 12.5553 10.821 12.5553C11.1933 12.5553 11.4784 12.183 11.4784 11.863V11.7583H11.3562C10.9617 11.7583 10.4571 11.8624 10.4545 12.2208Z" fill="#525350"/>
<path d="M2.86232 13.0324C2.86232 13.3058 3.00195 13.4512 3.27538 13.4512H3.74662C4.01423 13.4512 4.15968 13.3058 4.15968 13.0324V11.7932C4.15968 11.2521 4.31094 10.6355 4.89853 10.6355C5.14287 10.6355 5.19523 10.8391 5.19523 11.13V13.0324C5.19523 13.3058 5.33486 13.4512 5.60829 13.4512H6.07953C6.34714 13.4512 6.49259 13.3058 6.49259 13.0324V11.7932C6.49259 11.2056 6.67294 10.6355 7.23144 10.6355C7.47578 10.6355 7.52814 10.8391 7.52814 11.13V13.0324C7.52814 13.3058 7.66777 13.4512 7.9412 13.4512H8.41244C8.68005 13.4512 8.82549 13.3058 8.82549 13.0324V10.9089C8.82549 9.8268 8.27863 9.43701 7.5805 9.43701C7.00455 9.43701 6.55076 9.77444 6.34714 10.1002H6.32969C6.12607 9.65809 5.7421 9.43701 5.25341 9.43701C4.64837 9.43701 4.29348 9.83843 4.11313 10.1177H4.09568C4.09568 10.1177 4.1015 10.0595 4.1015 10.0188V9.94897C4.1015 9.67554 3.96769 9.5301 3.70008 9.5301H3.2812C3.01358 9.5301 2.86814 9.67554 2.86814 9.94897V13.0324H2.86232Z" fill="#525350"/>
</svg>
