<svg width="32" height="32" viewBox="0 0 32 32" fill="none" xmlns="http://www.w3.org/2000/svg">
<g clip-path="url(#clip0)">
<path d="M11.9872 17.0886C11.7642 16.6847 11.6235 16.2294 11.5875 15.7449C12.4958 15.7254 13.3919 15.7378 14.2676 15.7724L11.9872 17.0886ZM13.4586 12.5156C14.0476 12.2229 15.7856 11.5618 20.1007 11C20.1007 11 25.8239 10.2809 30.4918 8.19109L31.272 5.84692C26.9022 8.11579 22.8308 8.70283 20.1002 9.21115C17.5492 9.67493 14.9058 9.92757 12.7743 10.8828C11.4613 11.4843 10.4481 12.6278 10.0242 14.0277C9.025 14.0857 8.04997 14.1858 7.12765 14.3408H7.1273C3.5888 14.7692 0.846649 17.7825 0.846649 21.4372C0.846649 23.6224 1.82778 25.5788 3.37326 26.8896L3.38274 26.9134H3.38299C3.38122 26.9072 3.37944 26.9006 3.37856 26.8939C3.37856 26.8939 3.37868 26.8945 3.37881 26.8945L3.33382 26.6901C3.05408 25.2213 3.77086 24.2541 3.77086 24.2541C4.5943 22.9567 5.93682 22.352 7.99551 22.352C12.8173 22.352 17.9704 24.5098 22.9535 26.5961L24.1503 27.1026L24.7326 25.4208C19.3419 23.1758 13.5473 20.5817 7.99551 20.5817C6.12894 20.5817 4.14298 21.0186 2.75641 22.651C2.66585 22.261 2.6174 21.8546 2.6174 21.4372C2.6174 18.6851 4.695 16.4095 7.36392 16.0959C8.18247 15.9708 9.00263 15.8835 9.8185 15.8255C9.9087 17.2364 10.5751 18.491 11.5851 19.3551L11.5887 19.3533L11.5931 19.3613L20.0847 14.4587C17.7494 14.192 14.8282 13.94 11.9564 13.965C12.2877 13.3352 12.8157 12.8241 13.4591 12.5157L13.4586 12.5156Z" fill="#2056AE"/>
</g>
<defs>
<clipPath id="clip0">
<rect width="32" height="22.4" fill="white" transform="translate(0 5)"/>
</clipPath>
</defs>
</svg>
