<svg width="32" height="32" viewBox="0 0 32 32" fill="none" xmlns="http://www.w3.org/2000/svg">
<path fill-rule="evenodd" clip-rule="evenodd" d="M10.2636 20.979L7.85961 6.7041L17.7528 20.979H10.2636ZM16.7924 27.5966L15.8867 22.2182H18.6122L25.3447 31.933H22.6764L19.4895 27.3343L20.2636 31.933H17.3488L13.7962 26.8067L14.6596 31.933H12.1085L10.4725 22.2182H13.0652L16.7924 27.5966Z" fill="#E42121"/>
<path d="M2.65614 0.174316L8.00451 31.9329H11.3491L6.53386 3.33985L26.35 31.9329H29.6862L7.6761 0.174316L2.65614 0.174316Z" fill="#202865"/>
<path d="M7.58864 3.64153L6.65015 3.59199L6.07751 4.33721L5.83446 3.42918L4.94923 3.11495L5.737 2.60349L5.76236 1.66406L6.49269 2.25554L7.39397 1.98922L7.05695 2.86631L7.58864 3.64153Z" fill="white"/>
</svg>
