<svg width="32" height="32" viewBox="0 0 32 32" fill="none" xmlns="http://www.w3.org/2000/svg">
<path d="M20.0261 16.114C19.9494 16.3234 20.0052 16.5466 19.9912 16.763C19.8935 18.5074 18.5678 20.4472 16.8443 20.8728C15.7697 21.138 14.8068 20.9077 13.9555 20.2239C12.7134 19.2261 12.0854 17.9282 12.0854 16.3303C12.0854 16.2675 12.0994 16.2047 12.0366 16.1698C11.9598 16.0442 12.0436 15.9326 12.0645 15.821C12.1343 15.4372 12.239 15.0604 12.3994 14.7045C12.5041 14.5789 12.6088 14.4603 12.7065 14.3347C12.7553 14.2719 12.8321 14.2091 12.7832 14.1114C12.8739 13.8951 13.0972 13.8044 13.2298 13.623C13.3205 13.5323 13.4391 13.4695 13.5019 13.3369C13.4112 13.2601 13.3275 13.295 13.2368 13.3229C13.1461 13.3439 13.0553 13.3997 12.9786 13.288C12.8321 13.2252 12.6646 13.2811 12.5181 13.2392C12.546 13.1206 12.6367 13.1904 12.7134 13.1694C11.1155 13.1764 9.53159 13.1904 7.94067 13.1694C7.12427 13.1555 6.30787 13.0438 5.49148 13.0578C5.41472 13.0578 5.33099 13.0508 5.27517 12.981C5.25424 12.8415 5.14259 12.8973 5.06584 12.8903C3.80287 12.7508 2.58176 12.4786 1.42346 11.9483C0.983861 11.746 0.572174 11.4878 0.181421 11.1947C0.125599 11.1529 0.0767551 11.0901 0 11.0063C0.627996 10.9854 1.20715 11.0203 1.7863 11.0552C3.27954 11.1459 4.77975 11.2157 6.27299 11.3343C8.22675 11.4948 10.1735 11.6762 12.1064 12.0041C13.153 12.1786 14.1927 12.3879 15.1836 12.7856C15.2324 12.8066 15.2882 12.8066 15.3092 12.8694C15.2673 12.9671 15.1696 12.9601 15.0859 12.981C13.5717 13.3927 12.4832 14.7464 12.4064 16.3094C12.3297 17.8585 13.2996 19.3308 14.7579 19.882C16.1395 20.3984 17.7444 20.0216 18.7352 18.933C19.74 17.8305 19.9703 16.2536 19.3214 14.8999C19.0353 14.3068 18.5957 13.8463 18.0723 13.4555C17.7863 13.2392 17.5281 13.3927 17.2629 13.4695C17.0257 13.5323 16.8373 13.6927 16.5931 13.7416C16.4675 13.4834 16.3 13.2532 16.1674 13.002C16.7605 12.688 17.3955 12.5205 18.0444 12.3879C19.9005 12.0181 21.7705 11.7739 23.6545 11.5925C25.392 11.425 27.1294 11.2924 28.8669 11.2087C29.7531 11.1668 30.6392 11.1389 31.5254 11.0831C31.5952 11.0761 31.658 11.0901 31.7348 11.0901C31.1347 11.7808 29.3693 12.6182 26.962 12.9252C26.9969 12.9461 27.0318 12.9671 27.0666 12.995C27.0108 13.0648 26.9341 13.0648 26.8503 13.0648C26.3549 13.0787 25.8595 13.0927 25.3641 13.1345C24.0941 13.2532 22.8242 13.1694 21.5542 13.1834C20.8355 13.1904 20.1098 13.1555 19.3911 13.1555C19.2934 13.1555 19.1818 13.1206 19.0981 13.2113C19.0981 13.2252 19.0981 13.2322 19.0981 13.2462C18.9725 13.3788 18.8329 13.2671 18.7003 13.2811C18.6515 13.288 18.5398 13.2113 18.5608 13.3578C18.6236 13.4067 18.6934 13.4485 18.7562 13.5044C18.8678 13.6788 19.112 13.7486 19.1539 13.9858C19.2516 14.237 19.4818 14.3975 19.6214 14.6138C19.8307 14.9976 19.9494 15.4093 20.0401 15.8349C20.054 15.9117 20.1168 16.0163 20.0261 16.114Z" fill="#89BE6D"/>
<path d="M20.5148 13.393C21.5475 13.4558 22.5732 13.6023 23.585 13.8395C25.3573 14.2582 27.0808 14.8374 28.6997 15.6956C29.3068 16.0166 29.8929 16.3725 30.4581 16.812C30.3534 16.8748 30.2557 16.8469 30.172 16.8469C28.5462 16.7353 26.9552 16.4911 25.455 15.8142C24.527 15.3956 23.6478 14.8792 22.7058 14.4954C21.9871 14.2024 21.2754 13.9023 20.5218 13.7209C20.0752 13.686 19.6495 13.5465 19.2169 13.4488C19.1541 13.4069 19.0425 13.372 19.1681 13.2813C19.2658 13.2813 19.3704 13.2674 19.4681 13.2953C19.503 13.3023 19.5449 13.3092 19.5798 13.3092C19.7123 13.3651 19.8589 13.3023 19.9914 13.3441H20.0054C20.1659 13.4348 20.3473 13.3302 20.5148 13.393Z" fill="#01948E"/>
<path d="M12.0366 13.6021C10.2573 14.0697 8.61055 14.8442 6.97775 15.6815C5.80549 16.2886 4.53553 16.5816 3.23069 16.7561C2.70736 16.8258 2.17705 16.8747 1.60487 16.8817C1.8142 16.6584 2.04447 16.5258 2.26776 16.3862C3.69122 15.4652 5.24029 14.8372 6.84517 14.3278C8.42215 13.8324 10.041 13.5533 11.6808 13.4068C11.7785 13.3998 11.8692 13.3998 11.9669 13.3928C12.0576 13.3579 12.1483 13.3789 12.239 13.3719C12.4832 13.3998 12.7205 13.2533 12.9717 13.344C12.853 13.4905 12.853 13.4905 12.56 13.4905C12.4553 13.5114 12.3437 13.5324 12.239 13.5533C12.1622 13.5254 12.0994 13.5742 12.0366 13.6021Z" fill="#01948E"/>
<path d="M5.26821 12.9741C7.5918 13.0648 9.91538 13.1207 12.239 13.0927C12.4623 13.0927 12.6786 13.1835 12.9158 13.1486C12.7902 13.2393 12.6367 13.1416 12.5181 13.2323C11.6668 13.2672 10.8155 13.2672 9.96423 13.3439C8.77801 13.4486 7.63366 13.6928 6.50327 14.0627C4.40297 14.7604 2.2608 14.8581 0.104683 14.3767C0.0767724 14.2999 0.125616 14.286 0.167483 14.272C1.75841 13.6579 3.3912 13.2323 5.07981 12.9741C5.12865 12.9741 5.19843 12.9741 5.26821 12.9741Z" fill="#4EA37D"/>
<path d="M19.0981 13.1972C19.0702 13.1623 19.0423 13.1134 19.1121 13.0995C19.1888 13.0855 19.2656 13.0855 19.3493 13.0855C21.1077 13.0855 22.8731 13.0925 24.6315 13.0785C25.2944 13.0716 25.9642 12.9948 26.6271 12.939C26.7737 12.925 26.9132 13.0157 27.0667 12.9739C28.1413 13.0995 29.188 13.3576 30.2276 13.6647C30.7859 13.8252 31.3371 14.0205 31.8814 14.2299C31.9302 14.2508 31.986 14.2438 32 14.3276C31.4278 14.4811 30.8487 14.5578 30.2556 14.5997C28.5111 14.7393 26.8225 14.4602 25.1688 13.9019C24.0802 13.5321 22.9568 13.3646 21.8125 13.2879C21.638 13.2739 21.4636 13.26 21.2891 13.239C20.9821 13.1902 20.6751 13.232 20.3681 13.2181C20.2773 13.2111 20.1797 13.232 20.0889 13.2041C19.761 13.1972 19.4261 13.1972 19.0981 13.1972Z" fill="#4EA37D"/>
<path d="M18.7143 13.5113C18.6236 13.5183 18.5957 13.4206 18.5259 13.3927C18.4771 13.2253 18.5957 13.2462 18.6794 13.2601C18.8469 13.2881 19.0144 13.3439 19.1749 13.4137C19.447 13.4904 19.7261 13.5462 19.9982 13.63C20.1029 13.6579 20.2215 13.6649 20.2843 13.7835C22.3916 14.5301 24.3942 15.493 26.2503 16.756C26.969 17.2444 27.6458 17.7957 28.2668 18.4097C28.3226 18.4655 28.3645 18.5213 28.4552 18.626C28.0365 18.5772 27.6946 18.4795 27.3527 18.3888C25.6362 17.9422 24.143 17.0909 22.7893 15.9466C21.7427 15.0674 20.5983 14.3138 19.3563 13.7207C19.1958 13.6858 19.0423 13.616 18.8748 13.5951C18.819 13.5741 18.7702 13.5393 18.7143 13.5113Z" fill="#1B7395"/>
<path d="M12.6647 13.7695C11.1854 14.4602 9.88758 15.4232 8.63856 16.4559C7.17324 17.663 5.47066 18.3259 3.64249 18.7096C3.62156 18.7166 3.60062 18.7027 3.50991 18.6817C6.14751 16.1698 9.25958 14.6138 12.6508 13.5532C12.8043 13.4415 12.9997 13.4206 13.1671 13.3578C13.223 13.3368 13.2927 13.3438 13.3276 13.4066C13.3625 13.4694 13.3067 13.4973 13.2718 13.5322C13.0834 13.6369 12.888 13.7415 12.6647 13.7695Z" fill="#1B7395"/>
<path d="M13.237 13.6582C13.1044 13.8256 12.9439 13.9652 12.7765 14.1047C12.1834 14.5862 11.66 15.1444 11.1507 15.7166C10.3831 16.5749 9.64346 17.454 8.75031 18.1937C8.01066 18.8008 7.20124 19.2822 6.30809 19.6381C6.23832 19.666 6.16156 19.6869 6.02898 19.7358C6.30809 19.2613 6.60814 18.8705 6.92911 18.5007C8.23395 16.9726 9.81092 15.7724 11.4647 14.6699C11.8903 14.3838 12.3229 14.0978 12.7555 13.8186C12.8742 13.714 13.0137 13.6372 13.1672 13.5884C13.2161 13.5954 13.244 13.6093 13.237 13.6582Z" fill="#0E4C94"/>
<path d="M18.7144 13.5112C18.7702 13.5252 18.8261 13.5461 18.8819 13.5601C19.0354 13.581 19.161 13.6438 19.2587 13.7694C20.9682 14.837 22.6359 15.9674 24.0943 17.3629C24.813 18.0537 25.4689 18.7934 26.0341 19.6935C25.5107 19.526 25.0711 19.3097 24.6385 19.0725C23.3825 18.3747 22.3987 17.3699 21.4636 16.3023C20.9264 15.6953 20.3961 15.0812 19.8029 14.523C19.5936 14.3276 19.3843 14.1322 19.1401 13.9718C19.0145 13.8043 18.8261 13.6927 18.7144 13.5112Z" fill="#0E4C95"/>
<path d="M15.442 14.4538C15.0094 14.8516 14.5837 15.2632 14.3535 15.8215C14.0813 16.4634 13.9976 17.1193 14.2279 17.7962C14.2418 17.8311 14.2349 17.866 14.2349 17.9008C14.0116 17.8869 13.9069 18.0125 13.886 18.2218C13.879 18.2986 13.886 18.3823 13.8162 18.4381C13.4813 18.0544 13.3487 17.5799 13.3208 17.0914C13.251 15.7656 13.7115 14.6562 14.7721 13.8258C14.8419 13.763 14.8838 13.8188 14.9187 13.8677C15.0652 14.07 15.1978 14.2794 15.435 14.384C15.449 14.398 15.449 14.4259 15.442 14.4538Z" fill="#4EA37D"/>
<path d="M20.0261 16.1143C19.9144 15.6328 19.8307 15.1374 19.5865 14.6908C19.5725 14.6699 19.6004 14.628 19.6144 14.6001C20.8006 15.9538 21.952 17.3284 22.6916 19.0589C22.5032 19.0379 22.4195 18.9542 22.3358 18.8984C21.3658 18.2495 20.682 17.3633 20.1517 16.3445C20.1098 16.2678 20.068 16.191 20.0261 16.1143Z" fill="#333463"/>
<path d="M12.3995 14.6978C12.4274 14.7187 12.4623 14.7466 12.4414 14.7815C12.2181 15.2141 12.1832 15.7095 12.0297 16.1631C11.5064 17.2028 10.8574 18.1308 9.89447 18.8216C9.75492 18.9193 9.60838 19.017 9.42696 19.1356C9.46185 18.8146 9.58745 18.5774 9.71305 18.3471C10.2713 17.3284 10.9551 16.4003 11.7017 15.5072C11.932 15.235 12.1692 14.9699 12.3995 14.6978Z" fill="#333363"/>
<path d="M15.0652 18.7933C15.4978 18.9677 15.9513 19.0096 16.3979 18.9398C16.991 18.8421 17.3399 18.4583 17.5213 17.9001C17.5981 17.7117 17.7167 17.628 17.926 17.7257C18.1144 17.8094 18.3098 17.6559 18.5122 17.7466C18.6378 17.8024 18.6796 17.8513 18.6308 17.9699C18.3098 18.7723 17.6888 19.2329 16.8863 19.4492C16.1956 19.6376 15.5048 19.6166 14.8558 19.2747C14.7372 19.0654 14.7721 18.9817 15.0652 18.7933Z" fill="#058F8F"/>
<path d="M17.3607 16.5958C16.7118 16.0166 16.3071 16.0027 15.2883 16.547C15.5046 15.9399 15.8326 15.5003 16.4327 15.3119C17.3189 15.0328 18.2818 15.4305 18.6656 16.1981C18.7284 16.3237 18.7144 16.4702 18.7842 16.5888C18.526 16.6167 18.2888 16.4981 18.0306 16.4842C17.7934 16.4772 17.5701 16.4562 17.3607 16.5958Z" fill="#085796"/>
<path d="M17.3608 16.5959C17.4236 16.3587 17.612 16.3447 17.8004 16.3866C18.1283 16.4563 18.4912 16.3796 18.7912 16.5889C18.9378 17.0704 18.8261 17.5239 18.6307 17.9635C18.5958 17.8239 18.3307 17.7123 18.1911 17.7891C18.1004 17.8379 18.0237 17.8519 17.9539 17.796C17.7725 17.6704 17.6399 17.7611 17.5213 17.8867C17.6189 17.4472 17.605 17.0076 17.3608 16.5959Z" fill="#0D6F96"/>
<path d="M15.4418 14.4533C15.0999 14.3695 15.0022 14.0276 14.7649 13.8253C15.1766 13.4554 15.6581 13.1973 16.1605 12.981C16.3838 13.1763 16.5582 13.4066 16.5861 13.7206C16.2024 13.9648 15.8186 14.209 15.4418 14.4533Z" fill="#71B274"/>
<path d="M15.0652 18.7939C14.9954 18.8706 15.0093 18.9962 14.8698 19.0381C14.7581 19.073 14.8698 19.1916 14.8558 19.2684C14.4093 19.1079 14.0673 18.8288 13.8092 18.431C13.8231 18.2705 13.7813 18.0961 13.8929 17.9565C13.9906 17.8309 14.0883 17.7542 14.2278 17.9007C14.3813 18.3194 14.6953 18.5846 15.0652 18.7939Z" fill="#2F9D84"/>
<path d="M16.3281 14.9697C16.3281 14.8232 16.3211 14.6697 16.3421 14.5302C16.3909 14.1883 16.6212 13.9929 16.9631 13.9859C17.0259 13.9859 17.1096 13.958 17.1515 14.0347C17.2004 14.1185 17.1306 14.1883 17.0817 14.2441C16.8864 14.4743 16.6631 14.6837 16.5165 14.9558C16.4816 15.0186 16.4607 15.0814 16.4328 15.1442C16.2932 15.1372 16.3909 15.0046 16.3281 14.9697Z" fill="#114D93"/>
<path d="M16.663 15.0324C16.7886 14.5369 17.1794 14.2648 17.5352 14.4323C17.619 14.4741 17.7446 14.502 17.7306 14.6137C17.7167 14.7114 17.598 14.7114 17.5213 14.7323C17.3678 14.7742 17.2143 14.8021 17.0677 14.8579C16.9282 14.9068 16.7956 14.9765 16.663 15.0324Z" fill="#134E92"/>
<path d="M13.2368 13.6582C13.2159 13.6373 13.195 13.6163 13.174 13.6024C13.1601 13.5466 13.2089 13.5326 13.2368 13.5047C13.2857 13.4489 13.3275 13.3791 13.195 13.414C13.0135 13.4558 12.8321 13.5117 12.6507 13.5605C12.6228 13.5396 12.5879 13.5256 12.56 13.5047C12.6647 13.414 12.8042 13.4489 12.9298 13.3721C12.6926 13.3093 12.4693 13.4419 12.246 13.407C12.232 13.4 12.225 13.3861 12.232 13.3791C12.239 13.3721 12.246 13.3651 12.246 13.3651C12.4902 13.3372 12.7344 13.3163 12.9787 13.2884C13.1601 13.3581 13.3136 13.1488 13.502 13.2395C13.6136 13.2884 13.6974 13.2953 13.5578 13.407C13.4462 13.4837 13.3764 13.6094 13.2368 13.6582Z" fill="#409599"/>
<path d="M16.2583 15.256C16.1257 15.1513 16.0001 15.0536 15.9164 14.9071C15.8536 14.7954 15.8397 14.6768 15.9094 14.5651C15.9513 14.4954 15.9862 14.3837 16.0839 14.3977C16.2025 14.4116 16.1606 14.5372 16.1676 14.614C16.1955 14.8233 16.2094 15.0396 16.2583 15.256Z" fill="#19518F"/>
<path d="M20.2845 13.7835C19.9217 13.6719 19.5589 13.5602 19.1961 13.4486C19.1821 13.4416 19.1821 13.4277 19.1821 13.4207C19.1821 13.4067 19.1891 13.4067 19.1891 13.4067C19.6356 13.4835 20.0822 13.5602 20.5078 13.7207C20.438 13.7347 20.3403 13.6928 20.2845 13.7835Z" fill="#C2E8E9"/>
<path d="M19.1958 13.3996C19.1958 13.4136 19.2028 13.4276 19.2028 13.4485C19.0284 13.4485 18.8679 13.3787 18.7004 13.3299C18.6237 13.3089 18.5469 13.2601 18.526 13.3927C18.4492 13.3648 18.3655 13.3229 18.3934 13.2322C18.4213 13.1554 18.512 13.1973 18.5818 13.1903C18.7562 13.1624 18.9167 13.274 19.0982 13.2322C19.1191 13.2391 19.14 13.2461 19.161 13.2461C19.1749 13.2601 19.1749 13.2671 19.1679 13.274C19.161 13.281 19.161 13.288 19.154 13.288C19.0842 13.3648 19.2098 13.3508 19.1958 13.3996Z" fill="#4EA37D"/>
<path d="M20.0891 13.1976C20.4869 13.2046 20.8915 13.1417 21.2893 13.2395C20.8915 13.2395 20.4869 13.2674 20.0891 13.1976Z" fill="#89BE6D"/>
<path d="M13.2368 13.4976C13.2158 13.5324 13.1949 13.5673 13.174 13.5952C13.0344 13.665 12.9228 13.7836 12.7623 13.8046C12.7274 13.7906 12.6925 13.7767 12.6646 13.7627C12.853 13.679 13.0484 13.5883 13.2368 13.4976Z" fill="#C9E1EE"/>
<path d="M19.2586 13.763C19.1191 13.7211 19.0074 13.6304 18.8818 13.5536C19.0842 13.4769 19.2098 13.6304 19.3563 13.7071C19.3214 13.7281 19.2726 13.7141 19.2586 13.763Z" fill="#8AB5D0"/>
<path d="M20.5146 13.3927C20.3402 13.3858 20.1588 13.4625 19.9983 13.3369C20.1727 13.3439 20.3472 13.3299 20.5146 13.3927Z" fill="#4EA37D"/>
<path d="M19.9913 13.3368C19.8518 13.3438 19.7122 13.3857 19.5797 13.302C19.7122 13.295 19.8518 13.2741 19.9913 13.3368Z" fill="#4EA37D"/>
<path d="M12.0366 13.6021C12.0924 13.5254 12.1412 13.4556 12.2389 13.5533C12.1761 13.5952 12.1133 13.6231 12.0366 13.6021Z" fill="#1B7395"/>
<path d="M19.1539 13.2881C19.1539 13.2741 19.1539 13.2602 19.1609 13.2463C19.2655 13.2393 19.3702 13.2114 19.4609 13.2811C19.3562 13.2881 19.2585 13.2881 19.1539 13.2881Z" fill="#89BE6D"/>
<path d="M16.3281 14.9697C16.3839 15.0116 16.342 15.1093 16.4258 15.1302C16.4258 15.2 16.3979 15.2348 16.342 15.1651C16.3002 15.1093 16.3141 15.0325 16.3281 14.9697Z" fill="#AEBFD6"/>
<path d="M12.239 13.3581C12.239 13.3721 12.239 13.3861 12.239 13.4C12.1483 13.4 12.0576 13.393 11.9669 13.393C12.0576 13.3442 12.1483 13.3442 12.239 13.3581Z" fill="#4EA37D"/>
</svg>
