<svg width="32" height="32" viewBox="0 0 32 32" fill="none" xmlns="http://www.w3.org/2000/svg">
<path fill-rule="evenodd" clip-rule="evenodd" d="M4.14771 16.8669C4.14771 16.8669 0.354254 22.1265 0.0749817 22.499C0.656908 22.4056 2.286 22.0565 3.58916 20.381L6.14916 17.1229C6.19571 17.0764 6.91716 16.1687 8.01109 15.9824L19.1121 13.9345C21.7885 13.4225 24.6277 12.3055 27.56 10.56C29.352 9.48945 30.6553 8.48884 31.2371 8C30.2364 8.256 9.33764 13.376 9.33764 13.376C5.80007 14.2371 4.17109 16.8436 4.14771 16.8669Z" fill="#004595"/>
<path fill-rule="evenodd" clip-rule="evenodd" d="M2.37897 22.3823C3.33315 22.3596 5.80006 22.2661 5.80006 22.2661C8.66271 22.1734 10.8968 20.4044 11.5718 19.7996C10.8037 19.8691 5.8466 20.3116 5.8466 20.3116C5.8466 20.3116 4.68308 20.4043 4.61315 20.4277C3.65908 21.5913 2.89097 22.1266 2.37897 22.3823Z" fill="#E53138"/>
<path fill-rule="evenodd" clip-rule="evenodd" d="M6.80079 17.7047C6.80079 17.7047 5.6837 19.078 5.4277 19.4037C5.89316 19.3569 11.339 18.7752 11.339 18.7752C13.1775 18.5659 15.0858 17.8908 17.0408 16.7272C18.1811 16.0523 18.9957 15.4007 19.3913 15.075C18.1113 15.2844 8.33669 16.8901 8.33669 16.8901C7.35934 17.0529 6.82418 17.6814 6.80079 17.7047Z" fill="#FFED00"/>
</svg>
