<svg width="32" height="32" viewBox="0 0 32 32" fill="none" xmlns="http://www.w3.org/2000/svg">
<path d="M16.9149 1.07031C10.1033 1.07031 4.58072 6.5928 4.58072 13.4054C4.58072 20.2167 10.1033 25.7387 16.9149 25.7387C23.7257 25.7387 29.2487 20.2167 29.2487 13.4054C29.2487 6.5928 23.7257 1.07031 16.9149 1.07031Z" fill="#FEE407"/>
<path d="M4.48313 7.85301C5.02078 7.89112 5.80814 8.29488 6.01933 9.88929C6.23052 11.4832 6.78766 12.8456 7.70952 13.9404C8.63097 15.0348 8.93794 14.7269 10.224 15.5334C10.9533 15.9898 14.6893 17.8853 16.3491 19.4701C17.1066 20.1921 16.5603 20.1412 17.3863 21.0442C18.2129 21.9486 19.4407 22.658 19.4407 22.658C19.4407 22.658 21.2526 25.0658 22.8394 26.8251C24.8884 29.0966 26.7955 30.665 27.9663 30.8367L27.3714 28.6478C27.3714 28.6478 26.4115 28.8023 25.7965 28.2655C25.2026 27.7451 24.1263 26.7679 24.1263 26.7679C24.1263 26.7679 23.8955 26.1711 23.5313 25.212C23.1662 24.2519 22.3025 22.7344 21.8412 22.6953C21.8412 22.6953 22.3978 21.0823 22.3026 19.1633C22.3026 19.1633 23.5968 19.4284 24.9319 19.1242C26.6902 18.7237 26.7574 17.4921 26.5267 16.4745C27.0244 16.3796 28.2542 15.9559 28.0815 14.8042C27.9781 14.1144 27.544 12.481 27.7927 12.0009C27.7927 12.0009 26.7166 12.544 26.1889 13.434C25.7212 14.2288 25.7966 15.38 25.7966 15.38C25.7966 15.38 25.336 14.7083 23.8003 14.1516C22.4687 13.6689 21.0537 14.2097 21.0537 14.2097C21.0537 14.2097 21.4224 14.5112 22.0146 14.9576C22.8011 15.553 22.3997 15.5354 22.9538 16.167C23.9147 17.2623 25.0673 17.0697 25.7583 16.745C25.7583 16.745 25.9382 17.7922 25.3296 18.0547C24.5432 18.3912 22.8792 17.9153 22.3598 17.3962C21.6495 15.2646 20.0946 14.3232 19.1537 14.0363C19.2301 13.2483 19.7105 12.7683 20.7468 12.8651C21.288 12.9155 23.3007 13.2874 24.7793 12.9227C26.2579 12.5571 26.4115 11.6357 26.4115 11.6357C26.4115 11.6357 25.1625 11.6357 24.8375 11.2906C25.8928 11.1176 29.4068 10.7148 29.8853 6.8544C29.8853 6.8544 28.8246 7.5242 27.8708 7.37343C30.9424 5.29958 30.4629 1.19025 30.4629 1.19025C30.4629 1.19025 29.502 2.15028 27.7745 3.53216C26.0453 4.91537 23.1753 6.5288 21.6675 6.93163C19.9819 7.38348 19.6331 7.02828 17.1946 7.58422C15.142 8.05328 14.1807 9.06322 14.1807 10.1C14.1807 11.2907 14.89 12.1349 14.89 12.1349C14.89 12.1349 14.1647 11.5686 13.6997 10.6377C13.028 9.2939 13.3832 8.31806 14.9767 7.47383C17.0074 7.5601 17.2373 6.91207 17.2373 6.91207C17.2373 6.91207 15.898 6.92794 15.7692 6.3939C15.7692 6.3939 16.1138 6.3213 16.7197 6.14916C17.3245 5.97655 18.3761 5.48705 18.447 4.95442C18.447 4.95442 17.3381 5.25543 15.8405 5.18417L16.4312 4.26318C16.4312 4.26318 14.6166 4.89669 14.5162 4.46439L15.2073 4.1183C15.2073 4.1183 14.9326 3.90356 14.3141 3.55748C13.6952 3.21145 12.8451 3.21145 12.5426 3.29779C12.2402 3.38359 12.1976 3.4422 11.8805 3.26919C11.5645 3.09705 11.4627 2.8087 11.6349 2.57708C11.8079 2.34734 12.0245 2.28873 12.4123 2.07305C12.802 1.85731 12.9464 1.29654 12.6866 0.936791C12.4273 0.576703 11.9959 0 11.9959 0C11.9959 0 11.8947 0.302418 11.9669 0.489963C11.9669 0.489963 11.6209 0.476366 11.4051 0.576636C11.4051 0.576636 11.6881 0.714281 11.8229 0.993055C12.0245 1.41088 11.2471 1.7569 10.9442 2.00219C10.5255 2.34091 10.4838 2.70736 10.4838 2.70736C10.4838 2.70736 9.36032 2.14559 9.07284 1.42582C9.12958 3.29766 10.4975 3.81582 10.4975 3.81582C10.4975 3.81582 10.4975 4.49293 10.5701 4.95436L12.1827 5.11236C12.1827 5.11236 12.0964 5.64499 11.7513 5.64499C11.4052 5.64499 11.1169 5.60139 10.7423 5.32898C10.7423 5.32898 10.5552 6.11962 10.2104 6.58192C10.2104 6.58192 10.6705 6.44695 11.0165 6.44695C11.4343 6.44695 11.6545 6.74441 11.3385 7.268C11.0484 7.74618 10.6419 8.0559 9.91713 7.92923C8.91852 7.75756 8.18917 7.92923 7.19062 8.98599C7.19062 8.98599 6.46134 7.81483 6.46134 6.912L2.92737 6.85433C2.92737 6.85433 2.14035 8.89101 1.66043 9.31245L3.90736 9.08177C3.29282 7.9293 3.94541 7.8149 4.48313 7.85301ZM12.0096 4.20377C12.0096 4.04664 12.1371 3.91904 12.2933 3.91904C12.4505 3.91904 12.5781 4.04664 12.5781 4.20377C12.5781 4.36004 12.4505 4.48764 12.2933 4.48764C12.1371 4.48764 12.0096 4.35997 12.0096 4.20377Z" fill="#015396"/>
</svg>
