<svg width="32" height="32" viewBox="0 0 32 32" fill="none" xmlns="http://www.w3.org/2000/svg">
<path d="M0 26.21H3.45706C3.45706 26.21 18.4822 11.1541 18.7097 10.9086C18.7999 10.8129 21.7299 7.17535 25.8585 7.49307L25.0028 10.6414C25.0028 10.6414 23.5604 11.0603 22.2516 11.9304C20.9428 12.8005 19.2134 14.6762 19.2134 14.6762L7.65068 26.1937H11.0915L22.2679 15.0932C22.2679 15.0932 23.4413 13.8566 24.1977 13.6887L20.8742 26.1937H23.3582L26.9994 12.7012C26.9994 12.7012 28.2739 12.584 28.8119 12.6164L25.1364 26.1937H27.6872L32 10.1558H27.6872L29.0466 5H25.5065C25.5065 5 24.0298 5 22.7878 5.36827C21.5457 5.73655 20.5222 5.98746 18.3577 7.82883L0 26.21" fill="#1574C4"/>
</svg>
