<svg width="32" height="32" viewBox="0 0 32 32" fill="none" xmlns="http://www.w3.org/2000/svg">
<g clip-path="url(#clip0)">
<path fill-rule="evenodd" clip-rule="evenodd" d="M0 11L0 15.8011L0 20.6022H1.55096H3.10257L3.10257 17.1601C3.10257 15.2036 3.10514 13.7206 3.10844 13.7238C3.11176 13.7277 3.82941 14.9889 4.70381 16.5273C5.57821 18.0657 6.29781 19.3256 6.30244 19.3268C6.30641 19.3288 6.37007 19.3068 6.44415 19.2785C6.74179 19.1634 7.03939 19.0638 7.32248 18.9847C7.5262 18.9274 7.74791 18.873 7.77503 18.873C7.79487 18.8736 7.79496 18.8738 7.7685 18.8847C7.32535 19.07 6.67315 19.4516 6.07192 19.8774C5.69491 20.1443 5.15963 20.5641 5.15963 20.5931C5.15963 20.6008 5.65055 20.6022 8.6501 20.6022L12.1406 20.6022L12.2829 20.4906C13.6607 19.4184 15.2904 18.4812 17.1774 17.674C18.5618 17.0823 20.0614 16.5789 21.6984 16.1577C21.8465 16.1197 22.4149 15.9815 22.5545 15.95L22.6244 15.935L22.6277 15.167L22.6278 15.139C22.631 14.4732 22.6315 14.3752 22.6524 14.2819C22.656 14.2658 22.6602 14.2498 22.6651 14.2311L22.6675 14.2221C22.7131 14.0484 22.8063 13.8884 22.9352 13.7617C23.0265 13.6723 23.1565 13.5793 23.2657 13.5259C23.4191 13.4507 23.6538 13.4023 23.9435 13.3862C24.093 13.3778 27.5084 13.3778 27.7703 13.3862C28.0382 13.3945 28.1792 13.4137 28.3273 13.4606C28.5284 13.5243 28.7187 13.6534 28.806 13.7865C28.8966 13.9235 28.9274 14.0567 28.9353 14.3422L28.9392 14.4924H30.3942H31.8479V14.0817C31.8479 13.8566 31.8446 13.611 31.8413 13.537C31.8036 12.7891 31.6395 12.3088 31.2777 11.8907C31.2037 11.8052 31.0302 11.642 30.929 11.5636C30.804 11.4671 30.6559 11.371 30.5685 11.3304C30.2286 11.1735 29.4805 11.0496 28.6101 11.0065C28.4011 10.9962 23.2049 11.0008 23.0508 11.0111C22.8061 11.0285 22.6032 11.0459 22.469 11.0614C21.67 11.1527 21.0719 11.334 20.677 11.6067C20.2954 11.8697 20.0073 12.2824 19.83 12.8226C19.7725 12.9988 19.7077 13.2657 19.6766 13.4587C19.6726 13.4863 19.6668 13.5103 19.6642 13.5116C19.6615 13.5135 19.3522 12.9598 18.9765 12.2813C18.6008 11.6034 18.2864 11.037 18.2778 11.0235L18.2621 11L16.0673 11H13.8731L13.0104 12.5843C12.5362 13.4564 12.1452 14.1679 12.1425 14.1666C12.1399 14.1646 12.1373 13.4512 12.1373 12.581V11L10.5863 11H9.03539V14.5812C9.03539 16.5519 9.03281 18.1651 9.02951 18.1671C9.02687 18.169 8.10469 16.5624 6.98159 14.5963C5.85784 12.6308 4.9344 11.0169 4.9291 11.0104C4.91984 11.0002 4.79415 11 2.45933 11H0ZM16.0209 13.0309C16.0242 13.0342 16.3644 13.6744 16.7778 14.4539C17.1905 15.2334 17.5294 15.8743 17.5301 15.8775C17.5307 15.8807 17.4645 15.8941 17.3825 15.9082C16.1972 16.1069 15.23 16.2966 14.357 16.5012C14.3374 16.5058 14.3208 16.5097 14.3067 16.5131C14.2404 16.5289 14.2291 16.5315 14.2276 16.5288C14.2273 16.5283 14.2274 16.5275 14.2275 16.5265C14.2276 16.526 14.2277 16.5253 14.2277 16.5247C14.2277 16.5215 14.5653 15.8573 14.9787 15.0501C15.392 14.2423 15.7946 13.4563 15.8733 13.3033C15.956 13.1418 16.0176 13.0277 16.0209 13.0309ZM22.3697 16.3405C22.5026 16.2936 22.6145 16.255 22.6185 16.2543L22.6185 16.2543C22.6244 16.2543 22.627 16.3422 22.6296 16.5769C22.6329 16.9255 22.6396 17.0161 22.6714 17.1679C22.7223 17.4091 22.8508 17.6538 23.0175 17.8255C23.1491 17.9619 23.4977 18.1153 23.839 18.1873C23.868 18.1934 23.8887 18.1985 23.9095 18.2028C24.032 18.2281 24.1602 18.2256 26.0038 18.2278C27.3683 18.2291 27.9889 18.2277 28.0511 18.2226C28.2713 18.2052 28.4434 18.1491 28.6133 18.0391C28.8746 17.8706 29.041 17.6136 29.0966 17.2966C29.1065 17.24 29.1085 17.0751 29.0999 16.9857L29.0946 16.923H30.5476H32V17.6028C32 18.2756 31.997 18.3729 31.9758 18.5504C31.9037 19.1543 31.648 19.5821 31.1334 19.9603C30.7802 20.2201 30.3845 20.4039 29.9671 20.5023C29.6748 20.5718 29.3813 20.6043 28.9719 20.6133C28.8601 20.6159 26.8042 20.6166 24.4032 20.6146L20.0377 20.6114L19.3618 19.3353C18.9894 18.633 18.6859 18.0527 18.6872 18.0462C18.6879 18.0385 18.7071 18.0231 18.7382 18.0051C19.8758 17.3484 21.0561 16.8074 22.3697 16.3405Z" fill="#FF0000"/>
</g>
<defs>
<clipPath id="clip0">
<rect width="32" height="32" fill="white"/>
</clipPath>
</defs>
</svg>
