<svg width="32" height="32" viewBox="0 0 32 32" fill="none" xmlns="http://www.w3.org/2000/svg">
<path d="M3.4208 15.3331L3.4208 21.4209H0.240537L0.240537 10.297H3.23207C3.23207 10.297 3.64764 10.3029 4.1154 10.6067C4.51691 10.8676 4.65457 11.1689 4.65457 11.1689L7.27013 15.9985C7.27013 15.9985 7.28641 16.0473 7.30454 16.1017C7.33896 16.205 7.37374 16.3082 7.37374 16.3082L7.37374 10.297L10.554 10.297L10.554 21.4209H7.63722C7.63722 21.4209 7.17354 21.4042 6.81126 21.1744C6.32093 20.8636 6.15737 20.5431 6.15737 20.5431L3.56475 15.7576C3.56475 15.7576 3.51887 15.6658 3.49592 15.6199C3.47298 15.574 3.4208 15.3331 3.4208 15.3331Z" fill="#363E7F"/>
<path fill-rule="evenodd" clip-rule="evenodd" d="M23.6518 18.9996C23.6518 18.9996 23.2044 19.6028 22.6193 20.1879C21.9736 20.834 21.2657 21.3628 21.2657 21.3628H13.4534C13.4534 21.3628 12.4964 21.4042 11.951 20.4347C11.7078 20.004 11.3689 18.0996 11.3689 15.8608C11.3689 13.75 11.6394 11.8923 11.951 11.2262C12.3636 10.3429 13.4601 10.297 13.4601 10.297L21.541 10.297V13.4577H14.7153C14.7153 13.4577 14.5495 14.2433 14.5495 15.8608C14.5495 17.468 14.7153 18.2018 14.7153 18.2018H20.0726C20.0726 18.2018 20.9426 17.4128 21.8048 16.1705C22.4289 15.2722 22.7414 14.5255 22.9996 13.9085C23.1734 13.4933 23.3226 13.1368 23.5256 12.8323C25.2297 10.2767 27.9603 10.297 27.9603 10.297H31.6102V21.4209H28.4499V18.9996L23.6518 18.9996ZM28.4499 15.8367V13.4632C28.4499 13.4632 27.3479 13.4033 26.5771 14.1286C25.992 14.6792 25.6823 15.8367 25.6823 15.8367H28.4499Z" fill="#363E7F"/>
</svg>
