<svg width="32" height="32" viewBox="0 0 32 32" fill="none" xmlns="http://www.w3.org/2000/svg">
<path fill-rule="evenodd" clip-rule="evenodd" d="M19.7551 11.5922C21.4374 15.0011 21.3632 18.4006 19.5347 21.8075L18.261 21.0711C19.9216 18.2039 19.9967 15.2593 18.4855 12.2398L19.7551 11.5922ZM21.3879 6.86571H32C24.4836 8.34115 17.7056 11.3425 11.6606 15.8747C14.556 20.4017 20.4694 23.8958 29.4138 26.3574H15.2279C11.3968 25.4787 8.7642 23.1685 7.33315 19.4206C6.14775 20.3931 5.01027 21.5039 3.92626 22.7442C5.86124 24.7609 8.36016 25.685 11.42 25.51C12.1862 25.9736 12.8783 26.3171 13.4937 26.536C9.40784 27.5796 5.92025 26.6606 3.01174 23.7929L2.52195 24.484H0.000834198L1.65131 22.1641C-0.103077 19.1053 -0.458696 16.1027 0.580418 13.1544C1.68561 9.78582 4.16637 7.5028 8.02976 6.30731C11.0134 5.58498 13.8554 6.13631 16.549 7.95829C16.0541 8.16662 15.6077 8.42589 15.2102 8.73763C13.3287 7.71718 11.4144 7.29296 9.47897 7.46648C9.15261 9.18001 9.37606 11.0207 10.1488 12.9975C13.7262 10.0537 17.4721 8.01075 21.3879 6.86571ZM1.56354 14.9824C1.23062 17.0402 1.57111 19.015 2.58752 20.9157C3.80974 19.2067 5.17925 17.6465 6.69202 16.2314C6.31623 14.1809 6.4953 11.4585 7.22671 8.06775C4.16233 9.33991 2.2768 11.6461 1.56354 14.9824Z" fill="#EE3224"/>
</svg>
