<svg width="32" height="32" viewBox="0 0 32 32" fill="none" xmlns="http://www.w3.org/2000/svg">
<path fill-rule="evenodd" clip-rule="evenodd" d="M27.6613 26.5163C30.3185 23.8831 31.6532 20.7045 31.6532 16.9797C31.6532 13.2306 30.3185 10.0518 27.6613 7.44337C24.9801 4.81047 21.7527 3.48795 17.9673 3.48795C14.1697 3.48795 10.9182 4.81047 8.21262 7.44337C5.49483 10.076 4.13597 13.2549 4.13597 16.9797C4.13597 20.7045 5.49483 23.8834 8.21262 26.5163C10.9182 29.1489 14.1697 30.4714 17.9673 30.4714C21.7527 30.4712 24.9801 29.1489 27.6613 26.5163ZM26.9093 8.21994C29.3965 10.6463 30.6462 13.5705 30.6462 16.9797C30.6462 20.3889 29.3965 23.2889 26.9093 25.7033C24.4463 28.1296 21.4617 29.3431 17.9673 29.3431C14.4974 29.3429 11.5369 28.1298 9.08615 25.7033C6.64742 23.2886 5.42201 20.3889 5.42201 16.9797C5.42201 13.5459 6.64742 10.6341 9.08615 8.21994C11.5369 5.81741 14.4974 4.61627 17.9673 4.61627C21.4617 4.61627 24.4463 5.81741 26.9093 8.21994Z" fill="#2D1B85"/>
<path fill-rule="evenodd" clip-rule="evenodd" d="M12.1072 17.5378L0.6539 18.8604L26.6908 18.8604L11.7311 1.60739H5.30073L12.1072 17.5378Z" fill="#E60003"/>
</svg>
