<svg width="32" height="32" viewBox="0 0 32 32" fill="none" xmlns="http://www.w3.org/2000/svg">
<g clip-path="url(#clip0)">
<path fill-rule="evenodd" clip-rule="evenodd" d="M22.3633 13.7506C23.415 14.404 24.5994 14.9245 25.9123 15.317C23.5237 16.9308 16.9528 17.5415 14.7759 15.1457L22.3633 13.7506Z" fill="#228818"/>
<path fill-rule="evenodd" clip-rule="evenodd" d="M9.32147 24.1844C9.63516 23.8494 10.0047 23.5769 10.2517 23.19C10.5788 22.678 10.7442 22.0891 11.0322 21.5541C11.2445 21.1599 11.5241 20.8056 11.77 20.4314C12.3056 21.5661 12.0322 22.5171 11.7593 23.7674C11.1037 24.056 10.2341 24.2957 9.32147 24.1844Z" fill="#046985"/>
<path fill-rule="evenodd" clip-rule="evenodd" d="M5.088 5.10824C5.84113 5.22197 6.86152 5.35327 7.13345 5.26208C7.40537 5.17104 8.53258 4.83992 9.25236 4.93577C10.4934 5.10103 11.6848 6.22794 11.7725 7.22309C11.8239 7.80556 11.6264 8.30824 11.7685 8.86456C12.1726 10.4459 14.6201 10.9283 16.2712 10.8951C18.7531 10.8451 24.242 8.315 29.044 8.63936C30.4679 8.73566 31.6572 9.2077 31.7215 10.0122C30.7152 10.3807 29.8641 10.8163 29.2495 11.3807C26.4321 10.1062 22.9822 9.75831 20.0344 10.9641C23.1916 10.2705 26.2097 10.776 27.6699 12.3667C25.4768 13.4853 23.726 14.5455 21.9649 15.2009C19.5337 16.1059 17.4092 16.426 15.7536 16.0238C15.8059 17.5731 16.4506 17.8833 16.3989 20.3671C16.3388 23.2604 13.5733 25.199 10.4442 25.1535C11.6381 24.1374 11.9261 22.0867 11.7605 20.4435C12.9271 21.0258 12.2892 23.7038 12.4708 23.6956C12.6525 23.6872 13.2961 22.1689 13.137 21.5457C12.8996 20.6159 12.5443 19.6999 12.0141 18.893C11.6074 18.2741 9.5064 16.6254 9.24019 14.6474C9.05029 13.2356 9.79741 11.9293 11.5798 11.0583C9.76361 11.1851 8.70761 12.0988 8.3173 13.5089C7.71951 9.90118 7.22629 6.97821 4.88053 5.80653C4.52071 5.69626 1.16462 4.75774 0 4.59474C0.861296 4.23177 4.70325 5.02276 5.088 5.10824Z" fill="black"/>
<path fill-rule="evenodd" clip-rule="evenodd" d="M11.9624 25.0184C14.3037 24.5303 15.8121 23.0902 16.2715 20.378L16.4211 20.3673C16.306 23.5499 15.1021 26.174 11.075 26.5154C11.5996 26.0627 11.8298 25.5923 11.9624 25.0184Z" fill="#B7B01A"/>
</g>
<defs>
<clipPath id="clip0">
<rect width="32" height="32" fill="white"/>
</clipPath>
</defs>
</svg>
