<svg width="32" height="32" viewBox="0 0 32 32" fill="none" xmlns="http://www.w3.org/2000/svg">
<path d="M30.0992 11.126H31.5671L22.2284 19.9195H20.8444L30.0992 11.126Z" fill="#01B89C"/>
<path d="M27.5269 11.0562H28.9948L19.6561 19.8496H18.2581L27.5269 11.0562Z" fill="#00ADEF"/>
<path fill-rule="evenodd" clip-rule="evenodd" d="M3.84454 13.4326H5.17266C6.24912 13.4326 6.83629 14.3413 6.41689 15.4318L5.52216 17.8084C5.11673 18.8988 3.85852 19.8076 2.76807 19.8076H1.43996C0.363494 19.8076 -0.223671 18.8988 0.195733 17.8084L1.09046 15.4318C1.49588 14.3413 2.75409 13.4326 3.84454 13.4326ZM3.13156 18.8569C3.71872 18.8569 4.40375 18.3816 4.62743 17.8084L5.50818 15.4318C5.73186 14.8726 5.39634 14.3833 4.82315 14.3833H3.49504C2.90788 14.3833 2.22285 14.8586 1.99917 15.4318L1.11842 17.8084C0.894739 18.3676 1.23026 18.8569 1.80345 18.8569H3.13156Z" fill="#323471"/>
<path d="M17.8806 17.1513L17.6429 17.7665C17.4193 18.3396 16.7202 18.8569 16.1331 18.8569H14.763C14.1898 18.8569 13.8683 18.3257 14.092 17.7665L14.9588 15.4318C15.1824 14.8586 15.8814 14.3413 16.4686 14.3413H18.1043L18.4538 13.4326H16.8181C15.7277 13.4326 14.4694 14.3413 14.064 15.4318L13.1973 17.7665C12.7779 18.8569 13.365 19.7656 14.4415 19.7656H15.8115C16.902 19.7656 18.1602 18.8569 18.5656 17.7665L18.8033 17.1513H17.8806Z" fill="#323471"/>
<path d="M10.1636 17.2911C11.1981 17.2911 12.4423 16.5781 12.8338 15.5576L12.9736 15.1662C13.365 14.1456 12.9176 13.4326 11.8971 13.4326H8.91932H8.45798L6.08136 19.7377H6.99007C6.99007 19.7377 8.73758 15.1102 9.01718 14.3273C9.64629 14.3273 11.268 14.3273 11.268 14.3273C12.0229 14.3273 12.1208 14.9565 12.0509 15.1522L11.9111 15.5436C11.8412 15.7393 11.282 16.3684 10.4991 16.3684H9.78609H9.46455H9.04515L8.83544 16.9137L9.08709 17.5008L10.3173 19.7656H11.4777L10.2474 17.5008L10.1636 17.2911Z" fill="#323471"/>
</svg>
