<svg width="32" height="32" viewBox="0 0 32 32" fill="none" xmlns="http://www.w3.org/2000/svg">
<g clip-path="url(#clip0)">
<path fill-rule="evenodd" clip-rule="evenodd" d="M16.907 0.0212568C16.2728 -0.0107512 15.6323 -0.0075505 15.0069 0.0372623C13.1828 0.15249 11.1084 0.662059 9.50839 1.3952C8.99055 1.63094 8.84362 1.70232 8.82908 1.72537C8.82035 1.74137 8.60514 2.44683 8.34913 3.30081L8.0807 4.19697C7.56677 5.91221 7.51186 6.09547 7.53439 6.10555C7.53708 6.10675 7.54088 6.10548 7.54514 6.10405C7.54877 6.10284 7.55272 6.10152 7.5566 6.10152C7.57406 6.10152 7.75124 5.96708 7.95779 5.80384C9.67711 4.4411 11.7606 3.5183 13.9337 3.15309C14.1752 3.11308 14.3989 3.08107 14.4309 3.08107C14.4658 3.08107 14.7889 2.92423 15.1496 2.7285C15.3445 2.62291 15.759 2.39998 16.2562 2.13251C16.6792 1.90499 17.1621 1.64525 17.6207 1.39809C18.8659 0.728316 19.4307 0.409195 19.4248 0.380388C19.4131 0.333976 19.3656 0.322773 18.7751 0.225148C18.17 0.125923 17.5412 0.0593465 16.907 0.0276585V0.0212568ZM21.064 0.776488C21.0379 0.776488 20.122 1.25773 19.031 1.84428C17.0062 2.93687 16.8751 3.01706 17.1457 3.01706C17.3435 3.01706 18.1765 3.13709 18.6594 3.23455C20.5358 3.61129 22.4144 4.44878 23.9388 5.59019L24.2268 5.80784L26.8062 6.57043C28.223 6.99022 29.4317 7.34199 29.484 7.35063C29.5713 7.36663 29.5825 7.36663 29.5825 7.30582C29.5825 7.19859 28.9511 6.33053 28.3839 5.65788C27.9882 5.18912 26.8689 4.0826 26.3976 3.69739C25.0332 2.57902 23.6414 1.75081 22.1199 1.14426C21.7097 0.98038 21.1222 0.776648 21.064 0.776648L21.064 0.776488ZM7.03481 2.76211C7.27045 2.60207 7.36553 2.54926 7.39908 2.56686L7.39909 2.5659C7.41026 2.5723 7.41385 2.5851 7.41385 2.60591C7.41385 2.63456 7.06374 3.82974 6.63609 5.26146L5.85587 7.86964L5.61958 8.1798C5.09593 8.87838 4.73157 9.47149 4.34465 10.2477C3.70754 11.5242 3.31855 12.7718 3.10909 14.1863C3.07709 14.4076 3.05002 14.6318 3.05002 14.6815C3.05002 14.7999 2.99074 14.8095 2.91219 14.6975C2.8831 14.6544 2.79182 14.4937 2.71036 14.3449C2.68431 14.2971 2.62026 14.1787 2.52957 14.0112L2.5295 14.0111L2.52888 14.0099C2.33594 13.6535 2.02292 13.0752 1.69878 12.4794L0.832415 10.884L0.88164 10.7416C2.0424 7.46682 4.178 4.69988 7.03481 2.76211ZM15.8781 5.89778C10.1626 5.89778 5.52852 10.4965 5.52852 16.1703C5.52852 21.8442 10.1626 26.4455 15.8781 26.4455C21.5937 26.4455 26.2278 21.8442 26.2278 16.1703C26.2278 10.4965 21.5937 5.89778 15.8781 5.89778ZM26.0333 7.50283C26.0333 7.49162 26.0539 7.47562 26.0801 7.47562L26.0799 7.4753C26.1614 7.4753 30.4026 8.73642 30.4462 8.77323C30.5044 8.82204 30.6194 9.0501 30.8696 9.63089C31.527 11.1518 31.9102 12.6166 32.1051 14.3446C32.1693 14.9398 32.1811 16.838 32.1201 17.4503C32.0502 18.1462 31.8332 19.4923 31.7779 19.5435C31.7343 19.5865 31.6281 19.4124 31.0666 18.383C30.7856 17.8608 30.3465 17.0538 30.0022 16.4209L30.0021 16.4208L29.7991 16.0476L29.1493 14.8597L29.1025 14.4672C29.0036 13.6535 28.7933 12.7363 28.5315 11.9515C28.0369 10.4765 27.267 9.06355 26.3041 7.87044C26.1557 7.68352 26.0333 7.52044 26.0333 7.50283ZM10.6283 10.4064H19.1172C19.8301 10.4657 20.3656 10.6094 20.9434 10.8891C21.6736 11.243 22.1765 11.7225 22.5359 12.4044C22.8032 12.9152 22.9387 13.408 22.9617 13.9874C23.0105 15.1089 22.5897 16.106 21.7704 16.8281C21.2357 17.2989 20.5691 17.5993 19.6808 17.7734C18.2546 17.8633 17.4908 17.8614 16.1966 17.8582H16.1966H16.1962H16.1959H16.1956H16.1952H16.1948C15.7386 17.8571 15.2164 17.8557 14.5761 17.8582L14.6131 21.7642C14.6677 21.8698 14.8196 21.9593 14.9921 21.9791C15.1646 22.0015 15.2157 22.0415 15.2013 22.1417L15.2086 22.1913H10.6454C10.6224 22.1738 10.6077 22.1241 10.6134 22.0841C10.6221 22.0185 10.6395 22.0089 10.766 21.9913C10.9615 21.9625 11.145 21.8873 11.1967 21.8162L11.241 10.8309L11.1549 10.7508C11.0744 10.6772 10.87 10.6084 10.7291 10.6084C10.7004 10.6084 10.6631 10.5924 10.643 10.5764C10.6056 10.5396 10.5965 10.4324 10.6282 10.4013L10.6283 10.4064ZM0.389386 12.4822C0.398112 12.463 0.410213 12.4454 0.426306 12.447L0.426304 12.4471C0.474578 12.4518 0.561314 12.5849 0.731501 12.8997L0.759198 12.9504L0.759614 12.9511C0.934565 13.2712 1.47263 14.2555 2.00152 15.2278L3.01802 17.1008L3.06478 17.4708C3.26552 19.0896 3.69432 20.4874 4.43325 21.922C4.81726 22.6694 5.19103 23.2678 5.6885 23.9175C5.89505 24.1882 5.91652 24.2538 5.79433 24.225C5.4976 24.1533 1.60481 22.9853 1.57572 22.9597C1.52044 22.9109 1.10206 21.9212 0.933326 21.4468C0.334035 19.7679 0.0490659 18.2081 0.00542782 16.3881C-0.0149365 15.5199 0.0212997 14.8159 0.126029 13.985C0.184214 13.525 0.345748 12.6086 0.389386 12.4822ZM14.5761 12.8698V15.5228L16.6264 15.5052L16.8475 15.5033H16.8475H16.8475H16.8475C18.5056 15.4891 18.6971 15.4875 18.8735 15.4476C19.6094 15.2563 19.9048 14.8775 19.9048 14.1298C19.9076 13.7044 19.8554 13.5471 19.6513 13.3246C19.4615 13.1249 19.2911 13.0247 18.972 12.9418C18.7362 12.881 18.6859 12.8794 16.6535 12.8698H14.5761ZM29.1346 17.2914C29.1433 17.2306 29.1679 17.1858 29.1912 17.1858L29.1912 17.1862C29.2115 17.1862 29.3505 17.4085 29.4988 17.6789C29.6443 17.952 29.8624 18.3513 29.9788 18.564C31.0464 20.5191 31.3276 21.0528 31.3276 21.1072C31.3276 21.2425 30.9846 22.1257 30.6704 22.7926C30.1991 23.799 29.6359 24.7333 28.9377 25.6534C28.1231 26.7315 27.0836 27.7851 26.0334 28.6018C25.4835 29.03 24.5982 29.6344 24.5197 29.6344C24.4963 29.6344 24.4882 29.6088 24.5 29.5543C24.5204 29.4654 25.859 24.97 25.9521 24.6881C25.9958 24.5531 26.0624 24.4409 26.1933 24.2856C27.4676 22.7617 28.4125 20.8576 28.8663 18.8968C28.9419 18.5748 29.0706 17.8435 29.1026 17.559C29.1113 17.4726 29.126 17.3522 29.1346 17.2914ZM2.4347 24.3426C2.40561 24.3426 2.38301 24.365 2.38301 24.3906C2.38301 24.4162 2.49487 24.6086 2.6316 24.8157C4.11528 27.0382 6.15804 28.8961 8.51157 30.1495C9.20105 30.5203 10.4414 31.0553 10.6799 31.0898C10.7643 31.1057 11.0344 30.9633 12.681 30.0721C13.7283 29.5057 14.59 29.0248 14.5958 29.0019C14.6017 28.9667 14.5068 28.9442 14.1577 28.8914C11.8478 28.5493 9.53325 27.5175 7.74119 26.0282L7.49999 25.8307L4.99196 25.0855C3.613 24.6773 2.46088 24.3428 2.4347 24.3428L2.4347 24.3426ZM23.9683 26.4031C24.18 26.241 24.2875 26.1771 24.3277 26.193C24.3412 26.1994 24.3474 26.2138 24.3474 26.2362C24.3474 26.2621 24.2771 26.5168 24.1899 26.8013C24.1543 26.9212 24.0841 27.1559 23.9957 27.451C23.8743 27.8568 23.7186 28.3767 23.5721 28.8694L23.1094 30.4198L22.8042 30.5623C22.6354 30.6399 22.2688 30.7929 21.9895 30.9049C20.5174 31.4799 19.0407 31.8211 17.3795 31.9652C16.8559 32.0116 15.3168 32.0116 14.7903 31.9652C13.6819 31.8674 12.3272 31.6334 12.3068 31.5326C12.301 31.5009 12.7931 31.2237 13.951 30.5999C14.7184 30.188 15.5716 29.7277 16.0316 29.4796C16.1174 29.4333 16.1895 29.3944 16.2449 29.3645L16.8848 29.0219L17.19 28.9963C18.1617 28.9186 19.22 28.6964 20.2149 28.3686C21.5473 27.9317 22.9152 27.2168 23.9683 26.4031Z" fill="#003D80"/>
</g>
<defs>
<clipPath id="clip0">
<rect width="32" height="32" fill="white"/>
</clipPath>
</defs>
</svg>
