<svg width="32" height="32" viewBox="0 0 32 32" fill="none" xmlns="http://www.w3.org/2000/svg">
<path fill-rule="evenodd" clip-rule="evenodd" d="M9.61176 16.0469C9.61176 18.5705 7.56807 20.6079 5.04843 20.6079C2.5305 20.6079 0.488534 18.5705 0.488534 16.0469C0.488534 13.5241 2.5305 11.4855 5.04843 11.4855C7.56807 11.4855 9.61176 13.5241 9.61176 16.0469Z" fill="#0B96D4"/>
<path fill-rule="evenodd" clip-rule="evenodd" d="M20.5585 16.0469C20.5585 18.5705 18.5146 20.6079 15.9984 20.6079C13.4793 20.6079 11.4367 18.5705 11.4367 16.0469C11.4367 13.5241 13.4793 11.4855 15.9984 11.4855C18.5146 11.4855 20.5585 13.5241 20.5585 16.0469Z" fill="#76B2E2"/>
<path fill-rule="evenodd" clip-rule="evenodd" d="M31.5031 16.0469C31.5031 18.5705 29.4594 20.6079 26.9418 20.6079C24.4239 20.6079 22.3799 18.5705 22.3799 16.0469C22.3799 13.5241 24.4239 11.4855 26.9418 11.4855C29.4594 11.4855 31.5031 13.5241 31.5031 16.0469Z" fill="#A4C8EB"/>
</svg>
