<svg width="32" height="32" viewBox="0 0 32 32" fill="none" xmlns="http://www.w3.org/2000/svg">
<path fill-rule="evenodd" clip-rule="evenodd" d="M29.9979 12.1595C30.196 12.0527 30.475 12 30.8329 12C31.181 12 31.448 12.0453 31.6368 12.1395C31.8643 12.2541 31.9779 12.4423 31.9779 12.7043V13.393H30.9901V12.7109C30.9901 12.6577 30.973 12.6153 30.9392 12.5847C30.9056 12.554 30.8672 12.5382 30.824 12.5382C30.7759 12.5382 30.7361 12.5537 30.7022 12.5825C30.6686 12.6112 30.6513 12.6535 30.6513 12.7109V13.0387C30.6513 13.1829 30.7234 13.2928 30.8683 13.3709L31.2603 13.5503C31.5455 13.6774 31.7218 13.7697 31.7896 13.8271C31.9296 13.942 32 14.1 32 14.3011V14.8259C32 15.0886 31.8828 15.281 31.6457 15.404C31.4424 15.5108 31.16 15.5634 30.8019 15.5634C30.4534 15.5634 30.1827 15.5159 29.9891 15.4217C29.7519 15.3068 29.6347 15.1196 29.6347 14.8569V14.1106H30.6446V14.8481C30.6446 14.9055 30.6573 14.9503 30.6867 14.981C30.7157 15.0119 30.7575 15.0275 30.8107 15.0275C30.8643 15.0275 30.9039 15.0116 30.9303 14.981C30.9574 14.9503 30.9702 14.9055 30.9702 14.8481V14.5779C30.9702 14.3404 30.9063 14.1869 30.7753 14.1172C30.591 14.0353 30.4187 13.9561 30.2593 13.8825C30.0221 13.7715 29.8628 13.6716 29.7809 13.5835C29.6986 13.4951 29.6569 13.3687 29.6569 13.2048V12.7375C29.6569 12.4748 29.7708 12.2827 29.9979 12.1595ZM5.83127 13.5237C6.22524 13.2904 6.77859 13.1716 7.49007 13.1716C8.19155 13.1716 8.73939 13.2751 9.13337 13.4816C9.61382 13.733 9.85314 14.1472 9.85314 14.7218V17.6297H7.16229V19.4037C7.16229 19.5295 7.19188 19.6264 7.24867 19.6938C7.30546 19.7609 7.38945 19.7935 7.50336 19.7935C7.61693 19.7935 7.70315 19.759 7.76026 19.6916C7.81705 19.6245 7.84442 19.5292 7.84442 19.4037V17.9797H9.85314V19.4192C9.85314 19.9848 9.61382 20.3968 9.13337 20.6572C8.74875 20.8637 8.20122 20.9673 7.49007 20.9673C6.77859 20.9673 6.23107 20.8552 5.84677 20.6306C5.38536 20.3612 5.15357 19.9361 5.15357 19.3528V14.7883C5.15357 14.2139 5.37954 13.7931 5.83127 13.5237ZM12.7898 13.1716C12.0787 13.1716 11.5214 13.2904 11.1177 13.5237C10.647 13.7931 10.4112 14.2139 10.4112 14.7883V19.3528C10.4112 19.9361 10.647 20.3612 11.1177 20.6306C11.5117 20.8552 12.069 20.9673 12.7898 20.9673C13.5013 20.9673 14.0427 20.8637 14.4176 20.6572C14.879 20.4062 15.1108 19.9935 15.1108 19.4192V14.7218C15.1108 14.2191 14.8866 13.8348 14.4398 13.5702C13.9925 13.3053 13.4435 13.1716 12.7898 13.1716ZM25.1788 13.5237C25.5727 13.2904 26.1264 13.1716 26.8376 13.1716C27.539 13.1716 28.0869 13.2751 28.4809 13.4816C28.9613 13.733 29.2006 14.1472 29.2006 14.7218V17.6297H26.5098V19.4037C26.5098 19.5295 26.5394 19.6264 26.5962 19.6938C26.6533 19.7609 26.7373 19.7935 26.8509 19.7935C26.9648 19.7935 27.051 19.759 27.1078 19.6916C27.1645 19.6245 27.1919 19.5292 27.1919 19.4037V17.9797H29.2006V19.4192C29.2006 19.9848 28.9613 20.3968 28.4809 20.6572C28.0962 20.8637 27.5487 20.9673 26.8376 20.9673C26.1264 20.9673 25.5786 20.8552 25.1943 20.6306C24.7329 20.3612 24.5011 19.9361 24.5011 19.3528V14.7883C24.5011 14.2139 24.727 13.7931 25.1788 13.5237ZM0 13.2159V20.923H2.00651V18.427H2.4583C2.99264 18.427 3.42727 18.3598 3.75832 18.2233C4.08938 18.0839 4.31848 17.8875 4.44044 17.6319C4.56532 17.3764 4.62648 16.9677 4.62648 16.4072V15.6432C4.62648 15.0943 4.59514 14.6864 4.53125 14.4251C4.46736 14.1637 4.34587 13.9414 4.16582 13.7585C3.98578 13.5726 3.72337 13.4029 3.35746 13.3332C2.96252 13.2548 2.66045 13.2203 1.99543 13.2203L0 13.2159ZM15.6113 20.9208V13.2159L17.6045 13.2203C18.2708 13.2203 18.57 13.2564 18.9666 13.3332C19.3312 13.4039 19.5949 13.5717 19.7749 13.7562C19.955 13.9405 20.0765 14.1634 20.1404 14.4251C20.2039 14.6871 20.2378 15.094 20.2378 15.6432V16.4072C20.2378 16.9674 20.1735 17.3754 20.0496 17.6319C19.9253 17.8885 19.6988 18.0861 19.3674 18.2233C19.0357 18.3604 18.6027 18.4292 18.0674 18.4292H17.6156V20.9208H15.6113ZM20.6586 13.2225V20.903H24.1356V19.1468H22.6496V13.2225H20.6586ZM2.68641 14.7108C2.67625 14.3474 2.41663 14.341 2.352 14.3453L2.35199 14.3454C2.34276 14.346 2.3387 14.3476 2.3387 14.3476C1.97861 14.3853 2.00429 14.7196 2.00429 14.7196L2.00208 16.8568C2.01078 17.2227 2.31213 17.2067 2.31213 17.2067C2.69256 17.2241 2.68641 16.8657 2.68641 16.8657V14.7108ZM17.9611 14.3453C18.0261 14.3413 18.2856 14.348 18.2955 14.7108V16.8634C18.2955 16.8634 18.302 17.226 17.9212 17.2089C17.9212 17.2089 17.6177 17.2237 17.609 16.8568L17.6134 14.7196C17.6134 14.7196 17.5871 14.3843 17.9456 14.3476C17.9456 14.3476 17.9518 14.3459 17.9611 14.3453ZM7.76026 14.4494C7.70315 14.3865 7.61694 14.3542 7.50336 14.3542C7.40849 14.3542 7.3281 14.3865 7.26196 14.4494C7.19581 14.5124 7.16229 14.6049 7.16229 14.7307V16.4825H7.84442V14.7307C7.84442 14.6049 7.81705 14.5124 7.76026 14.4494ZM12.761 14.3542C12.8746 14.3542 12.9589 14.3865 13.0157 14.4494C13.0728 14.5124 13.1021 14.6052 13.1021 14.7307V19.4037C13.1021 19.5295 13.0728 19.6245 13.0157 19.6916C12.9589 19.759 12.8746 19.7935 12.761 19.7935C12.6471 19.7935 12.5609 19.759 12.5041 19.6916C12.447 19.6245 12.42 19.5295 12.42 19.4037V14.7307C12.42 14.6052 12.4532 14.5124 12.5196 14.4494C12.5858 14.3865 12.6662 14.3542 12.761 14.3542ZM27.1078 14.4494C27.051 14.3865 26.9648 14.3542 26.8509 14.3542C26.7563 14.3542 26.6759 14.3865 26.6095 14.4494C26.5433 14.5124 26.5098 14.6049 26.5098 14.7307V16.4825H27.1919V14.7307C27.1919 14.6049 27.1645 14.5124 27.1078 14.4494Z" fill="#9C9D9F"/>
</svg>
