<svg width="32" height="32" viewBox="0 0 32 32" fill="none" xmlns="http://www.w3.org/2000/svg">
<path d="M24.5312 12.3375C24.5312 12.3375 21.8912 11.9774 21.321 11.8886C21.5772 12.1485 21.7418 12.4494 21.7458 12.926C21.7481 13.1915 21.6246 13.553 21.5023 13.7639L24.5312 12.3375Z" fill="url(#paint0_linear)"/>
<path d="M21.321 11.8886C21.5772 12.1485 21.7418 12.4494 21.7458 12.926C21.7481 13.1915 21.6246 13.553 21.5023 13.7639L22.2573 13.4084C22.2681 13.342 22.2686 13.3054 22.2686 13.2359C22.2686 12.6534 21.855 12.0414 21.321 11.8886Z" fill="#4DBD38"/>
<path fill-rule="evenodd" clip-rule="evenodd" d="M23.7642 14.2421C23.5762 14.1704 23.3457 14.1344 23.0728 14.1344C22.8337 14.1344 22.6119 14.1529 22.4071 14.1902C22.202 14.2272 22.0556 14.2657 21.968 14.3052L22.0485 14.8774C22.1314 14.8427 22.2569 14.8092 22.4251 14.777C22.5936 14.7448 22.7897 14.7287 23.0141 14.7287C23.1897 14.7287 23.3324 14.7548 23.4422 14.8067C23.552 14.8587 23.6384 14.9282 23.7019 15.0147C23.7652 15.1014 23.8092 15.2004 23.8335 15.3119C23.8579 15.4233 23.8702 15.5361 23.8702 15.6499V15.843C23.8506 15.8382 23.8165 15.8307 23.7677 15.8208C23.719 15.8109 23.6618 15.7998 23.5957 15.7874C23.5299 15.7751 23.4605 15.765 23.3874 15.7576C23.3142 15.7502 23.2433 15.7465 23.1752 15.7465C22.9605 15.7465 22.7556 15.7688 22.5605 15.8133C22.3654 15.8579 22.1949 15.9274 22.0485 16.0214C21.9022 16.1156 21.7863 16.2394 21.7009 16.3927C21.6156 16.5464 21.5728 16.7297 21.5728 16.9425C21.5728 17.1655 21.6095 17.3562 21.6826 17.5146C21.7558 17.6732 21.8582 17.8006 21.9899 17.8971C22.1217 17.9938 22.2777 18.0643 22.4581 18.1089C22.6386 18.1535 22.836 18.1758 23.0507 18.1758C23.2019 18.1758 23.3544 18.1695 23.5081 18.1572C23.6618 18.1447 23.8043 18.1312 23.9359 18.1163C24.0678 18.1014 24.186 18.0854 24.2909 18.068C24.3956 18.0507 24.4775 18.0372 24.5359 18.0272V15.6128C24.5359 15.3949 24.5115 15.1956 24.4627 15.0147C24.4139 14.834 24.3323 14.678 24.2178 14.5467C24.1031 14.4156 23.9517 14.314 23.7642 14.2421ZM23.5591 17.5852C23.4349 17.5926 23.2921 17.5963 23.1312 17.5963C22.8629 17.5963 22.6507 17.548 22.4947 17.4515C22.3385 17.3549 22.2607 17.1829 22.2607 16.9351C22.2607 16.8013 22.2922 16.6937 22.3558 16.6119C22.419 16.5303 22.4983 16.4659 22.5936 16.4188C22.6886 16.3718 22.7935 16.3408 22.9081 16.3259C23.0228 16.3111 23.1312 16.3037 23.2337 16.3037C23.3896 16.3037 23.5225 16.3124 23.6323 16.3296C23.7421 16.347 23.8214 16.3681 23.8702 16.3927V17.5443C23.7871 17.5641 23.6836 17.5778 23.5591 17.5852Z" fill="#2E2D2D"/>
<path d="M26.5039 18.1685C26.0844 18.1585 25.7868 18.067 25.6113 17.8936C25.4357 17.7203 25.348 17.4504 25.348 17.0838V12.6549L26.0285 12.3292V16.9723C26.0285 17.0864 26.0382 17.1804 26.0577 17.2546C26.077 17.329 26.1088 17.3884 26.1527 17.433C26.1967 17.4776 26.2551 17.511 26.3283 17.5332C26.4015 17.5556 26.4917 17.5742 26.599 17.589L26.5039 18.1685" fill="#2E2D2D"/>
<path fill-rule="evenodd" clip-rule="evenodd" d="M27.2375 18.094H27.918V14.2309H27.2375V18.094ZM27.2631 13.41C27.3485 13.4917 27.4522 13.5326 27.5742 13.5326C27.6962 13.5326 27.7998 13.4917 27.8852 13.41C27.9703 13.3283 28.0132 13.2182 28.0132 13.0794C28.0132 12.9409 27.9703 12.8305 27.8852 12.7489C27.7998 12.6672 27.6962 12.6263 27.5742 12.6263C27.4522 12.6263 27.3485 12.6672 27.2631 12.7489C27.1778 12.8305 27.1351 12.9409 27.1351 13.0794C27.1351 13.2182 27.1778 13.3283 27.2631 13.41Z" fill="#2E2D2D"/>
<path fill-rule="evenodd" clip-rule="evenodd" d="M30.8606 14.2421C30.6726 14.1704 30.4422 14.1344 30.1692 14.1344C29.9302 14.1344 29.7083 14.1529 29.5035 14.1902C29.2984 14.2272 29.1521 14.2657 29.0645 14.3052L29.145 14.8774C29.2278 14.8427 29.3534 14.8092 29.5215 14.777C29.69 14.7448 29.8862 14.7287 30.1106 14.7287C30.2861 14.7287 30.4289 14.7548 30.5387 14.8067C30.6484 14.8587 30.7348 14.9282 30.7984 15.0147C30.8617 15.1014 30.9056 15.2004 30.93 15.3119C30.9544 15.4233 30.9666 15.5361 30.9666 15.6499V15.843C30.947 15.8382 30.913 15.8307 30.8642 15.8208C30.8154 15.8109 30.7582 15.7998 30.6922 15.7874C30.6264 15.7751 30.557 15.765 30.4838 15.7576C30.4106 15.7502 30.3397 15.7465 30.2716 15.7465C30.0569 15.7465 29.8522 15.7688 29.657 15.8133C29.4618 15.8579 29.2913 15.9274 29.145 16.0214C28.9986 16.1156 28.8828 16.2394 28.7974 16.3927C28.712 16.5464 28.6693 16.7297 28.6693 16.9425C28.6693 17.1655 28.7059 17.3562 28.7791 17.5146C28.8523 17.6732 28.9547 17.8006 29.0863 17.8971C29.2182 17.9938 29.3742 18.0643 29.5546 18.1089C29.735 18.1535 29.9324 18.1758 30.1471 18.1758C30.2983 18.1758 30.4508 18.1695 30.6045 18.1572C30.7582 18.1447 30.9008 18.1312 31.0324 18.1163C31.1643 18.1014 31.2824 18.0854 31.3874 18.068C31.492 18.0507 31.5739 18.0372 31.6323 18.0272V15.6128C31.6323 15.3949 31.608 15.1956 31.5591 15.0147C31.5103 14.834 31.4288 14.678 31.3142 14.5467C31.1996 14.4156 31.0482 14.314 30.8606 14.2421ZM30.6556 17.5852C30.5313 17.5926 30.3885 17.5963 30.2277 17.5963C29.9594 17.5963 29.7472 17.548 29.5912 17.4515C29.4349 17.3549 29.3572 17.1829 29.3572 16.9351C29.3572 16.8013 29.3886 16.6937 29.4522 16.6119C29.5155 16.5303 29.5947 16.4659 29.69 16.4188C29.785 16.3718 29.89 16.3408 30.0046 16.3259C30.1192 16.3111 30.2277 16.3037 30.3301 16.3037C30.4861 16.3037 30.619 16.3124 30.7288 16.3296C30.8385 16.347 30.9178 16.3681 30.9666 16.3927V17.5443C30.8835 17.5641 30.7801 17.5778 30.6556 17.5852Z" fill="#2E2D2D"/>
<path d="M20.5424 14.2624C20.4758 14.2484 20.412 14.2346 20.3379 14.2199C20.1014 14.1729 19.8247 14.1493 19.5076 14.1493C19.2197 14.1493 18.9613 14.1976 18.7321 14.2941C18.5029 14.3908 18.309 14.5244 18.1505 14.6953C18.0154 14.8409 17.9137 15.015 17.8335 15.2073C18.746 14.9362 19.6484 14.6187 20.5424 14.2624Z" fill="#2E2D2D"/>
<path d="M20.2539 14.9964V17.0985C20.1662 17.168 20.0465 17.2286 19.8954 17.2806C19.7442 17.3326 19.5782 17.3586 19.3978 17.3586C19.2662 17.3586 19.1381 17.3338 19.0139 17.2843C18.8894 17.2349 18.7796 17.158 18.6846 17.0541C18.5895 16.9501 18.5138 16.8189 18.4577 16.6602C18.4018 16.5018 18.3736 16.3111 18.3736 16.0882C18.3736 15.9404 18.3916 15.807 18.4184 15.6807C18.1697 15.7632 17.9206 15.8419 17.6701 15.916C17.6668 15.9702 17.6639 16.0247 17.6639 16.0807C17.6639 16.4028 17.7078 16.6802 17.7957 16.9129C17.8834 17.1457 18.0028 17.3401 18.1543 17.496C18.3052 17.6521 18.4821 17.7672 18.6846 17.8415C18.8868 17.9158 19.1028 17.9529 19.332 17.9529C19.5564 17.9529 19.7528 17.9221 19.921 17.86C20.0892 17.7982 20.2028 17.7475 20.2612 17.7077V17.8713C20.2612 18.2278 20.1723 18.4878 19.9942 18.6513C19.8161 18.8147 19.5246 18.8964 19.1199 18.8964C18.9051 18.8964 18.6993 18.8753 18.5016 18.8332C18.3042 18.7912 18.137 18.7428 18.0006 18.6884L17.8761 19.2901C18.0323 19.3446 18.2163 19.3916 18.4284 19.4313C18.6406 19.4709 18.8663 19.4907 19.1054 19.4907C19.7197 19.4907 20.1782 19.3571 20.4808 19.0896C20.7831 18.8221 20.9343 18.3912 20.9343 17.7969V14.7081C20.7094 14.8082 20.4815 14.9019 20.2539 14.9964Z" fill="#2E2D2D"/>
<path d="M16.8644 15.4773C16.9208 15.4626 16.9767 15.4453 17.0331 15.4302V14.2309H16.3526V15.6021C16.5233 15.5616 16.6941 15.5216 16.8644 15.4773Z" fill="#2E2D2D"/>
<path d="M14.6405 15.9415V14.231H13.9603V16.0381C14.1881 16.0096 14.4147 15.977 14.6405 15.9415Z" fill="#2E2D2D"/>
<path d="M16.9674 16.117C16.7625 16.1705 16.5576 16.2195 16.3526 16.2654V17.4923C16.3282 17.5023 16.2878 17.5109 16.2319 17.5183C16.1758 17.5258 16.1135 17.5331 16.0455 17.5406C15.9771 17.548 15.9039 17.5543 15.8259 17.5592C15.7479 17.5641 15.6722 17.5666 15.599 17.5666C15.2527 17.5666 15.0064 17.4652 14.8601 17.262C14.749 17.108 14.6805 16.8759 14.6538 16.5677C14.4276 16.5981 14.2007 16.6242 13.9735 16.6478C13.9853 16.8136 14.0046 16.9726 14.0406 17.1172C14.0942 17.3326 14.1822 17.5195 14.3041 17.678C14.4261 17.8366 14.5869 17.9591 14.7869 18.0458C14.9868 18.1324 15.2333 18.1758 15.5258 18.1758C15.8625 18.1758 16.1587 18.1535 16.4149 18.1089C16.6707 18.0643 16.8768 18.0223 17.0331 17.9826V16.0982C17.0112 16.104 16.9894 16.1112 16.9674 16.117Z" fill="#2E2D2D"/>
<path d="M11.8523 16.1984V14.8104H13.2938V14.231H11.8523V13.035L11.1721 13.3669V16.2078C11.4003 16.2077 11.6273 16.2051 11.8523 16.1984Z" fill="#2E2D2D"/>
<path d="M13.0486 17.496C12.9244 17.5432 12.7597 17.5666 12.5549 17.5666C12.4378 17.5666 12.3354 17.5517 12.2475 17.522C12.1598 17.4923 12.0866 17.4415 12.0279 17.3697C11.9695 17.298 11.9255 17.1989 11.8963 17.0726C11.8772 16.9903 11.8667 16.8884 11.86 16.7776C11.6334 16.7822 11.4067 16.7863 11.1799 16.7845C11.1877 16.9652 11.2032 17.1345 11.2342 17.2806C11.2756 17.4762 11.3478 17.6409 11.4501 17.7747C11.5525 17.9083 11.6879 18.0087 11.8562 18.0755C12.0244 18.1423 12.2378 18.1758 12.4963 18.1758C12.7157 18.1758 12.9109 18.1498 13.0816 18.0977C13.2522 18.0458 13.3716 18.0024 13.4402 17.9678L13.3083 17.3957C13.2595 17.4156 13.1731 17.449 13.0486 17.496Z" fill="#2E2D2D"/>
<path d="M9.1193 16.1584V14.8477C9.15844 14.8378 9.23999 14.8192 9.3645 14.7919C9.48875 14.7647 9.6143 14.7512 9.74132 14.7512C9.93626 14.7512 10.096 14.7647 10.2205 14.7919C10.3448 14.8192 10.4338 14.8428 10.4873 14.8626L10.6045 14.2607C10.5753 14.251 10.5301 14.2398 10.4693 14.2273C10.4081 14.215 10.3412 14.2027 10.2681 14.1903C10.1949 14.1779 10.1205 14.1679 10.045 14.1605C9.96927 14.153 9.90221 14.1494 9.84373 14.1494C9.54619 14.1494 9.27785 14.1754 9.03879 14.2273C8.79991 14.2793 8.59993 14.3351 8.43886 14.3946V16.1296C8.66614 16.1395 8.89293 16.1492 9.1193 16.1584" fill="#2E2D2D"/>
<path d="M8.43886 16.6733V18.094H9.1193V16.7115C8.89244 16.699 8.66565 16.6864 8.43886 16.6733Z" fill="#2E2D2D"/>
<path d="M4.85406 16.0264C4.87289 15.6562 4.96359 15.3533 5.13528 15.1262C5.32789 14.8711 5.58984 14.7435 5.92168 14.7435C6.25328 14.7435 6.51554 14.8711 6.70815 15.1262C6.8861 15.362 6.97827 15.6784 6.99183 16.0685C7.2296 16.0775 7.46713 16.0872 7.7043 16.0974C7.69841 15.821 7.65656 15.566 7.57513 15.3342C7.48745 15.0842 7.36423 14.8699 7.20567 14.6916C7.04712 14.5132 6.85806 14.3759 6.63875 14.2792C6.4192 14.1826 6.18014 14.1344 5.92168 14.1344C5.66305 14.1344 5.42417 14.1826 5.20468 14.2792C4.98512 14.3759 4.79607 14.5132 4.63776 14.6916C4.4792 14.8699 4.35599 15.0842 4.2683 15.3342C4.19283 15.549 4.15177 15.784 4.1411 16.0371C4.37875 16.0307 4.6164 16.0274 4.85406 16.0264Z" fill="#2E2D2D"/>
<path d="M6.95464 16.5975C6.90997 16.8333 6.83082 17.0366 6.70815 17.1989C6.51554 17.454 6.25328 17.5815 5.92168 17.5815C5.58984 17.5815 5.32789 17.454 5.13528 17.1989C5.00887 17.0318 4.92818 16.8217 4.88468 16.5768C4.74833 16.5808 4.61186 16.5805 4.47558 16.5874C4.37685 16.5924 4.2745 16.5979 4.16994 16.6036C4.19197 16.7413 4.22467 16.8716 4.2683 16.9946C4.35599 17.2424 4.4792 17.4552 4.63776 17.6336C4.79607 17.8118 4.98512 17.9493 5.20468 18.0458C5.42417 18.1424 5.66305 18.1907 5.92168 18.1907C6.18014 18.1907 6.4192 18.1424 6.63875 18.0458C6.85806 17.9493 7.04711 17.8118 7.20567 17.6336C7.36423 17.4552 7.48744 17.2424 7.57513 16.9946C7.61587 16.8799 7.64606 16.7581 7.66785 16.6306C7.43007 16.6178 7.1923 16.6077 6.95464 16.5975Z" fill="#2E2D2D"/>
<path d="M0.323486 17.0804L0.323486 18.094H1.03317V16.8701C0.761018 16.9165 0.569938 16.9775 0.323486 17.0804Z" fill="#2E2D2D"/>
<path fill-rule="evenodd" clip-rule="evenodd" d="M1.5965 16.1848C1.5965 16.1848 1.24074 16.1806 1.03317 16.1848C0.78952 16.1898 0.565889 16.2661 0.323486 16.3774L0.323486 13.02C0.523463 12.9707 0.746543 12.9372 0.99302 12.9198C1.23926 12.9025 1.46488 12.8938 1.66967 12.8938C2.38166 12.8938 2.92924 13.0312 3.31215 13.3061C3.69508 13.581 3.88638 13.9908 3.88638 14.5356C3.88638 14.8328 3.83408 15.0866 3.72911 15.2971C3.62418 15.5076 3.47324 15.6785 3.27557 15.8097C3.07814 15.941 2.83777 16.0363 2.55496 16.0957C2.27214 16.1551 1.95249 16.1848 1.5965 16.1848ZM1.72814 13.5252C1.42576 13.5252 1.19427 13.5327 1.03317 13.5476L1.03317 15.5683H1.56728C1.81121 15.5683 2.03048 15.5523 2.22564 15.52C2.4208 15.4878 2.58545 15.4333 2.7196 15.3565C2.85376 15.2797 2.95745 15.1746 3.03062 15.0407C3.1038 14.9071 3.14038 14.7362 3.14038 14.5281C3.14038 14.3302 3.10251 14.1666 3.02679 14.0379C2.95108 13.9092 2.84868 13.8064 2.7196 13.7295C2.59026 13.6527 2.44036 13.5995 2.2696 13.5698C2.09885 13.5401 1.91845 13.5252 1.72814 13.5252Z" fill="#2E2D2D"/>
<defs>
<linearGradient id="paint0_linear" x1="21.6085" y1="13.4627" x2="21.2438" y2="11.6115" gradientUnits="userSpaceOnUse">
<stop stop-color="#B1DA19"/>
<stop offset="0.992726" stop-color="#67C530"/>
<stop offset="1" stop-color="#67C530"/>
</linearGradient>
</defs>
</svg>
