<svg width="32" height="32" viewBox="0 0 32 32" fill="none" xmlns="http://www.w3.org/2000/svg">
<path d="M24.3414 3.96197C26.6828 3.57605 28.4909 4.06649 29.1618 5.46723C29.5361 6.25068 29.2144 7.23155 28.4114 8.27495C30.0712 8.21864 31.3272 8.72787 31.8516 9.8222C32.4251 11.021 31.2924 12.7094 29.2154 14.3969C29.2592 14.8579 29.2815 15.3242 29.2815 15.7968C29.2815 23.8823 22.7271 30.4375 14.6407 30.4375C6.55524 30.4375 0 23.8823 0 15.7968C0 7.71037 6.55524 1.15514 14.6407 1.15514C14.9623 1.15514 15.2812 1.16586 15.5984 1.18637C17.0509 0.820106 18.2391 0.988051 18.7518 1.74023C19.0377 1.82421 19.3209 1.91622 19.5996 2.01627C21.8463 1.46509 23.6285 1.80366 24.2422 3.08737C24.37 3.35358 24.3985 3.64838 24.3414 3.96194L24.3414 3.96197ZM15.1482 10.8379C12.0313 12.0841 9.05029 12.6978 6.86969 12.7201C6.83124 12.7201 6.79107 12.6844 6.7875 12.6469L6.77764 12.5566C6.77406 12.52 6.80529 12.4753 6.8411 12.4682C8.25792 12.1618 9.75602 11.716 11.3051 11.0969C17.0527 8.7993 20.9905 5.40913 20.3098 3.56351C19.7934 3.32499 19.2807 3.15616 18.7572 3.02126C18.0783 4.35411 15.6332 6.07912 12.6004 7.27975C10.7664 8.00692 9.59612 8.23829 7.95776 8.36068C7.91938 8.36354 7.87914 8.3258 7.87468 8.28742L7.86575 8.20077C7.86218 8.16418 7.89341 8.12216 7.92828 8.11233C8.57059 7.93813 8.9708 7.82468 9.99098 7.41643C13.5571 5.99068 16.0629 3.94139 16.1576 2.64071C14.731 2.58439 13.2704 2.7756 11.833 3.24281C5.30548 5.36357 1.73486 12.3735 3.85561 18.9001C5.97637 25.4268 12.9863 28.9992 19.5138 26.8776C24.705 25.1918 28.0272 20.4108 28.1014 15.2402C26.2424 16.5543 23.8983 17.8907 21.2165 18.9627C17.5181 20.442 13.9314 21.1737 11.3613 21.1871C11.323 21.1878 11.2827 21.1513 11.2792 21.1138L11.2693 21.0218C11.2657 20.9861 11.297 20.9423 11.3328 20.9334C12.9934 20.5573 15.1741 19.9346 17.0215 19.1967C23.3677 16.6588 27.7655 13.3356 27.3349 10.7691C27.2393 10.5091 26.9017 9.93561 26.8472 9.89452C24.7845 11.6999 21.6024 13.5697 17.8925 15.0535C13.9886 16.6141 10.6226 17.2841 7.88988 17.3699C7.85236 17.3706 7.81215 17.3341 7.80858 17.2975L7.79879 17.2028C7.7945 17.1671 7.82559 17.1224 7.86225 17.1153C9.61495 16.7177 11.189 16.1925 13.1409 15.4117C20.1223 12.6201 24.99 8.50986 24.3611 6.17292C24.1056 5.92279 23.868 5.64943 23.5928 5.42342C22.1742 7.19935 18.9726 9.3085 15.1482 10.8379" fill="black"/>
</svg>
