<svg width="32" height="32" viewBox="0 0 32 32" fill="none" xmlns="http://www.w3.org/2000/svg">
<path d="M24.6403 15.6589C24.6403 15.7991 22.6705 15.9305 19.8585 16.0408C19.3619 15.7591 18.9851 15.476 18.7092 15.232C22.1195 15.3525 24.6403 15.5014 24.6403 15.6589Z" fill="#747F8A"/>
<path d="M22.6203 10.9115C22.6203 11.0284 20.9692 11.138 18.6089 11.2324C18.9472 11.0349 19.2957 10.836 19.6616 10.6363C21.4448 10.7184 22.6203 10.8135 22.6203 10.9115Z" fill="#747F8A"/>
<path d="M5.03283 21.1249C3.94013 21.1379 2.98174 21.143 2.23319 21.143C1.15573 21.143 0.28302 20.8112 0.28302 20.3995C0.28302 19.99 1.15573 19.6582 2.23319 19.6582C3.18722 19.6582 4.47958 19.6684 5.96218 19.6873C5.3886 20.515 5.11633 21.0123 5.09092 21.0435C5.07422 21.0675 5.05316 21.0958 5.03283 21.1249Z" fill="#747F8A"/>
<path d="M5.62142 22.1192C5.98154 22.5541 6.32714 22.92 6.78964 23.3201C6.78964 23.3201 6.96389 23.5691 7.49318 23.3556C8.03191 23.1364 8.48859 22.838 9.00336 22.1475C10.5063 22.1729 12.1 22.2063 13.669 22.2419C13.7982 22.4299 14.0603 22.8191 14.3834 23.299C10.0097 23.4123 5.26276 23.4798 2.83122 23.4798C1.81838 23.4798 0.99649 23.1654 0.99649 22.7806C0.99649 22.3936 1.81838 22.0814 2.83122 22.0814C3.57179 22.0814 4.52582 22.0865 5.61779 22.0989C5.61707 22.109 5.62142 22.1192 5.62142 22.1192Z" fill="#747F8A"/>
<path d="M3.92954 25.7666C3.03069 25.7666 2.30246 25.49 2.30246 25.1487C2.30246 24.8068 3.03069 24.5294 3.92954 24.5294C6.30735 24.5294 11.182 24.602 15.3568 24.7204C15.5579 25.0086 15.7591 25.2954 15.95 25.559C11.6518 25.6853 6.41988 25.7666 3.92954 25.7666Z" fill="#747F8A"/>
<path d="M17.795 27.7501C14.2889 27.904 8.26056 28.0071 5.75569 28.0071C5.0507 28.0071 4.47784 27.7871 4.47784 27.5206C4.47784 27.252 5.0507 27.0334 5.75569 27.0334C8.15165 27.0334 13.7785 27.1278 17.3296 27.2694C17.4901 27.4415 17.6469 27.6034 17.795 27.7501Z" fill="#747F8A"/>
<path d="M8.64805 29.065C10.7166 29.065 17.0136 29.2211 17.0136 29.4099C17.0136 29.6016 10.7158 29.7562 8.64805 29.7562C8.24509 29.7562 7.9191 29.6016 7.9191 29.4099C7.9191 29.2211 8.24509 29.065 8.64805 29.065Z" fill="#747F8A"/>
<path d="M8.67091 16.3326C6.0673 16.3769 3.73451 16.4016 2.23304 16.4016C1.1563 16.4016 0.282867 16.0698 0.282867 15.6589C0.282867 15.2486 1.1563 14.9154 2.23304 14.9154C3.97701 14.9154 6.84272 14.9488 9.94949 15.0076C9.48772 15.4643 9.0608 15.9086 8.67091 16.3326Z" fill="#747F8A"/>
<path d="M21.4413 13.0119C22.9668 13.0946 23.9266 13.1854 23.9266 13.2798C23.9266 13.3836 22.7649 13.4831 20.9672 13.5717C21.3513 13.2827 21.4355 13.0307 21.4413 13.0119Z" fill="#747F8A"/>
<path d="M2.83158 13.9778C1.81801 13.9778 0.996124 13.6656 0.996124 13.2794C0.996124 12.8939 1.81801 12.5802 2.83158 12.5802C4.91026 12.5802 8.68063 12.631 12.4626 12.7145C11.9987 13.1059 11.5587 13.4928 11.1434 13.8726C7.82389 13.9394 4.66848 13.9778 2.83158 13.9778Z" fill="#747F8A"/>
<path d="M14.1346 11.3721C10.2677 11.4701 6.0784 11.5304 3.9293 11.5304C3.03045 11.5304 2.30295 11.2538 2.30295 10.9118C2.30295 10.5698 3.03045 10.2918 3.9293 10.2918C6.3013 10.2918 11.1644 10.3658 15.3334 10.4834C15.1257 10.6345 14.9166 10.7855 14.7046 10.9437C14.5115 11.0875 14.3212 11.2291 14.1346 11.3721Z" fill="#747F8A"/>
<path d="M5.75539 9.02551C5.05039 9.02551 4.47754 8.80842 4.47754 8.53906C4.47754 8.27042 5.05039 8.05188 5.75539 8.05188C8.4149 8.05188 15.0481 8.1695 18.417 8.33722C18.202 8.47807 17.9871 8.62401 17.77 8.77067C14.2589 8.92241 8.25517 9.02551 5.75539 9.02551Z" fill="#747F8A"/>
<path d="M2.03212 18.7855C0.935791 18.7855 0.0456543 18.4479 0.0456543 18.029C0.0456543 17.613 0.935791 17.2739 2.03212 17.2739C3.40654 17.2739 5.46343 17.2942 7.78969 17.3298C7.35261 17.8438 6.97289 18.3201 6.64762 18.747C4.79547 18.7717 3.17638 18.7855 2.03212 18.7855Z" fill="#747F8A"/>
<path d="M7.91937 6.64908C7.91937 6.45813 8.24537 6.30348 8.64833 6.30348C10.7161 6.30348 17.0139 6.45813 17.0139 6.64908C17.0139 6.83858 10.7168 6.99396 8.64833 6.99396C8.24537 6.99396 7.91937 6.83858 7.91937 6.64908Z" fill="#747F8A"/>
<path d="M24.8467 17.4698C24.8612 17.8466 24.859 18.2206 24.8401 18.5872C21.1765 18.7324 17.7023 18.9531 17.7023 19.2015C17.7023 19.4454 21.0988 19.6639 24.7203 19.8084C24.6564 20.2266 24.5744 20.6368 24.4742 21.0391C20.9042 21.185 17.5912 21.3999 17.5912 21.6417C17.5912 21.8748 20.6842 22.0846 24.109 22.2305C23.9522 22.6676 23.7743 23.0923 23.5746 23.4989C20.6334 23.6405 18.2026 23.8293 18.2026 24.0355C18.2026 24.2279 20.3263 24.4058 23.0032 24.543C22.8529 24.7877 22.6961 25.0273 22.532 25.2538C22.3578 25.5007 22.1683 25.7453 21.9679 25.9857C20.2943 26.1127 19.1457 26.2572 19.1457 26.4118C19.1457 26.5447 19.9683 26.6689 21.236 26.78C20.5441 27.4646 19.7266 28.1043 18.7631 28.6626C18.7631 28.6626 17.6283 27.6853 16.6917 26.544C15.8567 25.5261 14.0851 22.8426 13.6684 22.2421C13.2509 21.6417 12.9765 21.466 12.4886 21.6403C11.8344 21.8719 11.0742 21.988 10.8404 21.988C10.6066 21.988 10.4781 21.8973 10.8702 21.7419C11.2608 21.5843 12.8051 20.8554 13.5653 19.3488C14.4191 17.6521 13.6684 15.3091 13.6684 15.3091C13.3816 16.5615 12.7296 17.0291 12.7296 17.0291C12.9402 15.866 12.7107 14.8118 12.1364 14.0719L11.8162 15.5443C11.8162 15.5443 11.6159 15.5342 11.12 15.9509C10.6248 16.3684 10.4883 16.9768 10.4883 16.9768C10.8782 17.1337 11.3472 16.7423 11.3472 16.7423C10.7482 18.9836 9.88931 20.8082 9.26273 21.7731C8.63688 22.738 8.12066 23.1018 7.49335 23.3566C6.96406 23.5686 6.78981 23.3196 6.78981 23.3196C6.32731 22.9203 5.98172 22.5543 5.62159 22.1194C5.62159 22.1194 5.59255 22.0686 5.68984 22.0701C5.94759 22.0737 6.40645 21.633 6.50665 21.45C6.62136 21.2402 6.60902 21.0797 6.55166 21.0688C6.49503 21.0594 6.39702 21.2257 5.89967 21.5393C5.40523 21.8523 5.17798 21.6352 5.01317 21.4609C4.88538 21.3222 5.01099 21.1509 5.09085 21.0434C5.16636 20.9476 7.78232 16.0693 14.7045 10.9441C23.7757 4.22741 29.5689 2.41374 29.9007 2.28305C30.1199 2.19665 30.4779 2.08266 30.5592 2.16616C30.6492 2.26055 30.6935 2.33606 30.6812 2.44569C30.6696 2.5546 30.6115 2.6105 30.1918 2.79564C26.7097 4.32978 22.6445 6.88693 20.335 8.37533C17.4947 9.75918 14.7829 11.7355 14.6841 11.7827C14.4656 11.9185 14.6268 12.1159 14.7589 12.0332C19.5552 8.84291 25.1785 6.66984 31.3927 4.88957C31.6897 4.80535 31.8523 4.80535 31.9017 4.87069C31.9576 4.9433 31.9815 5.02607 31.9902 5.11755C31.9982 5.23154 31.9038 5.2918 31.649 5.39127C24.973 7.87145 20.0525 10.1752 16.8877 12.3047C16.8877 12.3047 16.5603 12.5022 16.5559 12.7309C16.5544 12.818 16.7316 12.8282 16.7316 12.8282C18.3158 12.8565 20.4337 12.9494 21.4415 13.0083C21.4415 13.0083 21.2977 13.5187 20.3328 13.9296C19.5879 14.2476 18.8981 14.1968 18.2156 14.2026C18.0639 14.1997 17.9354 14.3529 18.0566 14.5163C18.1176 14.5976 19.5697 16.9355 24.8467 17.4698Z" fill="#5C0632"/>
</svg>
