<svg width="32" height="32" viewBox="0 0 32 32" fill="none" xmlns="http://www.w3.org/2000/svg">
<path d="M10.8018 18.4027C11.3027 17.7223 11.8203 17.0389 12.3022 16.3469C12.3658 16.2214 12.4614 16.11 12.5132 15.9789L12.5055 15.9444C12.4169 15.9182 12.3034 16.008 12.2373 15.9176C12.2263 15.8858 12.242 15.8434 12.2778 15.8273C12.66 15.6888 13.06 15.5906 13.4673 15.5069C13.4977 15.4962 13.5198 15.5206 13.5331 15.5362C13.5476 15.6535 13.4037 15.7236 13.3397 15.8011C13.2712 15.8036 13.3115 15.88 13.2757 15.9093C13.2882 15.9685 13.2408 16.0096 13.2011 16.0421C13.1578 16.0616 13.1129 16.0766 13.0756 16.1091C13.1026 16.174 13.0322 16.2139 13.0358 16.2775C12.9904 16.336 12.9181 16.3572 12.8595 16.3987C12.8873 16.5288 12.7137 16.5621 12.6996 16.6912C12.6793 16.7438 12.6156 16.7929 12.6156 16.7929C12.6076 16.9975 12.5397 16.8807 12.48 17.0603C12.4279 17.1698 12.2989 17.1699 12.2326 17.2735C12.2136 17.2929 12.188 17.2903 12.1721 17.3168C12.2604 17.4256 12.1023 17.516 12.0572 17.6034C12.0268 17.6285 11.9867 17.6379 11.9683 17.6771C11.9936 17.8304 11.8324 17.8948 11.7818 18.0261C11.8749 18.058 11.9936 17.9536 12.069 18.0394C12.0825 18.0785 12.0523 18.1208 12.0165 18.1415C11.8465 18.2001 11.6943 18.3024 11.5047 18.3164C11.4199 18.3656 11.326 18.3957 11.2262 18.4103C11.1309 18.5329 10.9645 18.5488 10.8349 18.5978C10.7985 18.6057 10.7668 18.6003 10.7503 18.5717C10.7364 18.5022 10.778 18.4568 10.8018 18.4027Z" fill="#440101"/>
<path d="M13.2896 14.6789C13.2996 14.5747 13.4306 14.612 13.4479 14.5102C13.5063 14.4297 13.614 14.466 13.6858 14.4172C13.8175 14.4099 13.9426 14.3311 14.0675 14.3584C14.0937 14.3695 14.1145 14.401 14.0975 14.4288C14.0373 14.4891 13.9673 14.5496 13.8968 14.5995C13.9352 14.6384 13.9283 14.6746 13.9043 14.7185C13.8831 14.755 13.825 14.7412 13.84 14.7977C13.8089 14.8371 13.8143 14.9138 13.7461 14.9176C13.6766 15.0099 13.5325 14.9698 13.4312 14.9814C13.3254 14.9771 13.196 15.0541 13.1137 14.9682C13.0977 14.9482 13.1175 14.9289 13.1187 14.9088C13.1696 14.8197 13.323 14.8076 13.2896 14.6789Z" fill="#440101"/>
<path d="M27.2911 18.2639C27.7584 17.6076 28.2674 16.9625 28.68 16.2702C28.7585 16.1849 28.8126 16.0775 28.8704 15.9769C28.8804 15.9563 28.8559 15.949 28.8461 15.9343C28.7712 15.9263 28.6411 15.9765 28.5915 15.8888C28.5759 15.7562 28.7424 15.7882 28.82 15.7435C29.147 15.6776 29.4709 15.6057 29.7881 15.5162C29.8226 15.5086 29.8555 15.5124 29.8828 15.5357C29.8881 15.6356 29.7734 15.7091 29.7119 15.7769C29.5835 15.8303 29.6215 15.9881 29.5105 16.065C29.4161 16.1353 29.4091 16.2598 29.2917 16.3052C29.2703 16.3133 29.2426 16.3075 29.2265 16.3269C29.237 16.3616 29.2347 16.4057 29.2014 16.428C29.2445 16.6008 29.0532 16.6743 28.9634 16.7742C28.9656 16.9134 28.838 17.0098 28.7672 17.123C28.6771 17.1412 28.6345 17.2421 28.5444 17.2617C28.5358 17.2713 28.5205 17.2809 28.5269 17.2977C28.5542 17.3225 28.572 17.3571 28.5548 17.3928C28.4897 17.4621 28.4667 17.5586 28.3841 17.6095C28.2769 17.6714 28.3544 17.8331 28.2081 17.857C28.1441 17.8577 28.1397 17.933 28.1225 17.9686C28.1353 17.9833 28.1397 18.0033 28.1448 18.0227C28.2397 18.0311 28.341 17.933 28.4184 18.0211C28.4352 18.0886 28.3532 18.1056 28.3213 18.1324C28.2242 18.1684 28.133 18.2341 28.0173 18.2041C27.9456 18.275 27.8343 18.2766 27.7484 18.3257C27.5865 18.4099 27.4211 18.4825 27.2502 18.5433C27.2099 18.5549 27.1812 18.5502 27.1739 18.5175C27.1644 18.4125 27.2424 18.3323 27.2911 18.2639Z" fill="#440101"/>
<path d="M29.6881 14.7531C29.7994 14.5699 29.9861 14.4717 30.1969 14.4885C30.2855 14.4784 30.4032 14.477 30.4572 14.5645C30.4584 14.6171 30.4054 14.6342 30.379 14.6698C30.3571 14.6857 30.3278 14.6805 30.3062 14.6981C30.3303 14.7197 30.3347 14.7541 30.3227 14.7817C30.3136 14.7983 30.286 14.8008 30.2711 14.8142C30.2543 14.8304 30.2701 14.8508 30.2441 14.882C30.2288 14.9 30.178 14.8889 30.1489 14.9048C30.1177 14.922 30.0805 14.9704 30.0525 14.9803C30.0081 14.9958 29.9141 14.9885 29.8465 14.9886C29.7794 14.9886 29.717 14.9803 29.6532 14.9787C29.6141 14.963 29.613 14.9205 29.6024 14.8891C29.5968 14.8253 29.6528 14.7986 29.6881 14.7531Z" fill="#440101"/>
<path d="M3.96519 17.4967C3.8863 17.5487 3.81051 17.6007 3.8045 17.7145C3.72176 17.7464 3.6978 17.844 3.61516 17.878C3.66368 17.9893 3.57271 18.0717 3.50669 18.1359C3.40428 18.1788 3.30408 18.2289 3.19226 18.2522C3.09941 18.3329 3.25828 18.4662 3.13092 18.533C3.01909 18.5526 2.97777 18.6941 2.8475 18.6687C2.79711 18.6947 2.72448 18.6666 2.68726 18.718C2.57849 18.705 2.49629 18.7601 2.43229 18.8353C2.4072 18.8463 2.3855 18.861 2.3679 18.883C2.23236 18.8885 2.12733 19.0002 1.99322 18.971C1.93346 18.9537 1.85008 18.9533 1.80225 18.9991L1.60754 19.0362C1.50878 19.0734 1.40169 19.1745 1.29193 19.0945C1.27206 19.0786 1.27719 19.055 1.28591 19.0298C1.53851 18.7553 1.85309 18.4891 2.13113 18.225C2.75505 17.6031 3.34935 17.0324 3.95059 16.4236C4.09989 16.2723 4.24964 16.1185 4.40052 15.9613C4.34776 15.9403 4.27602 15.9702 4.22129 15.9455C4.16887 15.9445 4.0851 15.8968 4.05552 15.9661C4.0354 16.0026 3.98353 15.9852 3.94453 15.9935C3.84493 16.0409 3.79666 15.9495 3.7157 15.9652C3.58696 16.0625 3.43844 15.9 3.32834 16.0409C3.20365 16.0424 3.04557 16.106 2.94148 16.017C2.88715 16.0087 2.85337 16.0561 2.79899 16.0479C2.7306 16.0707 2.65713 16.1023 2.58475 16.0997C2.38338 16.1602 2.14119 16.169 1.91891 16.1503C1.90664 16.1936 1.90383 16.239 1.84959 16.247C1.71996 16.2794 1.60197 16.2321 1.48536 16.2934C1.39133 16.2947 1.29006 16.2852 1.22423 16.3567C1.13578 16.3524 1.06295 16.4398 0.981003 16.4013C0.865822 16.4319 0.811536 16.3027 0.700399 16.3746C0.670371 16.4236 0.615049 16.4661 0.553613 16.4671C0.528565 16.4888 0.487443 16.5021 0.45781 16.4788C0.303382 16.3997 0.1812 16.5893 0.0355974 16.4974C0.0131136 16.4471 0.068978 16.4229 0.0882076 16.3956C0.318174 16.2877 0.538328 16.1526 0.779437 16.0698C1.13099 15.8844 1.44853 15.7221 1.82079 15.5869C1.83208 15.5857 1.87947 15.5704 1.89076 15.5691C2.59353 15.4931 3.26129 15.5392 3.93856 15.5354C4.06612 15.5347 4.19372 15.5344 4.32251 15.5356C4.46974 15.5375 4.67279 15.5312 4.8463 15.5325C5.20352 15.2058 5.54265 14.8501 5.88252 14.4947C6.31169 14.046 6.74179 13.5985 7.2104 13.2131C7.38115 13.1403 7.57823 13.1444 7.76959 13.1514C7.78443 13.1709 7.80967 13.1634 7.82274 13.1867C7.84759 13.2948 7.72206 13.3597 7.6726 13.4453C7.54613 13.4453 7.56585 13.5678 7.48336 13.6323C7.43879 13.6527 7.42686 13.7069 7.40748 13.7472C7.27726 13.8806 7.15044 13.9835 7.02599 14.1261C6.98591 14.2313 6.77887 14.1601 6.83715 14.3202C6.76452 14.4277 6.65743 14.5248 6.54471 14.6096C6.4995 14.6031 6.47465 14.6431 6.44255 14.6653C6.42194 14.7449 6.40158 14.8518 6.30267 14.8749C6.27412 14.9078 6.2148 14.9322 6.22101 14.9898C6.16042 15.0413 6.01965 15.0504 6.05194 15.1709C6.00979 15.2405 5.95274 15.2902 5.89382 15.3371C5.82898 15.3888 5.76163 15.4367 5.70961 15.5026C5.70468 15.535 5.74047 15.5113 5.75112 15.5255C5.79979 15.5222 5.84796 15.5214 5.89638 15.5214C6.08986 15.5217 6.28506 15.5174 6.46646 15.5051C6.71117 15.4883 6.96338 15.4699 7.22717 15.419C7.25256 15.4163 7.26844 15.4269 7.27539 15.4452C7.2748 15.5579 7.12145 15.5736 7.04651 15.6452C6.96569 15.6734 6.9015 15.7339 6.82241 15.7619C6.84815 15.7835 6.83769 15.8271 6.83976 15.8505C6.73923 15.9005 6.65353 15.9649 6.57543 16.0561C6.49802 16.0955 6.41637 16.0729 6.34892 16.0304C6.21179 16.0415 6.0976 15.9978 5.97256 15.9814C5.94657 15.9743 5.92429 15.9712 5.90244 15.9706C5.86221 15.9692 5.824 15.9753 5.7702 15.9734C5.60577 15.9612 5.45548 15.9505 5.28769 15.9673C5.15131 16.0396 5.07404 16.2069 4.91538 16.2288C4.92119 16.2667 4.9632 16.2821 4.94728 16.3167C4.93525 16.373 4.84832 16.3507 4.853 16.4194C4.8209 16.4525 4.78313 16.4725 4.74734 16.4987L4.74892 16.6176C4.68373 16.743 4.50179 16.7801 4.46052 16.9252C4.42556 17.014 4.25506 16.955 4.29101 17.0828C4.22701 17.1506 4.20827 17.2337 4.13845 17.2998C4.11543 17.399 4.03915 17.4478 3.96519 17.4967Z" fill="#440101"/>
<path d="M7.57212 15.2791C8.04867 14.6931 8.44933 14.0625 8.94161 13.4825C9.11196 13.2705 9.32226 12.9831 9.64778 13.0182C9.73387 13.0272 9.93396 12.9883 9.92005 13.1709C9.90289 13.238 9.81636 13.2517 9.7847 13.3029C9.70394 13.3583 9.63831 13.4441 9.543 13.4614C9.54493 13.4886 9.58112 13.5024 9.59053 13.526C9.60745 13.5781 9.59009 13.629 9.56371 13.669C9.44488 13.6996 9.50277 13.8342 9.38744 13.8683C9.27606 13.9134 9.35889 14.0205 9.27113 14.0795C9.21368 14.1021 9.2164 14.1778 9.17158 14.2054C9.11763 14.2314 9.05462 14.2343 9.00453 14.2674C9.03539 14.2961 9.02376 14.3502 9.01868 14.3865C8.98549 14.4718 8.85005 14.4755 8.84817 14.5857C8.75469 14.6323 8.74552 14.7553 8.66668 14.8141C8.61821 14.8311 8.53552 14.8503 8.56175 14.9275C8.47492 15.0589 8.37384 15.1849 8.28149 15.3125C8.23347 15.3654 8.12485 15.3506 8.1279 15.4464C8.13283 15.5279 8.03003 15.5508 8.03466 15.6319C7.99759 15.6905 7.87097 15.6812 7.91184 15.7712C7.87935 15.8996 7.66289 15.9281 7.70106 16.083C7.67325 16.1485 7.59224 16.1763 7.5913 16.2524C7.50822 16.3672 7.41394 16.4673 7.35759 16.5826C7.26459 16.6615 7.23008 16.794 7.12249 16.8657C7.10755 16.9473 7.01594 16.9973 6.98261 17.0699C6.94928 17.1211 6.88616 17.14 6.84702 17.1783C6.86181 17.1927 6.88508 17.1997 6.8943 17.2141C6.91575 17.3168 6.74934 17.3135 6.79086 17.4248C6.74175 17.5522 6.62159 17.6244 6.55088 17.7372C6.53145 17.7555 6.50246 17.7647 6.49201 17.7923C6.49817 17.839 6.47529 17.8809 6.43397 17.9049C6.40005 17.929 6.35853 17.9313 6.33393 17.9731C6.33802 18.0146 6.37466 18.0503 6.35336 18.0974C6.33502 18.1972 6.20662 18.1897 6.18798 18.2895C6.14533 18.3299 6.15904 18.3983 6.10155 18.428C5.98109 18.4712 5.88302 18.5682 5.74003 18.5574C5.59049 18.5851 5.4261 18.5944 5.28133 18.5584C5.25762 18.5477 5.24105 18.5247 5.23883 18.4995C5.30485 18.3032 5.44898 18.1389 5.55873 17.9584C6.20046 17.0607 6.89844 16.184 7.56024 15.2936L7.57212 15.2791Z" fill="#440101"/>
<path fill-rule="evenodd" clip-rule="evenodd" d="M9.8374 15.4773C9.68751 15.4769 9.54013 15.4899 9.39438 15.51C9.2596 15.5288 9.12675 15.5531 8.99482 15.5772C8.9841 15.5792 8.97337 15.5812 8.96265 15.5831C8.62367 15.6366 8.31669 15.7852 8.10073 16.1026C7.99375 16.2358 7.90189 16.3695 7.80915 16.5045C7.75569 16.5823 7.70195 16.6605 7.64484 16.7394C7.45205 17.0274 7.26621 17.3175 7.16237 17.6401C7.08447 17.9051 7.09443 18.2429 7.32839 18.4239C7.42483 18.5298 7.56856 18.5575 7.71002 18.5499C7.77856 18.5457 7.84606 18.5333 7.90774 18.5172C7.94743 18.4948 7.98874 18.475 8.03017 18.4551C8.14945 18.3979 8.26973 18.3402 8.3553 18.2184C8.3814 18.2078 8.40848 18.2112 8.43525 18.2144C8.46562 18.2182 8.49559 18.2219 8.52328 18.2051C8.5596 18.1435 8.62244 18.104 8.68469 18.0649C8.77322 18.0092 8.86053 17.9543 8.86858 17.8376C8.88646 17.822 8.8907 17.8011 8.89492 17.7803C8.8987 17.7617 8.90246 17.7431 8.91596 17.7284C9.02128 17.6401 9.1227 17.5304 9.20771 17.4082C9.17188 17.3033 9.24471 17.2575 9.31834 17.2112C9.36448 17.1822 9.41094 17.1529 9.43117 17.1089C9.43824 17.0594 9.47209 17.0294 9.50485 17.0003C9.54292 16.9666 9.5795 16.9341 9.5708 16.8741C9.62171 16.8278 9.65722 16.7704 9.69237 16.7136C9.72147 16.6666 9.75032 16.62 9.78746 16.5804C9.78844 16.571 9.78755 16.5595 9.78661 16.5472C9.78462 16.5211 9.78236 16.4915 9.79692 16.4717C9.86699 16.4509 9.90239 16.3744 9.9265 16.3144C9.9443 16.2815 9.91649 16.2422 9.88908 16.2137C9.98375 16.1686 10.0234 16.0724 10.0604 15.9825C10.0676 15.965 10.0747 15.9478 10.0821 15.9312C10.0873 15.9151 10.0933 15.899 10.0992 15.8828C10.1228 15.8187 10.1469 15.7532 10.133 15.6813C10.0932 15.5554 9.9586 15.4884 9.8374 15.4773ZM7.99767 18.0985C7.9214 18.1759 7.83353 18.2598 7.73152 18.2871C7.68142 18.3003 7.62763 18.2999 7.57004 18.2777C7.52073 18.2388 7.50372 18.1794 7.5156 18.123C7.54151 18.0979 7.55005 18.0658 7.55868 18.0335C7.56251 18.0191 7.56636 18.0046 7.57176 17.9907C7.59052 17.9476 7.6231 17.9134 7.65539 17.8795C7.69535 17.8375 7.73487 17.796 7.7472 17.7389C7.83141 17.6839 7.84103 17.6039 7.83979 17.517C7.84323 17.5123 7.84709 17.5076 7.85104 17.5027C7.87162 17.4773 7.89477 17.4487 7.87446 17.4159L7.84359 17.3853C7.90504 17.3526 7.93962 17.299 7.9736 17.2462C7.99915 17.2066 8.02436 17.1675 8.06039 17.1382C8.04052 17.0654 8.09535 17.0347 8.14773 17.0053C8.17035 16.9926 8.19252 16.9802 8.20802 16.9647C8.22109 16.9459 8.23393 16.9269 8.24679 16.9077C8.30368 16.8232 8.36114 16.7379 8.44262 16.6689C8.4508 16.6092 8.45909 16.553 8.52383 16.5249C8.53126 16.517 8.53934 16.5091 8.54756 16.5011C8.58862 16.4609 8.63311 16.4175 8.61721 16.3575C8.62789 16.3494 8.63807 16.342 8.64761 16.335C8.70278 16.2949 8.73654 16.2703 8.72174 16.2132C8.71611 16.2053 8.70939 16.1982 8.70276 16.1911C8.69012 16.1778 8.67781 16.1648 8.67406 16.1473C8.76211 16.147 8.79094 16.0858 8.82027 16.0237C8.84932 15.9621 8.87884 15.8995 8.96685 15.8939C9.06294 15.8642 9.16106 15.8447 9.26145 15.8374C9.34059 15.8317 9.42066 15.8339 9.50271 15.845C9.52293 15.8628 9.51602 15.899 9.50942 15.9226C9.35716 16.2824 9.13577 16.6195 8.91616 16.948C8.85677 17.0266 8.79826 17.1053 8.73986 17.1839C8.50679 17.4975 8.27552 17.8088 7.99767 18.0985Z" fill="#440101"/>
<path d="M10.7708 15.7515C11.0095 15.6725 11.2522 15.6016 11.4949 15.5309C11.5491 15.53 11.6117 15.4768 11.6613 15.5284C11.6696 15.6168 11.5728 15.6598 11.5323 15.7344C11.4733 15.8022 11.4107 15.848 11.3375 15.8978C11.3437 15.9556 11.3079 16.0085 11.2564 16.0345C11.1333 16.0434 11.1319 16.1843 11.0386 16.2473L11.0695 16.2575C11.5245 15.9675 11.9179 15.534 12.3783 15.2513C12.4143 15.2381 12.4535 15.2161 12.4972 15.2317C12.521 15.2457 12.5332 15.2882 12.513 15.3182C12.3826 15.4539 12.2686 15.5637 12.1458 15.7008C12.1171 15.7085 12.092 15.7248 12.0689 15.7435C12.0834 15.7683 12.0912 15.7956 12.0879 15.8282C12.0128 15.8707 12.054 15.9766 11.9581 15.996C11.9187 16.0092 11.87 16.0152 11.8471 16.0573C11.8699 16.1272 11.8146 16.186 11.7664 16.2299C11.6801 16.2544 11.592 16.2757 11.5223 16.3419C11.4395 16.3683 11.351 16.3801 11.2925 16.4638C11.2548 16.4754 11.2154 16.4958 11.1924 16.5302C11.1967 16.5811 11.1517 16.5978 11.1157 16.6145C11.024 16.6123 10.9559 16.6636 10.8783 16.6953C10.8499 16.7335 10.8673 16.7896 10.8205 16.8211L10.7858 16.8525C10.6803 16.9436 10.5497 17.0247 10.449 17.1188C10.4817 17.1544 10.4611 17.2033 10.4396 17.2383C10.329 17.3517 10.2916 17.5111 10.1516 17.5998C10.1129 17.6672 10.067 17.7419 9.98774 17.768C9.91294 17.8235 10.0436 17.8778 9.95406 17.9348C10.0754 17.9584 10.1894 17.8432 10.281 17.9431C10.2924 17.9735 10.2693 17.9956 10.2476 18.0086C10.1008 18.0919 9.94036 18.1482 9.78608 18.2118C9.64087 18.152 9.69382 18.3233 9.59649 18.3515C9.47288 18.4292 9.30642 18.4097 9.19415 18.5176C9.15086 18.5401 9.08661 18.5736 9.05165 18.5541C8.96354 18.503 9.07867 18.3929 9.10096 18.3168C9.58939 17.5746 10.1016 16.8451 10.603 16.1103C10.6265 16.081 10.6494 16.05 10.6542 16.0136L10.6251 15.9961C10.5257 16.0028 10.3946 16.0463 10.3265 15.964C10.3098 15.9226 10.3691 15.902 10.3978 15.8854C10.5207 15.8375 10.6451 15.7934 10.7708 15.7515Z" fill="#440101"/>
<path fill-rule="evenodd" clip-rule="evenodd" d="M15.0483 18.4228L15.0483 18.4228C15.0259 18.4069 15.0036 18.3911 14.981 18.3767C14.8363 18.2583 14.7629 18.0983 14.7604 17.9131C14.7015 17.917 14.6573 17.9351 14.6138 17.9564L14.5643 17.9824C14.5342 18.0001 14.4972 17.9924 14.4624 17.9852C14.4128 17.9749 14.3679 17.9655 14.355 18.0329C14.3014 18.1467 14.1843 18.1631 14.0711 18.1613C14.0334 18.226 13.9728 18.243 13.9117 18.26C13.8513 18.2769 13.7904 18.2938 13.7509 18.3572C13.7044 18.3548 13.6684 18.3762 13.6324 18.3977C13.5976 18.4184 13.5628 18.4392 13.5186 18.4384L13.4958 18.4508C13.4025 18.5016 13.3089 18.5526 13.2229 18.6206C13.1947 18.629 13.1651 18.6249 13.1361 18.621H13.1361C13.0861 18.6141 13.0381 18.6075 13.003 18.6656C12.9386 18.6756 12.8845 18.7105 12.8308 18.7451L12.8142 18.7558C12.7397 18.8038 12.6633 18.8471 12.5576 18.8208C12.5354 18.8385 12.5336 18.8643 12.5318 18.89C12.5299 18.9159 12.5281 18.9417 12.5058 18.9594C12.4894 18.9647 12.4733 18.9734 12.4571 18.9821C12.4178 19.0034 12.378 19.025 12.3325 18.9976C12.2917 18.9724 12.2485 18.9693 12.2043 18.9661C12.1693 18.9635 12.1337 18.9609 12.0982 18.9473C12.0901 18.948 12.081 18.9479 12.0717 18.9478H12.0717C12.0367 18.9475 11.998 18.9472 11.9918 18.9909C12.0074 19.0615 11.9517 19.1159 11.9042 19.1528C11.8827 19.1556 11.8595 19.1569 11.8358 19.1582C11.7634 19.1621 11.6853 19.1663 11.6314 19.2161L11.5838 19.2527C11.549 19.2594 11.5147 19.2564 11.4821 19.2535C11.4229 19.2482 11.3693 19.2435 11.3282 19.2983C11.3266 19.3814 11.2522 19.4269 11.1894 19.4653L11.187 19.4668C11.1291 19.4793 11.0613 19.4773 11.013 19.4458C10.9044 19.3634 10.9751 19.219 11.0565 19.1454C11.2226 18.9897 11.4073 18.8236 11.5937 18.6905C11.7518 18.5519 11.9118 18.4185 12.0716 18.2852L12.0717 18.2852C12.1665 18.2061 12.2613 18.1271 12.3556 18.047C12.3556 18.047 12.8096 17.6385 12.7988 17.6385C12.8095 17.6385 13.305 17.1923 13.305 17.1923C13.4685 17.0554 13.6169 16.9126 13.7656 16.7696L13.7656 16.7696C13.9189 16.622 14.0726 16.4742 14.2436 16.3321C14.2973 16.2692 14.3593 16.2174 14.4215 16.1656L14.4215 16.1656C14.4787 16.1178 14.5361 16.0699 14.5874 16.013L14.6195 15.9749L14.5868 15.9627C14.507 15.9605 14.4267 15.9647 14.3472 15.9689C14.23 15.9751 14.1147 15.9812 14.0053 15.9661C13.9856 15.9736 13.9635 15.9755 13.9413 15.9774C13.8967 15.9812 13.8519 15.985 13.8266 16.0337C13.8038 16.0455 13.7761 16.0461 13.7482 16.0466C13.7017 16.0476 13.6549 16.0486 13.6301 16.1013L13.6136 16.1124C13.5589 16.1492 13.4971 16.1909 13.4282 16.1578C13.389 16.135 13.4057 16.1014 13.4208 16.0711C13.4254 16.0618 13.4299 16.0528 13.4325 16.0445C13.4655 16.0009 13.5014 15.9591 13.5374 15.9171L13.5374 15.9171C13.5918 15.8537 13.6465 15.7901 13.6915 15.7197C13.784 15.6375 13.9013 15.6343 14.0217 15.6311C14.0804 15.6295 14.1398 15.6279 14.1975 15.6172C14.3264 15.6087 14.4543 15.5991 14.5818 15.5884C14.738 15.5757 14.8934 15.5619 15.0492 15.548C15.3291 15.523 15.61 15.4979 15.8979 15.4795C15.9027 15.4826 15.908 15.4856 15.9135 15.4886L15.9135 15.4887C15.9364 15.5015 15.9624 15.5162 15.964 15.5454C15.9519 15.5977 15.9034 15.6385 15.8596 15.6754C15.8487 15.6846 15.8382 15.6935 15.8285 15.7023C15.7969 15.7395 15.7541 15.7628 15.7124 15.7855C15.6524 15.8182 15.5946 15.8497 15.575 15.9198C15.5169 15.9697 15.4443 15.9879 15.372 16.006L15.372 16.006C15.3481 16.012 15.3243 16.018 15.301 16.0251C15.2685 16.0455 15.2713 16.0786 15.274 16.1096C15.2773 16.1484 15.2804 16.184 15.2136 16.1873C15.1489 16.2272 15.0741 16.2701 15.0009 16.3043C14.9832 16.3519 14.9464 16.3795 14.9102 16.4067C14.8688 16.4378 14.8283 16.4682 14.8184 16.5271C14.7877 16.576 14.7396 16.5845 14.6914 16.593C14.6576 16.599 14.6237 16.605 14.5957 16.625C14.5861 16.6317 14.5773 16.6403 14.5691 16.6509C14.5575 16.6496 14.5475 16.6524 14.5405 16.6629C14.5756 16.7043 14.5474 16.728 14.5188 16.7521C14.5029 16.7654 14.4869 16.7788 14.4815 16.7955C14.4701 16.817 14.4511 16.8223 14.432 16.8275C14.4228 16.83 14.4136 16.8326 14.4052 16.8369C14.3563 16.9695 14.2306 17.0074 14.1093 17.0323C14.0742 17.0354 14.0785 17.0533 14.0834 17.0736C14.087 17.0884 14.0908 17.1044 14.08 17.1169C14.0376 17.1567 13.9949 17.1926 13.9527 17.2281L13.9527 17.2281C13.8783 17.2906 13.8053 17.3519 13.7381 17.4314C13.6913 17.4537 13.6532 17.4871 13.6147 17.5208C13.5812 17.5502 13.5473 17.5799 13.5071 17.6027C13.533 17.6509 13.4783 17.6896 13.4423 17.715L13.4321 17.7224C13.4037 17.7288 13.3851 17.75 13.3667 17.771C13.3455 17.795 13.3246 17.8187 13.2896 17.8199C13.2429 17.8886 13.1771 17.9418 13.0949 17.9542C13.0832 17.9627 13.0694 17.9688 13.0559 17.9748C13.0194 17.991 12.9852 18.0061 13.0008 18.0631C12.9839 18.0862 12.9586 18.0976 12.933 18.1091C12.902 18.123 12.8706 18.1371 12.8529 18.1724C12.8308 18.1692 12.8165 18.174 12.8063 18.1832C12.7952 18.1931 12.7887 18.2081 12.7819 18.2237C12.7717 18.2469 12.7611 18.2712 12.7341 18.2811C12.7196 18.2845 12.7061 18.2941 12.6928 18.3038L12.681 18.3121L12.8075 18.2751L12.9869 18.1985C13.454 17.9991 13.9208 17.7998 14.3789 17.5779C14.4569 17.5511 14.5325 17.5197 14.6075 17.4866C14.6649 17.4614 14.7218 17.435 14.7787 17.4086L14.7787 17.4086L14.8241 17.3876C14.8548 17.3774 14.8877 17.3606 14.8877 17.3606C14.9046 17.3336 14.9233 17.2966 14.943 17.2574L14.943 17.2574C14.9702 17.2034 14.9994 17.1452 15.029 17.1038L15.0769 17.0255L15.0769 17.0255C15.3315 16.6092 15.5904 16.186 15.9795 15.8494C16.2187 15.6986 16.4921 15.6519 16.7686 15.6046L16.8139 15.5968C16.9346 15.5759 17.0559 15.5539 17.1748 15.5215C17.2219 15.5197 17.274 15.5129 17.328 15.5059C17.5277 15.4801 17.7528 15.4509 17.8401 15.6561C17.865 15.7995 17.7822 15.9297 17.7031 16.054L17.7031 16.054C17.6866 16.0799 17.6703 16.1055 17.6551 16.131C17.7294 16.1162 17.8016 16.081 17.8738 16.0459L17.8738 16.0459C17.9155 16.0255 17.9573 16.0052 17.9995 15.9888C18.0212 15.9832 18.0429 15.9713 18.0646 15.9595C18.1114 15.9338 18.1585 15.9081 18.2075 15.9446C18.268 16.034 18.1067 16.1304 18.0137 16.1796C18.0122 16.1929 18.0122 16.2051 18.0123 16.217V16.217C18.0123 16.2455 18.0124 16.2717 17.9911 16.3037C17.9681 16.3388 17.9392 16.3455 17.9003 16.3493C17.8798 16.3725 17.8453 16.3912 17.8086 16.4113C17.7737 16.4303 17.7368 16.4504 17.7076 16.4765C17.7073 16.4921 17.7077 16.507 17.7081 16.5213C17.7095 16.5737 17.7108 16.6186 17.6739 16.6625C17.6619 16.6726 17.6444 16.6738 17.6271 16.6751C17.5992 16.6771 17.5717 16.679 17.5677 16.7174C17.5628 16.7897 17.4719 16.8119 17.3861 16.8328C17.3604 16.8391 17.3351 16.8452 17.3128 16.8526C17.2739 16.9502 17.2331 17.0481 17.1671 17.1343C17.1049 17.1536 17.0912 17.2055 17.078 17.2552C17.0632 17.3111 17.0492 17.364 16.9678 17.3644C16.931 17.4186 16.8925 17.4712 16.814 17.468C16.8055 17.4714 16.7985 17.4781 16.7913 17.485L16.7843 17.4916C16.7868 17.4952 16.79 17.4989 16.7933 17.5028C16.8088 17.5211 16.8273 17.5429 16.8022 17.5636C16.7611 17.6047 16.7247 17.6482 16.689 17.6908C16.606 17.79 16.527 17.8844 16.402 17.9326L16.3933 17.9339C16.3532 17.9398 16.308 17.9464 16.2896 17.9762C16.2937 17.9833 16.3 17.9882 16.3058 17.9926C16.3165 18.0009 16.3252 18.0076 16.3131 18.0239C16.2172 18.1095 16.1299 18.1728 16.0238 18.2494C15.9423 18.2405 15.8909 18.2902 15.8384 18.341C15.7918 18.386 15.7444 18.4319 15.6744 18.4383L15.652 18.4499C15.5636 18.496 15.4711 18.5442 15.3657 18.5323C15.2828 18.5497 15.2122 18.5256 15.1462 18.4877C15.1128 18.4684 15.0805 18.4455 15.0483 18.4228ZM15.8683 17.4619C15.8108 17.4891 15.7509 17.5092 15.6806 17.5065C15.6216 17.6035 15.5235 17.6202 15.4259 17.6369C15.3807 17.6446 15.3356 17.6523 15.2946 17.6679L15.2562 17.6795C15.1872 17.8121 15.118 18.0008 15.2168 18.1402C15.2446 18.1669 15.2797 18.1822 15.3175 18.1885C15.3614 18.1958 15.4085 18.191 15.4507 18.1789C15.8466 17.998 16.2164 17.5976 16.4522 17.2393C16.4335 17.233 16.4153 17.2427 16.3971 17.2525C16.3881 17.2573 16.3791 17.2622 16.3699 17.2651C16.337 17.278 16.311 17.2698 16.284 17.2614C16.2637 17.255 16.2428 17.2485 16.218 17.2507C16.2065 17.3174 16.1543 17.333 16.1031 17.3483C16.0742 17.3569 16.0457 17.3654 16.025 17.383C15.9957 17.3959 15.9673 17.411 15.9389 17.426L15.9389 17.426C15.9155 17.4384 15.8921 17.4507 15.8683 17.4619ZM16.4606 16.0632C16.5426 15.9418 16.6628 15.902 16.7916 15.882C16.8318 15.8756 16.8728 15.8711 16.9137 15.8666C16.9653 15.861 17.0168 15.8554 17.0664 15.846C17.0751 15.8461 17.0849 15.8458 17.0954 15.8455C17.1515 15.8437 17.227 15.8413 17.2526 15.9032C17.2396 15.9738 17.2057 16.036 17.1719 16.098C17.1529 16.1327 17.134 16.1673 17.1189 16.2033C17.1034 16.2312 17.0871 16.259 17.0709 16.2867C17.0472 16.3273 17.0235 16.3677 17.0028 16.4078C16.9808 16.4532 16.9356 16.5133 16.9356 16.5133C16.8816 16.5402 16.8156 16.5662 16.7509 16.5917C16.7198 16.604 16.6889 16.6162 16.6598 16.6283C16.585 16.6591 16.5137 16.6872 16.4429 16.7151C16.4045 16.7303 16.3662 16.7454 16.3275 16.7608C16.2397 16.7955 16.1505 16.8321 16.053 16.8757C16.047 16.8783 16.0411 16.8809 16.0352 16.8836C15.9283 16.931 15.8216 16.9783 15.7027 16.9993C15.7085 16.9851 15.7224 16.9728 15.7363 16.9606C15.7596 16.9401 15.7828 16.9197 15.7665 16.891C15.7606 16.8801 15.7546 16.8737 15.7486 16.8672C15.7427 16.8608 15.7368 16.8545 15.7309 16.8439C15.7485 16.8198 15.7769 16.8092 15.805 16.7988C15.8181 16.7939 15.8311 16.789 15.843 16.7828C15.8556 16.7709 15.8683 16.7592 15.881 16.7475C15.9606 16.6742 16.0374 16.6036 16.0608 16.5045C16.0804 16.4875 16.0877 16.4616 16.0949 16.4364C16.1056 16.3985 16.1159 16.3622 16.1664 16.3597C16.1779 16.3481 16.1904 16.3367 16.2031 16.3251C16.2531 16.2795 16.3058 16.2313 16.3129 16.1605L16.2819 16.1323C16.3008 16.1245 16.3217 16.1188 16.3432 16.1129C16.384 16.1018 16.4266 16.0902 16.4606 16.0632Z" fill="#440101"/>
<path d="M18.6585 18.5175C18.5964 18.5325 18.5127 18.5477 18.4638 18.4956C18.3539 18.3327 18.4596 18.0598 18.5512 17.8806L18.6475 17.706C18.9316 17.1913 19.2161 16.6775 19.5567 16.1845C19.5695 16.1557 19.5735 16.1396 19.5722 16.1224C19.5433 16.108 19.5278 16.1123 19.5186 16.1172C19.4295 16.1605 19.3488 16.2252 19.2445 16.2356C19.2081 16.317 19.1047 16.269 19.0619 16.3508C19.019 16.3457 18.9826 16.3578 18.9539 16.3886C18.9447 16.4552 18.8626 16.4796 18.8123 16.5151C18.752 16.5229 18.6869 16.5203 18.6317 16.5407C18.6177 16.5456 18.6047 16.5519 18.5926 16.5602C18.5759 16.5879 18.6152 16.6133 18.5938 16.6441C18.5528 16.7053 18.475 16.7456 18.4643 16.8242C18.4016 16.8828 18.2456 16.924 18.2892 17.0366C18.2339 17.2444 18.0092 17.3386 17.967 17.5537C17.9164 17.6239 17.8242 17.5962 17.7715 17.6636L17.7904 17.7531C17.7837 17.8011 17.8121 17.8791 17.7694 17.9198C17.6499 17.9883 17.5782 18.124 17.5772 18.2516C17.5632 18.3066 17.5188 18.355 17.4656 18.3718C17.2619 18.4484 17.0564 18.5526 16.8346 18.5486C16.803 18.5421 16.8027 18.513 16.8015 18.4921C16.8304 18.3846 16.8821 18.3016 16.9432 18.2063C17.1587 17.8703 17.3378 17.5189 17.5682 17.1882C17.8889 16.6984 18.1897 16.199 18.5218 15.7133C18.5536 15.6958 18.5867 15.6789 18.6198 15.6631C18.8256 15.565 19.0511 15.5047 19.2885 15.5001C19.3132 15.5144 19.3205 15.5447 19.3018 15.5651C19.2533 15.6079 19.2194 15.6519 19.16 15.6685C19.1554 15.7448 19.044 15.837 18.983 15.8377C19.0792 15.8873 18.9091 16.0142 18.8879 16.0718C18.8815 16.0862 18.8637 16.1161 18.8564 16.1306L18.9026 16.1081C19.1193 16.0022 19.3345 15.8906 19.5515 15.7836C19.7496 15.6862 19.9496 15.5926 20.1546 15.5116C20.2349 15.4875 20.417 15.442 20.4779 15.5187C20.5166 15.578 20.4706 15.7131 20.4279 15.7948C20.38 15.8839 20.3113 15.9674 20.2209 16.0178C20.2174 16.0627 20.2425 16.103 20.217 16.1495C20.1398 16.2057 20.145 16.2957 20.0527 16.3317C19.9575 16.3689 20.027 16.4609 19.9655 16.5166C19.9198 16.584 19.8751 16.6701 19.7824 16.6814C19.7621 16.6978 19.7424 16.7227 19.76 16.7469C19.7788 16.7624 19.7738 16.7991 19.7669 16.8191C19.6385 16.8574 19.7042 17.0043 19.5962 17.0665C19.5876 17.0828 19.5788 17.0991 19.5694 17.1147C19.5248 17.19 19.4698 17.26 19.416 17.3312C19.3999 17.3373 19.3784 17.3418 19.3742 17.3606C19.3759 17.3868 19.3995 17.414 19.3696 17.4331C19.3394 17.4583 19.3196 17.5021 19.2746 17.4881C19.2461 17.5206 19.3087 17.5442 19.2876 17.5894C19.2652 17.6606 19.1486 17.7013 19.1829 17.7879C19.1581 17.8575 19.0294 17.9327 19.0597 17.9923C19.1285 18.0652 19.2216 17.967 19.3038 17.9602C19.3989 17.9296 19.4859 17.8735 19.5793 17.8394C19.6297 17.821 19.6817 17.8091 19.7382 17.811C19.7644 17.825 19.7923 17.8508 19.7811 17.8868C19.722 17.9507 19.6541 18.0036 19.5822 18.0489C19.4715 18.1173 19.3503 18.1681 19.2309 18.2119C19.1053 18.1922 19.0633 18.2953 19.0051 18.3337C18.8931 18.3899 18.7809 18.4877 18.6585 18.5175Z" fill="#440101"/>
<path d="M22.4266 16.1175C22.2621 16.2439 21.9926 16.1271 21.8069 16.184C21.8177 16.1974 21.8408 16.2139 21.8238 16.2334C21.7541 16.2979 21.6278 16.2171 21.5717 16.3177C21.5069 16.3323 21.4352 16.3536 21.3633 16.3363C21.3264 16.3271 21.2639 16.3284 21.2448 16.3303C21.1915 16.335 21.001 16.4047 20.8633 16.4073C20.8155 16.4095 20.7477 16.4528 20.7143 16.4221C20.6854 16.402 20.677 16.3692 20.6908 16.3383C20.7151 16.2851 20.9289 16.183 21.0967 16.0953C21.1302 16.0775 21.1623 16.0603 21.1902 16.0443C21.642 15.8507 22.0579 15.5628 22.5661 15.5141C23.2915 15.4298 24.0854 15.4937 24.8159 15.5045C24.9883 15.5071 25.1645 15.5103 25.3449 15.5003C25.4353 15.4626 25.5094 15.3971 25.5984 15.3391C25.9102 15.1362 26.2235 14.9373 26.5398 14.7475C27.1791 14.3642 27.8312 14.0173 28.5149 13.746C28.9005 13.5825 29.3086 13.4714 29.7166 13.3617C29.7459 13.3607 29.7785 13.3614 29.788 13.3926C29.7839 13.5137 29.6207 13.5176 29.6232 13.64C29.6213 13.6829 29.604 13.7325 29.5789 13.7526C29.5409 13.7796 29.4932 13.7822 29.4597 13.821C29.5186 13.9366 29.3125 13.9134 29.3726 14.0291C29.3607 14.0632 29.323 14.0806 29.2947 14.0981C29.2243 14.1182 29.1611 14.0535 29.092 14.0879C28.9575 14.1824 28.7813 14.1697 28.6139 14.1814C28.604 14.1944 28.5729 14.1906 28.584 14.2172C28.5983 14.2336 28.6094 14.2568 28.5942 14.2762C28.5324 14.3572 28.4106 14.3093 28.3369 14.3736C28.2662 14.4035 28.1834 14.4757 28.1056 14.4121C27.9942 14.4201 27.9207 14.5221 27.8173 14.5498C27.7769 14.6048 27.6332 14.5663 27.6792 14.6782C27.6427 14.7008 27.6071 14.7332 27.5708 14.7649C27.4945 14.8318 27.4152 14.8963 27.3189 14.8623C27.2842 14.8798 27.3068 14.8979 27.3 14.9274C27.2109 15.0471 27.0655 15.0218 26.9756 15.1364C26.8644 15.1983 26.7556 15.2686 26.6493 15.3436C26.5945 15.3742 26.5067 15.3578 26.487 15.4375C26.4297 15.4647 26.3602 15.4944 26.32 15.5412C26.6158 15.5888 26.9034 15.5199 27.1774 15.4902C27.2921 15.4727 27.5043 15.4285 27.5348 15.4668C27.5644 15.5051 27.4856 15.5494 27.4559 15.5719C27.3456 15.6042 27.267 15.7142 27.1486 15.7271C27.1385 15.7647 27.1248 15.8003 27.0946 15.8277C27.0663 15.8585 26.9916 15.8309 27.0033 15.8982C26.9684 15.9301 26.8887 15.8977 26.8891 15.9666C26.7635 16.043 26.6094 16.0503 26.4727 15.9892C26.3183 15.9423 26.1333 15.949 25.9748 15.9283L25.6357 15.9342C25.5241 15.9985 25.4249 16.0934 25.3167 16.1662C25.2349 16.2212 25.1483 16.2638 25.0471 16.2699C25.0293 16.2694 25.0221 16.2938 25.0332 16.3039C25.066 16.3208 25.0621 16.3549 25.0453 16.3828C24.9922 16.4357 24.926 16.4577 24.8522 16.4629C24.8366 16.5198 24.7746 16.4862 24.7449 16.52C24.7606 16.6611 24.5963 16.7123 24.5147 16.7895C24.3498 16.8488 24.2481 17.0324 24.0758 17.0737C24.0604 17.1488 23.9724 17.1603 23.9312 17.2084C23.8724 17.3095 23.6343 17.2283 23.6998 17.4176C23.646 17.5052 23.5215 17.5046 23.4594 17.5986C23.4255 17.6814 23.3192 17.6651 23.2849 17.7495C23.2037 17.8219 23.0841 17.8233 22.9915 17.8758C22.9224 17.8957 22.8468 17.9127 22.7999 17.974C22.8375 18.0596 22.7405 18.1023 22.7308 18.1759C22.6267 18.3622 22.4192 18.3374 22.2622 18.4165C22.2648 18.4595 22.29 18.5054 22.2549 18.5474C22.1868 18.6037 22.1003 18.609 22.0145 18.6205C21.8785 18.6265 21.7642 18.7228 21.6272 18.6911C21.5941 18.7022 21.5533 18.6929 21.5253 18.7204C21.5105 18.8213 21.3847 18.7981 21.3211 18.8594C21.1771 18.8684 21.0265 18.9574 20.8869 18.8879C20.7319 18.8772 20.6064 19.0193 20.4632 18.9628C20.3841 18.8896 20.4791 18.811 20.5373 18.7561C20.744 18.6074 20.9616 18.4554 21.175 18.3151C21.9525 17.755 22.7367 17.2656 23.5171 16.7004C23.7865 16.5159 24.0573 16.3342 24.3276 16.1495C24.4449 16.0692 24.5617 15.9887 24.6784 15.9067C24.4745 15.8508 24.2881 15.9474 24.0888 15.9016C24.0615 15.8964 24.0264 15.907 24.0002 15.9181C23.9163 15.9298 23.8272 15.8873 23.7613 15.9254C23.638 15.9331 23.4966 15.9849 23.3815 15.9191C23.3384 15.9202 23.3039 15.949 23.279 15.9779C23.2359 15.9902 23.14 15.966 23.1175 16.0409C23.0991 16.0712 23.0754 16.1055 23.0392 16.1165C22.8279 16.1359 22.6729 15.9873 22.4683 16.0771C22.4554 16.0927 22.4414 16.1062 22.4266 16.1175Z" fill="#440101"/>
<path d="M26.953 16.5031C26.9822 16.4589 27.0238 16.42 27.0497 16.3738C27.4084 15.8706 27.8148 15.3553 28.1754 14.8521C28.365 14.6573 28.5453 14.3656 28.8374 14.3345C28.9864 14.3272 29.137 14.2298 29.2843 14.3125C29.2698 14.4105 29.1763 14.5054 29.0907 14.5419C29.0643 14.5511 29.0788 14.5791 29.0652 14.5937C29.0385 14.6228 29.0025 14.6284 28.9756 14.6577C29.0376 14.7895 28.868 14.8292 28.8336 14.9237C28.7808 14.9638 28.7018 14.9921 28.7005 15.0706C28.6038 15.1753 28.472 15.2141 28.3578 15.2907C28.3586 15.3333 28.4281 15.3003 28.4108 15.3569C28.3905 15.3913 28.3447 15.3804 28.3325 15.4196C28.3318 15.48 28.413 15.5224 28.3641 15.5873C28.2929 15.6432 28.1821 15.7085 28.1707 15.8097C28.1217 15.8811 28.0927 15.9591 28.0243 16.0218C27.947 16.1532 27.8531 16.2725 27.7451 16.3807C27.7139 16.3864 27.6778 16.3909 27.6608 16.4201C27.6725 16.4541 27.6577 16.4841 27.646 16.5149C27.6378 16.5378 27.6314 16.5613 27.6401 16.5868C27.5453 16.6784 27.4412 16.7357 27.3381 16.8257C27.3951 16.8592 27.3559 16.9241 27.3667 16.9752C27.3305 17.0776 27.2178 17.1477 27.1835 17.2505C27.1062 17.3817 26.9656 17.4597 26.8446 17.5361C26.8463 17.5494 26.825 17.5503 26.833 17.5652C26.8393 17.5771 26.8526 17.5708 26.8622 17.5725C26.8838 17.55 26.9116 17.5469 26.9395 17.5555C26.999 17.6026 26.9007 17.6353 26.8899 17.6794C26.879 17.7572 26.7995 17.8072 26.762 17.8736C26.7019 17.9547 26.5892 18.0311 26.5969 18.1508C26.636 18.1812 26.6952 18.1491 26.74 18.1353C26.8132 18.1332 26.8914 18.0673 26.9592 18.1275C26.9766 18.1507 26.9748 18.1736 26.9645 18.1978C26.8169 18.3151 26.6332 18.3415 26.4792 18.4402C26.3436 18.5002 26.1851 18.4994 26.0608 18.5823C25.9148 18.6075 25.7812 18.6594 25.6478 18.7111C25.6017 18.7184 25.5362 18.7258 25.5107 18.6796C25.5042 18.5665 25.5796 18.4872 25.6235 18.3965C26.0402 17.7797 26.4667 17.1352 26.9337 16.5388C26.9389 16.5264 26.9455 16.5146 26.953 16.5031Z" fill="#440101"/>
<path d="M29.6676 16.8943C29.8388 16.6399 30.0037 16.3828 30.1643 16.1232C30.168 16.1022 30.1814 16.0844 30.1767 16.0583C30.1102 16.0177 30.0115 16.0584 29.945 16.0181C29.9358 16.0047 29.9177 15.9932 29.941 15.9658C29.9718 15.9245 30.3726 15.7876 30.5915 15.7037C30.7547 15.641 30.907 15.5777 31.0715 15.5262C31.1045 15.5158 31.1405 15.5208 31.1485 15.557C31.1384 15.6436 31.0769 15.7063 31.0263 15.7746C30.9242 15.8334 30.9007 15.9474 30.8015 16.0033C30.776 16.073 30.7423 16.1232 30.6742 16.1681C30.6455 16.2363 30.5409 16.3189 30.5409 16.3377C30.5416 16.3759 30.5973 16.3361 30.6179 16.3209C31.0489 15.9942 31.4581 15.6114 31.8912 15.2895C31.9188 15.2802 31.9504 15.2628 31.9795 15.2796C32.0054 15.2898 31.9983 15.3226 31.9915 15.3388C31.8824 15.4989 31.7213 15.6486 31.5623 15.7606C31.571 15.8129 31.5472 15.8717 31.4991 15.902C31.4593 15.9357 31.3957 15.9246 31.3668 15.9766C31.3794 16.0113 31.3919 16.0523 31.3784 16.0896C31.3447 16.1401 31.2831 16.2012 31.2329 16.2479C31.1174 16.3097 30.9688 16.3695 30.9128 16.4996C30.7648 16.5524 30.6703 16.7017 30.5113 16.7236C30.4133 16.7644 30.3299 16.8438 30.2396 16.9037C30.2052 16.9268 30.1696 16.9466 30.132 16.9613C30.1353 16.9857 30.1508 17.012 30.1423 17.0333C30.0489 17.1612 29.9395 17.3133 29.7798 17.3661C29.7554 17.3758 29.735 17.4014 29.7201 17.4193C29.754 17.4377 29.8177 17.4301 29.8324 17.4505C29.8473 17.4839 29.7286 17.6091 29.673 17.6786C29.709 17.784 29.5559 17.9069 29.5687 17.9455C29.5791 17.9686 29.7977 17.8903 29.8465 17.9614C29.8808 18.0717 29.7105 18.1052 29.6227 18.13C29.299 18.2216 29.0205 18.419 28.7073 18.5318C28.6506 18.5483 28.6246 18.5213 28.6134 18.4826C28.5857 18.4 28.767 18.1941 28.8644 18.0578C29.0406 17.7988 29.2446 17.5504 29.4014 17.2828C29.4918 17.1537 29.5805 17.0245 29.6676 16.8943Z" fill="#440101"/>
</svg>
