<svg width="32" height="32" viewBox="0 0 32 32" fill="none" xmlns="http://www.w3.org/2000/svg">
<path fill-rule="evenodd" clip-rule="evenodd" d="M7.55022 7.79444H13.088C14.101 7.83496 16.5592 7.78093 17.8153 8.69938C15.0194 3.60737 11.5482 4.32322 6.72632 4.03958C2.91743 4.03958 0.823901 2.78346 0.17558 2.40527C-0.243126 2.40527 2.41769 7.79444 7.55022 7.79444Z" fill="#DF1F27"/>
<path fill-rule="evenodd" clip-rule="evenodd" d="M25.7977 3.45861C24.6227 3.33705 25.3925 1.95937 26.5271 2.31055C27.3915 2.56717 27.5941 3.64771 27.0268 4.13395C26.2435 4.80928 25.4736 4.82279 24.5011 4.82279C25.5816 4.43109 26.1489 3.99888 26.0138 3.48563C25.8653 2.90484 25.9058 3.4316 25.7977 3.45861Z" fill="#DF1F27"/>
<path fill-rule="evenodd" clip-rule="evenodd" d="M31.9973 5.49829C31.9433 7.83495 29.9443 8.51028 28.5126 8.56431C28.1344 7.76741 27.6482 7.03805 27.0539 6.38973C28.4991 6.57882 31.0383 6.16012 31.9973 5.49829Z" fill="#DF1F27"/>
<path fill-rule="evenodd" clip-rule="evenodd" d="M27.6346 5.66038C27.3645 5.34973 26.8783 4.76894 26.392 4.98505C25.8383 5.21466 25.2845 5.22817 24.6497 5.18765C24.8793 5.34973 25.9058 5.95753 27.6346 5.66038Z" fill="#DF1F27"/>
<path fill-rule="evenodd" clip-rule="evenodd" d="M14.8438 16.5602C16.6537 13.035 8.94141 12.8053 9.3196 16.9114C9.83285 22.6517 19.5036 21.139 20.5031 13.7373C18.9634 17.8163 15.7893 18.181 14.5197 17.3841C14.0604 17.141 14.0604 16.6142 14.263 16.4792C14.4116 16.3576 14.7628 16.3576 14.8438 16.5602Z" fill="#DF1F27"/>
<path fill-rule="evenodd" clip-rule="evenodd" d="M0.891435 16.4657C2.39068 13.3187 4.95694 12.873 6.86138 13.7104C7.55022 14.0886 7.75282 14.6288 7.55022 15.1556C7.06398 13.8995 5.22708 14.3992 4.8624 16.2766C3.20108 24.7318 20.7462 26.4066 21.4216 13.5078C21.6242 14.3317 21.7322 15.1826 21.7322 16.0605C21.7322 22.1791 16.5997 27.136 10.2786 27.136C9.38713 27.136 8.5092 27.0415 7.67178 26.8524C7.44217 26.7848 7.19905 26.7173 6.96944 26.6363C1.17507 24.6103 -0.594299 19.6128 0.891435 16.4657Z" fill="#DF1F27"/>
<path fill-rule="evenodd" clip-rule="evenodd" d="M21.3676 6.67329C21.6107 6.65979 21.8268 6.84888 21.8403 7.092C21.8538 7.33512 21.6647 7.55123 21.4216 7.56473C21.1785 7.57824 20.9624 7.38915 20.9488 7.14603C20.9218 6.90291 21.1109 6.6868 21.3676 6.67329ZM19.6792 9.68528L21.0839 9.02345C20.7057 8.95592 20.2195 8.83436 19.9629 8.52371C19.7873 8.96943 19.7197 9.3206 19.6792 9.68528ZM20.0169 8.25357C21.4351 9.29359 23.1099 8.46968 23.9203 7.87539C24.339 8.01045 23.6637 8.48319 23.4476 8.55072C23.4476 8.55072 23.4476 8.55072 23.4341 8.55072H23.4476C23.5286 8.59124 23.5962 8.61825 23.6772 8.65877C23.7447 8.6993 23.7988 8.72631 23.8528 8.76683C24.4876 9.18553 24.9063 9.90139 24.9063 10.7118C24.9063 11.9949 23.8663 13.0349 22.5832 13.0349C22.4481 13.0349 22.313 13.0214 22.178 12.9944L22.1915 13.0755C22.9748 15.4526 22.9884 18.1134 22.1509 20.4771C29.6607 17.5597 30.1469 8.6993 24.0824 5.05249C23.9878 4.99847 23.8933 4.95795 23.7988 4.90392L23.8798 4.8634C25.9868 3.82339 24.3795 1.2166 21.6107 2.25661C22.6102 2.6348 22.5021 3.67481 20.8138 4.97145C19.8683 5.8764 19.247 6.71381 20.0169 8.25357Z" fill="#DF1F27"/>
<path fill-rule="evenodd" clip-rule="evenodd" d="M21.3 22.1655C20.9759 23.4622 20.3816 24.6508 19.5577 25.6773C17.7748 27.8248 15.0599 29.2025 11.9939 29.2295C10.13 29.216 8.38765 28.6893 6.92892 27.7708C7.05048 27.8113 7.15854 27.8653 7.2801 27.8924C7.52322 27.9734 7.76634 28.0544 8.00946 28.122C8.87389 28.3246 9.77883 28.4191 10.7108 28.4191C15.3301 28.4056 19.3281 25.8664 21.3 22.1655Z" fill="#DF1F27"/>
<path fill-rule="evenodd" clip-rule="evenodd" d="M10.2921 11.6978H17.5181C18.315 11.7248 20.0304 11.7788 21.0164 12.5082C19.9088 10.2121 17.7343 8.82089 13.8173 8.96946L8.06348 8.91543C7.06398 8.91543 5.6863 8.71283 4.8759 8.38867C5.59175 9.61778 7.44217 11.6978 10.2921 11.6978Z" fill="#DF1F27"/>
<path fill-rule="evenodd" clip-rule="evenodd" d="M31.6326 8.10498C31.7137 9.64474 31.3355 11.5087 29.3365 11.9004C29.296 11.0089 29.1204 10.104 28.7962 9.26655C29.7417 9.22603 30.8898 8.91538 31.6326 8.10498Z" fill="#DF1F27"/>
<path fill-rule="evenodd" clip-rule="evenodd" d="M31.2139 11.6707C30.9033 13.3455 30.1469 14.9123 28.7962 15.2499C29.1204 14.3855 29.323 13.5076 29.3635 12.5891C30.1739 12.427 30.7817 12.1029 31.2139 11.6707Z" fill="#DF1F27"/>
</svg>
