<svg width="32" height="32" viewBox="0 0 32 32" fill="none" xmlns="http://www.w3.org/2000/svg">
<path d="M17.7366 13.5906C18.4503 13.5906 19.0279 13.0049 19.0279 12.2912C19.0279 11.583 18.4503 11 17.7366 11C17.0256 11 16.4454 11.583 16.4454 12.2912C16.4454 13.0049 17.0256 13.5906 17.7366 13.5906Z" fill="#ED2E38"/>
<path fill-rule="evenodd" clip-rule="evenodd" d="M30.1531 14.2362C29.7853 14.2362 29.4475 14.3343 29.1397 14.5168C28.8346 14.702 28.475 15.067 28.0718 15.6146L28.0446 15.5901L28.347 14.3833H25.9089L25.4213 16.4672C25.3341 15.8979 25.0726 15.3912 24.6259 14.9417C24.0729 14.3887 23.1903 14.1082 21.9808 14.1082C21.0927 14.1082 20.33 14.2716 19.6871 14.5958C19.1259 14.8845 18.6819 15.2659 18.3523 15.7481L18.671 14.386H16.568L16.5734 14.3806H13.8602L11.6128 18.2679H11.5883L11.2015 14.3806H8.75253L10.0465 20.5152H12.3538L15.8107 15.4893L14.6257 20.5207H17.2299L17.7584 18.2733C17.8565 18.8399 18.1234 19.3303 18.5593 19.7416C19.1232 20.2728 19.9976 20.537 21.1826 20.537C22.117 20.537 22.9042 20.3681 23.5444 20.0222C24.1137 19.7198 24.555 19.3112 24.871 18.8127L24.4624 20.5479H27.0748L27.6169 18.2379C27.7858 17.5187 28.0283 16.9984 28.3388 16.6743C28.6494 16.3474 29.0552 16.1839 29.5538 16.1839C29.7118 16.1839 29.8888 16.1975 30.0904 16.2357L31.052 14.4214C30.7306 14.2961 30.4309 14.2362 30.1531 14.2362ZM9.88303 18.3142L10.1609 17.6958L9.64604 17.2599L11.2505 17.4506L9.88303 18.3142ZM21.3488 18.9516C21.8364 18.9516 22.2205 18.7255 22.5092 18.2733C22.7953 17.8238 22.9369 17.3226 22.9369 16.7778C22.9369 16.3801 22.8307 16.0995 22.61 15.936C22.3921 15.7753 22.1497 15.7018 21.8881 15.7018C21.3351 15.7018 20.9211 15.9224 20.646 16.3719C20.3708 16.8295 20.2346 17.2926 20.2346 17.7584C20.2346 18.1044 20.3436 18.385 20.5588 18.6056C20.7713 18.8345 21.0382 18.9516 21.3488 18.9516Z" fill="#ED2E38"/>
<path d="M2.72411 20.6965L2.90662 20.1965C2.71049 20.3565 2.5089 20.5245 2.3046 20.6965H2.72411Z" fill="#ED2E38"/>
<path fill-rule="evenodd" clip-rule="evenodd" d="M4.91427 11.959H8.04699L8.98408 17.32C8.32757 17.3364 5.03686 17.5161 0.177063 19.5756L4.91427 11.959ZM6.04477 14.19L4.42121 17.32H6.37167L6.06929 14.19H6.04477Z" fill="#ED2E38"/>
<path d="M9.00315 17.4262C8.4665 17.3908 5.79416 17.4207 0 20.5371H0.87716C1.74615 20.0958 2.56065 19.7226 3.31795 19.4093L3.46505 19.1315H4.00987C6.67132 18.1045 8.49102 17.8293 9.06036 17.764L9.00315 17.4262Z" fill="#ED2E38"/>
<path d="M9.07944 17.8621C8.62451 17.8866 7.31967 18.0527 4.98239 19.1315H5.93855C7.60298 18.6166 8.73892 18.4477 9.17206 18.3987L9.07944 17.8621Z" fill="#ED2E38"/>
<path d="M6.54874 19.1559L6.68222 20.537H9.54525L9.18839 18.4939C8.83698 18.513 7.98434 18.6165 6.54874 19.1559Z" fill="#ED2E38"/>
</svg>
