<svg width="32" height="32" viewBox="0 0 32 32" fill="none" xmlns="http://www.w3.org/2000/svg">
<g clip-path="url(#clip0)">
<path fill-rule="evenodd" clip-rule="evenodd" d="M16.0614 0C24.8567 0 32 7.18864 32 15.9781C32 24.8114 24.8567 32.0007 16.0614 32.0007C7.22736 32.0007 0 24.8114 0 15.9781C0 7.18864 7.22736 0 16.0614 0ZM9.55952 20.1938C8.2707 20.0382 7.55176 19.8373 6.50331 19.9542C5.29851 20.0382 3.65313 21.1202 2.6098 22.2461C1.72866 20.3553 1.24426 18.2306 1.24426 15.9788C1.24426 7.86885 7.86885 1.20481 16.0614 1.20481C19.5523 1.20481 22.8482 2.48779 25.3739 4.57884L9.55952 20.1938ZM15.0188 21.1582L28.6705 23.6511C30.0375 21.3591 30.7952 18.8334 30.7952 15.9781C30.7952 11.6827 28.8715 7.74611 25.8985 5.01868L15.0188 21.1582ZM15.699 23.4502L22.564 29.0724L9.83789 22.8036C8.67254 22.485 7.55176 22.4025 6.46386 22.3623C5.22033 22.3236 4.0937 22.5252 2.81072 22.7247C5.29851 27.5052 10.2785 30.7945 16.0614 30.7945C21.1195 30.7945 25.6589 28.1847 28.3081 24.1706L15.699 23.4502H15.699Z" fill="#01185B"/>
</g>
<defs>
<clipPath id="clip0">
<rect width="32" height="32" fill="white"/>
</clipPath>
</defs>
</svg>
