<svg width="32" height="32" viewBox="0 0 32 32" fill="none" xmlns="http://www.w3.org/2000/svg">
<g clip-path="url(#clip0)">
<path fill-rule="evenodd" clip-rule="evenodd" d="M31.8283 2.71354L30.4535 9.40923L29.4141 6.48195L28.4353 9.02386L26.9427 2.00003L26.6871 9.31906L25.3258 7.17789L25.0882 9.77286L21.6284 2.96552L23.1796 10.3333L21.5001 8.56954L21.4856 10.9115L16.9999 5.14824L19.7981 11.6351L17.8291 10.614L18.1753 12.4306L12.4571 7.75076L16.5418 13.3998L14.6436 13.1254L15.3931 14.7814L9.07162 10.9831L13.7539 15.9624L11.23 15.3499L12.694 17.7272L5.94308 15.1807L11.8837 19.6771L9.77768 19.5667L11.0236 21.0369L3.71448 19.8402L10.3715 22.8095L8.51883 23.2067L10.0493 24.383L2.47172 24.2898L9.61365 26.5146L7.44766 27.0603L9.97015 28.5455L0 29.4319L0.45751 30.2296L22.5285 29.4319L32 10.7731L31.8283 2.71354Z" fill="#ED1C24"/>
</g>
<defs>
<clipPath id="clip0">
<rect width="32" height="32" fill="white"/>
</clipPath>
</defs>
</svg>
