<svg width="32" height="32" viewBox="0 0 32 32" fill="none" xmlns="http://www.w3.org/2000/svg">
<path d="M14.6815 0.586981C16.04 1.76025 18.5101 7.81187 12.7055 17.3833C10.6059 20.8414 7.51836 25.164 5.72757 26.7077C5.60407 26.8312 5.66582 26.893 6.03633 26.646C7.82711 25.5962 17.6456 17.5068 19.8686 14.1722C21.1036 12.1962 24.4999 6.8856 20.3626 3.42754C17.4603 1.01924 14.6815 0.586981 14.6815 0.586981Z" fill="#A91B2D"/>
<path d="M22.2151 15.7779C22.1534 18.0627 18.5718 22.447 12.088 25.4111C8.93864 26.8313 6.40684 27.8811 5.91284 28.0664C5.48058 28.2516 5.66583 28.3134 6.09809 28.2516C7.27136 28.1281 10.3589 27.5106 11.6557 27.1401C15.6078 26.2138 22.2769 24.5466 24.7469 22.0148C26.476 20.1622 24.8704 17.9392 24.3147 17.3834C23.8207 16.8277 22.2151 15.5309 22.2151 15.7779Z" fill="#A91B2D"/>
<path d="M22.5239 26.8313C22.3387 26.5843 22.2152 29.2396 14.4962 29.3013C10.0502 29.3013 6.40685 29.0543 5.78935 29.1161C5.66579 29.1778 5.54233 29.2396 5.85105 29.3013C6.46855 29.5483 9.24736 30.0423 10.1736 30.2276C12.3349 30.6598 18.8805 32.0801 21.6593 31.5861C24.3764 31.0921 23.6354 29.1161 23.5119 28.8073C23.2031 28.0663 22.7091 27.0783 22.5239 26.8313" fill="#A91B2D"/>
</svg>
