<svg width="32" height="32" viewBox="0 0 32 32" fill="none" xmlns="http://www.w3.org/2000/svg">
<path fill-rule="evenodd" clip-rule="evenodd" d="M1.65945 15.6265C1.17655 15.6359 0.793818 16.0354 0.805091 16.5183L0.805636 16.5341C0.834364 17.9097 0.391818 19.4152 0.168545 20.1741L0.16703 20.1793C-0.0146269 20.7977 -0.126744 21.1794 0.26 21.5661C0.680364 21.9866 1.092 21.9752 1.50273 21.5608L1.50436 21.5626C1.60527 21.4619 1.68582 21.3219 1.81491 21.0961L1.81494 21.096C2.51681 19.8709 5.39025 14.855 9.79455 14.6063C10.2775 14.579 10.6476 14.165 10.6213 13.6821C10.5949 13.199 10.1818 12.8294 9.69891 12.8566C6.58018 13.0328 4.17418 15.0357 2.55164 16.9512C2.55691 16.801 2.558 16.6503 2.55491 16.5003L2.55455 16.4841C2.54327 16.0012 2.14255 15.6172 1.65945 15.6265ZM12.7242 15.9392C12.6935 16.4203 11.6947 16.6165 11.0029 16.6946C11.178 16.4428 11.4322 16.2472 11.7064 16.115C11.9138 16.0146 12.1302 15.9512 12.3325 15.9265H12.336C12.4915 15.9076 12.6258 15.9114 12.7242 15.9392ZM14.4502 15.6319C14.7376 17.7316 12.2176 18.2939 11.0182 18.4421C11.4305 19.1765 12.3178 19.7674 13.6015 19.9379C14.962 20.1181 16.8763 19.189 16.923 19.1663L16.9238 19.1659C17.3573 18.9557 17.8787 19.1372 18.0882 19.5712C18.2975 20.0052 18.1156 20.5276 17.6824 20.7377C17.6755 20.7414 15.2762 21.9188 13.3758 21.667C11.3364 21.3963 9.93327 20.3096 9.33764 18.9783C9.216 18.7063 9.12782 18.4237 9.07455 18.135C9.01891 17.8336 8.99927 17.5383 9.01709 17.2545V17.251C9.02091 17.1943 9.01982 17.2136 9.01855 17.2348C9.10945 15.9288 9.96855 15.0159 10.9476 14.5428C11.3327 14.3568 11.7393 14.2381 12.124 14.1908V14.1905C12.5444 14.1392 12.9544 14.1717 13.3069 14.2921C13.9216 14.5021 14.3558 14.9426 14.4502 15.6319ZM10.7665 17.3703L10.7667 17.3672L10.7691 17.3346C10.7684 17.3456 10.7664 17.3759 10.7665 17.3703Z" fill="#0B3D90"/>
<path d="M19.8776 19.7112C19.4873 19.9929 18.9425 19.9041 18.6616 19.5134C18.3805 19.1232 18.4691 18.578 18.8595 18.2969C18.8671 18.2916 21.0905 16.687 22.1115 15.966C19.1604 13.7694 15.8522 12.9016 15.8418 12.899C15.376 12.7756 15.0976 12.2976 15.2204 11.8316C15.3429 11.3656 15.8202 11.0876 16.286 11.2109C16.2976 11.214 20.3142 12.2676 23.6589 14.9541C25.4351 13.8898 26.6996 13.4441 26.704 13.4425C27.1587 13.2798 27.6587 13.5167 27.8211 13.9714C27.9835 14.426 27.7465 14.9269 27.292 15.0894C27.2884 15.0907 26.3915 15.4065 25.0358 16.1763C27.0596 18.1327 28.6229 20.3094 28.6284 20.3169C28.9095 20.7074 28.8205 21.2523 28.4298 21.5334C28.0395 21.8147 27.4947 21.726 27.2138 21.3352C27.2085 21.3278 25.5647 19.0383 23.5033 17.1298C22.6671 17.6965 19.8856 19.7056 19.8776 19.7112Z" fill="#FF3300"/>
<path fill-rule="evenodd" clip-rule="evenodd" d="M31.9544 20.1464C31.9544 20.6426 31.5522 21.0455 31.0556 21.0455C30.5589 21.0455 30.1565 20.6424 30.1565 20.1464C30.1565 19.6497 30.5589 19.2473 31.0556 19.2473C31.5522 19.2471 31.9544 19.6495 31.9544 20.1464Z" fill="#FF3300"/>
</svg>
