<svg width="32" height="32" viewBox="0 0 32 32" fill="none" xmlns="http://www.w3.org/2000/svg">
<g clip-path="url(#clip0)">
<path fill-rule="evenodd" clip-rule="evenodd" d="M15.9997 31.9773C25.4669 31.9773 32.0874 24.2975 31.9991 15.9999C32.0433 7.52569 25.18 -0.0657748 15.8452 0.00042983C7.17237 0.0445663 -0.0439351 6.95192 0.000201393 16.022C0.0443378 24.9596 7.0841 31.9773 15.9997 31.9773ZM28.4682 16.6399C30.675 16.6399 30.4102 17.015 30.4102 17.015C30.4102 17.015 30.2778 17.2357 29.7923 17.6109C28.9151 18.1617 28.1086 18.5616 27.2987 18.9632C26.3564 19.4305 25.4096 19.9001 24.3415 20.6122C23.1056 21.4287 21.274 22.3776 20.0161 22.3555C18.5375 22.3335 17.1251 22.5321 15.7128 22.9072C14.8355 23.1353 13.9304 23.2518 13.0306 23.3676C12.7986 23.3975 12.567 23.4273 12.3363 23.459C12.0053 23.5031 11.6522 23.5252 11.3433 23.2162C11.4168 22.922 11.6436 22.781 11.8705 22.64C11.9158 22.6118 11.9612 22.5836 12.0053 22.5542C12.9763 21.9363 13.9473 21.2963 14.9182 20.6563L14.9183 20.6563C15.1831 20.5018 15.5142 20.3032 15.4038 19.9501C15.3292 19.6888 14.923 19.6327 14.7461 19.6083C14.7138 19.6038 14.6892 19.6004 14.6756 19.597C13.3956 19.4425 9.42333 19.3101 8.4082 19.3322C7.7306 19.3564 6.99109 19.4484 6.23493 19.5425C4.9224 19.7058 3.55971 19.8754 2.38357 19.7074C2.19899 19.6766 2.02513 19.6244 1.85451 19.5732C1.78035 19.5509 1.7068 19.5288 1.63325 19.5087V19.3543C1.89808 19.3101 2.1574 19.2715 2.41671 19.2329C2.676 19.1943 2.93529 19.1556 3.20009 19.1115C5.91449 18.6481 8.5406 17.8757 11.0785 16.8385C12.6894 16.1985 14.3445 15.8233 16.0879 15.9116C16.6504 15.9447 17.2253 16.0274 17.8219 16.1132C18.0211 16.1419 18.2228 16.1709 18.4272 16.1985C18.6314 15.4799 18.8434 14.7664 19.0552 14.0537C19.4613 12.6872 19.8666 11.3235 20.2147 9.93113C20.7425 7.84175 20.8758 5.6866 21.0078 3.55308L21.0092 3.53135C21.4977 3.3504 21.9417 3.42167 22.3656 3.4897C22.4587 3.50464 22.5508 3.51942 22.6422 3.53135C23.856 3.68582 24.8932 4.19339 25.7318 5.12026C26.5924 6.06919 26.7248 7.1726 26.5041 8.36429C26.151 10.1297 25.5111 11.8069 24.7607 13.44C24.4297 14.1462 24.2311 14.8965 24.3415 15.6909C24.4518 16.3971 24.8049 16.7281 25.5331 16.7281C26.0186 16.7281 26.5097 16.7061 27.0007 16.684C27.4917 16.6619 27.9827 16.6399 28.4682 16.6399Z" fill="#907835"/>
</g>
<defs>
<clipPath id="clip0">
<rect width="32" height="32" fill="white"/>
</clipPath>
</defs>
</svg>
