<svg width="32" height="32" viewBox="0 0 32 32" fill="none" xmlns="http://www.w3.org/2000/svg">
<path d="M31.8275 16.0216C31.8275 24.8132 24.7077 31.932 15.9186 31.932C7.12836 31.932 0 24.8132 0 16.0216C0 7.22987 7.12836 0.104309 15.9186 0.104309C24.7078 0.104309 31.8275 7.22987 31.8275 16.0216Z" fill="#BED600"/>
<path fill-rule="evenodd" clip-rule="evenodd" d="M9.44896 8.2907C10.6261 7.8537 12.2523 7.71515 14.7589 7.71515V7.71526H17.0202L15.9137 10.482H14.3643C12.7002 10.482 11.6317 10.487 11.055 10.6783C10.494 10.8523 10.0794 11.063 9.8534 11.3938C9.64444 11.6614 9.57393 12.0266 9.57393 12.3436C9.57393 12.6756 9.61031 12.9899 9.93895 13.4122C10.3444 13.8167 11.012 14.3393 12.3221 15.1451C14.9339 16.7747 15.7065 18.0683 15.7065 19.7704C15.7065 22.5404 13.0942 25.1856 8.71577 25.1856C7.39961 25.1856 5.56259 24.9928 4.78853 24.7459L4.38196 24.6263C4.5405 24.0993 5.06047 22.6467 5.28952 22.0326L5.70013 22.1361C6.56065 22.3467 7.90735 22.4704 8.80144 22.4704C11.3631 22.4704 12.3587 21.3138 12.3587 20.2977C12.3587 19.3692 11.8517 18.86 9.30996 17.3192C6.92781 15.8467 6.10468 14.5665 6.10468 12.7988C6.10468 10.6763 7.4708 9.06128 9.44896 8.2907ZM18.6825 7.71515H26.4688C26.8348 7.71515 26.9049 7.97384 26.7639 8.25544C26.2548 9.51737 21.451 21.5535 21.451 21.5535H18.2398C18.2398 21.5535 22.0341 11.8846 22.6636 10.4444C22.518 10.4444 22.3838 10.4485 22.205 10.4541C21.8482 10.4652 21.3137 10.4817 20.1568 10.4817H17.576L18.6825 7.71515Z" fill="white"/>
</svg>
