<svg width="32" height="32" viewBox="0 0 32 32" fill="none" xmlns="http://www.w3.org/2000/svg">
<path fill-rule="evenodd" clip-rule="evenodd" d="M16.2054 10.1813C15.4998 11.9826 14.9571 13.9472 13.855 15.3522C16.4115 16.0864 18.9631 15.3247 20.9061 14.2239C22.1559 13.516 23.5591 12.8574 25.137 12.7197C27.5383 12.5102 29.9212 13.1244 32 14.3179C30.9281 14.0797 29.8616 13.5124 28.5214 13.3778C22.3219 12.7547 19.4489 16.2391 18.0858 21.181C19.8008 21.1401 22.4775 20.4827 24.1967 19.6767C25.1235 19.2423 26.67 18.168 26.5471 20.0529C26.1471 20.6408 25.4489 20.3342 24.8548 20.4289C23.6849 20.6151 22.6543 21.333 22.6925 22.8732C22.3381 22.1374 22.766 20.9069 23.2565 20.4289C21.623 20.9577 19.866 21.3629 17.9918 21.651C17.2863 23.4431 16.8273 25.5736 15.4534 27.198C14.1018 28.7959 11.2437 30.4284 8.87226 29.7365C6.61301 29.077 6.99184 26.0267 8.40232 24.4716C10.0066 22.7027 13.4668 21.7248 15.9233 21.557C17.0078 19.2258 18.0027 16.8047 19.7781 15.1642C18.0229 15.8355 15.7605 16.2542 13.7612 15.7282C12.2374 17.2199 9.83675 19.3974 5.86379 19.1126C3.53457 18.9458 0.340324 18.0217 0.035045 16.1982C-0.339036 13.965 2.36078 13.2498 4.35971 13.0957C7.56868 12.8486 9.73898 14.0058 12.0689 14.882C13.1815 13.7698 13.7831 12.1463 14.2311 10.3693C11.4618 10.3547 7.23855 10.3374 5.01781 9.14711C4.59624 8.92118 3.99212 8.49566 4.0776 7.92499C5.17224 9.54678 9.04211 10.0913 11.5988 10.0874C12.5392 10.0858 13.4396 9.93616 14.3251 9.89923C14.936 7.88779 15.7077 5.97333 17.0517 4.54043C18.3127 3.19569 20.0738 2.05894 22.3164 2.00206C23.3152 1.97674 24.9477 2.15602 24.7609 4.1644C24.5764 6.14534 22.7623 7.71257 21.2821 8.58314C19.7172 9.50351 17.8899 9.90946 16.2054 10.1813ZM21.3762 7.83102C22.3591 7.16823 23.4605 5.87066 23.8206 4.91657C23.9782 4.49922 24.1137 3.85263 24.0086 3.41233C23.6556 1.93247 21.1739 2.83955 20.342 3.31831C18.1408 4.58533 16.8594 7.16965 16.2994 9.71129C17.8812 9.2195 19.8755 8.84288 21.3762 7.83102ZM4.54749 13.4719C3.14878 13.6401 1.491 14.4158 1.63309 16.0101C1.76273 17.4635 4.01423 18.2448 5.67591 18.3605C8.89421 18.5849 10.7523 16.6848 11.9748 15.1642C10.1786 14.4762 7.21792 13.151 4.54749 13.4719ZM9.24819 24.1895C8.51728 24.8536 7.6397 25.9736 7.55597 27.0098C7.36919 29.3285 9.58323 29.376 11.0348 28.7963C13.7439 27.714 15.2238 24.6545 15.9233 21.9331C15.918 21.8757 15.9092 21.8219 15.8294 21.8392C15.7721 21.8444 15.718 21.8532 15.7355 21.9331C13.5617 22.0766 10.8142 22.7674 9.24819 24.1895Z" fill="black"/>
</svg>
