<svg width="32" height="32" viewBox="0 0 32 32" fill="none" xmlns="http://www.w3.org/2000/svg">
<path fill-rule="evenodd" clip-rule="evenodd" d="M25.77 10.9L23.796 11.8981C22.3478 11.5369 21.019 11.355 19.8042 11.355C18.4458 11.355 17.352 11.4989 16.5212 11.7817C15.7238 12.0562 15.3246 12.4174 15.3246 12.8666C15.3246 13.2707 16.1396 13.8955 17.7644 14.7377C18.0299 14.8794 18.8876 15.2792 20.3367 15.9359C22.3478 16.8114 23.3548 17.6651 23.3548 18.4965C23.3548 19.4936 22.3771 20.2976 20.4269 20.9098C18.4751 21.5244 15.9467 21.8301 12.8421 21.8301C9.58754 21.8301 6.33605 21.104 4.14996 20.3714L6.34963 19.51C8.36005 20.1015 10.8011 20.3865 12.4865 20.3865C13.9365 20.3865 15.131 20.2213 16.0788 19.8922C17.0263 19.565 17.4983 19.1488 17.4983 18.6443C17.4983 18.1078 16.8333 17.5014 15.5015 16.8216C15.4746 16.8114 14.4672 16.3465 12.4865 15.4265C10.5051 14.508 9.51499 13.6705 9.51499 12.9156C9.51499 12.05 10.4319 11.3384 12.2633 10.7808C14.0983 10.2236 16.4181 9.94416 19.2287 9.94416C21.8026 9.94416 23.6997 10.3196 25.77 10.9Z" fill="#69CEEA"/>
<path d="M16.2876 11.0977C8.28016 11.0977 2.69811 13.7459 2.69811 16.1222C2.69811 18.4966 8.28016 21.1445 16.2876 21.1445C24.2947 21.1445 29.8758 18.4966 29.8758 16.1222C29.8758 13.7459 24.2947 11.0977 16.2876 11.0977ZM16.2876 22.8496C7.56732 22.8496 0.995178 19.9575 0.995178 16.1222C0.995178 12.2869 7.56732 9.39445 16.2876 9.39445C25.0075 9.39445 31.583 12.2869 31.583 16.1222C31.583 19.9575 25.0075 22.8496 16.2876 22.8496Z" fill="#69CEEA"/>
</svg>
