<svg width="32" height="32" viewBox="0 0 32 32" fill="none" xmlns="http://www.w3.org/2000/svg">
<path d="M8.96684 12.9686C7.47813 12.6772 5.00833 12.7548 5.00833 12.7548C5.00833 12.7548 4.31034 12.7333 4.41772 13.1433C4.62761 13.9409 7.47813 13.0076 8.75696 13.9799C10.3286 15.1724 9.59649 16.7626 9.10351 17.5196C8.43481 18.5505 6.52633 18.9391 4.73987 18.9391C1.85518 18.9391 0.420159 18.492 0.420159 18.492V16.1583C3.6514 16.8783 5.23773 16.8002 5.31583 16.3526C5.26702 16.1559 5.03761 16.0387 4.32498 15.9958C2.76305 15.9016 2.10411 15.7844 2.10411 15.7844C2.10411 15.7844 -0.311995 15.5023 0.190751 12.502C0.839927 8.8651 9.25482 10.4793 9.25482 10.4793V13.0091L8.96684 12.9686Z" fill="black"/>
<path d="M11.1389 10.1299H14.9851V14.6614L16.4836 11.6918H20.9351L18.5044 15.3033L20.5105 18.7264H16.4397L14.9851 16.2951V18.7454H11.1389V10.1299Z" fill="black"/>
<path d="M21.4818 11.6917H25.5819L26.7924 15.944L27.9101 11.6917H31.9272L29.2524 18.9585C29.145 19.2729 28.5984 20.4638 28.5984 20.4638C27.5977 22.7701 24.3079 22.0497 22.1749 22.0331V19.3671H24.7863L21.4818 11.6917Z" fill="black"/>
<path d="M4.0907 20.1111H5.33048V22.1094H4.0907V20.1111Z" fill="#01A0E9"/>
<path d="M4.0907 19.4839H5.33048V19.9839H4.0907V19.4839Z" fill="#01A0E9"/>
<path d="M8.43481 19.4839H9.6746V22.1094H8.43481V19.4839Z" fill="#01A0E9"/>
<path d="M10.2018 20.1111H11.4464V22.1094H10.2018V20.1111Z" fill="#01A0E9"/>
<path d="M10.2066 19.4839H11.4464V19.9839H10.2066V19.4839Z" fill="#01A0E9"/>
<path fill-rule="evenodd" clip-rule="evenodd" d="M1.63065 21.1712C1.63065 20.9682 1.79172 20.8037 1.99184 20.8037C2.19196 20.8037 2.35304 20.9682 2.35304 21.1712C2.35304 21.3743 2.19196 21.5392 1.99184 21.5392C1.79172 21.5392 1.63065 21.3743 1.63065 21.1712ZM2.3628 20.1111H3.56842V22.1094H2.3628V21.468C2.31887 21.7979 2.31399 22.1987 1.64529 22.1601C0.908254 22.1177 0.464081 21.818 0.464081 21.016C0.464081 20.4054 1.0254 19.8582 1.85029 20.0203C2.19196 20.0876 2.31887 20.2375 2.3628 20.4322V20.1111Z" fill="#01A0E9"/>
<path d="M11.9833 20.1109V22.1092H13.2914V21.0739C13.2914 20.8665 13.5599 20.8567 13.5599 20.8567C13.8674 20.8381 13.8576 21.0739 13.8576 21.0739V22.1092H15.0828V20.7815C14.9607 19.7917 13.5501 19.9547 13.228 20.4794V20.1109H11.9833Z" fill="#01A0E9"/>
<path fill-rule="evenodd" clip-rule="evenodd" d="M16.8155 20.9153C16.8204 20.7088 16.9864 20.5243 17.1865 20.5243C17.3915 20.5243 17.5575 20.7088 17.5623 20.9153H16.8155ZM16.8985 21.3189H18.6215C18.6215 21.3189 18.7338 20.3418 17.9284 20.1109C17.1426 19.8664 16.2981 20.1358 16.2103 20.1685C15.8052 20.3227 15.5611 20.6317 15.5367 21.0744C15.5074 21.5581 15.7466 22.0057 16.2103 22.1092C16.9376 22.2703 17.3036 22.2068 17.9919 22.1092C18.1188 22.0911 18.192 22.0789 18.3189 22.0545L18.5483 21.4698C16.7472 21.8905 16.8985 21.3189 16.8985 21.3189Z" fill="#01A0E9"/>
<path d="M20.408 20.6314C20.408 20.6314 20.2664 20.6446 20.2908 20.7471C20.3445 20.9472 21.1011 20.7085 21.4232 20.9521C21.8137 21.2513 21.6185 21.6959 21.4964 21.8858C21.3305 22.144 20.7106 22.1874 20.2615 22.1874C19.5391 22.1874 19.134 22.0752 19.134 22.0752V21.5744C19.8027 21.6818 20.4861 21.6227 20.4861 21.6227C20.4861 21.6227 20.5544 21.6266 20.5544 21.5129C20.5349 21.4202 20.3445 21.4499 20.1639 21.4392C19.7734 21.4153 19.5977 21.407 19.5977 21.407C19.5977 21.407 18.8753 21.3191 19.0218 20.5733C19.1828 19.6615 21.6038 20.1111 21.6038 20.1111V20.7085C20.9595 20.5938 20.408 20.6314 20.408 20.6314Z" fill="#01A0E9"/>
<path d="M5.89668 20.1109H7.09254V20.1187H7.09742V20.4667C7.13646 20.3394 7.32194 19.8791 8.02481 20.0177V21.1257C8.02481 21.1257 7.1023 21.1115 7.16087 21.4449V22.1092H7.09742V22.1165H5.85764V20.1187H5.89668V20.1109Z" fill="#01A0E9"/>
</svg>
