<svg width="32" height="32" viewBox="0 0 32 32" fill="none" xmlns="http://www.w3.org/2000/svg">
<path d="M19.7935 22.9648L17.0678 27.1148C17.059 27.1254 17.0502 27.1361 17.0413 27.1469C16.7997 27.4399 16.5204 27.7785 16.2319 27.5795C15.9426 27.3729 16.3554 26.8258 16.3554 26.8258L20.0098 21.1271C20.5471 20.2394 21.5176 18.4843 21.5176 16.9357C21.5176 15.3872 20.2991 13.3844 20.2991 13.3844L11.9989 0.0153198L10.4094 2.40019C9.77977 3.37061 10.3265 4.41346 10.3265 4.41346L17.6151 16.4712C19.2979 19.3618 16.9026 22.5105 16.9026 22.5105L12.505 29.3343H16.149C17.9971 29.3343 18.8335 27.8271 18.8335 27.8271L21.1356 24.2655C21.9715 22.9648 23.066 22.9235 23.066 22.9235H25.1616C23.8608 23.4706 23.2724 24.8126 23.2724 24.8126L20.6811 28.7975C19.6695 30.3047 18.4927 30.088 18.4927 30.088H8.06566L13.011 22.3762C14.1774 20.6213 13.011 19.1552 13.011 19.1552L6.42448 8.48068L5.04079 10.5768C3.83323 12.5072 4.99962 13.6324 4.99962 13.6324L9.7381 21.251C10.7909 22.8409 10.0378 23.8008 10.0378 23.8008L4.71087 31.9772H18.7095C21.3008 31.9772 22.2712 29.8814 22.2712 29.8814L25.244 25.4012C25.9564 24.2655 27.5465 24.4306 27.5465 24.4306L25.5332 21.251H22.6428C20.5883 21.251 19.7935 22.9648 19.7935 22.9648Z" fill="#FCB130"/>
<path d="M9.49054 29.2828H11.7102L16.531 21.7981C18.5855 18.6907 16.6962 16.1822 16.6962 16.1822L9.3665 4.20658L7.51844 6.97346C6.97171 7.89228 7.51844 8.85278 7.51844 8.85278L13.7641 19.1967C14.6418 20.7452 13.971 22.2111 13.971 22.2111L9.49054 29.2828Z" fill="#FCB130"/>
</svg>
