<svg width="32" height="32" viewBox="0 0 32 32" fill="none" xmlns="http://www.w3.org/2000/svg">
<g clip-path="url(#clip0)">
<path fill-rule="evenodd" clip-rule="evenodd" d="M15.9856 5.00332V5.00248L15.95 4.97356L15.9164 5.00244V5.00332L15.8579 5.05258L15.8447 5.06394V5.06381L13.9063 6.10209L15.8474 7.14827L17.7824 5.9243L15.9856 5.00332ZM15.885 15.5534L14.5479 16.9302L15.8569 18.3583L16.1311 18.5146L16.198 18.4343L17.4528 16.9373L15.885 15.5534ZM15.5409 14.7039L17.6695 13.0609L16.3828 12.071L16.2447 11.9334L16.1299 11.8762L16.0739 11.9258V11.9255L14.1479 13.3913L15.5409 14.7039ZM16.0493 10.9521L18.0833 9.24993L16.0871 8.13521L14.1441 9.43205L16.0493 10.9521ZM15.9145 4.20022V4.19987L19.6996 5.7959L16.8157 7.69069L18.5123 8.74921C18.5123 8.74921 22.4103 4.8702 25.883 4.11295C27.568 3.74562 30.4727 4.22118 31.6036 6.32744C32.2837 7.37252 32.2337 10.4086 30.2909 11.8059C27.6942 13.883 23.7108 11.9434 23.7108 11.9434C23.7108 11.9434 29.5283 13.1428 30.7055 9.03814C30.7055 9.03814 31.2972 7.37813 29.6079 6.1566C27.9727 4.97428 26.2958 5.07707 24.5546 5.75752C23.2298 6.27536 21.5128 7.27795 19.4873 9.18652L21.1332 10.0237C21.1332 10.0237 24.5719 6.74672 25.7838 8.62602C26.621 9.51804 25.1915 11.6409 21.8701 10.6065L18.9214 13.1657L20.4836 14.1754C20.4836 14.1754 24.1895 12.2178 24.1895 14.8571C24.1321 16.148 21.7889 16.0234 20.7502 15.0342L18.618 16.9795C18.618 16.9795 20.4423 18.8394 22.1735 18.1471C22.3088 18.4968 21.8337 18.8501 21.0287 18.8296C19.8521 18.7995 19.0503 18.1859 18.1556 17.374L16.5236 19.2836C16.8076 19.9804 17.6793 21.3681 17.74 23.1242C17.86 26.8878 15.1393 26.3196 15.1677 25.6873C15.1677 25.7994 17.2583 26.2157 17.0161 23.1515C17.0376 21.5492 16.0955 19.6698 16.0955 19.6698C16.1268 19.7701 14.3639 21.778 14.2804 25.0104C14.219 28.9493 17.3542 27.0157 17.2942 26.703C16.9544 28.0061 16.456 28.6548 15.3587 28.4975C14.3784 28.3569 13.2841 26.3633 13.6955 23.8395C13.9305 21.4663 15.3312 19.8341 15.6327 19.1623L14.0513 17.2474C14.0513 17.2474 12.2509 18.731 11.0737 18.6815C9.89647 18.632 9.88148 18.0965 9.88148 18.0965C11.6127 18.7887 13.2851 16.6539 13.2851 16.6539L11.2456 15.2917C10.2069 16.2808 7.97777 16.2661 7.99214 15.0722C7.93731 12.8128 10.9257 14.4834 10.9257 14.4834L13.0154 13.1067L10.6955 10.9399C9.45336 11.6971 8.28873 11.4354 7.5255 11.0453C6.54422 10.5437 6.35769 9.71316 6.67643 9.33495C7.00751 8.77548 7.90191 8.72577 8.68338 8.96688C9.68813 9.27677 10.5759 9.99785 10.5759 9.99785L12.8059 9.15098C10.7804 7.2424 9.02785 6.11079 7.70307 5.59296C5.96179 4.91252 3.7912 4.91946 2.15591 6.10182C0.326028 7.89902 0.993093 9.88511 2.56927 11.1002C3.96002 12.1723 6.11942 12.6079 7.0312 12.3029C7.0312 12.3029 4.59895 14.1318 2.00214 12.0548C-0.0266192 10.4322 -0.404114 8.06872 0.379715 6.60885C1.51056 4.50256 4.36041 4.01378 6.04536 4.3811C9.51809 5.13835 13.3186 8.85585 13.3186 8.85585L15.3352 7.61963L12.1312 5.8315L15.8453 4.19987V4.20062L15.8802 4.1717L15.9145 4.20022ZM10.5344 14.9709C11.3304 15.272 8.16802 13.4284 8.49158 14.8497C8.89977 16.2258 10.5344 14.9709 10.5344 14.9709ZM10.1557 10.6506C10.1557 10.6506 7.14531 8.34991 7.10579 9.80949C7.06798 11.2105 9.78205 10.8508 10.1557 10.6506ZM15.4026 11.3409L13.4151 12.7044L11.5256 10.8788L13.6417 9.84032L15.4026 11.3409ZM13.7661 16.3126L11.982 14.9725L13.7156 13.7443L15.2329 15.098L13.7661 16.3126ZM21.5502 14.5742C21.5502 14.5742 23.2397 16.0696 23.6478 14.7484C23.9199 13.7193 21.5502 14.5742 21.5502 14.5742ZM22.431 10.1442C22.8046 10.3444 25.5694 10.5944 25.5315 9.19342C25.4921 7.73379 22.431 10.1442 22.431 10.1442ZM16.7061 11.4119H16.8905L18.9282 9.65466L20.691 10.5003L18.1716 12.5989L16.7061 11.4119ZM16.368 15.2028L16.752 14.8736L18.4062 13.5096L19.8832 14.5421L17.7825 16.3632L16.368 15.2028Z" fill="#E7792B"/>
</g>
<defs>
<clipPath id="clip0">
<rect width="32" height="32" fill="white"/>
</clipPath>
</defs>
</svg>
