<svg width="32" height="32" viewBox="0 0 32 32" fill="none" xmlns="http://www.w3.org/2000/svg">
<path d="M4.80849 7.93799C18.1497 7.93799 15.3495 20.7408 26.1874 23.7512C24.169 25.0175 21.8588 25.6733 19.482 25.6733C14.4411 25.6733 11.6908 22.0267 6.20683 22.6815C10.909 19.534 14.184 24.4529 19.3056 23.968C11.5804 19.2417 9.87004 8.74453 1.17654 8.74453C0.776799 8.74453 0.383107 8.77024 0 8.81056C1.49311 8.24548 3.11778 7.93799 4.80849 7.93799Z" fill="#9C1A2E"/>
<path d="M32 8.39179C26.5155 9.40601 22.3578 14.213 22.3578 19.9888C22.3578 20.0896 22.3628 20.1955 22.3628 20.3009C20.8541 18.899 19.9105 16.8963 19.9105 14.6768C19.9105 10.4349 23.3463 7 27.5852 7C29.2295 7 30.7489 7.51467 32 8.39179Z" fill="#9C1A2E"/>
</svg>
