<svg width="32" height="32" viewBox="0 0 32 32" fill="none" xmlns="http://www.w3.org/2000/svg">
<g clip-path="url(#clip0)">
<path d="M15.9907 22.2977H4.35149V23.597H18.0142C18.0142 23.597 18.5077 22.4513 18.5077 21.201V12.4457C18.5077 11.758 18.7896 10.5904 20.2144 10.2747L20.3315 10.2522C24.3594 9.30235 28.5263 10.1695 30.87 11.1835C31.2881 11.39 31.3899 11.0479 31.3714 10.9022C31.4243 8.93377 29.9167 6.69192 27.1628 6.56024C24.917 6.50397 23.6734 7.30809 23.2249 7.53655L23.0854 7.47972C22.6712 7.074 21.7895 6.46571 20.7946 6.18041C20.6438 6.15002 20.6325 5.93619 20.8064 5.91312C22.9273 5.68072 24.7814 5.92832 25.5574 6.05268C25.7307 6.0825 25.8663 5.9739 25.7875 5.80846C25.742 5.68466 25.7009 5.62783 25.6063 5.44438C25.4145 5.03529 24.921 4.61832 24.284 4.43768C22.6262 3.97176 19.7851 3.57335 17.2495 3.56266C14.4123 3.54015 11.4023 4.10737 10.6443 4.27956C10.4637 4.3212 10.2077 4.38479 10.1626 4.39267C9.955 4.43768 9.90267 4.62901 9.99664 4.73086L10.2831 5.00096C10.3737 5.11744 10.4187 5.28232 10.238 5.45564L4.97779 10.1808H8.58029H8.61405C8.85152 10.1689 9.07717 10.3873 9.07717 10.654C9.07717 10.9016 8.88134 11.1233 8.63262 11.1233L8.59886 11.1267H3.92608L2.49453 12.4226H8.61349H8.65119C8.89203 12.4226 9.0766 12.6702 9.0766 12.8998C9.0766 13.1063 8.89597 13.3539 8.65119 13.3539H8.60955H1.44675L1.52588e-05 14.6465H12.3848L12.4225 14.6543C12.6678 14.6543 12.8564 14.9019 12.8564 15.1197C12.8642 15.3757 12.6864 15.6081 12.4304 15.5969H12.4H1.52588e-05V16.8889H12.3735L12.4113 16.8967C12.6937 16.8967 12.8564 17.1488 12.8564 17.3886C12.8564 17.5996 12.6566 17.828 12.4079 17.828H12.3741H1.52588e-05V19.1279H16.1415H16.1865C16.4538 19.1392 16.6237 19.3643 16.6125 19.6164C16.6085 19.8341 16.4279 20.0744 16.1865 20.0744L16.1527 20.0665H4.35543V21.3664H15.9907H16.2355C16.4538 21.3664 16.635 21.6292 16.635 21.8436C16.635 22.0653 16.4425 22.2982 16.2276 22.2982H15.9907V22.2977Z" fill="#0F1131"/>
<path d="M8.96744 26.5912V28.4425C8.96744 28.4425 10.673 28.4577 11.6358 28.4425C14.0257 28.4313 15.585 26.5912 15.585 26.5912H8.96744Z" fill="#0F1131"/>
<path d="M8.78006 24.5486V25.7905H16.6772C17.0463 25.4365 17.5173 24.7866 17.6338 24.5486H8.78006Z" fill="#0F1131"/>
<path d="M21.8581 10.905C22.3657 10.9129 22.7067 11.0614 22.9824 11.1801C23.571 11.4519 24.2412 11.7575 25.0977 12.1525L26.5506 11.1621C27.0233 10.8532 27.4768 11.0839 27.6237 11.3523C28.1391 12.2864 29.0963 14.2166 29.5881 15.9925C29.6579 16.2046 29.5802 16.5361 29.2359 16.6407C29.0344 16.6964 28.6855 16.7375 28.3293 16.7853C27.8251 16.8416 27.8336 17.2321 27.8336 17.4713C27.8336 17.7611 27.8454 19.7205 27.8454 20.394C27.8566 20.8071 27.5314 22.1373 25.908 22.1294H22.2469C20.848 22.1373 19.7204 21.0192 19.7164 19.8139C19.7164 19.0238 19.7164 13.4968 19.7198 12.8942C19.7187 11.6984 20.843 10.8904 21.8581 10.905Z" fill="#0F1131"/>
</g>
<defs>
<clipPath id="clip0">
<rect width="32" height="32" fill="white"/>
</clipPath>
</defs>
</svg>
