<svg width="32" height="32" viewBox="0 0 32 32" fill="none" xmlns="http://www.w3.org/2000/svg">
<g clip-path="url(#clip0)">
<path d="M0.0436096 25.6299H12.5634L26.3265 19.9033L28.7245 14.0293L0.0436096 25.6299Z" fill="#FFCF46"/>
<path d="M17.4603 6L6.94738 20.2742C6.94738 20.2742 4.2574 24.0656 -3.05176e-05 25.6296C-3.05176e-05 25.6296 1.1573 25.5887 1.9946 25.4884C3.42693 25.2994 5.92448 25.3594 11.7016 22.6114C17.4152 19.8948 28.5061 14.5517 28.5061 14.5517L32 6H17.4603Z" fill="#006BB6"/>
<path d="M26.4528 19.5952L24.0385 25.6337L11.2492 25.6296L26.4528 19.5952Z" fill="#008357"/>
<path d="M18.7125 7.7915L18.4047 8.74207H17.3893L18.2178 9.35691L17.8957 10.332L18.7125 9.73086L19.53 10.332L19.212 9.35691L20.0322 8.74207H19.0134L18.7125 7.7915Z" fill="white"/>
<path d="M24.4916 7.78125L24.1839 8.73182H23.1685L23.9969 9.34665L23.6748 10.3218L24.4916 9.7206L25.3091 10.3218L24.9911 9.34665L25.8114 8.73182H24.7925L24.4916 7.78125Z" fill="white"/>
<path d="M21.2489 10.394L20.9412 11.3446H19.9258L20.7535 11.9594L20.4314 12.9346L21.2489 12.3341L22.0664 12.9346L21.7478 11.9594L22.5687 11.3446H21.5499L21.2489 10.394Z" fill="white"/>
<path d="M17.622 13.1597L17.3142 14.1102H16.2995L17.1273 14.7244L16.8052 15.7002L17.622 15.099L18.4395 15.7002L18.1208 14.7244L18.9417 14.1102H17.9229L17.622 13.1597Z" fill="white"/>
<path d="M23.4012 13.1494L23.0934 14.1H22.078L22.9065 14.7148L22.5844 15.69L23.4012 15.0888L24.2187 15.69L23.9 14.7148L24.7209 14.1H23.7021L23.4012 13.1494Z" fill="white"/>
</g>
<defs>
<clipPath id="clip0">
<rect width="32" height="32" fill="white"/>
</clipPath>
</defs>
</svg>
