<svg width="32" height="32" viewBox="0 0 32 32" fill="none" xmlns="http://www.w3.org/2000/svg">
<rect width="32" height="32" fill="#002557"/>
<path fill-rule="evenodd" clip-rule="evenodd" d="M26.6739 24.0993C25.0632 18.7513 19.2804 15.2726 14.226 11.4382C15.4128 10.9807 16.6669 10.7494 17.9193 10.7494C20.6212 10.7494 23.3171 11.8094 25.3322 13.9195L25.8775 13.4003C23.7152 11.1356 20.8177 9.99524 17.9193 9.99524C16.4279 9.99524 14.9385 10.308 13.5435 10.9144C9.67168 7.90308 6.37479 4.61457 5.96253 0C3.34994 5.0535 6.37299 8.93493 10.8479 12.5875C10.6718 12.737 10.492 12.8808 10.323 13.0432C10.0273 13.3242 9.75408 13.6184 9.49731 13.9228C7.14478 11.9676 5.22609 9.75616 4.27663 6.97279C3.27204 10.684 5.10565 13.5252 8.1254 16.0033C7.8989 16.4479 7.70685 16.9045 7.54476 17.3707C6.45449 16.4443 5.45529 15.3747 4.59152 14.0948C4.72335 16.3038 5.64045 18.0275 7.04232 19.4362C6.96772 19.9551 6.91738 20.4771 6.91738 20.999C6.91738 23.7284 7.92886 26.468 9.9647 28.5982C12.1249 30.8585 15.0224 32 17.9238 32H17.9289C20.6574 32 23.3932 30.9897 25.5207 28.9566L25.5075 28.9434C25.7652 29.1064 26.0189 29.2831 26.2652 29.4923C26.8845 30.0166 27.2102 30.901 27.8085 31.4781C26.8333 29.0417 27.3804 26.4459 26.6739 24.0993ZM17.9238 31.2462C15.2189 31.2462 12.524 30.1844 10.5115 28.0775C8.61317 26.0917 7.6715 23.5426 7.6715 20.999C7.6715 20.6868 7.68917 20.3746 7.71824 20.0612C11.8861 23.6152 19.2954 25.0653 24.2878 27.7078C17.2272 24.9502 14.3516 26.6316 8.04661 21.455C12.5851 30.2179 19.6903 26.0486 24.8295 28.5593C22.8682 30.3504 20.3983 31.2462 17.9238 31.2462ZM8.16345 17.8735C8.31476 17.3977 8.5086 16.9339 8.73181 16.4815C13.8533 20.4135 21.7929 23.4827 25.5881 27.8157C20.6176 23.1322 13.4438 21.9823 8.16345 17.8735ZM10.0798 14.4001C10.3167 14.1191 10.5708 13.8467 10.8417 13.5879C11.0364 13.4021 11.2407 13.2334 11.4454 13.0659C15.4296 16.216 20.3671 19.2229 23.5454 22.7001C24.849 24.1233 25.8961 25.9695 26.6688 28.2333C23.6613 22.1579 15.7873 18.9209 10.0798 14.4001Z" fill="#C8D409"/>
</svg>
