<svg width="32" height="32" viewBox="0 0 32 32" fill="none" xmlns="http://www.w3.org/2000/svg">
<path d="M29.6786 22.9625L29.6398 23.0278C27.1544 27.3914 22.4979 30.329 17.1524 30.329C9.20202 30.329 2.75722 23.825 2.75722 15.8001C2.75722 13.1697 3.4513 10.7016 4.66494 8.57345L4.6976 8.51629L4.68127 8.46219L4.62819 8.48158L4.59144 8.53262C4.37709 8.84598 4.17601 9.17567 3.98412 9.50842C0.0319042 16.4718 2.46835 25.3785 9.4276 29.4053C16.3838 33.433 25.2314 31.0527 29.1805 24.0914C29.3755 23.7576 29.552 23.4136 29.7133 23.0676L29.7439 22.9992L29.7276 22.9421L29.6786 22.9625Z" fill="#A39161"/>
<path d="M13.6278 4.56955C11.5813 5.00948 8.1425 7.13461 7.41167 10.6622C9.61846 8.03183 11.9161 6.64977 13.6748 6.32825C11.8753 7.68682 10.1829 10.8582 10.7086 13.0813C11.6609 10.7184 13.3288 8.40745 14.8578 7.56536C13.9922 9.00661 13.7085 12.4903 14.5373 14.0275C14.7312 12.033 15.3559 9.44143 16.3399 8.16043L16.6318 10.6622H16.296L16.6492 13.2079H16.3695L16.6624 15.7535H16.4215L16.7921 18.2982L15.5999 18.9137V19.0015H18.7069V18.9137L17.5147 18.2982L17.1524 18.5809L17.5127 18.2982L17.8781 15.7535H17.6393L17.9322 13.2079H17.6515L18.0067 10.6622H17.6699L17.9618 8.16043C18.9468 9.44143 19.5694 12.033 19.7644 14.0275C20.5952 12.4903 20.3094 9.00661 19.4449 7.56536C20.9739 8.40745 22.6397 10.7184 23.5962 13.0813C24.1198 10.8582 22.4295 7.68682 20.6289 6.32825C22.3876 6.64977 24.6832 8.03183 26.888 10.6622C26.1612 7.13461 22.7224 5.00948 20.6738 4.56955C22.9286 4.34193 25.1262 5.07277 27.1186 6.04959C24.9537 3.52944 21.6895 2.61386 19.5306 2.86292C19.895 2.47402 20.2492 2.26682 20.7994 2.10248C19.8869 1.67174 18.4681 1.89732 17.9159 2.52302C17.9159 2.52302 17.8138 1.3543 17.1524 0.893953C16.4869 1.3543 16.3899 2.52302 16.3899 2.52302C15.8336 1.89732 14.4168 1.67174 13.5064 2.10248C14.0555 2.26682 14.4056 2.47402 14.7741 2.86292C12.6132 2.61386 9.34695 3.52944 7.18405 6.04959C9.17955 5.07277 11.3751 4.34193 13.6278 4.56955Z" fill="#A39161"/>
<path d="M17.7678 20.8156C17.5973 20.9289 17.386 21.0728 17.1512 21.2351C16.9165 21.0728 16.7052 20.9289 16.5358 20.8156C15.6202 20.195 7.88314 14.969 4.53928 18.666C7.6249 17.4299 12.1987 19.7643 15.9642 22.0558C15.022 22.706 13.9482 23.4532 13.0367 24.0768C11.5914 22.6621 11.0535 22.8887 10.9239 22.9438C10.782 23.004 10.6819 23.1357 10.6758 23.299C10.6738 23.5124 10.8361 23.692 11.0423 23.6981C11.2505 23.7022 11.4261 23.5307 11.4291 23.3174L11.4199 23.2306C11.8211 23.4858 12.1926 23.8288 13.1286 24.8025C14.0799 25.7967 14.4484 26.0703 14.7281 26.2366C14.921 26.3499 15.117 26.3785 15.2374 26.3683C15.4334 26.3581 15.6294 26.2152 15.6385 25.9907C15.6508 25.7692 15.4865 25.5864 15.2742 25.5834C15.0659 25.5793 14.8883 25.7508 14.8883 25.9713V26.009C14.6301 25.8192 14.3535 25.4783 13.8023 24.876C14.7087 24.3534 15.8621 23.6001 17.1512 22.7876C18.4404 23.6001 19.5938 24.3534 20.4992 24.876C19.9501 25.4783 19.6734 25.8192 19.4121 26.009V25.9713C19.4132 25.7508 19.2356 25.5793 19.0253 25.5834C18.812 25.5864 18.6497 25.7692 18.6629 25.9907C18.6731 26.2152 18.8661 26.3581 19.0641 26.3683C19.1835 26.3785 19.3785 26.3499 19.5744 26.2366C19.8541 26.0703 20.2236 25.7967 21.1759 24.8025C22.1078 23.8288 22.4845 23.4858 22.8816 23.2306L22.8744 23.3174C22.8795 23.5307 23.0541 23.7022 23.2582 23.6981C23.4644 23.692 23.6297 23.5124 23.6277 23.299C23.6195 23.1357 23.5205 23.004 23.3797 22.9438C23.249 22.8887 22.7111 22.6621 21.2658 24.0748C20.3553 23.4532 19.2774 22.706 18.3373 22.0558C22.1048 19.7643 26.6786 17.4299 29.7622 18.666C26.4173 14.969 18.6813 20.195 17.7678 20.8156Z" fill="#A39161"/>
<path d="M9.13332 25.6051C9.0139 25.5478 8.89141 25.474 8.82711 25.4641C8.78526 25.4586 8.74647 25.4685 8.71891 25.5005C8.6934 25.5357 8.68523 25.6051 8.71177 25.6623C8.7281 25.7031 8.77301 25.7812 8.89346 25.8958C9.39871 26.3736 10.4164 26.8019 13.0988 25.168C13.0172 25.0799 12.9335 24.9841 12.8446 24.8861C12.665 24.6835 12.5068 24.5073 12.367 24.3543C10.9502 25.3287 9.82741 25.9134 9.13332 25.6051Z" fill="#A39161"/>
<path d="M25.1693 25.6051C24.4742 25.9134 23.3514 25.3287 21.9346 24.3543C21.7938 24.5073 21.6397 24.6835 21.4559 24.8861C21.3692 24.9841 21.2844 25.0799 21.2048 25.168C23.8822 26.8019 24.9029 26.3736 25.4081 25.8958C25.5306 25.7812 25.5745 25.7031 25.5909 25.6623C25.6205 25.6051 25.6113 25.5357 25.5827 25.5005C25.5572 25.4685 25.5194 25.4586 25.4765 25.4641C25.4132 25.474 25.2897 25.5478 25.1693 25.6051Z" fill="#A39161"/>
</svg>
