<svg width="32" height="32" viewBox="0 0 32 32" fill="none" xmlns="http://www.w3.org/2000/svg">
<path d="M31.4403 19.7168C31.4403 19.7168 2.0206 27.3119 1.30589 18.4166C1.33406 13.5762 9.50657 9.98718 9.50657 9.98718C9.50675 9.98718 5.28631 14.9632 6.90858 17.449C10.0498 21.5171 31.4403 19.7168 31.4403 19.7168Z" fill="#205BA5"/>
<path d="M1.40672 23.8354C1.40672 23.8354 13.7437 3.00193 23.5326 4.43278C28.0955 5.44026 24.0657 16.275 24.0657 16.275C24.0657 16.275 23.6346 8.50666 19.3799 9.90343C11.9564 11.529 1.40672 23.8354 1.40672 23.8354Z" fill="#98BFE8"/>
<path d="M5.84853 7.02621C5.84871 7.02621 29.2321 16.1505 29.3107 24.2259C29.1297 28.2077 17.3921 27.6145 17.3921 27.6145C17.3921 27.6145 24.8983 26.1043 22.8292 21.6745C20.1244 16.1132 5.84853 7.02621 5.84853 7.02621Z" fill="#C5001E"/>
<path d="M27.3915 19.9631C25.8022 20.0376 23.8922 20.1026 21.8482 20.1111C22.2171 20.6036 22.5246 21.083 22.7586 21.5373C24.6797 21.2061 26.4356 20.856 27.8535 20.5507C27.7084 20.3542 27.5548 20.1589 27.3915 19.9631Z" fill="#9F021B"/>
<path d="M12.2999 9.87671C11.9816 10.1804 11.6694 10.4894 11.3581 10.8051C12.1228 11.3598 12.9132 11.9529 13.7261 12.5766C14.3176 12.1833 14.91 11.8162 15.4976 11.4868C14.3923 10.9055 13.3133 10.3641 12.2999 9.87671Z" fill="#C10920"/>
<path d="M6.55032 16.3706C5.14737 18.1878 3.95868 19.889 3.07903 21.2098C3.22926 21.3062 3.38807 21.3973 3.55443 21.4834C4.54351 20.4406 5.80785 19.1631 7.25445 17.8147C7.12185 17.6988 7.00728 17.5741 6.90911 17.447C6.69839 17.1241 6.58594 16.7612 6.55032 16.3706Z" fill="#578DCE"/>
</svg>
