<svg width="32" height="32" viewBox="0 0 32 32" fill="none" xmlns="http://www.w3.org/2000/svg">
<path d="M22.6667 1.06665C20 1.06665 17.7334 1.99998 16 2.93332C14.2667 1.99998 12.1334 1.06665 9.33336 1.06665C3.86669 1.06665 0.400024 4.53332 0.400024 10.6667C0.400024 18 7.46669 25.2 16 31.0667C24.5334 25.3333 31.6 18.1333 31.6 10.6667C31.6 4.53332 28 1.06665 22.6667 1.06665Z" fill="#CCCCCC"/>
<path d="M1.20001 10.7999C1.20001 18.2666 9.20001 25.3333 15.8667 29.9999C17.8667 28.6666 19.8667 27.0666 21.7333 25.4666C12.8 17.9999 4.26668 11.1999 1.33335 8.79993C1.33335 9.33326 1.20001 9.99993 1.20001 10.7999Z" fill="url(#paint0_linear)"/>
<path d="M30.1334 14.2667C23.6 8.93337 19.7334 6.13337 15.4667 3.60003C14.2667 2.93337 12 1.8667 9.4667 1.8667C7.0667 1.8667 4.93337 2.6667 3.4667 4.13337C2.53337 5.0667 1.8667 6.2667 1.60004 7.73337C4.93337 10.1334 14.1334 16.6667 23.3334 24C26.4 21.0667 28.9334 17.7334 30.1334 14.2667Z" fill="url(#paint1_linear)"/>
<path d="M28.4 4.13337C26.9334 2.6667 24.9334 1.8667 22.5334 1.8667C20 1.8667 18.1334 2.6667 16.6667 3.4667C19.2 4.93337 24.6667 8.00003 30.4 12.2667C30.5334 11.7334 30.5334 11.0667 30.5334 10.5334C30.6667 7.8667 29.8667 5.60003 28.4 4.13337Z" fill="url(#paint2_linear)"/>
<defs>
<linearGradient id="paint0_linear" x1="1.26352" y1="69.1467" x2="97.8141" y2="69.1467" gradientUnits="userSpaceOnUse">
<stop stop-color="#3656CC"/>
<stop offset="0.35" stop-color="#304CB2"/>
<stop offset="0.72" stop-color="#283B80"/>
</linearGradient>
<linearGradient id="paint1_linear" x1="-45.0381" y1="45.3272" x2="39.045" y2="143.175" gradientUnits="userSpaceOnUse">
<stop offset="0.3" stop-color="#E61C23"/>
<stop offset="0.8" stop-color="#C3161C"/>
</linearGradient>
<linearGradient id="paint2_linear" x1="-10.5176" y1="24.2776" x2="35.1909" y2="81.2954" gradientUnits="userSpaceOnUse">
<stop stop-color="#FDBC11"/>
<stop offset="0.25" stop-color="#FCB415"/>
<stop offset="0.8" stop-color="#F89E1C"/>
</linearGradient>
</defs>
</svg>
