<svg width="32" height="32" viewBox="0 0 32 32" fill="none" xmlns="http://www.w3.org/2000/svg">
<path d="M19.5896 21.3268C14.4498 21.7028 7.33717 22.8346 2.22806 22.5576C2.76727 23.6499 3.44004 24.6778 4.23549 25.6197C4.68071 26.1421 5.16155 26.6407 5.68097 27.1047C8.45516 29.598 12.0258 30.9702 15.734 30.9702C19.4649 30.9702 23.0316 29.6207 25.7791 27.17C26.9149 26.1579 27.834 25.0706 28.5651 23.8774C29.0598 23.0691 29.4665 22.2133 29.7929 21.2961C27.5926 20.8588 23.826 21.0161 19.5896 21.3268Z" fill="#1A428A"/>
<path d="M7.45985 3.58357C7.36586 3.56279 7.2689 3.58159 7.19074 3.63699C6.91867 3.82399 6.6456 4.02681 6.38342 4.23557C6.24985 4.34044 6.21324 4.52743 6.29734 4.67386L8.84497 9.08646L8.97656 9.26355L8.97062 9.27246L8.79353 9.13988L4.37697 6.59027C4.23252 6.50617 4.04355 6.5408 3.93967 6.67437C3.73091 6.93754 3.53106 7.20962 3.34308 7.48268C3.28965 7.56183 3.27085 7.65978 3.29163 7.7508C3.31339 7.8438 3.37177 7.92394 3.45389 7.97242L10.988 12.3197L11.1581 12.3652C11.2531 12.3652 11.3481 12.3257 11.4154 12.2485C11.5845 12.0556 11.7666 11.8715 11.9575 11.7043C12.0812 11.5965 12.1109 11.4174 12.0288 11.2769L7.68147 3.74681C7.63299 3.66272 7.55384 3.60435 7.45985 3.58357Z" fill="#1A428A"/>
<path d="M28.1278 7.7487C28.1486 7.65767 28.1308 7.55973 28.0764 7.48058C27.8874 7.20751 27.6856 6.93543 27.4758 6.67226C27.3719 6.53869 27.185 6.50407 27.0395 6.58816L22.6249 9.1358L22.4478 9.26639L22.4419 9.26145L22.5735 9.08435L25.1221 4.66779C25.2062 4.52136 25.1706 4.33239 25.037 4.2295C24.7748 4.02173 24.5018 3.82089 24.2287 3.63291C24.1515 3.57849 24.0546 3.55871 23.9606 3.58146C23.8676 3.60224 23.7884 3.66061 23.74 3.74273L19.3917 11.2768L19.3462 11.447C19.3462 11.5429 19.3877 11.6369 19.4639 11.7042C19.6568 11.8724 19.8418 12.0554 20.0071 12.2474C20.1149 12.3701 20.295 12.4007 20.4364 12.3186L27.9666 7.97031C28.0487 7.92184 28.107 7.84368 28.1278 7.7487Z" fill="#1A428A"/>
<path d="M22.34 2.64647C22.3103 2.55544 22.246 2.48124 22.1599 2.43969C21.8602 2.29722 21.5495 2.16365 21.2359 2.03998C21.0786 1.97765 20.9015 2.03998 20.8154 2.18542L18.2668 6.59901L18.1787 6.80183L18.1698 6.79787L18.1955 6.58021V1.48099C18.1955 1.31081 18.0709 1.16636 17.9017 1.14262C17.5702 1.09414 17.2348 1.05754 16.9054 1.03082C16.8104 1.0239 16.7154 1.05655 16.6472 1.12184C16.5759 1.18516 16.5363 1.27619 16.5363 1.37117L16.5383 10.0697L16.5838 10.2399C16.6303 10.322 16.7134 10.3843 16.8134 10.4051C17.0647 10.4546 17.316 10.5199 17.5554 10.603C17.7107 10.6544 17.8819 10.5901 17.962 10.4496L22.3093 2.91854C22.3568 2.83544 22.3687 2.73749 22.34 2.64647Z" fill="#1A428A"/>
<path d="M30.5914 15.0662C30.6567 14.996 30.6873 14.901 30.6804 14.807C30.6537 14.4765 30.6151 14.1392 30.5656 13.8057C30.5419 13.6395 30.3984 13.5159 30.2293 13.5159L25.132 13.5139L24.9134 13.5396L24.9114 13.5307L25.1132 13.4436L29.5278 10.894C29.6742 10.8079 29.7385 10.6289 29.6742 10.4706C29.5505 10.1599 29.415 9.85024 29.2725 9.55145C29.232 9.46537 29.1568 9.40007 29.0658 9.37237C28.9747 9.34467 28.8768 9.35555 28.7957 9.40205L21.2616 13.7523L21.1379 13.877C21.0904 13.9591 21.0766 14.062 21.1092 14.159C21.1933 14.4013 21.2616 14.6517 21.3091 14.901C21.3417 15.0613 21.4822 15.176 21.6435 15.176L30.3401 15.176C30.435 15.176 30.5261 15.1355 30.5914 15.0662Z" fill="#1A428A"/>
<path d="M2.35469 9.37042C2.26367 9.4001 2.18848 9.4654 2.14791 9.55048C2.00544 9.85026 1.87188 10.1609 1.74821 10.4746C1.6839 10.6309 1.74821 10.809 1.89364 10.895L6.30723 13.4427L6.50907 13.5307L6.50511 13.5406L6.28843 13.5149H1.18921C1.02003 13.5149 0.875581 13.6386 0.851836 13.8077C0.803357 14.1392 0.765761 14.4746 0.739048 14.806C0.733111 14.901 0.764771 14.995 0.829081 15.0643C0.89339 15.1325 0.984412 15.1741 1.07939 15.1741L9.77696 15.1721L9.94812 15.1276C10.0302 15.0781 10.0926 14.997 10.1133 14.897C10.1608 14.6448 10.2271 14.3954 10.3102 14.155C10.3637 13.9997 10.2984 13.8295 10.1589 13.7474L2.62677 9.4001C2.54465 9.3536 2.44571 9.34271 2.35469 9.37042Z" fill="#1A428A"/>
<path d="M14.7713 1.12207C14.7021 1.05875 14.6071 1.0261 14.5121 1.03303C14.1817 1.05974 13.8453 1.09833 13.5128 1.1478C13.3446 1.17352 13.221 1.31599 13.221 1.48517L13.22 6.58242L13.2457 6.80008L13.2368 6.80206L13.1488 6.60121L10.6001 2.18466C10.516 2.03823 10.335 1.97491 10.1767 2.04021C9.86602 2.16388 9.55634 2.29745 9.25755 2.4409C9.17247 2.48147 9.10519 2.55567 9.07749 2.64867C9.0488 2.73772 9.06166 2.83566 9.10816 2.91877L13.4574 10.4518L13.5831 10.5775C13.6672 10.624 13.7671 10.6379 13.8641 10.6052C14.1075 10.5221 14.3568 10.4538 14.6071 10.4053C14.7674 10.3727 14.8831 10.2322 14.8831 10.07L14.8811 1.37337C14.8811 1.27641 14.8416 1.18539 14.7713 1.12207Z" fill="#1A428A"/>
<path d="M29.7306 17.0548C26.5903 17.0548 24.1852 17.8186 17.9502 19.1423C9.12892 21.0162 2.86323 19.4688 1.42666 19.2838C1.21295 19.2571 1.07246 19.3659 1.14469 19.6063C1.30002 20.3236 1.83131 21.8601 2.23102 22.5576C7.34113 22.8347 14.4537 21.7028 19.5925 21.3269C23.83 21.0162 27.5955 20.8589 29.7969 21.2962C30.1531 20.295 30.4153 19.2254 30.5884 18.0699C30.6883 17.409 30.6082 17.0548 29.7306 17.0548Z" fill="#EE5F2A"/>
<path d="M1.04871 18.1262C1.34354 18.2419 5.42173 19.631 11.7527 19.7211C13.5494 19.7478 15.8418 19.4806 17.2111 19.1818C16.4918 19.2956 14.9632 19.5252 13.0676 19.5182C9.41978 19.5054 3.88623 18.2261 1.26043 17.0547C1.15259 17.0052 1.02496 17.024 0.928005 17.0943C0.831047 17.1655 0.77762 17.2803 0.788504 17.401C0.802355 17.5692 0.819174 17.7374 0.836983 17.9056C0.852813 17.9877 0.877547 18.0579 1.04871 18.1262Z" fill="#EE5F2A"/>
</svg>
