<svg width="32" height="32" viewBox="0 0 32 32" fill="none" xmlns="http://www.w3.org/2000/svg">
<path d="M14.08 29.5199C21.4805 29.5199 27.52 23.5229 27.52 16.0799C27.52 8.67939 21.523 2.63989 14.08 2.63989C6.67949 2.63989 0.639999 8.63685 0.639999 16.0799C0.639999 23.5229 6.63696 29.5199 14.08 29.5199Z" fill="#FFE900"/>
<path d="M26.8395 15.3993L28.1154 15.059L29.1362 19.2271L31.0927 18.7593L31.0501 17.6109L30.4972 17.7385L29.7316 14.6763L31.0927 14.336L30.7524 12.8049L29.3914 13.1451L28.9661 11.4438L27.4775 12.4646L27.7327 13.5279L26.4567 13.8682L26.797 15.3993" fill="#1D1D1B"/>
<path fill-rule="evenodd" clip-rule="evenodd" d="M9.35899 14.8891H7.70026C7.70026 14.7615 7.65772 14.4637 7.18988 14.5063C6.84962 14.5063 6.72203 14.7189 6.72203 14.8891C6.72203 15.1443 7.14735 15.3144 7.57266 15.442C8.50836 15.6972 9.52912 15.9949 9.52912 17.1858C9.52912 18.4192 8.46583 19.1422 7.23241 19.1422C6.38178 19.1422 5.10583 18.7594 4.9357 17.2708H6.59443C6.6795 17.7812 7.14735 17.7812 7.23241 17.7812C7.53013 17.7812 7.82785 17.6111 7.82785 17.3559C7.82785 17.061 7.57535 16.968 6.97307 16.7463C6.79368 16.6803 6.58326 16.6029 6.33924 16.5053C5.61621 16.2926 5.02076 15.8248 5.02076 15.0592C5.02076 13.8683 6.04152 13.1453 7.18988 13.1453C7.95545 13.1453 9.2314 13.4005 9.35899 14.8891ZM13.6972 15.4845H15.3985C15.1008 14.1235 13.9099 13.1453 12.4213 13.1453C10.7625 13.1453 9.48659 14.4637 9.48659 16.1225C9.48659 17.7812 10.8051 19.0997 12.4638 19.0997C13.9949 19.0997 15.1008 18.0789 15.3985 16.803H13.6972C13.5271 17.1432 13.1868 17.5686 12.5063 17.5686C11.6982 17.5686 11.1879 16.9731 11.1879 16.165C11.1879 15.7822 11.3154 15.3994 11.5706 15.1443C11.8258 14.8891 12.1661 14.7189 12.5489 14.7615C13.1443 14.6764 13.4846 15.1017 13.6972 15.4845ZM21.3954 16.1225C21.3954 14.7615 20.4172 13.1453 18.3757 13.1453C16.3342 13.1453 15.356 14.7615 15.356 16.1225C15.356 17.4835 16.3342 19.0997 18.3757 19.0997C20.4172 19.0997 21.3954 17.4835 21.3954 16.1225ZM24.4577 13.1453C25.3934 13.1453 26.1165 13.4855 26.6268 13.9959L26.9671 14.4212C27.3073 14.9316 27.4775 15.527 27.4775 16.1225C27.4775 17.4835 26.4992 19.0997 24.4577 19.0997C22.4162 19.0997 21.438 17.4835 21.438 16.1225C21.438 14.7615 22.4162 13.1453 24.4577 13.1453ZM24.4152 17.526C25.1808 17.526 25.7762 16.9306 25.7762 16.1225C25.7762 15.3144 25.1808 14.7189 24.4152 14.7189C23.6496 14.7189 23.0542 15.3144 23.0542 16.1225C23.0542 16.9306 23.6922 17.526 24.4152 17.526ZM18.3757 17.526C19.1413 17.526 19.7367 16.9306 19.7367 16.1225C19.7367 15.3144 19.0987 14.7189 18.3757 14.7189C17.6101 14.7189 17.0147 15.3144 17.0147 16.1225C17.0147 16.9306 17.6527 17.526 18.3757 17.526Z" fill="#1D1D1B"/>
</svg>
