<svg width="32" height="32" viewBox="0 0 32 32" fill="none" xmlns="http://www.w3.org/2000/svg">
<path d="M30.3324 19.5273C30.067 18.9373 29.7131 18.3771 29.3297 17.9053C28.9464 17.4335 28.4746 16.9912 28.0028 16.6373C27.7374 16.4605 27.472 16.3129 27.2065 16.1656C27.0592 16.077 26.9117 16.0182 26.7642 15.9591C26.9117 15.8707 27.0591 15.8119 27.2065 15.7232C27.4719 15.6052 27.7373 15.4284 28.0028 15.2514C28.4746 14.8975 28.9464 14.4846 29.3297 13.9834C29.7131 13.5117 30.0669 12.9514 30.3324 12.3616C30.5978 11.7423 30.8042 11.0936 30.9222 10.4155C30.9811 9.94369 31.0402 9.47189 31.0402 9.02944C31.0402 8.82301 31.0108 8.58711 31.0108 8.38083C30.9518 7.82035 30.8338 7.26015 30.6274 6.69995C30.4504 6.13975 30.1851 5.60888 29.8901 5.10762C29.5658 4.60623 29.1824 4.13443 28.7695 3.72158C28.3272 3.2794 27.826 2.92535 27.3246 2.60105C26.7644 2.2766 26.1746 2.01124 25.5553 1.83428C24.9065 1.65733 24.2283 1.53945 23.5501 1.53945C22.8719 1.50998 22.1937 1.56892 21.5744 1.7164C20.9551 1.86375 20.3654 2.09979 19.8346 2.39448C19.2744 2.68932 18.8026 3.04323 18.3603 3.45608C17.9474 3.86893 17.5935 4.34086 17.2987 4.87145C17.0333 5.40218 16.8269 5.96252 16.7385 6.55205C16.6795 6.87649 16.6499 7.17147 16.6499 7.49563C16.6499 7.761 16.6794 7.99703 16.7089 8.26239C16.1487 7.93809 15.5883 7.67273 15.0281 7.4663C14.3204 7.25987 13.5537 7.11239 12.7281 7.08292C11.9613 7.08292 11.2242 7.14186 10.546 7.31868C9.89723 7.46602 9.27795 7.70206 8.68828 8.02636C8.12808 8.3212 7.59721 8.67497 7.09595 9.08782C6.74218 9.35319 6.41774 9.67777 6.09343 10.0019C6.09343 10.0019 5.59203 10.4737 5.35614 10.7687C5.09077 11.0931 4.82541 11.4173 4.53057 11.8007L3.9113 12.5969C3.73434 12.8328 3.55739 13.0392 3.38057 13.2457C3.1152 13.5405 2.84984 13.8355 2.555 14.1303C2.08321 14.6022 1.58181 15.0444 0.992145 15.3983C0.903736 15.4867 0.785719 15.5753 0.638371 15.6342C0.579432 15.6933 0.490885 15.7228 0.402476 15.7817C0.343537 15.8112 0.25499 15.8703 0.25499 15.9585C0.25499 16.0471 0.343537 16.0765 0.402476 16.1355C0.490885 16.1651 0.579432 16.1946 0.638371 16.2535C0.785719 16.3421 0.903736 16.4009 0.992145 16.4894C1.58195 16.8434 2.08321 17.2855 2.555 17.7573C2.84984 18.0523 3.1152 18.3474 3.38057 18.6422C3.55752 18.8486 3.73448 19.0549 3.9113 19.2908L4.53057 20.0869C4.82541 20.4703 5.09077 20.8241 5.35614 21.1189C5.59203 21.414 6.09343 21.8857 6.09343 21.8857C6.41774 22.2397 6.74218 22.5343 7.09595 22.7996C7.59735 23.2125 8.12808 23.596 8.68828 23.8614C9.27809 24.1857 9.89723 24.4216 10.546 24.5691C11.2242 24.7459 11.9613 24.8049 12.7281 24.8049C13.5537 24.7753 14.3204 24.6575 15.0281 24.4216C15.5883 24.2449 16.1487 23.9498 16.7089 23.6255C16.6794 23.8908 16.6499 24.1267 16.6499 24.3921C16.6499 24.7164 16.6794 25.0115 16.7385 25.3357C16.8269 25.9253 17.0333 26.4858 17.2987 27.0163C17.5935 27.547 17.9474 28.0188 18.3603 28.4317C18.8026 28.8444 19.2744 29.2277 19.8346 29.4931C20.3653 29.7881 20.9551 30.024 21.5744 30.1713C22.1937 30.3187 22.8719 30.3778 23.5501 30.3481C24.2283 30.3481 24.9065 30.23 25.5553 30.0533C26.1746 29.8469 26.7642 29.6111 27.3246 29.2865C27.826 28.9621 28.3272 28.6086 28.7695 28.166C29.1824 27.7532 29.5656 27.2811 29.8901 26.7798C30.1849 26.2786 30.4504 25.7478 30.6274 25.1874C30.8338 24.6272 30.9517 24.067 31.0108 23.5068C31.0108 23.3005 31.0402 23.0646 31.0402 22.8582C31.0402 22.416 30.9813 21.9443 30.9222 21.4723C30.8042 20.7951 30.5978 20.1464 30.3324 19.5273Z" fill="#F5C300"/>
<path d="M28.6515 20.176C28.4156 19.6451 28.0912 19.1733 27.7079 18.731C27.354 18.3185 26.8822 17.9349 26.4104 17.6401C25.9092 17.3451 25.3785 17.1092 24.8476 16.9619C24.2578 16.7849 23.6681 16.6965 23.0783 16.6965C22.4296 16.6965 21.7808 16.7555 21.1615 16.9324C20.6601 17.0503 20.1589 17.2272 19.6871 17.4631C19.2448 17.6696 18.8614 17.9055 18.4781 18.2003C18.0948 18.4657 17.7704 18.731 17.4165 18.9965C17.0922 19.2619 16.7678 19.5274 16.4139 19.7337C16.06 19.9696 15.6767 20.1464 15.2933 20.294C14.8805 20.412 14.4382 20.5004 13.9664 20.5004C13.3766 20.5004 12.7574 20.3823 12.1971 20.1464C11.6664 19.9105 11.165 19.5566 10.7523 19.1439C10.3394 18.731 10.015 18.2003 9.77906 17.6696C9.57264 17.1092 9.48423 16.5194 9.48423 15.9592C9.48423 15.3694 9.57278 14.7799 9.77906 14.2194C10.015 13.6887 10.3394 13.1874 10.7523 12.7451C11.165 12.3322 11.6664 11.9783 12.1971 11.7426C12.7573 11.5067 13.3766 11.3885 13.9664 11.3885C14.4382 11.3885 14.8805 11.4771 15.2933 11.595C15.6767 11.7424 16.06 11.9193 16.4139 12.1553C16.7678 12.3912 17.0921 12.6271 17.4165 12.8924C17.7704 13.1578 18.0948 13.4526 18.4781 13.6885C18.8615 13.9834 19.2449 14.2193 19.6871 14.4257C20.1589 14.6616 20.6601 14.868 21.1615 14.986C21.7808 15.1334 22.4296 15.1925 23.0783 15.1925C23.668 15.1925 24.2578 15.104 24.8476 14.9271C25.3783 14.7797 25.9092 14.5437 26.4104 14.249C26.8822 13.954 27.354 13.5708 27.7079 13.1578C28.0913 12.7156 28.4156 12.2438 28.6515 11.7131C28.8874 11.1528 29.0644 10.563 29.1233 9.97329C29.2117 9.32455 29.1822 8.6758 29.0644 8.02719C28.9464 7.43738 28.7399 6.87705 28.4451 6.31698C28.1797 5.81572 27.8258 5.34393 27.4131 4.93094C27.0002 4.54756 26.5285 4.19365 26.0272 3.92829C25.4965 3.66292 24.9656 3.45649 24.4054 3.36809C23.7861 3.25007 23.1965 3.19113 22.5772 3.27954C21.9874 3.33848 21.4272 3.51543 20.8964 3.7808C20.3952 4.04616 19.9234 4.37061 19.54 4.78346C19.1566 5.19617 18.8618 5.6681 18.6259 6.19869C18.4195 6.69995 18.272 7.26029 18.2425 7.82049C18.213 8.4399 18.3015 9.02943 18.4784 9.58977C18.4784 9.67832 18.5079 9.73712 18.5374 9.82567C18.5374 9.85514 18.5668 9.88461 18.5668 9.91421C18.5963 9.97315 18.5963 10.0026 18.6258 10.0614C18.6258 10.0614 18.6552 10.0909 18.6847 10.0909C18.7436 10.0909 18.7436 10.0614 18.7436 10.032C18.7731 9.94355 18.7731 9.855 18.7731 9.76659C18.8026 9.47176 18.8911 9.17692 19.009 8.88195C19.2154 8.38069 19.5692 7.93837 20.041 7.61392C20.5128 7.31895 21.073 7.14213 21.6333 7.11253C22.2231 7.08292 22.8424 7.17146 23.3731 7.46644C23.8745 7.70233 24.2872 8.11518 24.5526 8.58698C24.818 9.05877 24.936 9.64871 24.936 10.2089C24.936 10.7987 24.759 11.3589 24.4642 11.8603C24.1694 12.3616 23.7269 12.7744 23.1962 13.0105C22.6948 13.2758 22.0756 13.3938 21.5153 13.3348C21.1026 13.2758 20.7192 13.1578 20.3653 13.0105C19.9819 12.804 19.6281 12.5976 19.3037 12.3322C18.9499 12.0669 18.596 11.772 18.2717 11.4771C17.9178 11.1822 17.5346 10.8577 17.1806 10.5923C16.7678 10.268 16.3549 10.0025 15.9421 9.76659C15.4703 9.50122 14.969 9.2948 14.4678 9.14731C13.878 8.99997 13.2883 8.91142 12.6985 8.91142C12.0792 8.91142 11.4599 8.94089 10.8703 9.08824C10.3689 9.20639 9.86761 9.38307 9.39582 9.64871C8.98297 9.855 8.57012 10.1498 8.21634 10.4448C7.83296 10.7691 7.50866 11.0934 7.18435 11.4475C6.85991 11.8012 6.56508 12.1845 6.27024 12.568C6.00488 12.9219 5.70991 13.3053 5.41507 13.6591C5.12024 14.013 4.79579 14.3668 4.47149 14.6911C4.14705 15.0451 3.79327 15.3398 3.40989 15.5758C3.32134 15.6348 3.26241 15.6939 3.174 15.7231C3.11506 15.782 3.05598 15.782 2.99704 15.8117C2.96757 15.8412 2.90849 15.9001 2.90849 15.9589C2.90849 15.9884 2.96757 16.0474 2.99704 16.077C3.05598 16.1066 3.11506 16.136 3.174 16.1656C3.26241 16.1951 3.32134 16.2541 3.40989 16.3129C3.79327 16.5486 4.14705 16.8732 4.47149 17.1976C4.79579 17.5219 5.1201 17.8759 5.41507 18.2296C5.70991 18.5837 6.00488 18.9668 6.27024 19.3503C6.56508 19.7044 6.85991 20.0875 7.18435 20.4415C7.50866 20.7954 7.8331 21.1194 8.21634 21.4442C8.57026 21.739 8.98311 22.0338 9.39582 22.2403C9.86761 22.5056 10.3689 22.6824 10.8703 22.8005C11.4599 22.9478 12.0792 23.0069 12.6985 22.9774C13.2883 22.9774 13.878 22.8889 14.4678 22.7415C14.969 22.5942 15.4703 22.3875 15.9421 22.1221C16.3549 21.8862 16.7678 21.6208 17.1806 21.2964C17.5346 21.031 17.9178 20.7066 18.2717 20.4116C18.5962 20.1167 18.9499 19.8218 19.3037 19.5565C19.6281 19.2911 19.9819 19.0847 20.3653 18.9078C20.7192 18.7309 21.1026 18.613 21.5153 18.5834C22.0756 18.5243 22.6948 18.613 23.1962 18.8784C23.7269 19.1141 24.1692 19.527 24.4642 20.0285C24.7592 20.5299 24.936 21.09 24.936 21.6801C24.936 22.2403 24.818 22.8301 24.5526 23.3313C24.2872 23.8031 23.8744 24.1865 23.3731 24.4224C22.8424 24.7172 22.2231 24.8058 21.6333 24.7764C21.0731 24.747 20.5128 24.5702 20.041 24.2752C19.5692 23.9506 19.2153 23.5084 19.009 23.0072C18.891 22.7123 18.8026 22.4174 18.7731 22.1224C18.7731 22.0338 18.7731 21.9457 18.7436 21.8569C18.7436 21.8569 18.7436 21.7979 18.6847 21.7979C18.6552 21.7979 18.6258 21.8274 18.6258 21.8569C18.5963 21.8865 18.5963 21.916 18.5668 21.975C18.5668 22.0045 18.5374 22.034 18.5374 22.0634C18.5079 22.152 18.4784 22.2109 18.4784 22.2993C18.3015 22.8597 18.213 23.4495 18.2425 24.0688C18.272 24.629 18.4195 25.1892 18.6259 25.6906C18.8618 26.2213 19.1566 26.6931 19.54 27.0766C19.9234 27.5188 20.3952 27.8434 20.8964 28.1087C21.4272 28.3742 21.9875 28.5509 22.5772 28.6101C23.1965 28.6985 23.7861 28.6691 24.4054 28.5213C24.9656 28.4329 25.4965 28.2265 26.0272 27.9611C26.5285 27.6957 27.0002 27.3417 27.4131 26.9586C27.826 26.5459 28.1799 26.0738 28.4451 25.5725C28.7399 25.0122 28.9465 24.4517 29.0644 23.8329C29.1824 23.2135 29.2117 22.5647 29.1233 21.9161C29.0644 21.3259 28.8874 20.7362 28.6515 20.176Z" fill="#370E62"/>
<path d="M20.0706 15.9592C20.0706 15.9298 20.0706 15.9003 20.0411 15.9003C19.3334 15.7233 18.6847 15.3401 18.0949 14.8976C17.4756 14.4553 16.8859 13.954 16.2372 13.5117C15.6179 13.0989 14.9102 12.7156 14.1436 12.6859C13.5243 12.6269 12.9052 12.7746 12.3743 13.0693C11.8729 13.3346 11.4602 13.7475 11.1949 14.2487C10.9 14.7499 10.7525 15.3398 10.7525 15.9293V15.9588C10.7525 16.5485 10.8999 17.1384 11.1949 17.6397C11.4602 18.1409 11.8731 18.5535 12.3743 18.819C12.9051 19.1139 13.5243 19.2612 14.1436 19.2317C14.9104 19.1727 15.6181 18.7894 16.2372 18.3766C16.8859 17.9342 17.4758 17.433 18.0949 16.9904C18.6847 16.5481 19.3334 16.1648 20.0411 15.9877C20.0706 15.9886 20.0706 15.9592 20.0706 15.9592Z" fill="#B6007D"/>
</svg>
