<svg width="32" height="32" viewBox="0 0 32 32" fill="none" xmlns="http://www.w3.org/2000/svg">
<g clip-path="url(#clip0)">
<path d="M15.5289 11.4231C15.5289 11.4231 15.1402 10.7084 15.1282 10.1173C15.1163 9.52816 15.0405 8.37188 14.8401 7.59438C14.6398 6.81488 13.9879 5.25888 13.3609 4.25411C12.7339 3.25033 12.4199 2.43296 11.6544 1.96845C10.8898 1.50395 10.6885 1.10224 10.0236 0.963681C9.35875 0.825126 8.78061 0.67461 8.40382 1.0504C8.02703 1.42719 7.31232 2.06714 7.23557 2.7948C7.16081 3.52246 7.22261 4.59003 7.88648 5.98355C8.55134 7.37708 9.20425 8.93407 10.0186 10.0016C10.834 11.0702 12.3272 12.991 12.3272 12.991C12.3272 12.991 11.6703 12.699 11.3723 12.5315C10.6606 12.1318 10.1572 11.6075 9.593 11.4191C9.02681 11.2307 8.17356 10.7672 7.48377 10.7034C6.79399 10.6406 5.78822 10.514 5.14927 10.4263C4.50933 10.3376 3.12777 10.211 2.53766 10.3495C1.94756 10.4881 0.980666 10.7502 0.83015 11.3284C0.678636 11.9045 0.55304 12.9093 0.841114 13.2981C1.13019 13.6868 1.55681 14.1643 2.62339 14.4793C3.69096 14.7942 4.37975 15.1082 4.95789 15.3843C5.53503 15.6605 6.75013 16.115 7.64924 16.2157C8.61713 16.3243 9.32585 16.4669 9.62689 16.442C9.92892 16.416 11.6514 16.42 11.6514 16.42C11.6514 16.42 11.2238 16.6941 10.5509 16.9772C9.74949 17.3132 8.59819 17.7059 7.78281 18.2701C6.96544 18.8363 6.43714 18.8492 6.03543 19.1762C5.63272 19.5031 5.33468 20.0344 5.15924 20.4351C4.9838 20.8368 4.79142 21.0202 4.49039 21.421C4.18836 21.8237 3.42282 22.7397 3.2723 23.3169C3.12079 23.894 3.057 24.4592 3.35902 24.8111C3.66006 25.1639 4.28704 25.7899 5.40445 25.451C6.52286 25.1131 7.70207 24.839 8.49353 24.3486C9.28399 23.8601 10.3506 23.2959 11.1929 22.4048C12.0342 21.5137 14.1195 19.2798 14.1195 19.2798C14.1195 19.2798 13.8802 19.9955 13.4536 21.0242C13.026 22.0539 12.5983 23.4604 12.5724 24.2887C12.5475 25.1171 12.5465 26.4976 12.6462 27.5772C12.7469 28.6557 12.9971 29.4093 13.5373 30.1758C14.0756 30.9414 14.7405 31.4577 15.4432 31.1048C16.1469 30.754 16.6493 30.3782 16.8636 29.488C17.0779 28.5949 17.1776 27.6669 17.4049 27.1157C17.6302 26.5624 18.3718 25.0942 18.3598 23.8771C18.3469 22.66 18.4107 22.2204 18.2223 21.1528C18.0359 20.0852 17.7219 18.8931 17.7219 18.8931C17.7219 18.8931 18.0608 19.2569 18.4745 20.149C18.8891 21.0392 19.3526 22.1586 20.481 23.1614C21.6114 24.1661 23.2421 25.6743 24.1841 26.2395C25.1251 26.8047 26.0412 27.5712 26.6303 27.307C27.2214 27.0449 27.7357 26.2534 27.8743 25.3374C28.0118 24.4213 28.2132 23.4415 27.5354 22.338C26.8595 21.2316 25.78 20.0773 24.525 19.0725C23.2711 18.0677 22.4806 17.4258 21.6652 16.9862C20.8498 16.5476 19.8201 15.9944 19.8201 15.9944C19.8201 15.9944 20.3215 15.9944 21.0243 16.2705C21.728 16.5476 22.8703 16.8875 23.7485 16.8875C24.6277 16.8875 25.5687 16.8257 26.6741 16.5247C27.7786 16.2247 28.7205 16.0472 29.3724 15.5847C29.9745 15.1581 30.453 14.857 30.8796 14.5809C31.3062 14.3058 32.2223 13.8164 31.9223 13.0887C31.6212 12.3601 31.069 11.757 29.9267 11.4171C28.7843 11.0782 26.8785 10.6496 25.5089 10.8629C24.1403 11.0752 23.0229 11.2885 21.9433 11.6404C20.8628 11.9903 18.7924 12.8056 18.7924 12.8056C18.7924 12.8056 19.1064 12.2405 20.1491 11.3752C21.1897 10.509 22.032 9.87007 22.6979 8.62706C23.3638 7.38405 23.8412 6.83282 24.0934 5.70345C24.3456 4.57308 24.232 4.41061 24.3456 3.81951C24.4582 3.2304 24.9606 2.22563 24.7483 1.7362C24.535 1.24777 23.7565 0.694546 22.9282 0.794226C22.0988 0.894902 21.0312 1.3325 20.4292 1.88572C19.8271 2.43695 18.9539 3.28024 17.98 5.21104C16.6224 7.89641 15.5289 11.4231 15.5289 11.4231Z" fill="#0077C0"/>
<path d="M14.873 10.6406C14.873 10.6406 14.4843 9.92492 14.4723 9.33582C14.4594 8.74472 14.3846 7.58943 14.1842 6.81093C13.9829 6.03343 13.332 4.47543 12.705 3.47166C12.077 2.46788 11.765 1.6515 10.9985 1.186C10.2329 0.720495 10.0336 0.318786 9.36673 0.181228C8.70286 0.0426732 8.12372 -0.10884 7.74793 0.267949C7.37114 0.644739 6.65544 1.28468 6.57968 2.01334C6.50392 2.74001 6.56672 3.80758 7.23059 5.2011C7.89645 6.59462 8.54836 8.15162 9.36274 9.21919C10.1781 10.2868 11.5706 12.1099 11.5706 12.1099C11.5706 12.1099 10.83 11.8448 10.6297 11.5666C10.4293 11.2905 9.72657 10.6376 9.16139 10.4482C8.5972 10.2598 7.51767 9.98374 6.82689 9.92094C6.1371 9.85714 5.52906 9.85415 4.89011 9.76643C4.24817 9.67871 2.86761 9.55212 2.2775 9.69068C1.6884 9.82823 0.570985 10.3027 0.419472 10.8799C0.268955 11.457 0.163295 11.7182 0.710537 12.404C1.01356 12.7817 1.16807 13.2522 2.23464 13.5682C3.30121 13.8822 3.76472 14.267 4.34087 14.5451C4.91902 14.8202 6.169 15.182 7.06412 15.3146C7.60937 15.3953 7.74693 15.516 9.13348 15.6386C9.41158 15.6625 11.453 15.6984 11.453 15.6984C11.453 15.6984 10.6337 16.2247 9.91796 16.3632C9.20325 16.4998 7.94031 16.8547 7.12293 17.4198C6.30656 17.984 5.76829 18.1993 5.36658 18.5263C4.96487 18.8522 4.69274 19.2868 4.5183 19.6876C4.34087 20.0893 4.20431 20.3235 3.90328 20.7252C3.60125 21.1269 2.83471 22.043 2.6842 22.6201C2.53268 23.1973 2.40111 23.6767 2.70313 24.0286C3.00317 24.3795 3.63115 25.0075 4.74856 24.6686C5.86498 24.3306 7.04519 24.0565 7.83764 23.5671C8.6281 23.0777 9.69467 22.5125 10.536 21.6223C11.3783 20.7302 13.4636 18.4974 13.4636 18.4974C13.4636 18.4974 13.2243 19.2131 12.7967 20.2418C12.3701 21.2715 11.9415 22.677 11.9165 23.5053C11.8916 24.3336 11.8896 25.7142 11.9903 26.7927C12.09 27.8733 12.3402 28.6278 12.8804 29.3944C13.4187 30.1589 14.0836 30.6743 14.7873 30.3234C15.491 29.9715 15.9934 29.5937 16.2067 28.7046C16.4211 27.8125 16.5217 26.8844 16.748 26.3322C16.9733 25.78 17.7149 24.3117 17.7039 23.0936C17.691 21.8765 17.7548 21.4369 17.5664 20.3704C17.38 19.3028 17.066 18.1106 17.066 18.1106C17.066 18.1106 17.4049 18.4745 17.8186 19.3656C18.2322 20.2567 18.6958 21.3761 19.8251 22.3779C20.9545 23.3847 22.5863 24.8918 23.5272 25.458C24.4682 26.0212 25.3843 26.7877 25.9734 26.5246C26.5645 26.2614 27.0788 25.471 27.2184 24.5539C27.3559 23.6389 27.5573 22.659 26.8805 21.5556C26.2036 20.4481 25.1241 19.2948 23.8691 18.29C22.6152 17.2853 21.8257 16.6433 21.0083 16.2038C20.1929 15.7642 19.1633 15.2119 19.1633 15.2119C19.1633 15.2119 19.6656 15.2119 20.3684 15.4881C21.0711 15.7642 22.2125 16.1051 23.0926 16.1051C23.9708 16.1051 24.9118 16.0423 26.0182 15.7432C27.1227 15.4422 28.0647 15.2648 28.7166 14.8023C29.3196 14.3756 29.7971 14.0746 30.2227 13.7985C30.6503 13.5224 31.5674 13.0339 31.2654 12.3053C30.9653 11.5766 30.4121 10.9736 29.2698 10.6346C28.1294 10.2957 26.2206 9.86711 24.852 10.0804C23.4844 10.2917 22.367 10.5051 21.2864 10.8579C20.2079 11.2088 18.1356 12.0242 18.1356 12.0242C18.1356 12.0242 18.4495 11.458 19.4922 10.5918C20.5338 9.72656 21.3761 9.08662 22.042 7.84461C22.7079 6.6016 23.1843 6.05037 23.4365 4.92C23.6887 3.78964 23.5751 3.62815 23.6887 3.03705C23.8023 2.44795 24.3047 1.44417 24.0914 0.953746C23.8771 0.464319 23.1006 -0.0879073 22.2713 0.0117725C21.4429 0.111452 20.3754 0.550043 19.7723 1.10327C19.1702 1.65549 18.297 2.49878 17.3232 4.42759C15.9665 7.11296 14.873 10.6406 14.873 10.6406Z" fill="white"/>
<path d="M19.3008 21.107C19.245 21.0741 21.4808 23.6817 22.5205 24.3755C23.5611 25.0703 25.0962 26.0112 25.3444 26.0112C25.5926 26.0112 22.8673 23.9798 21.9762 23.1375C21.0841 22.2962 19.4892 21.2226 19.3008 21.107Z" fill="#A3DEF9"/>
<path d="M21.8227 11.0305C23.7047 10.6338 25.3195 10.1812 27.4207 10.4344C29.0555 10.6338 30.2616 11.3305 30.7401 11.9216C30.7401 11.9216 30.1898 11.5957 29.3027 11.3774C26.9911 10.8092 27.8174 11.2279 25.8847 11.0793C23.9529 10.9308 24.0027 10.882 23.2103 10.9806L21.8227 11.0305Z" fill="#A3DEF9"/>
<path d="M14.8013 15.5757C15.0684 15.1421 15.2558 15.1092 15.8031 15.9396C16.1948 16.4838 16.7839 16.9673 17.0221 17.3421C17.369 17.8863 17.8156 18.9768 18.1615 19.4732C18.1615 19.4732 17.5654 17.9362 17.2673 17.0949C16.9703 16.2526 15.2249 15.6066 16.3144 15.1611C16.7201 14.9966 16.3932 14.6886 16.6414 14.6886C16.8985 14.7045 17.8893 14.9926 17.9023 14.9966C17.9352 15.0076 16.5088 14.559 16.8068 13.9081C17.1049 13.2572 17.2634 13.2741 17.8256 12.8555C18.3887 12.4358 19.6248 11.9384 19.6248 11.9384C18.7526 12.2255 17.9232 12.4787 17.4179 12.6781C16.9294 12.8714 16.5596 13.1914 16.2466 13.3349C16.1091 13.3479 15.9167 13.2313 15.8439 13.1525C15.7383 13.0369 15.7682 12.8904 15.7422 12.7299C15.7881 12.2674 15.803 11.8059 15.7881 11.3394C15.7702 10.8061 15.6625 10.4781 16.456 8.84337C17.2484 7.20763 17.9392 7.48972 18.9539 6.04835C19.3507 5.48516 19.9447 3.66999 20.2428 2.97622C20.5398 2.28345 21.0053 1.08729 22.2912 0.68957C22.974 0.478249 23.5621 0.797224 23.5621 0.797224C23.2641 0.00377315 22.1855 0.308793 21.1449 0.605839C20.1052 0.902884 18.7885 1.71328 17.5185 4.90802C17.3102 5.43233 16.765 6.78399 16.5327 7.29834C16.0971 8.25626 15.9476 8.36491 15.5668 9.34576C15.4233 9.71557 15.2648 10.0804 15.1262 10.4512C15.0804 10.5738 14.9867 10.7084 14.9578 10.833C14.9528 10.8569 14.9498 10.8798 14.9478 10.9028C14.9328 11.1599 15.1621 11.3573 15.2438 11.5826C15.3076 11.753 15.3585 12.3371 15.3455 12.5265C15.3565 12.8844 14.9727 12.8346 14.8631 12.8904C14.4255 13.1156 13.7995 12.8395 13.4357 12.5405C12.8446 11.9793 12.096 11.141 11.769 10.8091C10.6915 9.71756 10.847 8.25227 9.98873 6.98833C9.14644 5.75031 6.83486 4.87911 7.80873 2.87754C8.31511 1.83788 7.80873 1.09427 8.20546 0.549021C8.58325 0.0276963 5.67858 1.58868 8.05594 6.29556C10.4343 11.0024 11.1281 10.8021 11.3264 11.2496C11.4411 11.5078 11.6733 11.8796 11.9355 12.1627C11.8308 12.5744 10.2768 11.441 9.79435 11.1988C8.88428 10.7443 8.69987 10.6406 6.65145 10.3356C4.60204 10.0316 3.87936 10.0355 2.9334 9.9558C1.11125 9.80429 0.580956 10.829 0.580956 10.829C1.68142 10.2977 2.62937 10.1093 3.65408 10.3745C4.67879 10.6406 5.52208 10.4313 6.85081 10.7343C8.17755 11.0383 10.523 12.4946 11.5258 12.7488C12.2883 12.9402 13.7606 13.0499 14.0238 13.5363C14.6966 14.7893 12.9123 14.1703 12.3312 14.9398C11.6085 15.8957 11.0782 16.0542 9.0966 16.7978C7.11496 17.5404 5.48022 18.4326 4.93596 19.4732C4.39072 20.5119 3.6481 21.2555 3.20154 21.9483C2.75597 22.642 2.0622 24.6237 3.89531 24.5738C3.89531 24.5738 2.4649 24.3167 3.00616 23.284C3.49559 22.35 3.49858 21.7021 4.58908 21.2555C5.67858 20.8099 5.01969 19.0595 6.45608 18.4156C7.89247 17.7717 9.20325 17.5933 10.0615 17.3471C11.1211 17.045 11.8408 15.6515 12.4199 15.2727C13.957 14.2709 14.6677 15.2946 14.0457 16.8307C14.0457 16.8307 14.5351 16.0094 14.8013 15.5757Z" fill="#A3DEF9"/>
<path d="M13.2084 20.3634C12.9612 21.1568 12.8097 21.8496 12.6143 23.2371C12.4179 24.6237 12.5156 24.6237 12.4159 25.8617C12.3172 27.1007 12.4159 27.5961 12.9113 28.6358C14.0108 30.9454 14.5301 29.9157 14.6946 29.9247C14.6946 29.9247 13.8663 30.1808 13.7536 27.646C13.7297 27.1197 13.8523 26.2096 13.7038 25.3673C13.5553 24.525 14.0008 23.4355 14.0008 22.8404C14.0008 22.2463 13.3429 19.5998 13.6898 18.4106L13.2084 20.3634Z" fill="#A3DEF9"/>
<path d="M15.5239 13.8004C15.7263 13.9659 15.8748 14.1602 15.7672 14.3845C15.6585 14.6088 15.4073 14.8969 15.1113 14.7613C14.8142 14.6277 14.7335 14.5101 14.7245 14.2589C14.7155 14.0077 14.8063 13.7745 15.0664 13.7376C15.3276 13.7027 15.3804 13.6838 15.5239 13.8004Z" fill="white"/>
</g>
<defs>
<clipPath id="clip0">
<rect width="32" height="32" fill="white"/>
</clipPath>
</defs>
</svg>
