<svg width="32" height="32" viewBox="0 0 32 32" fill="none" xmlns="http://www.w3.org/2000/svg">
<path fill-rule="evenodd" clip-rule="evenodd" d="M15.6922 0.0908203C24.2085 0.0908203 31.1547 7.03677 31.1547 15.5531C31.1547 24.0697 24.2085 31.0156 15.6922 31.0156C7.1756 31.0156 0.229645 24.0697 0.229645 15.5531C0.229645 7.03677 7.1756 0.0908203 15.6922 0.0908203Z" fill="#D8232A"/>
<path fill-rule="evenodd" clip-rule="evenodd" d="M31.1494 15.137C31.3607 23.797 24.3829 31.0156 15.6922 31.0156C7.1756 31.0156 0.229645 24.0696 0.229645 15.553C0.229645 13.6902 0.491214 12.2631 0.931474 11.0062C5.09526 7.98024 5.93554 13.3963 8.23792 14.3257C11.0079 15.4436 13.7048 14.4289 16.0404 13.0715C20.9959 15.9447 26.0088 17.2571 31.1494 15.137Z" fill="#009949"/>
<path fill-rule="evenodd" clip-rule="evenodd" d="M31.1547 15.1368C28.1974 15.6549 24.8852 15.3074 21.176 13.6939C18.6374 12.5899 14.0799 9.08769 12.9878 8.61916C11.8961 8.1504 11.1739 7.74415 9.52109 8.48047C6.67042 9.75023 11.9061 12.1451 10.5992 13.2359C9.43198 14.1849 6.87258 9.78449 3.57063 9.55933C2.34351 9.47549 1.64408 10.0844 0.885956 11.0459C1.83355 11.0229 2.27931 10.7421 3.20942 10.9218C4.69667 11.2092 6.04117 16.3728 9.3 18.9085C11.6151 20.71 15.2536 21.901 22.0711 22.6948C23.334 22.8416 24.3364 23.5729 25.4689 24.1509C25.3827 23.5729 25.2607 23.0847 24.9601 22.507C25.7616 22.2339 25.9719 21.8148 26.4395 21.4466C20.9245 20.6868 16.3516 20.1996 13.7507 16.8011C12.5972 15.2942 14.4904 14.4623 15.8308 14.9984C17.905 15.8281 19.9431 16.8354 22.4872 17.2172C25.9278 17.7334 29.8607 16.4428 31.1547 15.1368Z" fill="#FFFFFE"/>
<path fill-rule="evenodd" clip-rule="evenodd" d="M5.25885 17.1333C9.18694 21.8705 17.0745 25.0446 23.4657 24.5396C21.782 25.2161 17.7023 25.8156 13.2556 24.3454C8.61685 22.8119 6.34082 19.6668 5.25885 17.1333Z" fill="#FFFFFE"/>
</svg>
