<svg width="32" height="32" viewBox="0 0 32 32" fill="none" xmlns="http://www.w3.org/2000/svg">
<g clip-path="url(#clip0)">
<path fill-rule="evenodd" clip-rule="evenodd" d="M20.3928 6.77124C20.3928 6.63137 20.4454 6.53677 20.4946 6.44836C20.9397 5.64698 22.1446 6.02238 22.198 6.66497C21.9283 6.6022 21.8029 6.50565 21.3485 6.50565C21.2021 6.50565 20.9238 6.80838 20.9238 7.03666C20.9238 7.49535 21.0051 7.37564 21.0299 7.67377C20.85 7.66988 20.8023 7.66599 20.6189 7.4476C20.3684 7.14894 20.3928 7.02446 20.3928 6.77124ZM6.32178 4.0101C6.32178 4.81572 6.25512 5.69861 6.39835 6.48231C6.50533 7.06796 6.58455 7.60074 6.77357 8.17772C7.22908 9.56793 7.25879 9.78914 7.87662 11.1633C8.0317 11.5082 8.16838 11.7632 8.33053 12.09C8.4193 12.2691 8.475 12.3609 8.57455 12.5363L9.36585 13.8157C9.38247 13.8409 9.41059 13.8818 9.43145 13.9094L9.90995 14.5992C10.0348 14.7719 10.071 14.8377 10.2063 14.993L11.1458 16.1243C11.3345 16.3607 11.6009 16.5855 11.8239 16.8267L11.987 16.9823C12.0674 17.0551 12.1008 17.0894 12.176 17.1649C12.3036 17.2933 12.3929 17.3822 12.521 17.5103C12.7726 17.7619 12.98 17.9332 13.2373 18.1744C13.6205 18.5336 14.4979 19.0448 14.7644 19.4085L14.552 19.9926C13.868 19.6306 13.0893 19.0854 12.4858 18.6073L9.3289 15.7109C9.27549 15.6486 9.28398 15.6566 9.22863 15.5988L7.40591 13.2268L6.66235 11.8996C6.56138 11.7183 6.50356 11.5954 6.40984 11.4087C5.89192 10.376 5.04739 8.24668 5.04739 7.19598C4.64918 7.19598 4.21613 7.34734 3.9005 7.53566C3.68848 7.6621 3.55162 7.81876 3.40821 7.99913C2.1996 9.51895 2.65953 11.5924 3.57213 13.1315C4.30897 14.3741 5.39486 15.5839 6.50497 16.5172C6.6475 16.6371 6.42098 16.4451 6.56297 16.5653C6.62433 16.6173 6.62239 16.6166 6.6772 16.6638C8.15335 17.9347 8.82671 18.2413 10.4657 19.1937C11.4215 19.7489 12.5104 20.1705 13.5169 20.603C13.6336 20.653 13.6636 20.6626 13.7881 20.7032C13.9863 20.7679 14.1725 20.8562 14.3396 20.8953C14.1566 21.2765 14.5444 21.6284 13.9122 21.4882C13.0005 21.2857 12.0953 21.0238 11.2128 20.7298L9.554 20.1054C8.50347 19.64 7.49998 19.1357 6.54494 18.495C6.42452 18.4142 6.33398 18.3645 6.21816 18.2906C5.41148 17.7769 4.67358 17.1476 3.99881 16.4748C3.72438 16.2012 3.07224 15.5192 2.97658 15.1606C2.65688 15.1873 2.49101 15.5293 2.34831 15.7537C2.2691 15.8783 2.20155 16.0294 2.15292 16.1954C2.12693 16.2849 2.10924 16.3715 2.08643 16.4475C1.92022 17.0063 2.00934 17.7644 2.22436 18.3023C2.48924 18.965 2.97198 19.4939 3.51537 19.9317C3.61757 20.014 3.66284 20.0796 3.76416 20.1607C3.84939 20.229 3.95408 20.2907 4.04903 20.3536C4.45467 20.6224 4.79471 20.8641 5.23218 21.0822C6.03037 21.48 6.84943 21.753 7.72968 21.9829C8.36873 22.1498 9.11918 22.332 9.77644 22.3787L10.6783 22.4856C11.468 22.5463 12.6934 22.6043 13.4871 22.5385C14.3449 22.4673 14.2281 22.2706 14.387 22.9185C14.4293 23.0907 14.4279 22.9631 14.4457 23.1784C14.1554 23.1848 14.2459 23.2444 14.0137 23.2773C13.7733 23.3112 13.7107 23.2835 13.4898 23.3376C12.6859 23.5346 11.065 23.6032 10.1978 23.6032C8.55563 23.6032 6.56828 23.2439 5.17188 22.629C4.76553 22.4501 4.39296 22.3085 4.01596 22.086C3.8036 21.9606 3.53659 21.7117 3.29522 21.6917C3.2687 21.8054 3.2526 21.9046 3.21795 22.0392C2.99621 22.8975 3.22803 23.9262 3.9005 24.5377C4.00765 24.635 4.05009 24.656 4.15778 24.7582C5.22953 25.7744 6.89187 25.9394 8.33955 25.9394C8.71354 25.9394 8.94819 25.8722 9.25074 25.842C9.66204 25.8008 9.81234 25.7714 10.183 25.712C10.2682 25.6984 10.4698 25.6676 10.5831 25.6344C11.6658 25.3179 12.2884 25.1587 13.4214 24.7027C13.4369 24.6965 13.4815 24.6783 13.4971 24.6723C13.8661 24.5269 14.4489 24.2201 14.8174 24.1342C14.9407 24.3183 15.0834 24.5713 15.1891 24.7713C15.1042 24.8282 15.0986 24.8457 15.0064 24.9073C14.9193 24.9653 14.8586 24.9968 14.7744 25.047C14.6019 25.1499 14.4894 25.2273 14.3172 25.3329C14.1548 25.4325 14.0493 25.506 13.8882 25.5944L12.9326 26.0724C12.7351 26.1654 12.6041 26.199 12.4023 26.2855L12.1351 26.39C11.0512 26.7732 10.0549 27.0485 8.87038 27.1075C8.62689 27.1197 8.53777 27.1655 8.23275 27.1638C7.84903 27.1616 7.2213 27.1116 6.88409 27.023C6.61531 26.9523 6.53504 26.9033 6.32178 26.9484C6.32815 27.237 6.47262 27.6909 6.57128 27.9201C6.69117 28.1986 6.89612 28.4933 7.11644 28.6493C8.13196 29.3683 9.5425 29.3173 10.7101 29.0003L11.4121 28.7465C11.9392 28.5481 12.5892 28.1844 13.0507 27.8366C13.7892 27.2799 14.4417 26.7134 15.0963 26.059C15.2745 25.8805 15.5318 25.526 15.7732 25.4616L16.1979 25.8864C16.127 26.1525 15.8297 26.4179 15.6533 26.6161C15.5346 26.7493 15.4819 26.8285 15.3647 26.9647L14.0576 28.2594C13.4392 28.7798 12.6665 29.2724 11.9281 29.5812L10.5462 30.0047C10.2045 30.0747 10.2756 29.9808 9.98545 30.1343C10.6241 31.0881 11.0049 31.2493 12.1625 31.2493C13.545 31.2493 14.9362 29.6676 15.6144 28.7009C15.6975 28.5824 15.7654 28.5009 15.8589 28.3614L16.5351 27.1791C16.664 26.925 16.8044 26.5687 16.9413 26.3643L17.4716 26.6312C17.4247 26.8342 17.465 26.6441 17.4189 26.7887C17.0341 27.9952 16.4637 29.0995 15.6513 30.0655C14.9378 30.9141 13.9151 31.2631 13.8086 31.4085C13.9621 31.9839 15.4036 32.4123 16.5583 31.3441L16.6976 31.2179C16.9918 30.927 17.2226 30.5175 17.3749 30.1428C17.4159 30.0416 17.4695 29.9216 17.5172 29.8075C17.7274 29.3055 17.9727 28.2993 18.0486 27.7901C18.0979 27.4584 18.1626 27.2184 18.1626 26.8953C18.4317 26.8953 18.4519 26.9484 18.7467 26.9484C18.7467 27.8124 18.77 28.7039 18.5718 29.5347C18.5539 29.6091 18.4742 29.8777 18.4367 29.9836L18.407 30.06C18.4003 30.077 18.3715 30.1507 18.3614 30.1739C18.1387 30.6886 17.7959 30.9975 17.5786 31.4085C17.9349 31.5972 18.3854 31.6039 18.7755 31.4904C18.9569 31.4375 18.9025 31.4727 19.0554 31.3988C19.3887 31.2375 19.6595 31.0221 19.8342 30.6906C20.1093 30.1679 20.0211 29.4943 20.0211 28.9129C20.0211 28.3358 19.6107 28.0887 20.2822 28.059C20.4808 28.0504 20.5454 28.0313 20.7611 28.007L22.0728 27.7259C23.0101 27.4223 23.806 27.0451 24.6099 26.4929C25.0072 26.2199 25.4155 25.8091 25.7027 25.4088C26.503 24.293 26.6648 23.7266 27.0825 22.4876C27.281 21.8986 27.1459 22.1767 27.6716 22.0148C27.9784 21.9203 27.991 21.5849 27.9165 21.2868C27.8585 21.0549 27.8775 21.0666 27.7224 20.946C27.556 20.8164 27.5922 20.8541 27.4609 20.6767C27.2961 20.4543 27.1362 20.1876 27.1362 19.8332C27.1362 19.3933 27.2591 19.4677 27.5093 19.3036C28.3034 18.7824 27.8437 18.393 27.2954 18.0278C26.6802 17.6183 26.3127 17.1824 26.1569 16.4051C26.0742 15.9922 26.0655 15.5638 26.2335 15.2136C26.8239 15.2136 27.2913 15.632 27.9989 15.1739C28.4925 14.8545 28.5697 13.9757 28.5697 13.4615C28.365 13.4661 28.3388 13.5075 28.1669 13.5897C27.6538 13.8351 26.8959 13.7615 26.547 13.2542C26.3594 12.9816 26.3843 12.5013 26.4604 12.0955C26.5709 11.5067 27.197 10.7005 27.8264 10.7005C28.1973 10.7005 28.6148 10.6761 28.8472 11.0071C28.9202 11.1115 29.0438 11.4881 29.0477 11.6563C29.485 11.6198 29.9591 10.7113 30.0721 10.3442C30.1101 10.2202 30.1042 10.169 30.1345 10.0349C30.2745 9.41268 30.1096 9.71576 30.1096 9.31984C30.1096 9.13789 30.5299 8.80634 30.0386 8.43377C29.7418 8.20849 29.2033 8.49636 28.2967 8.21238C28.0255 8.12733 27.4626 7.79401 27.2954 7.78004C27.3433 7.57457 27.4808 7.23913 27.4262 7.01279C27.3694 6.77708 27.1099 6.65949 26.9272 6.55534L25.6521 5.86589C23.7296 4.76126 24.2267 4.0101 23.5786 4.0101C23.4308 4.0101 23.1024 4.15969 23.007 4.23502C22.9479 4.2817 22.8514 4.38815 22.8075 4.4603C22.7628 4.5335 22.6947 4.6831 22.6759 4.75348C22.1628 4.4099 22.2022 4.26031 21.3064 3.99913L20.6044 3.79843C19.4987 3.44496 19.2483 2.94313 18.782 3.62072C18.6365 3.83221 18.5874 4.0948 18.5874 4.38179C17.8206 4.36463 18.5534 4.11177 16.8578 4.35137C16.6799 4.37648 16.5385 4.36711 16.3636 4.38815C16.0391 4.42705 15.6649 4.58637 15.0139 4.44297C14.9999 4.43996 14.8957 4.4168 14.8938 4.41662L14.8252 4.41857C14.633 4.43377 14.5833 4.59858 14.5573 4.75878C14.4654 5.32551 14.5617 5.50782 14.605 6.02786C13.5381 6.02786 12.9733 6.24023 11.8971 6.24023C11.4696 6.87858 11.8679 7.69534 12.2577 8.26879C12.3482 8.40194 12.4417 8.48204 12.4812 8.62969C12.2124 8.69211 12.0879 8.75347 11.7866 8.78512C11.3866 8.82703 11.4832 8.93684 11.5521 9.2355L11.7525 10.314C11.7748 10.4232 11.8103 10.5196 11.8398 10.6515C12.145 12.014 12.583 13.2343 13.2353 14.4064C13.5333 14.9417 13.8408 15.4936 14.2022 15.9881C15.7258 18.0729 15.1079 17.3922 16.6149 16.5331L16.8569 16.4035C16.972 16.3437 16.9934 16.3395 17.1158 16.2909C17.6447 16.0806 18.1478 15.9167 18.732 15.8363C19.6062 15.716 20.1247 15.7068 20.9876 15.9464C21.2337 16.0147 21.3619 16.0237 21.5695 16.1077C22.7794 16.5977 23.7622 17.2447 24.4923 18.3353C24.6873 18.6268 24.8873 18.9362 25.0359 19.2787C26.0489 21.6167 25.4558 24.5609 23.5355 26.2151L22.4105 26.9484C21.835 27.2481 21.3308 27.3882 20.6782 27.5524C20.6088 27.5698 20.0647 27.6175 20 27.6148C19.7673 27.6053 19.8087 27.3385 19.8087 27.0545C20.3777 26.922 20.7825 26.9196 21.3745 26.7088C21.5078 26.6614 21.5006 26.6672 21.6056 26.6214C21.6891 26.5852 21.7697 26.5496 21.8622 26.5061C24.2812 25.3713 25.4221 22.4917 24.5353 19.9385C24.4532 19.7022 24.3287 19.4616 24.2131 19.2517C23.4179 17.8063 22.2312 16.9985 20.666 16.5864C19.8545 16.3729 18.7541 16.4567 17.9552 16.7055C17.4447 16.8645 16.9777 17.1193 16.5694 17.3906C16.1397 17.676 15.5886 18.2966 15.4015 18.3465C14.9976 18.0759 14.2905 17.3324 13.9575 16.8702C13.87 16.7487 13.8008 16.6472 13.7094 16.534C13.185 15.8858 12.7422 15.1316 12.3236 14.4155L11.7463 13.2406C11.1886 12.0592 10.6885 10.4657 10.4624 9.16158L10.2042 7.66758C10.1826 7.46688 10.1999 7.32276 10.169 7.11871C10.0348 6.23281 10.0249 5.16248 10.0366 4.22034C10.0401 3.93406 10.0857 3.90736 10.0935 3.64018C10.1023 3.3355 10.1686 2.04697 10.2362 1.81833L10.5695 0.187107C10.351 0.168893 10.3858 0.12504 10.1469 0.0787118C9.57468 -0.0323352 8.9054 -0.0486033 8.33301 0.180564C7.97953 0.321848 7.64727 0.556674 7.41298 0.853389C6.79621 1.63479 6.32178 2.96152 6.32178 4.0101Z" fill="#D7262C"/>
</g>
<defs>
<clipPath id="clip0">
<rect width="32" height="32" fill="white" transform="translate(0.000152588)"/>
</clipPath>
</defs>
</svg>
