<svg width="32" height="32" viewBox="0 0 32 32" fill="none" xmlns="http://www.w3.org/2000/svg">
<path d="M11.1677 21.9623C11.0962 21.8959 11.2453 21.5804 11.5056 21.2546C11.5625 21.1839 16.0903 15.1701 18.9942 11.6533C19.4192 11.1379 20.8388 9.70961 21.9171 8.98643C22.8368 8.37013 24.1401 7.60558 24.3521 7.80211L24.3901 7.83658C24.6012 8.03397 23.9289 9.3881 23.3807 10.3483C22.7351 11.4766 21.4112 12.9936 20.9267 13.4539C17.6246 16.6001 11.9469 21.5425 11.8797 21.6046C11.5737 21.8864 11.2703 22.0588 11.1979 21.9916L11.1677 21.9623Z" fill="#A5C7EA"/>
<path d="M9.45312 10.4055C11.7166 12.0044 14.4395 14.9316 14.4395 14.9316C15.4316 13.6628 16.1496 12.7492 17.2495 11.4166C17.3546 11.2899 17.521 11.1072 17.7287 10.8917C17.7287 10.8917 9.29624 9.41342 3.57029 6.71206C2.66696 6.28625 7.0793 8.72989 9.45312 10.4055Z" fill="#A5C7EA"/>
<path d="M24.4616 17.6616C21.7422 17.1376 18.7546 17.0212 18.7546 17.0212C20.1889 15.7335 20.7432 15.1723 21.5482 14.4681C21.6732 14.3595 21.9516 14.0285 22.255 13.7363C22.255 13.7363 25.2857 17.085 31.2004 19.3416C32.1356 19.6976 27.3156 18.2107 24.4616 17.6616Z" fill="#A5C7EA"/>
<path d="M19.8491 22.9208C19.8318 22.9053 19.8706 22.8312 19.937 22.7553C19.9499 22.7407 21.0903 21.3607 21.8186 20.5565C21.9255 20.4367 22.2772 20.1134 22.5409 19.9531C22.7676 19.8178 23.084 19.6497 23.1331 19.698L23.14 19.7066C23.1883 19.7566 23.0142 20.0703 22.8737 20.2927C22.709 20.5539 22.378 20.8995 22.2582 21.0038C21.4402 21.7158 20.0378 22.8286 20.0223 22.8432C19.9456 22.9079 19.8723 22.9441 19.8551 22.9277L19.8491 22.9208Z" fill="#A5C7EA"/>
<path d="M19.5623 20.1583C20.082 20.5617 20.6983 21.2866 20.6983 21.2866C20.9474 20.9961 21.1267 20.7867 21.4025 20.4816C21.4293 20.4531 21.4715 20.4109 21.5215 20.3626C21.5215 20.3626 19.5364 19.9204 18.2047 19.2179C17.9935 19.1067 19.0167 19.7342 19.5623 20.1583Z" fill="#A5C7EA"/>
<path d="M23.0544 22.0406C22.414 21.8863 21.7054 21.826 21.7054 21.826C22.0606 21.5364 22.1985 21.4088 22.3976 21.2502C22.4286 21.226 22.4976 21.1511 22.5717 21.0838C22.5717 21.0838 23.2578 21.9113 24.6369 22.5112C24.8559 22.6069 23.7259 22.2009 23.0544 22.0406Z" fill="#A5C7EA"/>
<path d="M3.13629 19.5515C3.11215 19.5274 3.16732 19.4214 3.25868 19.3128C3.27937 19.2886 4.88346 17.2699 5.90919 16.0916C6.05917 15.9184 6.55824 15.4426 6.93405 15.2047C7.2547 15.0021 7.70808 14.7513 7.77876 14.8211L7.79083 14.8332C7.86151 14.903 7.62016 15.3607 7.42364 15.6848C7.19177 16.0649 6.72546 16.5717 6.55479 16.7252C5.39719 17.7733 3.4078 19.4153 3.38453 19.4343C3.27592 19.53 3.1699 19.5851 3.14577 19.561L3.13629 19.5515Z" fill="#A5C7EA"/>
<path d="M2.668 15.6095C3.42824 16.1767 4.33415 17.2041 4.33415 17.2041C4.68669 16.7792 4.94011 16.4723 5.32885 16.0258C5.36591 15.9836 5.42452 15.9215 5.49779 15.8508C5.49779 15.8508 2.62404 15.269 0.68723 14.2924C0.381237 14.1373 1.87069 15.0147 2.668 15.6095Z" fill="#A5C7EA"/>
<path d="M7.69147 18.1969C6.76487 17.9926 5.74173 17.9263 5.74173 17.9263C6.24511 17.4979 6.43991 17.3108 6.72177 17.0772C6.76573 17.0402 6.86399 16.9307 6.97087 16.8324C6.97087 16.8324 7.9785 18.0073 9.9834 18.8339C10.3015 18.9632 8.66289 18.4107 7.69147 18.1969Z" fill="#A5C7EA"/>
</svg>
