<svg width="32" height="32" viewBox="0 0 32 32" fill="none" xmlns="http://www.w3.org/2000/svg">
<path d="M30.5798 15.5869C30.5798 7.10795 23.8695 0.363281 15.3896 0.363281C6.90962 0.363281 0.200223 7.1089 0.200223 15.5888C0.200223 24.0669 6.91248 30.8058 15.3905 30.8058C23.8705 30.8077 30.5789 24.0669 30.5789 15.5888L30.5818 15.5869H30.5798Z" fill="#00D66C"/>
<path d="M22.1009 17.7838H21.2466C20.3923 17.7838 20.0281 18.2395 19.9041 19.1234C19.6886 20.7414 18.4091 21.8369 16.7311 21.8369C14.7803 21.8369 13.5313 20.4048 13.5313 18.3282V13.4504C13.5313 13.2549 13.5027 13.0833 13.455 12.9298C13.6381 13.0127 13.8574 13.0556 14.1091 13.0556H18.5922C19.4484 13.0556 19.9346 12.5665 19.9346 11.7142V11.3185C19.9346 10.4632 19.4484 9.97602 18.5922 9.97602H16.0636V7.22724C16.0636 6.37486 15.5736 5.88574 14.7212 5.88574H14.1091C13.2567 5.88574 12.7685 6.37581 12.7685 7.22724V11.7132C12.7685 11.9058 12.7933 12.0784 12.8448 12.2328C12.6598 12.1508 12.4406 12.1089 12.1888 12.1089H7.70574C6.85241 12.1089 6.36329 12.597 6.36329 13.4504V13.848C6.36329 14.7022 6.85241 15.1904 7.70574 15.1904H10.2381V18.3272C10.2381 22.2621 12.7695 25.008 16.7349 25.008C20.4266 25.008 22.8655 22.6578 23.3232 19.1215C23.4433 18.2367 22.8636 17.7828 22.0999 17.7828L22.1009 17.7838Z" fill="white"/>
</svg>
