<svg width="32" height="32" viewBox="0 0 32 32" fill="none" xmlns="http://www.w3.org/2000/svg">
<path fill-rule="evenodd" clip-rule="evenodd" d="M9.9752 14.1475C10.1604 14.2989 10.4803 14.2148 10.6823 13.9623C10.8677 13.7096 10.8845 13.373 10.6992 13.2382C10.5308 13.0867 10.2108 13.1877 10.0089 13.4402C9.80688 13.6926 9.8067 14.0126 9.9752 14.1475Z" fill="#E30B20"/>
<path fill-rule="evenodd" clip-rule="evenodd" d="M7.88714 17.2287C7.78615 17.2287 7.70199 17.397 7.65131 17.4643C7.49982 17.734 6.8432 18.6094 6.50638 18.6094C6.40539 18.6094 6.37172 18.5084 6.37172 18.3906C6.37172 18.2728 6.43905 18.0538 6.47271 17.936L7.88714 13.2885C7.90397 13.238 7.95447 13.0866 7.95447 13.019C7.95447 12.8171 7.56715 12.8844 7.49982 12.8844C7.04518 12.8844 7.06201 12.9517 6.92736 13.3895L6.89369 13.5075C6.60737 13.137 6.30421 13.0192 5.83274 13.0192C4.58663 13.0192 3.34052 13.8107 2.49856 14.6863C1.72411 15.5114 0.932465 16.9089 0.932465 18.0878C0.932465 18.7615 1.23562 19.4854 2.01007 19.4854C3.62666 19.4854 5.4789 16.8754 6.25353 15.5958L5.41157 18.3236C5.34406 18.5593 5.2599 18.8288 5.2599 19.0983C5.2599 19.3339 5.37791 19.4854 5.63039 19.4854C6.16919 19.4854 6.91016 18.8456 7.26381 18.4751C7.43213 18.3068 7.98795 17.5827 7.98795 17.3302C7.98813 17.2793 7.93763 17.2287 7.88714 17.2287ZM5.17611 16.6899C4.6878 17.296 3.45853 18.7611 2.6334 18.7611C2.17876 18.7611 1.9936 18.3064 1.9936 17.9358C1.9936 17.0603 2.71774 15.6626 3.23971 15.0059C3.82901 14.2481 4.80581 13.2884 5.79925 13.2884C6.27073 13.2884 6.69171 13.4903 6.69171 13.9955C6.69153 14.6356 5.56343 16.2015 5.17611 16.6899ZM10.3794 17.734C10.312 17.734 10.2613 17.8013 10.2279 17.8685C10.1099 18.0706 9.58789 18.7948 9.31858 18.7948C9.21759 18.7948 9.18393 18.7274 9.18393 18.6094C9.18393 18.4748 9.23442 18.3399 9.26808 18.2053L10.0425 15.7301C10.1099 15.5447 10.2279 15.1743 10.2279 14.9723C10.2279 14.7533 10.1604 14.585 9.90788 14.585C9.50373 14.585 8.93126 15.0901 8.6786 15.3428C8.59463 15.4269 8.17346 15.8816 8.17346 16.0164C8.17346 16.0669 8.1903 16.1006 8.24079 16.1006C8.37545 16.1006 8.9481 15.1913 9.30157 15.1913C9.40274 15.1913 9.41957 15.2924 9.41957 15.3766C9.41957 15.4776 9.35224 15.6461 9.33541 15.7303L8.61128 18.1213C8.52712 18.374 8.42613 18.7613 8.42613 19.0306C8.42613 19.2664 8.47662 19.4347 8.74611 19.4347C9.16709 19.4347 9.75639 18.8454 10.0091 18.5423C10.11 18.4078 10.4469 17.9698 10.4469 17.8015C10.4467 17.7676 10.4298 17.734 10.3794 17.734ZM14.4711 14.5851C13.5787 14.5851 12.5851 16.6732 12.1979 17.3635L12.6357 15.8986C12.7031 15.6798 12.7704 15.4439 12.7704 15.1913C12.7704 14.9725 12.7031 14.5851 12.4001 14.5851C12.0801 14.5851 11.5918 15.0061 11.3898 15.2586C11.2718 15.3766 10.851 15.8647 10.851 16.0332C10.851 16.0837 10.8847 16.1006 10.9352 16.1006C10.9857 16.1006 11.0532 15.9996 11.0868 15.9491L11.171 15.8144C11.3057 15.6461 11.7098 15.1239 11.9456 15.1239C12.0466 15.1239 12.0803 15.2586 12.0803 15.3429C12.0803 15.5283 11.9961 15.7639 11.9456 15.9491L11.0363 18.8957C11.0363 18.9296 10.969 19.1316 10.969 19.1821C10.969 19.3336 11.171 19.3167 11.2552 19.3167C11.6761 19.3167 11.6425 19.2324 11.7603 18.8621C11.9456 18.1884 12.6023 16.9257 12.9896 16.3196C13.0906 16.1342 13.7305 15.2081 13.9999 15.2081C14.286 15.2081 13.9999 15.7132 14.505 15.7132C14.825 15.7132 14.9933 15.3933 14.9933 15.1071C14.9931 14.7871 14.7743 14.5851 14.4711 14.5851ZM17.4012 18.2053V12.9181H17.9568C19.1017 12.9181 19.3881 13.1034 19.6071 14.2483H19.8597L19.7924 12.4971H13.966L13.8987 14.2483H14.1512C14.387 13.12 14.6563 12.9181 15.8014 12.9181H16.3572V18.0876C16.3572 18.8454 16.3236 19.0811 15.3806 19.1316V19.3169H18.3948V19.1316C17.5188 19.0979 17.4012 18.8957 17.4012 18.2053ZM21.5264 14.5681C21.1391 14.5681 20.7855 14.7869 20.2972 15.5111H20.2803V14.6018L20.2298 14.5681C19.7247 14.7701 19.2197 14.9554 18.7144 15.1238V15.2923C18.7986 15.2584 18.9164 15.2418 19.0681 15.2418C19.2197 15.2418 19.4217 15.2586 19.4217 15.8647V18.4579C19.4217 19.0304 19.2534 19.0641 18.6978 19.1651V19.3167H21.1563V19.1651C20.6342 19.1482 20.2807 19.0979 20.2807 18.3906V16.0669C20.2807 15.7469 20.7353 15.2249 20.9878 15.2249C21.2405 15.2249 21.3415 15.5786 21.6949 15.5786C21.9476 15.5786 22.0823 15.3933 22.0823 15.1408C22.0823 14.7871 21.8801 14.5681 21.5264 14.5681ZM26.4267 18.9126V18.6431C26.3087 18.7272 26.1741 18.8282 25.9552 18.8282C25.6521 18.8282 25.6521 18.5421 25.6521 18.2389V16.2184C25.6521 15.5954 25.6521 14.5681 24.1198 14.5681C22.9242 14.5681 22.4527 15.2923 22.4527 15.7132C22.4527 15.8816 22.5708 16.1679 22.8907 16.1679C23.1602 16.1679 23.3622 15.9491 23.3622 15.7301C23.3622 15.6289 23.3117 15.4774 23.3117 15.3259C23.3117 15.0059 23.699 14.8206 24.0359 14.8206C24.3388 14.8206 24.8271 14.9218 24.8271 15.6794V16.3024C23.1434 16.959 22.2339 17.3128 22.2339 18.3568C22.2339 19.047 22.7727 19.4175 23.3284 19.4175C23.901 19.4175 24.4398 19.0134 24.827 18.6766C24.8775 19.4175 25.3153 19.4175 25.5006 19.4175C25.6689 19.4177 25.9887 19.4177 26.4267 18.9126ZM24.8268 18.0538C24.8268 18.3569 24.7931 18.4918 24.4731 18.6433C24.3721 18.6938 24.0521 18.8284 23.8333 18.8284C23.446 18.8284 23.143 18.5086 23.143 18.0203V18.0033C23.143 17.6496 23.2609 17.0605 24.8268 16.5552V18.0538ZM30.6027 18.4748V16.1174C30.6027 14.8544 29.8785 14.5681 29.4072 14.5681C28.7841 14.5681 28.3968 14.9386 27.8916 15.4101V14.6018L27.8243 14.5681C27.3528 14.7535 26.8645 14.9049 26.3931 15.0396V15.2081C26.4435 15.1913 26.5616 15.1744 26.6962 15.1744C26.8645 15.1744 27.0665 15.1913 27.0665 15.8311V18.3906C27.0665 18.9967 26.8982 19.1316 26.4267 19.1651V19.3167H28.5988V19.1651C28.0601 19.1314 27.9253 18.9631 27.9253 18.6264V15.7301C28.3124 15.3428 28.6324 15.1406 28.9354 15.1406C29.5584 15.1406 29.7437 15.5111 29.7437 16.134V18.2892C29.7437 19.0807 29.4742 19.1314 29.0871 19.1649V19.3165H31.2254V19.1649C30.7205 19.1147 30.6027 18.9631 30.6027 18.4748Z" fill="#005D9C"/>
</svg>
