<svg width="32" height="32" viewBox="0 0 32 32" fill="none" xmlns="http://www.w3.org/2000/svg">
<path d="M9.8528 15.148C9.8528 15.148 8.17397 20.0542 7.85652 23.2703C9.00746 20.4668 11.2136 16.5581 12.5541 14.7112C10.6622 13.145 7.17122 11.4992 7.17122 11.4992C7.17122 11.4992 9.93404 10.3003 15.5099 10.0023C15.5099 10.0023 17.8321 5.45511 23.8213 1.19136C20.2021 2.36882 16.7759 5.50683 13.2928 8.93295C8.8352 9.1652 4.00895 10.9791 3.49347 11.2104C8.62776 13.9014 9.8528 15.148 9.8528 15.148Z" fill="#00BEF2"/>
<path d="M30.0388 11.5625C25.6792 9.78141 20.3013 9.32141 20.3013 9.32141C20.3013 9.32141 20.181 7.92711 20.596 5.24252C20.0845 6.35961 19.1511 8.75176 18.993 10.537C22.9126 10.8457 25.5906 11.7472 25.5906 11.7472C25.5906 11.7472 21.6146 13.273 19.4163 15.031C19.8169 16.0234 20.7032 18.9022 21.2095 21.1317C20.3433 20.3415 17.7871 18.2008 15.9317 17.0636C13.4542 18.0373 6.61772 24.8909 2.77673 31.2273C4.43902 29.4746 9.30965 23.9 15.9056 19.8695C17.2536 20.6744 23.5275 24.8352 23.5275 24.8352C23.5275 24.8352 22.1536 17.4369 21.6422 15.7505C23.6071 14.3906 26.9185 12.5358 30.0388 11.5625Z" fill="#00BEF2"/>
</svg>
