<svg width="32" height="32" viewBox="0 0 32 32" fill="none" xmlns="http://www.w3.org/2000/svg">
<path d="M21.535 27.1098L24.493 28.1478L27.347 18.8818L21.535 27.1098Z" fill="#E11937"/>
<path d="M17.151 25.5749L17.55 25.7159L31.191 6.40093L31.577 5.14893L17.151 25.5749Z" fill="#E11937"/>
<path d="M18.428 26.0262L19.363 26.3542L29.44 12.0902L30.345 9.16016L18.428 26.0262Z" fill="#E11937"/>
<path d="M19.958 26.5552L21.134 26.9682L27.732 17.6302L28.866 13.9492L19.958 26.5562" fill="#E11937"/>
<path d="M15.531 25.607L16.096 25.517L30.834 4.64404L29.753 5.46804L15.532 25.608" fill="#264CA3"/>
<path d="M12.972 26.0258L14.289 25.8098L27.382 7.27783L24.85 9.20483L12.972 26.0268" fill="#264CA3"/>
<path d="M10.475 26.4391L12.13 26.1671L23.243 10.4341L20.066 12.8551L10.475 26.4391Z" fill="#264CA3"/>
<path d="M0 28.1483L9.911 26.5293L18.986 13.6763L0 28.1483Z" fill="#264CA3"/>
</svg>
