<svg width="32" height="32" viewBox="0 0 32 32" fill="none" xmlns="http://www.w3.org/2000/svg">
<path d="M27.1635 4.41976C23.3332 7.05794 21.9848 12.7838 17.5292 12.3148C18.3305 12.8815 19.2099 13.5068 21.1054 13.116C23.7436 12.647 25.2484 11.0445 25.7955 10.2433C26.8313 8.81673 26.4404 9.28574 28.1797 6.6671C29.6844 4.51747 30.642 3.79441 31.9318 3.5599C29.8798 2.91502 28.0429 3.79441 27.1635 4.41976Z" fill="#34345D"/>
<path d="M16.0831 14.699C15.2037 15.168 14.2462 15.5784 13.6208 17.3372C12.7414 19.7995 13.3082 21.9491 13.699 22.8285C14.4221 24.4309 14.168 23.7861 15.536 26.6587C16.6499 29.0429 16.8062 30.2349 16.3372 31.5247C18.0178 30.0981 18.1741 28.0267 18.096 26.991C17.6856 22.3399 13.4645 18.3729 16.0831 14.699Z" fill="#34345D"/>
<path d="M14.7347 12.2367C14.8129 11.2792 14.8911 10.2434 13.699 8.7387C11.9402 6.7454 9.86876 6.19823 8.83303 6.10052C7.07424 5.94418 7.71913 6.02235 4.53377 5.70967C1.89558 5.55334 0.781684 5.06478 0 4.02905C0.390842 6.17868 2.07146 7.37075 3.10719 7.78114C7.32829 9.75489 12.8978 8.09381 14.7347 12.2367Z" fill="#34345D"/>
<path d="M16.8844 11.7481C19.2685 12.3148 20.6365 10.8687 21.1055 10.3997C22.8643 8.56274 22.8643 6.56944 23.7437 3.63813C23.9782 2.75873 24.3886 1.95751 25.5025 1.09766C19.4444 1.64484 21.34 10.8687 16.8844 11.7481Z" fill="#006EAE"/>
<path d="M16.8844 14.3862C15.2038 16.2232 15.7705 18.0601 15.9268 18.7637C16.6499 21.226 18.3891 22.1835 20.4606 24.4113C21.1055 25.1344 21.5745 25.8379 21.809 27.2058C24.369 21.7145 15.4578 18.7637 16.8844 14.3862Z" fill="#006EAE"/>
<path d="M11.3149 10.087C8.85255 9.44209 7.09376 10.4778 4.1429 11.1227C3.18534 11.3572 2.30594 11.4354 1.03571 10.8882C4.45557 15.9105 11.5494 9.61797 14.5784 13.0378C13.7772 10.7123 11.9402 10.2433 11.3149 10.087Z" fill="#006EAE"/>
<path d="M19.3467 7.29256C19.5812 5.37743 18.311 3.54047 19.5812 1C18.1546 1.80123 17.2752 2.99329 17.2752 5.37743C17.2752 7.29256 17.4316 8.48462 17.2752 9.36402C17.1189 10.6343 16.8062 11.1228 16.005 11.5137C16.474 11.5137 17.3534 11.1228 17.6075 10.9469C18.565 10.3216 19.2685 8.48462 19.3467 7.29256Z" fill="#0081C2"/>
<path d="M22.2194 18.0406C20.5388 17.0831 19.4249 16.6141 18.7213 16.0473C17.7638 15.2461 17.4511 14.7771 17.4511 13.8977C17.2166 14.2885 17.1384 15.2461 17.1384 15.5783C17.2166 16.6141 18.4868 18.2165 19.4444 18.92C21.0468 20.0339 23.2746 19.8776 24.7794 22.2617C24.8576 20.5225 24.2908 19.2327 22.2194 18.0406Z" fill="#0081C2"/>
<path d="M13.4645 12.7838C12.507 12.3148 10.5137 12.6274 9.39976 13.0964C7.64097 13.8977 6.68341 15.891 3.83026 16.0473C5.25683 16.9267 6.70295 17.083 8.77441 15.891C10.455 14.9334 11.4126 14.2103 12.2724 13.8977C13.4645 13.4287 14.0312 13.5068 14.8129 13.8977C14.5002 13.5068 13.7772 12.9401 13.4645 12.7838Z" fill="#0081C2"/>
<path d="M15.0474 2.58301C14.168 3.77508 13.2886 4.5763 15.1256 8.56289C15.1256 8.56289 16.1613 10.5562 15.1256 11.9046C15.5164 11.7483 15.9268 11.3379 16.1613 11.0252C16.3958 10.6344 16.8844 9.67679 16.6303 8.23068C16.259 5.86608 14.5784 5.29936 15.0474 2.58301Z" fill="#64BEE6"/>
<path d="M20.5583 14.5427C20.5583 14.5427 18.3305 14.4645 17.6856 12.8621C17.6074 13.2529 17.7638 13.8196 17.9201 14.2105C18.1546 14.6013 18.7213 15.4807 20.0697 15.9693C22.2975 16.7705 23.6459 15.6566 25.7174 17.3958C25.1702 16.1256 24.9357 14.9335 20.5583 14.5427Z" fill="#64BEE6"/>
<path d="M11.6276 15.0118C9.7906 16.5165 10.1228 18.2753 7.56281 19.1547C8.98938 19.3111 10.201 19.7215 12.6633 16.1257C12.6633 16.1257 13.8554 14.2106 15.536 14.4451C15.2233 14.1324 14.6566 14.0542 14.2657 13.9761C13.699 14.0542 12.6633 14.1324 11.6276 15.0118Z" fill="#64BEE6"/>
</svg>
