<svg width="32" height="32" viewBox="0 0 32 32" fill="none" xmlns="http://www.w3.org/2000/svg">
<g clip-path="url(#clip0)">
<path d="M32 0V31.9806H25.3715C26.7753 28.3055 27.0879 23.7602 26.096 19.7756C24.9014 14.7158 21.5884 9.90412 16.8918 6.93366C12.4534 4.10747 6.81618 2.99846 1.27501 4.13858L0.000732422 4.45238V0H32Z" fill="#005DAA"/>
<path d="M8.80945 5.01389C7.10705 4.07364 4.86997 3.93637 2.86503 4.28012L3.57197 4.361L3.6723 4.31123C4.60127 4.24279 5.58118 4.27545 6.44794 4.46638C6.16408 4.54454 5.6749 4.70358 5.3327 4.84513C5.52752 4.91823 5.77483 5.04227 5.94359 5.15154C6.31145 5.01739 7.08449 4.81246 7.46091 4.73741C7.79765 4.83579 8.66208 5.23592 9.19831 5.62828C8.56136 5.69594 7.69577 5.82115 6.99778 5.98291C7.16265 6.12679 7.30225 6.2975 7.42707 6.48376C8.10368 6.36049 9.09371 6.24695 9.95035 6.21428C10.3828 6.58836 10.7378 7.03982 10.9781 7.50722C10.0367 7.44462 8.78573 7.46017 8.0193 7.54339C8.09824 7.68065 8.20673 8.03101 8.253 8.24099C9.20531 8.20055 10.7572 8.27093 11.4086 8.36543C11.622 8.87794 11.7449 9.43205 11.7943 10.0107C10.7075 9.79641 9.42695 9.61598 8.42682 9.56776C8.43771 9.88935 8.42449 10.1969 8.39493 10.4983C9.58444 10.6219 10.7382 10.837 11.8538 11.1247C11.8386 11.6917 11.7558 12.3978 11.6069 12.9438C10.7218 12.6277 9.30563 12.2085 8.10835 11.9654C7.98858 12.4566 7.82876 12.9403 7.618 13.4038C8.7904 13.7958 9.94763 14.306 11.0555 14.8554C10.8731 15.3807 10.6087 15.9699 10.3637 16.4062C9.25391 15.7824 8.11107 15.1723 6.98067 14.6898C6.63809 15.315 6.20296 15.9823 5.79427 16.5302C6.89707 17.2006 7.93803 17.927 8.97277 18.7062C8.66247 19.1608 8.21645 19.706 7.94853 20.0307C6.95617 19.2055 4.92013 17.5856 4.92013 17.5856C4.32129 18.3065 3.80917 18.8454 3.05441 19.4299C3.89005 20.2846 4.98312 21.5068 5.66595 22.3529C5.31443 22.7215 4.96951 23.0144 4.55383 23.3009C3.72479 22.2829 2.72738 20.9958 2.14682 20.1882C1.33178 20.8274 0.834048 21.1739 0.00112128 21.604V22.8009L1.324 25.4466C1.02381 25.6391 0.779219 25.7562 0.393864 25.9222L0.000732422 25.1507V26.5413C5.10211 24.2758 10.2949 19.2798 11.8044 13.8549C12.3574 11.9798 12.4534 9.56699 11.5497 7.81908C11.0193 6.66924 9.94763 5.59678 8.80945 5.01389Z" fill="#005DAA"/>
<path d="M8.58446 4.4406C8.40864 4.36318 8.23189 4.28535 8.0485 4.22529C10.006 4.45511 11.8768 4.90501 13.3859 6.19795C15.8746 8.19316 16.9128 11.1461 16.3859 14.2799C15.7257 18.2116 13.501 21.5017 10.6892 24.5492C7.60365 27.8377 3.95775 30.1094 0.00115967 31.3949V27.0184C0.00115967 27.0184 0.381459 26.8842 0.759037 26.6766C1.14984 27.5134 1.88399 28.9802 2.49411 29.9927C2.84057 29.8656 3.18704 29.6747 3.51913 29.4713C3.51913 29.4713 2.22696 27.0678 1.70668 26.1812C3.02061 25.4832 3.91809 24.8602 5.04032 23.9702C5.50773 24.5569 7.40573 26.9912 7.40573 26.9912C7.88091 26.6498 8.34481 26.2679 8.71617 25.8973C8.71617 25.8973 6.85744 23.6579 6.23139 23C7.05187 22.3117 7.86652 21.3932 8.55518 20.5615C9.52965 21.3831 10.7009 22.4353 11.402 23.1742C11.8783 22.671 12.3022 22.1212 12.6179 21.6452C11.6575 20.7769 10.6367 19.9591 9.64008 19.1744C10.2109 18.4356 10.6935 17.6244 11.0742 16.8331C12.1929 17.4537 13.2665 18.1665 14.3386 18.8999C14.687 18.3302 14.9876 17.6937 15.1933 17.1077C14.1014 16.3949 12.9574 15.7922 11.8037 15.1999C12.037 14.5626 12.2369 13.9078 12.3893 13.2331C13.592 13.641 14.7481 14.2002 15.8804 14.7652C16.0523 14.0726 16.1336 13.3435 16.1285 12.5783C15.0012 12.0681 13.8393 11.6684 12.6483 11.3242C12.6459 10.9466 12.6432 10.5636 12.614 10.1907C13.7693 10.4256 14.8951 10.7977 15.9936 11.1893C15.8863 10.4314 15.6366 9.71475 15.308 9.03464C14.3114 8.78267 13.2887 8.59407 12.2555 8.44242C12.1532 8.14689 12.0304 7.86186 11.9098 7.58538C12.8396 7.66588 13.8813 7.81481 14.6396 7.98901C14.271 7.33146 13.6118 6.69413 12.9632 6.21817C12.31 6.17501 11.6462 6.16023 10.961 6.17345C10.7775 5.97008 10.5539 5.74882 10.3427 5.56023C10.75 5.52645 11.1688 5.52487 11.581 5.52332C11.6812 5.52295 11.7812 5.52257 11.8803 5.52173C10.9459 5.01233 9.90489 4.64914 8.81532 4.46872L8.69556 4.48932C8.65853 4.47321 8.62152 4.45692 8.58446 4.4406Z" fill="#005DAA"/>
<path d="M6.73104 6.31266C4.99947 4.56243 2.3436 4.41583 0.000358337 4.96684C0.00113605 4.96606 0.000358337 5.17954 0.000358337 5.17954C0.489926 5.07572 1.12415 4.97539 1.70587 4.97734C1.32635 5.20676 0.961218 5.48479 0.631469 5.75621C0.771846 5.78654 0.920777 5.83437 1.05765 5.89192C1.58611 5.51434 2.09745 5.18732 2.52363 4.95478C3.07697 4.95945 3.7913 5.06211 4.25715 5.24876C3.48683 5.52562 2.55358 5.95336 1.9528 6.35816C2.06323 6.41726 2.18028 6.51487 2.2666 6.6043C3.0062 6.20962 4.06816 5.75349 4.93998 5.47507C5.35333 5.64033 5.79818 5.93353 6.05016 6.18045C4.9357 6.44448 3.86829 6.73612 2.79467 7.1732C2.8981 7.2953 3.01126 7.48 3.06492 7.59472C3.84107 7.31863 5.36305 6.87533 6.55683 6.64747C6.77576 6.88117 7.03746 7.2533 7.17122 7.60133C5.85223 7.73859 4.34814 7.96802 3.33206 8.25732C3.39584 8.42803 3.4355 8.59485 3.46272 8.75428C4.71327 8.51436 6.08943 8.33509 7.43526 8.28143C7.55502 8.66795 7.62229 9.08208 7.62502 9.50632C6.28347 9.42155 4.7471 9.48027 3.52532 9.60237C3.52532 9.76141 3.50277 10.0795 3.48216 10.2763C4.72066 10.2385 6.10537 10.2521 7.58419 10.4186C7.5313 10.8199 7.43526 11.3386 7.30616 11.7858C5.92378 11.4704 4.66467 11.3168 3.27179 11.2251C3.22202 11.4941 3.10614 11.8235 2.97665 12.1046C4.27815 12.3411 5.57809 12.7019 6.83331 13.153C6.66027 13.5586 6.45923 13.9548 6.23914 14.3421C5.29967 13.9 3.63226 13.2767 2.53841 12.9706C2.35798 13.3354 2.05545 13.8323 1.75409 14.201C2.53997 14.584 4.04678 15.4344 5.08035 16.1025C4.83343 16.4334 4.5554 16.7763 4.26415 17.08C3.26362 16.3004 2.27088 15.5678 1.18403 14.8764C0.836784 15.275 0.405934 15.7058 -3.05176e-05 16.0465V16.1725L2.49719 18.8307C2.21994 19.083 1.93763 19.316 1.64171 19.5306L-3.05176e-05 17.432V21.1354C2.5353 19.6476 5.10135 17.2056 6.54439 14.6182C7.72145 12.5468 8.61271 9.74275 7.4722 7.36101C7.27116 6.99277 7.05729 6.63502 6.73104 6.31266Z" fill="#005DAA"/>
<path d="M14.9281 6.42932L14.1908 6.33911C13.8961 6.04008 13.5971 5.77916 13.3369 5.60612C14.3538 5.92031 15.7941 6.38849 17.0936 7.78837C19.5252 10.4155 20.3386 14.0322 19.482 17.5603C18.0631 23.3301 13.4586 28.4988 8.36114 31.9794H5.02555L3.94958 30.184C5.29463 29.4495 6.63968 28.6356 7.90579 27.6479L9.95661 30.2949C10.4152 29.9582 10.8452 29.5898 11.3014 29.1988L11.3779 29.1334C10.6729 28.1173 9.70346 26.9861 9.25512 26.5183C10.228 25.6994 11.1609 24.7 11.9872 23.7477C12.7801 24.5278 13.5609 25.363 14.3199 26.1769C14.8301 25.6496 15.2672 25.0881 15.6576 24.5227C14.8605 23.698 14.0649 22.9451 13.2304 22.1756C13.9743 21.2622 14.519 20.3841 15.0117 19.4101C15.88 20.0614 16.7149 20.7361 17.5354 21.441C17.883 20.7944 18.2046 20.1298 18.455 19.4381C17.6365 18.7327 16.7713 18.1319 15.9069 17.5451C16.223 16.8432 16.5279 15.8482 16.6406 15.2093C17.4697 15.6366 18.4912 16.2996 19.2005 16.8164C19.3914 16.0795 19.4563 14.9231 19.4334 14.2725C18.8174 13.877 17.8216 13.3311 16.9327 12.9259C16.9502 12.4675 16.9327 11.9934 16.8701 11.5315C17.6793 11.8492 18.4675 12.2322 19.2533 12.6257C19.1009 11.6835 18.782 10.7938 18.3454 9.96478C17.6641 9.72253 16.968 9.48027 16.2666 9.27846C16.1102 8.89699 15.959 8.57113 15.7463 8.2371C16.1645 8.32769 16.5653 8.45066 16.966 8.57357C17.1671 8.63527 17.3687 8.69711 17.5719 8.75467C17.4356 8.52076 17.2336 8.302 17.035 8.08698C17.0064 8.05607 16.978 8.02524 16.9498 7.99446C16.3412 7.34974 15.6638 6.81118 14.9281 6.42932Z" fill="#005DAA"/>
<path d="M0.0015249 6.04513V6.66147L0.346439 6.42232C0.634191 6.48843 0.961607 6.63386 1.18131 6.77618C1.10982 6.81814 1.03797 6.85998 0.96606 6.90186C0.637452 7.09323 0.307603 7.28533 0.0058023 7.49206V7.87858C0.497314 7.57877 1.07554 7.22803 1.53322 6.99588C1.71754 7.11409 1.88358 7.28947 2.01229 7.46445C1.35163 7.72809 0.430043 8.17722 0.000747191 8.40431V8.80289C0.733738 8.44514 1.54489 8.08701 2.31638 7.84747C2.41553 8.02323 2.51625 8.24372 2.55163 8.44709C1.73193 8.60574 0.781956 8.95182 0.00541344 9.25279V9.61676C0.827063 9.33056 1.93102 9.04087 2.65468 8.9246C2.70834 9.15752 2.71534 9.4585 2.71612 9.67081C1.62655 9.77541 0.893168 9.90257 0.00735772 10.0811V10.4967C0.796732 10.3914 2.10562 10.2953 2.67257 10.3163C2.61813 10.6013 2.55591 10.8969 2.44664 11.1558C1.79492 11.096 0.739571 11.0477 0.00502459 11.0676C-3.05176e-05 11.0676 -3.05176e-05 11.6225 -3.05176e-05 11.6248C0.593308 11.6576 1.2341 11.7834 1.79473 11.8934C1.91302 11.9166 2.02794 11.9392 2.13789 11.96C2.05234 12.1805 1.89175 12.4869 1.75409 12.7085C1.26219 12.5421 0.536977 12.3139 -3.05176e-05 12.2283V13.3222C0.345661 13.4777 0.846895 13.7262 1.01682 13.8366C0.902501 14.005 0.67541 14.2795 0.52259 14.4176C0.293166 14.2647 -3.05176e-05 14.0944 -3.05176e-05 14.0944V15.4927C0.57703 14.9254 1.14437 14.3308 1.59505 13.704C2.71145 12.0945 3.59104 10.0072 2.78961 7.99446C2.3051 6.8905 1.12765 6.19756 0.0015249 6.04513Z" fill="#005DAA"/>
<path d="M19.3299 10.3412C19.1456 9.92707 18.9236 9.52149 18.6906 9.12603L19.3727 9.38189C21.8314 12.0693 22.8051 15.686 22.1071 19.4011C21.4632 22.9436 19.6181 25.9926 17.2853 28.8472C16.3381 29.9402 15.2959 31.0213 14.2149 31.9813H13.632C13.632 31.9813 12.5977 30.606 11.9149 29.7773C13.0709 28.8063 13.8805 27.931 14.848 26.8041C15.2561 27.2433 15.6375 27.6975 16.0192 28.152C16.2347 28.4087 16.451 28.6663 16.6717 28.9207C17.1757 28.3654 17.6656 27.7938 18.0934 27.1941C17.4895 26.4849 16.8794 25.7776 16.2199 25.1017C16.9412 24.121 17.764 22.8464 18.1692 22.0578C18.8291 22.6376 19.4897 23.3145 20.0952 23.9663C20.4693 23.2827 20.7803 22.5796 21.0417 21.8213C20.4424 21.1653 19.7581 20.516 19.1328 20.0175C19.4878 19.1694 19.7942 18.2128 19.9431 17.3674C20.5548 17.7948 21.1766 18.3069 21.7739 18.8878C21.9236 17.9732 21.9951 16.9988 21.943 16.0103C21.3986 15.5266 20.8111 15.1113 20.2488 14.7174C20.2352 14.1551 20.2173 13.6729 20.1384 13.1382C20.5806 13.3784 21.022 13.6575 21.4574 13.9328L21.6288 14.0411C21.3535 12.8621 20.8503 11.78 20.2192 10.751L19.3299 10.3412Z" fill="#005DAA"/>
<path d="M21.0238 10.9863L21.0129 11.0135C22.0787 12.3244 22.9276 13.7308 23.3651 15.296L23.3569 15.3127L22.5345 14.6901C22.6398 15.3259 22.7227 15.9166 22.7456 16.5792C23.1333 16.872 23.5571 17.255 23.8881 17.6563C23.9444 18.7354 23.9444 19.886 23.7594 20.9464C23.3903 20.4553 23.0614 20.0983 22.4843 19.5232C22.3571 20.3079 22.0624 21.5449 21.7078 22.3696C22.2144 22.9167 22.7289 23.6089 23.0551 24.114C22.865 24.7646 22.4983 25.638 22.1071 26.3674C21.9588 26.176 21.8243 25.9963 21.6902 25.8171C21.4044 25.4352 21.1203 25.0555 20.708 24.5702C20.1068 25.6799 19.4011 26.808 18.6203 27.8439C19.1495 28.468 19.6371 29.119 20.0979 29.7773C19.6624 30.3901 19.1911 30.9952 18.6805 31.5672C18.3027 31.0472 17.9052 30.5302 17.5095 30.0154C17.4007 29.8738 17.2919 29.7322 17.1838 29.591L17.1245 29.6603C16.4443 30.4533 15.756 31.2558 14.9285 31.9809H18.8551C21.3838 29.0474 23.2181 25.8005 23.967 22.1289C24.7393 18.4305 24.1284 14.5155 21.7451 11.7271C21.6912 11.6673 21.6367 11.6038 21.5814 11.5392C21.4082 11.3369 21.2262 11.1245 21.0238 10.9863Z" fill="#005DAA"/>
<path d="M24.6829 18.3493C24.5938 17.4195 24.5289 16.8351 24.3749 16.1289L24.4671 16.2195C25.1203 17.6641 25.664 19.1736 25.5877 20.9056C25.4349 25.043 23.9452 28.6823 21.7218 31.9806H21.5083L20.5863 30.494C21.3562 29.4114 22.0674 28.2884 22.6608 27.1343C22.8268 27.3623 22.9822 27.6294 23.139 27.8987C23.2224 28.0421 23.3063 28.1863 23.3923 28.3253C23.7586 27.5694 24.1334 26.6206 24.3286 25.9331L23.6695 24.7879C24.0432 23.7407 24.2975 22.7849 24.4764 21.7572L25.0725 22.4917C25.2984 21.3738 25.3595 20.2842 25.3229 19.2032C25.3229 19.2032 24.9737 18.6654 24.6829 18.3493Z" fill="#005DAA"/>
<path d="M26.0672 22.6692C26.0281 23.0224 25.9893 23.372 25.9253 23.7073L25.7495 23.4678C25.5605 24.6017 25.2856 25.6551 24.8929 26.705L25.167 27.464C24.9442 28.2254 24.6599 29.0412 24.2944 29.8967C24.21 29.6362 24.0463 29.3266 23.8993 29.0867C23.407 30.0674 22.823 31.1115 22.2374 31.9806H23.7096C24.5137 30.4329 25.1378 28.7861 25.6021 27.0884C25.989 25.4991 26.3417 23.8022 26.1461 22.0617H26.1395C26.1121 22.2638 26.0896 22.4673 26.0672 22.6692Z" fill="#005DAA"/>
<path d="M24.8956 31.164C25.3626 29.7365 25.9214 27.737 26.2302 26.1147C26.0486 28.2324 25.5905 30.4473 24.9399 31.9806H24.1852C24.1852 31.9806 24.5192 31.2697 24.7393 30.826C24.7848 30.9443 24.8392 31.0527 24.8956 31.164Z" fill="#005DAA"/>
<path d="M2.80517 30.7284C1.88398 31.1484 0.966281 31.498 0.000366211 31.8056V31.9778H3.50317L2.80517 30.7284Z" fill="#005DAA"/>
<path d="M10.051 31.2873C10.2043 31.1667 10.3455 31.0556 10.4745 30.9633C10.6619 31.2578 10.9994 31.7673 11.1088 31.9326C11.1313 31.9666 11.1442 31.986 11.1441 31.986H9.09137C9.45073 31.7593 9.77094 31.5075 10.051 31.2873Z" fill="#005DAA"/>
</g>
<defs>
<clipPath id="clip0">
<rect width="32" height="32" fill="white"/>
</clipPath>
</defs>
</svg>
