<svg width="32" height="32" viewBox="0 0 32 32" fill="none" xmlns="http://www.w3.org/2000/svg">
<path d="M21.3616 27.7629L0.0429153 27.7756L18.4786 4.22418L29.4038 4.21143L21.3616 27.7629Z" fill="#F1471C"/>
<path d="M30.1944 4.22412H31.7538L23.639 27.7756H22.0923L30.1944 4.22412Z" fill="#00A650"/>
<path fill-rule="evenodd" clip-rule="evenodd" d="M19.936 20.7037C20.9459 20.0496 21.674 18.9964 21.8946 17.7659L23.5204 17.7633C23.1302 20.7114 20.6093 22.9875 17.5554 22.9875C14.5002 22.9875 11.9793 20.7101 11.5942 17.7608L13.1741 17.7633C13.3934 18.9862 14.1113 20.0356 15.1135 20.6897L15.1072 13.2749C14.1381 13.9099 13.4342 14.916 13.1958 16.0904C13.1945 16.0974 13.1913 16.1116 13.188 16.1257C13.1849 16.1396 13.1817 16.1535 13.1805 16.1605L11.5955 16.1618C11.9908 13.2252 14.5079 10.958 17.5554 10.958C20.6016 10.958 23.1187 13.2226 23.5153 16.1605L21.8882 16.1579C21.6587 14.9338 20.9243 13.8857 19.9105 13.2417L19.936 20.7037ZM16.7189 21.3732C16.9841 21.4216 17.2557 21.4484 17.535 21.4484C17.8028 21.4484 18.068 21.4242 18.3217 21.3783V12.659C18.0667 12.6131 17.8028 12.5889 17.535 12.5889C17.2557 12.5889 16.9841 12.6157 16.7202 12.6641L16.7189 21.3732Z" fill="white"/>
</svg>
