<svg width="32" height="32" viewBox="0 0 32 32" fill="none" xmlns="http://www.w3.org/2000/svg">
<mask id="mask0" mask-type="alpha" maskUnits="userSpaceOnUse" x="2" y="0" width="27" height="32">
<path fill-rule="evenodd" clip-rule="evenodd" d="M2.4476 3.24776V18.695C2.4476 21.9448 3.66756 24.6636 5.9759 26.5553C8.08742 28.2867 14.7985 31.2318 15.5694 31.5664C16.3399 31.2318 23.0513 28.2867 25.1629 26.5557C27.4712 24.664 28.6912 21.9448 28.6912 18.6954V3.24776C25.0462 1.31484 20.6311 0.335449 15.5694 0.335449C10.5077 0.335449 6.09327 1.31521 2.4476 3.24848" fill="white"/>
</mask>
<g mask="url(#mask0)">
<path d="M2.4476 0.335938H28.6912V31.5658H2.4476L2.4476 0.335938Z" fill="url(#paint0_radial)"/>
</g>
<mask id="mask1" mask-type="alpha" maskUnits="userSpaceOnUse" x="3" y="3" width="25" height="28">
<path fill-rule="evenodd" clip-rule="evenodd" d="M15.1181 12.3717V19.386C15.2814 19.4469 15.5493 19.5238 15.8588 19.5238C17.1732 19.5238 17.8001 18.318 17.8001 15.8223C17.8001 13.2647 17.2515 12.2073 15.9266 12.2073C15.6168 12.2073 15.3033 12.2802 15.1181 12.3713V12.3717ZM9.38356 19.2045V10.6002H11.6624V20.5035C10.7901 21.0962 9.61975 21.4206 8.22265 21.4206C5.96351 21.4206 4.81827 20.1952 4.81827 17.7757V10.6002H7.1V17.8774C7.1 18.5251 7.25674 19.4837 8.30283 19.4837C8.76684 19.4837 9.13497 19.3754 9.38319 19.2045H9.38356ZM12.8335 11.1809C13.6616 10.6465 14.6658 10.3688 15.9109 10.3688C18.6359 10.3688 20.1332 12.4362 20.1332 15.7644C20.1332 19.0988 18.6789 21.3812 16.1449 21.3812C15.6765 21.3812 15.3456 21.3193 15.1178 21.2518V26.0584H12.8335V11.1812V11.1809ZM24.3005 18.2666C24.2837 17.5497 23.8788 17.1611 22.8753 16.5717C20.9923 15.4666 20.6541 14.5583 20.6508 13.3438C20.641 11.4994 22.2116 10.4125 23.7136 10.3688C24.9675 10.3305 25.8168 10.8014 26.2184 11.1102V13.0952C25.7428 12.6068 24.9711 12.1643 24.1736 12.157C23.527 12.1512 22.8534 12.4358 22.8308 13.2479C22.809 14.0782 23.4807 14.407 24.3325 14.9056C26.2396 16.0268 26.6084 17.0343 26.5647 18.3661C26.521 19.8256 25.515 21.4206 23.2595 21.4206C22.357 21.4206 21.4647 21.1385 20.7499 20.7117V18.6096C21.3331 19.129 22.2043 19.5333 22.9325 19.5384H22.9416C23.7741 19.5384 24.3209 19.0598 24.3012 18.2663L24.3005 18.2666ZM3.65372 9.86032V18.6956C3.65372 21.5737 4.71804 23.9772 6.74025 25.6247C8.52518 27.079 14.0199 29.5649 15.5694 30.2501C17.0988 29.5758 22.5797 27.1206 24.3963 25.6247C26.432 23.948 27.4854 21.6007 27.4854 18.6956V3.5728C25.8649 3.4219 24.1816 3.32275 22.4663 3.32275C16.107 3.32275 9.28988 4.68961 3.65335 9.85959L3.65372 9.86032Z" fill="white"/>
</mask>
<g mask="url(#mask1)">
<path d="M3.65335 3.32275H27.4854V30.2501H3.65335V3.32275Z" fill="url(#paint1_radial)"/>
</g>
<defs>
<radialGradient id="paint0_radial" cx="0" cy="0" r="1" gradientUnits="userSpaceOnUse" gradientTransform="translate(6.45894 5.73286) rotate(90) scale(43.5964 36.6356)">
<stop stop-color="#FFDC00"/>
<stop offset="0.35" stop-color="#FFBE00"/>
<stop offset="1" stop-color="#C86E14"/>
</radialGradient>
<radialGradient id="paint1_radial" cx="0" cy="0" r="1" gradientUnits="userSpaceOnUse" gradientTransform="translate(6.47201 5.75682) rotate(90) scale(43.2593 38.2867)">
<stop stop-color="#4B3333"/>
<stop offset="0.35" stop-color="#351A1A"/>
<stop offset="0.85" stop-color="#1E0000"/>
<stop offset="1" stop-color="#1E0000"/>
</radialGradient>
</defs>
</svg>
