<svg width="32" height="32" viewBox="0 0 32 32" fill="none" xmlns="http://www.w3.org/2000/svg">
<path d="M13.0333 13.3643L12.578 13.3658L12.6268 13.106H14.2228L12.3098 14.4758L12.4759 13.7741L13.0333 13.3643Z" fill="#FDB827"/>
<path fill-rule="evenodd" clip-rule="evenodd" d="M8.3753 13.1055L6.98383 18.6981L8.54092 18.6978L9.90717 13.1055H8.3753ZM9.11258 18.7074L10.504 13.1143H12.0359L10.6687 18.707L9.11258 18.7074ZM14.8233 14.5951C15.4973 14.4411 16.1702 14.3301 16.7954 14.3301C18.0778 14.3301 18.4035 14.7831 18.2526 15.4924L17.4336 18.6975H15.875C16.0377 18.1827 16.174 17.6615 16.3093 17.1443L16.3093 17.1442C16.3401 17.0264 16.3709 16.9088 16.4019 16.7916C16.2853 16.8661 16.1016 16.9196 15.9051 16.9767C15.5165 17.0898 15.0776 17.2174 15.007 17.5522C14.95 17.8172 15.1617 17.8939 15.3804 17.8939C15.5267 17.8939 15.6781 17.8685 15.8268 17.8172L15.3613 18.749C15.1347 18.7831 14.9198 18.8003 14.7008 18.8003C13.2157 18.8003 13.4389 17.6718 13.4593 17.5775C13.6918 16.482 14.7616 16.2572 15.6012 16.0807C16.1434 15.9668 16.5896 15.873 16.6522 15.578C16.7121 15.296 16.4403 15.2358 16.2216 15.2358C15.6533 15.2358 15.0102 15.4327 14.4394 15.6379L14.8233 14.5951ZM20.6361 15.0053L20.6237 14.9882L20.6237 14.9881L20.782 14.4327H19.1993L18.0495 18.6972H19.6644C19.6644 18.6972 20.1288 16.8176 20.3631 16.3641C20.562 15.9624 20.9021 15.6632 21.3157 15.6632C21.7865 15.6632 21.8269 16.0481 21.7377 16.4667C21.6195 17.0236 21.46 17.5806 21.3005 18.1376L21.3005 18.1376L21.3005 18.1377L21.3004 18.138C21.247 18.3244 21.1936 18.5109 21.1417 18.6973H22.7407L23.4937 15.6889C23.7154 14.6463 23.0928 14.3302 22.2974 14.3302C21.6721 14.3302 21.1244 14.5007 20.6361 15.0053ZM29.7225 17.7233C29.187 17.7233 28.7107 17.484 28.8519 16.8176L28.852 16.8177H31.644C31.7301 16.6035 31.7918 16.3899 31.8376 16.1762C32.0902 14.9883 31.4992 14.3303 30.1677 14.3303C28.0088 14.3303 27.4301 16.2529 27.3333 16.7061C26.9754 18.3897 28.0166 18.8005 29.3072 18.8005C29.7785 18.8005 30.2693 18.7406 30.754 18.6379L31.2029 17.4413C30.7197 17.5778 30.2012 17.7233 29.7225 17.7233ZM29.948 15.2873C30.3375 15.2873 30.4782 15.5436 30.3728 16.0398H29.0657C29.1851 15.6719 29.5098 15.2873 29.948 15.2873ZM27.4309 15.7578C27.1237 15.6381 26.7927 15.5525 26.4439 15.5525C25.8182 15.5525 25.3387 15.9374 25.1973 16.6038C25.0609 17.2448 25.3152 17.5781 25.9241 17.5781C26.2648 17.5781 26.6316 17.4927 26.9738 17.3728L26.5089 18.6463C26.0887 18.7492 25.6726 18.8005 25.2661 18.8005C23.9435 18.8005 23.3484 18.048 23.6478 16.6378C23.7438 16.1848 24.2435 14.3305 26.2897 14.3305C26.8176 14.3305 27.2365 14.3818 27.6265 14.4926L27.4309 15.7578V15.7578ZM12.3105 14.5138L11.2705 18.7074L12.8278 18.7072L13.8678 14.5265L12.3105 14.5138ZM3.99554 13.1064L0.105423 18.6955H1.91554L3.08259 17.0283L4.94028 17.0521L5.12289 18.6955H6.933L6.15498 13.7972L6.7504 13.1065L3.99554 13.1064ZM4.90853 15.8931L4.70212 14.3767L3.67006 15.8931H4.90853Z" fill="#003263"/>
</svg>
