<svg width="32" height="32" viewBox="0 0 32 32" fill="none" xmlns="http://www.w3.org/2000/svg">
<path fill-rule="evenodd" clip-rule="evenodd" d="M0 15.9998C0 11.7264 1.66429 7.70846 4.68622 4.68628C7.7083 1.66426 11.7265 0 15.9998 0C20.2738 0 24.2915 1.66426 27.3139 4.68628C30.3357 7.70846 32 11.7264 32 15.9998C32 24.8223 24.8227 32 15.9998 32C11.7265 32 7.7083 30.3357 4.68622 27.3137C1.66429 24.2917 0 20.2738 0 15.9998Z" fill="#F2E500"/>
<path fill-rule="evenodd" clip-rule="evenodd" d="M23.2952 7.95956H15.4768C14.8674 7.95956 14.122 8.39246 13.8198 8.92136L10.389 14.9318L11.2787 16.3543L12.25 14.6528C12.25 14.6528 12.8478 13.2514 14.6281 13.2514C16.409 13.2514 20.3666 13.2514 20.3666 13.2514C20.9759 13.2514 21.7213 12.8185 22.0233 12.2893L24.9163 7.22095C24.9163 7.22126 23.9041 7.95956 23.2952 7.95956Z" fill="#57B8A1"/>
<path fill-rule="evenodd" clip-rule="evenodd" d="M13.71 20.9365C14.3917 20.9365 22.2278 20.9365 22.2278 20.9365C22.8372 20.9365 23.5823 20.4961 23.8838 19.9668L27.7099 13.252C27.7099 13.252 26.6973 13.9904 26.0883 13.9904H16.0093C15.4003 13.9904 14.6544 14.423 14.3518 14.9517C14.3518 14.9517 11.4327 20.0175 11.004 20.7694C10.5753 21.5212 9.70581 21.7269 9.36659 21.7246C8.0043 21.7154 6.69041 20.8847 6.69041 19.2694C6.69041 16.8236 10.4441 17.5594 10.4441 17.5594L8.4752 14.4211C8.4752 14.4211 4.22935 14.539 4.22935 19.1591C4.22935 23.8357 9.0007 24.328 9.0007 24.328H25.4386L26.9492 21.6822C26.9492 21.6822 13.9273 21.6822 13.2856 21.6822C12.8271 21.6821 12.7189 20.9365 13.71 20.9365Z" fill="#57B8A1"/>
</svg>
