<svg width="32" height="32" viewBox="0 0 32 32" fill="none" xmlns="http://www.w3.org/2000/svg">
<path fill-rule="evenodd" clip-rule="evenodd" d="M12.704 20.6999L17.6951 12H23.4873V20.6999H20.0073V14.9076L16.5503 20.6999H12.704H12.704Z" fill="#FFCB05"/>
<path fill-rule="evenodd" clip-rule="evenodd" d="M10.8495 12L5.85866 20.6999H0.0664062V12H3.54632V17.7922L7.00322 12H10.8495Z" fill="#FFCB05"/>
<path fill-rule="evenodd" clip-rule="evenodd" d="M12.2232 12H16.3442L11.2844 20.6999H7.16339L12.2232 12Z" fill="#FFCB05"/>
<path fill-rule="evenodd" clip-rule="evenodd" d="M28.5267 20.684C28.5267 20.684 28.474 18.7418 28.474 18.5996C28.4736 18.4579 28.5447 18.4376 28.6562 18.4884L30.3425 18.8631C30.3425 18.8631 30.1388 18.1843 30.1083 18.0829C30.0778 17.9815 30.1083 17.8802 30.1993 17.7786C30.2904 17.6775 31.9916 16.2047 31.9916 16.2047C31.9916 16.2047 31.6214 15.9207 31.5301 15.85C31.4388 15.7789 31.4376 15.6655 31.4841 15.5661C31.5599 15.4037 31.9072 14.6724 31.9072 14.6724C31.9072 14.6724 31.1207 14.8699 30.9468 14.9129C30.8403 14.9392 30.729 14.9166 30.6772 14.8133C30.6253 14.7099 30.4182 14.2917 30.4182 14.2917L30.42 14.2939C30.42 14.2939 29.9447 14.7387 29.5501 15.0998C29.4083 15.2317 29.2945 15.0999 29.3248 14.9682C29.3549 14.8364 29.7482 13.0797 29.7482 13.0797C29.7482 13.0797 29.1719 13.2333 29.0592 13.2582C28.9466 13.2832 28.8583 13.2116 28.8116 13.1123C28.7346 12.9502 28.2371 12.0002 28.2371 12.0002C28.2371 12.0002 27.7412 12.9502 27.665 13.1123C27.6181 13.2116 27.5306 13.2832 27.4175 13.2582C27.3045 13.2333 26.7282 13.0797 26.7282 13.0797C26.7282 13.0797 27.1254 14.8364 27.1557 14.9682C27.1863 15.0999 27.0727 15.2317 26.9307 15.0998C26.535 14.7387 26.0594 14.2939 26.0594 14.2939L26.061 14.2917C26.061 14.2917 25.8548 14.7099 25.8032 14.8133C25.7514 14.9166 25.6401 14.9393 25.5336 14.9129C25.3599 14.8699 24.5728 14.6724 24.5728 14.6724C24.5728 14.6724 24.9218 15.4037 24.9979 15.5661C25.0445 15.6655 25.0439 15.7789 24.9527 15.85C24.8613 15.9207 24.4918 16.2047 24.4918 16.2047C24.4918 16.2047 26.196 17.6775 26.2874 17.7786C26.3788 17.8802 26.4092 17.9815 26.3789 18.0829C26.3486 18.1842 26.1469 18.8631 26.1469 18.8631L27.8321 18.4884C27.9436 18.4376 28.0141 18.4579 28.0146 18.5996C28.0148 18.7418 27.9659 20.684 27.9659 20.684H28.5267Z" fill="#ED1C24"/>
</svg>
