<svg width="32" height="32" viewBox="0 0 32 32" fill="none" xmlns="http://www.w3.org/2000/svg">
<g clip-path="url(#clip0)">
<path fill-rule="evenodd" clip-rule="evenodd" d="M15.8772 0.0808542L15.9924 0L16.1057 0.0754768C16.2958 0.200695 16.8778 0.696576 17.2791 1.07588C18.3527 2.08858 19.4148 3.34864 20.2752 4.62944C20.4403 4.87546 20.5056 4.95075 20.5536 4.95093C20.5901 4.95113 20.8648 4.90561 21.1644 4.8503C22.3916 4.6254 23.4191 4.52342 24.6866 4.50019C25.9234 4.47733 27.2505 4.56625 27.3331 4.67803C27.3907 4.75465 27.4503 5.34887 27.4887 6.20907C27.554 7.64736 27.4099 9.46879 27.1142 10.9712C27.0681 11.2074 27.0277 11.4283 27.0277 11.461C27.0277 11.507 27.1257 11.5858 27.4099 11.7778C28.5469 12.5403 29.7741 13.5582 30.7248 14.5261C31.3432 15.1541 32 15.9243 32 16.0203C32 16.1355 31.2433 16.9959 30.4732 17.7545C29.4975 18.7167 28.3952 19.6155 27.337 20.3108C27.1679 20.4221 27.0239 20.5278 27.0162 20.547C27.0085 20.5662 27.047 20.8062 27.1007 21.079C27.3619 22.408 27.4887 23.7523 27.4887 25.1831C27.4887 26.1876 27.4119 27.2477 27.3331 27.3514C27.2851 27.4167 26.7377 27.4762 25.862 27.5147C24.364 27.58 22.5952 27.4398 21.0223 27.1325C20.7707 27.0845 20.546 27.0518 20.5229 27.0595C20.4999 27.0691 20.3866 27.2151 20.2713 27.386C19.5146 28.5153 18.683 29.5331 17.7055 30.5222C17.1332 31.1041 16.6915 31.5074 16.2824 31.8301C16.1479 31.9357 16.0174 32.0221 15.9924 32.0221C15.8272 32.0221 14.3311 30.6336 13.5629 29.7655C12.9522 29.076 12.2128 28.1254 11.7403 27.4167C11.5368 27.1113 11.4849 27.0518 11.4234 27.0518C11.385 27.0518 11.1584 27.0883 10.9203 27.1363C8.94212 27.5262 6.52226 27.6395 4.86484 27.4206C4.68047 27.3956 4.61133 27.3764 4.59981 27.3418C4.54603 27.167 4.49034 26.3393 4.47689 25.5077C4.45192 23.9252 4.56332 22.6096 4.85524 21.0732C4.90709 20.7966 4.9455 20.5566 4.93974 20.5412C4.93206 20.5259 4.76305 20.4029 4.56139 20.2685C2.93279 19.1815 1.12941 17.5433 0.151859 16.2642C0.0058986 16.0702 -0.0171475 16.0299 0.00974003 15.9761C0.0539122 15.8801 0.509078 15.3251 0.833647 14.9717C1.89186 13.8155 3.23815 12.6632 4.59596 11.7471C4.9359 11.5186 4.9359 11.5166 4.92053 11.4168C4.91285 11.3611 4.85908 11.0576 4.80146 10.7427C4.52683 9.21547 4.41543 7.68596 4.47113 6.22002C4.4961 5.51691 4.56716 4.77981 4.61325 4.69051C4.65166 4.61945 4.97047 4.57297 5.77709 4.52073C7.3404 4.41971 9.21484 4.54954 10.9356 4.87738C11.2122 4.93 11.4542 4.96476 11.4734 4.95458C11.4926 4.94421 11.627 4.76176 11.7711 4.54858C12.305 3.76251 12.9387 2.95339 13.5956 2.2209C14.2524 1.4886 15.4028 0.409265 15.8772 0.0808542ZM17.934 2.7525C17.331 2.0734 16.1038 0.899 15.9962 0.899C15.9713 0.899 15.808 1.02518 15.6332 1.1792C14.6787 2.02558 13.7146 3.07823 12.9061 4.16063C12.4682 4.74889 12.257 5.0556 12.257 5.10899C12.257 5.16373 12.2685 5.16815 12.7179 5.29951C13.2038 5.44144 13.2115 5.44105 13.3248 5.27435C13.7473 4.65479 14.456 3.79093 15.0244 3.20594C15.4777 2.74098 15.9271 2.33575 15.9905 2.33575C16.1076 2.33575 17.1409 3.34748 17.6805 3.99009C17.9705 4.33771 18.5332 5.06981 18.6811 5.29221C18.7253 5.3577 18.781 5.41053 18.8079 5.40994C18.8328 5.40936 19.046 5.35348 19.2842 5.28587C19.5972 5.19676 19.7163 5.15048 19.724 5.11629C19.747 4.99549 18.7099 3.62558 17.934 2.7525ZM15.9905 3.25549C16.0423 3.25549 16.5685 3.77787 16.9334 4.19213C17.3809 4.69838 18.0339 5.54822 18.0339 5.62273C18.0339 5.64693 17.9763 5.68573 17.8976 5.71434C17.5173 5.85281 16.6569 6.20024 16.3438 6.34197C16.1479 6.43032 15.9809 6.50195 15.9693 6.50099C15.9597 6.50003 15.8541 6.45336 15.735 6.39767C15.4085 6.24422 14.6883 5.94711 14.3119 5.8096C14.1276 5.742 13.9701 5.66921 13.9605 5.64789C13.9221 5.54553 14.8746 4.35864 15.5872 3.6227C15.783 3.42085 15.9655 3.25549 15.9905 3.25549ZM25.4337 5.19349C25.2839 5.19004 25.136 5.18812 24.9862 5.18812C22.7411 5.18754 20.4634 5.57088 18.2989 6.31508C17.765 6.49907 16.9142 6.83574 16.8701 6.87991C16.8317 6.92101 16.9181 6.98689 17.3003 7.20333C17.475 7.30166 17.6728 7.41439 17.7401 7.453L17.8611 7.5229L18.0416 7.45473C19.8277 6.77947 21.6138 6.37731 23.4325 6.24153C23.9933 6.19947 25.6085 6.21752 25.6968 6.26669C25.7506 6.29645 25.7621 6.33755 25.7813 6.58185C25.8159 6.98554 25.8063 8.16859 25.766 8.67253C25.6238 10.4239 25.2493 12.1082 24.629 13.7733C24.0394 15.3596 23.1598 16.971 22.1342 18.3422C21.9614 18.5708 21.8212 18.7858 21.8212 18.8166C21.8212 18.8492 21.8538 19.0355 21.8942 19.2333C22.0555 20.0304 22.1304 20.8773 22.1054 21.5783C22.0958 21.8318 22.0805 22.0604 22.0709 22.0853C22.0574 22.1218 21.9883 22.1353 21.7463 22.1525C21.0645 22.1986 19.989 22.1141 19.1862 21.9509C18.9903 21.9106 18.8002 21.8779 18.7637 21.8779C18.7215 21.8779 18.5505 21.9874 18.3278 22.1545C18.1261 22.3081 17.7285 22.5847 17.4443 22.7709C16.8029 23.1915 16.7971 23.1954 16.7971 23.23C16.7971 23.2607 16.9738 23.3529 17.4021 23.5488C17.5672 23.6237 17.7343 23.687 17.7708 23.687C17.8419 23.689 18.1415 23.5027 18.5793 23.1877C18.7215 23.0859 18.8617 22.988 18.8905 22.9726C18.925 22.9553 19.0691 22.963 19.3283 22.9995C19.9909 23.0917 20.4615 23.1186 21.3103 23.1147C22.1823 23.1128 22.9005 23.059 22.9639 22.9937C23.0196 22.9342 23.0657 22.3907 23.083 21.5898C23.1003 20.7966 23.0715 20.2359 22.9735 19.4465L22.9121 18.9549L23.156 18.613C25.5048 15.3327 26.8011 11.1882 26.803 6.94828C26.803 6.08981 26.7608 5.33293 26.7109 5.28242C26.6648 5.23594 26.3517 5.21462 25.4337 5.19349ZM6.86987 5.19522C7.4902 5.19487 8.1451 5.21232 8.55033 5.24919C11.3428 5.50328 13.7166 6.15741 16.0308 7.31107C16.9853 7.78698 17.7381 8.24387 18.8098 8.99672L18.9385 9.08737L19.2112 9.04512C20.0966 8.90972 21.5485 8.86228 22.3878 8.94102C22.8756 8.98693 22.9447 9.00075 22.9754 9.05683C23.0619 9.21893 23.1214 10.8771 23.0657 11.6319C23.0484 11.8854 23.0062 12.3137 22.9716 12.5845L22.9121 13.078L23.083 13.3181C23.421 13.7906 23.6745 14.1862 23.6726 14.2457C23.6726 14.2784 23.5785 14.5088 23.4652 14.7585C23.3115 15.0888 23.2424 15.2098 23.2059 15.2098C23.1752 15.2098 23.1118 15.1368 23.0369 15.012C22.8583 14.7086 22.3974 14.0325 22.117 13.6619C21.9787 13.4775 21.8577 13.3123 21.8462 13.2931C21.8346 13.2739 21.8634 13.0608 21.9115 12.8188C22.0286 12.2196 22.0862 11.751 22.1131 11.1806C22.1362 10.7139 22.1112 9.9687 22.0728 9.92837C22.0613 9.91685 21.6829 9.90916 21.2297 9.90916C20.3309 9.90916 20.0082 9.93797 19.2035 10.0974C18.9692 10.1435 18.7695 10.1819 18.756 10.1819C18.7445 10.1819 18.5601 10.0494 18.3489 9.88996C15.1358 7.47297 11.0105 6.1092 7.17139 6.19563C6.76808 6.20466 6.39358 6.22367 6.33788 6.23692C6.24954 6.25843 6.2361 6.27399 6.21113 6.38883C6.16312 6.62467 6.17656 8.36006 6.23225 8.91683C6.39358 10.5257 6.74888 12.1139 7.25782 13.5006L7.32491 13.6839L7.32502 13.6842L7.32505 13.6843L7.32528 13.6849C7.38183 13.8393 7.43134 13.9745 7.44795 14.0229L7.4902 14.142L7.28663 14.4935C7.17331 14.6874 7.0504 14.9083 7.01007 14.9851C6.90636 15.1906 6.85259 15.1753 6.73927 14.9006C5.87504 12.8264 5.35841 10.6198 5.18749 8.27287C5.14908 7.72821 5.14716 6.13955 5.18749 5.6694C5.20861 5.4036 5.22782 5.30162 5.26239 5.27704C5.33153 5.22461 6.07285 5.19561 6.86987 5.19522ZM7.70146 6.88548C7.43643 6.87914 7.2655 6.87586 7.15027 6.87646C6.96014 6.87742 6.93133 6.89048 6.89868 6.92216C6.84875 6.97267 6.84683 7.01627 6.86411 7.66579C6.89868 9.02822 7.05424 10.1761 7.38841 11.5262C7.52669 12.0909 7.84742 13.151 7.92232 13.2912C7.93769 13.32 7.96073 13.3431 7.9761 13.3431C7.99146 13.3431 8.06828 13.249 8.14702 13.1376L8.15224 13.1301C8.2102 13.0476 8.24707 12.995 8.26737 12.9367C8.30286 12.8348 8.28775 12.7154 8.24626 12.3871L8.24626 12.387L8.24625 12.387L8.24625 12.387L8.24625 12.387L8.24305 12.3617C8.17007 11.7913 8.17007 9.78817 8.24305 9.21854C8.30067 8.76683 8.3602 8.46435 8.39669 8.42652C8.43126 8.39291 8.99206 8.29784 9.44146 8.2504C9.66616 8.22659 10.1559 8.21293 10.7493 8.21353C11.6347 8.21468 11.9631 8.23293 12.6065 8.31685L12.8562 8.34931L13.0751 8.1974C13.1961 8.11405 13.3017 8.03377 13.3113 8.01879C13.344 7.96501 13.2422 7.91565 12.8043 7.77181C11.097 7.21216 9.4549 6.92677 7.70146 6.88548ZM24.483 6.90507C24.8134 6.90543 25.0784 6.91621 25.0919 6.93753C25.1207 6.98593 25.1091 8.11136 25.0746 8.54943C24.9555 10.0513 24.6828 11.4149 24.2238 12.8284C24.1393 13.0915 24.0509 13.3219 24.0298 13.3392C24.001 13.3623 23.9779 13.3546 23.9357 13.3066C23.903 13.272 23.8224 13.1625 23.7552 13.0665L23.6361 12.8917L23.6995 12.3617C23.7878 11.6338 23.7955 9.913 23.7148 9.24735C23.6553 8.76184 23.5996 8.46358 23.5612 8.42459C23.5228 8.38734 23.1233 8.32127 22.6028 8.26577C21.9806 8.19912 20.5498 8.20047 19.9026 8.26845L19.7015 8.28966C19.2482 8.33772 19.129 8.35038 19.0357 8.30699C19.0024 8.29148 18.9725 8.26883 18.9318 8.23808C18.9166 8.22656 18.8998 8.21392 18.8809 8.20008C18.7714 8.11961 18.6811 8.03165 18.6811 8.00534C18.6811 7.96943 18.7733 7.92602 19.0422 7.83461C20.4365 7.36254 21.9787 7.05007 23.4805 6.93561C23.7571 6.91467 24.1527 6.90488 24.483 6.90507ZM15.2107 8.79372C15.1954 8.73995 14.2927 8.3132 14.1948 8.3132C14.1506 8.3132 13.6013 8.66927 13.2518 8.92585L13.054 9.07124L12.7774 9.03532C11.8575 8.91606 11.7192 8.90721 10.734 8.9078C9.73146 8.90838 9.09 8.95293 8.99974 9.02822C8.90563 9.10658 8.82689 10.4757 8.86722 11.3457C8.89603 11.9564 8.92484 12.2753 8.99782 12.7746L9.04199 13.0838L8.87106 13.32C7.2655 15.5498 6.12855 18.2097 5.56391 21.0636C5.25471 22.6211 5.13947 23.9348 5.1702 25.5135C5.19517 26.6715 5.19901 26.7292 5.2912 26.7637C5.32961 26.7791 5.58312 26.8021 5.85583 26.8156C8.74239 26.9615 11.8037 26.4526 14.5558 25.3656C15.0436 25.1716 15.1147 25.1332 15.0801 25.0794C15.0686 25.0621 14.8497 24.9277 14.5923 24.7817L14.1256 24.5167L13.7012 24.6742C11.9189 25.3387 10.0503 25.7343 8.17583 25.8419C7.71875 25.8688 6.6855 25.8553 6.38014 25.8208L6.20729 25.7996L6.19 25.6287C6.15928 25.3483 6.16312 23.9002 6.19385 23.4988C6.32252 21.8395 6.68358 20.1321 7.23093 18.5957C7.85894 16.8384 8.76928 15.1368 9.86782 13.6676C10.0138 13.4756 10.1309 13.2912 10.1309 13.2624C10.1309 13.2317 10.0983 13.0454 10.058 12.8495C9.89471 12.0467 9.8102 10.9712 9.85629 10.2875C9.87742 9.98791 9.88126 9.97446 9.95424 9.94373C10.0042 9.92261 10.2769 9.91109 10.734 9.91109C11.5176 9.91109 11.9804 9.95526 12.7025 10.0974C12.9407 10.1435 13.1634 10.1819 13.1999 10.1819C13.2403 10.1819 13.4208 10.0666 13.6455 9.89764C14.043 9.59996 14.4636 9.3115 14.9399 9.00844C15.0955 8.90953 15.2165 8.81293 15.2107 8.79372ZM16.002 9.20414C16.0577 9.20414 16.6876 9.58459 17.1716 9.90916C17.6018 10.1992 17.8668 10.3931 18.3009 10.7369L18.3503 10.7761C18.4412 10.8485 18.4945 10.8909 18.555 10.9088C18.6406 10.9341 18.7406 10.9103 18.9822 10.8529L19.0825 10.8291C19.555 10.7196 20.3347 10.614 20.859 10.589C21.366 10.5641 21.4179 10.5679 21.4313 10.6332C21.4352 10.6582 21.4313 10.8867 21.4198 11.1421C21.3929 11.8182 21.3353 12.2176 21.1202 13.2163L21.0683 13.4506L21.2719 13.7061C21.5523 14.0594 21.8385 14.4512 22.0862 14.8219C22.3858 15.2713 22.8045 15.9608 22.8045 16.0088C22.8045 16.0625 22.4761 16.6195 22.1784 17.067C21.8827 17.5164 21.6215 17.8755 21.3007 18.2827L21.0434 18.6111L21.1317 18.9875C21.2873 19.6424 21.3756 20.2762 21.414 20.9925C21.4294 21.2941 21.4256 21.3978 21.3968 21.4304C21.2988 21.5495 19.9391 21.417 18.9884 21.198L18.5486 21.0982L18.2989 21.296C17.9033 21.609 17.5038 21.9009 17.1005 22.1679C16.6434 22.4713 16.0558 22.8266 16.0116 22.8247C15.9943 22.8247 15.954 22.8094 15.9213 22.7921C15.3144 22.4617 14.2678 21.755 13.6858 21.2864C13.561 21.1846 13.4323 21.102 13.4016 21.102C13.3709 21.102 13.246 21.127 13.125 21.1577C12.8274 21.2345 12.1917 21.3478 11.844 21.3882C11.4138 21.44 10.6706 21.4727 10.613 21.4419C10.5688 21.4189 10.5631 21.3709 10.5631 21.079C10.5631 20.5086 10.6591 19.7615 10.8242 19.0221C10.8703 18.8185 10.9068 18.6303 10.9068 18.6034C10.9068 18.5765 10.8089 18.4325 10.6898 18.2827C10.1636 17.6259 9.18219 16.147 9.18219 16.0145C9.18219 15.9608 9.56629 15.3251 9.8851 14.8507C10.1482 14.4589 10.4824 14.0037 10.7935 13.6119L10.9087 13.4641L10.8531 13.2374C10.6898 12.596 10.5727 11.7913 10.5438 11.1191C10.5285 10.7753 10.5323 10.662 10.5611 10.6274C10.6591 10.5103 12.0246 10.6428 12.9714 10.8598L13.4112 10.9616L13.561 10.8425C13.9144 10.5602 14.4214 10.1896 14.8113 9.92645C15.3144 9.58844 15.9463 9.20414 16.002 9.20414ZM5.1606 12.402C5.1414 12.3271 5.11067 12.2791 5.0857 12.2791C4.97815 12.2791 3.79318 13.1683 3.01537 13.8309C2.24139 14.4915 0.877819 15.8859 0.877819 16.0164C0.877819 16.0913 1.49239 16.7693 2.08775 17.3512C2.91742 18.1617 3.98524 19.0432 4.84179 19.6194C5.03769 19.75 5.08954 19.7749 5.11835 19.7442C5.17212 19.6904 5.3949 18.8838 5.3757 18.8166C5.3661 18.7859 5.23358 18.6725 5.07994 18.5669C4.72848 18.3249 4.12543 17.8486 3.69332 17.4703C3.29 17.1169 2.60822 16.4332 2.42193 16.1951L2.28557 16.0203L2.45457 15.809C2.64087 15.5766 3.40332 14.82 3.7663 14.505C4.10815 14.2073 4.64014 13.7867 5.03769 13.5025C5.22974 13.3623 5.38914 13.2394 5.38914 13.2259C5.38914 13.2144 5.34497 13.0512 5.2912 12.8629C5.25464 12.7363 5.2163 12.5999 5.18947 12.5044L5.18947 12.5044L5.1606 12.402ZM26.8799 12.2791C26.9336 12.281 27.6423 12.7804 28.1685 13.1894C28.9848 13.8213 29.9431 14.6932 30.5596 15.3635C31.0513 15.8993 31.1089 15.9684 31.1089 16.0222C31.1089 16.0933 30.7075 16.5388 30.0641 17.1784C29.2268 18.0119 28.4182 18.6937 27.4311 19.4004C26.9663 19.7327 26.8818 19.7845 26.8357 19.7557C26.8088 19.7384 26.6091 19.0662 26.5764 18.8838C26.5649 18.8166 26.5841 18.7916 26.7166 18.6975C27.7748 17.9447 28.7505 17.1073 29.3708 16.4178C29.5283 16.2431 29.6685 16.0798 29.6819 16.0568C29.7146 15.9972 29.5917 15.8474 29.1 15.3443C28.4643 14.6951 27.6923 14.0383 26.9471 13.514C26.757 13.3796 26.5937 13.2528 26.5841 13.2336C26.5764 13.2125 26.6129 13.0435 26.6667 12.8591C26.7068 12.7214 26.7491 12.572 26.776 12.4771L26.7973 12.402C26.8203 12.3175 26.8453 12.2791 26.8799 12.2791ZM5.73292 14.2342C5.67146 14.0575 5.64265 13.9884 5.58696 13.9922C5.55239 13.9941 5.50822 14.0229 5.441 14.069C4.7304 14.5607 3.23431 15.8801 3.23431 16.0145C3.23431 16.1355 4.41351 17.2033 5.20285 17.7968C5.40259 17.9466 5.56967 18.0522 5.6004 18.0484C5.63305 18.0445 5.66954 17.9984 5.69259 17.9408C5.98835 17.1572 6.0863 16.9114 6.2553 16.5311C6.36285 16.2853 6.45312 16.0587 6.45312 16.0261C6.45312 15.9953 6.38206 15.811 6.29371 15.617C6.12663 15.2482 5.84623 14.5549 5.73292 14.2342ZM26.3632 13.9922C26.4113 13.9845 26.4785 14.0287 26.6014 14.1209C27.5021 14.7815 28.7524 15.8839 28.7524 16.0145C28.7524 16.1336 27.6308 17.1457 26.8415 17.7392C26.3978 18.0714 26.3575 18.0964 26.3172 18.0464C26.2999 18.0272 26.2269 17.8448 26.152 17.6393C26.0771 17.4338 25.9081 17.0132 25.7736 16.704C25.6392 16.3967 25.5221 16.1048 25.5163 16.0587C25.5048 15.9953 25.547 15.8724 25.6719 15.5978C25.8255 15.2598 26.0982 14.5837 26.2461 14.1766C26.2883 14.0594 26.3152 13.9999 26.3632 13.9922ZM8.9402 16.9998C8.8749 16.8922 8.80961 16.8192 8.7808 16.8192C8.74623 16.8192 8.67133 16.9517 8.51192 17.2974C8.39093 17.5586 8.29106 17.7968 8.29106 17.8237C8.29106 17.8678 8.5004 18.1866 8.921 18.7916L9.04391 18.9645L9.01318 19.1354C8.95365 19.4792 8.89411 20.0976 8.86722 20.6718C8.82881 21.5303 8.90563 22.9227 8.99398 22.9976C9.04199 23.036 9.36656 23.0782 9.88702 23.1128C10.7301 23.1685 11.5502 23.1416 12.5335 23.0225L13.054 22.9592L13.4669 23.2492C15.4143 24.607 17.5403 25.5711 19.916 26.1741C21.3161 26.5313 22.7008 26.7407 24.1546 26.8194C24.9651 26.8636 26.6436 26.8156 26.7128 26.7464C26.7896 26.6696 26.8261 24.8855 26.7704 23.9905C26.6244 21.6724 26.1232 19.4119 25.3089 17.3839C25.1303 16.9441 25.0995 16.8864 25.0515 16.9172C25.0112 16.9421 24.5003 17.8429 24.5003 17.889C24.5003 17.9101 24.5445 18.0407 24.6002 18.1809C24.7481 18.5611 25.0554 19.508 25.186 19.9958C25.5028 21.1673 25.7083 22.4099 25.7948 23.6736C25.8293 24.1557 25.8159 25.5423 25.7775 25.7055C25.7602 25.7766 25.7429 25.7843 25.5681 25.8054C25.2225 25.8476 23.6956 25.8284 23.1483 25.7747C21.5177 25.6153 19.9276 25.258 18.4391 24.7164C16.7472 24.1038 15.0821 23.2069 13.6647 22.1468L13.2614 21.8453L12.8235 21.9298C11.9919 22.0949 11.7154 22.1218 10.8012 22.1218C10.1501 22.1218 9.95232 22.1122 9.92351 22.0834C9.89471 22.0546 9.88702 21.8625 9.88894 21.2211C9.88894 20.3204 9.91583 20.0284 10.0772 19.2045L10.1655 18.7532L9.8563 18.3384C9.55285 17.9331 9.15722 17.3531 8.9402 16.9998ZM24.001 18.6937H24.0068C24.0605 18.7033 24.1201 18.8588 24.3179 19.4926C24.8095 21.0751 25.0803 22.7095 25.1226 24.3496C25.1399 24.993 25.136 25.0583 25.0919 25.1044C25.0477 25.1466 24.9843 25.1524 24.5906 25.1486C24.3428 25.1447 24.0701 25.139 23.9818 25.1332C22.3685 25.0429 20.7764 24.7549 19.3264 24.2862C18.7944 24.1134 18.6658 24.0615 18.6658 24.0193C18.6658 23.9962 18.7599 23.9117 18.8751 23.8311L19.0825 23.6832L19.2688 23.6986L19.3941 23.7098L19.3944 23.7099C19.5316 23.7221 19.7333 23.7401 19.916 23.7581C20.1695 23.7811 20.6017 23.808 20.8782 23.8176C21.9095 23.8541 23.5074 23.7101 23.5804 23.5737C23.6188 23.5008 23.7168 22.7863 23.7513 22.3235C23.8128 21.5015 23.7821 20.3396 23.6783 19.5137L23.6323 19.1488L23.7974 18.9164C23.8992 18.7724 23.9664 18.6975 24.001 18.6937ZM8.29106 19.1949C8.29106 19.0816 8.04908 18.7167 7.97226 18.7167C7.93192 18.7167 7.88583 18.8262 7.73603 19.2833C7.17716 20.9945 6.87947 22.7556 6.87179 24.3631L6.86987 25.139L6.96974 25.1582C7.1253 25.1851 7.31159 25.1831 7.93192 25.1524C9.64504 25.0679 11.1815 24.7837 12.8331 24.2459C13.0482 24.1768 13.2479 24.1019 13.2768 24.0788C13.3478 24.027 13.3248 23.9982 13.0655 23.8196L12.8658 23.6813L12.4817 23.7274C11.7864 23.81 11.12 23.8407 10.4036 23.8234C9.39729 23.7984 8.4351 23.6813 8.38133 23.5776C8.3506 23.5219 8.27954 23.109 8.22769 22.6961C8.17007 22.239 8.18159 20.1571 8.24305 19.6693C8.26994 19.458 8.29106 19.2449 8.29106 19.1949ZM15.977 25.5269C15.9924 25.5269 16.2574 25.6364 16.5666 25.7689C16.8758 25.9014 17.3099 26.0762 17.5307 26.1568C17.9955 26.3278 18.0166 26.3374 18.0281 26.395C18.0378 26.4468 17.5557 27.0941 17.1255 27.6107C16.7318 28.0812 16.0596 28.7745 15.9962 28.7745C15.9713 28.7745 15.8138 28.6362 15.6467 28.4653C15.3164 28.1311 14.9937 27.772 14.6999 27.4109C14.3561 26.9884 13.9528 26.4353 13.9528 26.3854C13.9528 26.3527 13.9989 26.3201 14.0891 26.2874C14.4982 26.1376 15.1954 25.8572 15.5468 25.7036C15.7658 25.6057 15.9597 25.5269 15.977 25.5269ZM19.1248 26.6831C18.9807 26.6427 18.8463 26.612 18.804 26.6101C18.7964 26.6101 18.7925 26.6101 18.7906 26.612C18.7714 26.6178 18.6466 26.7753 18.5121 26.9615C17.959 27.7278 17.3829 28.4135 16.7971 29.005C16.4399 29.366 16.0423 29.7233 15.9962 29.7233C15.9021 29.7233 14.817 28.6401 14.3542 28.0851C14.0315 27.699 13.6609 27.2189 13.4285 26.8905C13.3401 26.7618 13.246 26.6408 13.223 26.6216C13.1615 26.5698 12.2762 26.8175 12.2627 26.8886C12.2512 26.9423 12.5009 27.3111 12.9618 27.9276C13.7799 29.0146 14.7191 30.0421 15.6467 30.866C15.8119 31.0119 15.9693 31.131 15.9962 31.131C16.1249 31.131 17.4846 29.8001 18.1415 29.03C18.8136 28.2425 19.7297 27.0172 19.7297 26.9039C19.7297 26.8636 19.6913 26.8406 19.578 26.8079C19.5297 26.7944 19.4398 26.7697 19.3402 26.7423C19.2696 26.7229 19.194 26.7022 19.1248 26.6831Z" fill="#B99750"/>
</g>
<defs>
<clipPath id="clip0">
<rect width="32" height="32" fill="white"/>
</clipPath>
</defs>
</svg>
