<svg width="32" height="32" viewBox="0 0 32 32" fill="none" xmlns="http://www.w3.org/2000/svg">
<path fill-rule="evenodd" clip-rule="evenodd" d="M19.2062 13.4588C22.0943 13.4588 24.4356 11.1175 24.4356 8.22939C24.4356 5.34128 22.0943 3 19.2062 3C16.3181 3 13.9768 5.34128 13.9768 8.22939C13.9768 11.1175 16.3181 13.4588 19.2062 13.4588Z" fill="#D5002C"/>
<path fill-rule="evenodd" clip-rule="evenodd" d="M8.47311 27.4839C13.0183 27.4839 16.703 23.7993 16.703 19.254C16.703 14.7088 13.0183 11.0242 8.47311 11.0242C3.92789 11.0242 0.243256 14.7088 0.243256 19.254C0.243256 23.7993 3.92789 27.4839 8.47311 27.4839Z" fill="#FFDB00"/>
<path fill-rule="evenodd" clip-rule="evenodd" d="M25.19 27.5353C28.8735 27.5353 31.8596 24.5492 31.8596 20.8657C31.8596 17.1821 28.8735 14.196 25.19 14.196C21.5065 14.196 18.5204 17.1821 18.5204 20.8657C18.5204 24.5492 21.5065 27.5353 25.19 27.5353Z" fill="#002F74"/>
<path fill-rule="evenodd" clip-rule="evenodd" d="M21.1265 8.55513C22.1397 8.55513 22.9611 7.73377 22.9611 6.72056C22.9611 5.70735 22.1397 4.88599 21.1265 4.88599C20.1133 4.88599 19.2919 5.70735 19.2919 6.72056C19.2919 7.73377 20.1133 8.55513 21.1265 8.55513Z" fill="white"/>
<path fill-rule="evenodd" clip-rule="evenodd" d="M5.8327 24.7233C7.11104 24.7233 8.14735 23.687 8.14735 22.4086C8.14735 21.1303 7.11104 20.094 5.8327 20.094C4.55435 20.094 3.51805 21.1303 3.51805 22.4086C3.51805 23.687 4.55435 24.7233 5.8327 24.7233Z" fill="white"/>
<path fill-rule="evenodd" clip-rule="evenodd" d="M28.3105 23.6776C29.4847 23.6776 30.4365 22.7258 30.4365 21.5516C30.4365 20.3774 29.4847 19.4255 28.3105 19.4255C27.1363 19.4255 26.1844 20.3774 26.1844 21.5516C26.1844 22.7258 27.1363 23.6776 28.3105 23.6776Z" fill="white"/>
</svg>
