<svg width="32" height="32" viewBox="0 0 32 32" fill="none" xmlns="http://www.w3.org/2000/svg">
<path d="M31.9117 17.7224C31.9117 17.7224 -0.447998 15.3481 0.0551412 19.8585C0.38988 22.8657 31.9117 17.7224 31.9117 17.7224Z" fill="#1788BA"/>
<path fill-rule="evenodd" clip-rule="evenodd" d="M9.1557 12.5774C9.35915 12.4958 9.57858 12.4558 9.81228 12.4558C9.90645 12.4558 9.99787 12.4616 10.0838 12.476C10.1697 12.489 10.2553 12.5103 10.3412 12.5405C10.511 12.5934 10.6731 12.6765 10.8291 12.7905L10.8022 13.3214V13.3221C10.6572 13.1951 10.5034 13.0996 10.3419 13.0365C10.2621 13.0056 10.1798 12.9817 10.0952 12.9652C10.012 12.9488 9.9245 12.9417 9.83446 12.9417C9.4901 12.9417 9.21091 13.0539 8.99508 13.2811C8.77856 13.5076 8.67115 13.8031 8.67115 14.1662C8.67115 14.5183 8.776 14.8066 8.98701 15.0331C9.19734 15.2603 9.46245 15.3732 9.7807 15.3732C9.87555 15.3732 9.96494 15.3654 10.0509 15.3496C10.1354 15.3331 10.2223 15.3067 10.3109 15.271C10.4787 15.2044 10.6415 15.1019 10.7968 14.9612V15.5586C10.6594 15.6609 10.5094 15.7363 10.3472 15.7871C10.2682 15.8111 10.1839 15.8292 10.0945 15.8416C10.0052 15.8553 9.91383 15.8631 9.82035 15.8631C9.57978 15.8631 9.35779 15.8217 9.15502 15.7421C8.95226 15.6611 8.77275 15.5424 8.61672 15.3852C8.46138 15.2274 8.34236 15.0442 8.25919 14.8342C8.17808 14.6234 8.13621 14.3996 8.13621 14.1615C8.13621 13.926 8.17808 13.7028 8.25919 13.4921C8.34236 13.2807 8.46138 13.0969 8.61672 12.9383C8.77275 12.7811 8.95293 12.6605 9.1557 12.5774ZM0.536745 15.859L2.09454 12.5176V12.5177L3.64965 15.8591H3.09992L2.73365 15.0311H1.46013L1.08715 15.8597L0.536745 15.859ZM11.3022 12.5378V15.8705H11.7558V14.941C11.7558 14.7735 11.7629 14.6517 11.7773 14.5727C11.7911 14.4952 11.8136 14.4339 11.8459 14.3873C11.8926 14.3131 11.959 14.2557 12.0408 14.2152C12.1239 14.1774 12.2185 14.1574 12.3244 14.1574C12.4859 14.1574 12.5985 14.2019 12.6617 14.2905C12.7243 14.3797 12.7565 14.5571 12.7565 14.8241V15.8698H13.2135V14.6332C13.2135 14.5378 13.2116 14.4579 13.2074 14.3913C13.2033 14.3268 13.1975 14.2764 13.1913 14.2421C13.1748 14.1673 13.1484 14.1035 13.1154 14.0472C13.057 13.9518 12.9759 13.8809 12.8728 13.8328C12.7683 13.7855 12.6428 13.7616 12.4958 13.7616C12.3184 13.7616 12.1679 13.7945 12.0441 13.8604C11.9218 13.9256 11.8156 14.0275 11.7283 14.1662V12.5378H11.3022ZM4.04347 13.3261V12.8819H4.49037V13.3261H4.04347ZM16.3755 12.8819V13.3261H16.823V12.8819H16.3755ZM2.16107 13.7031L2.09925 13.5002C2.08894 13.5414 2.07996 13.5768 2.07102 13.6063C2.06414 13.6345 2.05312 13.6662 2.04212 13.6971C2.027 13.754 2.00568 13.8109 1.98231 13.8651L1.65301 14.5969H2.54817L2.21954 13.8631L2.16107 13.7031ZM6.34387 13.7098C6.2717 13.7085 6.25399 13.7085 6.1557 13.7112C6.03404 13.7147 5.93234 13.7502 5.8526 13.8134C5.7715 13.8786 5.7072 13.9759 5.65771 14.1077V13.7838H5.19871V15.8658H5.65771V14.9115C5.65771 14.6246 5.69118 14.4947 5.75785 14.3732C5.82521 14.251 5.93728 14.1776 6.08849 14.1776H6.09215H6.09217C6.14259 14.1776 6.18132 14.1776 6.24037 14.1783C6.2933 14.179 6.32824 14.1814 6.36605 14.1978L6.46282 13.7173L6.44442 13.7154C6.41669 13.7126 6.40182 13.711 6.34387 13.7099V13.7098ZM14.2834 13.7965C14.4154 13.7423 14.5511 13.7159 14.6913 13.7159C14.8391 13.7159 14.9775 13.741 15.1046 13.7945C15.2311 13.8474 15.3456 13.9254 15.4487 14.0291C15.5518 14.1313 15.6303 14.2481 15.6826 14.3779C15.7362 14.5069 15.7632 14.6437 15.7632 14.7844C15.7632 14.93 15.7368 15.068 15.6859 15.1971C15.6337 15.3275 15.5565 15.4429 15.4527 15.5452C15.349 15.6475 15.2318 15.7255 15.1019 15.7811C14.9713 15.836 14.835 15.8637 14.692 15.8637C14.5525 15.8637 14.4187 15.8359 14.2894 15.7838C14.1595 15.7295 14.0444 15.6516 13.9427 15.5472C13.8402 15.4443 13.7624 15.3275 13.7095 15.1971C13.6565 15.068 13.6288 14.93 13.6288 14.7844C13.6288 14.6396 13.6558 14.5029 13.7095 14.3732C13.7624 14.2414 13.8383 14.1266 13.9373 14.0271C14.0363 13.9268 14.1528 13.8501 14.2834 13.7965ZM20.4386 13.7173C20.1204 13.7173 19.8592 13.8172 19.655 14.0183C19.4523 14.2195 19.3506 14.4768 19.3506 14.7905C19.3506 15.1173 19.4497 15.3785 19.6463 15.5728C19.8422 15.7664 20.1066 15.8645 20.4386 15.8645C20.5548 15.8645 20.6642 15.8515 20.7652 15.8261C20.8663 15.8008 20.9596 15.764 21.0435 15.7166C21.2174 15.6164 21.3608 15.4667 21.4763 15.2677L21.0757 15.0513C20.9974 15.1899 20.9086 15.2919 20.8083 15.353C20.7086 15.4148 20.5812 15.4451 20.4265 15.4451C20.2554 15.4451 20.1177 15.3928 20.0139 15.2885C19.9575 15.2302 19.9144 15.1657 19.8849 15.0943C19.856 15.0215 19.8412 14.941 19.8412 14.849H21.4978V14.7636C21.4978 14.4328 21.4045 14.1761 21.2189 13.9915C21.0319 13.8075 20.7727 13.7173 20.4386 13.7173ZM4.04347 15.8597V13.7563H4.49037V15.8597H4.04347ZM16.3755 13.7563V15.8597H16.823V13.7563H16.3755ZM17.612 14.0688C17.8223 13.8752 18.0977 13.7798 18.438 13.7798L18.438 13.7798C18.5438 13.7798 18.6429 13.7901 18.7337 13.81C18.7797 13.8196 18.8229 13.8306 18.862 13.845C18.9012 13.8587 18.9424 13.8768 18.9857 13.8994L18.985 14.3988C18.9142 14.3246 18.8299 14.2692 18.7316 14.2281C18.634 14.1889 18.5298 14.1676 18.4198 14.1676C18.228 14.1676 18.0736 14.2263 17.9581 14.3436C17.842 14.4603 17.7841 14.6165 17.7841 14.81C17.7841 15.0105 17.8426 15.1692 17.9595 15.2852C18.0763 15.4005 18.2372 15.4586 18.442 15.4586C18.499 15.4586 18.5524 15.4541 18.6033 15.4438C18.6555 15.4349 18.7038 15.4194 18.7484 15.3981C18.8371 15.3562 18.9156 15.2963 18.985 15.2133V15.7254C18.8984 15.77 18.8044 15.8048 18.7041 15.8289C18.603 15.8529 18.4995 15.8631 18.3902 15.8631C18.0686 15.8631 17.8055 15.7677 17.5992 15.5741C17.4989 15.4774 17.4216 15.365 17.3714 15.2428C17.3206 15.1186 17.2962 14.978 17.2962 14.8215C17.2962 14.5105 17.401 14.2596 17.612 14.0688ZM20.4474 14.103C20.611 14.103 20.7416 14.1398 20.8371 14.2146C20.932 14.2908 20.9886 14.4005 21.0065 14.5426H19.8721C19.912 14.3936 19.9789 14.2826 20.0724 14.2106C20.1658 14.1392 20.2906 14.103 20.4474 14.103ZM15.1228 14.3181C15.0073 14.1897 14.8658 14.1252 14.6974 14.1252C14.531 14.1252 14.3888 14.1897 14.272 14.3181C14.1558 14.4465 14.0986 14.6032 14.0986 14.7892C14.0986 14.9732 14.1565 15.1306 14.272 15.2596C14.3888 15.388 14.531 15.4518 14.6974 15.4518C14.8623 15.4518 15.0032 15.3873 15.1208 15.2596C15.2369 15.1313 15.2955 14.9739 15.2955 14.7892C15.2955 14.6032 15.2382 14.4465 15.1228 14.3181Z" fill="#282828"/>
<path fill-rule="evenodd" clip-rule="evenodd" d="M24.9984 12.3375C24.7496 12.3375 24.5141 12.3821 24.2921 12.4692C24.0715 12.5564 23.8732 12.6835 23.7007 12.8496C23.5268 13.0151 23.3949 13.2054 23.3042 13.4195C23.2135 13.633 23.1678 13.8587 23.1678 14.0969C23.1678 14.3344 23.2141 14.5609 23.3062 14.775C23.3977 14.9892 23.5289 15.1768 23.7007 15.3416C23.8726 15.5063 24.07 15.6327 24.2948 15.7219C24.5175 15.8112 24.7524 15.8557 24.9984 15.8557C25.2404 15.8557 25.4726 15.8105 25.6967 15.7199C25.9194 15.6293 26.1196 15.5009 26.2941 15.3369C26.4687 15.1721 26.6006 14.9837 26.6913 14.7744C26.782 14.5643 26.8264 14.3385 26.8264 14.0976C26.8264 13.8601 26.7814 13.6357 26.688 13.4209C26.5958 13.2074 26.4613 13.0157 26.2874 12.8496C26.1128 12.6821 25.9146 12.5551 25.694 12.4686C25.4741 12.38 25.2418 12.3375 24.9984 12.3375ZM24.9984 12.8389C25.1682 12.8389 25.3291 12.8711 25.481 12.935C25.6329 12.9995 25.7667 13.0911 25.8842 13.2085C26.001 13.3252 26.0911 13.4607 26.1537 13.6124C26.2155 13.7627 26.2478 13.9246 26.2478 14.0976C26.2478 14.2644 26.2143 14.4264 26.1476 14.5795C26.0823 14.7325 25.9916 14.868 25.8748 14.9854C25.76 15.1034 25.6268 15.1931 25.4763 15.2562C25.3257 15.318 25.1675 15.3496 24.9978 15.3496C24.828 15.3496 24.6672 15.318 24.5146 15.2542C24.3613 15.1917 24.2275 15.1001 24.1127 14.9827C24.0501 14.9216 23.9967 14.8584 23.9527 14.7932C23.9101 14.7266 23.8721 14.6557 23.8398 14.5781C23.778 14.4278 23.7471 14.2672 23.7471 14.0969C23.7471 14.007 23.7555 13.9218 23.7713 13.8442C23.7871 13.7674 23.8109 13.6893 23.8412 13.6117C23.9092 13.4559 23.9999 13.3205 24.1134 13.2051C24.233 13.0857 24.3681 12.9941 24.5186 12.9316C24.6684 12.8705 24.8287 12.8389 24.9984 12.8389H24.9984ZM29.9171 14.021C30.1206 13.8192 30.3825 13.7186 30.7014 13.7186C31.0348 13.7186 31.2947 13.8102 31.481 13.9934C31.6672 14.1774 31.7599 14.4347 31.7599 14.7663V14.853H30.1046C30.1046 14.945 30.1188 15.0255 30.147 15.0983C30.1765 15.1697 30.2196 15.2349 30.2767 15.2918C30.3805 15.3962 30.5175 15.4484 30.6893 15.4484C30.8446 15.4484 30.9714 15.4161 31.071 15.355C31.1707 15.2946 31.2601 15.194 31.3385 15.0539L31.7377 15.2683C31.6222 15.4687 31.4788 15.6184 31.3062 15.7172C31.2217 15.766 31.1284 15.8027 31.0273 15.8274C30.9263 15.8521 30.8169 15.8651 30.7007 15.8651C30.3687 15.8651 30.105 15.7684 29.9077 15.5734C29.7118 15.3798 29.6127 15.1186 29.6127 14.7912C29.6127 14.4781 29.7144 14.2214 29.9171 14.021ZM28.4514 13.7515C28.2741 13.7515 28.1235 13.7844 28.0005 13.8503C27.8767 13.9162 27.7706 14.0181 27.6826 14.1554V13.8221H27.2552V15.8637H27.7101V14.9336C27.7101 14.7648 27.7172 14.6423 27.7316 14.564C27.7454 14.4858 27.7686 14.4232 27.8009 14.3772C27.8476 14.3037 27.9126 14.2463 27.9964 14.2065C28.0789 14.1674 28.1748 14.1473 28.2807 14.1473C28.4429 14.1473 28.5555 14.1919 28.6187 14.2804C28.682 14.3696 28.7142 14.5477 28.7142 14.8147V15.8631H29.1725V14.6245C29.1725 14.5291 29.1706 14.4484 29.1671 14.3826C29.1616 14.3173 29.1565 14.2663 29.149 14.2334C29.1318 14.1579 29.1074 14.0934 29.0744 14.0371C29.0153 13.9424 28.9342 13.8715 28.8298 13.8227C28.726 13.7754 28.5999 13.7515 28.4514 13.7515ZM31.0986 14.2206C31.003 14.1451 30.8737 14.107 30.7095 14.107V14.107C30.5534 14.107 30.4293 14.1432 30.3345 14.2152C30.241 14.288 30.174 14.3983 30.1349 14.5465H31.2686V14.5459C31.2514 14.4045 31.1948 14.2954 31.0986 14.2206Z" fill="#1788BA"/>
</svg>
