<svg width="32" height="32" viewBox="0 0 32 32" fill="none" xmlns="http://www.w3.org/2000/svg">
<g clip-path="url(#clip0)">
<path fill-rule="evenodd" clip-rule="evenodd" d="M22.728 11.9435L26.2405 5.56416C26.2405 5.56416 23.9419 6.57143 23.1671 6.90718C22.4181 7.24294 22.1081 7.19128 21.979 6.64891C21.8757 6.13236 21.3075 2.23245 21.2817 2C21.0751 2.23245 17.2268 6.13236 16.6844 6.64891C16.1162 7.19128 15.7546 7.24294 15.2897 6.90718C14.799 6.57143 13.3527 5.58999 13.3527 5.58999L11.519 14.4746L22.728 11.9435ZM11.4415 14.4487L8.47134 10.0323C8.47134 10.0323 7.12832 11.5303 6.84422 11.866C6.5343 12.2018 6.25019 12.4084 5.75948 12.3567C5.13962 12.2534 2.35028 11.6852 2.35028 11.6852C2.35028 11.6852 2.14366 15.0944 2.09201 15.4302C2.06618 15.7659 1.93704 16.205 1.34302 16.7215L11.4415 14.4487ZM32 11.6852C32 11.6852 29.4431 15.0944 29.2106 15.4302C28.9782 15.7659 28.6683 16.2566 29.2623 16.5666L30.1404 17.0573C30.1404 17.0573 21.2558 22.1711 20.9717 22.3519C20.9365 22.3724 20.8989 22.3927 20.8599 22.4137C20.5559 22.5773 20.1652 22.7875 20.1194 23.5658C20.0936 24.4439 20.0678 25.6319 20.0678 25.6319L12.2938 24.4181L22.8055 12.021L27.3511 9.79982C27.3511 9.79982 27.4544 11.6852 27.4802 11.866C27.5061 12.2018 27.5835 12.4342 28.1517 12.3567C28.8749 12.2792 32 11.6852 32 11.6852Z" fill="#00AC9D"/>
<path d="M0 16.9798C0 16.9798 3.74495 21.3963 3.89991 21.6029C4.77804 22.6618 4.77805 23.0751 3.87409 24.1856C3.15093 25.0638 2.71186 25.632 2.71186 25.632C2.71186 25.632 7.92898 24.7538 8.62632 24.6247C9.29783 24.5214 9.96934 24.7022 9.78854 25.6061C9.68524 26.226 9.06537 29.661 9.06537 29.661L12.1646 24.3923L17.64 15.0686L1.16223 16.8507L0 16.9798Z" fill="#00467F"/>
<path d="M22.8055 12.021L12.2938 24.4181L12.1646 24.3922L17.64 15.0686L1.18805 16.8507L1.34301 16.7215L11.4415 14.4746L11.5448 14.4487L22.728 11.9435L22.8055 12.021Z" fill="white"/>
</g>
<defs>
<clipPath id="clip0">
<rect width="32" height="32" fill="white"/>
</clipPath>
</defs>
</svg>
